<svg width="801" height="515" viewBox="0 0 801 515" fill="none" xmlns="http://www.w3.org/2000/svg">
<path fill-rule="evenodd" clip-rule="evenodd" d="M67.675 16.645C67.675 7.45221 75.1272 0 84.32 0H186.271C195.463 0 202.916 7.45221 202.916 16.645V50.9753H258.052C264.947 50.9753 270.536 56.5645 270.536 63.459V93.6281C270.536 97.3042 268.417 100.486 265.334 102.018V107.152H761.563C775.352 107.152 786.531 118.33 786.531 132.12V142.762C786.531 145.609 788.441 148.102 791.191 148.843C796.42 150.251 800.055 154.993 800.055 160.408V291.808C800.055 305.597 788.876 316.775 775.087 316.775H554.32C513.955 316.775 478.354 343.212 466.683 381.853L456.782 414.633C451.477 432.197 435.294 444.213 416.947 444.213H265.334V468.073C268.417 469.605 270.536 472.787 270.536 476.463V502.471C270.536 509.365 264.947 514.954 258.052 514.954H12.5384C5.64383 514.954 0.0546875 509.365 0.0546875 502.471V476.463C0.0546875 472.787 2.17333 469.605 5.25625 468.073V102.018C2.17334 100.486 0.0546875 97.3042 0.0546875 93.6281V63.459C0.0546875 56.5644 5.64385 50.9753 12.5384 50.9753H67.675V16.645ZM194.593 59.2978V16.645C194.593 12.0486 190.867 8.3225 186.271 8.3225H84.32C79.7236 8.3225 75.9975 12.0486 75.9975 16.645V59.2978H12.5384C10.2402 59.2978 8.37718 61.1608 8.37718 63.459V93.6281C8.37718 94.2026 8.84295 94.6684 9.41749 94.6684H13.5787V475.423H9.4175C8.84295 475.423 8.37718 475.888 8.37718 476.463V502.471C8.37718 504.769 10.2402 506.632 12.5384 506.632H258.052C260.35 506.632 262.213 504.769 262.213 502.471V476.463C262.213 475.888 261.748 475.423 261.173 475.423H257.012V435.891H416.947C431.625 435.891 444.571 426.277 448.815 412.226L458.716 379.446C471.448 337.293 510.286 308.453 554.32 308.453H775.087C784.28 308.453 791.732 301 791.732 291.808V160.408C791.732 158.756 790.623 157.309 789.027 156.879C782.644 155.16 778.208 149.372 778.208 142.762V132.12C778.208 122.927 770.756 115.475 761.563 115.475H257.012V94.6684H261.173C261.748 94.6684 262.213 94.2026 262.213 93.6281V63.459C262.213 61.1608 260.35 59.2978 258.052 59.2978H194.593Z" fill="#F6A5B8"/>
<path d="M8.37695 63.4581C8.37695 61.1599 10.24 59.2969 12.5382 59.2969H258.052C260.35 59.2969 262.213 61.1599 262.213 63.4581V93.6272C262.213 94.2017 261.747 94.6675 261.173 94.6675H9.41726C8.84272 94.6675 8.37695 94.2017 8.37695 93.6272V63.4581Z" fill="#F6A5B8"/>
<path fill-rule="evenodd" clip-rule="evenodd" d="M7.67773 63.4589C7.67773 60.7741 9.85419 58.5977 12.539 58.5977H258.053C260.737 58.5977 262.914 60.7741 262.914 63.4589V93.628C262.914 94.5891 262.135 95.3683 261.174 95.3683H9.41805C8.4569 95.3683 7.67773 94.5891 7.67773 93.628V63.4589ZM12.539 59.9977C10.6274 59.9977 9.07773 61.5473 9.07773 63.4589V93.628C9.07773 93.8159 9.2301 93.9683 9.41805 93.9683H261.174C261.362 93.9683 261.514 93.8159 261.514 93.628V63.4589C261.514 61.5473 259.964 59.9977 258.053 59.9977H12.539Z" fill="black"/>
<path d="M13.5781 94.668H257.011V475.422H13.5781V94.668Z" fill="#F6A5B8"/>
<path fill-rule="evenodd" clip-rule="evenodd" d="M12.8789 93.9688H257.712V476.123H12.8789V93.9688ZM14.2789 95.3687V474.723H256.312V95.3687H14.2789Z" fill="black"/>
<path d="M257.012 115.475L761.563 115.475C770.756 115.475 778.208 122.927 778.208 132.12V142.762C778.208 149.372 782.644 155.16 789.027 156.879C-nan -nan -nan -nan 789.027 156.879L-nan -nanC-nan -nan -nan -nan -nan -nanL-nan -nanC-nan -nan -nan -nan -nan -nanL789.027 156.879C-nan -nan -nan -nan 789.027 156.879C790.623 157.309 791.732 158.756 791.732 160.408V291.807C791.732 301 784.28 308.452 775.087 308.452H554.32C510.286 308.452 471.448 337.293 458.716 379.446L448.815 412.226C444.571 426.277 431.625 435.891 416.947 435.891H257.012V115.475Z" fill="#F6A5B8"/>
<path fill-rule="evenodd" clip-rule="evenodd" d="M256.312 114.775H761.564C771.143 114.775 778.909 122.541 778.909 132.12V142.762C778.909 149.057 783.132 154.568 789.21 156.204C791.112 156.716 792.433 158.44 792.433 160.409V291.808C792.433 301.388 784.667 309.153 775.088 309.153H554.321C510.595 309.153 472.029 337.791 459.387 379.649L449.486 412.429C445.152 426.776 431.934 436.592 416.947 436.592H256.312V114.775ZM257.712 116.175V435.192H416.947C431.317 435.192 443.991 425.78 448.145 412.025L458.046 379.244C470.868 336.796 509.978 307.753 554.321 307.753H775.088C783.894 307.753 791.033 300.614 791.033 291.808V160.409C791.033 159.073 790.136 157.903 788.846 157.556C782.157 155.755 777.509 149.69 777.509 142.762V132.12C777.509 123.314 770.37 116.175 761.564 116.175H257.712Z" fill="black"/>
<path d="M13.5781 142.523H229.963V475.423H13.5781V142.523Z" fill="#F6A5B8"/>
<path fill-rule="evenodd" clip-rule="evenodd" d="M12.8789 141.822H230.664V476.122H12.8789V141.822ZM14.2789 143.222V474.722H229.264V143.222H14.2789Z" fill="black"/>
<path d="M8.37695 476.462C8.37695 475.888 8.84272 475.422 9.41727 475.422H261.173C261.747 475.422 262.213 475.888 262.213 476.462V502.47C262.213 504.768 260.35 506.631 258.052 506.631H12.5382C10.24 506.631 8.37695 504.768 8.37695 502.47V476.462Z" fill="#F6A5B8"/>
<path fill-rule="evenodd" clip-rule="evenodd" d="M7.67773 476.463C7.67773 475.502 8.4569 474.723 9.41805 474.723H261.174C262.135 474.723 262.914 475.502 262.914 476.463V502.471C262.914 505.156 260.737 507.332 258.053 507.332H12.539C9.85418 507.332 7.67773 505.156 7.67773 502.471V476.463ZM9.41805 476.123C9.2301 476.123 9.07773 476.275 9.07773 476.463V502.471C9.07773 504.382 10.6274 505.932 12.539 505.932H258.053C259.964 505.932 261.514 504.382 261.514 502.471V476.463C261.514 476.275 261.362 476.123 261.174 476.123H9.41805Z" fill="black"/>
<path d="M75.998 16.6448C75.998 12.0484 79.7242 8.32227 84.3205 8.32227H186.271C190.868 8.32227 194.594 12.0484 194.594 16.6448V59.2976H75.998V16.6448Z" fill="#F6A5B8"/>
<path fill-rule="evenodd" clip-rule="evenodd" d="M75.2969 16.6455C75.2969 11.6626 79.3364 7.62305 84.3194 7.62305H186.27C191.253 7.62305 195.292 11.6626 195.292 16.6455V59.9983H75.2969V16.6455ZM84.3194 9.02305C80.1096 9.02305 76.6969 12.4358 76.6969 16.6455V58.5983H193.892V16.6455C193.892 12.4358 190.48 9.02305 186.27 9.02305H84.3194Z" fill="black"/>
<path d="M317.35 136.281C317.35 131.685 321.076 127.959 325.672 127.959H331.914C336.51 127.959 340.236 131.685 340.236 136.281V148.765C340.236 153.362 336.51 157.088 331.914 157.088H325.672C321.076 157.088 317.35 153.362 317.35 148.765V136.281Z" fill="#F6A5B8"/>
<path fill-rule="evenodd" clip-rule="evenodd" d="M331.914 129.359H325.672C321.849 129.359 318.75 132.458 318.75 136.281V148.765C318.75 152.588 321.849 155.688 325.672 155.688H331.914C335.737 155.688 338.836 152.588 338.836 148.765V136.281C338.836 132.458 335.737 129.359 331.914 129.359ZM325.672 127.959C321.076 127.959 317.35 131.685 317.35 136.281V148.765C317.35 153.362 321.076 157.088 325.672 157.088H331.914C336.51 157.088 340.236 153.362 340.236 148.765V136.281C340.236 131.685 336.51 127.959 331.914 127.959H325.672Z" fill="black"/>
<path d="M317.35 402.6C317.35 398.003 321.076 394.277 325.672 394.277H331.914C336.51 394.277 340.236 398.003 340.236 402.6V415.084C340.236 419.68 336.51 423.406 331.914 423.406H325.672C321.076 423.406 317.35 419.68 317.35 415.084V402.6Z" fill="#F6A5B8"/>
<path fill-rule="evenodd" clip-rule="evenodd" d="M331.914 395.677H325.672C321.849 395.677 318.75 398.777 318.75 402.6V415.084C318.75 418.907 321.849 422.006 325.672 422.006H331.914C335.737 422.006 338.836 418.907 338.836 415.084V402.6C338.836 398.777 335.737 395.677 331.914 395.677ZM325.672 394.277C321.076 394.277 317.35 398.003 317.35 402.6V415.084C317.35 419.68 321.076 423.406 325.672 423.406H331.914C336.51 423.406 340.236 419.68 340.236 415.084V402.6C340.236 398.003 336.51 394.277 331.914 394.277H325.672Z" fill="black"/>
<path d="M445.309 136.281C445.309 131.685 449.035 127.959 453.631 127.959H459.873C464.469 127.959 468.195 131.685 468.195 136.281V148.765C468.195 153.362 464.469 157.088 459.873 157.088H453.631C449.035 157.088 445.309 153.362 445.309 148.765V136.281Z" fill="#F6A5B8"/>
<path fill-rule="evenodd" clip-rule="evenodd" d="M459.873 129.359H453.631C449.808 129.359 446.709 132.458 446.709 136.281V148.765C446.709 152.588 449.808 155.688 453.631 155.688H459.873C463.696 155.688 466.795 152.588 466.795 148.765V136.281C466.795 132.458 463.696 129.359 459.873 129.359ZM453.631 127.959C449.035 127.959 445.309 131.685 445.309 136.281V148.765C445.309 153.362 449.035 157.088 453.631 157.088H459.873C464.469 157.088 468.195 153.362 468.195 148.765V136.281C468.195 131.685 464.469 127.959 459.873 127.959H453.631Z" fill="black"/>
<path d="M573.268 136.281C573.268 131.685 576.994 127.959 581.59 127.959H587.832C592.428 127.959 596.154 131.685 596.154 136.281V148.765C596.154 153.362 592.428 157.088 587.832 157.088H581.59C576.994 157.088 573.268 153.362 573.268 148.765V136.281Z" fill="#F6A5B8"/>
<path fill-rule="evenodd" clip-rule="evenodd" d="M587.832 129.359H581.59C577.767 129.359 574.668 132.458 574.668 136.281V148.765C574.668 152.588 577.767 155.688 581.59 155.688H587.832C591.655 155.688 594.754 152.588 594.754 148.765V136.281C594.754 132.458 591.655 129.359 587.832 129.359ZM581.59 127.959C576.994 127.959 573.268 131.685 573.268 136.281V148.765C573.268 153.362 576.994 157.088 581.59 157.088H587.832C592.428 157.088 596.154 153.362 596.154 148.765V136.281C596.154 131.685 592.428 127.959 587.832 127.959H581.59Z" fill="black"/>
<path d="M701.225 136.281C701.225 131.685 704.951 127.959 709.547 127.959H715.789C720.385 127.959 724.111 131.685 724.111 136.281V148.765C724.111 153.362 720.385 157.088 715.789 157.088H709.547C704.951 157.088 701.225 153.362 701.225 148.765V136.281Z" fill="#F6A5B8"/>
<path fill-rule="evenodd" clip-rule="evenodd" d="M715.789 129.359H709.547C705.724 129.359 702.625 132.458 702.625 136.281V148.765C702.625 152.588 705.724 155.688 709.547 155.688H715.789C719.612 155.688 722.711 152.588 722.711 148.765V136.281C722.711 132.458 719.612 129.359 715.789 129.359ZM709.547 127.959C704.951 127.959 701.225 131.685 701.225 136.281V148.765C701.225 153.362 704.951 157.088 709.547 157.088H715.789C720.385 157.088 724.111 153.362 724.111 148.765V136.281C724.111 131.685 720.385 127.959 715.789 127.959H709.547Z" fill="black"/>
<path d="M274.697 136.281C274.697 131.685 278.423 127.959 283.02 127.959H289.262C293.858 127.959 297.584 131.685 297.584 136.281V148.765C297.584 153.362 293.858 157.088 289.262 157.088H283.02C278.423 157.088 274.697 153.362 274.697 148.765V136.281Z" fill="#F6A5B8"/>
<path fill-rule="evenodd" clip-rule="evenodd" d="M289.262 129.359H283.02C279.197 129.359 276.097 132.458 276.097 136.281V148.765C276.097 152.588 279.197 155.688 283.02 155.688H289.262C293.085 155.688 296.184 152.588 296.184 148.765V136.281C296.184 132.458 293.085 129.359 289.262 129.359ZM283.02 127.959C278.423 127.959 274.697 131.685 274.697 136.281V148.765C274.697 153.362 278.423 157.088 283.02 157.088H289.262C293.858 157.088 297.584 153.362 297.584 148.765V136.281C297.584 131.685 293.858 127.959 289.262 127.959H283.02Z" fill="black"/>
<path d="M274.697 402.6C274.697 398.003 278.423 394.277 283.02 394.277H289.262C293.858 394.277 297.584 398.003 297.584 402.6V415.084C297.584 419.68 293.858 423.406 289.262 423.406H283.02C278.423 423.406 274.697 419.68 274.697 415.084V402.6Z" fill="#F6A5B8"/>
<path fill-rule="evenodd" clip-rule="evenodd" d="M289.262 395.677H283.02C279.197 395.677 276.097 398.777 276.097 402.6V415.084C276.097 418.907 279.197 422.006 283.02 422.006H289.262C293.085 422.006 296.184 418.907 296.184 415.084V402.6C296.184 398.777 293.085 395.677 289.262 395.677ZM283.02 394.277C278.423 394.277 274.697 398.003 274.697 402.6V415.084C274.697 419.68 278.423 423.406 283.02 423.406H289.262C293.858 423.406 297.584 419.68 297.584 415.084V402.6C297.584 398.003 293.858 394.277 289.262 394.277H283.02Z" fill="black"/>
<path d="M402.656 136.281C402.656 131.685 406.382 127.959 410.979 127.959H417.221C421.817 127.959 425.543 131.685 425.543 136.281V148.765C425.543 153.362 421.817 157.088 417.221 157.088H410.979C406.382 157.088 402.656 153.362 402.656 148.765V136.281Z" fill="#F6A5B8"/>
<path fill-rule="evenodd" clip-rule="evenodd" d="M417.221 129.359H410.979C407.156 129.359 404.056 132.458 404.056 136.281V148.765C404.056 152.588 407.156 155.688 410.979 155.688H417.221C421.044 155.688 424.143 152.588 424.143 148.765V136.281C424.143 132.458 421.044 129.359 417.221 129.359ZM410.979 127.959C406.382 127.959 402.656 131.685 402.656 136.281V148.765C402.656 153.362 406.382 157.088 410.979 157.088H417.221C421.817 157.088 425.543 153.362 425.543 148.765V136.281C425.543 131.685 421.817 127.959 417.221 127.959H410.979Z" fill="black"/>
<path d="M402.656 402.6C402.656 398.003 406.382 394.277 410.979 394.277H417.221C421.817 394.277 425.543 398.003 425.543 402.6V415.084C425.543 419.68 421.817 423.406 417.221 423.406H410.979C406.382 423.406 402.656 419.68 402.656 415.084V402.6Z" fill="#F6A5B8"/>
<path fill-rule="evenodd" clip-rule="evenodd" d="M417.221 395.677H410.979C407.156 395.677 404.056 398.777 404.056 402.6V415.084C404.056 418.907 407.156 422.006 410.979 422.006H417.221C421.044 422.006 424.143 418.907 424.143 415.084V402.6C424.143 398.777 421.044 395.677 417.221 395.677ZM410.979 394.277C406.382 394.277 402.656 398.003 402.656 402.6V415.084C402.656 419.68 406.382 423.406 410.979 423.406H417.221C421.817 423.406 425.543 419.68 425.543 415.084V402.6C425.543 398.003 421.817 394.277 417.221 394.277H410.979Z" fill="black"/>
<path d="M530.613 136.281C530.613 131.685 534.339 127.959 538.936 127.959H545.178C549.774 127.959 553.5 131.685 553.5 136.281V148.765C553.5 153.362 549.774 157.088 545.178 157.088H538.936C534.339 157.088 530.613 153.362 530.613 148.765V136.281Z" fill="#F6A5B8"/>
<path fill-rule="evenodd" clip-rule="evenodd" d="M545.178 129.359H538.936C535.113 129.359 532.013 132.458 532.013 136.281V148.765C532.013 152.588 535.113 155.688 538.936 155.688H545.178C549.001 155.688 552.1 152.588 552.1 148.765V136.281C552.1 132.458 549.001 129.359 545.178 129.359ZM538.936 127.959C534.339 127.959 530.613 131.685 530.613 136.281V148.765C530.613 153.362 534.339 157.088 538.936 157.088H545.178C549.774 157.088 553.5 153.362 553.5 148.765V136.281C553.5 131.685 549.774 127.959 545.178 127.959H538.936Z" fill="black"/>
<path d="M658.572 136.281C658.572 131.685 662.298 127.959 666.895 127.959H673.137C677.733 127.959 681.459 131.685 681.459 136.281V148.765C681.459 153.362 677.733 157.088 673.137 157.088H666.895C662.298 157.088 658.572 153.362 658.572 148.765V136.281Z" fill="#F6A5B8"/>
<path fill-rule="evenodd" clip-rule="evenodd" d="M673.137 129.359H666.895C663.072 129.359 659.972 132.458 659.972 136.281V148.765C659.972 152.588 663.072 155.688 666.895 155.688H673.137C676.96 155.688 680.059 152.588 680.059 148.765V136.281C680.059 132.458 676.96 129.359 673.137 129.359ZM666.895 127.959C662.298 127.959 658.572 131.685 658.572 136.281V148.765C658.572 153.362 662.298 157.088 666.895 157.088H673.137C677.733 157.088 681.459 153.362 681.459 148.765V136.281C681.459 131.685 677.733 127.959 673.137 127.959H666.895Z" fill="black"/>
<path d="M360.002 136.281C360.002 131.685 363.728 127.959 368.324 127.959H374.566C379.163 127.959 382.889 131.685 382.889 136.281V148.765C382.889 153.362 379.163 157.088 374.566 157.088H368.324C363.728 157.088 360.002 153.362 360.002 148.765V136.281Z" fill="#F6A5B8"/>
<path fill-rule="evenodd" clip-rule="evenodd" d="M374.566 129.359H368.324C364.501 129.359 361.402 132.458 361.402 136.281V148.765C361.402 152.588 364.501 155.688 368.324 155.688H374.566C378.389 155.688 381.489 152.588 381.489 148.765V136.281C381.489 132.458 378.389 129.359 374.566 129.359ZM368.324 127.959C363.728 127.959 360.002 131.685 360.002 136.281V148.765C360.002 153.362 363.728 157.088 368.324 157.088H374.566C379.163 157.088 382.889 153.362 382.889 148.765V136.281C382.889 131.685 379.163 127.959 374.566 127.959H368.324Z" fill="black"/>
<path d="M360.002 402.6C360.002 398.003 363.728 394.277 368.324 394.277H374.566C379.163 394.277 382.889 398.003 382.889 402.6V415.084C382.889 419.68 379.163 423.406 374.566 423.406H368.324C363.728 423.406 360.002 419.68 360.002 415.084V402.6Z" fill="#F6A5B8"/>
<path fill-rule="evenodd" clip-rule="evenodd" d="M374.566 395.677H368.324C364.501 395.677 361.402 398.777 361.402 402.6V415.084C361.402 418.907 364.501 422.006 368.324 422.006H374.566C378.389 422.006 381.489 418.907 381.489 415.084V402.6C381.489 398.777 378.389 395.677 374.566 395.677ZM368.324 394.277C363.728 394.277 360.002 398.003 360.002 402.6V415.084C360.002 419.68 363.728 423.406 368.324 423.406H374.566C379.163 423.406 382.889 419.68 382.889 415.084V402.6C382.889 398.003 379.163 394.277 374.566 394.277H368.324Z" fill="black"/>
<path d="M487.961 136.281C487.961 131.685 491.687 127.959 496.283 127.959H502.525C507.122 127.959 510.848 131.685 510.848 136.281V148.765C510.848 153.362 507.122 157.088 502.525 157.088H496.283C491.687 157.088 487.961 153.362 487.961 148.765V136.281Z" fill="#F6A5B8"/>
<path fill-rule="evenodd" clip-rule="evenodd" d="M502.525 129.359H496.283C492.46 129.359 489.361 132.458 489.361 136.281V148.765C489.361 152.588 492.46 155.688 496.283 155.688H502.525C506.348 155.688 509.448 152.588 509.448 148.765V136.281C509.448 132.458 506.348 129.359 502.525 129.359ZM496.283 127.959C491.687 127.959 487.961 131.685 487.961 136.281V148.765C487.961 153.362 491.687 157.088 496.283 157.088H502.525C507.122 157.088 510.848 153.362 510.848 148.765V136.281C510.848 131.685 507.122 127.959 502.525 127.959H496.283Z" fill="black"/>
<path d="M615.92 136.281C615.92 131.685 619.646 127.959 624.242 127.959H630.484C635.081 127.959 638.807 131.685 638.807 136.281V148.765C638.807 153.362 635.081 157.088 630.484 157.088H624.242C619.646 157.088 615.92 153.362 615.92 148.765V136.281Z" fill="#F6A5B8"/>
<path fill-rule="evenodd" clip-rule="evenodd" d="M630.484 129.359H624.242C620.419 129.359 617.32 132.458 617.32 136.281V148.765C617.32 152.588 620.419 155.688 624.242 155.688H630.484C634.307 155.688 637.407 152.588 637.407 148.765V136.281C637.407 132.458 634.307 129.359 630.484 129.359ZM624.242 127.959C619.646 127.959 615.92 131.685 615.92 136.281V148.765C615.92 153.362 619.646 157.088 624.242 157.088H630.484C635.081 157.088 638.807 153.362 638.807 148.765V136.281C638.807 131.685 635.081 127.959 630.484 127.959H624.242Z" fill="black"/>
<path d="M743.877 136.281C743.877 131.685 747.603 127.959 752.199 127.959H758.441C763.038 127.959 766.764 131.685 766.764 136.281V148.765C766.764 153.362 763.038 157.088 758.441 157.088H752.199C747.603 157.088 743.877 153.362 743.877 148.765V136.281Z" fill="#F6A5B8"/>
<path fill-rule="evenodd" clip-rule="evenodd" d="M758.441 129.359H752.199C748.376 129.359 745.277 132.458 745.277 136.281V148.765C745.277 152.588 748.376 155.688 752.199 155.688H758.441C762.265 155.688 765.364 152.588 765.364 148.765V136.281C765.364 132.458 762.265 129.359 758.441 129.359ZM752.199 127.959C747.603 127.959 743.877 131.685 743.877 136.281V148.765C743.877 153.362 747.603 157.088 752.199 157.088H758.441C763.038 157.088 766.764 153.362 766.764 148.765V136.281C766.764 131.685 763.038 127.959 758.441 127.959H752.199Z" fill="black"/>
<path fill-rule="evenodd" clip-rule="evenodd" d="M24.8781 165.308C27.4952 164.123 30.5771 165.284 31.7618 167.902C35.2388 175.582 35.7498 182.192 36.2802 189.516C36.461 192.012 36.6932 194.186 37.1671 196.28C37.8013 199.082 36.044 201.867 33.2421 202.502C30.4402 203.136 27.6548 201.379 27.0206 198.577C26.3722 195.712 26.0963 192.919 25.9043 190.267C25.3733 182.936 24.9193 178.012 22.2845 172.192C21.0998 169.575 22.261 166.493 24.8781 165.308Z" fill="black"/>
<path fill-rule="evenodd" clip-rule="evenodd" d="M43.4604 173.481C37.497 172.908 30.6315 173.438 29.6775 173.554C26.8257 173.899 24.2336 171.868 23.8879 169.016C23.5423 166.164 25.574 163.572 28.4259 163.226C29.8749 163.051 37.529 162.46 44.4553 163.125C47.78 163.445 51.7365 164.115 54.7025 165.781C56.2464 166.649 58.043 168.077 58.9917 170.376C60.0038 172.828 59.6669 175.319 58.7167 177.43C57.2212 180.752 54.4968 183.009 51.9457 184.469C49.3542 185.951 46.4955 186.873 44.0029 187.319C42.9993 187.499 42.0102 187.544 41.2468 187.563C40.8946 187.572 40.5387 187.576 40.224 187.579C40.1881 187.579 40.1526 187.58 40.1178 187.58C39.7619 187.584 39.4536 187.588 39.1601 187.597C38.5528 187.616 38.1852 187.654 37.9556 187.698C37.9455 187.7 37.936 187.702 37.9273 187.704C35.5582 189.112 32.4761 188.425 30.9373 186.103C29.3507 183.708 30.0058 180.48 32.4006 178.894C34.7272 177.352 37.4742 177.242 38.8353 177.199C39.6046 177.175 40.1694 177.17 40.6132 177.167C41.3295 177.161 41.7306 177.158 42.1678 177.079C43.6681 176.811 45.3681 176.246 46.7799 175.439C47.4321 175.066 47.9373 174.691 48.3209 174.336C47.1917 173.993 45.5618 173.683 43.4604 173.481ZM49.79 174.968C49.7896 174.968 49.7836 174.964 49.7731 174.955C49.7851 174.963 49.7903 174.968 49.79 174.968ZM37.8395 187.725C37.8394 187.725 37.8421 187.724 37.8479 187.723C37.8424 187.725 37.8395 187.725 37.8395 187.725Z" fill="black"/>
<path fill-rule="evenodd" clip-rule="evenodd" d="M78.1902 162.016C80.945 162.83 82.5179 165.724 81.7034 168.479C80.8185 171.471 80.1259 174.561 79.3846 177.868C79.0873 179.194 78.7822 180.555 78.4537 181.959C77.6657 185.327 76.7597 188.849 75.5313 192.282C75.461 192.804 75.3097 193.323 75.0713 193.824C74.9418 194.096 74.4417 195.175 74.0006 196.126C73.9105 196.321 73.8229 196.51 73.7414 196.686C73.7192 196.733 73.6955 196.785 73.6708 196.838C73.5032 197.2 73.2904 197.659 73.2131 197.807C73.2016 197.829 73.1663 197.897 73.1181 197.981C73.0912 198.027 73.0186 198.148 72.9722 198.221C72.8819 198.356 72.5307 198.809 72.2495 199.108C70.5554 200.221 65.0772 199.225 63.4211 195.861C63.4064 195.155 63.5337 194.231 63.5894 194.011C63.661 193.753 63.7407 193.549 63.7434 193.542L63.7435 193.542C63.7781 193.452 63.8088 193.379 63.8144 193.366L63.815 193.365C63.8257 193.34 63.8345 193.319 63.8394 193.308C63.8564 193.269 63.8738 193.231 63.883 193.21C63.9063 193.159 63.9402 193.084 63.9834 192.989C64.0713 192.797 64.2111 192.491 64.4138 192.049C66.0958 188.381 67.2471 184.192 68.3242 179.589C68.6011 178.405 68.8765 177.177 69.1572 175.925C69.9267 172.492 70.7363 168.88 71.7272 165.529C72.5418 162.774 75.4354 161.201 78.1902 162.016Z" fill="black"/>
<path fill-rule="evenodd" clip-rule="evenodd" d="M71.6315 161.736C73.4202 159.489 76.6926 159.116 78.9405 160.905C84.7996 165.567 88.1519 171.511 90.779 177.091C91.6064 178.849 92.3451 180.519 93.0544 182.124C94.7204 185.892 96.2244 189.294 98.3374 192.595C99.886 195.015 99.1799 198.232 96.7602 199.781C94.3406 201.329 91.1237 200.623 89.5752 198.203C87.0031 194.184 85.0006 189.657 83.215 185.619C82.5766 184.176 81.9659 182.795 81.3668 181.522C78.9479 176.385 76.4251 172.198 72.463 169.045C70.2151 167.257 69.8428 163.984 71.6315 161.736Z" fill="black"/>
<path fill-rule="evenodd" clip-rule="evenodd" d="M92.0401 186.09C85.2672 184.899 79.7689 185.2 73.1453 187.196C70.3947 188.025 67.493 186.468 66.664 183.717C65.8351 180.967 67.3928 178.065 70.1434 177.236C78.3465 174.764 85.491 174.375 93.8425 175.844C96.6718 176.342 98.5619 179.039 98.0642 181.868C97.5664 184.698 94.8694 186.588 92.0401 186.09Z" fill="black"/>
<path fill-rule="evenodd" clip-rule="evenodd" d="M105.682 160.997C108.44 160.192 111.328 161.774 112.133 164.532C113.544 169.361 114.341 174.251 115.03 178.867C115.133 179.562 115.234 180.249 115.334 180.929C115.913 184.866 116.458 188.573 117.284 192.224C117.919 195.025 116.161 197.811 113.359 198.445C110.558 199.079 107.772 197.322 107.138 194.52C106.216 190.446 105.607 186.294 105.031 182.374C104.934 181.709 104.837 181.051 104.74 180.402C104.057 175.819 103.343 171.541 102.147 167.448C101.342 164.691 102.925 161.802 105.682 160.997Z" fill="black"/>
<path fill-rule="evenodd" clip-rule="evenodd" d="M119.724 169.231C117.763 168.896 115.57 169.806 111.839 172.04C109.374 173.516 106.18 172.714 104.704 170.249C103.229 167.784 104.03 164.59 106.495 163.114L106.496 163.114C110.377 160.79 116.996 156.827 124.588 159.856C126.452 160.6 128.018 161.846 129.046 163.588C130.033 165.262 130.297 167.008 130.285 168.443C130.263 171.147 129.248 173.7 128.579 175.187C128.098 176.257 127.531 177.358 126.874 178.449C127.136 178.524 127.394 178.609 127.644 178.702C131.392 180.109 134.205 183.18 136.144 185.511C136.872 186.387 137.608 187.328 138.269 188.173C138.524 188.499 138.767 188.81 138.995 189.098C139.879 190.216 140.598 191.078 141.243 191.724C143.273 193.757 143.272 197.05 141.239 199.08C139.207 201.111 135.913 201.109 133.883 199.076C132.78 197.972 131.744 196.701 130.834 195.55C130.534 195.169 130.248 194.805 129.971 194.45C129.349 193.655 128.768 192.912 128.144 192.162C126.26 189.896 124.949 188.803 123.987 188.442C123.993 188.444 123.992 188.444 123.983 188.441C123.939 188.43 123.708 188.368 123.214 188.316C122.663 188.258 121.967 188.229 121.147 188.234C119.504 188.244 117.64 188.387 115.954 188.567C114.769 188.693 113.72 188.832 112.967 188.942C112.848 188.964 112.728 188.985 112.608 189.005C112.583 189.009 112.558 189.013 112.531 189.018C112.143 189.083 111.534 189.185 111.165 189.207C111.113 189.211 111.011 189.216 110.881 189.217L110.874 189.217C110.801 189.218 110.441 189.221 109.996 189.148C109.695 189.089 108.83 188.812 108.289 188.547C107.204 187.733 105.685 184.691 105.835 182.606C106.325 181.437 107.494 180.035 107.945 179.695C108.192 179.54 108.602 179.321 108.76 179.248C109.038 179.127 109.264 179.058 109.328 179.039L109.328 179.039C109.425 179.009 109.504 178.988 109.548 178.977C109.639 178.953 109.711 178.937 109.746 178.929C109.869 178.902 109.986 178.881 110.035 178.872C110.173 178.848 110.355 178.817 110.562 178.784C110.741 178.756 110.955 178.723 111.198 178.687C114.357 178.017 117.182 175.169 119.091 170.922C119.337 170.375 119.547 169.836 119.693 169.34C119.704 169.303 119.714 169.267 119.724 169.231ZM119.882 168.323C119.882 168.323 119.882 168.324 119.882 168.327ZM111.861 189.114C111.861 189.114 111.865 189.113 111.872 189.112C111.865 189.113 111.862 189.114 111.861 189.114Z" fill="black"/>
<path fill-rule="evenodd" clip-rule="evenodd" d="M146.355 165.023C149.13 164.278 151.983 165.923 152.728 168.697C153.022 169.791 153.328 170.905 153.64 172.037C155.341 178.227 157.191 184.957 157.946 191.787C158.261 194.642 156.202 197.212 153.347 197.528C150.491 197.843 147.921 195.784 147.605 192.929C146.949 186.992 145.357 181.181 143.656 174.976C143.333 173.798 143.006 172.606 142.681 171.396C141.936 168.622 143.581 165.768 146.355 165.023Z" fill="black"/>
<path fill-rule="evenodd" clip-rule="evenodd" d="M147.288 160.747C148.525 161.847 150.264 162.339 151.992 161.913C154.782 161.226 156.486 158.408 155.799 155.619C155.582 154.738 155.305 153.674 154.917 152.753C154.638 152.088 153.69 149.91 151.223 148.99C148.502 147.974 146.264 149.28 145.498 149.781C144.572 150.386 143.711 151.205 143.015 151.9C140.983 153.931 140.982 157.224 143.012 159.256C144.18 160.425 145.765 160.922 147.288 160.747Z" fill="black"/>
<path fill-rule="evenodd" clip-rule="evenodd" d="M182.365 162.388C182.675 165.244 180.61 167.81 177.754 168.119C175.787 168.332 173.343 169.474 172.098 170.814C171.538 171.417 171.504 171.746 171.503 171.762C171.503 171.762 171.503 171.762 171.503 171.763C171.502 171.773 171.497 171.827 171.543 171.957C171.595 172.105 171.734 172.409 172.099 172.854C172.439 173.269 173.043 173.752 174.17 174.321C175.122 174.801 176.128 175.196 177.387 175.689C177.694 175.81 178.017 175.937 178.357 176.072L178.417 176.096C181.284 177.233 186.269 179.21 188.531 184.197C190.644 188.856 188.613 193.375 186.63 196.033C184.597 198.758 181.423 201.243 178.061 202.07C175.275 202.755 172.571 202.596 170.664 202.484L170.59 202.48C168.433 202.353 167.156 202.29 165.972 202.528C163.156 203.095 160.414 201.271 159.847 198.454C159.281 195.638 161.105 192.896 163.921 192.329C166.5 191.811 169.036 191.964 170.841 192.073C170.964 192.08 171.083 192.088 171.198 192.094C173.263 192.215 174.492 192.234 175.578 191.967C175.713 191.934 176.139 191.775 176.738 191.341C177.31 190.926 177.863 190.387 178.291 189.812C178.904 188.991 178.993 188.535 179.003 188.386C178.649 187.731 177.715 187.009 174.52 185.741C174.284 185.648 174.033 185.55 173.769 185.447C172.487 184.945 170.916 184.331 169.483 183.608C167.699 182.708 165.679 181.432 164.054 179.45C161.99 176.933 160.884 174.012 161.134 170.922C161.376 167.933 162.829 165.506 164.479 163.731C167.654 160.316 172.529 158.221 176.634 157.777C179.49 157.467 182.056 159.532 182.365 162.388ZM179.003 188.332C179.003 188.332 179.004 188.334 179.004 188.338C179.003 188.334 179.003 188.332 179.003 188.332Z" fill="black"/>
<path fill-rule="evenodd" clip-rule="evenodd" d="M75.2 216.795C77.9462 217.639 79.4886 220.548 78.6451 223.295C77.8578 225.858 77.6459 228.691 77.38 232.244C77.3484 232.667 77.316 233.1 77.2818 233.544C76.9853 237.392 76.5412 242.098 74.5504 246.419C73.8523 247.935 72.7974 249.369 71.2482 250.387C69.6704 251.424 67.9574 251.781 66.3878 251.736C63.5336 251.655 60.9944 250.252 59.2956 249.119C56.8508 247.487 54.5284 245.269 53.0078 243.722C52.8932 244.066 52.7751 244.428 52.6499 244.813C52.5771 245.036 52.5019 245.267 52.4234 245.506C51.8379 247.292 51.0774 249.522 49.8409 251.644C49.3224 252.534 48.4458 253.757 47.0049 254.569C45.2636 255.549 43.1981 255.634 41.3883 254.767C39.8949 254.051 39.0128 252.901 38.5522 252.177C38.0449 251.38 37.6991 250.543 37.4613 249.809C35.8844 244.945 34.6284 239.868 33.4301 235.024C32.9924 233.254 32.5624 231.516 32.1273 229.831C31.4092 227.049 33.0819 224.212 35.8635 223.494C38.645 222.776 41.482 224.449 42.2002 227.23C42.6939 229.143 43.1578 231.018 43.6146 232.864C43.934 234.155 44.2499 235.433 44.5702 236.699C44.6138 236.603 44.6581 236.508 44.7031 236.413C45.2629 235.232 46.0439 233.871 47.2176 232.802C48.5876 231.555 50.4998 230.726 52.7147 231.013C54.5601 231.252 55.9393 232.197 56.7184 232.807C57.5592 233.465 58.3482 234.262 58.9961 234.937C59.1013 235.046 59.2148 235.165 59.3359 235.292C60.6531 236.673 62.8725 238.999 65.0706 240.466C65.2666 240.597 65.4443 240.708 65.6041 240.802C66.3482 238.618 66.6577 236.011 66.9095 232.744C66.9413 232.331 66.9722 231.905 67.0039 231.466C67.2486 228.086 67.5439 224.006 68.7005 220.24C69.544 217.494 72.4539 215.952 75.2 216.795ZM40.8527 246.406C40.8285 246.447 40.8287 246.44 40.8568 246.399C40.8555 246.401 40.8541 246.403 40.8527 246.406ZM54.4235 240.281C54.4235 240.281 54.4221 240.283 54.4193 240.287C54.422 240.283 54.4235 240.281 54.4235 240.281ZM50.2607 240.965C50.2584 240.963 50.2572 240.963 50.2572 240.963C50.2572 240.962 50.2584 240.963 50.2607 240.965Z" fill="black"/>
<path fill-rule="evenodd" clip-rule="evenodd" d="M82.6564 241.117C82.5327 241.652 82.409 242.188 82.2856 242.725C82.08 243.62 81.9275 244.371 81.8272 244.953C81.7783 245.237 81.7331 245.53 81.7024 245.804C81.6876 245.935 81.6687 246.126 81.6602 246.342C81.6602 246.342 81.6601 246.342 81.6601 246.343C81.6576 246.382 81.6123 247.101 81.8214 247.92C81.8871 248.177 82.0388 248.699 82.3844 249.285C82.7139 249.843 83.5081 250.941 85.0429 251.517C86.7415 252.154 88.2814 251.765 89.227 251.285C90.0632 250.861 90.5771 250.316 90.7956 250.066C91.2456 249.552 91.4878 249.065 91.5536 248.933L91.5542 248.932C91.6566 248.726 91.7278 248.55 91.7688 248.444C91.9122 248.073 92.0126 247.7 92.0682 247.485C92.2042 246.962 92.361 246.244 92.5326 245.355C92.6812 244.585 92.8044 243.77 92.9117 242.945C93.1722 241.822 93.4349 240.695 93.6983 239.566C94.3153 236.92 94.9363 234.256 95.5421 231.581C96.9006 233.315 98.4215 235.552 99.9679 238.061C102.114 241.541 104.157 245.295 105.693 248.428C106.461 249.996 107.08 251.364 107.515 252.433C107.868 253.301 108.012 253.766 108.06 253.921C108.08 253.985 108.083 253.996 108.078 253.96C108.495 256.802 111.137 258.769 113.979 258.352C116.822 257.935 118.788 255.293 118.371 252.451C118.187 251.193 117.642 249.722 117.153 248.517C116.6 247.157 115.872 245.559 115.034 243.85C113.358 240.429 111.153 236.381 108.823 232.602C106.532 228.884 103.962 225.169 101.537 222.587C100.377 221.353 98.8911 219.983 97.1809 219.159C97.0368 219.089 96.883 219.02 96.7203 218.952C95.9884 217.815 94.8164 216.963 93.3866 216.671C90.5719 216.096 87.8243 217.912 87.2497 220.727C87.0611 221.65 86.8684 222.572 86.6723 223.493C84.8947 226.53 84.1124 229.993 83.6516 232.816C83.3284 234.796 83.1199 236.798 82.9387 238.539C82.9298 238.624 82.921 238.709 82.9123 238.792C82.8235 239.644 82.7413 240.416 82.6564 241.117ZM81.9849 244.924C81.9813 244.937 81.9794 244.943 81.9794 244.943C81.9794 244.943 81.9812 244.936 81.9849 244.924Z" fill="black"/>
<path fill-rule="evenodd" clip-rule="evenodd" d="M118.327 234.95C118.888 237.767 117.059 240.506 114.242 241.067C113.611 241.193 112.982 241.318 112.355 241.443C105.142 242.877 98.1734 244.263 91.2074 246.072C88.4269 246.794 85.5875 245.125 84.8655 242.344C84.1435 239.564 85.8123 236.724 88.5928 236.002C95.8648 234.114 103.122 232.671 110.282 231.248C110.925 231.12 111.567 230.993 112.209 230.865C115.026 230.304 117.765 232.132 118.327 234.95Z" fill="black"/>
<path fill-rule="evenodd" clip-rule="evenodd" d="M135.927 214.628C139.148 215.098 141.418 217.259 142.755 219.916C144.046 222.482 143.012 225.609 140.445 226.9C138.216 228.021 135.563 227.388 134.058 225.52C133.641 225.877 133.187 226.356 132.763 226.925C132.145 227.754 131.814 228.471 131.708 228.839C131.643 229.062 131.62 229.218 131.613 229.313C131.606 229.397 131.611 229.441 131.612 229.453C131.616 229.46 131.624 229.473 131.637 229.492C131.781 229.693 132.317 230.206 133.699 230.774C136.469 231.912 140.307 232.357 142.988 232.566C144.324 232.67 146.011 232.854 147.685 233.189C149.257 233.504 151.272 234.036 152.983 235.045C154.671 236.041 157.404 238.414 156.908 242.395C156.517 245.53 154.194 247.81 152.223 249.353C146.432 253.888 139.037 254.351 133.703 254.351C130.83 254.351 128.501 252.023 128.501 249.15C128.501 246.277 130.83 243.948 133.703 243.948C137.017 243.948 139.912 243.698 142.295 242.947C142.256 242.944 142.217 242.941 142.178 242.937C139.5 242.728 134.182 242.219 129.745 240.396C127.524 239.483 124.944 238.014 123.178 235.547C121.222 232.814 120.698 229.467 121.713 225.953C122.716 222.477 125.558 218.61 128.847 216.442C130.525 215.337 133.034 214.205 135.927 214.628ZM147.698 244.006C147.713 244.015 147.711 244.014 147.695 244.004C147.696 244.005 147.697 244.005 147.698 244.006ZM146.882 240.167C146.886 240.16 146.889 240.156 146.889 240.156C146.889 240.156 146.887 240.16 146.882 240.167ZM134.981 224.908C134.981 224.908 134.973 224.911 134.957 224.915C134.973 224.909 134.981 224.907 134.981 224.908Z" fill="black"/>
<path fill-rule="evenodd" clip-rule="evenodd" d="M38.245 271.331C41.1175 271.368 43.4159 273.727 43.3787 276.599C43.2503 286.506 42.7259 296.59 40.8998 306.605C40.7418 307.471 40.5773 308.212 40.4119 308.8C40.3348 309.075 40.2237 309.439 40.0718 309.806C40.0051 309.968 39.8555 310.317 39.6091 310.707C39.4901 310.895 39.2448 311.261 38.8554 311.648C38.5513 311.95 37.6145 312.823 36.0675 313.093C34.0521 313.446 32.333 312.583 31.3197 311.477C30.529 310.613 30.2447 309.718 30.1513 309.397C29.9432 308.683 29.936 308.079 29.9341 307.913L29.934 307.909C29.9284 307.438 29.9796 307.01 30.0146 306.753C30.0953 306.164 30.2396 305.454 30.4326 304.671C30.5374 304.245 30.6919 303.844 30.8884 303.474C32.3858 294.691 32.8568 285.692 32.9764 276.464C33.0137 273.592 35.3725 271.293 38.245 271.331ZM30.3828 306.033C30.3828 306.033 30.384 306.029 30.3865 306.021C30.3841 306.029 30.3828 306.033 30.3828 306.033ZM40.3219 308.162C40.3186 308.194 40.3173 308.196 40.3218 308.163Z" fill="black"/>
<path fill-rule="evenodd" clip-rule="evenodd" d="M33.3023 277.104C35.2265 274.971 38.5156 274.802 40.6486 276.726C44.7783 280.451 47.8872 284.631 50.621 288.655C51.3117 289.672 51.9666 290.659 52.6032 291.624C52.5 291.076 52.3999 290.524 52.3058 289.975C51.922 287.733 51.5755 285.196 51.6146 283.096C51.6328 282.118 51.7345 280.676 52.3041 279.304C52.6071 278.574 53.1557 277.587 54.1597 276.759C55.2545 275.857 56.6036 275.387 57.9943 275.387C60.867 275.387 63.1958 277.716 63.1958 280.588C63.1958 281.836 62.7565 282.981 62.024 283.878C62.0666 284.934 62.2523 286.424 62.5597 288.219C62.9162 290.301 63.3776 292.474 63.7784 294.36L63.7827 294.38C63.9768 295.293 64.1625 296.167 64.3031 296.887C64.4221 297.496 64.5859 298.363 64.6255 299.075C64.7058 300.516 64.704 302.061 64.5373 303.498C64.3934 304.739 64.05 306.695 62.9005 308.337C62.254 309.26 61.1771 310.328 59.5415 310.848C57.8738 311.379 56.3084 311.124 55.1177 310.647C53.0514 309.82 51.468 308.082 50.2944 306.556C48.1095 303.716 46.1043 300.673 44.2412 297.845C43.4764 296.685 42.7356 295.561 42.0161 294.502C39.4374 290.706 36.8819 287.339 33.6803 284.451C31.5473 282.526 31.378 279.237 33.3023 277.104ZM54.0985 302.889C54.0984 302.888 54.1001 302.882 54.104 302.871C54.1006 302.883 54.0986 302.889 54.0985 302.889ZM59.4386 301.227C59.449 301.235 59.4542 301.239 59.4542 301.239C59.4542 301.239 59.449 301.236 59.4386 301.227Z" fill="black"/>
<path fill-rule="evenodd" clip-rule="evenodd" d="M83.49 279.932C86.8234 280.587 91.5654 282.318 93.7096 287.025C95.4159 290.772 95.3255 295.483 94.6469 299.287C93.9598 303.139 92.4256 307.426 89.9176 310.339C88.657 311.803 86.7977 313.055 84.3878 313.164C82.1352 313.267 80.3374 312.32 79.1683 311.462C76.9501 309.833 75.2293 307.217 74.0351 305.135C72.0243 301.629 70.3139 297.406 69.5977 295.597C69.3051 295.279 69.0477 294.919 68.8348 294.52C68.7995 294.454 68.7619 294.384 68.7223 294.31C68.4034 293.715 67.9581 292.884 67.5808 292.04C67.17 291.122 66.6498 289.787 66.4925 288.293C66.326 286.711 66.5359 284.497 68.1737 282.577C69.7217 280.762 71.8432 280.05 73.6355 279.775C76.2034 279.382 79.928 279.232 83.49 279.932ZM78.3914 289.848C78.5581 290.102 78.7047 290.374 78.8283 290.663C78.9326 290.908 79.0751 291.265 79.2522 291.709C79.9999 293.584 81.3629 297.001 83.0593 299.959C83.2207 300.241 83.3762 300.501 83.5249 300.741C83.8746 299.796 84.1868 298.686 84.4055 297.46C84.9294 294.523 84.6745 292.287 84.2422 291.337C84.2375 291.327 83.8274 290.6 81.4839 290.14C80.4929 289.945 79.4223 289.858 78.3914 289.848ZM85.3393 303.086C85.3394 303.086 85.3356 303.084 85.3279 303.078C85.3355 303.083 85.3393 303.086 85.3393 303.086Z" fill="black"/>
<path fill-rule="evenodd" clip-rule="evenodd" d="M111.749 282.699C114.504 281.885 117.397 283.457 118.212 286.212C119.986 292.209 121.203 298.095 122.379 303.894C122.95 306.71 121.13 309.455 118.314 310.026C115.499 310.596 112.754 308.777 112.183 305.961C111.003 300.139 109.865 294.669 108.236 289.163C107.422 286.408 108.994 283.514 111.749 282.699Z" fill="black"/>
<path fill-rule="evenodd" clip-rule="evenodd" d="M129.196 290.704C118.28 287.959 107.534 288.456 95.9883 290.76C93.1711 291.323 90.4315 289.495 89.8692 286.678C89.3069 283.861 91.1348 281.121 93.952 280.559C106.448 278.064 118.848 277.374 131.734 280.615C134.52 281.316 136.21 284.142 135.51 286.928C134.809 289.714 131.982 291.405 129.196 290.704Z" fill="black"/>
<path fill-rule="evenodd" clip-rule="evenodd" d="M48.8577 339.3C51.7184 339.036 54.2509 341.142 54.5144 344.002C54.7057 346.08 54.9767 348.342 55.2592 350.699C55.8838 355.912 56.5646 361.593 56.5646 366.79C56.5646 369.663 54.2357 371.992 51.363 371.992C48.4903 371.992 46.1614 369.663 46.1614 366.79C46.1614 362.204 45.6091 357.634 45.0234 352.787C44.7187 350.265 44.4049 347.669 44.1551 344.956C43.8916 342.096 45.9971 339.563 48.8577 339.3Z" fill="black"/>
<path fill-rule="evenodd" clip-rule="evenodd" d="M70.6888 337.533C71.1644 340.366 69.2533 343.048 66.4202 343.524C65.9193 343.608 65.4231 343.69 64.9317 343.772C54.539 345.507 46.2531 346.89 39.4774 352.532C37.2699 354.371 33.9901 354.071 32.1518 351.864C30.3135 349.656 30.6129 346.376 32.8205 344.538C41.8459 337.022 52.8226 335.218 62.5491 333.62C63.2728 333.501 63.9895 333.383 64.6979 333.264C67.531 332.788 70.2132 334.7 70.6888 337.533Z" fill="black"/>
<path fill-rule="evenodd" clip-rule="evenodd" d="M83.147 326.105C86.0134 326.297 88.1819 328.776 87.9906 331.642C87.8309 334.034 87.7246 336.521 87.6131 339.128C87.5994 339.45 87.5856 339.773 87.5715 340.099C87.4451 343.033 87.3042 346.096 87.0665 349.159C86.5936 355.252 85.7204 361.639 83.649 367.507C82.6929 370.216 79.7218 371.637 77.0128 370.681C74.3038 369.725 72.8829 366.754 73.839 364.045C75.4607 359.45 76.2468 354.123 76.6945 348.354C76.9171 345.487 77.0517 342.583 77.1781 339.651C77.1919 339.328 77.2057 339.005 77.2196 338.682C77.3302 336.092 77.442 333.474 77.6105 330.949C77.8019 328.083 80.2806 325.914 83.147 326.105Z" fill="black"/>
<path fill-rule="evenodd" clip-rule="evenodd" d="M104.097 356.78C95.7216 356.78 88.6043 357.002 80.8652 358.689C78.0584 359.301 75.287 357.522 74.6751 354.715C74.0633 351.908 75.8427 349.136 78.6495 348.525C87.5352 346.588 95.5835 346.377 104.097 346.377C106.969 346.377 109.298 348.706 109.298 351.579C109.298 354.451 106.969 356.78 104.097 356.78Z" fill="black"/>
<path fill-rule="evenodd" clip-rule="evenodd" d="M104.551 327.351C107.289 326.482 110.213 327.997 111.083 330.735C112.482 335.142 113.461 339.62 114.36 343.878C114.45 344.305 114.539 344.73 114.628 345.152C115.44 349.012 116.21 352.673 117.217 356.254C117.995 359.02 116.383 361.892 113.617 362.669C110.852 363.447 107.98 361.835 107.202 359.07C106.095 355.132 105.253 351.124 104.452 347.314C104.361 346.882 104.271 346.453 104.181 346.027C103.281 341.765 102.393 337.744 101.167 333.882C100.298 331.144 101.813 328.22 104.551 327.351Z" fill="black"/>
<path fill-rule="evenodd" clip-rule="evenodd" d="M129.115 322.123C131.94 321.601 134.654 323.468 135.175 326.293C136.131 331.464 135.544 336.673 134.676 341.34C134.264 343.558 133.765 345.765 133.297 347.835C133.269 347.958 133.241 348.081 133.214 348.203C132.713 350.42 132.255 352.473 131.912 354.444C131.705 355.637 131.554 356.501 131.471 356.841L131.471 356.842C131.461 356.883 131.425 357.029 131.368 357.208C131.346 357.278 131.271 357.51 131.142 357.793C131.083 357.922 130.938 358.23 130.693 358.585C130.69 358.589 130.686 358.594 130.682 358.601C130.553 358.791 129.778 359.931 128.221 360.51C127.378 360.744 125.523 360.759 124.569 360.499C123.79 360.127 122.628 359.205 122.227 358.727C121.566 357.832 121.374 356.957 121.332 356.763L121.329 356.751C121.214 356.229 121.209 355.8 121.208 355.717C121.208 355.714 121.208 355.711 121.208 355.709C121.204 355.464 121.219 355.266 121.223 355.222L121.223 355.218C121.237 355.03 121.263 354.839 121.271 354.782L121.272 354.773C121.297 354.584 121.336 354.314 121.379 354.026C121.422 353.735 121.471 353.409 121.522 353.07C121.69 351.946 121.879 350.682 121.95 350.089C122.031 349.405 122.242 348.768 122.555 348.2C122.724 347.427 122.896 346.662 123.066 345.91C123.09 345.805 123.114 345.701 123.137 345.597C123.616 343.479 124.074 341.453 124.448 339.439C125.24 335.181 125.552 331.468 124.945 328.183C124.424 325.358 126.291 322.644 129.115 322.123ZM131.578 356.195C131.578 356.195 131.578 356.189 131.58 356.176C131.578 356.188 131.578 356.195 131.578 356.195Z" fill="black"/>
<path fill-rule="evenodd" clip-rule="evenodd" d="M126.42 330.092C127.084 327.297 129.888 325.57 132.683 326.234C140.08 327.992 144.934 332.537 148.226 337.846C151.407 342.977 153.258 349.031 154.736 354.205C155.525 356.967 153.926 359.846 151.164 360.635C148.401 361.425 145.522 359.825 144.733 357.063C143.238 351.831 141.712 347.082 139.384 343.328C137.167 339.752 134.381 337.331 130.277 336.355C127.482 335.691 125.755 332.886 126.42 330.092Z" fill="black"/>
<path fill-rule="evenodd" clip-rule="evenodd" d="M150.748 349.68C142.274 349.68 134.886 351.801 126.391 355.361C123.742 356.471 120.694 355.224 119.583 352.574C118.473 349.925 119.721 346.877 122.37 345.767C131.526 341.929 140.355 339.277 150.748 339.277C153.621 339.277 155.95 341.606 155.95 344.479C155.95 347.352 153.621 349.68 150.748 349.68Z" fill="black"/>
<path fill-rule="evenodd" clip-rule="evenodd" d="M166.411 330.395C169.148 329.524 172.074 331.037 172.945 333.774C175.314 341.221 177.465 348.762 179.156 356.56C179.765 359.367 177.983 362.137 175.176 362.746C172.368 363.355 169.599 361.573 168.99 358.765C167.389 351.389 165.339 344.182 163.031 336.929C162.16 334.191 163.673 331.266 166.411 330.395Z" fill="black"/>
<path fill-rule="evenodd" clip-rule="evenodd" d="M145.55 330.116C145.641 327.245 148.043 324.991 150.914 325.083C155.874 325.241 160.889 325.378 165.917 325.516C172.424 325.694 178.952 325.873 185.41 326.097C188.281 326.197 190.528 328.606 190.428 331.477C190.328 334.348 187.919 336.594 185.048 336.494C178.576 336.269 172.16 336.094 165.721 335.917C160.702 335.78 155.668 335.643 150.583 335.481C147.712 335.389 145.458 332.987 145.55 330.116Z" fill="black"/>
<path fill-rule="evenodd" clip-rule="evenodd" d="M25.1075 398.175C27.9368 397.677 30.634 399.567 31.1319 402.397C31.7759 406.056 32.2634 409.718 32.7253 413.274C32.7666 413.592 32.8077 413.909 32.8487 414.225C33.2702 417.477 33.6792 420.632 34.1862 423.764C34.6453 426.6 32.7186 429.271 29.8828 429.73C27.047 430.189 24.3759 428.262 23.9168 425.426C23.382 422.123 22.952 418.804 22.5342 415.58C22.4923 415.257 22.4506 414.935 22.4089 414.614C21.9464 411.054 21.4851 407.603 20.8862 404.2C20.3883 401.37 22.2783 398.673 25.1075 398.175Z" fill="black"/>
<path fill-rule="evenodd" clip-rule="evenodd" d="M26.89 404.729C26.6045 404.852 26.3153 404.976 26.0223 405.102C23.3801 406.229 20.324 405.002 19.1963 402.36C18.0685 399.717 19.2961 396.661 21.9382 395.534C22.1774 395.432 22.4398 395.317 22.7229 395.194C24.9114 394.241 28.3297 392.753 31.7033 392.226C33.6999 391.914 36.0633 391.86 38.4367 392.64C40.9245 393.458 43.0752 395.081 44.6591 397.516C47.3899 401.715 45.9142 406.35 44.6891 408.936C44.1888 409.993 43.5957 411.004 42.9691 411.937C46.7378 413.547 49.9297 415.808 53.0108 418.888C55.0427 420.918 55.0436 424.212 53.0128 426.244C50.9821 428.276 47.6886 428.277 45.6567 426.246C42.5411 423.132 39.5841 421.399 35.3502 420.331C34.4426 420.102 33.8364 419.969 33.3143 419.855C33.0856 419.805 32.8731 419.758 32.6584 419.709C32.6501 419.707 32.6392 419.704 32.6259 419.701C32.4319 419.658 31.7264 419.499 31.074 419.193C31.0686 419.19 31.0623 419.187 31.0551 419.184C30.7958 419.064 29.3916 418.412 28.5571 416.777C27.3002 414.315 28.3608 412.127 29.0347 411.223C29.5706 410.504 30.1793 410.081 30.329 409.977C30.3331 409.974 30.3369 409.971 30.3403 409.969C30.5629 409.814 30.773 409.689 30.8656 409.634C30.9651 409.575 31.037 409.533 31.0974 409.498C31.2016 409.437 31.2712 409.396 31.3881 409.323C31.6572 409.154 32.001 408.913 32.3959 408.518C33.3124 407.603 34.5587 406.021 35.2872 404.483C35.6276 403.765 35.7565 403.26 35.7888 402.978C35.5365 402.655 35.3398 402.573 35.1883 402.523C34.8937 402.426 34.3159 402.347 33.3101 402.504C31.3524 402.81 29.2454 403.716 26.89 404.729ZM36.1454 418.598C36.1451 418.598 36.1484 418.596 36.1559 418.591C36.1493 418.595 36.1457 418.598 36.1454 418.598Z" fill="black"/>
<path fill-rule="evenodd" clip-rule="evenodd" d="M71.0511 399.926C75.5794 402.806 78.6238 408.742 77.6929 415.02C77.3318 417.454 76.2783 420.281 74.3305 422.451C72.2104 424.813 68.6887 426.62 64.4606 425.303C59.8516 423.868 57.5269 419.557 56.331 416.841C55.4559 414.853 54.6451 412.308 54.087 410.556C53.8707 409.877 53.6923 409.318 53.5629 408.956C52.6028 406.27 53.984 403.317 56.6503 402.328C58.1485 400.453 60.0751 399.061 62.4078 398.438C65.6314 397.578 68.7066 398.435 71.0511 399.926ZM65.0755 408.514C64.9747 408.589 64.7908 408.762 64.5567 409.127C64.9253 410.285 65.3086 411.414 65.8523 412.649C66.3234 413.719 66.7274 414.379 67.025 414.781C67.0342 414.761 67.0433 414.74 67.0525 414.719C67.2233 414.322 67.3437 413.889 67.4023 413.493C67.7236 411.327 66.5715 409.406 65.4687 408.705C65.2791 408.584 65.1498 408.534 65.0755 408.514ZM65.1609 408.463C65.1612 408.464 65.1508 408.47 65.1285 408.478C65.1493 408.466 65.1605 408.462 65.1609 408.463ZM65.0207 408.502C65.0061 408.504 64.9986 408.503 64.9985 408.502C64.9984 408.501 65.0057 408.501 65.0207 408.502ZM66.5368 415.555C66.5368 415.555 66.538 415.554 66.5405 415.552C66.5381 415.554 66.5368 415.555 66.5368 415.555Z" fill="black"/>
<path fill-rule="evenodd" clip-rule="evenodd" d="M107.047 411.725C107.438 412.661 107.799 413.596 108.113 414.463C108.43 415.339 108.686 416.109 108.865 416.705C108.996 417.14 109.057 417.384 109.08 417.476C109.093 417.53 109.093 417.531 109.087 417.487C109.484 420.332 112.113 422.316 114.958 421.919C117.803 421.521 119.788 418.893 119.39 416.048C119.216 414.801 118.559 412.754 117.895 410.921C117.162 408.897 116.177 406.473 115.081 404.265C114.085 402.256 112.667 399.729 110.903 398.108C110.09 397.362 108.211 395.877 105.558 396.089C102.53 396.331 100.885 398.513 100.164 399.906C99.5165 401.156 99.0072 402.438 98.5865 403.668C98.2501 403.164 97.893 402.657 97.5214 402.167C96.6434 401.009 95.4017 399.558 93.8692 398.526C92.3712 397.517 89.2853 396.126 86.025 398.002C85.9505 398.044 85.8772 398.088 85.8052 398.133C83.2292 398.267 81.0929 400.298 80.8943 402.938C80.7732 404.549 80.623 406.228 80.469 407.95C80.3102 409.727 80.1472 411.55 80.0075 413.393C79.9844 413.6 79.9646 413.775 79.9475 413.909C79.7471 415.492 79.679 418.305 79.6501 420.099C79.6485 420.197 79.6471 420.293 79.6457 420.387C79.6343 420.947 79.6282 421.507 79.6282 422.065C79.6282 422.086 79.6282 422.106 79.6282 422.125C79.6279 422.181 79.6277 422.231 79.6275 422.277C79.6271 422.379 79.627 422.46 79.627 422.514C79.627 422.536 79.627 422.569 79.6272 422.598L79.6277 422.647C79.6279 422.656 79.6283 422.684 79.6294 422.719C79.63 422.739 79.6319 422.79 79.6333 422.821C79.6365 422.88 79.6536 423.092 79.6713 423.244C79.9692 424.423 85.8174 427.674 89.909 423.684C89.967 423.376 90.0141 422.977 90.0203 422.889C90.0227 422.848 90.0259 422.782 90.0268 422.758L90.0285 422.704C90.0295 422.667 90.0299 422.637 90.03 422.63L90.03 422.63C90.0308 422.566 90.0312 422.401 90.0313 422.154C90.0334 421.768 90.0384 421.143 90.0497 420.407C90.0926 418.426 90.2077 416.454 90.3583 414.458C90.3794 414.271 90.4008 414.079 90.4228 413.881C90.5254 412.955 90.6408 411.915 90.8074 410.828C91.3068 411.665 91.7188 412.43 91.9869 412.929C92 412.961 92.0174 413.003 92.0398 413.059C92.0621 413.114 92.0918 413.188 92.1262 413.274C92.2007 413.46 92.2971 413.701 92.3878 413.923C92.6641 414.599 93.0775 415.574 93.5731 416.489C93.8212 416.947 94.1454 417.495 94.546 418.025C94.8985 418.492 95.5664 419.296 96.5905 419.909C97.7579 420.608 99.7446 421.222 101.903 420.277C103.72 419.482 104.606 418.007 104.99 417.238C105.913 415.384 106.546 413.442 107.047 411.725ZM91.9691 406.363C91.9696 406.365 91.9594 406.382 91.937 406.413C91.9574 406.377 91.9686 406.362 91.9691 406.363Z" fill="black"/>
<path fill-rule="evenodd" clip-rule="evenodd" d="M135.217 396.224C134.687 395.792 134.063 395.458 133.365 395.257C130.603 394.466 127.723 396.063 126.931 398.824C126.809 399.25 126.493 400.643 126.068 402.556C125.161 404.521 124.614 406.5 124.357 407.543C124.343 407.602 124.279 407.845 124.179 408.228C123.771 409.796 122.751 413.712 121.967 416.936C121.446 419.08 120.941 421.268 120.613 422.965C120.455 423.788 120.309 424.641 120.24 425.362C120.209 425.68 120.165 426.241 120.218 426.85C120.241 427.122 120.309 427.764 120.604 428.499C120.855 429.123 121.774 431.02 124.155 431.651C125.987 432.138 127.483 431.523 128.267 431.038C129.001 430.584 129.45 430.055 129.647 429.808C130.058 429.291 130.297 428.794 130.389 428.6C130.613 428.126 130.789 427.618 130.913 427.238C131.182 426.413 131.483 425.324 131.789 424.138C132.411 421.732 133.16 418.53 133.887 415.323C134.324 413.394 134.758 411.444 135.157 409.639C135.874 410.992 136.54 412.584 137.178 414.406C137.823 416.246 138.392 418.168 138.968 420.155C139.024 420.349 139.081 420.544 139.138 420.74C139.647 422.501 140.178 424.335 140.748 426.027C141.664 428.749 144.613 430.214 147.336 429.298C150.059 428.382 151.524 425.432 150.608 422.709C150.114 421.242 149.646 419.628 149.124 417.824C149.069 417.637 149.015 417.448 148.959 417.257C148.383 415.272 147.745 413.103 146.996 410.965C145.535 406.797 143.441 402.091 139.862 398.632C138.666 397.476 137.071 396.492 135.217 396.224ZM130.594 426.37C130.593 426.39 130.592 426.401 130.592 426.401C130.592 426.402 130.592 426.392 130.594 426.37Z" fill="black"/>
<path fill-rule="evenodd" clip-rule="evenodd" d="M148.735 416.41C149.335 419.219 147.545 421.983 144.736 422.584C137.905 424.045 131.247 424.601 124.476 424.727C121.604 424.78 119.232 422.495 119.179 419.622C119.125 416.75 121.411 414.378 124.283 414.325C130.608 414.208 136.567 413.693 142.56 412.411C145.369 411.81 148.134 413.6 148.735 416.41Z" fill="black"/>
<path fill-rule="evenodd" clip-rule="evenodd" d="M66.9219 441.888C69.6943 442.64 71.3318 445.498 70.5793 448.27C69.9914 450.437 69.3193 452.592 68.6811 454.638C68.5601 455.026 68.4404 455.41 68.3227 455.789C67.5684 458.22 66.8792 460.518 66.341 462.808C66.2784 463.074 66.2223 463.333 66.1593 463.622C66.1277 463.768 66.0943 463.922 66.0575 464.088L66.0501 464.122C65.974 464.466 65.827 465.133 65.6393 465.672C65.5855 465.826 65.4683 466.15 65.2741 466.517C65.177 466.701 64.9973 467.018 64.7176 467.369C64.4791 467.668 63.8946 468.343 62.8953 468.827C61.6876 469.412 60.06 469.605 58.4707 468.889C57.1442 468.291 56.4533 467.326 56.178 466.885C55.6601 466.058 55.4992 465.27 55.462 465.087C55.4609 465.082 55.4599 465.077 55.459 465.073C55.2892 464.25 55.2871 463.226 55.2871 462.563C55.2871 461.286 55.7475 460.116 56.5115 459.211C57.0804 456.967 57.7418 454.786 58.3869 452.707C58.5136 452.298 58.6393 451.895 58.7638 451.495C59.4021 449.448 60.0068 447.508 60.5394 445.545C61.2919 442.773 64.1494 441.136 66.9219 441.888Z" fill="black"/>
<path fill-rule="evenodd" clip-rule="evenodd" d="M60.4505 439.673C62.7649 437.972 66.0207 438.468 67.7226 440.783C67.7996 440.887 67.8767 440.992 67.954 441.097C71.0909 445.363 74.4118 449.878 77.1795 454.885C77.5298 455.519 77.8503 456.153 78.1287 456.708C78.1569 456.764 78.1846 456.819 78.2119 456.873C78.6052 454.59 78.6035 452.2 78.1716 450.047C78.1529 449.954 78.147 449.931 78.1336 449.88C78.1194 449.826 78.0969 449.74 78.0423 449.506C78.0404 449.498 78.0384 449.489 78.0361 449.48C77.9771 449.229 77.7755 448.374 77.865 447.362C77.9851 446.005 78.5635 444.774 79.4858 443.816C80.2336 443.039 81.0614 442.598 81.5354 442.367C84.1176 441.108 87.2314 442.181 88.4903 444.763C89.1883 446.195 89.1695 447.79 88.5742 449.141C89.2496 453.492 88.8683 458.098 87.6246 462.19C87.073 464.006 85.8672 466.909 83.4886 468.737C82.1244 469.785 80.1363 470.638 77.7588 470.281C75.5061 469.943 73.7859 468.647 72.557 467.292C71.2988 465.905 70.4129 464.408 69.7459 463.161C69.4481 462.604 69.1656 462.041 68.9188 461.549C68.8897 461.491 68.8611 461.434 68.833 461.378C68.5533 460.822 68.3151 460.353 68.0746 459.918C65.6356 455.505 62.659 451.457 59.3993 447.024L59.3414 446.945C57.6396 444.631 58.1361 441.375 60.4505 439.673ZM88.1732 447.142C88.1596 447.083 88.1674 447.102 88.182 447.179C88.1794 447.168 88.1766 447.156 88.1732 447.142ZM80.3641 460.406C80.3641 460.406 80.3601 460.403 80.3521 460.395C80.3601 460.402 80.3641 460.405 80.3641 460.406Z" fill="black"/>
<path fill-rule="evenodd" clip-rule="evenodd" d="M98.5508 440.909C101.303 440.086 104.201 441.65 105.024 444.402C105.322 445.397 105.668 446.474 106.034 447.61C107.228 451.322 108.627 455.672 109.195 459.882C109.538 462.428 108.962 464.369 108.428 465.88C107.471 468.589 104.5 470.008 101.791 469.051C99.0824 468.094 97.6625 465.123 98.6196 462.414C98.806 461.886 98.8621 461.659 98.884 461.53C98.8969 461.454 98.9019 461.397 98.8852 461.273C98.4518 458.061 97.4679 454.994 96.3517 451.516C95.9315 450.206 95.4926 448.838 95.0572 447.382C94.2343 444.63 95.7984 441.732 98.5508 440.909Z" fill="black"/>
<path fill-rule="evenodd" clip-rule="evenodd" d="M118.417 443.573C118.578 446.441 116.383 448.897 113.515 449.057C106.29 449.462 100.207 450.853 94.7149 454.34C92.2897 455.88 89.0754 455.162 87.5356 452.737C85.9958 450.312 86.7135 447.097 89.1388 445.557C96.6666 440.778 104.698 439.132 112.933 438.67C115.801 438.51 118.257 440.705 118.417 443.573Z" fill="black"/>
<path fill-rule="evenodd" clip-rule="evenodd" d="M125.367 438.768C128.181 438.193 130.929 440.009 131.504 442.824C132.686 448.612 133.87 454.194 135.458 459.651C136.261 462.409 134.676 465.296 131.918 466.099C129.16 466.902 126.273 465.317 125.47 462.559C123.75 456.65 122.493 450.693 121.311 444.906C120.736 442.091 122.552 439.343 125.367 438.768Z" fill="black"/>
<path fill-rule="evenodd" clip-rule="evenodd" d="M161.02 445.146C161.993 447.849 160.591 450.829 157.888 451.802C155.84 452.539 153.642 453.618 152.408 454.75C152.22 454.923 152.092 455.063 152.007 455.167C152.58 456.089 153.006 456.523 153.284 456.721C153.405 456.808 153.494 456.847 153.569 456.87C153.643 456.893 153.788 456.926 154.047 456.917C156.718 456.828 159.297 456.026 162.506 455.028C163.447 454.736 164.442 454.426 165.509 454.113C168.266 453.304 171.156 454.883 171.965 457.64C172.773 460.397 171.194 463.287 168.438 464.096C167.791 464.285 167.081 464.509 166.319 464.749C162.967 465.805 158.625 467.173 154.396 467.314C148.417 467.515 145.025 463.678 143.102 460.547C141.607 458.114 141.102 455.406 141.793 452.733C142.434 450.255 143.953 448.389 145.376 447.084C148.161 444.529 151.941 442.886 154.364 442.014C157.067 441.041 160.047 442.443 161.02 445.146Z" fill="black"/>
<path fill-rule="evenodd" clip-rule="evenodd" d="M143.512 433.28C144.025 434.87 143.664 436.239 143.535 436.694C143.076 438.314 141.556 441.697 137.598 441.953C134.482 442.155 132.407 440.063 131.623 439.168C129.73 437.007 129.947 433.721 132.108 431.828C132.926 431.112 133.905 430.698 134.908 430.577C134.951 430.551 134.995 430.525 135.039 430.499C135.328 430.333 135.745 430.111 136.241 429.926C136.608 429.789 137.645 429.424 138.955 429.568C139.695 429.65 140.687 429.915 141.634 430.631C142.617 431.375 143.212 432.35 143.512 433.28ZM139.465 432.331C139.465 432.331 139.461 432.328 139.455 432.32C139.461 432.327 139.465 432.331 139.465 432.331Z" fill="black"/>
</svg>
