<svg width="817" height="714" viewBox="0 0 817 714" fill="none" xmlns="http://www.w3.org/2000/svg">
<path fill-rule="evenodd" clip-rule="evenodd" d="M12.31 0H803.799C810.568 0 816.055 5.48689 816.055 12.2553V701.617C816.055 708.385 810.568 713.872 803.799 713.872H12.31C5.5415 713.872 0.0546875 708.385 0.0546875 701.617V12.2553C0.0546875 5.48688 5.54159 0 12.31 0ZM12.31 8C9.95986 8 8.05469 9.90517 8.05469 12.2553V701.617C8.05469 703.967 9.95983 705.872 12.31 705.872H803.799C806.15 705.872 808.055 703.967 808.055 701.617V12.2553C808.055 9.90517 806.15 8 803.799 8H12.31Z" fill="#132144"/>
<path d="M8.05469 12.2553C8.05469 9.90517 9.95986 8 12.31 8H803.799C806.15 8 808.055 9.90517 808.055 12.2553V701.617C808.055 703.967 806.15 705.872 803.799 705.872H12.31C9.95983 705.872 8.05469 703.967 8.05469 701.617V12.2553Z" fill="#132144"/>
<path fill-rule="evenodd" clip-rule="evenodd" d="M7.35547 12.2561C7.35547 9.51935 9.57404 7.30078 12.3108 7.30078H803.8C806.537 7.30078 808.755 9.51935 808.755 12.2561V701.618C808.755 704.355 806.537 706.573 803.8 706.573H12.3108C9.57401 706.573 7.35547 704.355 7.35547 701.618V12.2561ZM12.3108 8.70078C10.3472 8.70078 8.75547 10.2925 8.75547 12.2561V701.618C8.75547 703.581 10.3472 705.173 12.3108 705.173H803.8C805.764 705.173 807.355 703.581 807.355 701.618V12.2561C807.355 10.2926 805.764 8.70078 803.8 8.70078H12.3108Z" fill="#F8F4E9"/>
<path d="M8.05469 14.3828H71.8845V699.489H8.05469V14.3828Z" fill="#132144"/>
<path fill-rule="evenodd" clip-rule="evenodd" d="M7.35547 13.6836H72.5853V700.19H7.35547V13.6836ZM8.75547 15.0836V698.79H71.1853V15.0836H8.75547Z" fill="#F8F4E9"/>
<path d="M71.8848 14.3828H86.7784V699.489H71.8848V14.3828Z" fill="#132144"/>
<path fill-rule="evenodd" clip-rule="evenodd" d="M71.1836 13.6836H87.4772V700.19H71.1836V13.6836ZM72.5836 15.0836V698.79H86.0772V15.0836H72.5836Z" fill="#F8F4E9"/>
<path d="M774.013 355.873C774.013 542.122 623.028 693.107 436.779 693.107C250.53 693.107 99.5449 542.122 99.5449 355.873C99.5449 169.623 250.53 18.6387 436.779 18.6387C623.028 18.6387 774.013 169.623 774.013 355.873Z" fill="#132144"/>
<path fill-rule="evenodd" clip-rule="evenodd" d="M436.779 691.707C622.255 691.707 772.613 541.349 772.613 355.873C772.613 170.397 622.255 20.0387 436.779 20.0387C251.303 20.0387 100.945 170.397 100.945 355.873C100.945 541.349 251.303 691.707 436.779 691.707ZM436.779 693.107C623.028 693.107 774.013 542.122 774.013 355.873C774.013 169.623 623.028 18.6387 436.779 18.6387C250.53 18.6387 99.5449 169.623 99.5449 355.873C99.5449 542.122 250.53 693.107 436.779 693.107Z" fill="#F8F4E9"/>
<path d="M561.247 355.872C561.247 424.614 505.52 480.34 436.779 480.34C368.037 480.34 312.311 424.614 312.311 355.872C312.311 287.131 368.037 231.404 436.779 231.404C505.52 231.404 561.247 287.131 561.247 355.872Z" fill="#132144"/>
<path fill-rule="evenodd" clip-rule="evenodd" d="M436.779 478.94C504.747 478.94 559.847 423.841 559.847 355.872C559.847 287.904 504.747 232.804 436.779 232.804C368.81 232.804 313.711 287.904 313.711 355.872C313.711 423.841 368.81 478.94 436.779 478.94ZM436.779 480.34C505.52 480.34 561.247 424.614 561.247 355.872C561.247 287.131 505.52 231.404 436.779 231.404C368.037 231.404 312.311 287.131 312.311 355.872C312.311 424.614 368.037 480.34 436.779 480.34Z" fill="#F8F4E9"/>
<path d="M551.672 355.872C551.672 419.326 500.232 470.766 436.778 470.766C373.324 470.766 321.885 419.326 321.885 355.872C321.885 292.418 373.324 240.979 436.778 240.979C500.232 240.979 551.672 292.418 551.672 355.872Z" fill="#132144"/>
<path fill-rule="evenodd" clip-rule="evenodd" d="M436.778 469.366C499.459 469.366 550.272 418.553 550.272 355.872C550.272 293.191 499.459 242.379 436.778 242.379C374.098 242.379 323.285 293.191 323.285 355.872C323.285 418.553 374.098 469.366 436.778 469.366ZM436.778 470.766C500.232 470.766 551.672 419.326 551.672 355.872C551.672 292.418 500.232 240.979 436.778 240.979C373.324 240.979 321.885 292.418 321.885 355.872C321.885 419.326 373.324 470.766 436.778 470.766Z" fill="#F8F4E9"/>
<path d="M526.139 355.871C526.139 405.225 486.131 445.233 436.778 445.233C387.425 445.233 347.416 405.225 347.416 355.871C347.416 306.518 387.425 266.51 436.778 266.51C486.131 266.51 526.139 306.518 526.139 355.871Z" fill="#132144"/>
<path fill-rule="evenodd" clip-rule="evenodd" d="M436.778 443.833C485.358 443.833 524.739 404.451 524.739 355.871C524.739 307.292 485.358 267.91 436.778 267.91C388.198 267.91 348.816 307.292 348.816 355.871C348.816 404.451 388.198 443.833 436.778 443.833ZM436.778 445.233C486.131 445.233 526.139 405.225 526.139 355.871C526.139 306.518 486.131 266.51 436.778 266.51C387.425 266.51 347.416 306.518 347.416 355.871C347.416 405.225 387.425 445.233 436.778 445.233Z" fill="#F8F4E9"/>
<path d="M476.139 355.871C476.139 377.61 458.517 395.233 436.778 395.233C415.039 395.233 397.416 377.61 397.416 355.871C397.416 334.133 415.039 316.51 436.778 316.51C458.517 316.51 476.139 334.133 476.139 355.871Z" fill="#132144"/>
<path fill-rule="evenodd" clip-rule="evenodd" d="M436.778 393.833C457.743 393.833 474.739 376.837 474.739 355.871C474.739 334.906 457.743 317.91 436.778 317.91C415.812 317.91 398.816 334.906 398.816 355.871C398.816 376.837 415.812 393.833 436.778 393.833ZM436.778 395.233C458.517 395.233 476.139 377.61 476.139 355.871C476.139 334.133 458.517 316.51 436.778 316.51C415.039 316.51 397.416 334.133 397.416 355.871C397.416 377.61 415.039 395.233 436.778 395.233Z" fill="#F8F4E9"/>
<path d="M456.46 321.784C475.286 332.653 481.736 356.726 470.867 375.553C459.998 394.379 435.924 400.83 417.098 389.96C398.272 379.091 391.821 355.017 402.691 336.191C413.56 317.365 437.633 310.914 456.46 321.784Z" fill="#132144"/>
<path fill-rule="evenodd" clip-rule="evenodd" d="M469.655 374.853C480.137 356.696 473.916 333.479 455.76 322.996C437.603 312.513 414.386 318.734 403.903 336.891C393.42 355.048 399.641 378.265 417.798 388.748C435.955 399.231 459.172 393.01 469.655 374.853ZM470.867 375.553C481.736 356.726 475.286 332.653 456.46 321.784C437.633 310.914 413.56 317.365 402.691 336.191C391.821 355.017 398.272 379.091 417.098 389.96C435.924 400.83 459.998 394.379 470.867 375.553Z" fill="#F8F4E9"/>
<path d="M476.139 355.871C476.139 377.61 458.517 395.233 436.778 395.233C415.039 395.233 397.416 377.61 397.416 355.871C397.416 334.133 415.039 316.51 436.778 316.51C458.517 316.51 476.139 334.133 476.139 355.871Z" fill="#132144"/>
<path fill-rule="evenodd" clip-rule="evenodd" d="M436.778 393.833C457.743 393.833 474.739 376.837 474.739 355.871C474.739 334.906 457.743 317.91 436.778 317.91C415.812 317.91 398.816 334.906 398.816 355.871C398.816 376.837 415.812 393.833 436.778 393.833ZM436.778 395.233C458.517 395.233 476.139 377.61 476.139 355.871C476.139 334.133 458.517 316.51 436.778 316.51C415.039 316.51 397.416 334.133 397.416 355.871C397.416 377.61 415.039 395.233 436.778 395.233Z" fill="#F8F4E9"/>
<path fill-rule="evenodd" clip-rule="evenodd" d="M425.608 385.794V409.064C425.608 410.533 424.417 411.724 422.949 411.724C421.48 411.724 420.289 410.533 420.289 409.064V385.255C420.289 381.363 424.411 379.448 427.421 380.781C430.312 382.062 433.469 382.766 436.778 382.766C440.088 382.766 443.245 382.062 446.136 380.781C449.146 379.448 453.268 381.363 453.268 385.255V409.064C453.268 410.533 452.077 411.724 450.608 411.724C449.139 411.724 447.949 410.533 447.949 409.064V385.794C444.492 387.271 440.722 388.085 436.778 388.085C432.835 388.085 429.064 387.271 425.608 385.794Z" fill="#132144"/>
<path fill-rule="evenodd" clip-rule="evenodd" d="M422.379 380.449C423.965 379.549 425.981 379.378 427.703 380.14C430.508 381.382 433.568 382.064 436.777 382.064C439.986 382.064 443.047 381.382 445.851 380.14C447.574 379.378 449.59 379.549 451.175 380.449C452.778 381.359 453.967 383.031 453.967 385.254V409.063C453.967 410.919 452.462 412.423 450.607 412.423C448.752 412.423 447.247 410.919 447.247 409.063V386.833C443.977 388.095 440.45 388.784 436.777 388.784C433.104 388.784 429.578 388.095 426.307 386.833V409.063C426.307 410.919 424.803 412.423 422.947 412.423C421.092 412.423 419.588 410.919 419.588 409.063V385.254C419.588 383.031 420.776 381.359 422.379 380.449ZM423.071 381.666C421.861 382.353 420.988 383.584 420.988 385.254V409.063C420.988 410.146 421.865 411.023 422.947 411.023C424.03 411.023 424.907 410.146 424.907 409.063V384.732L425.882 385.149C429.254 386.59 432.931 387.384 436.777 387.384C440.624 387.384 444.3 386.59 447.672 385.149L448.647 384.732V409.063C448.647 410.146 449.525 411.023 450.607 411.023C451.689 411.023 452.567 410.146 452.567 409.063V385.254C452.567 383.584 451.694 382.353 450.484 381.666C449.256 380.969 447.706 380.85 446.418 381.42C443.441 382.739 440.187 383.464 436.777 383.464C433.367 383.464 430.114 382.739 427.136 381.42C425.848 380.85 424.299 380.969 423.071 381.666Z" fill="#F8F4E9"/>
<path fill-rule="evenodd" clip-rule="evenodd" d="M468.275 350.587L488.428 338.951C489.7 338.217 491.327 338.653 492.061 339.925C492.796 341.197 492.36 342.823 491.088 343.558L470.468 355.462C467.098 357.408 463.379 354.796 463.028 351.523C462.691 348.379 461.722 345.293 460.068 342.427C458.413 339.561 456.225 337.179 453.671 335.315C451.011 333.375 450.608 328.848 453.979 326.902L474.598 314.997C475.871 314.263 477.497 314.699 478.232 315.971C478.966 317.243 478.53 318.869 477.258 319.604L457.105 331.239C460.113 333.493 462.702 336.352 464.674 339.767C466.646 343.183 467.827 346.854 468.275 350.587Z" fill="#132144"/>
<path fill-rule="evenodd" clip-rule="evenodd" d="M465.262 356.052C463.69 355.129 462.533 353.469 462.333 351.596C462.006 348.546 461.066 345.555 459.462 342.776C457.857 339.997 455.736 337.687 453.258 335.879C451.737 334.769 450.877 332.937 450.864 331.115C450.85 329.271 451.704 327.406 453.629 326.295L474.249 314.39C475.856 313.462 477.91 314.013 478.838 315.62C479.766 317.226 479.215 319.281 477.608 320.209L458.356 331.324C461.085 333.525 463.444 336.235 465.281 339.416C467.117 342.597 468.284 345.995 468.826 349.459L488.079 338.344C489.686 337.416 491.74 337.967 492.668 339.573C493.596 341.18 493.045 343.235 491.438 344.163L470.819 356.067C468.894 357.179 466.852 356.986 465.262 356.052ZM465.97 354.845C467.17 355.55 468.673 355.69 470.119 354.855L490.738 342.95C491.675 342.409 491.997 341.211 491.455 340.273C490.914 339.336 489.716 339.015 488.779 339.556L467.707 351.722L467.58 350.669C467.143 347.028 465.991 343.447 464.068 340.116C462.145 336.785 459.62 333.997 456.685 331.798L455.837 331.162L476.908 318.996C477.846 318.455 478.167 317.257 477.626 316.32C477.085 315.382 475.886 315.061 474.949 315.602L454.329 327.507C452.884 328.342 452.254 329.713 452.264 331.104C452.274 332.516 452.946 333.918 454.084 334.748C456.714 336.668 458.969 339.122 460.674 342.076C462.379 345.029 463.378 348.209 463.725 351.447C463.875 352.847 464.753 354.13 465.97 354.845Z" fill="#F8F4E9"/>
<path fill-rule="evenodd" clip-rule="evenodd" d="M416.451 331.239L396.298 319.604C395.025 318.869 394.59 317.243 395.324 315.971C396.058 314.699 397.685 314.263 398.957 314.997L419.577 326.902C422.947 328.848 422.545 333.375 419.885 335.315C417.331 337.178 415.143 339.56 413.488 342.427C411.833 345.293 410.864 348.379 410.527 351.523C410.177 354.796 406.458 357.408 403.087 355.462L382.468 343.557C381.196 342.823 380.76 341.197 381.494 339.924C382.229 338.652 383.855 338.217 385.127 338.951L405.28 350.586C405.729 346.854 406.91 343.182 408.881 339.767C410.853 336.352 413.443 333.493 416.451 331.239Z" fill="#132144"/>
<path fill-rule="evenodd" clip-rule="evenodd" d="M422.693 331.116C422.68 332.939 421.82 334.77 420.298 335.881C417.82 337.688 415.699 339.998 414.095 342.777C412.49 345.556 411.551 348.548 411.224 351.598C411.024 353.471 409.867 355.131 408.295 356.054C406.705 356.987 404.663 357.18 402.738 356.069L382.118 344.164C380.512 343.236 379.961 341.182 380.889 339.575C381.817 337.968 383.871 337.417 385.478 338.345L404.73 349.46C405.273 345.997 406.439 342.598 408.276 339.418C410.112 336.237 412.472 333.527 415.201 331.326L395.948 320.21C394.341 319.282 393.791 317.228 394.719 315.621C395.646 314.014 397.701 313.463 399.308 314.391L419.927 326.296C421.852 327.407 422.706 329.272 422.693 331.116ZM421.293 331.106C421.303 329.714 420.673 328.343 419.227 327.508L398.608 315.604C397.671 315.063 396.472 315.384 395.931 316.321C395.39 317.258 395.711 318.457 396.648 318.998L417.72 331.163L416.871 331.8C413.937 333.999 411.412 336.786 409.488 340.118C407.565 343.449 406.414 347.029 405.976 350.67L405.85 351.723L384.778 339.558C383.841 339.016 382.642 339.338 382.101 340.275C381.56 341.212 381.881 342.41 382.818 342.952L403.438 354.856C404.884 355.691 406.386 355.551 407.586 354.846C408.804 354.131 409.682 352.849 409.832 351.448C410.179 348.21 411.177 345.03 412.882 342.077C414.588 339.124 416.842 336.669 419.473 334.75C420.611 333.92 421.283 332.518 421.293 331.106Z" fill="#F8F4E9"/>
<path d="M786.777 487.787C786.777 486.025 788.206 484.596 789.969 484.596V484.596C791.731 484.596 793.16 486.025 793.16 487.787V600.553C793.16 602.316 791.731 603.745 789.969 603.745V603.745C788.206 603.745 786.777 602.316 786.777 600.553V487.787Z" fill="#132144"/>
<path fill-rule="evenodd" clip-rule="evenodd" d="M791.76 600.553V487.787C791.76 486.798 790.958 485.996 789.969 485.996C788.979 485.996 788.177 486.798 788.177 487.787V600.553C788.177 601.543 788.979 602.345 789.969 602.345C790.958 602.345 791.76 601.543 791.76 600.553ZM789.969 484.596C788.206 484.596 786.777 486.025 786.777 487.787V600.553C786.777 602.316 788.206 603.745 789.969 603.745C791.731 603.745 793.16 602.316 793.16 600.553V487.787C793.16 486.025 791.731 484.596 789.969 484.596Z" fill="#F8F4E9"/>
<path d="M786.777 113.318C786.777 111.556 788.206 110.127 789.969 110.127V110.127C791.731 110.127 793.16 111.556 793.16 113.318V226.084C793.16 227.847 791.731 229.276 789.969 229.276V229.276C788.206 229.276 786.777 227.847 786.777 226.084V113.318Z" fill="#132144"/>
<path fill-rule="evenodd" clip-rule="evenodd" d="M791.76 226.084V113.318C791.76 112.329 790.958 111.527 789.969 111.527C788.979 111.527 788.177 112.329 788.177 113.318V226.084C788.177 227.074 788.979 227.876 789.969 227.876C790.958 227.876 791.76 227.074 791.76 226.084ZM789.969 110.127C788.206 110.127 786.777 111.556 786.777 113.318V226.084C786.777 227.847 788.206 229.276 789.969 229.276C791.731 229.276 793.16 227.847 793.16 226.084V113.318C793.16 111.556 791.731 110.127 789.969 110.127Z" fill="#F8F4E9"/>
<path fill-rule="evenodd" clip-rule="evenodd" d="M337.685 21.9605C338.2 23.6461 337.251 25.4303 335.566 25.9456C221.736 60.7435 132.906 152.712 102.631 268.324C102.185 270.029 100.44 271.049 98.7353 270.603C97.0302 270.156 96.0099 268.412 96.4564 266.707C127.295 148.943 217.763 55.2835 333.7 19.8414C335.385 19.3262 337.17 20.2749 337.685 21.9605ZM536.927 22.2745C537.447 20.5905 539.235 19.6475 540.919 20.1682C656.345 55.8564 746.355 149.303 777.099 266.707C777.546 268.412 776.526 270.156 774.82 270.603C773.115 271.049 771.371 270.029 770.924 268.324C740.742 153.066 652.362 61.3061 539.033 26.2663C537.349 25.7456 536.406 23.9585 536.927 22.2745ZM99.0028 442.196C100.707 441.744 102.454 442.759 102.906 444.463C133.441 559.585 222.079 651.105 335.566 685.799C337.251 686.314 338.2 688.098 337.685 689.784C337.17 691.469 335.385 692.418 333.7 691.903C218.112 656.567 127.84 563.364 96.7362 446.099C96.2843 444.395 97.2991 442.648 99.0028 442.196ZM774.553 442.196C776.257 442.648 777.271 444.395 776.82 446.099C745.812 563.005 655.997 655.996 540.919 691.576C539.235 692.097 537.448 691.154 536.927 689.47C536.406 687.786 537.349 685.999 539.033 685.478C652.02 650.544 740.209 559.232 770.65 444.463C771.102 442.759 772.849 441.744 774.553 442.196Z" fill="#132144"/>
<path fill-rule="evenodd" clip-rule="evenodd" d="M335.157 24.6067C336.103 24.3175 336.635 23.316 336.346 22.3698C336.057 21.4236 335.055 20.891 334.109 21.1803C218.635 56.4811 128.526 149.77 97.8108 267.062C97.5601 268.019 98.1329 268.998 99.09 269.248C100.047 269.499 101.026 268.926 101.277 267.969C131.676 151.885 220.865 59.546 335.157 24.6067ZM540.505 21.5057C539.56 21.2134 538.557 21.7428 538.264 22.6881C537.972 23.6333 538.501 24.6365 539.447 24.9288C653.236 60.1108 741.973 152.24 772.279 267.969C772.529 268.926 773.509 269.499 774.466 269.248C775.423 268.998 775.996 268.019 775.745 267.062C745.124 150.128 655.471 57.0517 540.505 21.5057ZM101.553 444.822C101.299 443.865 100.318 443.296 99.3618 443.549C98.4054 443.803 97.8358 444.784 98.0894 445.74C129.068 562.535 218.982 655.369 334.109 690.564C335.055 690.853 336.057 690.321 336.346 689.375C336.635 688.428 336.103 687.427 335.157 687.138C221.209 652.303 132.212 560.414 101.553 444.822ZM775.466 445.74C775.72 444.784 775.15 443.803 774.194 443.549C773.238 443.296 772.257 443.865 772.003 444.822C741.438 560.059 652.893 651.74 539.447 686.816C538.501 687.108 537.972 688.111 538.264 689.056C538.557 690.002 539.56 690.531 540.505 690.239C655.125 654.8 744.583 562.177 775.466 445.74ZM335.566 25.9456C337.251 25.4303 338.2 23.6461 337.685 21.9605C337.17 20.2749 335.385 19.3262 333.7 19.8414C217.763 55.2835 127.295 148.943 96.4564 266.707C96.0099 268.412 97.0302 270.156 98.7353 270.603C100.44 271.049 102.185 270.029 102.631 268.324C132.906 152.712 221.736 60.7435 335.566 25.9456ZM540.919 20.1682C539.235 19.6475 537.448 20.5905 536.927 22.2745C536.406 23.9585 537.349 25.7456 539.033 26.2663C652.362 61.3061 740.742 153.066 770.924 268.324C771.371 270.029 773.115 271.049 774.82 270.603C776.526 270.156 777.546 268.412 777.099 266.707C746.355 149.303 656.345 55.8564 540.919 20.1682ZM102.906 444.463C102.454 442.759 100.707 441.744 99.0028 442.196C97.2991 442.648 96.2843 444.395 96.7362 446.099C127.84 563.364 218.112 656.567 333.7 691.903C335.385 692.418 337.17 691.469 337.685 689.784C338.2 688.098 337.251 686.314 335.566 685.799C222.079 651.106 133.441 559.585 102.906 444.463ZM776.82 446.099C777.271 444.395 776.257 442.648 774.553 442.196C772.849 441.744 771.102 442.759 770.65 444.463C740.209 559.232 652.02 650.544 539.033 685.478C537.349 685.999 536.406 687.786 536.927 689.47C537.448 691.154 539.235 692.097 540.919 691.576C655.997 655.996 745.812 563.005 776.82 446.099Z" fill="#F8F4E9"/>
<path fill-rule="evenodd" clip-rule="evenodd" d="M646.352 8V21.8298C646.352 26.5301 650.163 30.3404 654.863 30.3404H686.778C691.478 30.3404 695.289 26.5301 695.289 21.8298V8H703.799V21.8298C703.799 31.2304 696.179 38.8511 686.778 38.8511H654.863C645.462 38.8511 637.842 31.2304 637.842 21.8298V8H646.352Z" fill="#132144"/>
<path fill-rule="evenodd" clip-rule="evenodd" d="M637.143 7.30078H647.053V21.8306C647.053 26.1443 650.55 29.6412 654.864 29.6412H686.779C691.092 29.6412 694.589 26.1443 694.589 21.8306V7.30078H704.5V21.8306C704.5 31.6178 696.566 39.5518 686.779 39.5518H654.864C645.077 39.5518 637.143 31.6178 637.143 21.8306V7.30078ZM638.543 8.70078V21.8306C638.543 30.8446 645.85 38.1518 654.864 38.1518H686.779C695.793 38.1518 703.1 30.8446 703.1 21.8306V8.70078H695.989V21.8306C695.989 26.9175 691.866 31.0412 686.779 31.0412H654.864C649.777 31.0412 645.653 26.9175 645.653 21.8306V8.70078H638.543Z" fill="#F8F4E9"/>
<path fill-rule="evenodd" clip-rule="evenodd" d="M646.352 705.873V692.043C646.352 687.343 650.163 683.533 654.863 683.533H686.778C691.478 683.533 695.289 687.343 695.289 692.043V705.873H703.799V692.043C703.799 682.643 696.179 675.022 686.778 675.022H654.863C645.462 675.022 637.842 682.643 637.842 692.043V705.873H646.352Z" fill="#132144"/>
<path fill-rule="evenodd" clip-rule="evenodd" d="M637.143 706.572H647.053V692.042C647.053 687.729 650.55 684.232 654.864 684.232H686.779C691.092 684.232 694.589 687.729 694.589 692.042V706.572H704.5V692.042C704.5 682.255 696.566 674.321 686.779 674.321H654.864C645.077 674.321 637.143 682.255 637.143 692.042V706.572ZM638.543 705.172V692.042C638.543 683.028 645.85 675.721 654.864 675.721H686.779C695.793 675.721 703.1 683.028 703.1 692.042V705.172H695.989V692.042C695.989 686.956 691.866 682.832 686.779 682.832H654.864C649.777 682.832 645.653 686.956 645.653 692.042V705.172H638.543Z" fill="#F8F4E9"/>
<path fill-rule="evenodd" clip-rule="evenodd" d="M169.757 8V21.8298C169.757 26.5301 173.567 30.3404 178.267 30.3404H210.182C214.883 30.3404 218.693 26.5301 218.693 21.8298V8H227.204V21.8298C227.204 31.2304 219.583 38.8511 210.182 38.8511H178.267C168.867 38.8511 161.246 31.2304 161.246 21.8298V8H169.757Z" fill="#132144"/>
<path fill-rule="evenodd" clip-rule="evenodd" d="M160.547 7.30078H170.458V21.8306C170.458 26.1443 173.954 29.6412 178.268 29.6412H210.183C214.497 29.6412 217.994 26.1443 217.994 21.8306V7.30078H227.904V21.8306C227.904 31.6178 219.97 39.5518 210.183 39.5518H178.268C168.481 39.5518 160.547 31.6178 160.547 21.8306V7.30078ZM161.947 8.70078V21.8306C161.947 30.8446 169.254 38.1518 178.268 38.1518H210.183C219.197 38.1518 226.504 30.8446 226.504 21.8306V8.70078H219.394V21.8306C219.394 26.9175 215.27 31.0412 210.183 31.0412H178.268C173.181 31.0412 169.058 26.9175 169.058 21.8306V8.70078H161.947Z" fill="#F8F4E9"/>
<path fill-rule="evenodd" clip-rule="evenodd" d="M169.757 705.873V692.043C169.757 687.343 173.567 683.533 178.267 683.533H210.182C214.883 683.533 218.693 687.343 218.693 692.043V705.873H227.204V692.043C227.204 682.643 219.583 675.022 210.182 675.022H178.267C168.867 675.022 161.246 682.643 161.246 692.043V705.873H169.757Z" fill="#132144"/>
<path fill-rule="evenodd" clip-rule="evenodd" d="M160.547 706.572H170.458V692.042C170.458 687.729 173.954 684.232 178.268 684.232H210.183C214.497 684.232 217.994 687.729 217.994 692.042V706.572H227.904V692.042C227.904 682.255 219.97 674.321 210.183 674.321H178.268C168.481 674.321 160.547 682.255 160.547 692.042V706.572ZM161.947 705.172V692.042C161.947 683.028 169.254 675.721 178.268 675.721H210.183C219.197 675.721 226.504 683.028 226.504 692.042V705.172H219.394V692.042C219.394 686.956 215.27 682.832 210.183 682.832H178.268C173.181 682.832 169.058 686.956 169.058 692.042V705.172H161.947Z" fill="#F8F4E9"/>
</svg>
