<svg width="801" height="515" viewBox="0 0 801 515" fill="none" xmlns="http://www.w3.org/2000/svg">
<path fill-rule="evenodd" clip-rule="evenodd" d="M67.675 16.645C67.675 7.45221 75.1272 0 84.32 0H186.271C195.463 0 202.916 7.45221 202.916 16.645V50.9753H258.052C264.947 50.9753 270.536 56.5645 270.536 63.459V93.6281C270.536 97.3042 268.417 100.486 265.334 102.018V107.152H761.563C775.352 107.152 786.531 118.33 786.531 132.12V142.762C786.531 145.609 788.441 148.102 791.191 148.843C796.42 150.251 800.055 154.993 800.055 160.408V291.808C800.055 305.597 788.876 316.775 775.087 316.775H554.32C513.955 316.775 478.354 343.212 466.683 381.853L456.782 414.633C451.477 432.197 435.294 444.213 416.947 444.213H265.334V468.073C268.417 469.605 270.536 472.787 270.536 476.463V502.471C270.536 509.365 264.947 514.954 258.052 514.954H12.5384C5.64383 514.954 0.0546875 509.365 0.0546875 502.471V476.463C0.0546875 472.787 2.17333 469.605 5.25625 468.073V102.018C2.17334 100.486 0.0546875 97.3042 0.0546875 93.6281V63.459C0.0546875 56.5644 5.64385 50.9753 12.5384 50.9753H67.675V16.645ZM194.593 59.2978V16.645C194.593 12.0486 190.867 8.3225 186.271 8.3225H84.32C79.7236 8.3225 75.9975 12.0486 75.9975 16.645V59.2978H12.5384C10.2402 59.2978 8.37718 61.1608 8.37718 63.459V93.6281C8.37718 94.2026 8.84295 94.6684 9.41749 94.6684H13.5787V475.423H9.4175C8.84295 475.423 8.37718 475.888 8.37718 476.463V502.471C8.37718 504.769 10.2402 506.632 12.5384 506.632H258.052C260.35 506.632 262.213 504.769 262.213 502.471V476.463C262.213 475.888 261.748 475.423 261.173 475.423H257.012V435.891H416.947C431.625 435.891 444.571 426.277 448.815 412.226L458.716 379.446C471.448 337.293 510.286 308.453 554.32 308.453H775.087C784.28 308.453 791.732 301 791.732 291.808V160.408C791.732 158.756 790.623 157.309 789.027 156.879C782.644 155.16 778.208 149.372 778.208 142.762V132.12C778.208 122.927 770.756 115.475 761.563 115.475H257.012V94.6684H261.173C261.748 94.6684 262.213 94.2026 262.213 93.6281V63.459C262.213 61.1608 260.35 59.2978 258.052 59.2978H194.593Z" fill="#FFA580"/>
<path d="M8.37695 63.4581C8.37695 61.1599 10.24 59.2969 12.5382 59.2969H258.052C260.35 59.2969 262.213 61.1599 262.213 63.4581V93.6272C262.213 94.2017 261.747 94.6675 261.173 94.6675H9.41726C8.84272 94.6675 8.37695 94.2017 8.37695 93.6272V63.4581Z" fill="#FFA580"/>
<path fill-rule="evenodd" clip-rule="evenodd" d="M7.67773 63.4589C7.67773 60.7741 9.85419 58.5977 12.539 58.5977H258.053C260.737 58.5977 262.914 60.7741 262.914 63.4589V93.628C262.914 94.5891 262.135 95.3683 261.174 95.3683H9.41805C8.4569 95.3683 7.67773 94.5891 7.67773 93.628V63.4589ZM12.539 59.9977C10.6274 59.9977 9.07773 61.5473 9.07773 63.4589V93.628C9.07773 93.8159 9.2301 93.9683 9.41805 93.9683H261.174C261.362 93.9683 261.514 93.8159 261.514 93.628V63.4589C261.514 61.5473 259.964 59.9977 258.053 59.9977H12.539Z" fill="black"/>
<path d="M13.5781 94.668H257.011V475.422H13.5781V94.668Z" fill="#FFA580"/>
<path fill-rule="evenodd" clip-rule="evenodd" d="M12.8789 93.9688H257.712V476.123H12.8789V93.9688ZM14.2789 95.3687V474.723H256.312V95.3687H14.2789Z" fill="black"/>
<path d="M257.012 115.475L761.563 115.475C770.756 115.475 778.208 122.927 778.208 132.12V142.762C778.208 149.372 782.644 155.16 789.027 156.879C-nan -nan -nan -nan 789.027 156.879L-nan -nanC-nan -nan -nan -nan -nan -nanL-nan -nanC-nan -nan -nan -nan -nan -nanL789.027 156.879C-nan -nan -nan -nan 789.027 156.879C790.623 157.309 791.732 158.756 791.732 160.408V291.807C791.732 301 784.28 308.452 775.087 308.452H554.32C510.286 308.452 471.448 337.293 458.716 379.446L448.815 412.226C444.571 426.277 431.625 435.891 416.947 435.891H257.012V115.475Z" fill="#FFA580"/>
<path fill-rule="evenodd" clip-rule="evenodd" d="M256.312 114.775H761.564C771.143 114.775 778.909 122.541 778.909 132.12V142.762C778.909 149.057 783.132 154.568 789.21 156.204C791.112 156.716 792.433 158.44 792.433 160.409V291.808C792.433 301.388 784.667 309.153 775.088 309.153H554.321C510.595 309.153 472.029 337.791 459.387 379.649L449.486 412.429C445.152 426.776 431.934 436.592 416.947 436.592H256.312V114.775ZM257.712 116.175V435.192H416.947C431.317 435.192 443.991 425.78 448.145 412.025L458.046 379.244C470.868 336.796 509.978 307.753 554.321 307.753H775.088C783.894 307.753 791.033 300.614 791.033 291.808V160.409C791.033 159.073 790.136 157.903 788.846 157.556C782.157 155.755 777.509 149.69 777.509 142.762V132.12C777.509 123.314 770.37 116.175 761.564 116.175H257.712Z" fill="black"/>
<path d="M13.5781 142.523H229.963V475.423H13.5781V142.523Z" fill="#FFA580"/>
<path fill-rule="evenodd" clip-rule="evenodd" d="M12.8789 141.822H230.664V476.122H12.8789V141.822ZM14.2789 143.222V474.722H229.264V143.222H14.2789Z" fill="black"/>
<path d="M8.37695 476.462C8.37695 475.888 8.84272 475.422 9.41727 475.422H261.173C261.747 475.422 262.213 475.888 262.213 476.462V502.47C262.213 504.768 260.35 506.631 258.052 506.631H12.5382C10.24 506.631 8.37695 504.768 8.37695 502.47V476.462Z" fill="#FFA580"/>
<path fill-rule="evenodd" clip-rule="evenodd" d="M7.67773 476.463C7.67773 475.502 8.4569 474.723 9.41805 474.723H261.174C262.135 474.723 262.914 475.502 262.914 476.463V502.471C262.914 505.156 260.737 507.332 258.053 507.332H12.539C9.85418 507.332 7.67773 505.156 7.67773 502.471V476.463ZM9.41805 476.123C9.2301 476.123 9.07773 476.275 9.07773 476.463V502.471C9.07773 504.382 10.6274 505.932 12.539 505.932H258.053C259.964 505.932 261.514 504.382 261.514 502.471V476.463C261.514 476.275 261.362 476.123 261.174 476.123H9.41805Z" fill="black"/>
<path d="M75.998 16.6448C75.998 12.0484 79.7242 8.32227 84.3205 8.32227H186.271C190.868 8.32227 194.594 12.0484 194.594 16.6448V59.2976H75.998V16.6448Z" fill="#FFA580"/>
<path fill-rule="evenodd" clip-rule="evenodd" d="M75.2969 16.6455C75.2969 11.6626 79.3364 7.62305 84.3194 7.62305H186.27C191.253 7.62305 195.292 11.6626 195.292 16.6455V59.9983H75.2969V16.6455ZM84.3194 9.02305C80.1096 9.02305 76.6969 12.4358 76.6969 16.6455V58.5983H193.892V16.6455C193.892 12.4358 190.48 9.02305 186.27 9.02305H84.3194Z" fill="black"/>
<path d="M317.35 136.281C317.35 131.685 321.076 127.959 325.672 127.959H331.914C336.51 127.959 340.236 131.685 340.236 136.281V148.765C340.236 153.362 336.51 157.088 331.914 157.088H325.672C321.076 157.088 317.35 153.362 317.35 148.765V136.281Z" fill="#FFA580"/>
<path fill-rule="evenodd" clip-rule="evenodd" d="M331.914 129.359H325.672C321.849 129.359 318.75 132.458 318.75 136.281V148.765C318.75 152.588 321.849 155.688 325.672 155.688H331.914C335.737 155.688 338.836 152.588 338.836 148.765V136.281C338.836 132.458 335.737 129.359 331.914 129.359ZM325.672 127.959C321.076 127.959 317.35 131.685 317.35 136.281V148.765C317.35 153.362 321.076 157.088 325.672 157.088H331.914C336.51 157.088 340.236 153.362 340.236 148.765V136.281C340.236 131.685 336.51 127.959 331.914 127.959H325.672Z" fill="black"/>
<path d="M317.35 402.6C317.35 398.003 321.076 394.277 325.672 394.277H331.914C336.51 394.277 340.236 398.003 340.236 402.6V415.084C340.236 419.68 336.51 423.406 331.914 423.406H325.672C321.076 423.406 317.35 419.68 317.35 415.084V402.6Z" fill="#FFA580"/>
<path fill-rule="evenodd" clip-rule="evenodd" d="M331.914 395.677H325.672C321.849 395.677 318.75 398.777 318.75 402.6V415.084C318.75 418.907 321.849 422.006 325.672 422.006H331.914C335.737 422.006 338.836 418.907 338.836 415.084V402.6C338.836 398.777 335.737 395.677 331.914 395.677ZM325.672 394.277C321.076 394.277 317.35 398.003 317.35 402.6V415.084C317.35 419.68 321.076 423.406 325.672 423.406H331.914C336.51 423.406 340.236 419.68 340.236 415.084V402.6C340.236 398.003 336.51 394.277 331.914 394.277H325.672Z" fill="black"/>
<path d="M445.309 136.281C445.309 131.685 449.035 127.959 453.631 127.959H459.873C464.469 127.959 468.195 131.685 468.195 136.281V148.765C468.195 153.362 464.469 157.088 459.873 157.088H453.631C449.035 157.088 445.309 153.362 445.309 148.765V136.281Z" fill="#FFA580"/>
<path fill-rule="evenodd" clip-rule="evenodd" d="M459.873 129.359H453.631C449.808 129.359 446.709 132.458 446.709 136.281V148.765C446.709 152.588 449.808 155.688 453.631 155.688H459.873C463.696 155.688 466.795 152.588 466.795 148.765V136.281C466.795 132.458 463.696 129.359 459.873 129.359ZM453.631 127.959C449.035 127.959 445.309 131.685 445.309 136.281V148.765C445.309 153.362 449.035 157.088 453.631 157.088H459.873C464.469 157.088 468.195 153.362 468.195 148.765V136.281C468.195 131.685 464.469 127.959 459.873 127.959H453.631Z" fill="black"/>
<path d="M573.268 136.281C573.268 131.685 576.994 127.959 581.59 127.959H587.832C592.428 127.959 596.154 131.685 596.154 136.281V148.765C596.154 153.362 592.428 157.088 587.832 157.088H581.59C576.994 157.088 573.268 153.362 573.268 148.765V136.281Z" fill="#FFA580"/>
<path fill-rule="evenodd" clip-rule="evenodd" d="M587.832 129.359H581.59C577.767 129.359 574.668 132.458 574.668 136.281V148.765C574.668 152.588 577.767 155.688 581.59 155.688H587.832C591.655 155.688 594.754 152.588 594.754 148.765V136.281C594.754 132.458 591.655 129.359 587.832 129.359ZM581.59 127.959C576.994 127.959 573.268 131.685 573.268 136.281V148.765C573.268 153.362 576.994 157.088 581.59 157.088H587.832C592.428 157.088 596.154 153.362 596.154 148.765V136.281C596.154 131.685 592.428 127.959 587.832 127.959H581.59Z" fill="black"/>
<path d="M701.225 136.281C701.225 131.685 704.951 127.959 709.547 127.959H715.789C720.385 127.959 724.111 131.685 724.111 136.281V148.765C724.111 153.362 720.385 157.088 715.789 157.088H709.547C704.951 157.088 701.225 153.362 701.225 148.765V136.281Z" fill="#FFA580"/>
<path fill-rule="evenodd" clip-rule="evenodd" d="M715.789 129.359H709.547C705.724 129.359 702.625 132.458 702.625 136.281V148.765C702.625 152.588 705.724 155.688 709.547 155.688H715.789C719.612 155.688 722.711 152.588 722.711 148.765V136.281C722.711 132.458 719.612 129.359 715.789 129.359ZM709.547 127.959C704.951 127.959 701.225 131.685 701.225 136.281V148.765C701.225 153.362 704.951 157.088 709.547 157.088H715.789C720.385 157.088 724.111 153.362 724.111 148.765V136.281C724.111 131.685 720.385 127.959 715.789 127.959H709.547Z" fill="black"/>
<path d="M274.697 136.281C274.697 131.685 278.423 127.959 283.02 127.959H289.262C293.858 127.959 297.584 131.685 297.584 136.281V148.765C297.584 153.362 293.858 157.088 289.262 157.088H283.02C278.423 157.088 274.697 153.362 274.697 148.765V136.281Z" fill="#FFA580"/>
<path fill-rule="evenodd" clip-rule="evenodd" d="M289.262 129.359H283.02C279.197 129.359 276.097 132.458 276.097 136.281V148.765C276.097 152.588 279.197 155.688 283.02 155.688H289.262C293.085 155.688 296.184 152.588 296.184 148.765V136.281C296.184 132.458 293.085 129.359 289.262 129.359ZM283.02 127.959C278.423 127.959 274.697 131.685 274.697 136.281V148.765C274.697 153.362 278.423 157.088 283.02 157.088H289.262C293.858 157.088 297.584 153.362 297.584 148.765V136.281C297.584 131.685 293.858 127.959 289.262 127.959H283.02Z" fill="black"/>
<path d="M274.697 402.6C274.697 398.003 278.423 394.277 283.02 394.277H289.262C293.858 394.277 297.584 398.003 297.584 402.6V415.084C297.584 419.68 293.858 423.406 289.262 423.406H283.02C278.423 423.406 274.697 419.68 274.697 415.084V402.6Z" fill="#FFA580"/>
<path fill-rule="evenodd" clip-rule="evenodd" d="M289.262 395.677H283.02C279.197 395.677 276.097 398.777 276.097 402.6V415.084C276.097 418.907 279.197 422.006 283.02 422.006H289.262C293.085 422.006 296.184 418.907 296.184 415.084V402.6C296.184 398.777 293.085 395.677 289.262 395.677ZM283.02 394.277C278.423 394.277 274.697 398.003 274.697 402.6V415.084C274.697 419.68 278.423 423.406 283.02 423.406H289.262C293.858 423.406 297.584 419.68 297.584 415.084V402.6C297.584 398.003 293.858 394.277 289.262 394.277H283.02Z" fill="black"/>
<path d="M402.656 136.281C402.656 131.685 406.382 127.959 410.979 127.959H417.221C421.817 127.959 425.543 131.685 425.543 136.281V148.765C425.543 153.362 421.817 157.088 417.221 157.088H410.979C406.382 157.088 402.656 153.362 402.656 148.765V136.281Z" fill="#FFA580"/>
<path fill-rule="evenodd" clip-rule="evenodd" d="M417.221 129.359H410.979C407.156 129.359 404.056 132.458 404.056 136.281V148.765C404.056 152.588 407.156 155.688 410.979 155.688H417.221C421.044 155.688 424.143 152.588 424.143 148.765V136.281C424.143 132.458 421.044 129.359 417.221 129.359ZM410.979 127.959C406.382 127.959 402.656 131.685 402.656 136.281V148.765C402.656 153.362 406.382 157.088 410.979 157.088H417.221C421.817 157.088 425.543 153.362 425.543 148.765V136.281C425.543 131.685 421.817 127.959 417.221 127.959H410.979Z" fill="black"/>
<path d="M402.656 402.6C402.656 398.003 406.382 394.277 410.979 394.277H417.221C421.817 394.277 425.543 398.003 425.543 402.6V415.084C425.543 419.68 421.817 423.406 417.221 423.406H410.979C406.382 423.406 402.656 419.68 402.656 415.084V402.6Z" fill="#FFA580"/>
<path fill-rule="evenodd" clip-rule="evenodd" d="M417.221 395.677H410.979C407.156 395.677 404.056 398.777 404.056 402.6V415.084C404.056 418.907 407.156 422.006 410.979 422.006H417.221C421.044 422.006 424.143 418.907 424.143 415.084V402.6C424.143 398.777 421.044 395.677 417.221 395.677ZM410.979 394.277C406.382 394.277 402.656 398.003 402.656 402.6V415.084C402.656 419.68 406.382 423.406 410.979 423.406H417.221C421.817 423.406 425.543 419.68 425.543 415.084V402.6C425.543 398.003 421.817 394.277 417.221 394.277H410.979Z" fill="black"/>
<path d="M530.613 136.281C530.613 131.685 534.339 127.959 538.936 127.959H545.178C549.774 127.959 553.5 131.685 553.5 136.281V148.765C553.5 153.362 549.774 157.088 545.178 157.088H538.936C534.339 157.088 530.613 153.362 530.613 148.765V136.281Z" fill="#FFA580"/>
<path fill-rule="evenodd" clip-rule="evenodd" d="M545.178 129.359H538.936C535.113 129.359 532.013 132.458 532.013 136.281V148.765C532.013 152.588 535.113 155.688 538.936 155.688H545.178C549.001 155.688 552.1 152.588 552.1 148.765V136.281C552.1 132.458 549.001 129.359 545.178 129.359ZM538.936 127.959C534.339 127.959 530.613 131.685 530.613 136.281V148.765C530.613 153.362 534.339 157.088 538.936 157.088H545.178C549.774 157.088 553.5 153.362 553.5 148.765V136.281C553.5 131.685 549.774 127.959 545.178 127.959H538.936Z" fill="black"/>
<path d="M658.572 136.281C658.572 131.685 662.298 127.959 666.895 127.959H673.137C677.733 127.959 681.459 131.685 681.459 136.281V148.765C681.459 153.362 677.733 157.088 673.137 157.088H666.895C662.298 157.088 658.572 153.362 658.572 148.765V136.281Z" fill="#FFA580"/>
<path fill-rule="evenodd" clip-rule="evenodd" d="M673.137 129.359H666.895C663.072 129.359 659.972 132.458 659.972 136.281V148.765C659.972 152.588 663.072 155.688 666.895 155.688H673.137C676.96 155.688 680.059 152.588 680.059 148.765V136.281C680.059 132.458 676.96 129.359 673.137 129.359ZM666.895 127.959C662.298 127.959 658.572 131.685 658.572 136.281V148.765C658.572 153.362 662.298 157.088 666.895 157.088H673.137C677.733 157.088 681.459 153.362 681.459 148.765V136.281C681.459 131.685 677.733 127.959 673.137 127.959H666.895Z" fill="black"/>
<path d="M360.002 136.281C360.002 131.685 363.728 127.959 368.324 127.959H374.566C379.163 127.959 382.889 131.685 382.889 136.281V148.765C382.889 153.362 379.163 157.088 374.566 157.088H368.324C363.728 157.088 360.002 153.362 360.002 148.765V136.281Z" fill="#FFA580"/>
<path fill-rule="evenodd" clip-rule="evenodd" d="M374.566 129.359H368.324C364.501 129.359 361.402 132.458 361.402 136.281V148.765C361.402 152.588 364.501 155.688 368.324 155.688H374.566C378.389 155.688 381.489 152.588 381.489 148.765V136.281C381.489 132.458 378.389 129.359 374.566 129.359ZM368.324 127.959C363.728 127.959 360.002 131.685 360.002 136.281V148.765C360.002 153.362 363.728 157.088 368.324 157.088H374.566C379.163 157.088 382.889 153.362 382.889 148.765V136.281C382.889 131.685 379.163 127.959 374.566 127.959H368.324Z" fill="black"/>
<path d="M360.002 402.6C360.002 398.003 363.728 394.277 368.324 394.277H374.566C379.163 394.277 382.889 398.003 382.889 402.6V415.084C382.889 419.68 379.163 423.406 374.566 423.406H368.324C363.728 423.406 360.002 419.68 360.002 415.084V402.6Z" fill="#FFA580"/>
<path fill-rule="evenodd" clip-rule="evenodd" d="M374.566 395.677H368.324C364.501 395.677 361.402 398.777 361.402 402.6V415.084C361.402 418.907 364.501 422.006 368.324 422.006H374.566C378.389 422.006 381.489 418.907 381.489 415.084V402.6C381.489 398.777 378.389 395.677 374.566 395.677ZM368.324 394.277C363.728 394.277 360.002 398.003 360.002 402.6V415.084C360.002 419.68 363.728 423.406 368.324 423.406H374.566C379.163 423.406 382.889 419.68 382.889 415.084V402.6C382.889 398.003 379.163 394.277 374.566 394.277H368.324Z" fill="black"/>
<path d="M487.961 136.281C487.961 131.685 491.687 127.959 496.283 127.959H502.525C507.122 127.959 510.848 131.685 510.848 136.281V148.765C510.848 153.362 507.122 157.088 502.525 157.088H496.283C491.687 157.088 487.961 153.362 487.961 148.765V136.281Z" fill="#FFA580"/>
<path fill-rule="evenodd" clip-rule="evenodd" d="M502.525 129.359H496.283C492.46 129.359 489.361 132.458 489.361 136.281V148.765C489.361 152.588 492.46 155.688 496.283 155.688H502.525C506.348 155.688 509.448 152.588 509.448 148.765V136.281C509.448 132.458 506.348 129.359 502.525 129.359ZM496.283 127.959C491.687 127.959 487.961 131.685 487.961 136.281V148.765C487.961 153.362 491.687 157.088 496.283 157.088H502.525C507.122 157.088 510.848 153.362 510.848 148.765V136.281C510.848 131.685 507.122 127.959 502.525 127.959H496.283Z" fill="black"/>
<path d="M615.92 136.281C615.92 131.685 619.646 127.959 624.242 127.959H630.484C635.081 127.959 638.807 131.685 638.807 136.281V148.765C638.807 153.362 635.081 157.088 630.484 157.088H624.242C619.646 157.088 615.92 153.362 615.92 148.765V136.281Z" fill="#FFA580"/>
<path fill-rule="evenodd" clip-rule="evenodd" d="M630.484 129.359H624.242C620.419 129.359 617.32 132.458 617.32 136.281V148.765C617.32 152.588 620.419 155.688 624.242 155.688H630.484C634.307 155.688 637.407 152.588 637.407 148.765V136.281C637.407 132.458 634.307 129.359 630.484 129.359ZM624.242 127.959C619.646 127.959 615.92 131.685 615.92 136.281V148.765C615.92 153.362 619.646 157.088 624.242 157.088H630.484C635.081 157.088 638.807 153.362 638.807 148.765V136.281C638.807 131.685 635.081 127.959 630.484 127.959H624.242Z" fill="black"/>
<path d="M743.877 136.281C743.877 131.685 747.603 127.959 752.199 127.959H758.441C763.038 127.959 766.764 131.685 766.764 136.281V148.765C766.764 153.362 763.038 157.088 758.441 157.088H752.199C747.603 157.088 743.877 153.362 743.877 148.765V136.281Z" fill="#FFA580"/>
<path fill-rule="evenodd" clip-rule="evenodd" d="M758.441 129.359H752.199C748.376 129.359 745.277 132.458 745.277 136.281V148.765C745.277 152.588 748.376 155.688 752.199 155.688H758.441C762.265 155.688 765.364 152.588 765.364 148.765V136.281C765.364 132.458 762.265 129.359 758.441 129.359ZM752.199 127.959C747.603 127.959 743.877 131.685 743.877 136.281V148.765C743.877 153.362 747.603 157.088 752.199 157.088H758.441C763.038 157.088 766.764 153.362 766.764 148.765V136.281C766.764 131.685 763.038 127.959 758.441 127.959H752.199Z" fill="black"/>
<path fill-rule="evenodd" clip-rule="evenodd" d="M164.328 191.331C161.455 191.377 159.089 189.086 159.043 186.214C158.994 183.178 158.571 181.322 157.858 179.871C157.143 178.417 155.91 176.907 153.461 174.953C152.625 174.285 151.72 173.766 150.903 173.493C150.099 173.225 149.617 173.267 149.353 173.348C149.339 173.352 149.33 173.356 149.313 173.367C149.293 173.38 149.239 173.418 149.155 173.508C148.972 173.703 148.692 174.092 148.372 174.804C147.7 176.296 147.189 178.42 146.704 181.165C146.55 182.04 146.391 183.034 146.224 184.071C145.928 185.918 145.611 187.9 145.261 189.584C144.715 192.208 143.865 195.439 142.065 197.906C140.096 200.604 137.381 202.832 133.846 203.07C130.351 203.304 127.666 201.48 125.984 199.782C122.728 196.496 120.749 191.307 120.232 187.601C119.563 182.799 120.379 178.15 121.04 174.389C121.116 173.952 121.191 173.527 121.261 173.115C121.323 172.748 121.419 172.254 121.578 171.761C121.654 171.526 121.806 171.092 122.082 170.611C122.268 170.286 122.994 169.051 124.582 168.36C126.788 167.4 128.834 168.171 129.971 169.082C130.845 169.783 131.269 170.585 131.4 170.839C131.717 171.455 131.87 172.04 131.921 172.235L131.921 172.235C132.043 172.699 132.143 173.247 132.201 173.56C132.206 173.589 132.211 173.616 132.216 173.64C132.265 173.908 132.294 174.051 132.307 174.115C132.316 174.162 132.317 174.167 132.312 174.148C132.881 176.141 132.207 178.195 130.751 179.48C130.395 181.911 130.237 184.019 130.536 186.166C130.662 187.07 131.014 188.337 131.584 189.617C132.115 190.81 132.713 191.737 133.233 192.312C133.356 192.173 133.499 191.996 133.661 191.773C134.033 191.263 134.55 189.993 135.075 187.467C135.389 185.957 135.625 184.474 135.882 182.852C136.055 181.766 136.237 180.618 136.459 179.357C136.959 176.526 137.642 173.298 138.884 170.537C140.132 167.762 142.332 164.619 146.305 163.402C151.95 161.672 157.151 164.587 159.951 166.822C163.084 169.322 165.563 171.963 167.194 175.282C168.826 178.603 169.382 182.141 169.445 186.046C169.491 188.918 167.2 191.284 164.328 191.331ZM132.705 192.795C132.705 192.794 132.716 192.787 132.738 192.777C132.716 192.791 132.705 192.796 132.705 192.795ZM133.729 192.768C133.749 192.777 133.758 192.783 133.758 192.784C133.758 192.785 133.749 192.78 133.729 192.768ZM131.539 174.74C131.539 174.74 131.539 174.742 131.538 174.747C131.539 174.742 131.539 174.74 131.539 174.74Z" fill="black"/>
<path fill-rule="evenodd" clip-rule="evenodd" d="M162.66 216.124C162.747 218.996 160.489 221.394 157.618 221.481C150.545 221.695 144.011 222.941 137.706 225.663C137.036 225.952 134.459 227.093 132.169 228.514C132.622 228.611 133.11 228.703 133.631 228.789C135.125 229.035 136.696 229.202 138.228 229.352C138.444 229.373 138.664 229.394 138.885 229.415C140.128 229.535 141.435 229.66 142.445 229.82C143.988 230.064 147.446 230.284 150.39 230.446C150.81 230.469 151.22 230.492 151.604 230.512C152.468 230.559 153.206 230.599 153.645 230.629C153.793 230.639 154.003 230.654 154.192 230.675C154.246 230.681 154.33 230.691 154.428 230.705L154.429 230.705C154.492 230.715 154.716 230.748 154.991 230.819C155.103 230.848 155.45 230.939 155.865 231.13C156.067 231.222 156.482 231.426 156.937 231.788C157.324 232.096 158.292 232.951 158.713 234.476C159.227 236.339 158.619 237.993 157.825 239.028C157.173 239.877 156.43 240.299 156.14 240.454C155.531 240.778 154.994 240.901 154.868 240.93L154.86 240.932C154.518 241.011 154.236 241.038 154.168 241.044L154.163 241.045C154.052 241.056 153.958 241.061 153.9 241.064C153.781 241.071 153.668 241.074 153.583 241.076C153.405 241.079 153.185 241.081 152.938 241.081C152.518 241.081 152.11 241.031 151.719 240.937C151.546 240.927 151.36 240.917 151.164 240.907C150.761 240.885 150.309 240.861 149.817 240.834C147.096 240.683 143.01 240.442 140.819 240.095C140.152 239.99 139.235 239.901 137.966 239.778C137.728 239.755 137.479 239.731 137.216 239.706C135.659 239.553 133.797 239.359 131.94 239.053C130.109 238.752 128.082 238.311 126.228 237.598C124.465 236.919 122.234 235.763 120.707 233.648C119.594 232.108 119.136 230.281 119.378 228.445C119.597 226.775 120.346 225.442 121.025 224.512C122.343 222.706 124.26 221.259 125.811 220.233C129.051 218.091 132.776 216.46 133.582 216.113C141.297 212.781 149.162 211.329 157.303 211.083C160.174 210.995 162.573 213.253 162.66 216.124ZM129.414 230.665C129.414 230.665 129.417 230.66 129.425 230.648C129.419 230.66 129.415 230.665 129.414 230.665Z" fill="black"/>
<path fill-rule="evenodd" clip-rule="evenodd" d="M131.778 257.266C130.099 257.135 128.606 257.018 127.41 256.866C124.56 256.505 122.543 253.902 122.904 251.052C123.265 248.202 125.868 246.184 128.718 246.546C129.246 246.613 130.169 246.685 131.364 246.778C135.367 247.091 142.429 247.643 147.961 249.038C151.498 249.93 155.825 251.453 158.551 254.5C160.069 256.196 161.13 258.413 161.16 261.06C161.188 263.593 160.265 265.959 158.911 268.076C157.439 270.378 155.515 272.016 153.468 273.188C155.025 274.303 156.481 275.659 157.657 277.32C159.746 280.273 160.715 283.87 160.191 287.961C159.643 292.236 157.637 295.564 154.638 297.856C151.798 300.027 148.386 301.032 145.24 301.484C139.009 302.38 132.103 301.331 127.859 300.536C125.036 300.006 123.176 297.288 123.706 294.464C124.235 291.641 126.953 289.781 129.777 290.311C133.9 291.084 139.351 291.821 143.76 291.187C145.934 290.874 147.413 290.285 148.321 289.591C149.071 289.018 149.671 288.211 149.872 286.638C150.07 285.092 149.723 284.119 149.165 283.329C148.51 282.403 147.329 281.427 145.455 280.481C141.791 278.633 137.036 277.625 132.716 276.709C132.478 276.659 132.242 276.608 132.007 276.558C131.787 276.512 131.466 276.438 131.129 276.328C130.967 276.275 130.67 276.171 130.329 276.001C130.325 275.999 130.321 275.997 130.316 275.994C130.113 275.894 129.174 275.427 128.416 274.395C127.957 273.769 127.4 272.707 127.401 271.296C127.403 269.84 127.996 268.71 128.584 267.992C129.509 266.862 130.643 266.457 130.863 266.378C130.87 266.376 130.875 266.374 130.88 266.372C131.513 266.143 132.084 266.077 132.234 266.06C132.239 266.059 132.243 266.059 132.247 266.058C132.992 265.972 134.05 265.975 134.773 265.982C135.631 265.99 136.578 266.014 137.32 266.033C137.743 266.044 138.039 266.051 138.23 266.056C138.446 266.061 138.528 266.063 138.508 266.063C141.179 265.965 143.777 265.751 145.989 265.107C148.169 264.472 149.442 263.574 150.147 262.471C150.501 261.918 150.65 261.55 150.713 261.348C150.136 260.791 148.535 259.912 145.417 259.125C140.856 257.975 135.79 257.579 131.778 257.266ZM134.142 266.376C134.142 266.376 134.147 266.378 134.156 266.38C134.146 266.377 134.141 266.376 134.142 266.376Z" fill="black"/>
<path fill-rule="evenodd" clip-rule="evenodd" d="M156.864 353.45C156.692 352.91 156.177 351.801 154.643 349.922C151.652 346.255 147.903 343.167 143.674 340.146C143.676 340.148 143.676 340.147 143.673 340.146C143.66 340.137 143.592 340.092 143.44 340.001C143.267 339.897 143.053 339.775 142.78 339.62C142.695 339.572 142.604 339.521 142.508 339.467C142.03 339.197 141.433 338.861 140.854 338.513C140.164 338.097 139.341 337.571 138.585 336.97C137.94 336.455 136.813 335.481 136.099 334.052C135.768 333.39 135 331.549 135.881 329.396C136.806 327.136 138.763 326.392 139.555 326.172C140.41 325.935 141.172 325.934 141.555 325.943C142.005 325.954 142.426 326 142.749 326.042C143.218 326.104 143.774 326.201 144.165 326.269C144.273 326.288 144.369 326.304 144.446 326.318C144.822 326.381 144.968 326.396 144.976 326.399C145.424 326.399 145.862 326.4 146.293 326.401C148.641 326.408 150.756 326.413 152.865 326.247C153.418 326.204 153.949 326.144 154.446 326.07C150.584 323.078 146.145 321.937 140.429 321.767C140.431 321.767 140.365 321.766 140.193 321.768C140.035 321.77 139.834 321.774 139.59 321.78C139.101 321.793 138.494 321.813 137.812 321.836L137.635 321.842C136.333 321.885 134.798 321.937 133.528 321.955C132.87 321.965 132.214 321.967 131.668 321.949C131.403 321.941 131.08 321.926 130.759 321.892C130.602 321.875 130.367 321.846 130.101 321.792L130.096 321.791C129.926 321.757 129.305 321.631 128.617 321.27C128.28 321.094 127.505 320.648 126.84 319.758C126.035 318.68 125.529 317.1 125.951 315.382C126.302 313.953 127.142 313.093 127.526 312.746C127.96 312.353 128.367 312.117 128.584 312C129.273 311.628 129.966 311.46 130.163 311.412C130.171 311.41 130.178 311.408 130.184 311.407C130.799 311.256 131.63 311.112 132.599 310.965C140.051 309.831 147.578 307.561 154.908 304.861C157.603 303.868 160.594 305.248 161.587 307.944C162.58 310.639 161.2 313.63 158.504 314.623C157.945 314.829 157.382 315.033 156.817 315.236C158.78 316.296 160.686 317.622 162.523 319.269C164.366 320.921 166.136 323.02 166.704 325.623C167.394 328.787 166.078 331.425 164.207 333.092C162.598 334.526 160.583 335.291 158.966 335.739C157.939 336.023 156.868 336.233 155.804 336.385C158.242 338.461 160.589 340.752 162.704 343.345C166.229 347.666 168.876 352.941 166.437 357.975C165.287 360.348 163.328 361.839 161.489 362.769C159.652 363.698 157.594 364.246 155.626 364.585C147.973 365.901 137.723 364.658 133.19 363.858C130.361 363.358 128.472 360.66 128.971 357.831C129.47 355.002 132.168 353.114 134.997 353.613C139.292 354.371 148.065 355.33 153.862 354.332C155.256 354.093 156.212 353.78 156.794 353.486C156.819 353.473 156.842 353.461 156.864 353.45ZM156.947 353.857C156.947 353.857 156.946 353.849 156.947 353.835C156.948 353.85 156.947 353.857 156.947 353.857ZM157.21 353.228C157.214 353.223 157.217 353.221 157.217 353.221C157.217 353.221 157.215 353.223 157.21 353.228ZM132.659 321.511C132.667 321.509 132.676 321.507 132.687 321.505C132.599 321.53 132.58 321.531 132.659 321.511ZM156.652 328.182C156.652 328.182 156.651 328.18 156.649 328.176C156.651 328.18 156.652 328.182 156.652 328.182Z" fill="black"/>
<path fill-rule="evenodd" clip-rule="evenodd" d="M161.906 376.974C161.825 379.846 159.432 382.108 156.56 382.027C154.78 381.977 152.874 381.736 151.134 381.496C150.716 381.439 150.307 381.381 149.903 381.325C148.536 381.132 147.237 380.949 145.925 380.814C142.343 380.443 140.095 380.62 138.807 381.25C138.803 381.252 138.799 381.253 138.795 381.255C138.69 381.305 138.396 381.444 138.132 382.536C137.823 383.814 137.808 385.345 137.789 387.37L137.788 387.43C137.78 388.279 137.74 389.088 137.7 389.889C137.626 391.374 137.553 392.832 137.689 394.473C137.764 395.37 137.89 395.972 138.006 396.334C140.236 397.493 141.356 400.132 140.536 402.592C139.628 405.318 136.682 406.791 133.957 405.882C131.1 404.93 129.473 402.768 128.607 400.842C127.776 398.991 127.459 396.984 127.322 395.335C127.126 392.979 127.264 390.074 127.342 388.426C127.365 387.931 127.383 387.55 127.386 387.331C127.387 387.203 127.388 387.067 127.389 386.926C127.4 385.223 127.419 382.577 128.021 380.089C128.711 377.236 130.355 373.801 134.239 371.903C138.411 369.865 143.319 370.085 146.996 370.466C148.518 370.623 150.069 370.842 151.465 371.038C151.84 371.091 152.204 371.143 152.553 371.191C154.295 371.43 155.698 371.596 156.853 371.628C159.725 371.709 161.987 374.103 161.906 376.974Z" fill="black"/>
<path fill-rule="evenodd" clip-rule="evenodd" d="M151.635 402.289C148.811 402.818 146.093 400.959 145.564 398.135C144.291 391.348 143.03 384.557 141.79 377.758C141.275 374.932 143.149 372.224 145.975 371.708C148.801 371.193 151.51 373.066 152.025 375.893C153.26 382.669 154.518 389.442 155.789 396.218C156.318 399.042 154.459 401.76 151.635 402.289Z" fill="black"/>
<path fill-rule="evenodd" clip-rule="evenodd" d="M155.807 380.738C155.541 380.17 155.27 379.594 154.998 379.004C153.794 376.395 154.933 373.305 157.541 372.101C160.149 370.897 163.24 372.036 164.444 374.644C164.651 375.093 164.876 375.572 165.114 376.076C166.238 378.463 167.628 381.415 168.585 384.4C169.763 388.075 170.549 392.532 169.245 397.096C168.455 399.859 165.576 401.458 162.814 400.669C160.052 399.88 158.453 397.001 159.242 394.239C159.741 392.492 159.563 390.338 158.678 387.575C157.948 385.298 156.917 383.102 155.807 380.738Z" fill="black"/>
<path fill-rule="evenodd" clip-rule="evenodd" d="M143.07 426.513C143.064 426.513 143.057 426.513 143.051 426.513C141.632 426.53 140.212 426.547 138.853 426.556C136.288 426.573 133.673 426.564 132.139 426.38C131.8 426.339 131.068 426.244 130.322 425.968C130.045 425.865 129.013 425.481 128.119 424.486C127.599 423.909 127.015 422.998 126.823 421.76C126.626 420.493 126.918 419.38 127.33 418.567C128.019 417.204 129.096 416.54 129.362 416.376L129.364 416.375C129.79 416.112 130.189 415.942 130.442 415.841C130.965 415.634 131.534 415.471 132.045 415.34C139.188 413.503 147.051 412.762 154.135 412.095C155.871 411.932 157.56 411.773 159.18 411.603C162.037 411.304 164.596 413.377 164.895 416.234C165.011 417.348 164.768 418.416 164.258 419.323C165.093 419.848 165.891 420.433 166.63 421.072C169.907 423.908 172.823 428.626 171.284 434.473C170.661 436.843 169.291 438.887 167.131 440.147C165.107 441.328 162.96 441.486 161.289 441.34C158.067 441.059 154.99 439.521 153.11 438.187C152.252 437.578 151.341 436.861 150.44 436.055C149.923 436.951 149.379 437.793 148.834 438.586C148.071 439.698 147.231 440.819 146.467 441.839C146.215 442.175 145.971 442.501 145.741 442.811C144.76 444.135 143.911 445.337 143.199 446.565C142.766 447.31 142.349 448.184 141.8 449.335C141.709 449.526 141.614 449.725 141.515 449.931C140.875 451.268 140.079 452.893 139.101 454.418C137.164 457.44 133.772 461.172 128.064 461.172C125.192 461.172 122.863 458.844 122.863 455.971C122.863 453.098 125.192 450.769 128.064 450.769C128.483 450.769 129.133 450.69 130.344 448.802C130.94 447.872 131.496 446.767 132.132 445.439C132.212 445.271 132.295 445.096 132.381 444.916C132.912 443.8 133.538 442.485 134.202 441.341C135.215 439.596 136.345 438.018 137.383 436.617C137.685 436.21 137.973 435.826 138.25 435.456C138.975 434.488 139.626 433.618 140.258 432.698C141.777 430.485 142.734 428.595 143.07 426.513ZM155.968 426.895C155.976 426.903 155.983 426.911 155.99 426.919C156.929 427.974 158.073 428.952 159.131 429.703C159.507 429.97 160.068 430.293 160.697 430.555C160.872 430.628 161.038 430.69 161.194 430.743C161.031 430.238 160.635 429.642 159.822 428.939C158.715 427.981 157.27 427.271 155.968 426.895ZM162.368 430.981C162.368 430.982 162.363 430.982 162.352 430.983C162.362 430.981 162.368 430.981 162.368 430.981ZM133.306 416.04C133.307 416.04 133.325 416.042 133.357 416.048C133.321 416.043 133.305 416.04 133.306 416.04Z" fill="black"/>
<path fill-rule="evenodd" clip-rule="evenodd" d="M103.36 243.29C103.081 246.149 100.537 248.241 97.6778 247.962C96.473 247.844 95.3838 247.706 94.3406 247.574C92.5898 247.352 90.9683 247.146 89.1467 247.082C86.4043 246.985 84.6301 247.334 83.5229 247.999C81.0596 249.477 77.8645 248.678 76.3865 246.215C74.9084 243.751 75.7072 240.556 78.1706 239.078C81.8812 236.852 86.1197 236.565 89.5132 236.685C91.7563 236.764 94.3051 237.08 96.3509 237.335C97.2499 237.446 98.0517 237.546 98.6879 237.608C101.547 237.887 103.639 240.431 103.36 243.29Z" fill="black"/>
<path fill-rule="evenodd" clip-rule="evenodd" d="M94.1579 262.463C100.349 267.936 98.8563 275.219 97.6441 279.502C96.8618 282.266 93.9868 283.873 91.2227 283.09C88.4585 282.308 86.8519 279.433 87.6342 276.669C88.1845 274.725 88.4003 273.348 88.312 272.314C88.2433 271.508 88.0034 270.908 87.268 270.258C84.9458 268.205 81.8188 267.915 77.6227 269.56C76.1478 270.139 74.6752 270.917 73.2665 271.813C73.3522 271.872 73.4377 271.932 73.5231 271.991C77.4845 274.746 81.162 277.304 85.3066 279.536C87.8359 280.898 88.7823 284.052 87.4203 286.581C86.0584 289.111 82.9038 290.057 80.3745 288.695C75.6932 286.175 71.219 283.066 67.0222 280.149C66.4383 279.744 65.8598 279.342 65.2869 278.946C65.141 279.135 64.9904 279.334 64.8329 279.543C64.7462 279.659 64.656 279.779 64.5627 279.904C64.063 280.571 63.4747 281.357 62.8598 282.099C61.3474 283.924 59.2699 286.005 56.1417 287.265C56.1189 287.275 56.0953 287.284 56.0708 287.294C55.1613 287.66 53.0737 288.502 50.9219 289.049C49.8307 289.327 48.4718 289.596 47.0986 289.615C45.913 289.63 43.601 289.486 41.6977 287.794C37.9057 284.423 36.0206 278.833 35.9331 273.976C35.8461 269.143 37.6152 262.733 43.9494 260.16C49.2289 258.015 54.7237 260.169 58.2844 262.009C60.3287 263.065 62.3774 264.378 64.1262 265.557C66.9845 263.312 70.3049 261.256 73.824 259.876C79.9462 257.474 87.7507 256.8 94.1579 262.463ZM56.6661 273.095C55.6513 272.443 54.6032 271.817 53.5093 271.251C50.2261 269.555 48.5263 269.529 47.8649 269.798C47.3064 270.025 46.2831 270.931 46.3346 273.788C46.3732 275.932 47.0611 277.871 47.8439 279.087C47.997 279.055 48.168 279.015 48.3571 278.967C49.7987 278.601 51.3322 277.987 52.255 277.616C53.0941 277.278 53.8452 276.673 54.8489 275.462C55.2866 274.933 55.6963 274.387 56.1958 273.721C56.2994 273.582 56.4068 273.439 56.5192 273.29C56.5674 273.226 56.6163 273.161 56.6661 273.095ZM46.9307 279.212C46.9308 279.212 46.9343 279.212 46.9412 279.213C46.9341 279.212 46.9306 279.212 46.9307 279.212Z" fill="black"/>
<path fill-rule="evenodd" clip-rule="evenodd" d="M96.0197 314.024C95.7479 317.94 93.2979 320.636 90.6733 322.801C89.0803 324.115 86.9384 324.322 85.1808 323.512C83.6172 324.818 81.5258 325.788 79.8946 326.459C76.9636 327.666 73.3721 328.722 71.886 329.159C71.5765 329.25 71.3583 329.314 71.2564 329.347C67.7412 330.489 63.0419 331.797 58.3361 331.766C53.4799 331.734 48.0996 330.248 44.2355 325.297C42.9261 323.62 42.1396 321.149 41.6652 319.22C41.1275 317.033 40.7412 314.468 40.6599 311.966C40.5822 309.571 40.763 306.719 41.7388 304.255C42.2427 302.983 43.0658 301.542 44.4393 300.393C45.9018 299.169 47.7154 298.512 49.676 298.512C52.5487 298.512 54.8775 300.841 54.8775 303.714C54.8775 306.04 53.3507 308.01 51.2445 308.675C51.1103 309.318 51.0146 310.305 51.0576 311.628C51.1136 313.352 51.3891 315.198 51.7673 316.735C52.0634 317.939 52.3335 318.59 52.4322 318.828C52.4806 318.945 52.4878 318.962 52.4365 318.896C53.7431 320.571 55.6037 321.345 58.4039 321.363C61.3544 321.382 64.7268 320.53 68.0439 319.453C68.4009 319.337 68.8838 319.194 69.4557 319.024C70.9723 318.575 73.1144 317.94 75.192 317.136C74.3546 316.13 73.5372 315.047 72.794 313.899C71.0336 311.182 69.4237 307.702 69.3489 303.814C69.32 302.311 69.6171 300.511 70.8108 298.915C72.0035 297.32 73.5724 296.625 74.6617 296.298C75.6102 296.013 76.589 295.899 77.1173 295.837C77.1475 295.834 77.1763 295.83 77.2035 295.827C77.8742 295.748 78.1711 295.708 78.4161 295.648C82.547 294.632 86.1015 295.711 88.7931 298.056C91.136 300.098 92.5998 302.909 93.5896 305.043C93.6046 305.076 93.6197 305.108 93.6349 305.141C94.7797 307.61 96.2455 310.77 96.0197 314.024ZM51.4516 307.995C51.4517 307.995 51.4497 307.999 51.4454 308.007C51.4494 307.999 51.4516 307.995 51.4516 307.995ZM85.6723 313.144C85.6933 313.105 85.6985 313.087 85.6956 313.088C85.6927 313.088 85.682 313.107 85.6707 313.142C85.6713 313.142 85.6718 313.143 85.6723 313.144ZM85.6061 313.079C85.5783 312.945 85.5282 312.748 85.4382 312.474C85.1999 311.748 84.7987 310.815 84.1516 309.419C83.2389 307.451 82.5295 306.397 81.9583 305.899C81.7474 305.715 81.6451 305.69 81.6224 305.684L81.6214 305.684L81.6206 305.684C81.5988 305.678 81.3984 305.628 80.9002 305.75C80.6893 305.802 80.4794 305.847 80.2745 305.888C80.5612 306.603 80.9724 307.39 81.5252 308.243C82.6447 309.971 84.1282 311.638 85.6061 313.079ZM79.7501 303.613C79.7501 303.613 79.7501 303.613 79.75 303.614C79.75 303.613 79.7501 303.613 79.7501 303.613Z" fill="black"/>
</svg>
