<svg width="801" height="504" viewBox="0 0 801 504" fill="none" xmlns="http://www.w3.org/2000/svg">
<path fill-rule="evenodd" clip-rule="evenodd" d="M7.21581 28.6445C7.21581 12.8246 20.0404 0 35.8603 0H764.249C780.069 0 792.894 12.8246 792.894 28.6445V314.383C797.197 317.101 800.055 321.9 800.055 327.366V447.059C800.055 452.525 797.197 457.324 792.894 460.042V474.68C792.894 490.5 780.069 503.325 764.249 503.325H35.8603C20.0404 503.325 7.21581 490.5 7.21581 474.68V460.042C2.91266 457.324 0.0546875 452.525 0.0546875 447.059V327.366C0.0546875 321.9 2.91266 317.101 7.21581 314.383V28.6445ZM15.4 320.205C11.445 320.205 8.23883 323.411 8.23883 327.366V447.059C8.23883 451.014 11.445 454.22 15.4 454.22V474.68C15.4 485.98 24.5604 495.141 35.8603 495.141H764.249C775.549 495.141 784.709 485.98 784.709 474.68V454.22C788.664 454.22 791.871 451.014 791.871 447.059V327.366C791.871 323.411 788.664 320.205 784.709 320.205V28.6445C784.709 17.3446 775.549 8.18414 764.249 8.18414H35.8603C24.5604 8.18414 15.4 17.3446 15.4 28.6445V320.205Z" fill="#FFE2A6"/>
<path d="M15.4004 28.6439C15.4004 17.344 24.5608 8.18359 35.8607 8.18359H764.25C775.549 8.18359 784.71 17.344 784.71 28.644V474.68C784.71 485.98 775.549 495.14 764.25 495.14H35.8608C24.5608 495.14 15.4004 485.98 15.4004 474.68V28.6439Z" fill="#FFE2A6"/>
<path fill-rule="evenodd" clip-rule="evenodd" d="M14.6992 28.6447C14.6992 16.9582 24.173 7.48438 35.8596 7.48438H764.248C775.935 7.48438 785.409 16.9582 785.409 28.6447V474.681C785.409 486.367 775.935 495.841 764.248 495.841H35.8596C24.1731 495.841 14.6992 486.367 14.6992 474.681V28.6447ZM35.8596 8.88437C24.9462 8.88437 16.0992 17.7314 16.0992 28.6447V474.681C16.0992 485.594 24.9463 494.441 35.8596 494.441H764.248C775.162 494.441 784.009 485.594 784.009 474.681V28.6447C784.009 17.7314 775.162 8.88437 764.248 8.88437H35.8596Z" fill="black"/>
<path d="M80.5211 45.3639C82.056 43.829 84.1376 42.9668 86.3082 42.9668H713.799C715.97 42.9668 718.052 43.8291 719.586 45.3639L747.529 73.3063C749.064 74.8411 749.926 76.9228 749.926 79.0934V366.24C749.926 367.37 749.01 368.286 747.88 368.286H52.2277C51.0977 368.286 50.1816 367.37 50.1816 366.24V79.0934C50.1816 76.9228 51.0439 74.8411 52.5787 73.3063L80.5211 45.3639Z" fill="#FFE2A6"/>
<path fill-rule="evenodd" clip-rule="evenodd" d="M86.309 43.6676C84.3241 43.6676 82.4204 44.4561 81.0169 45.8596L53.0745 73.802C51.6709 75.2056 50.8824 77.1092 50.8824 79.0941V366.241C50.8824 366.985 51.4851 367.587 52.2284 367.587H747.881C748.624 367.587 749.227 366.985 749.227 366.241V79.0941C749.227 77.1092 748.438 75.2056 747.035 73.802L719.092 45.8596C717.689 44.4561 715.785 43.6676 713.8 43.6676H86.309ZM80.0269 44.8697C81.693 43.2036 83.9528 42.2676 86.309 42.2676H713.8C716.156 42.2676 718.416 43.2036 720.082 44.8697L748.025 72.8121C749.691 74.4782 750.627 76.7379 750.627 79.0941V366.241C750.627 367.758 749.397 368.987 747.881 368.987H52.2284C50.7119 368.987 49.4824 367.758 49.4824 366.241V79.0941C49.4824 76.7379 50.4184 74.4782 52.0845 72.8121L80.0269 44.8697Z" fill="black"/>
<path d="M83.5907 51.5025C85.1256 49.9677 87.2072 49.1055 89.3778 49.1055H710.731C712.901 49.1055 714.983 49.9677 716.518 51.5025L741.391 76.3759C742.926 77.9107 743.788 79.9924 743.788 82.163V360.103C743.788 361.233 742.872 362.149 741.742 362.149H58.3663C57.2363 362.149 56.3203 361.233 56.3203 360.103V82.163C56.3203 79.9924 57.1826 77.9107 58.7174 76.3759L83.5907 51.5025Z" fill="#FFE2A6"/>
<path fill-rule="evenodd" clip-rule="evenodd" d="M89.3786 49.8043C87.3937 49.8043 85.4901 50.5928 84.0865 51.9964L59.2131 76.8697C57.8096 78.2733 57.0211 80.1769 57.0211 82.1618V360.102C57.0211 360.845 57.6237 361.448 58.3671 361.448H741.743C742.487 361.448 743.089 360.845 743.089 360.102V82.1618C743.089 80.1769 742.301 78.2733 740.897 76.8697L716.024 51.9964C714.62 50.5928 712.717 49.8043 710.732 49.8043H89.3786ZM83.0966 51.0064C84.7627 49.3403 87.0224 48.4043 89.3786 48.4043H710.732C713.088 48.4043 715.348 49.3403 717.014 51.0064L741.887 75.8798C743.553 77.5459 744.489 79.8056 744.489 82.1618V360.102C744.489 361.618 743.26 362.848 741.743 362.848H58.3671C56.8505 362.848 55.6211 361.618 55.6211 360.102V82.1618C55.6211 79.8056 56.5571 77.5459 58.2232 75.8798L83.0966 51.0064Z" fill="black"/>
<path d="M176.014 228.133C176.014 194.233 203.495 166.752 237.395 166.752H560.668C594.568 166.752 622.049 194.233 622.049 228.133V228.133C622.049 262.033 594.568 289.514 560.668 289.514H237.395C203.495 289.514 176.014 262.033 176.014 228.133V228.133Z" fill="#FFE2A6"/>
<path fill-rule="evenodd" clip-rule="evenodd" d="M175.314 228.134C175.314 193.847 203.109 166.053 237.396 166.053H560.669C594.956 166.053 622.75 193.847 622.75 228.134C622.75 262.42 594.956 290.215 560.669 290.215H237.396C203.109 290.215 175.314 262.42 175.314 228.134ZM237.396 167.453C203.882 167.453 176.714 194.621 176.714 228.134C176.714 261.647 203.882 288.815 237.396 288.815H560.669C594.182 288.815 621.35 261.647 621.35 228.134C621.35 194.621 594.182 167.453 560.669 167.453H237.396Z" fill="black"/>
<path d="M154.166 387.032C154.975 383.258 158.309 380.562 162.169 380.562H635.893C639.752 380.562 643.087 383.258 643.895 387.032L667.061 495.141H131L154.166 387.032Z" fill="#FFE2A6"/>
<path fill-rule="evenodd" clip-rule="evenodd" d="M153.482 386.886C154.36 382.79 157.98 379.863 162.169 379.863H635.893C640.083 379.863 643.703 382.79 644.58 386.886L667.928 495.841H130.135L153.482 386.886ZM162.169 381.263C158.64 381.263 155.591 383.729 154.851 387.179L131.867 494.441H666.196L643.211 387.179C642.472 383.729 639.422 381.263 635.893 381.263H162.169Z" fill="black"/>
<path d="M182.152 228.134C182.152 197.624 206.885 172.891 237.395 172.891H560.669C591.179 172.891 615.912 197.624 615.912 228.134V228.134C615.912 258.643 591.179 283.377 560.669 283.377H237.395C206.885 283.377 182.152 258.643 182.152 228.134V228.134Z" fill="#FFE2A6"/>
<path fill-rule="evenodd" clip-rule="evenodd" d="M181.451 228.132C181.451 197.236 206.498 172.189 237.394 172.189H560.668C591.564 172.189 616.611 197.236 616.611 228.132C616.611 259.029 591.564 284.075 560.668 284.075H237.394C206.498 284.075 181.451 259.029 181.451 228.132ZM237.394 173.589C207.271 173.589 182.851 198.009 182.851 228.132C182.851 258.256 207.271 282.675 237.394 282.675H560.668C590.791 282.675 615.211 258.256 615.211 228.132C615.211 198.009 590.791 173.589 560.668 173.589H237.394Z" fill="black"/>
<path d="M318.213 188.235C318.213 186.54 319.587 185.166 321.282 185.166H476.781C478.476 185.166 479.85 186.54 479.85 188.235V232.225C479.85 233.92 478.476 235.294 476.781 235.294H321.282C319.587 235.294 318.213 233.92 318.213 232.225V188.235Z" fill="#FFE2A6"/>
<path fill-rule="evenodd" clip-rule="evenodd" d="M317.514 188.236C317.514 186.154 319.201 184.467 321.283 184.467H476.781C478.863 184.467 480.551 186.154 480.551 188.236V232.226C480.551 234.307 478.863 235.995 476.781 235.995H321.283C319.201 235.995 317.514 234.307 317.514 232.226V188.236ZM321.283 185.867C319.974 185.867 318.914 186.927 318.914 188.236V232.226C318.914 233.534 319.974 234.595 321.283 234.595H476.781C478.09 234.595 479.151 233.534 479.151 232.226V188.236C479.151 186.927 478.09 185.867 476.781 185.867H321.283Z" fill="black"/>
<path d="M784.709 320.205L-nan -nanC-nan -nan -nan -nan -nan -nanL784.709 320.205C-nan -nan -nan -nan 791.87 327.366V327.366V447.059C791.87 451.014 788.664 454.22 784.709 454.22C-nan -nan -nan -nan 784.709 454.22L-nan -nanC-nan -nan -nan -nan -nan -nanL784.709 454.22V320.205Z" fill="#FFE2A6"/>
<path fill-rule="evenodd" clip-rule="evenodd" d="M785.41 320.941V453.482C788.649 453.133 791.171 450.39 791.171 447.058V327.365C791.171 324.033 788.649 321.29 785.41 320.941ZM784.71 454.219V454.919C789.051 454.919 792.571 451.4 792.571 447.058V327.365C792.571 323.023 789.051 319.504 784.71 319.504V320.204H784.01V454.219H784.71Z" fill="black"/>
<path d="M8.23828 327.366V327.366C-nan -nan -nan -nan 15.3994 320.205L-nan -nanC-nan -nan -nan -nan -nan -nanL15.3994 320.205V454.22L-nan -nanC-nan -nan -nan -nan -nan -nanL15.3994 454.22C-nan -nan -nan -nan 8.23828 447.059V447.059V327.366Z" fill="#FFE2A6"/>
<path fill-rule="evenodd" clip-rule="evenodd" d="M7.53906 327.365C7.53906 323.023 11.0586 319.504 15.4002 319.504V320.204H16.1002V454.219H15.4002V454.919C11.0586 454.919 7.53906 451.4 7.53906 447.058V327.365ZM14.7002 453.482V320.941C11.461 321.29 8.93906 324.033 8.93906 327.365V447.058C8.93906 450.39 11.461 453.133 14.7002 453.482Z" fill="black"/>
<path d="M286.499 228.132C286.499 255.252 264.514 277.237 237.394 277.237C210.274 277.237 188.289 255.252 188.289 228.132C188.289 201.012 210.274 179.027 237.394 179.027C264.514 179.027 286.499 201.012 286.499 228.132Z" fill="#FFE2A6"/>
<path fill-rule="evenodd" clip-rule="evenodd" d="M237.395 179.728C210.661 179.728 188.99 201.4 188.99 228.133C188.99 254.866 210.661 276.538 237.395 276.538C264.128 276.538 285.8 254.866 285.8 228.133C285.8 201.4 264.128 179.728 237.395 179.728ZM187.59 228.133C187.59 200.627 209.888 178.328 237.395 178.328C264.901 178.328 287.2 200.627 287.2 228.133C287.2 255.639 264.901 277.938 237.395 277.938C209.888 277.938 187.59 255.639 187.59 228.133Z" fill="black"/>
<path fill-rule="evenodd" clip-rule="evenodd" d="M336.373 235.294C336.541 232.929 336.627 230.541 336.627 228.133C336.627 212.741 333.123 198.167 326.868 185.166H321.282C319.587 185.166 318.213 186.54 318.213 188.235V232.225C318.213 233.92 319.587 235.294 321.282 235.294H336.373Z" fill="#FFE2A6"/>
<path fill-rule="evenodd" clip-rule="evenodd" d="M317.514 188.236C317.514 186.154 319.201 184.467 321.283 184.467H327.309L327.5 184.863C333.799 197.957 337.328 212.634 337.328 228.134C337.328 230.558 337.242 232.963 337.072 235.344L337.025 235.995H321.283C319.201 235.995 317.514 234.307 317.514 232.226V188.236ZM321.283 185.867C319.974 185.867 318.914 186.927 318.914 188.236V232.226C318.914 233.534 319.974 234.595 321.283 234.595H335.72C335.858 232.459 335.928 230.304 335.928 228.134C335.928 213.005 332.519 198.675 326.428 185.867H321.283Z" fill="black"/>
<path d="M609.774 228.132C609.774 255.252 587.789 277.237 560.669 277.237C533.549 277.237 511.564 255.252 511.564 228.132C511.564 201.012 533.549 179.027 560.669 179.027C587.789 179.027 609.774 201.012 609.774 228.132Z" fill="#FFE2A6"/>
<path fill-rule="evenodd" clip-rule="evenodd" d="M560.668 179.728C533.935 179.728 512.263 201.4 512.263 228.133C512.263 254.866 533.935 276.538 560.668 276.538C587.401 276.538 609.073 254.866 609.073 228.133C609.073 201.4 587.401 179.728 560.668 179.728ZM510.863 228.133C510.863 200.627 533.162 178.328 560.668 178.328C588.175 178.328 610.473 200.627 610.473 228.133C610.473 255.639 588.175 277.938 560.668 277.938C533.162 277.938 510.863 255.639 510.863 228.133Z" fill="black"/>
<path fill-rule="evenodd" clip-rule="evenodd" d="M381.781 235.294C381.688 232.918 381.641 230.531 381.641 228.133C381.641 213.322 383.439 198.931 386.83 185.166H476.781C478.476 185.166 479.85 186.54 479.85 188.235V232.225C479.85 233.92 478.476 235.294 476.781 235.294H381.781Z" fill="#FFE2A6"/>
<path fill-rule="evenodd" clip-rule="evenodd" d="M386.28 184.467H476.78C478.862 184.467 480.549 186.154 480.549 188.236V232.226C480.549 234.307 478.862 235.995 476.78 235.995H381.107L381.081 235.322C380.987 232.938 380.939 230.541 380.939 228.134C380.939 213.266 382.745 198.818 386.149 184.999L386.28 184.467ZM387.378 185.867C384.085 199.415 382.339 213.57 382.339 228.134C382.339 230.296 382.378 232.45 382.454 234.595H476.78C478.089 234.595 479.149 233.534 479.149 232.226V188.236C479.149 186.927 478.089 185.867 476.78 185.867H387.378Z" fill="black"/>
<path fill-rule="evenodd" clip-rule="evenodd" d="M560.668 271.1C584.398 271.1 603.635 251.863 603.635 228.133C603.635 204.403 584.398 185.166 560.668 185.166C536.938 185.166 517.701 204.403 517.701 228.133C517.701 251.863 536.938 271.1 560.668 271.1ZM593.029 240.91C594.592 236.954 595.451 232.644 595.451 228.133C595.451 223.622 594.592 219.311 593.029 215.356L584.488 220.286L579.373 211.427L587.907 206.5C582.538 199.749 574.713 195.04 565.783 193.724V203.58H555.553V193.724C546.623 195.04 538.798 199.749 533.429 206.5L541.962 211.427L536.847 220.286L528.307 215.356C526.744 219.311 525.885 223.622 525.885 228.133C525.885 232.644 526.744 236.954 528.307 240.91L536.847 235.979L541.962 244.839L533.429 249.765C538.798 256.516 546.623 261.226 555.553 262.542V252.685H565.783V262.542C574.713 261.226 582.538 256.516 587.907 249.765L579.373 244.839L584.488 235.979L593.029 240.91Z" fill="#FFE2A6"/>
<path fill-rule="evenodd" clip-rule="evenodd" d="M560.669 185.867C537.325 185.867 518.402 204.79 518.402 228.134C518.402 251.477 537.325 270.4 560.669 270.4C584.012 270.4 602.935 251.477 602.935 228.134C602.935 204.79 584.012 185.867 560.669 185.867ZM517.002 228.134C517.002 204.017 536.552 184.467 560.669 184.467C584.785 184.467 604.335 204.017 604.335 228.134C604.335 252.25 584.785 271.8 560.669 271.8C536.552 271.8 517.002 252.25 517.002 228.134ZM565.084 192.914L565.886 193.032C574.997 194.375 582.98 199.18 588.455 206.065L588.961 206.701L580.33 211.684L584.745 219.331L593.382 214.344L593.68 215.099C595.275 219.135 596.151 223.533 596.151 228.134C596.151 232.734 595.275 237.132 593.68 241.168L593.382 241.923L584.745 236.936L580.33 244.583L588.961 249.566L588.455 250.202C582.98 257.087 574.997 261.892 565.886 263.235L565.084 263.353V253.386H556.254V263.353L555.452 263.235C546.34 261.892 538.358 257.087 532.882 250.202L532.376 249.566L541.007 244.583L536.592 236.936L527.955 241.923L527.657 241.168C526.062 237.132 525.186 232.734 525.186 228.134C525.186 223.533 526.062 219.135 527.657 215.099L527.955 214.344L536.592 219.331L541.007 211.684L532.376 206.701L532.882 206.065C538.358 199.18 546.34 194.375 555.452 193.032L556.254 192.914V202.881H565.084V192.914ZM566.484 194.545V204.281H554.854V194.545C546.718 195.943 539.567 200.226 534.492 206.306L542.919 211.171L537.104 221.243L528.669 216.373C527.322 220.038 526.586 223.999 526.586 228.134C526.586 232.268 527.322 236.229 528.669 239.894L537.104 235.024L542.919 245.096L534.492 249.961C539.567 256.041 546.718 260.324 554.854 261.722V251.986H566.484V261.722C574.62 260.324 581.771 256.041 586.846 249.961L578.418 245.096L584.233 235.024L592.668 239.894C594.015 236.229 594.751 232.268 594.751 228.134C594.751 223.999 594.015 220.038 592.668 216.373L584.233 221.243L578.418 211.171L586.846 206.306C581.771 200.226 574.62 195.943 566.484 194.545Z" fill="black"/>
<path fill-rule="evenodd" clip-rule="evenodd" d="M237.394 271.1C261.124 271.1 280.361 251.863 280.361 228.133C280.361 204.403 261.124 185.166 237.394 185.166C213.665 185.166 194.428 204.403 194.428 228.133C194.428 251.863 213.665 271.1 237.394 271.1ZM269.755 240.91C271.318 236.954 272.177 232.644 272.177 228.133C272.177 223.622 271.318 219.311 269.755 215.356L261.215 220.286L256.1 211.427L264.633 206.5C259.265 199.749 251.439 195.04 242.51 193.724V203.58H232.279V193.724C223.35 195.04 215.524 199.749 210.156 206.5L218.689 211.427L213.574 220.286L205.034 215.356C203.471 219.311 202.612 223.622 202.612 228.133C202.612 232.644 203.471 236.954 205.034 240.91L213.574 235.979L218.689 244.839L210.156 249.765C215.524 256.516 223.35 261.226 232.279 262.542V252.685H242.51V262.542C251.439 261.226 259.265 256.516 264.633 249.765L256.1 244.839L261.215 235.979L269.755 240.91Z" fill="#FFE2A6"/>
<path fill-rule="evenodd" clip-rule="evenodd" d="M237.395 185.867C214.052 185.867 195.129 204.79 195.129 228.134C195.129 251.477 214.052 270.4 237.395 270.4C260.739 270.4 279.662 251.477 279.662 228.134C279.662 204.79 260.739 185.867 237.395 185.867ZM193.729 228.134C193.729 204.017 213.279 184.467 237.395 184.467C261.512 184.467 281.062 204.017 281.062 228.134C281.062 252.25 261.512 271.8 237.395 271.8C213.279 271.8 193.729 252.25 193.729 228.134ZM241.81 192.914L242.612 193.032C251.724 194.375 259.706 199.18 265.182 206.065L265.688 206.701L257.057 211.684L261.472 219.331L270.109 214.344L270.407 215.099C272.002 219.135 272.878 223.533 272.878 228.134C272.878 232.734 272.002 237.132 270.407 241.168L270.109 241.923L261.472 236.936L257.057 244.583L265.688 249.566L265.182 250.202C259.706 257.087 251.724 261.892 242.612 263.235L241.81 263.353V253.386H232.98V263.353L232.178 263.235C223.067 261.892 215.084 257.087 209.609 250.202L209.103 249.566L217.734 244.583L213.318 236.936L204.682 241.923L204.383 241.168C202.789 237.132 201.913 232.734 201.913 228.134C201.913 223.533 202.789 219.135 204.383 215.099L204.682 214.344L213.318 219.331L217.734 211.684L209.103 206.701L209.609 206.065C215.084 199.18 223.067 194.375 232.178 193.032L232.98 192.914V202.881H241.81V192.914ZM243.21 194.545V204.281H231.58V194.545C223.444 195.943 216.293 200.226 211.218 206.306L219.646 211.171L213.831 221.243L205.396 216.373C204.048 220.038 203.313 223.999 203.313 228.134C203.313 232.268 204.048 236.229 205.396 239.894L213.831 235.024L219.646 245.096L211.218 249.961C216.293 256.041 223.444 260.324 231.58 261.722V251.986H243.21V261.722C251.346 260.324 258.497 256.041 263.572 249.961L255.145 245.096L260.96 235.024L269.395 239.894C270.742 236.229 271.478 232.268 271.478 228.134C271.478 223.999 270.742 220.038 269.395 216.373L260.96 221.243L255.145 211.171L263.572 206.306C258.497 200.226 251.346 195.943 243.21 194.545Z" fill="black"/>
<path d="M234.327 469.565C234.327 479.735 226.082 487.979 215.912 487.979C205.742 487.979 197.498 479.735 197.498 469.565C197.498 459.395 205.742 451.15 215.912 451.15C226.082 451.15 234.327 459.395 234.327 469.565Z" fill="#FFE2A6"/>
<path fill-rule="evenodd" clip-rule="evenodd" d="M215.912 486.579C225.309 486.579 232.927 478.961 232.927 469.565C232.927 460.168 225.309 452.55 215.912 452.55C206.516 452.55 198.898 460.168 198.898 469.565C198.898 478.961 206.516 486.579 215.912 486.579ZM215.912 487.979C226.082 487.979 234.327 479.735 234.327 469.565C234.327 459.395 226.082 451.15 215.912 451.15C205.742 451.15 197.498 459.395 197.498 469.565C197.498 479.735 205.742 487.979 215.912 487.979Z" fill="black"/>
<path d="M602.612 469.565C602.612 479.735 594.367 487.979 584.198 487.979C574.028 487.979 565.783 479.735 565.783 469.565C565.783 459.395 574.028 451.15 584.198 451.15C594.367 451.15 602.612 459.395 602.612 469.565Z" fill="#FFE2A6"/>
<path fill-rule="evenodd" clip-rule="evenodd" d="M584.198 486.579C593.594 486.579 601.212 478.961 601.212 469.565C601.212 460.168 593.594 452.55 584.198 452.55C574.801 452.55 567.183 460.168 567.183 469.565C567.183 478.961 574.801 486.579 584.198 486.579ZM584.198 487.979C594.367 487.979 602.612 479.735 602.612 469.565C602.612 459.395 594.367 451.15 584.198 451.15C574.028 451.15 565.783 459.395 565.783 469.565C565.783 479.735 574.028 487.979 584.198 487.979Z" fill="black"/>
<path d="M275.246 455.244C275.246 449.594 279.826 445.014 285.476 445.014H297.753C303.402 445.014 307.983 449.594 307.983 455.244V463.428C307.983 469.078 303.402 473.658 297.753 473.658H285.476C279.826 473.658 275.246 469.078 275.246 463.428V455.244Z" fill="#FFE2A6"/>
<path fill-rule="evenodd" clip-rule="evenodd" d="M297.753 446.414H285.476C280.6 446.414 276.646 450.367 276.646 455.244V463.428C276.646 468.305 280.6 472.258 285.476 472.258H297.753C302.629 472.258 306.583 468.305 306.583 463.428V455.244C306.583 450.367 302.629 446.414 297.753 446.414ZM285.476 445.014C279.826 445.014 275.246 449.594 275.246 455.244V463.428C275.246 469.078 279.826 473.658 285.476 473.658H297.753C303.402 473.658 307.983 469.078 307.983 463.428V455.244C307.983 449.594 303.402 445.014 297.753 445.014H285.476Z" fill="black"/>
<path d="M492.127 455.244C492.127 449.594 496.707 445.014 502.357 445.014H514.633C520.283 445.014 524.864 449.594 524.864 455.244V463.428C524.864 469.078 520.283 473.658 514.633 473.658H502.357C496.707 473.658 492.127 469.078 492.127 463.428V455.244Z" fill="#FFE2A6"/>
<path fill-rule="evenodd" clip-rule="evenodd" d="M514.633 446.414H502.357C497.48 446.414 493.527 450.367 493.527 455.244V463.428C493.527 468.305 497.48 472.258 502.357 472.258H514.633C519.51 472.258 523.464 468.305 523.464 463.428V455.244C523.464 450.367 519.51 446.414 514.633 446.414ZM502.357 445.014C496.707 445.014 492.127 449.594 492.127 455.244V463.428C492.127 469.078 496.707 473.658 502.357 473.658H514.633C520.283 473.658 524.864 469.078 524.864 463.428V455.244C524.864 449.594 520.283 445.014 514.633 445.014H502.357Z" fill="black"/>
<path fill-rule="evenodd" clip-rule="evenodd" d="M183.068 59.9878C185.532 59.3634 188.037 60.8552 188.661 63.3198C188.959 64.4968 189.265 66.4206 189.588 68.4548C189.725 69.3207 189.866 70.2066 190.011 71.0634C190.542 74.2106 191.209 77.5912 192.153 80.5161C193.153 83.614 194.224 85.4125 195.091 86.151C195.412 86.4247 195.572 86.4389 195.647 86.4437C195.765 86.4513 196.253 86.448 197.232 85.8996C198.716 85.0682 199.895 83.155 200.537 79.5526C201.094 76.4268 201.084 73.0171 201.074 69.8337C201.073 69.4242 201.072 69.0184 201.072 68.6175C201.072 66.075 203.133 64.0139 205.675 64.0139C208.218 64.0139 210.279 66.075 210.279 68.6175C210.279 68.9772 210.281 69.3606 210.283 69.7644C210.297 72.8619 210.316 77.1587 209.602 81.1679C208.807 85.6253 206.889 91.0429 201.732 93.9321C199.634 95.1077 197.383 95.7816 195.056 95.6319C192.687 95.4795 190.697 94.5019 189.122 93.1616C186.198 90.6721 184.491 86.7536 183.391 83.3433C182.235 79.7601 181.48 75.8414 180.932 72.5963C180.716 71.3137 180.539 70.1947 180.386 69.232C180.12 67.5504 179.93 66.3459 179.736 65.581C179.111 63.1163 180.603 60.6122 183.068 59.9878Z" fill="black"/>
<path fill-rule="evenodd" clip-rule="evenodd" d="M220.816 61.9251C223.34 61.6167 225.636 63.4125 225.944 65.9362C226.219 68.1883 225.951 70.8137 225.666 73.0892C225.56 73.9345 225.449 74.7519 225.34 75.5555C225.124 77.1426 224.915 78.6759 224.769 80.264C224.554 82.6145 224.539 84.5615 224.812 86.0732C225.061 87.4546 225.478 88.0918 225.844 88.4201C225.918 88.4413 226.092 88.4791 226.411 88.4878C227.078 88.5061 228.009 88.382 229.154 88.0763C231.45 87.4633 233.803 86.3406 235.059 85.6007C237.249 84.3101 240.071 85.0397 241.362 87.2303C242.652 89.4209 241.923 92.2429 239.732 93.5335C237.918 94.6021 234.794 96.1002 231.529 96.9719C229.894 97.4085 228.024 97.7426 226.159 97.6915C224.313 97.641 222.065 97.1976 220.153 95.6613C217.448 93.4883 216.252 90.484 215.751 87.708C215.257 84.9675 215.361 82.0406 215.601 79.4238C215.764 77.6376 216.021 75.7466 216.251 74.051C216.353 73.3022 216.449 72.5915 216.53 71.9448C216.825 69.5945 216.924 68.0289 216.805 67.0531C216.496 64.5294 218.292 62.2335 220.816 61.9251Z" fill="black"/>
<path fill-rule="evenodd" clip-rule="evenodd" d="M251.047 67.3295C253.411 66.3948 256.086 67.5537 257.021 69.9181C260.03 77.5291 261.435 84.9552 261.435 93.0941C261.435 95.6365 259.374 97.6976 256.832 97.6976C254.289 97.6976 252.228 95.6365 252.228 93.0941C252.228 86.1103 251.04 79.8329 248.458 73.3032C247.524 70.9388 248.683 68.2643 251.047 67.3295Z" fill="black"/>
<path fill-rule="evenodd" clip-rule="evenodd" d="M252.953 70.8613C247.181 72.1591 241.343 74.5997 239.784 75.546C237.61 76.8651 234.779 76.1724 233.46 73.9989C232.141 71.8254 232.833 68.9941 235.007 67.675C237.661 66.064 244.51 63.3226 250.933 61.8784C254.151 61.155 257.71 60.649 260.812 60.9651C263.758 61.2653 268.004 62.567 269.411 67.078C270.169 69.505 268.815 72.0865 266.388 72.8439C264.12 73.5517 261.717 72.4161 260.794 70.2838C260.619 70.2323 260.33 70.1709 259.878 70.1248C258.249 69.9588 255.833 70.2138 252.953 70.8613ZM261.026 70.383C261.021 70.3857 260.986 70.3716 260.937 70.3328C261.007 70.3609 261.031 70.3804 261.026 70.383Z" fill="black"/>
<path fill-rule="evenodd" clip-rule="evenodd" d="M280.853 65.2308C283.246 64.372 285.882 65.6157 286.741 68.0088C288.378 72.5716 289.257 77.5091 290.052 81.9739C290.369 83.7511 290.672 85.4533 291.004 87.0272C291.529 89.5149 289.938 91.9573 287.451 92.4824C284.963 93.0076 282.52 91.4167 281.995 88.929C281.53 86.7252 281.167 84.6735 280.82 82.7165C280.093 78.6119 279.44 74.9234 278.075 71.1189C277.216 68.7258 278.459 66.0897 280.853 65.2308Z" fill="black"/>
<path fill-rule="evenodd" clip-rule="evenodd" d="M314.055 76.5356C312.977 84.9296 312.609 93.9743 312.585 95.2283C312.537 97.7703 310.436 99.7915 307.894 99.7428C305.352 99.6941 303.331 97.5939 303.38 95.0519C303.408 93.5602 303.792 84.1701 304.923 75.3626C305.483 71.007 306.26 66.5004 307.367 63.1308C307.898 61.515 308.653 59.6821 309.818 58.2736C310.426 57.5392 311.343 56.677 312.644 56.1689C314.064 55.6145 315.582 55.6253 316.975 56.1432C320.199 57.3416 321.769 60.411 322.564 62.1856C323.127 63.441 323.71 65.0896 324.2 66.4759C324.435 67.1398 324.649 67.7435 324.828 68.2151C325.296 69.4418 325.67 70.1971 325.939 70.6408C326.317 70.305 326.813 69.8362 327.409 69.2516C328.656 68.028 330.192 66.443 331.706 64.8507C333.215 63.2651 334.674 61.701 335.762 60.53C336.196 60.063 336.569 59.6604 336.863 59.3426C336.938 59.2619 337.007 59.1866 337.072 59.1172C337.229 58.9478 337.358 58.8083 337.449 58.7106C337.493 58.6636 337.538 58.6153 337.576 58.575C337.592 58.5586 337.627 58.5222 337.667 58.482L337.667 58.4812C337.682 58.4668 337.736 58.4119 337.806 58.3463L337.808 58.3449C337.834 58.3208 337.938 58.2237 338.079 58.1115C338.169 58.0419 338.435 57.8551 338.615 57.7436C339.072 57.5086 341.408 57.1328 343.188 57.6924C344.813 58.5986 345.535 60.0767 345.84 60.8223C346.197 61.693 346.397 62.6078 346.523 63.3841C346.78 64.9566 346.859 66.7827 346.88 68.4209C346.899 69.9513 346.869 71.5035 346.844 72.7751C346.842 72.8926 346.84 73.0077 346.838 73.1202C346.825 73.8029 346.815 74.3722 346.815 74.8319C346.816 75.3082 346.828 75.5012 346.829 75.5224C346.829 75.5239 346.829 75.5246 346.829 75.5243C347.259 79.4089 347.369 83.1762 347.369 86.926C347.369 89.4685 345.308 91.5296 342.765 91.5296C340.223 91.5296 338.161 89.4685 338.161 86.926C338.161 83.3452 338.056 79.9512 337.678 76.5374C337.58 75.6518 337.607 74.2465 337.629 73.0896C337.63 73.0406 337.631 72.992 337.632 72.944C337.634 72.8344 337.636 72.724 337.639 72.6127C337.643 72.3972 337.647 72.1787 337.651 71.9576C336.339 73.3287 335.005 74.6971 333.857 75.8234C333.181 76.4872 332.531 77.1041 331.969 77.5999L331.958 77.6088C331.574 77.948 330.738 78.685 329.844 79.1079C328.281 79.8481 326.541 80.2818 324.713 80.0755C322.842 79.8642 321.323 79.0319 320.165 77.9935C318.096 76.138 316.948 73.3914 316.225 71.4952C315.86 70.5378 315.575 69.7234 315.318 68.9865C314.837 71.1466 314.414 73.7416 314.055 76.5356ZM325.538 70.925C325.538 70.9249 325.54 70.9245 325.544 70.9239C325.54 70.9248 325.538 70.9251 325.538 70.925Z" fill="black"/>
<path fill-rule="evenodd" clip-rule="evenodd" d="M366.445 55.7564C368.987 55.8397 370.979 57.9671 370.896 60.5082C370.704 66.363 369.475 71.9148 368.334 76.9931C368.309 77.105 368.284 77.2167 368.259 77.3281C367.117 82.4041 366.084 86.9988 365.839 91.6782C365.825 91.9464 365.804 92.3397 365.767 92.6297C365.76 92.6848 365.744 92.7951 365.718 92.9302C365.718 92.9307 365.718 92.9317 365.718 92.9333C365.71 92.9766 365.628 93.4353 365.396 93.9524C365.322 94.1171 365.181 94.4072 364.949 94.7346C364.746 95.0207 364.264 95.6368 363.411 96.1054C362.395 96.6636 361.038 96.8955 359.668 96.4147C358.503 96.0058 357.834 95.2539 357.548 94.883C357.023 94.2028 356.826 93.5384 356.785 93.4026C356.784 93.3983 356.783 93.3945 356.782 93.3912C356.712 93.1567 356.675 92.9659 356.658 92.8733C356.605 92.5745 356.592 92.3178 356.59 92.2808L356.59 92.2771C356.585 92.19 356.582 92.1112 356.581 92.0562C356.571 91.6921 356.578 90.9903 356.586 90.3212C356.596 89.5396 356.61 88.701 356.621 88.0335C356.631 87.42 356.638 86.951 356.638 86.804C356.638 85.8374 356.936 84.9403 357.445 84.1996C357.944 81.2229 358.593 78.34 359.212 75.5895C359.259 75.3835 359.305 75.1783 359.351 74.9738C360.511 69.8136 361.534 65.0697 361.694 60.2068C361.777 57.6657 363.904 55.6732 366.445 55.7564ZM365.785 91.8204C365.785 91.8135 365.785 91.806 365.784 91.7977C365.789 91.8822 365.787 91.9038 365.785 91.8204Z" fill="black"/>
<path fill-rule="evenodd" clip-rule="evenodd" d="M369.988 67.2926C369.204 66.9944 368.129 66.8411 366.462 67.2877C364.006 67.9456 361.482 66.488 360.824 64.0321C360.166 61.5762 361.624 59.052 364.08 58.3941C367.399 57.505 370.469 57.6254 373.26 58.6866C375.971 59.7174 378.053 61.4975 379.688 63.3143C381.303 65.1077 382.681 67.1672 383.857 68.9461C383.947 69.0828 384.036 69.2179 384.124 69.3514C385.252 71.0593 386.208 72.5087 387.238 73.7572C390.319 77.4956 392.29 81.0221 393.311 86.0382C393.818 88.5295 392.21 90.9604 389.719 91.4677C387.227 91.975 384.796 90.3666 384.289 87.8752C383.63 84.6364 382.472 82.4515 380.133 79.6131C378.775 77.9658 377.551 76.1085 376.485 74.4914C376.38 74.3324 376.277 74.1758 376.175 74.022C374.969 72.196 373.938 70.6879 372.846 69.4752C371.775 68.2858 370.852 67.6211 369.988 67.2926Z" fill="black"/>
<path fill-rule="evenodd" clip-rule="evenodd" d="M404.563 71.7055C405.075 74.1957 403.472 76.6301 400.982 77.1428C387.053 80.0104 373.093 82.8582 358.588 84.3736C356.059 84.6378 353.795 82.802 353.531 80.2733C353.267 77.7446 355.103 75.4805 357.631 75.2163C371.615 73.7553 385.146 71.003 399.125 68.1248C401.615 67.6121 404.05 69.2152 404.563 71.7055Z" fill="black"/>
<path fill-rule="evenodd" clip-rule="evenodd" d="M415.781 67.0149C418.319 66.8755 420.49 68.8206 420.63 71.3592C421.08 79.5573 421.456 89.3798 419.932 97.9892C419.489 100.493 417.101 102.163 414.597 101.72C412.093 101.277 410.423 98.8883 410.866 96.3847C412.18 88.9583 411.89 80.1342 411.436 71.8638C411.297 69.3251 413.242 67.1542 415.781 67.0149Z" fill="black"/>
<path fill-rule="evenodd" clip-rule="evenodd" d="M434.837 71.0997C421.328 71.0997 409.628 71.4862 397.553 75.9314C395.167 76.8097 392.52 75.5876 391.642 73.2016C390.764 70.8157 391.986 68.1695 394.372 67.2911C408.123 62.2288 421.287 61.8926 434.837 61.8926C437.379 61.8926 439.441 63.9537 439.441 66.4962C439.441 69.0386 437.379 71.0997 434.837 71.0997Z" fill="black"/>
<path fill-rule="evenodd" clip-rule="evenodd" d="M451.871 61.9066C454.406 61.7101 456.62 63.6058 456.816 66.1407C457.423 73.9677 456.846 80.7377 455.995 88.1109C455.886 89.0519 455.818 89.7825 455.809 90.4009C455.804 90.7656 455.821 91.0201 455.843 91.1902C455.877 91.1995 455.915 91.2091 455.957 91.219C459.417 92.0265 463.666 91.282 468.491 90.4367C468.602 90.4172 468.713 90.3977 468.825 90.3781C471.329 89.9397 473.715 91.6145 474.153 94.1189C474.592 96.6233 472.917 99.0089 470.413 99.4473C470.112 99.5 469.8 99.5555 469.479 99.6128C465.23 100.37 459.235 101.439 453.864 100.185C452.256 99.8098 450.731 99.119 449.472 97.9652C448.194 96.7954 447.452 95.3897 447.05 94.0102C446.33 91.5425 446.645 88.8184 446.848 87.0573L446.848 87.0553C447.68 79.8452 448.174 73.7796 447.637 66.8521C447.44 64.3172 449.336 62.103 451.871 61.9066ZM455.593 91.1006C455.593 91.1005 455.595 91.1018 455.6 91.1046C455.595 91.102 455.593 91.1007 455.593 91.1006Z" fill="black"/>
<path fill-rule="evenodd" clip-rule="evenodd" d="M475.195 77.0674C475.571 79.5818 473.838 81.9253 471.324 82.3016C464.151 83.375 456.967 84.3972 449.782 85.379C447.263 85.7232 444.942 83.9601 444.598 81.4411C444.253 78.922 446.016 76.6008 448.536 76.2566C455.687 75.2794 462.832 74.2627 469.961 73.1959C472.475 72.8195 474.819 74.5529 475.195 77.0674Z" fill="black"/>
<path fill-rule="evenodd" clip-rule="evenodd" d="M472.908 69.8942C463.328 68.1952 455.444 68.9041 447.364 73.5552C445.16 74.8237 442.346 74.0657 441.078 71.8622C439.809 69.6587 440.567 66.8442 442.771 65.5758C453.19 59.578 463.4 58.8571 474.516 60.8285C477.019 61.2725 478.689 63.6618 478.245 66.1652C477.801 68.6686 475.411 70.3381 472.908 69.8942Z" fill="black"/>
<path fill-rule="evenodd" clip-rule="evenodd" d="M225.287 318.225C225.815 320.712 224.227 323.156 221.74 323.684C218.506 324.371 213.552 326.364 210.502 328.952C208.982 330.241 208.414 331.271 208.278 331.9C208.202 332.247 208.106 333.029 209.36 334.493C211.514 337.008 214.677 338.345 218.759 338.869C222.889 339.399 227.426 339.031 231.793 338.567C234.321 338.299 236.589 340.131 236.857 342.659C237.125 345.188 235.293 347.455 232.765 347.723C228.408 348.186 222.901 348.684 217.586 348.001C212.224 347.312 206.542 345.357 202.367 340.481C199.636 337.293 198.476 333.658 199.279 329.95C200.022 326.522 202.276 323.856 204.545 321.931C209.073 318.09 215.564 315.583 219.828 314.678C222.315 314.149 224.759 315.737 225.287 318.225Z" fill="black"/>
<path fill-rule="evenodd" clip-rule="evenodd" d="M248.898 318.532C251.949 315.925 255.889 315.394 260.013 315.665C264.254 315.944 268.77 317.462 272.341 320.259C275.991 323.119 278.757 327.435 278.825 332.991C278.93 341.517 271.164 346.903 264.521 347.265C259.36 347.546 254.332 346.681 250.835 343.327C248.106 340.709 246.971 337.233 246.869 333.447C244.922 332.634 243.729 330.554 244.115 328.39C244.763 324.768 245.939 321.062 248.898 318.532ZM254.235 326.408C255.629 327.355 256.45 329.037 256.213 330.822C255.716 334.583 256.56 336.06 257.209 336.682C257.991 337.433 259.868 338.298 264.02 338.071C267.223 337.897 269.646 335.332 269.619 333.105C269.591 330.824 268.53 328.97 266.662 327.507C264.715 325.982 262.024 325.024 259.41 324.852C256.229 324.644 255.237 325.226 254.881 325.53C254.699 325.686 254.474 325.946 254.235 326.408Z" fill="black"/>
<path fill-rule="evenodd" clip-rule="evenodd" d="M291.151 314.829C293.555 315.657 294.832 318.277 294.003 320.681C293.799 321.274 293.563 321.927 293.31 322.627C292.241 325.586 290.87 329.379 290.309 333.004C289.964 335.234 290.036 336.825 290.348 337.798C290.568 338.481 290.834 338.779 291.556 338.999C292.485 339.282 293.942 339.139 296.748 338.367C297.091 338.272 297.466 338.164 297.866 338.048C300.099 337.403 303.131 336.527 305.937 336.527C308.48 336.527 310.541 338.588 310.541 341.131C310.541 343.673 308.48 345.734 305.937 345.734C304.548 345.734 303.034 346.162 300.784 346.798C300.29 346.937 299.762 347.087 299.192 347.244C296.568 347.966 292.665 348.96 288.877 347.808C284.981 346.623 282.631 343.877 281.582 340.614C280.627 337.641 280.779 334.383 281.21 331.596C281.927 326.967 283.716 322.05 284.77 319.154C284.98 318.577 285.161 318.079 285.299 317.681C286.127 315.277 288.747 314 291.151 314.829Z" fill="black"/>
<path fill-rule="evenodd" clip-rule="evenodd" d="M312.017 315.759C314.472 315.098 316.999 316.552 317.66 319.007C318.313 321.434 318.277 324.15 318.159 326.421C318.096 327.631 318.018 328.644 317.944 329.608C317.852 330.807 317.766 331.928 317.722 333.254C317.65 335.42 317.771 336.984 318.105 338.066C318.387 338.98 318.719 339.272 319.123 339.466C320.942 340.339 323.503 340.384 326.957 339.581C329.505 338.988 331.945 338.099 334.421 337.197C335.329 336.866 336.242 336.533 337.166 336.213C339.569 335.38 342.191 336.653 343.023 339.055C343.856 341.458 342.583 344.08 340.181 344.913C339.529 345.138 338.796 345.406 338.003 345.695C335.416 346.639 332.188 347.817 329.041 348.549C324.901 349.511 319.803 350.004 315.14 347.767C311.911 346.218 310.161 343.545 309.308 340.783C308.507 338.188 308.439 335.366 308.52 332.947C308.565 331.618 308.685 329.972 308.793 328.491C308.863 327.528 308.928 326.634 308.964 325.942C309.079 323.744 309.013 322.304 308.769 321.402C308.108 318.947 309.562 316.42 312.017 315.759Z" fill="black"/>
<path fill-rule="evenodd" clip-rule="evenodd" d="M341.043 314.462C343.084 312.947 345.968 313.373 347.484 315.414C352.12 321.659 353.016 328.305 353.282 334.913C353.286 335.011 353.29 335.105 353.294 335.198C353.33 336.113 353.357 336.786 353.419 337.399C353.484 338.048 353.57 338.4 353.644 338.601C353.701 338.757 353.748 338.819 353.807 338.879C353.885 338.959 354.118 339.166 354.704 339.431C356.72 340.342 359.67 340.419 363.049 339.505C366.377 338.605 369.468 336.912 371.425 335.177C373.328 333.491 376.238 333.667 377.924 335.57C379.61 337.474 379.434 340.383 377.531 342.069C374.407 344.836 370.014 347.159 365.453 348.393C360.943 349.613 355.598 349.94 350.911 347.82C347.966 346.489 345.997 344.495 344.998 341.767C344.245 339.711 344.161 337.406 344.1 335.73C344.094 335.576 344.088 335.427 344.083 335.284C343.838 329.219 343.043 324.878 340.091 320.903C338.576 318.862 339.002 315.978 341.043 314.462Z" fill="black"/>
<path fill-rule="evenodd" clip-rule="evenodd" d="M373.455 327.877C364.747 327.877 356.726 329.302 348.137 331.788C345.694 332.494 343.141 331.088 342.435 328.645C341.728 326.203 343.135 323.65 345.577 322.943C354.772 320.282 363.674 318.67 373.455 318.67C375.998 318.67 378.059 320.731 378.059 323.273C378.059 325.816 375.998 327.877 373.455 327.877Z" fill="black"/>
<path fill-rule="evenodd" clip-rule="evenodd" d="M376.276 316.994C364.538 316.358 353.861 316.522 342.176 317.626C339.644 317.865 337.399 316.007 337.159 313.476C336.92 310.944 338.778 308.699 341.309 308.459C353.476 307.31 364.61 307.142 376.774 307.8C379.313 307.938 381.259 310.107 381.122 312.646C380.985 315.185 378.815 317.131 376.276 316.994Z" fill="black"/>
<path fill-rule="evenodd" clip-rule="evenodd" d="M401.916 319.788C402.175 319.854 402.417 319.916 402.64 319.97C405.108 320.579 406.616 323.073 406.008 325.542C405.399 328.01 402.905 329.518 400.436 328.91C400.147 328.839 399.87 328.77 399.604 328.703C397.589 328.201 396.202 327.856 394.966 327.878C394.385 327.888 394.09 327.99 393.941 328.066C393.83 328.124 393.601 328.263 393.308 328.752C392.796 329.607 392.386 331.042 392.381 332.665C392.376 334.307 392.782 335.538 393.232 336.176C394.075 337.374 394.948 337.825 395.886 338.007C396.991 338.221 398.492 338.105 400.443 337.535C403.441 336.66 406.33 335.133 409.167 333.634C410.231 333.071 411.288 332.512 412.341 331.993C414.621 330.869 417.381 331.807 418.505 334.087C419.629 336.368 418.692 339.128 416.411 340.252C415.792 340.557 415.037 340.957 414.179 341.412C411.21 342.985 407.017 345.207 403.024 346.373C400.34 347.157 397.237 347.648 394.133 347.045C390.861 346.411 387.919 344.622 385.705 341.478C383.834 338.822 383.164 335.538 383.174 332.635C383.183 329.715 383.879 326.577 385.409 324.022C386.508 322.187 387.962 320.79 389.725 319.881C391.451 318.992 393.224 318.7 394.805 318.672C397.368 318.627 400.072 319.317 401.916 319.788Z" fill="black"/>
<path fill-rule="evenodd" clip-rule="evenodd" d="M433.587 312.539C436.126 312.393 438.301 314.333 438.447 316.871C438.577 319.137 438.526 321.686 438.478 324.136C438.477 324.187 438.476 324.238 438.474 324.29C438.423 326.861 438.375 329.398 438.482 331.861C438.704 337.003 439.586 340.661 441.405 342.787C443.058 344.719 442.831 347.625 440.899 349.278C438.967 350.93 436.061 350.704 434.408 348.772C430.421 344.11 429.516 337.644 429.283 332.259C429.162 329.466 429.219 326.648 429.269 324.127L429.269 324.106C429.321 321.505 429.363 319.283 429.255 317.399C429.109 314.861 431.049 312.685 433.587 312.539Z" fill="black"/>
<path fill-rule="evenodd" clip-rule="evenodd" d="M429.995 317.294C427.61 317.413 425.202 317.534 422.765 317.642C420.225 317.755 418.074 315.787 417.962 313.247C417.849 310.707 419.817 308.557 422.357 308.444C424.677 308.341 427.009 308.223 429.349 308.105C442.092 307.46 455.105 306.802 468.159 308.477C470.681 308.801 472.463 311.107 472.14 313.629C471.816 316.151 469.509 317.933 466.988 317.609C454.82 316.048 442.75 316.654 429.995 317.294Z" fill="black"/>
<path fill-rule="evenodd" clip-rule="evenodd" d="M467.902 317.7C470.416 317.316 472.764 319.043 473.147 321.556C473.232 322.113 473.317 322.67 473.403 323.227C474.463 330.164 475.531 337.15 476.246 344.299C476.499 346.829 474.653 349.085 472.124 349.338C469.594 349.591 467.338 347.745 467.085 345.215C466.395 338.315 465.362 331.558 464.294 324.574C464.212 324.033 464.129 323.489 464.045 322.945C463.662 320.432 465.389 318.083 467.902 317.7Z" fill="black"/>
<path fill-rule="evenodd" clip-rule="evenodd" d="M466.043 293.867C468.158 292.457 471.016 293.029 472.427 295.144L476.519 301.282C477.929 303.398 477.357 306.256 475.242 307.666C473.126 309.077 470.268 308.505 468.858 306.39L464.766 300.251C463.356 298.136 463.927 295.278 466.043 293.867Z" fill="black"/>
<path fill-rule="evenodd" clip-rule="evenodd" d="M489.348 316.923C493.139 314.309 497.891 312.126 503.541 312.595C509.064 313.054 512.633 316.92 514.426 320.799C516.199 324.632 516.704 329.344 515.538 333.29C513.111 341.494 504.288 346.717 495.887 344.912C490.655 343.787 486.921 341.336 484.733 337.379C483.99 336.034 483.476 334.597 483.12 333.126C481.807 333.183 480.48 332.681 479.523 331.636C477.806 329.761 477.934 326.849 479.809 325.132C480.31 324.673 480.845 324.171 481.411 323.64C483.667 321.521 486.407 318.949 489.348 316.923ZM491.555 326.852C491.709 329.788 492.085 331.647 492.791 332.924C493.399 334.025 494.538 335.204 497.822 335.91C501.539 336.709 505.654 334.243 506.709 330.678C507.166 329.13 507.02 326.719 506.069 324.663C505.14 322.653 503.914 321.865 502.778 321.771C500.073 321.546 497.443 322.526 494.572 324.504C493.529 325.223 492.535 326.012 491.555 326.852Z" fill="black"/>
<path fill-rule="evenodd" clip-rule="evenodd" d="M573.649 299.318C574.201 300.179 574.711 301.216 575.141 302.336C577.099 307.43 576.755 313.03 575.498 317.954C574.23 322.922 571.922 327.657 569.363 331.336C565.501 336.889 560.639 341.539 554.694 342.348C548.262 343.223 542.777 339.417 538.387 333.237C538.048 332.759 537.715 332.105 537.525 331.733C537.271 331.233 536.968 330.612 536.643 329.94C536.579 329.809 536.515 329.676 536.45 329.541C536.42 329.725 536.391 329.905 536.363 330.08C536.331 330.282 536.299 330.484 536.267 330.684C536.089 331.803 535.922 332.851 535.824 333.285C535.558 334.464 534.537 337.695 533.728 340.153C533.305 341.437 532.895 342.649 532.605 343.452C532.491 343.767 532.311 344.262 532.135 344.63C532.134 344.63 532.133 344.632 532.132 344.634C532.109 344.685 531.917 345.095 531.591 345.517C531.487 345.651 531.277 345.91 530.96 346.185C530.717 346.396 529.971 347.011 528.793 347.233C527.229 347.528 525.644 346.995 524.577 345.857C523.773 344.999 523.53 344.083 523.456 343.775C523.297 343.11 523.328 342.558 523.335 342.442C523.335 342.438 523.335 342.435 523.336 342.432C523.347 342.231 523.368 342.069 523.381 341.981C523.407 341.799 523.44 341.641 523.461 341.546C524.208 338.095 525.013 334.842 525.797 331.671C527.191 326.039 528.52 320.665 529.35 314.897C529.712 312.38 532.046 310.634 534.562 310.996C536.222 311.235 537.546 312.331 538.152 313.771C538.506 314.1 538.777 314.429 538.954 314.657C539.406 315.238 539.838 315.935 540.211 316.575C540.981 317.898 541.855 319.611 542.666 321.256C543.251 322.439 543.836 323.657 544.353 324.731C544.558 325.158 544.753 325.562 544.932 325.932C545.254 326.599 545.523 327.148 545.731 327.558C545.877 327.845 545.951 327.977 545.968 328.01C549.46 332.883 551.993 333.424 553.453 333.225C555.411 332.959 558.311 331.102 561.804 326.079C563.787 323.228 565.604 319.491 566.577 315.676C567.297 312.856 567.499 310.229 567.154 307.973C565.911 307.463 564.902 306.416 564.488 305.028C564.121 303.796 563.801 302.434 563.831 301.203C563.842 300.756 563.897 299.22 565.038 297.87C565.734 297.048 566.747 296.411 567.973 296.22C569.097 296.045 570.026 296.302 570.599 296.538C571.651 296.971 572.343 297.672 572.653 298.009C573.044 298.433 573.376 298.892 573.649 299.318ZM538.477 319.402C538.485 319.384 538.484 319.389 538.474 319.411C538.475 319.408 538.476 319.405 538.477 319.402Z" fill="black"/>
<path fill-rule="evenodd" clip-rule="evenodd" d="M116.864 126.296C118.867 127.862 119.222 130.755 117.655 132.758C115.974 134.908 114.428 137.161 112.783 139.558C112.172 140.449 111.546 141.36 110.896 142.293C109.195 144.731 107.363 147.251 105.301 149.633C111.629 150.663 118.103 153.065 123.625 156.494C125.103 152.317 127.82 149.022 130.218 146.354C129.828 146.191 129.393 146.024 128.915 145.853C127.563 145.371 126.161 144.956 124.715 144.529C124.092 144.345 123.462 144.158 122.824 143.963C121.837 143.661 120.807 143.328 119.908 142.966C119.18 142.673 117.872 142.113 116.866 141.128C115.051 139.348 115.021 136.434 116.801 134.618C118.483 132.901 121.179 132.781 123.003 134.276C123.072 134.309 123.183 134.359 123.347 134.425C123.86 134.632 124.576 134.87 125.519 135.159C125.984 135.301 126.508 135.456 127.067 135.622C128.601 136.076 130.403 136.609 132.009 137.182C134.035 137.905 136.821 139.033 138.637 140.898C139.658 141.947 140.723 143.59 140.719 145.777C140.716 147.918 139.686 149.623 138.591 150.83C135.057 154.727 132.658 157.398 131.934 160.879C131.933 160.936 131.929 161.095 131.934 161.403C131.936 161.514 131.939 161.653 131.942 161.808C131.951 162.223 131.963 162.757 131.959 163.199C131.959 163.21 131.959 163.222 131.958 163.234C131.955 163.69 131.945 164.872 131.58 165.936L131.579 165.939C131.458 166.292 130.736 168.403 128.335 169.112C125.76 169.874 123.952 168.282 123.588 167.946C117.282 162.13 107.105 158.279 98.5991 158.279C97.8077 158.279 96.9689 158.228 96.1654 158.054C95.4438 157.898 94.2068 157.532 93.1585 156.499C91.8621 155.221 91.4533 153.535 91.6705 152.046C91.8468 150.838 92.3985 149.936 92.7154 149.472C93.3668 148.518 94.2773 147.665 94.8267 147.157C95.0962 146.907 95.3242 146.701 95.5256 146.518C95.8723 146.204 96.1403 145.962 96.4055 145.696C98.8814 143.213 101.08 140.272 103.344 137.026C103.902 136.227 104.47 135.398 105.049 134.555C106.744 132.084 108.53 129.481 110.402 127.087C111.968 125.084 114.862 124.729 116.864 126.296ZM131.822 144.585C131.822 144.585 131.821 144.586 131.819 144.589C131.821 144.586 131.822 144.585 131.822 144.585ZM122.74 163.48C122.737 163.512 122.736 163.507 122.74 163.472C122.74 163.475 122.74 163.477 122.74 163.48ZM129.81 161.159C129.817 161.165 129.822 161.17 129.826 161.174L129.83 161.178C129.824 161.172 129.817 161.165 129.81 161.159Z" fill="black"/>
<path fill-rule="evenodd" clip-rule="evenodd" d="M675.793 126.95C678 128.213 678.765 131.025 677.503 133.232C676.105 135.675 674.757 138.148 673.382 140.67C673.277 140.861 673.173 141.052 673.068 141.244C672.53 142.231 671.988 143.224 671.438 144.221C676.132 142.303 681.301 140.321 686.874 139.456C686.863 139.458 686.865 139.446 687.709 139.268C688.289 139.146 689.101 138.988 689.929 138.891C690.601 138.812 691.89 138.689 693.144 138.986C693.759 139.131 695.079 139.536 696.107 140.794C697.354 142.321 697.401 144.109 697.051 145.388C696.429 147.659 695.189 149.777 694.132 151.422C693.644 152.181 693.136 152.927 692.681 153.595C692.625 153.677 692.571 153.757 692.517 153.836C692.003 154.592 691.575 155.228 691.223 155.802C690.786 156.516 690.102 157.763 689.181 159.441C688.936 159.888 688.674 160.366 688.396 160.872C687.12 163.189 685.58 165.953 683.971 168.604C682.381 171.224 680.633 173.889 678.929 175.947C678.083 176.968 677.127 177.988 676.095 178.791C675.182 179.501 673.558 180.563 671.472 180.563C668.929 180.563 666.868 178.501 666.868 175.959C666.868 173.739 668.44 171.886 670.531 171.452C670.822 171.209 671.26 170.772 671.838 170.074C673.106 168.542 674.578 166.336 676.1 163.828C677.602 161.352 679.065 158.73 680.329 156.433C680.567 156 680.802 155.572 681.031 155.154C681.969 153.443 682.808 151.914 683.372 150.992C683.701 150.455 684.06 149.909 684.415 149.379C680.951 150.304 677.495 151.683 673.789 153.208C673.301 153.409 672.76 153.665 672.049 154C671.94 154.052 671.827 154.105 671.71 154.16C670.887 154.548 669.9 155.006 668.864 155.409C666.937 156.159 664.052 157.05 661.05 156.394C659.217 155.993 658.027 154.638 657.575 153.236C657.234 152.177 657.356 151.274 657.408 150.947C657.526 150.198 657.797 149.566 657.921 149.284C658.228 148.59 658.659 147.831 659.01 147.239C659.386 146.606 659.781 145.981 660.082 145.511C660.466 144.911 660.554 144.779 660.54 144.804C662.054 142.199 663.508 139.545 664.985 136.836C665.092 136.639 665.199 136.443 665.307 136.246C666.673 133.741 668.065 131.188 669.511 128.66C670.773 126.453 673.586 125.688 675.793 126.95ZM691.416 148.005C691.416 148.005 691.41 148.005 691.398 148.004C691.411 148.004 691.417 148.005 691.416 148.005ZM670.287 171.631C670.288 171.629 670.308 171.615 670.348 171.594C670.307 171.622 670.287 171.633 670.287 171.631ZM666.345 153.001C666.346 152.999 666.346 152.998 666.347 152.996C666.326 153.051 666.321 153.056 666.345 153.001Z" fill="black"/>
<path fill-rule="evenodd" clip-rule="evenodd" d="M346.363 116.37C348.763 115.532 351.389 116.798 352.227 119.199C355.816 129.48 356.576 140.214 356.576 150.384C356.576 152.926 354.515 154.987 351.972 154.987C349.43 154.987 347.369 152.926 347.369 150.384C347.369 140.586 346.617 131.066 343.534 122.233C342.696 119.833 343.963 117.208 346.363 116.37Z" fill="black"/>
<path fill-rule="evenodd" clip-rule="evenodd" d="M360.144 126.365C357.219 126.548 353.406 127.792 352.033 128.498C349.773 129.661 346.997 128.772 345.833 126.511C344.67 124.25 345.56 121.475 347.82 120.311C350.275 119.048 355.628 117.314 360.113 117.148C362.124 117.074 365.469 117.231 367.838 119.477C370.409 121.913 370.378 125.13 369.54 127.831C369.879 127.796 370.221 127.768 370.565 127.747C373.918 127.543 377.003 128.156 379.48 129.853C382.013 131.587 383.409 134.114 383.938 136.734C384.938 141.691 382.962 147.176 379.883 151.126C376.483 155.485 370.967 156.165 366.907 155.984C362.612 155.792 358.296 154.588 355.393 153.44C353.028 152.506 351.869 149.831 352.804 147.467C353.738 145.102 356.412 143.943 358.777 144.878C361.002 145.757 364.297 146.651 367.317 146.785C370.572 146.931 372.076 146.164 372.622 145.464C374.6 142.927 375.227 140.114 374.913 138.555C374.784 137.917 374.543 137.631 374.277 137.449C373.955 137.228 373.077 136.818 371.123 136.937C368.901 137.072 366.664 137.706 363.928 138.549C363.944 138.544 363.942 138.544 363.893 138.563C363.847 138.581 363.759 138.615 363.601 138.676L363.584 138.682C363.36 138.769 362.972 138.92 362.583 139.042C362.576 139.044 362.567 139.047 362.556 139.05C362.328 139.124 361.31 139.451 360.165 139.332C359.512 139.264 357.688 138.924 356.565 137.07C355.489 135.294 355.956 133.584 356.143 133.031C356.803 131.073 358.014 129.391 358.799 128.301L358.828 128.26C359.422 127.435 359.842 126.85 360.144 126.365ZM361.94 126.458C361.939 126.458 361.934 126.456 361.924 126.452C361.935 126.455 361.94 126.457 361.94 126.458ZM360.848 124.791C360.85 124.759 360.854 124.742 360.855 124.741C360.856 124.74 360.855 124.756 360.848 124.791ZM359.827 130.257C359.819 130.259 359.82 130.259 359.828 130.256Z" fill="black"/>
<path fill-rule="evenodd" clip-rule="evenodd" d="M398.523 148.931C398.519 149.026 398.518 149.048 398.515 149.01C398.708 151.545 396.809 153.757 394.274 153.95C391.739 154.143 389.527 152.244 389.334 149.709C389.278 148.964 389.352 147.825 389.43 146.836C389.522 145.686 389.666 144.225 389.857 142.576C390.239 139.281 390.816 135.146 391.554 131.125C392.281 127.162 393.205 123.083 394.323 120.018C394.861 118.544 395.581 116.91 396.589 115.635C397.501 114.48 399.964 112.139 403.437 113.373C408.083 115.024 411.02 119.387 412.861 122.784C414.204 125.261 415.411 128.148 416.309 130.298C416.663 131.144 416.969 131.876 417.216 132.424C418.996 136.358 420.821 139.939 423.169 143.055C424.699 145.085 424.294 147.972 422.263 149.502C420.233 151.032 417.346 150.627 415.816 148.596C412.843 144.651 410.684 140.325 408.827 136.217C408.384 135.237 407.969 134.241 407.548 133.23C406.73 131.263 405.888 129.24 404.767 127.172C404.037 125.825 403.342 124.775 402.695 123.98C401.95 126.256 401.237 129.372 400.61 132.787C399.916 136.568 399.367 140.498 399.003 143.636C398.822 145.203 398.689 146.551 398.609 147.564C398.548 148.327 398.53 148.754 398.523 148.931Z" fill="black"/>
<path fill-rule="evenodd" clip-rule="evenodd" d="M417.819 138.313C408.567 136.995 402.106 137.379 393.381 140.41C390.979 141.244 388.356 139.973 387.522 137.572C386.688 135.17 387.958 132.547 390.36 131.712C400.659 128.135 408.624 127.703 419.118 129.198C421.635 129.557 423.385 131.888 423.026 134.405C422.668 136.922 420.336 138.672 417.819 138.313Z" fill="black"/>
<path fill-rule="evenodd" clip-rule="evenodd" d="M440.484 119.208C443.012 118.937 445.281 120.766 445.552 123.294C446.35 130.73 447.155 138.395 447.616 146.013C447.77 148.551 445.837 150.733 443.3 150.887C440.762 151.041 438.58 149.108 438.426 146.57C437.979 139.193 437.197 131.727 436.398 124.277C436.126 121.749 437.956 119.48 440.484 119.208Z" fill="black"/>
<path fill-rule="evenodd" clip-rule="evenodd" d="M451.365 122.202C447.158 120.011 442.181 121.742 436.146 125.289C433.954 126.577 431.133 125.844 429.844 123.653C428.556 121.461 429.289 118.639 431.481 117.351C437.267 113.95 446.506 109.289 455.619 114.037C457.714 115.128 461.423 117.095 464.471 119.711C467.291 122.132 471.03 126.398 469.943 132.028C468.699 138.476 462.901 142.577 458.262 145.165C455.761 146.561 453.138 147.758 450.817 148.782C450.243 149.035 449.696 149.274 449.175 149.502C447.503 150.232 446.102 150.845 444.949 151.426C442.678 152.569 439.91 151.656 438.767 149.385C437.623 147.115 438.536 144.347 440.807 143.203C442.207 142.498 443.934 141.743 445.66 140.989C446.143 140.778 446.626 140.567 447.101 140.358C449.373 139.356 451.669 138.3 453.775 137.125C458.351 134.572 460.522 132.257 460.903 130.283C460.977 129.897 460.857 128.742 458.474 126.698C456.32 124.848 453.482 123.305 451.365 122.202Z" fill="black"/>
<path fill-rule="evenodd" clip-rule="evenodd" d="M491.265 114.629C493.496 115.848 494.317 118.644 493.098 120.876C488.455 129.375 486.5 139.251 486.5 149.359C486.5 151.902 484.439 153.963 481.897 153.963C479.354 153.963 477.293 151.902 477.293 149.359C477.293 138.12 479.461 126.635 485.018 116.462C486.236 114.231 489.033 113.41 491.265 114.629Z" fill="black"/>
<path fill-rule="evenodd" clip-rule="evenodd" d="M486.857 115.383C488.673 113.603 491.587 113.632 493.367 115.447C498.279 120.456 502.123 125.551 505.162 132.07C505.522 132.842 505.864 133.59 506.196 134.314C507.806 137.831 509.173 140.817 511.188 143.575C512.688 145.628 512.24 148.508 510.188 150.008C508.135 151.508 505.255 151.061 503.755 149.008C501.136 145.425 499.322 141.442 497.714 137.914C497.409 137.244 497.112 136.591 496.818 135.961C494.31 130.581 491.141 126.327 486.793 121.893C485.013 120.078 485.042 117.163 486.857 115.383Z" fill="black"/>
<path fill-rule="evenodd" clip-rule="evenodd" d="M503.379 138.619C496.659 138.619 490.042 138.89 483.419 139.615C480.892 139.892 478.619 138.067 478.342 135.54C478.066 133.012 479.89 130.739 482.418 130.462C489.452 129.693 496.415 129.412 503.379 129.412C505.921 129.412 507.982 131.473 507.982 134.016C507.982 136.558 505.921 138.619 503.379 138.619Z" fill="black"/>
<path fill-rule="evenodd" clip-rule="evenodd" d="M542.795 119.772C543.317 122.26 541.722 124.7 539.234 125.222C538.799 125.313 538.25 125.412 537.62 125.526C535.473 125.916 532.374 126.478 529.558 127.474C528.282 127.925 527.39 128.362 526.826 128.721C527.019 128.903 527.285 129.12 527.649 129.368C528.592 130.009 529.871 130.638 531.43 131.266C532.887 131.853 534.412 132.373 535.957 132.899C536.055 132.932 536.153 132.966 536.251 132.999C537.793 133.525 539.506 134.111 540.863 134.746C541.227 134.915 541.639 135.094 542.136 135.308C542.168 135.322 542.2 135.336 542.233 135.35C542.684 135.544 543.199 135.765 543.705 135.996C544.716 136.458 546.102 137.135 547.248 138.067C548.322 138.939 550.25 140.932 549.883 143.987C549.556 146.706 547.561 148.469 546.082 149.506C540.56 153.376 534.08 154.819 528.673 155.918C526.181 156.424 523.751 154.815 523.244 152.323C522.738 149.832 524.347 147.401 526.839 146.895C531.068 146.035 534.826 145.143 538.051 143.573C537.695 143.418 537.323 143.254 536.964 143.086C536.152 142.707 534.953 142.284 533.28 141.714C533.169 141.676 533.056 141.638 532.941 141.598C531.442 141.088 529.69 140.492 527.988 139.806C526.166 139.071 524.199 138.156 522.471 136.981C520.774 135.827 518.951 134.182 517.924 131.849C517.207 130.22 516.97 128.43 517.414 126.636C517.842 124.906 518.805 123.568 519.803 122.587C521.692 120.731 524.312 119.563 526.489 118.793C530.151 117.498 534.492 116.724 536.46 116.374C536.864 116.301 537.168 116.247 537.345 116.21C539.834 115.689 542.274 117.283 542.795 119.772ZM541.474 145.239C541.474 145.239 541.468 145.235 541.459 145.226C541.47 145.235 541.474 145.239 541.474 145.239ZM526.194 129.221C526.194 129.221 526.195 129.22 526.196 129.218C526.195 129.22 526.194 129.221 526.194 129.221Z" fill="black"/>
<path fill-rule="evenodd" clip-rule="evenodd" d="M580.185 117.261C580.963 119.682 579.631 122.274 577.21 123.052C573.943 124.102 572.503 124.814 571.61 125.607C571.072 126.086 570.527 126.782 569.973 128.198C570.746 128.293 571.754 128.366 573.033 128.416C573.583 128.437 574.185 128.454 574.817 128.472C576.641 128.524 578.71 128.583 580.49 128.772C581.731 128.905 583.079 129.12 584.341 129.522C585.56 129.91 587.104 130.598 588.325 131.94C592.814 136.874 590.406 142.885 588.254 146.126C587.047 147.942 585.54 149.569 584.022 150.859C582.56 152.101 580.807 153.268 579.03 153.869C575.845 154.946 572.389 155.466 569.501 155.818C569.449 155.824 569.397 155.83 569.344 155.836C568.944 155.949 568.523 156.009 568.087 156.009C567.585 156.009 567.204 156.009 567.007 156.004C566.973 156.003 566.92 156.002 566.858 155.998L566.854 155.998C566.82 155.997 566.653 155.988 566.451 155.961C566.451 155.961 566.449 155.961 566.447 155.96C566.398 155.954 565.985 155.902 565.505 155.729C565.504 155.728 565.501 155.727 565.496 155.725C565.379 155.686 564.298 155.32 563.454 154.25C562.874 153.515 562.303 152.3 562.504 150.789C562.688 149.413 563.42 148.529 563.834 148.12C564.541 147.423 565.3 147.143 565.433 147.094C565.438 147.092 565.442 147.09 565.445 147.089C565.694 146.995 565.898 146.944 565.991 146.921C566.189 146.873 566.347 146.85 566.401 146.842C566.595 146.813 566.773 146.8 566.787 146.799L566.788 146.799C566.845 146.795 566.904 146.791 566.95 146.788C567.011 146.785 567.075 146.781 567.142 146.777C567.533 146.753 568.009 146.724 568.388 146.678C571.169 146.339 573.839 145.905 576.08 145.147C576.336 145.061 577.072 144.682 578.062 143.842C578.996 143.048 579.905 142.054 580.584 141.032C581.287 139.973 581.574 139.143 581.63 138.641C581.647 138.487 581.645 138.391 581.629 138.322C581.604 138.313 581.576 138.304 581.546 138.295C581.124 138.16 580.466 138.029 579.515 137.928C578.117 137.779 576.611 137.736 574.92 137.688C574.206 137.668 573.46 137.646 572.675 137.616C570.394 137.527 567.417 137.357 565.093 136.472C563.874 136.008 562.252 135.137 561.175 133.422C559.996 131.546 559.97 129.481 560.454 127.724C561.467 124.054 562.878 121.049 565.495 118.724C567.965 116.529 571.084 115.35 574.394 114.286C576.814 113.509 579.407 114.84 580.185 117.261ZM581.828 138.403C581.828 138.403 581.825 138.402 581.82 138.399C581.826 138.402 581.828 138.403 581.828 138.403ZM567.444 155.983C567.443 155.983 567.454 155.982 567.479 155.98C567.458 155.982 567.445 155.983 567.444 155.983ZM568.28 127.829C568.281 127.829 568.29 127.833 568.307 127.842C568.288 127.834 568.28 127.829 568.28 127.829Z" fill="black"/>
<path fill-rule="evenodd" clip-rule="evenodd" d="M695.566 288.621C694.691 288.102 693.639 287.869 692.554 288.028C689.267 288.509 685.839 288.965 682.324 289.432C673.592 290.593 664.324 291.825 655.361 293.697C642.702 296.341 630.054 300.359 619.262 307.645C616.909 309.234 615.146 311.718 615.428 314.919C615.661 317.57 617.254 319.601 618.436 320.836C620.849 323.356 624.394 325.41 625.958 326.316C625.991 326.336 626.024 326.354 626.055 326.373C637.487 333.001 650.665 334.015 662.542 334.015C677.338 334.015 690.667 331.17 704.29 326.183C705.519 325.733 707.048 325.227 708.724 324.673C711.809 323.652 715.393 322.466 718.524 321.16C723.54 319.068 729 316.099 732.47 311.316C733.694 309.63 734.291 307.622 733.995 305.5C733.719 303.523 732.734 301.93 731.734 300.754C729.794 298.475 726.855 296.674 724.208 295.326C718.76 292.551 712.302 290.595 710.254 290.097C705.08 288.838 700.221 288.394 695.566 288.621ZM666.818 300.947C663.619 301.469 660.424 302.046 657.243 302.71C645.494 305.164 634.502 308.715 625.304 314.687C626.731 316.079 629.024 317.451 630.673 318.407C639.877 323.743 650.947 324.808 662.542 324.808C676.068 324.808 688.32 322.224 701.125 317.537C702.942 316.872 704.723 316.288 706.506 315.703C709.28 314.793 712.057 313.881 714.98 312.663C719.239 310.886 722.537 308.907 724.54 306.521C723.757 305.706 722.241 304.657 720.029 303.53C715.385 301.165 709.642 299.424 708.078 299.043C695.477 295.978 685.169 298.657 673.632 304.968C671.401 306.188 668.604 305.369 667.384 303.138C667.003 302.441 666.82 301.689 666.818 300.947ZM624.224 315.421C624.224 315.421 624.225 315.421 624.226 315.419C624.225 315.421 624.224 315.421 624.224 315.421Z" fill="black"/>
<path fill-rule="evenodd" clip-rule="evenodd" d="M716.54 261.262C715.686 262.479 714.089 264.136 711.797 266.26C706.801 270.889 702.018 275.853 697.104 280.954C694.877 283.266 692.623 285.605 690.311 287.954C683.005 295.375 675.264 302.718 666.594 308.656C664.497 310.093 661.631 309.557 660.195 307.46C658.758 305.362 659.294 302.497 661.391 301.06C669.306 295.639 676.544 288.813 683.75 281.495C685.905 279.306 688.074 277.055 690.257 274.789C694.047 270.855 697.883 266.874 701.777 263.083C701.761 262.012 702.117 260.93 702.863 260.046C704.135 258.539 705.598 257.176 706.909 256.118C708.102 255.157 709.565 254.125 710.84 253.618C711.149 253.495 711.841 253.238 712.704 253.201C713.463 253.168 716.069 253.322 717.274 255.971C718.141 257.876 717.443 259.565 717.313 259.88L717.307 259.895C717.07 260.471 716.762 260.947 716.54 261.262ZM709.004 255.973C709.004 255.973 709.004 255.974 709.003 255.974C709.018 255.951 709.021 255.95 709.004 255.973Z" fill="black"/>
<path fill-rule="evenodd" clip-rule="evenodd" d="M650.969 303.913C650.653 306.083 650.37 308.025 650.133 309.625C649.76 312.14 647.419 313.876 644.904 313.504C642.389 313.131 640.652 310.791 641.025 308.276C641.257 306.71 641.536 304.796 641.849 302.647C642.973 294.947 644.535 284.239 645.932 275.768C646.812 270.429 647.669 265.705 648.341 263.218C648.498 262.635 648.722 261.874 649.035 261.218C649.037 261.213 649.04 261.207 649.043 261.201C649.147 260.981 649.567 260.095 650.451 259.375C650.978 258.946 652.079 258.247 653.633 258.315C655.263 258.386 656.365 259.25 656.929 259.88C657.792 260.844 658.038 261.937 658.093 262.177C658.095 262.186 658.096 262.193 658.098 262.2C658.196 262.626 658.247 263.045 658.279 263.382C658.343 264.075 658.367 264.928 658.367 265.892C658.367 267.478 657.564 268.877 656.343 269.705C655.948 271.768 655.498 274.344 655.016 277.266C653.635 285.641 652.093 296.214 650.969 303.913Z" fill="black"/>
<path fill-rule="evenodd" clip-rule="evenodd" d="M623.072 309.463C625.615 309.463 627.676 311.524 627.676 314.066V353.964C627.676 356.507 625.615 358.568 623.072 358.568C620.53 358.568 618.469 356.507 618.469 353.964V314.066C618.469 311.524 620.53 309.463 623.072 309.463Z" fill="black"/>
<path fill-rule="evenodd" clip-rule="evenodd" d="M727.583 311.59C730.08 311.115 732.49 312.755 732.965 315.252C734.227 321.893 734.191 334.886 733.907 344.172C733.762 348.901 733.543 352.94 733.351 355.054C733.304 355.563 733.249 356.081 733.18 356.495C733.179 356.499 733.178 356.504 733.177 356.51C733.157 356.633 733.073 357.148 732.859 357.683C732.793 357.847 732.641 358.205 732.366 358.606C732.176 358.882 731.428 359.937 729.929 360.405C727.917 361.032 726.241 360.161 725.383 359.349C724.698 358.701 724.395 358.011 724.303 357.794C724.084 357.281 724.005 356.832 723.983 356.711L723.982 356.705C723.948 356.513 723.929 356.341 723.916 356.22C723.892 355.974 723.877 355.713 723.868 355.471C723.848 354.975 723.839 354.321 723.839 353.518C723.839 352.731 724.036 351.99 724.384 351.342C724.499 349.368 724.615 346.792 724.704 343.891C724.995 334.384 724.959 322.44 723.92 316.972C723.445 314.474 725.085 312.064 727.583 311.59Z" fill="black"/>
<path fill-rule="evenodd" clip-rule="evenodd" d="M109.261 226.612C111.795 226.812 113.688 229.029 113.488 231.564C112.887 239.167 112.46 246.73 112.25 254.305C112.346 254.09 112.442 253.873 112.54 253.654C114.713 248.783 117.498 243.143 122.503 239.163C124.849 237.297 128.351 235.365 131.992 236.998C133.707 237.767 134.789 239.086 135.453 240.26C136.11 241.422 136.499 242.685 136.748 243.818C137.59 247.644 137.367 252.833 137.234 255.942C137.219 256.294 137.205 256.62 137.193 256.914C137.113 259.035 137.018 261.117 136.924 263.168C136.385 274.923 135.893 285.654 138.544 296.616C139.141 299.087 137.623 301.575 135.151 302.172C132.68 302.77 130.192 301.251 129.595 298.78C126.609 286.434 127.182 274.232 127.731 262.518C127.825 260.519 127.918 258.534 127.993 256.565C128.005 256.257 128.017 255.942 128.03 255.622C128.15 252.604 128.287 249.159 127.909 246.635C125 249.092 123.029 252.74 120.948 257.405C120.637 258.103 120.32 258.832 119.994 259.584C118.229 263.652 116.183 268.365 113.207 272.125C112.742 272.713 111.995 273.546 110.925 274.109C109.636 274.789 107.668 275.131 105.796 273.986C104.343 273.096 103.747 271.754 103.524 271.178C103.253 270.476 103.119 269.785 103.043 269.271C102.888 268.223 102.865 267.116 102.867 266.336C102.868 265.923 102.877 265.549 102.884 265.263C102.886 265.182 102.888 265.121 102.889 265.067C102.891 265.011 102.892 264.962 102.894 264.905C102.896 264.8 102.897 264.768 102.897 264.771C102.897 253.396 103.417 242.138 104.309 230.839C104.509 228.304 106.726 226.412 109.261 226.612ZM129.49 245.56C129.489 245.563 129.463 245.574 129.413 245.586C129.466 245.563 129.491 245.558 129.49 245.56ZM105.931 266.478C105.931 266.477 105.941 266.464 105.962 266.443C105.941 266.468 105.931 266.479 105.931 266.478ZM112.17 268.032C112.171 268.036 112.171 268.037 112.171 268.037C112.171 268.037 112.171 268.036 112.17 268.032Z" fill="black"/>
</svg>
