<svg width="801" height="515" viewBox="0 0 801 515" fill="none" xmlns="http://www.w3.org/2000/svg">
<path fill-rule="evenodd" clip-rule="evenodd" d="M67.675 16.645C67.675 7.45221 75.1272 0 84.32 0H186.271C195.463 0 202.916 7.45221 202.916 16.645V50.9753H258.052C264.947 50.9753 270.536 56.5645 270.536 63.459V93.6281C270.536 97.3042 268.417 100.486 265.334 102.018V107.152H761.563C775.352 107.152 786.531 118.33 786.531 132.12V142.762C786.531 145.609 788.441 148.102 791.191 148.843C796.42 150.251 800.055 154.993 800.055 160.408V291.808C800.055 305.597 788.876 316.775 775.087 316.775H554.32C513.955 316.775 478.354 343.212 466.683 381.853L456.782 414.633C451.477 432.197 435.294 444.213 416.947 444.213H265.334V468.073C268.417 469.605 270.536 472.787 270.536 476.463V502.471C270.536 509.365 264.947 514.954 258.052 514.954H12.5384C5.64383 514.954 0.0546875 509.365 0.0546875 502.471V476.463C0.0546875 472.787 2.17333 469.605 5.25625 468.073V102.018C2.17334 100.486 0.0546875 97.3042 0.0546875 93.6281V63.459C0.0546875 56.5644 5.64385 50.9753 12.5384 50.9753H67.675V16.645ZM194.593 59.2978V16.645C194.593 12.0486 190.867 8.3225 186.271 8.3225H84.32C79.7236 8.3225 75.9975 12.0486 75.9975 16.645V59.2978H12.5384C10.2402 59.2978 8.37718 61.1608 8.37718 63.459V93.6281C8.37718 94.2026 8.84295 94.6684 9.41749 94.6684H13.5787V475.423H9.4175C8.84295 475.423 8.37718 475.888 8.37718 476.463V502.471C8.37718 504.769 10.2402 506.632 12.5384 506.632H258.052C260.35 506.632 262.213 504.769 262.213 502.471V476.463C262.213 475.888 261.748 475.423 261.173 475.423H257.012V435.891H416.947C431.625 435.891 444.571 426.277 448.815 412.226L458.716 379.446C471.448 337.293 510.286 308.453 554.32 308.453H775.087C784.28 308.453 791.732 301 791.732 291.808V160.408C791.732 158.756 790.623 157.309 789.027 156.879C782.644 155.16 778.208 149.372 778.208 142.762V132.12C778.208 122.927 770.756 115.475 761.563 115.475H257.012V94.6684H261.173C261.748 94.6684 262.213 94.2026 262.213 93.6281V63.459C262.213 61.1608 260.35 59.2978 258.052 59.2978H194.593Z" fill="#FFF3D9"/>
<path d="M8.37695 63.4581C8.37695 61.1599 10.24 59.2969 12.5382 59.2969H258.052C260.35 59.2969 262.213 61.1599 262.213 63.4581V93.6272C262.213 94.2017 261.747 94.6675 261.173 94.6675H9.41726C8.84272 94.6675 8.37695 94.2017 8.37695 93.6272V63.4581Z" fill="#FFF3D9"/>
<path fill-rule="evenodd" clip-rule="evenodd" d="M7.67773 63.4589C7.67773 60.7741 9.85419 58.5977 12.539 58.5977H258.053C260.737 58.5977 262.914 60.7741 262.914 63.4589V93.628C262.914 94.5891 262.135 95.3683 261.174 95.3683H9.41805C8.4569 95.3683 7.67773 94.5891 7.67773 93.628V63.4589ZM12.539 59.9977C10.6274 59.9977 9.07773 61.5473 9.07773 63.4589V93.628C9.07773 93.8159 9.2301 93.9683 9.41805 93.9683H261.174C261.362 93.9683 261.514 93.8159 261.514 93.628V63.4589C261.514 61.5473 259.964 59.9977 258.053 59.9977H12.539Z" fill="black"/>
<path d="M13.5781 94.668H257.011V475.422H13.5781V94.668Z" fill="#FFF3D9"/>
<path fill-rule="evenodd" clip-rule="evenodd" d="M12.8789 93.9688H257.712V476.123H12.8789V93.9688ZM14.2789 95.3687V474.723H256.312V95.3687H14.2789Z" fill="black"/>
<path d="M257.012 115.475L761.563 115.475C770.756 115.475 778.208 122.927 778.208 132.12V142.762C778.208 149.372 782.644 155.16 789.027 156.879C-nan -nan -nan -nan 789.027 156.879L-nan -nanC-nan -nan -nan -nan -nan -nanL-nan -nanC-nan -nan -nan -nan -nan -nanL789.027 156.879C-nan -nan -nan -nan 789.027 156.879C790.623 157.309 791.732 158.756 791.732 160.408V291.807C791.732 301 784.28 308.452 775.087 308.452H554.32C510.286 308.452 471.448 337.293 458.716 379.446L448.815 412.226C444.571 426.277 431.625 435.891 416.947 435.891H257.012V115.475Z" fill="#FFF3D9"/>
<path fill-rule="evenodd" clip-rule="evenodd" d="M256.312 114.775H761.564C771.143 114.775 778.909 122.541 778.909 132.12V142.762C778.909 149.057 783.132 154.568 789.21 156.204C791.112 156.716 792.433 158.44 792.433 160.409V291.808C792.433 301.388 784.667 309.153 775.088 309.153H554.321C510.595 309.153 472.029 337.791 459.387 379.649L449.486 412.429C445.152 426.776 431.934 436.592 416.947 436.592H256.312V114.775ZM257.712 116.175V435.192H416.947C431.317 435.192 443.991 425.78 448.145 412.025L458.046 379.244C470.868 336.796 509.978 307.753 554.321 307.753H775.088C783.894 307.753 791.033 300.614 791.033 291.808V160.409C791.033 159.073 790.136 157.903 788.846 157.556C782.157 155.755 777.509 149.69 777.509 142.762V132.12C777.509 123.314 770.37 116.175 761.564 116.175H257.712Z" fill="black"/>
<path d="M13.5781 142.523H229.963V475.423H13.5781V142.523Z" fill="#FFF3D9"/>
<path fill-rule="evenodd" clip-rule="evenodd" d="M12.8789 141.822H230.664V476.122H12.8789V141.822ZM14.2789 143.222V474.722H229.264V143.222H14.2789Z" fill="black"/>
<path d="M8.37695 476.462C8.37695 475.888 8.84272 475.422 9.41727 475.422H261.173C261.747 475.422 262.213 475.888 262.213 476.462V502.47C262.213 504.768 260.35 506.631 258.052 506.631H12.5382C10.24 506.631 8.37695 504.768 8.37695 502.47V476.462Z" fill="#FFF3D9"/>
<path fill-rule="evenodd" clip-rule="evenodd" d="M7.67773 476.463C7.67773 475.502 8.4569 474.723 9.41805 474.723H261.174C262.135 474.723 262.914 475.502 262.914 476.463V502.471C262.914 505.156 260.737 507.332 258.053 507.332H12.539C9.85418 507.332 7.67773 505.156 7.67773 502.471V476.463ZM9.41805 476.123C9.2301 476.123 9.07773 476.275 9.07773 476.463V502.471C9.07773 504.382 10.6274 505.932 12.539 505.932H258.053C259.964 505.932 261.514 504.382 261.514 502.471V476.463C261.514 476.275 261.362 476.123 261.174 476.123H9.41805Z" fill="black"/>
<path d="M75.998 16.6448C75.998 12.0484 79.7242 8.32227 84.3205 8.32227H186.271C190.868 8.32227 194.594 12.0484 194.594 16.6448V59.2976H75.998V16.6448Z" fill="#FFF3D9"/>
<path fill-rule="evenodd" clip-rule="evenodd" d="M75.2969 16.6455C75.2969 11.6626 79.3364 7.62305 84.3194 7.62305H186.27C191.253 7.62305 195.292 11.6626 195.292 16.6455V59.9983H75.2969V16.6455ZM84.3194 9.02305C80.1096 9.02305 76.6969 12.4358 76.6969 16.6455V58.5983H193.892V16.6455C193.892 12.4358 190.48 9.02305 186.27 9.02305H84.3194Z" fill="black"/>
<path d="M317.35 136.281C317.35 131.685 321.076 127.959 325.672 127.959H331.914C336.51 127.959 340.236 131.685 340.236 136.281V148.765C340.236 153.362 336.51 157.088 331.914 157.088H325.672C321.076 157.088 317.35 153.362 317.35 148.765V136.281Z" fill="#FFF3D9"/>
<path fill-rule="evenodd" clip-rule="evenodd" d="M331.914 129.359H325.672C321.849 129.359 318.75 132.458 318.75 136.281V148.765C318.75 152.588 321.849 155.688 325.672 155.688H331.914C335.737 155.688 338.836 152.588 338.836 148.765V136.281C338.836 132.458 335.737 129.359 331.914 129.359ZM325.672 127.959C321.076 127.959 317.35 131.685 317.35 136.281V148.765C317.35 153.362 321.076 157.088 325.672 157.088H331.914C336.51 157.088 340.236 153.362 340.236 148.765V136.281C340.236 131.685 336.51 127.959 331.914 127.959H325.672Z" fill="black"/>
<path d="M317.35 402.6C317.35 398.003 321.076 394.277 325.672 394.277H331.914C336.51 394.277 340.236 398.003 340.236 402.6V415.084C340.236 419.68 336.51 423.406 331.914 423.406H325.672C321.076 423.406 317.35 419.68 317.35 415.084V402.6Z" fill="#FFF3D9"/>
<path fill-rule="evenodd" clip-rule="evenodd" d="M331.914 395.677H325.672C321.849 395.677 318.75 398.777 318.75 402.6V415.084C318.75 418.907 321.849 422.006 325.672 422.006H331.914C335.737 422.006 338.836 418.907 338.836 415.084V402.6C338.836 398.777 335.737 395.677 331.914 395.677ZM325.672 394.277C321.076 394.277 317.35 398.003 317.35 402.6V415.084C317.35 419.68 321.076 423.406 325.672 423.406H331.914C336.51 423.406 340.236 419.68 340.236 415.084V402.6C340.236 398.003 336.51 394.277 331.914 394.277H325.672Z" fill="black"/>
<path d="M445.309 136.281C445.309 131.685 449.035 127.959 453.631 127.959H459.873C464.469 127.959 468.195 131.685 468.195 136.281V148.765C468.195 153.362 464.469 157.088 459.873 157.088H453.631C449.035 157.088 445.309 153.362 445.309 148.765V136.281Z" fill="#FFF3D9"/>
<path fill-rule="evenodd" clip-rule="evenodd" d="M459.873 129.359H453.631C449.808 129.359 446.709 132.458 446.709 136.281V148.765C446.709 152.588 449.808 155.688 453.631 155.688H459.873C463.696 155.688 466.795 152.588 466.795 148.765V136.281C466.795 132.458 463.696 129.359 459.873 129.359ZM453.631 127.959C449.035 127.959 445.309 131.685 445.309 136.281V148.765C445.309 153.362 449.035 157.088 453.631 157.088H459.873C464.469 157.088 468.195 153.362 468.195 148.765V136.281C468.195 131.685 464.469 127.959 459.873 127.959H453.631Z" fill="black"/>
<path d="M573.268 136.281C573.268 131.685 576.994 127.959 581.59 127.959H587.832C592.428 127.959 596.154 131.685 596.154 136.281V148.765C596.154 153.362 592.428 157.088 587.832 157.088H581.59C576.994 157.088 573.268 153.362 573.268 148.765V136.281Z" fill="#FFF3D9"/>
<path fill-rule="evenodd" clip-rule="evenodd" d="M587.832 129.359H581.59C577.767 129.359 574.668 132.458 574.668 136.281V148.765C574.668 152.588 577.767 155.688 581.59 155.688H587.832C591.655 155.688 594.754 152.588 594.754 148.765V136.281C594.754 132.458 591.655 129.359 587.832 129.359ZM581.59 127.959C576.994 127.959 573.268 131.685 573.268 136.281V148.765C573.268 153.362 576.994 157.088 581.59 157.088H587.832C592.428 157.088 596.154 153.362 596.154 148.765V136.281C596.154 131.685 592.428 127.959 587.832 127.959H581.59Z" fill="black"/>
<path d="M701.225 136.281C701.225 131.685 704.951 127.959 709.547 127.959H715.789C720.385 127.959 724.111 131.685 724.111 136.281V148.765C724.111 153.362 720.385 157.088 715.789 157.088H709.547C704.951 157.088 701.225 153.362 701.225 148.765V136.281Z" fill="#FFF3D9"/>
<path fill-rule="evenodd" clip-rule="evenodd" d="M715.789 129.359H709.547C705.724 129.359 702.625 132.458 702.625 136.281V148.765C702.625 152.588 705.724 155.688 709.547 155.688H715.789C719.612 155.688 722.711 152.588 722.711 148.765V136.281C722.711 132.458 719.612 129.359 715.789 129.359ZM709.547 127.959C704.951 127.959 701.225 131.685 701.225 136.281V148.765C701.225 153.362 704.951 157.088 709.547 157.088H715.789C720.385 157.088 724.111 153.362 724.111 148.765V136.281C724.111 131.685 720.385 127.959 715.789 127.959H709.547Z" fill="black"/>
<path d="M274.697 136.281C274.697 131.685 278.423 127.959 283.02 127.959H289.262C293.858 127.959 297.584 131.685 297.584 136.281V148.765C297.584 153.362 293.858 157.088 289.262 157.088H283.02C278.423 157.088 274.697 153.362 274.697 148.765V136.281Z" fill="#FFF3D9"/>
<path fill-rule="evenodd" clip-rule="evenodd" d="M289.262 129.359H283.02C279.197 129.359 276.097 132.458 276.097 136.281V148.765C276.097 152.588 279.197 155.688 283.02 155.688H289.262C293.085 155.688 296.184 152.588 296.184 148.765V136.281C296.184 132.458 293.085 129.359 289.262 129.359ZM283.02 127.959C278.423 127.959 274.697 131.685 274.697 136.281V148.765C274.697 153.362 278.423 157.088 283.02 157.088H289.262C293.858 157.088 297.584 153.362 297.584 148.765V136.281C297.584 131.685 293.858 127.959 289.262 127.959H283.02Z" fill="black"/>
<path d="M274.697 402.6C274.697 398.003 278.423 394.277 283.02 394.277H289.262C293.858 394.277 297.584 398.003 297.584 402.6V415.084C297.584 419.68 293.858 423.406 289.262 423.406H283.02C278.423 423.406 274.697 419.68 274.697 415.084V402.6Z" fill="#FFF3D9"/>
<path fill-rule="evenodd" clip-rule="evenodd" d="M289.262 395.677H283.02C279.197 395.677 276.097 398.777 276.097 402.6V415.084C276.097 418.907 279.197 422.006 283.02 422.006H289.262C293.085 422.006 296.184 418.907 296.184 415.084V402.6C296.184 398.777 293.085 395.677 289.262 395.677ZM283.02 394.277C278.423 394.277 274.697 398.003 274.697 402.6V415.084C274.697 419.68 278.423 423.406 283.02 423.406H289.262C293.858 423.406 297.584 419.68 297.584 415.084V402.6C297.584 398.003 293.858 394.277 289.262 394.277H283.02Z" fill="black"/>
<path d="M402.656 136.281C402.656 131.685 406.382 127.959 410.979 127.959H417.221C421.817 127.959 425.543 131.685 425.543 136.281V148.765C425.543 153.362 421.817 157.088 417.221 157.088H410.979C406.382 157.088 402.656 153.362 402.656 148.765V136.281Z" fill="#FFF3D9"/>
<path fill-rule="evenodd" clip-rule="evenodd" d="M417.221 129.359H410.979C407.156 129.359 404.056 132.458 404.056 136.281V148.765C404.056 152.588 407.156 155.688 410.979 155.688H417.221C421.044 155.688 424.143 152.588 424.143 148.765V136.281C424.143 132.458 421.044 129.359 417.221 129.359ZM410.979 127.959C406.382 127.959 402.656 131.685 402.656 136.281V148.765C402.656 153.362 406.382 157.088 410.979 157.088H417.221C421.817 157.088 425.543 153.362 425.543 148.765V136.281C425.543 131.685 421.817 127.959 417.221 127.959H410.979Z" fill="black"/>
<path d="M402.656 402.6C402.656 398.003 406.382 394.277 410.979 394.277H417.221C421.817 394.277 425.543 398.003 425.543 402.6V415.084C425.543 419.68 421.817 423.406 417.221 423.406H410.979C406.382 423.406 402.656 419.68 402.656 415.084V402.6Z" fill="#FFF3D9"/>
<path fill-rule="evenodd" clip-rule="evenodd" d="M417.221 395.677H410.979C407.156 395.677 404.056 398.777 404.056 402.6V415.084C404.056 418.907 407.156 422.006 410.979 422.006H417.221C421.044 422.006 424.143 418.907 424.143 415.084V402.6C424.143 398.777 421.044 395.677 417.221 395.677ZM410.979 394.277C406.382 394.277 402.656 398.003 402.656 402.6V415.084C402.656 419.68 406.382 423.406 410.979 423.406H417.221C421.817 423.406 425.543 419.68 425.543 415.084V402.6C425.543 398.003 421.817 394.277 417.221 394.277H410.979Z" fill="black"/>
<path d="M530.613 136.281C530.613 131.685 534.339 127.959 538.936 127.959H545.178C549.774 127.959 553.5 131.685 553.5 136.281V148.765C553.5 153.362 549.774 157.088 545.178 157.088H538.936C534.339 157.088 530.613 153.362 530.613 148.765V136.281Z" fill="#FFF3D9"/>
<path fill-rule="evenodd" clip-rule="evenodd" d="M545.178 129.359H538.936C535.113 129.359 532.013 132.458 532.013 136.281V148.765C532.013 152.588 535.113 155.688 538.936 155.688H545.178C549.001 155.688 552.1 152.588 552.1 148.765V136.281C552.1 132.458 549.001 129.359 545.178 129.359ZM538.936 127.959C534.339 127.959 530.613 131.685 530.613 136.281V148.765C530.613 153.362 534.339 157.088 538.936 157.088H545.178C549.774 157.088 553.5 153.362 553.5 148.765V136.281C553.5 131.685 549.774 127.959 545.178 127.959H538.936Z" fill="black"/>
<path d="M658.572 136.281C658.572 131.685 662.298 127.959 666.895 127.959H673.137C677.733 127.959 681.459 131.685 681.459 136.281V148.765C681.459 153.362 677.733 157.088 673.137 157.088H666.895C662.298 157.088 658.572 153.362 658.572 148.765V136.281Z" fill="#FFF3D9"/>
<path fill-rule="evenodd" clip-rule="evenodd" d="M673.137 129.359H666.895C663.072 129.359 659.972 132.458 659.972 136.281V148.765C659.972 152.588 663.072 155.688 666.895 155.688H673.137C676.96 155.688 680.059 152.588 680.059 148.765V136.281C680.059 132.458 676.96 129.359 673.137 129.359ZM666.895 127.959C662.298 127.959 658.572 131.685 658.572 136.281V148.765C658.572 153.362 662.298 157.088 666.895 157.088H673.137C677.733 157.088 681.459 153.362 681.459 148.765V136.281C681.459 131.685 677.733 127.959 673.137 127.959H666.895Z" fill="black"/>
<path d="M360.002 136.281C360.002 131.685 363.728 127.959 368.324 127.959H374.566C379.163 127.959 382.889 131.685 382.889 136.281V148.765C382.889 153.362 379.163 157.088 374.566 157.088H368.324C363.728 157.088 360.002 153.362 360.002 148.765V136.281Z" fill="#FFF3D9"/>
<path fill-rule="evenodd" clip-rule="evenodd" d="M374.566 129.359H368.324C364.501 129.359 361.402 132.458 361.402 136.281V148.765C361.402 152.588 364.501 155.688 368.324 155.688H374.566C378.389 155.688 381.489 152.588 381.489 148.765V136.281C381.489 132.458 378.389 129.359 374.566 129.359ZM368.324 127.959C363.728 127.959 360.002 131.685 360.002 136.281V148.765C360.002 153.362 363.728 157.088 368.324 157.088H374.566C379.163 157.088 382.889 153.362 382.889 148.765V136.281C382.889 131.685 379.163 127.959 374.566 127.959H368.324Z" fill="black"/>
<path d="M360.002 402.6C360.002 398.003 363.728 394.277 368.324 394.277H374.566C379.163 394.277 382.889 398.003 382.889 402.6V415.084C382.889 419.68 379.163 423.406 374.566 423.406H368.324C363.728 423.406 360.002 419.68 360.002 415.084V402.6Z" fill="#FFF3D9"/>
<path fill-rule="evenodd" clip-rule="evenodd" d="M374.566 395.677H368.324C364.501 395.677 361.402 398.777 361.402 402.6V415.084C361.402 418.907 364.501 422.006 368.324 422.006H374.566C378.389 422.006 381.489 418.907 381.489 415.084V402.6C381.489 398.777 378.389 395.677 374.566 395.677ZM368.324 394.277C363.728 394.277 360.002 398.003 360.002 402.6V415.084C360.002 419.68 363.728 423.406 368.324 423.406H374.566C379.163 423.406 382.889 419.68 382.889 415.084V402.6C382.889 398.003 379.163 394.277 374.566 394.277H368.324Z" fill="black"/>
<path d="M487.961 136.281C487.961 131.685 491.687 127.959 496.283 127.959H502.525C507.122 127.959 510.848 131.685 510.848 136.281V148.765C510.848 153.362 507.122 157.088 502.525 157.088H496.283C491.687 157.088 487.961 153.362 487.961 148.765V136.281Z" fill="#FFF3D9"/>
<path fill-rule="evenodd" clip-rule="evenodd" d="M502.525 129.359H496.283C492.46 129.359 489.361 132.458 489.361 136.281V148.765C489.361 152.588 492.46 155.688 496.283 155.688H502.525C506.348 155.688 509.448 152.588 509.448 148.765V136.281C509.448 132.458 506.348 129.359 502.525 129.359ZM496.283 127.959C491.687 127.959 487.961 131.685 487.961 136.281V148.765C487.961 153.362 491.687 157.088 496.283 157.088H502.525C507.122 157.088 510.848 153.362 510.848 148.765V136.281C510.848 131.685 507.122 127.959 502.525 127.959H496.283Z" fill="black"/>
<path d="M615.92 136.281C615.92 131.685 619.646 127.959 624.242 127.959H630.484C635.081 127.959 638.807 131.685 638.807 136.281V148.765C638.807 153.362 635.081 157.088 630.484 157.088H624.242C619.646 157.088 615.92 153.362 615.92 148.765V136.281Z" fill="#FFF3D9"/>
<path fill-rule="evenodd" clip-rule="evenodd" d="M630.484 129.359H624.242C620.419 129.359 617.32 132.458 617.32 136.281V148.765C617.32 152.588 620.419 155.688 624.242 155.688H630.484C634.307 155.688 637.407 152.588 637.407 148.765V136.281C637.407 132.458 634.307 129.359 630.484 129.359ZM624.242 127.959C619.646 127.959 615.92 131.685 615.92 136.281V148.765C615.92 153.362 619.646 157.088 624.242 157.088H630.484C635.081 157.088 638.807 153.362 638.807 148.765V136.281C638.807 131.685 635.081 127.959 630.484 127.959H624.242Z" fill="black"/>
<path d="M743.877 136.281C743.877 131.685 747.603 127.959 752.199 127.959H758.441C763.038 127.959 766.764 131.685 766.764 136.281V148.765C766.764 153.362 763.038 157.088 758.441 157.088H752.199C747.603 157.088 743.877 153.362 743.877 148.765V136.281Z" fill="#FFF3D9"/>
<path fill-rule="evenodd" clip-rule="evenodd" d="M758.441 129.359H752.199C748.376 129.359 745.277 132.458 745.277 136.281V148.765C745.277 152.588 748.376 155.688 752.199 155.688H758.441C762.265 155.688 765.364 152.588 765.364 148.765V136.281C765.364 132.458 762.265 129.359 758.441 129.359ZM752.199 127.959C747.603 127.959 743.877 131.685 743.877 136.281V148.765C743.877 153.362 747.603 157.088 752.199 157.088H758.441C763.038 157.088 766.764 153.362 766.764 148.765V136.281C766.764 131.685 763.038 127.959 758.441 127.959H752.199Z" fill="black"/>
<path fill-rule="evenodd" clip-rule="evenodd" d="M173.786 326.318H13.5781V324.918H173.786V326.318Z" fill="black"/>
<path fill-rule="evenodd" clip-rule="evenodd" d="M173.786 284.705H13.5781V283.305H173.786V284.705Z" fill="black"/>
<path fill-rule="evenodd" clip-rule="evenodd" d="M173.786 243.093H13.5781V241.693H173.786V243.093Z" fill="black"/>
<path fill-rule="evenodd" clip-rule="evenodd" d="M173.786 201.48H13.5781V200.08H173.786V201.48Z" fill="black"/>
<path fill-rule="evenodd" clip-rule="evenodd" d="M173.786 367.929H13.5781V366.529H173.786V367.929Z" fill="black"/>
</svg>
