<svg width="817" height="714" viewBox="0 0 817 714" fill="none" xmlns="http://www.w3.org/2000/svg">
<path fill-rule="evenodd" clip-rule="evenodd" d="M12.31 0H803.799C810.568 0 816.055 5.48689 816.055 12.2553V701.617C816.055 708.385 810.568 713.872 803.799 713.872H12.31C5.5415 713.872 0.0546875 708.385 0.0546875 701.617V12.2553C0.0546875 5.48688 5.54159 0 12.31 0ZM12.31 8C9.95986 8 8.05469 9.90517 8.05469 12.2553V701.617C8.05469 703.967 9.95983 705.872 12.31 705.872H803.799C806.15 705.872 808.055 703.967 808.055 701.617V12.2553C808.055 9.90517 806.15 8 803.799 8H12.31Z" fill="#FDCF77"/>
<path d="M8.05469 12.2553C8.05469 9.90517 9.95986 8 12.31 8H803.799C806.15 8 808.055 9.90517 808.055 12.2553V701.617C808.055 703.967 806.15 705.872 803.799 705.872H12.31C9.95983 705.872 8.05469 703.967 8.05469 701.617V12.2553Z" fill="#FDCF77" stroke="black" stroke-width="1.4"/>
<path d="M8.05469 14.3828H71.8845V699.489H8.05469V14.3828Z" fill="#FDCF77" stroke="black" stroke-width="1.4"/>
<path d="M71.8848 14.3828H86.7784V699.489H71.8848V14.3828Z" fill="#FDCF77" stroke="black" stroke-width="1.4"/>
<path d="M773.313 355.873C773.313 541.735 622.642 692.407 436.779 692.407C250.916 692.407 100.245 541.735 100.245 355.873C100.245 170.01 250.916 19.3387 436.779 19.3387C622.642 19.3387 773.313 170.01 773.313 355.873Z" fill="#FDCF77" stroke="black" stroke-width="1.4"/>
<path d="M560.547 355.872C560.547 424.228 505.134 479.64 436.779 479.64C368.423 479.64 313.011 424.228 313.011 355.872C313.011 287.517 368.423 232.104 436.779 232.104C505.134 232.104 560.547 287.517 560.547 355.872Z" fill="#FDCF77" stroke="black" stroke-width="1.4"/>
<path d="M550.972 355.872C550.972 418.94 499.846 470.066 436.778 470.066C373.711 470.066 322.585 418.94 322.585 355.872C322.585 292.805 373.711 241.679 436.778 241.679C499.846 241.679 550.972 292.805 550.972 355.872Z" fill="#FDCF77" stroke="black" stroke-width="1.4"/>
<path d="M525.439 355.871C525.439 404.838 485.744 444.533 436.778 444.533C387.811 444.533 348.116 404.838 348.116 355.871C348.116 306.905 387.811 267.21 436.778 267.21C485.744 267.21 525.439 306.905 525.439 355.871Z" fill="#FDCF77" stroke="black" stroke-width="1.4"/>
<path d="M475.439 355.871C475.439 377.224 458.13 394.533 436.778 394.533C415.425 394.533 398.116 377.224 398.116 355.871C398.116 334.519 415.425 317.21 436.778 317.21C458.13 317.21 475.439 334.519 475.439 355.871Z" fill="#FDCF77" stroke="black" stroke-width="1.4"/>
<path d="M456.11 322.39C474.601 333.066 480.937 356.711 470.261 375.203C459.585 393.694 435.94 400.03 417.448 389.354C398.956 378.678 392.621 355.033 403.297 336.541C413.973 318.049 437.618 311.714 456.11 322.39Z" fill="#FDCF77" stroke="black" stroke-width="1.4"/>
<path d="M475.439 355.871C475.439 377.224 458.13 394.533 436.778 394.533C415.425 394.533 398.116 377.224 398.116 355.871C398.116 334.519 415.425 317.21 436.778 317.21C458.13 317.21 475.439 334.519 475.439 355.871Z" fill="#FDCF77" stroke="black" stroke-width="1.4"/>
<path fill-rule="evenodd" clip-rule="evenodd" d="M425.608 385.794V409.064C425.608 410.533 424.417 411.724 422.949 411.724C421.48 411.724 420.289 410.533 420.289 409.064V385.255C420.289 381.363 424.411 379.448 427.421 380.781C430.312 382.062 433.469 382.766 436.778 382.766C440.088 382.766 443.245 382.062 446.136 380.781C449.146 379.448 453.268 381.363 453.268 385.255V409.064C453.268 410.533 452.077 411.724 450.608 411.724C449.139 411.724 447.949 410.533 447.949 409.064V385.794C444.492 387.271 440.722 388.085 436.778 388.085C432.835 388.085 429.064 387.271 425.608 385.794Z" fill="#FDCF77" stroke="black" stroke-width="1.4" stroke-linecap="round"/>
<path fill-rule="evenodd" clip-rule="evenodd" d="M468.275 350.587L488.428 338.951C489.7 338.217 491.327 338.653 492.061 339.925C492.796 341.197 492.36 342.823 491.088 343.558L470.468 355.462C467.098 357.408 463.379 354.796 463.028 351.523C462.691 348.379 461.722 345.293 460.068 342.427C458.413 339.561 456.225 337.179 453.671 335.315C451.011 333.375 450.608 328.848 453.979 326.902L474.598 314.997C475.871 314.263 477.497 314.699 478.232 315.971C478.966 317.243 478.53 318.869 477.258 319.604L457.105 331.239C460.113 333.493 462.702 336.352 464.674 339.767C466.646 343.183 467.827 346.854 468.275 350.587Z" fill="#FDCF77" stroke="black" stroke-width="1.4" stroke-linecap="round"/>
<path fill-rule="evenodd" clip-rule="evenodd" d="M416.451 331.239L396.298 319.604C395.025 318.869 394.59 317.243 395.324 315.971C396.058 314.699 397.685 314.263 398.957 314.997L419.577 326.902C422.947 328.848 422.545 333.375 419.885 335.315C417.331 337.178 415.143 339.56 413.488 342.427C411.833 345.293 410.864 348.379 410.527 351.523C410.177 354.796 406.458 357.408 403.087 355.462L382.468 343.557C381.196 342.823 380.76 341.197 381.494 339.924C382.229 338.652 383.855 338.217 385.127 338.951L405.28 350.586C405.729 346.854 406.91 343.182 408.881 339.767C410.853 336.352 413.443 333.493 416.451 331.239Z" fill="#FDCF77" stroke="black" stroke-width="1.4" stroke-linecap="round"/>
<path d="M792.46 487.787V600.553C792.46 601.929 791.345 603.045 789.969 603.045C788.593 603.045 787.477 601.929 787.477 600.553V487.787C787.477 486.411 788.593 485.296 789.969 485.296C791.345 485.296 792.46 486.411 792.46 487.787Z" fill="#FDCF77" stroke="black" stroke-width="1.4"/>
<path d="M792.46 113.318V226.084C792.46 227.46 791.345 228.576 789.969 228.576C788.593 228.576 787.477 227.46 787.477 226.084V113.318C787.477 111.942 788.593 110.827 789.969 110.827C791.345 110.827 792.46 111.942 792.46 113.318Z" fill="#FDCF77" stroke="black" stroke-width="1.4"/>
<path d="M337.015 22.1651C337.418 23.481 336.677 24.8739 335.361 25.2761C221.301 60.1448 132.291 152.299 101.954 268.147C101.605 269.478 100.244 270.274 98.9127 269.926C97.5815 269.577 96.785 268.215 97.1336 266.884C127.911 149.356 218.199 55.8823 333.904 20.5109C335.22 20.1086 336.613 20.8492 337.015 22.1651ZM537.596 22.4813C538.002 21.1667 539.397 20.4305 540.712 20.8369C655.908 56.4541 745.739 149.715 776.422 266.884C776.771 268.215 775.974 269.577 774.643 269.926C773.312 270.274 771.95 269.478 771.602 268.147C741.357 152.653 652.799 60.7084 539.24 25.5975C537.925 25.1911 537.189 23.7959 537.596 22.4813ZM99.1823 442.873C100.512 442.52 101.877 443.312 102.229 444.642C132.827 559.999 221.644 651.704 335.361 686.468C336.677 686.87 337.418 688.263 337.016 689.579C336.613 690.895 335.22 691.636 333.904 691.234C218.547 655.968 128.454 562.95 97.4128 445.92C97.0601 444.59 97.8523 443.225 99.1823 442.873ZM774.373 442.873C775.703 443.225 776.496 444.59 776.143 445.92C745.197 562.591 655.561 655.398 540.712 690.907C539.397 691.314 538.002 690.578 537.596 689.263C537.189 687.948 537.925 686.553 539.24 686.147C652.457 651.142 740.823 559.646 771.327 444.642C771.679 443.312 773.043 442.52 774.373 442.873Z" fill="#FDCF77" stroke="black" stroke-width="1.4" stroke-linecap="round"/>
<path fill-rule="evenodd" clip-rule="evenodd" d="M646.352 8V21.8298C646.352 26.5301 650.163 30.3404 654.863 30.3404H686.778C691.478 30.3404 695.289 26.5301 695.289 21.8298V8H703.799V21.8298C703.799 31.2304 696.179 38.8511 686.778 38.8511H654.863C645.462 38.8511 637.842 31.2304 637.842 21.8298V8H646.352Z" fill="#FDCF77" stroke="black" stroke-width="1.4"/>
<path fill-rule="evenodd" clip-rule="evenodd" d="M646.352 705.873V692.043C646.352 687.343 650.163 683.533 654.863 683.533H686.778C691.478 683.533 695.289 687.343 695.289 692.043V705.873H703.799V692.043C703.799 682.643 696.179 675.022 686.778 675.022H654.863C645.462 675.022 637.842 682.643 637.842 692.043V705.873H646.352Z" fill="#FDCF77" stroke="black" stroke-width="1.4"/>
<path fill-rule="evenodd" clip-rule="evenodd" d="M169.757 8V21.8298C169.757 26.5301 173.567 30.3404 178.267 30.3404H210.182C214.883 30.3404 218.693 26.5301 218.693 21.8298V8H227.204V21.8298C227.204 31.2304 219.583 38.8511 210.182 38.8511H178.267C168.867 38.8511 161.246 31.2304 161.246 21.8298V8H169.757Z" fill="#FDCF77" stroke="black" stroke-width="1.4"/>
<path fill-rule="evenodd" clip-rule="evenodd" d="M169.757 705.873V692.043C169.757 687.343 173.567 683.533 178.267 683.533H210.182C214.883 683.533 218.693 687.343 218.693 692.043V705.873H227.204V692.043C227.204 682.643 219.583 675.022 210.182 675.022H178.267C168.867 675.022 161.246 682.643 161.246 692.043V705.873H169.757Z" fill="#FDCF77" stroke="black" stroke-width="1.4"/>
<path fill-rule="evenodd" clip-rule="evenodd" d="M207.535 202.187C210.21 199.045 210.055 194.322 207.079 191.363C203.954 188.257 198.902 188.271 195.795 191.397C194.035 193.167 191.367 196.09 191.042 200.446C190.78 203.944 192.249 207.144 193.064 208.918C193.108 209.015 193.151 209.108 193.191 209.196C198.376 220.576 200.984 231.102 200.299 243.115C200.283 243.393 200.266 243.662 200.247 243.921C195.307 237.489 190.092 227.596 187.709 222.981C186.702 221.032 185.62 219.144 184.512 217.605C183.964 216.842 183.273 215.973 182.446 215.186C181.761 214.533 180.254 213.217 178.013 212.641C176.757 212.318 175.175 212.207 173.475 212.687C171.76 213.172 170.43 214.117 169.484 215.133C167.803 216.938 167.264 219.013 167.052 220.026C166.586 222.255 166.649 224.909 166.858 227.488C167.886 240.189 167.809 251.031 164.867 262.791C163.906 266.633 161.663 272.747 159.035 276.122C158.816 276.403 158.623 276.629 158.457 276.809C158.265 276.61 158.038 276.355 157.777 276.032C152.978 270.099 149.866 262.911 146.507 254.514C146.238 253.841 145.967 253.158 145.693 252.468C142.685 244.901 139.297 236.377 134.125 228.796C131.642 225.156 126.678 224.218 123.038 226.702C119.397 229.185 118.46 234.149 120.943 237.789C125.073 243.842 127.83 250.758 130.979 258.655C131.214 259.244 131.451 259.839 131.691 260.439C135.008 268.735 138.875 278.037 145.369 286.067C148.914 290.45 153.838 293.882 159.957 293.219C165.513 292.617 169.354 288.843 171.626 285.926C176.302 279.92 179.204 271.231 180.347 266.665C182.012 260.012 182.887 253.658 183.234 247.385C185.26 250.529 187.423 253.581 189.577 256.094C191.299 258.104 193.362 260.191 195.678 261.7C197.835 263.104 201.699 264.952 206.185 263.593C210.795 262.198 213.091 258.341 214.217 255.358C215.388 252.257 215.98 248.405 216.23 244.024C217.098 228.809 213.683 215.682 207.712 202.58C207.649 202.441 207.59 202.31 207.535 202.187ZM159.263 277.482C159.263 277.486 159.233 277.474 159.171 277.435C159.232 277.458 159.263 277.478 159.263 277.482ZM199.153 250.035C199.153 250.034 199.161 250.017 199.178 249.987C199.162 250.021 199.153 250.036 199.153 250.035ZM204.478 248.385C204.525 248.407 204.549 248.422 204.55 248.424C204.55 248.425 204.527 248.414 204.478 248.385ZM206.898 200.629C206.895 200.619 206.893 200.614 206.894 200.614C206.894 200.614 206.895 200.619 206.898 200.629Z" fill="black"/>
<path fill-rule="evenodd" clip-rule="evenodd" d="M260.397 195.366C265.533 198.719 268.901 204.122 271.114 208.745C273.253 213.213 275.689 219.329 277.031 225.737C278.329 231.931 278.873 239.634 275.81 246.42C274.375 249.599 272.396 252.696 269.468 254.77C266.154 257.117 262.308 257.661 258.7 256.626C255.524 255.716 253.034 253.74 251.253 251.974C249.395 250.131 247.747 247.947 246.325 245.791C242.688 240.272 239.568 233.408 237.609 228.699C233.499 228.707 230.003 225.559 229.651 221.391C229.616 220.972 229.571 220.51 229.524 220.012C229.231 216.958 228.81 212.574 229.552 208.6C230.6 202.983 233.823 198.01 240.214 194.761C247.493 191.061 254.571 191.562 260.397 195.366ZM245.095 213.014C247.478 213.656 249.532 215.392 250.479 217.874L250.483 217.885C251.444 220.4 255.219 230.289 259.649 237.008C260.284 237.972 260.881 238.789 261.429 239.46C262.277 237.229 262.397 233.705 261.413 229.01C260.414 224.244 258.512 219.378 256.721 215.635C254.944 211.923 253.145 209.688 251.674 208.727C251.065 208.33 250.607 208.211 250.195 208.194C249.762 208.176 248.887 208.253 247.444 208.987C246.318 209.559 245.888 210.039 245.716 210.272C245.545 210.503 245.365 210.848 245.238 211.528C245.163 211.933 245.113 212.418 245.095 213.014Z" fill="black"/>
<path fill-rule="evenodd" clip-rule="evenodd" d="M273.952 184.574C277.89 182.595 282.686 184.183 284.664 188.12C292.116 202.949 299.354 217.881 306.563 232.754C307.791 235.287 309.018 237.819 310.245 240.348C312.169 244.312 310.515 249.085 306.55 251.009C302.586 252.933 297.812 251.278 295.889 247.314C294.656 244.773 293.425 242.234 292.195 239.697C284.984 224.82 277.802 210.003 270.406 195.286C268.427 191.349 270.015 186.553 273.952 184.574Z" fill="black"/>
<path fill-rule="evenodd" clip-rule="evenodd" d="M304.007 194.724C295.727 196.077 285.791 200.606 280.844 202.862C276.835 204.691 272.102 202.923 270.274 198.914C268.446 194.904 270.213 190.172 274.223 188.344C274.364 188.279 274.512 188.212 274.667 188.141C279.482 185.941 291 180.68 301.434 178.976C306.625 178.127 313.354 177.823 318.932 180.979C325.568 184.733 328.027 191.715 327.431 199.596C326.612 210.424 323.698 222.493 317.822 232.794C319.738 233.177 321.495 233.429 322.391 233.558C322.482 233.571 322.564 233.582 322.636 233.593C333.297 235.139 344.139 234.856 355.566 234.558C360.296 234.434 365.127 234.308 370.087 234.308C374.493 234.308 378.065 237.881 378.065 242.287C378.065 246.694 374.493 250.266 370.087 250.266C366.052 250.266 361.778 250.377 357.36 250.492C345.424 250.802 332.445 251.139 320.346 249.385C320.284 249.376 320.204 249.365 320.106 249.351C318.742 249.158 314.041 248.494 309.903 247.284C307.901 246.698 304.876 245.676 302.542 243.83C301.341 242.879 299.421 241.007 298.742 238.005C297.973 234.606 299.196 231.697 300.689 229.789C307.113 221.58 310.66 209.75 311.519 198.393C311.675 196.327 311.378 195.377 311.251 195.082C311.184 194.928 311.169 194.92 311.097 194.88C311.09 194.876 311.083 194.872 311.075 194.868C310.434 194.505 308.341 194.016 304.007 194.724Z" fill="black"/>
<path fill-rule="evenodd" clip-rule="evenodd" d="M376.527 169.472C380.579 167.74 385.268 169.622 386.999 173.674C396.28 195.391 405.152 214.401 418.108 232.864C420.64 236.471 419.767 241.447 416.16 243.978C412.553 246.509 407.577 245.637 405.046 242.03C391.094 222.148 381.695 201.871 372.325 179.944C370.594 175.892 372.475 171.203 376.527 169.472Z" fill="black"/>
<path fill-rule="evenodd" clip-rule="evenodd" d="M418.153 155.364C419.422 159.583 417.029 164.033 412.809 165.301C391.371 171.746 372.27 180.069 352.761 191.188C348.932 193.37 344.06 192.035 341.878 188.207C339.696 184.379 341.031 179.506 344.859 177.324C365.359 165.641 385.565 156.829 408.215 150.02C412.435 148.751 416.885 151.144 418.153 155.364Z" fill="black"/>
<path fill-rule="evenodd" clip-rule="evenodd" d="M422.185 156.249C425.902 153.883 430.834 154.978 433.2 158.695C444.505 176.45 455.375 194.428 464.536 213.828C466.417 217.813 464.713 222.568 460.728 224.45C456.743 226.331 451.988 224.627 450.106 220.642C441.381 202.164 430.942 184.86 419.74 167.265C417.373 163.548 418.468 158.616 422.185 156.249Z" fill="black"/>
<path fill-rule="evenodd" clip-rule="evenodd" d="M473.716 172.667C476.004 176.433 474.806 181.341 471.04 183.629C460.599 189.972 450.625 196.425 440.679 203.519C437.091 206.077 432.108 205.243 429.55 201.656C426.991 198.068 427.825 193.085 431.413 190.527C441.747 183.157 452.059 176.488 462.754 169.991C466.52 167.703 471.428 168.901 473.716 172.667Z" fill="black"/>
<path fill-rule="evenodd" clip-rule="evenodd" d="M455.797 143.777C459.352 141.173 464.345 141.944 466.949 145.498C474.782 156.191 481.195 167.475 487.231 178.515C488.315 180.497 489.385 182.467 490.448 184.425C495.372 193.495 500.153 202.301 505.554 210.843C507.909 214.568 506.799 219.496 503.074 221.851C499.35 224.206 494.422 223.096 492.067 219.371C486.355 210.338 481.271 200.971 476.339 191.885C475.298 189.966 474.263 188.059 473.23 186.17C467.24 175.215 461.247 164.717 454.076 154.929C451.472 151.374 452.242 146.382 455.797 143.777Z" fill="black"/>
<path fill-rule="evenodd" clip-rule="evenodd" d="M493.109 128.187C497.049 126.213 501.843 127.806 503.817 131.746C505.835 135.773 507.87 140.518 509.919 145.295C510.289 146.158 510.659 147.021 511.03 147.881C513.512 153.642 516.103 159.488 519.026 164.973C524.564 175.365 530.558 182.996 537.576 186.466C537.942 186.246 538.378 185.964 538.883 185.614C539.936 184.884 541.001 184.059 542.048 183.24C542.115 183.187 542.183 183.134 542.252 183.08C542.686 182.74 543.14 182.385 543.543 182.079C543.966 181.757 544.574 181.302 545.188 180.922C552.282 176.524 559.213 172.744 567.155 169.605C571.253 167.985 575.888 169.994 577.508 174.092C579.128 178.19 577.119 182.826 573.021 184.445C566.247 187.122 560.193 190.394 553.596 194.484C553.617 194.472 553.628 194.464 553.628 194.465C553.629 194.465 553.508 194.548 553.203 194.78C552.896 195.013 552.544 195.289 552.099 195.637C552.029 195.692 551.956 195.749 551.881 195.808C550.841 196.621 549.451 197.704 547.979 198.725C546.559 199.71 544.742 200.867 542.819 201.686C541.315 202.326 537.706 203.683 533.828 202.219C520.193 197.067 511.278 184.366 504.943 172.478C501.685 166.363 498.873 159.993 496.375 154.196C495.977 153.273 495.589 152.369 495.21 151.485C493.15 146.684 491.337 142.459 489.55 138.895C487.576 134.955 489.169 130.161 493.109 128.187ZM536.463 187.045C536.463 187.045 536.468 187.043 536.477 187.04C536.467 187.044 536.463 187.045 536.463 187.045Z" fill="black"/>
<path fill-rule="evenodd" clip-rule="evenodd" d="M569.723 104.774C573.668 102.81 578.458 104.415 580.422 108.36C583.087 113.714 585.609 119.004 588.099 124.23C592.96 134.428 597.703 144.379 603.17 154.072C604.733 156.843 606.179 157.915 607.47 158.466C608.971 159.107 611.236 159.456 615.076 159.135C616.885 158.983 619.166 158.071 620.655 156.803C621.335 156.225 621.595 155.788 621.67 155.621C620.641 151.363 623.24 147.066 627.498 146.006C631.774 144.941 636.103 147.544 637.168 151.82C639.054 159.398 635.111 165.453 631 168.953C626.921 172.426 621.471 174.613 616.406 175.037C611.367 175.458 606.118 175.242 601.201 173.141C596.074 170.95 592.2 167.104 589.271 161.912C583.545 151.761 578.376 140.921 573.366 130.417C570.934 125.318 568.539 120.297 566.137 115.472C564.173 111.528 565.778 106.738 569.723 104.774Z" fill="black"/>
<path fill-rule="evenodd" clip-rule="evenodd" d="M621.364 115.002C622.597 119.233 620.167 123.662 615.937 124.895C605.553 127.921 596.351 133.174 586.102 139.026C584.233 140.093 582.33 141.179 580.379 142.276C576.537 144.434 571.673 143.07 569.515 139.228C567.356 135.387 568.72 130.523 572.562 128.364C574.3 127.387 576.062 126.378 577.851 125.354C588.051 119.512 599.115 113.176 611.472 109.575C615.703 108.342 620.132 110.772 621.364 115.002Z" fill="black"/>
<path fill-rule="evenodd" clip-rule="evenodd" d="M618.844 80.9628C620.663 84.9765 618.884 89.7046 614.87 91.5234C602.173 97.2773 592.232 106.709 580.962 117.642C577.799 120.711 572.748 120.634 569.68 117.471C566.611 114.308 566.688 109.257 569.851 106.189C580.852 95.5162 592.671 84.0634 608.283 76.9887C612.297 75.1699 617.025 76.9492 618.844 80.9628Z" fill="black"/>
<path fill-rule="evenodd" clip-rule="evenodd" d="M673.082 72.322C674.973 76.302 673.28 81.0616 669.3 82.9528C665.36 84.8246 659.863 87.601 656.009 90.967C654.097 92.6377 653.121 94.006 652.735 94.9484C652.472 95.5891 652.442 96.0197 652.792 96.7757C654.602 100.692 658.599 103.191 665.754 104.76C669.236 105.524 673.016 105.966 676.989 106.352C677.754 106.426 678.537 106.499 679.331 106.573C682.465 106.865 685.758 107.172 688.66 107.629C692.972 108.307 697.037 109.551 700.184 111.904C703.719 114.546 705.789 118.4 705.724 122.845C705.666 126.723 703.992 130.112 702.317 132.637C700.565 135.276 698.273 137.774 695.862 140.03C691.029 144.553 684.929 148.838 679.342 152.144C673.975 155.32 668.152 158.148 663.92 159.073C659.615 160.013 655.362 157.286 654.422 152.981C653.481 148.676 656.209 144.424 660.514 143.483C662.107 143.135 666.088 141.445 671.215 138.411C676.122 135.508 681.205 131.892 684.958 128.38C686.757 126.696 688.07 125.202 688.908 123.98C688.242 123.784 687.351 123.576 686.181 123.392C683.825 123.022 681.202 122.776 678.144 122.49C677.281 122.41 676.383 122.326 675.446 122.235C671.384 121.84 666.805 121.327 662.335 120.347C653.585 118.428 643.305 114.281 638.307 103.473C635.963 98.4019 636.149 93.3361 637.971 88.8938C639.669 84.7531 642.646 81.4517 645.511 78.9489C651.214 73.968 658.573 70.3823 662.451 68.5396C666.431 66.6485 671.191 68.3419 673.082 72.322Z" fill="black"/>
<path fill-rule="evenodd" clip-rule="evenodd" d="M712.262 56.4541C715.866 58.9899 716.732 63.967 714.196 67.5708C710.258 73.1679 710.597 76.9739 712.071 79.9679C713.912 83.7073 718.371 87.7652 725.504 91.3695C726.386 91.8154 728.077 92.3119 730.923 92.7758C732.903 93.0986 734.958 93.3389 737.225 93.6042C738.167 93.7144 739.146 93.8289 740.172 93.9554C743.443 94.3588 747.121 94.8798 750.464 95.8016C753.667 96.6848 757.643 98.2104 760.622 101.329C763.962 104.824 764.467 109.161 764.155 112.411C763.849 115.601 762.709 118.641 761.54 121.087C759.208 125.97 755.738 130.569 753.457 132.874C748.454 137.931 742.587 141.909 736.976 145.326C734.502 146.832 731.988 148.282 729.588 149.666C729.261 149.854 728.936 150.042 728.613 150.228C725.885 151.802 723.315 153.3 720.89 154.831C717.165 157.185 712.237 156.072 709.884 152.347C707.531 148.621 708.643 143.693 712.369 141.34C715.091 139.621 717.909 137.981 720.637 136.407C720.967 136.216 721.296 136.027 721.623 135.838C724.039 134.445 726.378 133.096 728.677 131.696C733.91 128.51 738.475 125.328 742.114 121.65C743.159 120.594 745.589 117.459 747.142 114.209C747.613 113.223 747.908 112.42 748.079 111.812C747.644 111.628 747.042 111.411 746.223 111.185C744.099 110.599 741.43 110.189 738.219 109.793C737.43 109.696 736.594 109.598 735.731 109.497C733.327 109.216 730.717 108.91 728.356 108.525C725.191 108.01 721.478 107.214 718.307 105.612C709.83 101.328 701.809 95.251 697.755 87.0171C693.333 78.0376 694.36 68.0319 701.146 58.388C703.681 54.7842 708.659 53.9184 712.262 56.4541Z" fill="black"/>
<path fill-rule="evenodd" clip-rule="evenodd" d="M215.84 522.021C215.678 528.063 218.337 536.191 221.01 542.595C221.008 542.591 221.009 542.594 221.014 542.605C221.035 542.65 221.121 542.839 221.317 543.239C221.531 543.676 221.818 544.248 222.174 544.949C222.535 545.659 222.957 546.481 223.43 547.396C223.481 547.352 223.532 547.307 223.583 547.263C224.597 546.385 225.667 545.458 226.774 544.443C228.447 542.909 229.556 541.746 230.041 541.079C234.631 534.764 236.237 527.557 235.148 522.781C234.647 520.584 233.628 519.008 232.125 517.904C230.569 516.761 227.825 515.639 223.091 515.639C218.908 515.639 217.58 516.759 217.167 517.205C216.618 517.796 215.917 519.13 215.84 522.021ZM231.336 562.488C231.794 563.359 232.254 564.234 232.713 565.106C235.464 570.339 238.173 575.503 240.168 579.378C241.16 581.306 242.002 582.967 242.589 584.173C242.874 584.758 243.147 585.333 243.354 585.812C243.443 586.017 243.607 586.404 243.751 586.84L243.751 586.842C243.804 587.002 243.986 587.558 244.091 588.274C244.136 588.579 244.257 589.472 244.094 590.599C243.969 591.46 243.318 594.824 239.761 596.604C235.764 598.604 232.151 596.983 230.724 596.166C229.11 595.242 227.785 593.976 226.817 592.941C224.8 590.784 222.666 587.797 220.58 584.581C216.337 578.037 211.396 569.123 206.701 560.19C198.725 545.012 191.09 529.058 188.362 523.357C187.875 522.338 187.544 521.646 187.396 521.346C185.45 517.392 187.078 512.61 191.032 510.664C194.705 508.856 199.094 510.133 201.258 513.495C202.118 510.976 203.455 508.521 205.469 506.351C209.79 501.694 215.97 499.682 223.091 499.682C230.337 499.682 236.641 501.421 241.573 505.044C246.559 508.707 249.468 513.805 250.706 519.232C252.01 524.952 251.507 531.081 249.728 536.918C251.572 536.402 253.442 535.952 255.324 535.586C265.915 533.528 278.561 533.857 288.282 542.427C292.977 546.566 295.463 551.807 295.041 557.609C294.658 562.882 291.949 567.316 289.245 570.583C283.832 577.122 275.67 582.265 271.11 584.773C269.65 585.576 267.209 586.369 265.638 586.879L265.609 586.889C264.559 587.23 263.627 587.525 262.711 587.815C261.67 588.145 260.65 588.467 259.507 588.842C259.325 588.902 259.148 588.96 258.975 589.018C257.515 590.637 255.4 591.655 253.048 591.655C252.522 591.655 251.715 591.636 250.852 591.485C250.432 591.411 249.669 591.252 248.803 590.873C248.072 590.553 246.227 589.632 244.976 587.458C243.438 584.783 243.772 582.001 244.601 580.136C245.281 578.606 246.264 577.672 246.675 577.305C247.56 576.513 248.469 576.039 248.823 575.857C250.359 575.068 252.736 574.269 254.537 573.679C255.548 573.347 256.861 572.93 258.096 572.538C259.066 572.229 259.988 571.937 260.678 571.712C261.996 571.284 262.775 571.006 263.156 570.87C263.423 570.775 263.495 570.749 263.421 570.791C267.471 568.563 273.493 564.587 276.953 560.407C278.685 558.314 279.087 556.989 279.126 556.452C279.126 556.452 279.126 556.451 279.126 556.45C279.137 556.408 279.302 555.783 277.73 554.397C273.432 550.608 266.889 549.595 258.368 551.251C249.989 552.879 241.323 556.821 234.879 560.516C233.44 561.342 232.262 561.999 231.336 562.488ZM228.72 592.175C228.719 592.174 228.716 592.165 228.71 592.151C228.718 592.169 228.721 592.177 228.72 592.175ZM252.983 575.696C252.984 575.696 252.997 575.696 253.021 575.697C252.994 575.697 252.982 575.696 252.983 575.696Z" fill="black"/>
<path fill-rule="evenodd" clip-rule="evenodd" d="M290.549 496.507C294.359 494.293 299.242 495.588 301.455 499.398C311.395 516.51 321.42 532.326 333.701 547.278C336.497 550.683 336.004 555.711 332.599 558.508C329.194 561.304 324.166 560.811 321.369 557.406C308.296 541.489 297.774 524.83 287.657 507.413C285.444 503.603 286.738 498.72 290.549 496.507Z" fill="black"/>
<path fill-rule="evenodd" clip-rule="evenodd" d="M340.204 476.269C343.441 473.279 348.489 473.478 351.479 476.714C360.079 486.02 366.487 496.34 372.407 506.029C372.679 506.475 372.95 506.919 373.22 507.362C378.939 516.729 384.256 525.439 391.028 533.307C393.903 536.647 393.526 541.685 390.186 544.559C386.846 547.434 381.809 547.057 378.934 543.717C371.285 534.831 365.344 525.093 359.784 515.978C359.451 515.432 359.12 514.889 358.789 514.349C352.825 504.587 347.152 495.544 339.76 487.544C336.769 484.308 336.968 479.26 340.204 476.269Z" fill="black"/>
<path fill-rule="evenodd" clip-rule="evenodd" d="M373.07 440.473C374.924 444.471 373.187 449.214 369.189 451.068C347.832 460.974 329.277 474.106 309.283 488.256L308.739 488.641C305.142 491.186 300.162 490.334 297.617 486.737C295.071 483.14 295.924 478.161 299.521 475.615C299.872 475.367 300.224 475.118 300.575 474.869C320.21 460.972 339.789 447.114 362.475 436.592C366.472 434.738 371.216 436.476 373.07 440.473Z" fill="black"/>
<path fill-rule="evenodd" clip-rule="evenodd" d="M436.429 430.295C438.029 434.401 435.998 439.026 431.892 440.626C416.859 446.484 413.894 464.743 425.831 476.157C440.808 490.476 462.524 488.554 484.738 481.641C488.946 480.331 493.418 482.68 494.728 486.888C496.037 491.095 493.688 495.568 489.48 496.877C466.826 503.928 436.771 508.692 414.804 487.691C395.541 469.274 398.791 436.399 426.098 425.758C430.203 424.158 434.829 426.189 436.429 430.295Z" fill="black"/>
<path fill-rule="evenodd" clip-rule="evenodd" d="M529.503 411.621C539.625 415.829 548.911 422.809 554.906 431.454C560.952 440.171 562.788 450.382 559.281 459.415C555.735 468.547 547.366 474.839 536.393 476.865C523.127 479.315 513.511 472.072 507.562 463.923C501.705 455.901 498.355 445.829 496.86 438.49C495.981 434.173 498.769 429.959 503.087 429.08C507.405 428.201 511.618 430.989 512.497 435.306C513.717 441.3 516.401 448.968 520.45 454.514C524.406 459.933 528.565 462.084 533.495 461.173C540.039 459.965 543.209 456.721 544.405 453.64C545.64 450.459 545.421 445.778 541.794 440.547C537.796 434.784 531.126 429.577 523.377 426.356C515.623 423.132 507.546 422.203 500.81 423.968C496.24 425.165 494.275 426.903 493.34 428.246C492.363 429.65 491.776 431.68 491.917 434.743C492.219 441.324 495.637 449.358 499.123 456.89C500.974 460.889 499.232 465.631 495.233 467.482C491.234 469.333 486.492 467.591 484.641 463.592C481.392 456.571 476.446 445.705 475.976 435.475C475.731 430.133 476.657 424.281 480.243 419.13C483.871 413.918 489.519 410.429 496.767 408.531C507.679 405.673 519.386 407.415 529.503 411.621Z" fill="black"/>
<path fill-rule="evenodd" clip-rule="evenodd" d="M549.496 393.718C553.083 391.159 558.066 391.993 560.625 395.58C563.043 398.97 565.472 402.85 567.849 406.683C568.1 407.089 568.351 407.494 568.602 407.899C570.77 411.399 572.928 414.883 575.181 418.249C580.343 425.963 585.263 431.878 590.202 434.893C593.963 437.189 595.151 442.099 592.855 445.86C590.559 449.621 585.649 450.809 581.888 448.513C573.74 443.539 567.195 435.008 561.919 427.125C559.499 423.509 557.189 419.778 555.04 416.309C554.787 415.9 554.536 415.494 554.287 415.092C551.882 411.214 549.71 407.757 547.634 404.847C545.075 401.26 545.909 396.278 549.496 393.718Z" fill="black"/>
<path fill-rule="evenodd" clip-rule="evenodd" d="M643.799 344.934C646.145 341.261 645.11 336.374 641.457 333.973C637.775 331.552 632.828 332.575 630.407 336.257C626.83 341.698 627.554 348.09 628.752 352.722C630.026 357.653 632.422 362.819 634.879 367.48C636.99 371.484 639.349 375.483 641.405 378.97C641.766 379.583 642.118 380.179 642.458 380.758C644.903 384.92 646.467 387.733 647.095 389.396C647.51 390.495 647.791 391.407 647.974 392.147C647.473 392.086 646.892 391.993 646.226 391.856C641.869 390.963 638.022 388.544 633.6 384.844C632.044 383.543 630.583 382.23 629.008 380.815C628.285 380.166 627.539 379.496 626.749 378.795C624.352 376.669 621.7 374.405 618.788 372.375C618.253 372.003 617.414 371.554 617.027 371.347C617.005 371.335 616.984 371.324 616.964 371.314C616.323 370.97 615.47 370.525 614.479 370.025C612.51 369.032 609.901 367.774 607.264 366.658C606.695 366.417 606.096 366.17 605.48 365.927C604.47 361.819 600.398 359.188 596.201 360.009C593.201 360.596 590.925 362.794 590.095 365.529C589.614 365.893 589.139 366.33 588.693 366.853C587.109 368.714 586.576 370.871 586.576 372.675C586.576 376.158 587.602 379.558 588.717 382.381C589.869 385.295 591.377 388.228 592.838 390.895C593.271 391.685 593.755 392.549 594.249 393.424C596.663 406.321 599.687 419.643 604.904 431.826C605.07 432.214 605.426 432.985 606.068 433.801C606.594 434.471 608.23 436.349 611.183 436.817C614.638 437.365 617.108 435.621 618.226 434.476C619.24 433.438 619.73 432.376 619.916 431.947C620.555 430.474 620.709 428.9 620.756 428.423C620.757 428.407 620.759 428.392 620.76 428.378C620.897 427 620.957 424.918 620.735 423.341C619.562 415.018 617.919 406.658 614.731 398.253C613.791 395.774 612.386 393.118 611.047 390.708C610.488 389.701 609.975 388.798 609.478 387.926C609.311 387 609.145 386.072 608.979 385.141C609.144 385.228 609.296 385.309 609.433 385.382C609.678 385.513 609.833 385.599 609.919 385.646C611.959 387.092 613.975 388.795 616.162 390.735C616.783 391.285 617.435 391.87 618.108 392.475C619.779 393.976 621.58 395.594 623.359 397.083C628.466 401.356 634.778 405.799 643.022 407.489C646.364 408.174 649.759 408.466 652.917 407.893C656.246 407.289 659.624 405.635 661.881 402.313C664.018 399.167 664.392 395.625 664.185 392.701C663.977 389.755 663.138 386.71 662.023 383.758C660.812 380.551 658.437 376.455 656.217 372.676C655.852 372.055 655.484 371.429 655.112 370.799C653.049 367.3 650.913 363.675 648.995 360.038C646.708 355.699 645.006 351.84 644.201 348.729C643.481 345.942 643.794 344.987 643.799 344.934ZM604.85 427.028C604.849 427.025 604.855 426.97 604.873 426.875C604.861 426.984 604.852 427.032 604.85 427.028ZM648.271 394.275C648.271 394.275 648.271 394.266 648.274 394.25C648.273 394.267 648.271 394.275 648.271 394.275Z" fill="black"/>
<path fill-rule="evenodd" clip-rule="evenodd" d="M720.843 304.103C722.808 308.047 721.203 312.837 717.258 314.802C714.679 316.087 709.261 319.866 702.938 325.268C696.748 330.558 690.309 336.875 685.597 342.841C683.238 345.829 681.468 348.534 680.36 350.821C679.433 352.735 679.187 353.912 679.139 354.475C679.923 354.897 681.964 355.593 686.239 355.699C687.332 355.725 689.959 355.427 694.289 354.934C694.941 354.86 695.632 354.781 696.362 354.699C701.44 354.125 707.713 353.465 713.676 353.305C719.36 353.153 725.917 353.398 731.01 355.296C733.631 356.272 736.789 358.022 738.86 361.293C741.109 364.847 741.236 368.833 740.221 372.411C735.232 390.014 721.382 407.672 705.99 417.022C704.288 418.056 702.372 419.02 700.783 419.82C700.504 419.961 700.235 420.097 699.978 420.227C698.075 421.193 696.641 421.967 695.525 422.75C694.619 423.386 694.259 423.802 694.138 423.968C694.142 424.017 694.152 424.085 694.17 424.175C695.037 428.495 692.238 432.701 687.917 433.568C683.597 434.435 679.392 431.636 678.524 427.316C677.73 423.358 678.31 419.625 680.098 416.367C681.768 413.324 684.216 411.192 686.358 409.689C688.503 408.183 690.857 406.961 692.758 405.996C693.097 405.824 693.421 405.661 693.731 405.504C695.338 404.693 696.591 404.06 697.705 403.383C709.242 396.375 720.001 382.927 724.3 369.91C722.134 369.392 718.69 369.134 714.104 369.257C708.889 369.397 703.216 369.983 698.155 370.555C697.492 370.63 696.819 370.708 696.145 370.786C692.176 371.244 688.155 371.708 685.847 371.651C680.14 371.511 674.94 370.554 670.855 368.118C666.309 365.408 663.665 361.152 663.235 356.161C662.852 351.726 664.272 347.429 665.999 343.864C667.786 340.176 670.297 336.468 673.074 332.952C678.635 325.908 685.892 318.844 692.572 313.136C699.121 307.541 705.749 302.707 710.144 300.518C714.088 298.554 718.878 300.159 720.843 304.103ZM725.965 370.488C725.964 370.488 725.956 370.483 725.941 370.472C725.958 370.482 725.965 370.487 725.965 370.488ZM694.133 423.872C694.134 423.872 694.134 423.874 694.133 423.879C694.133 423.874 694.133 423.872 694.133 423.872Z" fill="black"/>
<path fill-rule="evenodd" clip-rule="evenodd" d="M445.114 593.81C444.789 594.199 444.502 594.544 444.257 594.833C441.407 598.193 436.373 598.607 433.012 595.757C429.651 592.907 429.237 587.872 432.087 584.512C432.223 584.351 432.415 584.119 432.657 583.826C434.545 581.541 439.458 575.594 444.405 571.639C445.863 570.473 447.549 569.29 449.371 568.384C451.112 567.518 453.583 566.599 456.426 566.713C459.658 566.843 462.675 568.293 464.828 570.972C466.732 573.341 467.582 576.191 467.99 578.763C469.147 586.072 467.729 592.883 466.028 598.665C465.32 601.07 464.507 603.472 463.758 605.683C463.61 606.121 463.464 606.551 463.322 606.972C462.773 608.603 462.269 610.134 461.83 611.606C466.08 610.162 469.477 607.039 473.353 602.033C476.051 598.549 481.062 597.911 484.546 600.609C488.031 603.307 488.668 608.318 485.97 611.802C480.091 619.395 472.509 626.796 460.086 628.255C455.828 628.755 449.745 628.161 446.506 622.52C443.982 618.122 444.939 613.12 445.611 610.42C446.349 607.452 447.3 604.549 448.199 601.879C448.36 601.403 448.518 600.935 448.673 600.475C449.42 598.269 450.111 596.227 450.719 594.161C451.621 591.097 452.215 588.364 452.396 585.822C449.556 588.479 446.824 591.758 445.114 593.81ZM456.738 582.558C456.737 582.559 456.724 582.564 456.698 582.572C456.725 582.561 456.738 582.558 456.738 582.558ZM460.818 615.951C460.818 615.951 460.817 615.943 460.817 615.926C460.818 615.942 460.818 615.951 460.818 615.951Z" fill="black"/>
<path fill-rule="evenodd" clip-rule="evenodd" d="M512.926 544.552C518.512 546.212 524.399 549.78 527.658 555.829C530.905 561.855 530.558 569.256 529.239 574.98C527.892 580.826 525.034 587.11 520.784 591.242C517.797 594.146 514.57 596.581 511.052 597.793C507.125 599.145 502.941 598.901 499.283 596.552C496.093 594.503 494.172 591.392 492.95 588.806C491.673 586.107 490.723 583.027 489.948 580.015C489.474 578.17 489.685 576.31 490.422 574.704C489.017 573.806 487.88 572.461 487.251 570.779C487.174 570.573 487.089 570.35 486.997 570.11C486.018 567.54 484.337 563.125 484.455 558.841C484.53 556.121 485.292 553.121 487.37 550.408C489.389 547.771 492.167 546.037 495.182 544.897C500.823 542.764 507.321 542.887 512.926 544.552ZM501.977 571.308C503.617 572.357 504.88 574.006 505.403 576.041C506.055 578.575 506.686 580.484 507.307 581.836C507.907 581.395 508.689 580.746 509.661 579.8C511.013 578.486 512.774 575.367 513.689 571.397C514.632 567.303 514.19 564.474 513.61 563.398C512.952 562.177 511.262 560.705 508.381 559.849C505.519 558.998 502.66 559.129 500.825 559.823C500.695 559.872 500.581 559.918 500.482 559.962C500.537 560.26 500.629 560.659 500.781 561.178C501.088 562.228 501.497 563.321 502.03 564.744C502.085 564.889 502.14 565.037 502.197 565.189C502.971 567.258 502.83 569.446 501.977 571.308ZM499.876 560.289C499.876 560.288 499.879 560.286 499.886 560.28C499.88 560.286 499.877 560.289 499.876 560.289Z" fill="black"/>
<path fill-rule="evenodd" clip-rule="evenodd" d="M538.188 518.051C542.437 516.884 546.828 519.382 547.995 523.631C549.262 528.244 550.473 532.809 551.674 537.336C554.528 548.089 557.323 558.624 560.665 569.055C562.01 573.251 559.698 577.743 555.502 579.087C551.305 580.432 546.813 578.12 545.469 573.924C541.997 563.087 539.036 551.93 536.138 541.01C534.961 536.574 533.794 532.178 532.607 527.857C531.44 523.608 533.939 519.218 538.188 518.051Z" fill="black"/>
<path fill-rule="evenodd" clip-rule="evenodd" d="M608.117 504.805C614.722 507.056 618.667 512.966 620.402 519.237C622.362 526.323 621.928 535.165 620.084 543.034C618.253 550.847 614.665 559.267 608.879 564.793C606.789 566.788 604.179 568.263 601.111 568.7C598.084 569.13 595.353 568.445 593.152 567.406C589.053 565.472 585.863 561.884 583.635 558.888C578.994 552.646 575.502 544.754 574.348 541.768C572.937 538.121 574.388 534.071 577.605 532.095C578.831 524.282 581.838 516.041 589.099 509.679C594.448 504.992 601.293 502.48 608.117 504.805ZM592.75 543.473C593.839 545.479 595.097 547.56 596.44 549.366C597.427 550.693 598.253 551.585 598.873 552.155C601.14 549.417 603.259 544.894 604.547 539.394C606.014 533.136 606.04 527.171 605.022 523.491C604.601 521.97 604.06 521.024 603.637 520.498C603.238 520 602.985 519.915 602.97 519.91L602.97 519.91C602.952 519.904 602.921 519.895 602.857 519.894C602.789 519.893 602.637 519.9 602.386 519.971C601.871 520.116 600.916 520.54 599.615 521.681C594.245 526.386 592.844 533.768 592.75 543.473Z" fill="black"/>
</svg>
