<svg width="801" height="504" viewBox="0 0 801 504" fill="none" xmlns="http://www.w3.org/2000/svg">
<path fill-rule="evenodd" clip-rule="evenodd" d="M7.21581 28.6445C7.21581 12.8246 20.0404 0 35.8603 0H764.249C780.069 0 792.894 12.8246 792.894 28.6445V314.383C797.197 317.101 800.055 321.9 800.055 327.366V447.059C800.055 452.525 797.197 457.324 792.894 460.042V474.68C792.894 490.5 780.069 503.325 764.249 503.325H35.8603C20.0404 503.325 7.21581 490.5 7.21581 474.68V460.042C2.91266 457.324 0.0546875 452.525 0.0546875 447.059V327.366C0.0546875 321.9 2.91266 317.101 7.21581 314.383V28.6445ZM15.4 320.205C11.445 320.205 8.23883 323.411 8.23883 327.366V447.059C8.23883 451.014 11.445 454.22 15.4 454.22V474.68C15.4 485.98 24.5604 495.141 35.8603 495.141H764.249C775.549 495.141 784.709 485.98 784.709 474.68V454.22C788.664 454.22 791.871 451.014 791.871 447.059V327.366C791.871 323.411 788.664 320.205 784.709 320.205V28.6445C784.709 17.3446 775.549 8.18414 764.249 8.18414H35.8603C24.5604 8.18414 15.4 17.3446 15.4 28.6445V320.205Z" fill="#03464C"/>
<path d="M15.4004 28.6439C15.4004 17.344 24.5608 8.18359 35.8607 8.18359H764.25C775.549 8.18359 784.71 17.344 784.71 28.644V474.68C784.71 485.98 775.549 495.14 764.25 495.14H35.8608C24.5608 495.14 15.4004 485.98 15.4004 474.68V28.6439Z" fill="#03464C"/>
<path fill-rule="evenodd" clip-rule="evenodd" d="M14.6992 28.6447C14.6992 16.9582 24.173 7.48438 35.8596 7.48438H764.248C775.935 7.48438 785.409 16.9582 785.409 28.6447V474.681C785.409 486.367 775.935 495.841 764.248 495.841H35.8596C24.1731 495.841 14.6992 486.367 14.6992 474.681V28.6447ZM35.8596 8.88437C24.9462 8.88437 16.0992 17.7314 16.0992 28.6447V474.681C16.0992 485.594 24.9463 494.441 35.8596 494.441H764.248C775.162 494.441 784.009 485.594 784.009 474.681V28.6447C784.009 17.7314 775.162 8.88437 764.248 8.88437H35.8596Z" fill="#F8F4E9"/>
<path d="M80.5211 45.3639C82.056 43.829 84.1376 42.9668 86.3082 42.9668H713.799C715.97 42.9668 718.052 43.8291 719.586 45.3639L747.529 73.3063C749.064 74.8411 749.926 76.9228 749.926 79.0934V366.24C749.926 367.37 749.01 368.286 747.88 368.286H52.2277C51.0977 368.286 50.1816 367.37 50.1816 366.24V79.0934C50.1816 76.9228 51.0439 74.8411 52.5787 73.3063L80.5211 45.3639Z" fill="#03464C"/>
<path fill-rule="evenodd" clip-rule="evenodd" d="M86.309 43.6676C84.3241 43.6676 82.4204 44.4561 81.0169 45.8596L53.0745 73.802C51.6709 75.2056 50.8824 77.1092 50.8824 79.0941V366.241C50.8824 366.985 51.4851 367.587 52.2284 367.587H747.881C748.624 367.587 749.227 366.985 749.227 366.241V79.0941C749.227 77.1092 748.438 75.2056 747.035 73.802L719.092 45.8596C717.689 44.4561 715.785 43.6676 713.8 43.6676H86.309ZM80.0269 44.8697C81.693 43.2036 83.9528 42.2676 86.309 42.2676H713.8C716.156 42.2676 718.416 43.2036 720.082 44.8697L748.025 72.8121C749.691 74.4782 750.627 76.7379 750.627 79.0941V366.241C750.627 367.758 749.397 368.987 747.881 368.987H52.2284C50.7119 368.987 49.4824 367.758 49.4824 366.241V79.0941C49.4824 76.7379 50.4184 74.4782 52.0845 72.8121L80.0269 44.8697Z" fill="#F8F4E9"/>
<path d="M83.5907 51.5025C85.1256 49.9677 87.2072 49.1055 89.3778 49.1055H710.731C712.901 49.1055 714.983 49.9677 716.518 51.5025L741.391 76.3759C742.926 77.9107 743.788 79.9924 743.788 82.163V360.103C743.788 361.233 742.872 362.149 741.742 362.149H58.3663C57.2363 362.149 56.3203 361.233 56.3203 360.103V82.163C56.3203 79.9924 57.1826 77.9107 58.7174 76.3759L83.5907 51.5025Z" fill="#03464C"/>
<path fill-rule="evenodd" clip-rule="evenodd" d="M89.3786 49.8043C87.3937 49.8043 85.4901 50.5928 84.0865 51.9964L59.2131 76.8697C57.8096 78.2733 57.0211 80.1769 57.0211 82.1618V360.102C57.0211 360.845 57.6237 361.448 58.3671 361.448H741.743C742.487 361.448 743.089 360.845 743.089 360.102V82.1618C743.089 80.1769 742.301 78.2733 740.897 76.8697L716.024 51.9964C714.62 50.5928 712.717 49.8043 710.732 49.8043H89.3786ZM83.0966 51.0064C84.7627 49.3403 87.0224 48.4043 89.3786 48.4043H710.732C713.088 48.4043 715.348 49.3403 717.014 51.0064L741.887 75.8798C743.553 77.5459 744.489 79.8056 744.489 82.1618V360.102C744.489 361.618 743.26 362.848 741.743 362.848H58.3671C56.8505 362.848 55.6211 361.618 55.6211 360.102V82.1618C55.6211 79.8056 56.5571 77.5459 58.2232 75.8798L83.0966 51.0064Z" fill="#F8F4E9"/>
<path d="M176.014 228.133C176.014 194.233 203.495 166.752 237.395 166.752H560.668C594.568 166.752 622.049 194.233 622.049 228.133V228.133C622.049 262.033 594.568 289.514 560.668 289.514H237.395C203.495 289.514 176.014 262.033 176.014 228.133V228.133Z" fill="#03464C"/>
<path fill-rule="evenodd" clip-rule="evenodd" d="M175.314 228.134C175.314 193.847 203.109 166.053 237.396 166.053H560.669C594.956 166.053 622.75 193.847 622.75 228.134C622.75 262.42 594.956 290.215 560.669 290.215H237.396C203.109 290.215 175.314 262.42 175.314 228.134ZM237.396 167.453C203.882 167.453 176.714 194.621 176.714 228.134C176.714 261.647 203.882 288.815 237.396 288.815H560.669C594.182 288.815 621.35 261.647 621.35 228.134C621.35 194.621 594.182 167.453 560.669 167.453H237.396Z" fill="#F8F4E9"/>
<path d="M154.166 387.032C154.975 383.258 158.309 380.562 162.169 380.562H635.893C639.752 380.562 643.087 383.258 643.895 387.032L667.061 495.141H131L154.166 387.032Z" fill="#03464C"/>
<path fill-rule="evenodd" clip-rule="evenodd" d="M153.482 386.886C154.36 382.79 157.98 379.863 162.169 379.863H635.893C640.083 379.863 643.703 382.79 644.58 386.886L667.928 495.841H130.135L153.482 386.886ZM162.169 381.263C158.64 381.263 155.591 383.729 154.851 387.179L131.867 494.441H666.196L643.211 387.179C642.472 383.729 639.422 381.263 635.893 381.263H162.169Z" fill="#F8F4E9"/>
<path d="M182.152 228.134C182.152 197.624 206.885 172.891 237.395 172.891H560.669C591.179 172.891 615.912 197.624 615.912 228.134V228.134C615.912 258.643 591.179 283.377 560.669 283.377H237.395C206.885 283.377 182.152 258.643 182.152 228.134V228.134Z" fill="#03464C"/>
<path fill-rule="evenodd" clip-rule="evenodd" d="M181.451 228.132C181.451 197.236 206.498 172.189 237.394 172.189H560.668C591.564 172.189 616.611 197.236 616.611 228.132C616.611 259.029 591.564 284.075 560.668 284.075H237.394C206.498 284.075 181.451 259.029 181.451 228.132ZM237.394 173.589C207.271 173.589 182.851 198.009 182.851 228.132C182.851 258.256 207.271 282.675 237.394 282.675H560.668C590.791 282.675 615.211 258.256 615.211 228.132C615.211 198.009 590.791 173.589 560.668 173.589H237.394Z" fill="#F8F4E9"/>
<path d="M318.213 188.235C318.213 186.54 319.587 185.166 321.282 185.166H476.781C478.476 185.166 479.85 186.54 479.85 188.235V232.225C479.85 233.92 478.476 235.294 476.781 235.294H321.282C319.587 235.294 318.213 233.92 318.213 232.225V188.235Z" fill="#03464C"/>
<path fill-rule="evenodd" clip-rule="evenodd" d="M317.514 188.236C317.514 186.154 319.201 184.467 321.283 184.467H476.781C478.863 184.467 480.551 186.154 480.551 188.236V232.226C480.551 234.307 478.863 235.995 476.781 235.995H321.283C319.201 235.995 317.514 234.307 317.514 232.226V188.236ZM321.283 185.867C319.974 185.867 318.914 186.927 318.914 188.236V232.226C318.914 233.534 319.974 234.595 321.283 234.595H476.781C478.09 234.595 479.151 233.534 479.151 232.226V188.236C479.151 186.927 478.09 185.867 476.781 185.867H321.283Z" fill="#F8F4E9"/>
<path d="M784.709 320.205V320.205C788.664 320.205 791.87 323.411 791.87 327.366V447.059C791.87 451.014 788.664 454.22 784.709 454.22V454.22V320.205Z" fill="#03464C"/>
<path fill-rule="evenodd" clip-rule="evenodd" d="M785.41 320.941V453.482C788.649 453.133 791.171 450.39 791.171 447.058V327.365C791.171 324.033 788.649 321.29 785.41 320.941ZM784.71 454.219V454.919C789.051 454.919 792.571 451.4 792.571 447.058V327.365C792.571 323.023 789.051 319.504 784.71 319.504V320.204H784.01V454.219H784.71Z" fill="#F8F4E9"/>
<path d="M8.05469 320C8.05469 316.134 11.1887 313 15.0547 313V313V444V444C11.1887 444 8.05469 440.866 8.05469 437V320Z" fill="#03464C"/>
<path fill-rule="evenodd" clip-rule="evenodd" d="M7.35547 320.001C7.35547 315.748 10.8029 312.301 15.0555 312.301V313.001H15.7555V444.001H15.0555V444.701C10.8029 444.701 7.35547 441.253 7.35547 437.001V320.001ZM14.3555 443.262V313.739C11.2055 314.087 8.75547 316.758 8.75547 320.001V437.001C8.75547 440.244 11.2055 442.914 14.3555 443.262Z" fill="#F8F4E9"/>
<path d="M286.499 228.132C286.499 255.252 264.514 277.237 237.394 277.237C210.274 277.237 188.289 255.252 188.289 228.132C188.289 201.012 210.274 179.027 237.394 179.027C264.514 179.027 286.499 201.012 286.499 228.132Z" fill="#03464C"/>
<path fill-rule="evenodd" clip-rule="evenodd" d="M237.395 179.728C210.661 179.728 188.99 201.4 188.99 228.133C188.99 254.866 210.661 276.538 237.395 276.538C264.128 276.538 285.8 254.866 285.8 228.133C285.8 201.4 264.128 179.728 237.395 179.728ZM187.59 228.133C187.59 200.627 209.888 178.328 237.395 178.328C264.901 178.328 287.2 200.627 287.2 228.133C287.2 255.639 264.901 277.938 237.395 277.938C209.888 277.938 187.59 255.639 187.59 228.133Z" fill="#F8F4E9"/>
<path fill-rule="evenodd" clip-rule="evenodd" d="M336.373 235.294C336.541 232.929 336.627 230.541 336.627 228.133C336.627 212.741 333.123 198.167 326.868 185.166H321.282C319.587 185.166 318.213 186.54 318.213 188.235V232.225C318.213 233.92 319.587 235.294 321.282 235.294H336.373Z" fill="#03464C"/>
<path fill-rule="evenodd" clip-rule="evenodd" d="M317.514 188.236C317.514 186.154 319.201 184.467 321.283 184.467H327.309L327.5 184.863C333.799 197.957 337.328 212.634 337.328 228.134C337.328 230.558 337.242 232.963 337.072 235.344L337.025 235.995H321.283C319.201 235.995 317.514 234.307 317.514 232.226V188.236ZM321.283 185.867C319.974 185.867 318.914 186.927 318.914 188.236V232.226C318.914 233.534 319.974 234.595 321.283 234.595H335.72C335.858 232.459 335.928 230.304 335.928 228.134C335.928 213.005 332.519 198.675 326.428 185.867H321.283Z" fill="#F8F4E9"/>
<path d="M609.774 228.132C609.774 255.252 587.789 277.237 560.669 277.237C533.549 277.237 511.564 255.252 511.564 228.132C511.564 201.012 533.549 179.027 560.669 179.027C587.789 179.027 609.774 201.012 609.774 228.132Z" fill="#03464C"/>
<path fill-rule="evenodd" clip-rule="evenodd" d="M560.668 179.728C533.935 179.728 512.263 201.4 512.263 228.133C512.263 254.866 533.935 276.538 560.668 276.538C587.401 276.538 609.073 254.866 609.073 228.133C609.073 201.4 587.401 179.728 560.668 179.728ZM510.863 228.133C510.863 200.627 533.162 178.328 560.668 178.328C588.175 178.328 610.473 200.627 610.473 228.133C610.473 255.639 588.175 277.938 560.668 277.938C533.162 277.938 510.863 255.639 510.863 228.133Z" fill="#F8F4E9"/>
<path fill-rule="evenodd" clip-rule="evenodd" d="M381.781 235.294C381.688 232.918 381.641 230.531 381.641 228.133C381.641 213.322 383.439 198.931 386.83 185.166H476.781C478.476 185.166 479.85 186.54 479.85 188.235V232.225C479.85 233.92 478.476 235.294 476.781 235.294H381.781Z" fill="#03464C"/>
<path fill-rule="evenodd" clip-rule="evenodd" d="M386.28 184.467H476.78C478.862 184.467 480.549 186.154 480.549 188.236V232.226C480.549 234.307 478.862 235.995 476.78 235.995H381.107L381.081 235.322C380.987 232.938 380.939 230.541 380.939 228.134C380.939 213.266 382.745 198.818 386.149 184.999L386.28 184.467ZM387.378 185.867C384.085 199.415 382.339 213.57 382.339 228.134C382.339 230.296 382.378 232.45 382.454 234.595H476.78C478.089 234.595 479.149 233.534 479.149 232.226V188.236C479.149 186.927 478.089 185.867 476.78 185.867H387.378Z" fill="#F8F4E9"/>
<path fill-rule="evenodd" clip-rule="evenodd" d="M560.668 271.1C584.398 271.1 603.635 251.863 603.635 228.133C603.635 204.403 584.398 185.166 560.668 185.166C536.938 185.166 517.701 204.403 517.701 228.133C517.701 251.863 536.938 271.1 560.668 271.1ZM593.029 240.91C594.592 236.954 595.451 232.644 595.451 228.133C595.451 223.622 594.592 219.311 593.029 215.356L584.488 220.286L579.373 211.427L587.907 206.5C582.538 199.749 574.713 195.04 565.783 193.724V203.58H555.553V193.724C546.623 195.04 538.798 199.749 533.429 206.5L541.962 211.427L536.847 220.286L528.307 215.356C526.744 219.311 525.885 223.622 525.885 228.133C525.885 232.644 526.744 236.954 528.307 240.91L536.847 235.979L541.962 244.839L533.429 249.765C538.798 256.516 546.623 261.226 555.553 262.542V252.685H565.783V262.542C574.713 261.226 582.538 256.516 587.907 249.765L579.373 244.839L584.488 235.979L593.029 240.91Z" fill="#03464C"/>
<path fill-rule="evenodd" clip-rule="evenodd" d="M560.669 185.867C537.325 185.867 518.402 204.79 518.402 228.134C518.402 251.477 537.325 270.4 560.669 270.4C584.012 270.4 602.935 251.477 602.935 228.134C602.935 204.79 584.012 185.867 560.669 185.867ZM517.002 228.134C517.002 204.017 536.552 184.467 560.669 184.467C584.785 184.467 604.335 204.017 604.335 228.134C604.335 252.25 584.785 271.8 560.669 271.8C536.552 271.8 517.002 252.25 517.002 228.134ZM565.084 192.914L565.886 193.032C574.997 194.375 582.98 199.18 588.455 206.065L588.961 206.701L580.33 211.684L584.745 219.331L593.382 214.344L593.68 215.099C595.275 219.135 596.151 223.533 596.151 228.134C596.151 232.734 595.275 237.132 593.68 241.168L593.382 241.923L584.745 236.936L580.33 244.583L588.961 249.566L588.455 250.202C582.98 257.087 574.997 261.892 565.886 263.235L565.084 263.353V253.386H556.254V263.353L555.452 263.235C546.34 261.892 538.358 257.087 532.882 250.202L532.376 249.566L541.007 244.583L536.592 236.936L527.955 241.923L527.657 241.168C526.062 237.132 525.186 232.734 525.186 228.134C525.186 223.533 526.062 219.135 527.657 215.099L527.955 214.344L536.592 219.331L541.007 211.684L532.376 206.701L532.882 206.065C538.358 199.18 546.34 194.375 555.452 193.032L556.254 192.914V202.881H565.084V192.914ZM566.484 194.545V204.281H554.854V194.545C546.718 195.943 539.567 200.226 534.492 206.306L542.919 211.171L537.104 221.243L528.669 216.373C527.322 220.038 526.586 223.999 526.586 228.134C526.586 232.268 527.322 236.229 528.669 239.894L537.104 235.024L542.919 245.096L534.492 249.961C539.567 256.041 546.718 260.324 554.854 261.722V251.986H566.484V261.722C574.62 260.324 581.771 256.041 586.846 249.961L578.418 245.096L584.233 235.024L592.668 239.894C594.015 236.229 594.751 232.268 594.751 228.134C594.751 223.999 594.015 220.038 592.668 216.373L584.233 221.243L578.418 211.171L586.846 206.306C581.771 200.226 574.62 195.943 566.484 194.545Z" fill="#F8F4E9"/>
<path fill-rule="evenodd" clip-rule="evenodd" d="M237.394 271.1C261.124 271.1 280.361 251.863 280.361 228.133C280.361 204.403 261.124 185.166 237.394 185.166C213.665 185.166 194.428 204.403 194.428 228.133C194.428 251.863 213.665 271.1 237.394 271.1ZM269.755 240.91C271.318 236.954 272.177 232.644 272.177 228.133C272.177 223.622 271.318 219.311 269.755 215.356L261.215 220.286L256.1 211.427L264.633 206.5C259.265 199.749 251.439 195.04 242.51 193.724V203.58H232.279V193.724C223.35 195.04 215.524 199.749 210.156 206.5L218.689 211.427L213.574 220.286L205.034 215.356C203.471 219.311 202.612 223.622 202.612 228.133C202.612 232.644 203.471 236.954 205.034 240.91L213.574 235.979L218.689 244.839L210.156 249.765C215.524 256.516 223.35 261.226 232.279 262.542V252.685H242.51V262.542C251.439 261.226 259.265 256.516 264.633 249.765L256.1 244.839L261.215 235.979L269.755 240.91Z" fill="#03464C"/>
<path fill-rule="evenodd" clip-rule="evenodd" d="M237.395 185.867C214.052 185.867 195.129 204.79 195.129 228.134C195.129 251.477 214.052 270.4 237.395 270.4C260.739 270.4 279.662 251.477 279.662 228.134C279.662 204.79 260.739 185.867 237.395 185.867ZM193.729 228.134C193.729 204.017 213.279 184.467 237.395 184.467C261.512 184.467 281.062 204.017 281.062 228.134C281.062 252.25 261.512 271.8 237.395 271.8C213.279 271.8 193.729 252.25 193.729 228.134ZM241.81 192.914L242.612 193.032C251.724 194.375 259.706 199.18 265.182 206.065L265.688 206.701L257.057 211.684L261.472 219.331L270.109 214.344L270.407 215.099C272.002 219.135 272.878 223.533 272.878 228.134C272.878 232.734 272.002 237.132 270.407 241.168L270.109 241.923L261.472 236.936L257.057 244.583L265.688 249.566L265.182 250.202C259.706 257.087 251.724 261.892 242.612 263.235L241.81 263.353V253.386H232.98V263.353L232.178 263.235C223.067 261.892 215.084 257.087 209.609 250.202L209.103 249.566L217.734 244.583L213.318 236.936L204.682 241.923L204.383 241.168C202.789 237.132 201.913 232.734 201.913 228.134C201.913 223.533 202.789 219.135 204.383 215.099L204.682 214.344L213.318 219.331L217.734 211.684L209.103 206.701L209.609 206.065C215.084 199.18 223.067 194.375 232.178 193.032L232.98 192.914V202.881H241.81V192.914ZM243.21 194.545V204.281H231.58V194.545C223.444 195.943 216.293 200.226 211.218 206.306L219.646 211.171L213.831 221.243L205.396 216.373C204.048 220.038 203.313 223.999 203.313 228.134C203.313 232.268 204.048 236.229 205.396 239.894L213.831 235.024L219.646 245.096L211.218 249.961C216.293 256.041 223.444 260.324 231.58 261.722V251.986H243.21V261.722C251.346 260.324 258.497 256.041 263.572 249.961L255.145 245.096L260.96 235.024L269.395 239.894C270.742 236.229 271.478 232.268 271.478 228.134C271.478 223.999 270.742 220.038 269.395 216.373L260.96 221.243L255.145 211.171L263.572 206.306C258.497 200.226 251.346 195.943 243.21 194.545Z" fill="#F8F4E9"/>
<path d="M234.327 469.565C234.327 479.735 226.082 487.979 215.912 487.979C205.742 487.979 197.498 479.735 197.498 469.565C197.498 459.395 205.742 451.15 215.912 451.15C226.082 451.15 234.327 459.395 234.327 469.565Z" fill="#03464C"/>
<path fill-rule="evenodd" clip-rule="evenodd" d="M215.912 486.579C225.309 486.579 232.927 478.961 232.927 469.565C232.927 460.168 225.309 452.55 215.912 452.55C206.516 452.55 198.898 460.168 198.898 469.565C198.898 478.961 206.516 486.579 215.912 486.579ZM215.912 487.979C226.082 487.979 234.327 479.735 234.327 469.565C234.327 459.395 226.082 451.15 215.912 451.15C205.742 451.15 197.498 459.395 197.498 469.565C197.498 479.735 205.742 487.979 215.912 487.979Z" fill="#F8F4E9"/>
<path d="M602.612 469.565C602.612 479.735 594.367 487.979 584.198 487.979C574.028 487.979 565.783 479.735 565.783 469.565C565.783 459.395 574.028 451.15 584.198 451.15C594.367 451.15 602.612 459.395 602.612 469.565Z" fill="#03464C"/>
<path fill-rule="evenodd" clip-rule="evenodd" d="M584.198 486.579C593.594 486.579 601.212 478.961 601.212 469.565C601.212 460.168 593.594 452.55 584.198 452.55C574.801 452.55 567.183 460.168 567.183 469.565C567.183 478.961 574.801 486.579 584.198 486.579ZM584.198 487.979C594.367 487.979 602.612 479.735 602.612 469.565C602.612 459.395 594.367 451.15 584.198 451.15C574.028 451.15 565.783 459.395 565.783 469.565C565.783 479.735 574.028 487.979 584.198 487.979Z" fill="#F8F4E9"/>
<path d="M275.246 455.244C275.246 449.594 279.826 445.014 285.476 445.014H297.753C303.402 445.014 307.983 449.594 307.983 455.244V463.428C307.983 469.078 303.402 473.658 297.753 473.658H285.476C279.826 473.658 275.246 469.078 275.246 463.428V455.244Z" fill="#03464C"/>
<path fill-rule="evenodd" clip-rule="evenodd" d="M297.753 446.414H285.476C280.6 446.414 276.646 450.367 276.646 455.244V463.428C276.646 468.305 280.6 472.258 285.476 472.258H297.753C302.629 472.258 306.583 468.305 306.583 463.428V455.244C306.583 450.367 302.629 446.414 297.753 446.414ZM285.476 445.014C279.826 445.014 275.246 449.594 275.246 455.244V463.428C275.246 469.078 279.826 473.658 285.476 473.658H297.753C303.402 473.658 307.983 469.078 307.983 463.428V455.244C307.983 449.594 303.402 445.014 297.753 445.014H285.476Z" fill="#F8F4E9"/>
<path d="M492.127 455.244C492.127 449.594 496.707 445.014 502.357 445.014H514.633C520.283 445.014 524.864 449.594 524.864 455.244V463.428C524.864 469.078 520.283 473.658 514.633 473.658H502.357C496.707 473.658 492.127 469.078 492.127 463.428V455.244Z" fill="#03464C"/>
<path fill-rule="evenodd" clip-rule="evenodd" d="M514.633 446.414H502.357C497.48 446.414 493.527 450.367 493.527 455.244V463.428C493.527 468.305 497.48 472.258 502.357 472.258H514.633C519.51 472.258 523.464 468.305 523.464 463.428V455.244C523.464 450.367 519.51 446.414 514.633 446.414ZM502.357 445.014C496.707 445.014 492.127 449.594 492.127 455.244V463.428C492.127 469.078 496.707 473.658 502.357 473.658H514.633C520.283 473.658 524.864 469.078 524.864 463.428V455.244C524.864 449.594 520.283 445.014 514.633 445.014H502.357Z" fill="#F8F4E9"/>
<path fill-rule="evenodd" clip-rule="evenodd" d="M622.05 111.185H178.061V109.785H622.05V111.185Z" fill="#F8F4E9"/>
<path fill-rule="evenodd" clip-rule="evenodd" d="M622.05 135.738H178.061V134.338H622.05V135.738Z" fill="#F8F4E9"/>
<path fill-rule="evenodd" clip-rule="evenodd" d="M622.05 86.6344H178.061V85.2344H622.05V86.6344Z" fill="#F8F4E9"/>
</svg>
