<svg width="800" height="449" viewBox="0 0 800 449" fill="none" xmlns="http://www.w3.org/2000/svg">
<path fill-rule="evenodd" clip-rule="evenodd" d="M17.5824 112.088V116.484C17.5824 117.09 17.0904 117.582 16.4835 117.582H10.989C10.5124 117.582 10.0713 117.734 9.7112 117.992C9.1542 118.391 8.79121 119.043 8.79121 119.78V421.978C8.79121 431.689 16.6631 439.56 26.3736 439.56H773.626C783.337 439.56 791.209 431.689 791.209 421.978V119.78C791.209 119.043 790.846 118.391 790.289 117.992C789.929 117.734 789.488 117.582 789.011 117.582H783.517C782.91 117.582 782.418 117.09 782.418 116.484V112.088C782.418 112.088 782.847 111.981 783.517 111.694C784.375 111.327 785.628 110.667 786.875 109.561C787.141 109.325 787.407 109.069 787.668 108.791C789.547 106.795 791.209 103.679 791.209 98.9011V12.0736C791.209 10.2529 789.733 8.79121 787.912 8.79121H12.0879C10.2672 8.79121 8.79121 10.2529 8.79121 12.0736V98.9011C8.79121 103.679 10.4532 106.795 12.3319 108.791C12.5934 109.069 12.8592 109.325 13.1252 109.561C14.3717 110.667 15.6249 111.327 16.4835 111.694C17.1528 111.981 17.5824 112.088 17.5824 112.088ZM3.52106 111.719C1.43407 108.447 0 104.208 0 98.9011V12.0736C0 5.34797 5.46178 0 12.0879 0H787.912C794.538 0 800 5.34797 800 12.0736V98.9011C800 104.208 798.566 108.447 796.479 111.719C798.645 113.726 800 116.595 800 119.78V421.978C800 436.544 788.192 448.352 773.626 448.352H26.3736C11.8079 448.352 0 436.544 0 421.978V119.78C0 116.595 1.35545 113.726 3.52106 111.719Z" fill="#BCCEDA"/>
<path d="M17.5822 42.8572C17.5822 41.0365 19.0582 39.5605 20.8789 39.5605H779.121C780.941 39.5605 782.417 41.0365 782.417 42.8573V116.484C782.417 117.091 782.909 117.583 783.516 117.583H789.011C790.225 117.583 791.209 118.567 791.209 119.78V421.978C791.209 431.689 783.337 439.561 773.626 439.561H26.3734C16.6629 439.561 8.79102 431.689 8.79102 421.978V119.78C8.79102 118.567 9.77501 117.583 10.9888 117.583H16.4833C17.0902 117.583 17.5822 117.091 17.5822 116.484V42.8572Z" fill="#BCCEDA"/>
<path fill-rule="evenodd" clip-rule="evenodd" d="M16.882 42.858C16.882 40.6507 18.6714 38.8613 20.8787 38.8613H779.121C781.328 38.8613 783.117 40.6507 783.117 42.858V116.484C783.117 116.705 783.296 116.883 783.516 116.883H789.011C790.611 116.883 791.908 118.181 791.908 119.781V421.979C791.908 432.076 783.723 440.261 773.626 440.261H26.3732C16.2761 440.261 8.09082 432.076 8.09082 421.979V119.781C8.09082 118.181 9.38821 116.883 10.9886 116.883H16.4831C16.7034 116.883 16.882 116.705 16.882 116.484V42.858ZM20.8787 40.2613C19.4446 40.2613 18.282 41.4239 18.282 42.858V116.484C18.282 117.478 17.4766 118.283 16.4831 118.283H10.9886C10.1614 118.283 9.49082 118.954 9.49082 119.781V421.979C9.49082 431.303 17.0493 438.861 26.3732 438.861H773.626C782.95 438.861 790.508 431.303 790.508 421.979V119.781C790.508 118.954 789.838 118.283 789.011 118.283H783.516C782.523 118.283 781.717 117.478 781.717 116.484V42.858C781.717 41.4239 780.555 40.2613 779.121 40.2613H20.8787Z" fill="black"/>
<path d="M24.176 47.2532C24.176 46.6463 24.668 46.1543 25.2749 46.1543H774.725C775.332 46.1543 775.824 46.6463 775.824 47.2532V123.077C775.824 123.684 776.316 124.176 776.923 124.176H783.517C784.124 124.176 784.615 124.668 784.615 125.275V419.781C784.615 427.064 778.712 432.967 771.429 432.967H28.5716C21.2887 432.967 15.3848 427.064 15.3848 419.781V125.275C15.3848 124.668 15.8768 124.176 16.4837 124.176H23.0771C23.684 124.176 24.176 123.684 24.176 123.077V47.2532Z" fill="#BCCEDA"/>
<path fill-rule="evenodd" clip-rule="evenodd" d="M23.4758 47.252C23.4758 46.2585 24.2812 45.4531 25.2747 45.4531H774.725C775.719 45.4531 776.524 46.2585 776.524 47.252V123.076C776.524 123.297 776.703 123.475 776.923 123.475H783.516C784.51 123.475 785.315 124.281 785.315 125.274V419.78C785.315 427.449 779.098 433.666 771.428 433.666H28.5714C20.9019 433.666 14.6846 427.449 14.6846 419.78V125.274C14.6846 124.28 15.49 123.475 16.4835 123.475H23.0769C23.2972 123.475 23.4758 123.297 23.4758 123.076V47.252ZM25.2747 46.8531C25.0544 46.8531 24.8758 47.0317 24.8758 47.252V123.076C24.8758 124.07 24.0704 124.875 23.0769 124.875H16.4835C16.2632 124.875 16.0846 125.054 16.0846 125.274V419.78C16.0846 426.676 21.6751 432.266 28.5714 432.266H771.428C778.325 432.266 783.915 426.676 783.915 419.78V125.274C783.915 125.054 783.737 124.875 783.516 124.875H776.923C775.93 124.875 775.124 124.07 775.124 123.076V47.252C775.124 47.0317 774.945 46.8531 774.725 46.8531H25.2747Z" fill="black"/>
<path d="M213.187 134.066H586.813V347.253H213.187V134.066Z" fill="#BCCEDA"/>
<path fill-rule="evenodd" clip-rule="evenodd" d="M212.486 133.365H587.513V347.952H212.486V133.365ZM213.886 134.765V346.552H586.113V134.765H213.886Z" fill="black"/>
<path d="M234.066 146.154C234.066 142.513 237.018 139.561 240.66 139.561H559.341C562.983 139.561 565.935 142.513 565.935 146.154V335.165C565.935 338.806 562.983 341.758 559.341 341.758H240.66C237.018 341.758 234.066 338.806 234.066 335.165V146.154Z" fill="#BCCEDA"/>
<path fill-rule="evenodd" clip-rule="evenodd" d="M233.366 146.155C233.366 142.127 236.632 138.861 240.66 138.861H559.341C563.369 138.861 566.634 142.127 566.634 146.155V335.166C566.634 339.194 563.369 342.459 559.341 342.459H240.66C236.632 342.459 233.366 339.194 233.366 335.166V146.155ZM240.66 140.261C237.405 140.261 234.766 142.9 234.766 146.155V335.166C234.766 338.421 237.405 341.059 240.66 341.059H559.341C562.596 341.059 565.234 338.421 565.234 335.166V146.155C565.234 142.9 562.596 140.261 559.341 140.261H240.66Z" fill="black"/>
<path d="M8.79102 12.0734C8.79102 10.2527 10.267 8.79102 12.0877 8.79102H787.912C789.733 8.79102 791.209 10.2527 791.209 12.0734C791.209 27.129 791.209 89.2562 791.209 98.9009C791.209 109.89 782.417 112.088 782.417 112.088V42.857C782.417 41.0362 780.941 39.5602 779.121 39.5602H20.8789C19.0582 39.5602 17.5822 41.0362 17.5822 42.857V112.088C17.5822 112.088 8.79102 109.89 8.79102 98.9009C8.79102 89.2562 8.79102 27.129 8.79102 12.0734Z" fill="#BCCEDA"/>
<path fill-rule="evenodd" clip-rule="evenodd" d="M8.09082 12.0742C8.09082 9.86294 9.88417 8.0918 12.0875 8.0918H787.912C790.115 8.0918 791.908 9.86294 791.908 12.0742V98.9017C791.908 104.612 789.613 108.096 787.274 110.143C786.114 111.158 784.954 111.81 784.083 112.21C783.646 112.41 783.28 112.547 783.02 112.635C782.954 112.658 782.894 112.677 782.842 112.694C782.792 112.709 782.748 112.723 782.712 112.733C782.675 112.744 782.646 112.752 782.625 112.758L782.6 112.764L782.589 112.767L782.588 112.767C782.587 112.767 782.587 112.768 782.417 112.089L782.588 112.767L781.717 112.985V42.8577C781.717 41.4236 780.555 40.261 779.121 40.261H20.8788C19.4446 40.261 18.282 41.4236 18.282 42.8577V112.985L17.4123 112.768L17.582 112.089C17.4123 112.768 17.4127 112.768 17.4123 112.768L17.4075 112.766L17.3996 112.764L17.3742 112.758C17.3532 112.752 17.3241 112.744 17.2873 112.733C17.2138 112.712 17.1097 112.68 16.9794 112.635C16.7189 112.547 16.353 112.41 15.9167 112.21C15.0453 111.81 13.8858 111.158 12.7255 110.143C10.3866 108.096 8.09082 104.612 8.09082 98.9017V12.0742ZM16.882 111.103V42.8577C16.882 40.6504 18.6714 38.861 20.8788 38.861H779.121C781.328 38.861 783.117 40.6504 783.117 42.8577V111.103C783.235 111.055 783.363 110.999 783.499 110.937C784.276 110.581 785.314 109.997 786.352 109.089C788.409 107.29 790.508 104.18 790.508 98.9017V12.0742C790.508 10.6441 789.35 9.4918 787.912 9.4918H12.0875C10.6494 9.4918 9.49082 10.6441 9.49082 12.0742V98.9017C9.49082 104.18 11.5906 107.29 13.6474 109.089C14.6849 109.997 15.7231 110.581 16.5001 110.937C16.6361 110.999 16.7639 111.055 16.882 111.103Z" fill="black"/>
<path d="M382.418 8.79102H417.583V14.2855C417.583 14.8924 417.091 15.3844 416.484 15.3844H383.517C382.91 15.3844 382.418 14.8924 382.418 14.2855V8.79102Z" fill="#BCCEDA"/>
<path fill-rule="evenodd" clip-rule="evenodd" d="M381.718 8.0918H418.283V14.2863C418.283 15.2798 417.477 16.0852 416.484 16.0852H383.517C382.523 16.0852 381.718 15.2798 381.718 14.2863V8.0918ZM383.118 9.4918V14.2863C383.118 14.5066 383.296 14.6852 383.517 14.6852H416.484C416.704 14.6852 416.883 14.5066 416.883 14.2863V9.4918H383.118Z" fill="black"/>
<path d="M42.2621 150.074C47.9852 139.529 59.384 134.066 71.382 134.066H213.187V347.253H71.382C59.384 347.253 47.9852 341.791 42.262 331.246C32.6853 313.601 19.7803 282.129 19.7803 240.66C19.7803 199.19 32.6853 167.719 42.2621 150.074Z" fill="#BCCEDA"/>
<path fill-rule="evenodd" clip-rule="evenodd" d="M41.6466 149.739C47.5168 138.923 59.1831 133.365 71.3819 133.365H213.887V347.952H71.3818C59.1831 347.952 47.5168 342.394 41.6466 331.579C32.0307 313.861 19.0801 282.275 19.0801 240.659C19.0801 199.042 32.0307 167.456 41.6466 149.739ZM71.3819 134.765C59.5845 134.765 48.4532 140.132 42.8771 150.407C33.3396 167.98 20.4801 199.336 20.4801 240.659C20.4801 281.981 33.3396 313.338 42.8771 330.911C48.4532 341.185 59.5845 346.552 71.3818 346.552H212.487V134.765H71.3819Z" fill="black"/>
<path d="M47.9187 153.601C52.6012 144.578 62.1243 139.561 72.2904 139.561H201.099C204.74 139.561 207.692 142.513 207.692 146.154V335.165C207.692 338.806 204.74 341.758 201.099 341.758H72.2904C62.1243 341.758 52.6012 336.741 47.9187 327.717C38.8026 310.151 25.2744 277.821 25.2744 240.659C25.2744 203.498 38.8026 171.168 47.9187 153.601Z" fill="#BCCEDA"/>
<path fill-rule="evenodd" clip-rule="evenodd" d="M47.2981 153.28C52.1176 143.992 61.9017 138.861 72.2912 138.861H201.099C205.127 138.861 208.393 142.127 208.393 146.155V335.166C208.393 339.194 205.127 342.459 201.099 342.459H72.2912C61.9017 342.459 52.1176 337.328 47.2981 328.041C38.1574 310.426 24.5752 277.98 24.5752 240.66C24.5752 203.34 38.1574 170.894 47.2981 153.28ZM72.2912 140.261C62.3485 140.261 53.0864 145.165 48.5408 153.925C39.4495 171.444 25.9752 203.658 25.9752 240.66C25.9752 277.663 39.4494 309.876 48.5408 327.396C53.0864 336.155 62.3485 341.059 72.2912 341.059H201.099C204.354 341.059 206.993 338.421 206.993 335.166V146.155C206.993 142.9 204.354 140.261 201.099 140.261H72.2912Z" fill="black"/>
<path d="M757.738 150.074C752.015 139.529 740.616 134.066 728.618 134.066H586.813V347.253H728.618C740.616 347.253 752.015 341.791 757.738 331.246C767.315 313.601 780.22 282.129 780.22 240.66C780.22 199.19 767.315 167.719 757.738 150.074Z" fill="#BCCEDA"/>
<path fill-rule="evenodd" clip-rule="evenodd" d="M758.353 149.739C752.483 138.923 740.817 133.365 728.618 133.365H586.113V347.952H728.618C740.817 347.952 752.483 342.394 758.353 331.579C767.969 313.861 780.92 282.275 780.92 240.659C780.92 199.042 767.969 167.456 758.353 149.739ZM728.618 134.765C740.415 134.765 751.547 140.132 757.123 150.407C766.66 167.98 779.52 199.336 779.52 240.659C779.52 281.981 766.66 313.338 757.123 330.911C751.547 341.185 740.415 346.552 728.618 346.552H587.513V134.765H728.618Z" fill="black"/>
<path d="M752.081 153.601C747.399 144.578 737.876 139.561 727.71 139.561H598.901C595.26 139.561 592.308 142.513 592.308 146.154V335.165C592.308 338.806 595.26 341.758 598.901 341.758H727.71C737.876 341.758 747.399 336.741 752.081 327.717C761.197 310.151 774.726 277.821 774.726 240.659C774.726 203.498 761.197 171.168 752.081 153.601Z" fill="#BCCEDA"/>
<path fill-rule="evenodd" clip-rule="evenodd" d="M752.703 153.28C747.883 143.992 738.099 138.861 727.71 138.861H598.902C594.874 138.861 591.608 142.127 591.608 146.155V335.166C591.608 339.194 594.874 342.459 598.902 342.459H727.71C738.099 342.459 747.883 337.328 752.703 328.041C761.844 310.426 775.426 277.98 775.426 240.66C775.426 203.34 761.844 170.894 752.703 153.28ZM727.71 140.261C737.653 140.261 746.915 145.165 751.46 153.925C760.552 171.444 774.026 203.658 774.026 240.66C774.026 277.663 760.552 309.876 751.46 327.396C746.915 336.155 737.653 341.059 727.71 341.059H598.902C595.647 341.059 593.008 338.421 593.008 335.166V146.155C593.008 142.9 595.647 140.261 598.902 140.261H727.71Z" fill="black"/>
<path fill-rule="evenodd" clip-rule="evenodd" d="M395.824 34.0655C395.702 34.0655 395.604 33.9671 395.604 33.8458L395.604 31.0117C395.604 30.8817 395.492 30.7801 395.362 30.793L391.284 31.2008C390.879 31.2413 390.641 30.7567 390.922 30.4611L399.84 21.0471C399.927 20.9556 400.072 20.9556 400.159 21.0471L409.078 30.4611C409.358 30.7567 409.12 31.2413 408.715 31.2008L404.637 30.793C404.507 30.7801 404.395 30.8817 404.395 31.0117L404.395 33.8458C404.395 33.9671 404.297 34.0655 404.175 34.0655H395.824Z" fill="#BCCEDA"/>
<path fill-rule="evenodd" clip-rule="evenodd" d="M399.999 21.8954L391.911 30.4335L395.292 30.0953C395.834 30.0412 396.304 30.4663 396.304 31.0105L396.304 33.3644H403.695L403.695 31.0105C403.695 30.4664 404.165 30.0412 404.706 30.0953L408.088 30.4335L399.999 21.8954ZM399.332 20.5645C399.695 20.1816 400.304 20.1816 400.667 20.5646L409.586 29.9785C410.312 30.7449 409.695 32.0012 408.645 31.8962L405.095 31.5412L405.095 33.8446C405.095 34.3526 404.683 34.7644 404.175 34.7644H395.824C395.316 34.7644 394.904 34.3526 394.904 33.8446L394.904 31.5412L391.354 31.8962C390.303 32.0012 389.687 30.7449 390.413 29.9785L399.332 20.5645Z" fill="black"/>
<path fill-rule="evenodd" clip-rule="evenodd" d="M181.563 341.758C136.552 330.159 103.297 289.293 103.297 240.659C103.297 192.026 136.552 151.16 181.563 139.561H201.099C204.741 139.561 207.692 142.513 207.692 146.154V335.165C207.692 338.806 204.741 341.758 201.099 341.758H181.563Z" fill="#BCCEDA"/>
<path fill-rule="evenodd" clip-rule="evenodd" d="M181.474 138.861H201.099C205.127 138.861 208.392 142.127 208.392 146.155V335.166C208.392 339.194 205.127 342.459 201.099 342.459H181.474L181.388 342.437C136.076 330.76 102.597 289.621 102.597 240.66C102.597 191.7 136.076 150.561 181.388 138.883L181.474 138.861ZM181.652 140.261C136.986 151.813 103.997 192.385 103.997 240.66C103.997 288.936 136.986 329.508 181.652 341.059H201.099C204.354 341.059 206.992 338.421 206.992 335.166V146.155C206.992 142.9 204.354 140.261 201.099 140.261H181.652Z" fill="black"/>
<path fill-rule="evenodd" clip-rule="evenodd" d="M73.2 139.38L107.529 267.498L106.177 267.861L71.8477 139.742L73.2 139.38Z" fill="black"/>
<path fill-rule="evenodd" clip-rule="evenodd" d="M683.783 139.741L652.426 256.768L651.073 256.405L682.431 139.379L683.783 139.741Z" fill="black"/>
<path fill-rule="evenodd" clip-rule="evenodd" d="M592.308 302.198C626.294 302.198 653.846 274.646 653.846 240.66C653.846 206.673 626.294 179.121 592.308 179.121V302.198Z" fill="#BCCEDA"/>
<path fill-rule="evenodd" clip-rule="evenodd" d="M591.607 178.42H592.307C626.681 178.42 654.546 206.285 654.546 240.658C654.546 275.032 626.681 302.897 592.307 302.897H591.607V178.42ZM593.007 179.824V301.493C626.285 301.118 653.146 274.025 653.146 240.658C653.146 207.292 626.285 180.199 593.007 179.824Z" fill="black"/>
<path fill-rule="evenodd" clip-rule="evenodd" d="M207.693 187.912C178.561 187.912 154.945 211.528 154.945 240.659C154.945 269.791 178.561 293.407 207.693 293.407V287.912C201.279 287.912 195.164 286.634 189.588 284.32L192.701 277.28C197.324 279.175 202.386 280.22 207.693 280.22V201.099C206.635 201.099 205.588 201.141 204.552 201.222L203.728 193.571C205.035 193.462 206.357 193.407 207.693 193.407V187.912ZM180.713 201.861C186.773 197.639 193.869 194.801 201.542 193.803L202.366 201.455C196.072 202.302 190.247 204.629 185.253 208.075L180.713 201.861ZM164.922 220.545C168.154 213.686 172.987 207.729 178.94 203.158L183.479 209.373C178.607 213.149 174.641 218.038 171.962 223.658L164.922 220.545ZM160.44 240.659C160.44 234.246 161.718 228.131 164.032 222.555L171.072 225.668C169.177 230.291 168.132 235.353 168.132 240.66C168.132 241.717 168.174 242.764 168.255 243.801L160.604 244.625C160.495 243.317 160.44 241.995 160.44 240.659ZM168.894 267.638C164.672 261.579 161.834 254.483 160.836 246.81L168.488 245.986C169.335 252.28 171.662 258.105 175.108 263.099L168.894 267.638ZM187.579 283.43C180.719 280.198 174.762 275.365 170.192 269.412L176.406 264.873C180.182 269.745 185.071 273.711 190.691 276.391L187.579 283.43Z" fill="#BCCEDA"/>
<path fill-rule="evenodd" clip-rule="evenodd" d="M206.992 188.618C178.57 188.992 155.645 212.149 155.645 240.66C155.645 269.171 178.57 292.328 206.992 292.703V288.608C200.74 288.518 194.776 287.232 189.32 284.967L188.658 284.692L192.336 276.375L192.966 276.634C197.303 278.411 202.034 279.427 206.992 279.515V201.806C206.191 201.82 205.395 201.859 204.606 201.921L203.928 201.974L202.955 192.933L203.67 192.874C204.767 192.783 205.875 192.728 206.992 192.712V188.618ZM154.245 240.66C154.245 211.142 178.174 187.213 207.692 187.213H208.392V194.107H207.692C206.62 194.107 205.555 194.144 204.501 194.215L205.175 200.477C206.008 200.426 206.847 200.4 207.692 200.4L208.392 200.4V280.921H207.692C202.535 280.921 197.602 279.95 193.068 278.182L190.52 283.943C195.833 286.053 201.626 287.213 207.692 287.213H208.392V294.107H207.692C178.174 294.107 154.245 270.178 154.245 240.66ZM202.161 193.018L203.135 202.058L202.459 202.149C196.277 202.981 190.556 205.267 185.65 208.652L185.089 209.039L179.726 201.696L180.313 201.287C186.463 197.003 193.664 194.122 201.452 193.11L202.161 193.018ZM181.704 202.031L185.419 207.117C190.193 203.941 195.684 201.756 201.598 200.858L200.923 194.596C193.883 195.621 187.353 198.223 181.704 202.031ZM179.082 202.167L184.445 209.51L183.907 209.927C179.121 213.637 175.225 218.439 172.593 223.96L172.301 224.574L163.983 220.896L164.289 220.248C167.568 213.286 172.473 207.242 178.513 202.604L179.082 202.167ZM165.866 220.198L171.628 222.746C174.244 217.487 177.977 212.883 182.515 209.242L178.8 204.155C173.38 208.452 168.939 213.929 165.866 220.198ZM163.66 221.626L171.977 225.304L171.719 225.934C169.858 230.475 168.832 235.447 168.832 240.66C168.832 241.699 168.873 242.729 168.953 243.747L169.006 244.425L159.965 245.398L159.906 244.683C159.796 243.357 159.74 242.015 159.74 240.66C159.74 234.153 161.036 227.947 163.386 222.287L163.66 221.626ZM164.409 223.488C162.3 228.8 161.14 234.594 161.14 240.66C161.14 241.733 161.176 242.797 161.247 243.852L167.51 243.178C167.458 242.345 167.432 241.506 167.432 240.66C167.432 235.502 168.402 230.57 170.171 226.036L164.409 223.488ZM169.09 245.218L169.181 245.894C170.013 252.076 172.299 257.797 175.684 262.703L176.071 263.264L168.728 268.627L168.319 268.039C164.035 261.89 161.154 254.689 160.142 246.901L160.05 246.191L169.09 245.218ZM161.628 247.43C162.654 254.47 165.255 260.999 169.063 266.648L174.149 262.933C170.973 258.16 168.789 252.669 167.891 246.755L161.628 247.43ZM176.542 263.907L176.959 264.445C180.669 269.232 185.471 273.128 190.992 275.759L191.606 276.052L187.929 284.369L187.28 284.064C180.318 280.784 174.274 275.88 169.636 269.839L169.199 269.271L176.542 263.907ZM171.188 269.552C175.484 274.973 180.961 279.414 187.23 282.487L189.778 276.725C184.52 274.108 179.915 270.375 176.274 265.837L171.188 269.552Z" fill="black"/>
<path fill-rule="evenodd" clip-rule="evenodd" d="M592.308 293.41C619.168 293.442 642.157 273.042 644.808 245.76C647.625 216.765 626.404 190.976 597.409 188.159C595.696 187.993 593.994 187.91 592.308 187.908V193.403C593.818 193.405 595.343 193.479 596.877 193.628C601.317 194.059 605.554 195.092 609.514 196.637L606.546 203.739C603.278 202.481 599.788 201.639 596.134 201.284C594.849 201.159 593.573 201.098 592.308 201.096V280.223C593.638 280.224 594.955 280.159 596.257 280.03L597.237 287.663C595.614 287.832 593.969 287.917 592.308 287.915V293.41ZM620.074 278.894C614.058 283.266 607.002 286.237 599.417 287.385L598.437 279.752C604.659 278.781 610.451 276.344 615.409 272.775L620.074 278.894ZM617.156 271.442L621.821 277.562C627.65 272.899 632.377 266.867 635.482 259.894L628.381 256.926C625.805 262.64 621.926 267.591 617.156 271.442ZM639.339 245.229C638.907 249.669 637.875 253.905 636.329 257.866L629.228 254.898C630.486 251.63 631.328 248.14 631.683 244.485C631.939 241.849 631.93 239.249 631.678 236.71L639.312 235.73C639.634 238.829 639.652 242.007 639.339 245.229ZM631.4 234.53L639.034 233.55C637.886 225.965 634.914 218.908 630.543 212.893L624.423 217.558C627.992 222.515 630.429 228.308 631.4 234.53ZM611.542 197.484C618.515 200.59 624.548 205.317 629.21 211.146L623.091 215.811C619.239 211.04 614.288 207.162 608.574 204.586L611.542 197.484Z" fill="#BCCEDA"/>
<path fill-rule="evenodd" clip-rule="evenodd" d="M591.607 187.207L592.308 187.208C594.017 187.21 595.741 187.294 597.476 187.462C626.856 190.317 648.359 216.448 645.504 245.828C642.818 273.472 619.525 294.142 592.307 294.11L591.607 294.109V287.214L592.308 287.215C593.702 287.217 595.084 287.156 596.45 287.035L595.648 280.787C594.544 280.878 593.43 280.924 592.307 280.922L591.607 280.921V200.395L592.308 200.396C593.595 200.397 594.894 200.46 596.201 200.587C599.683 200.926 603.019 201.698 606.16 202.846L608.589 197.034C604.882 195.653 600.935 194.725 596.809 194.324C595.297 194.177 593.795 194.105 592.307 194.103L591.607 194.102V187.207ZM593.007 188.613V192.709C594.311 192.729 595.624 192.803 596.945 192.931C601.449 193.369 605.749 194.416 609.768 195.985L610.436 196.246L606.929 204.637L606.294 204.392C603.085 203.157 599.657 202.33 596.066 201.981C595.04 201.881 594.02 201.822 593.007 201.803V279.517C594.077 279.499 595.137 279.437 596.187 279.333L596.864 279.266L598.022 288.285L597.309 288.359C595.89 288.507 594.455 288.591 593.007 288.611V292.706C619.21 292.386 641.518 272.375 644.111 245.692C646.891 217.082 625.951 191.635 597.341 188.856C595.887 188.714 594.442 188.634 593.007 188.613ZM611.172 196.553L611.827 196.844C618.904 199.996 625.026 204.794 629.756 210.708L630.204 211.268L622.973 216.78L622.546 216.25C618.762 211.563 613.898 207.754 608.286 205.224L607.665 204.944L611.172 196.553ZM611.909 198.42L609.48 204.233C614.825 206.753 619.491 210.402 623.203 214.844L628.211 211.026C623.831 205.719 618.282 201.377 611.909 198.42ZM630.688 211.902L631.109 212.481C635.545 218.585 638.56 225.746 639.726 233.444L639.833 234.152L630.813 235.311L630.708 234.638C629.755 228.527 627.361 222.837 623.855 217.967L623.457 217.414L630.688 211.902ZM625.385 217.705C628.676 222.443 630.966 227.902 631.981 233.749L638.229 232.947C637.065 225.987 634.339 219.495 630.393 213.887L625.385 217.705ZM639.934 234.944L640.008 235.657C640.335 238.803 640.353 242.028 640.035 245.296C639.598 249.801 638.55 254.1 636.981 258.12L636.721 258.788L628.33 255.281L628.574 254.646C629.81 251.437 630.637 248.008 630.986 244.417C631.238 241.827 631.229 239.272 630.981 236.779L630.914 236.102L639.934 234.944ZM632.436 237.318C632.63 239.687 632.617 242.105 632.379 244.553C632.041 248.035 631.268 251.371 630.12 254.512L635.932 256.941C637.313 253.233 638.241 249.287 638.642 245.161C638.926 242.233 638.933 239.342 638.684 236.516L632.436 237.318ZM628.022 256.017L636.413 259.524L636.122 260.178C632.97 267.256 628.172 273.377 622.258 278.108L621.699 278.555L616.187 271.325L616.716 270.897C621.403 267.114 625.213 262.249 627.743 256.638L628.022 256.017ZM628.734 257.832C626.214 263.177 622.565 267.843 618.122 271.554L621.94 276.563C627.247 272.182 631.589 266.633 634.546 260.261L628.734 257.832ZM615.552 271.809L621.064 279.039L620.485 279.46C614.381 283.896 607.22 286.912 599.522 288.077L598.814 288.184L597.655 279.165L598.329 279.06C604.439 278.106 610.129 275.713 614.999 272.207L615.552 271.809ZM599.217 280.332L600.019 286.58C606.979 285.416 613.471 282.69 619.079 278.744L615.261 273.736C610.523 277.028 605.065 279.317 599.217 280.332Z" fill="black"/>
<path fill-rule="evenodd" clip-rule="evenodd" d="M207.692 201.1V280.22C185.844 280.22 168.132 262.509 168.132 240.66C168.132 218.811 185.844 201.1 207.692 201.1Z" fill="#BCCEDA"/>
<path fill-rule="evenodd" clip-rule="evenodd" d="M206.992 201.805C185.853 202.178 168.832 219.431 168.832 240.659C168.832 261.887 185.853 279.14 206.992 279.513V201.805ZM167.432 240.659C167.432 218.424 185.457 200.398 207.692 200.398H208.392V280.919H207.692C185.457 280.919 167.432 262.894 167.432 240.659Z" fill="black"/>
<path fill-rule="evenodd" clip-rule="evenodd" d="M592.308 280.22C614.156 280.22 631.868 262.509 631.868 240.66C631.868 218.811 614.156 201.1 592.308 201.1V280.22Z" fill="#BCCEDA"/>
<path fill-rule="evenodd" clip-rule="evenodd" d="M591.607 200.398H592.307C614.543 200.398 632.568 218.424 632.568 240.659C632.568 262.894 614.543 280.919 592.307 280.919H591.607V200.398ZM593.007 201.805V279.513C614.146 279.14 631.168 261.887 631.168 240.659C631.168 219.431 614.146 202.178 593.007 201.805Z" fill="black"/>
<path fill-rule="evenodd" clip-rule="evenodd" d="M207.692 205.494V275.824C188.271 275.824 172.527 260.08 172.527 240.659C172.527 221.238 188.271 205.494 207.692 205.494Z" fill="#BCCEDA"/>
<path fill-rule="evenodd" clip-rule="evenodd" d="M206.992 206.202C188.281 206.575 173.227 221.859 173.227 240.66C173.227 259.46 188.281 274.745 206.992 275.118V206.202ZM171.827 240.66C171.827 220.852 187.884 204.795 207.692 204.795H208.392V276.525H207.692C187.884 276.525 171.827 260.467 171.827 240.66Z" fill="black"/>
<path fill-rule="evenodd" clip-rule="evenodd" d="M592.308 275.824C611.729 275.824 627.472 260.08 627.472 240.659C627.472 221.238 611.729 205.494 592.308 205.494V275.824Z" fill="#BCCEDA"/>
<path fill-rule="evenodd" clip-rule="evenodd" d="M591.607 204.795H592.307C612.115 204.795 628.172 220.852 628.172 240.66C628.172 260.467 612.115 276.525 592.307 276.525H591.607V204.795ZM593.007 206.202V275.118C611.719 274.745 626.772 259.46 626.772 240.66C626.772 221.859 611.719 206.575 593.007 206.202Z" fill="black"/>
<path fill-rule="evenodd" clip-rule="evenodd" d="M545.055 293.007H254.945V291.607H545.055V293.007Z" fill="black"/>
<path fill-rule="evenodd" clip-rule="evenodd" d="M545.055 257.843H254.945V256.443H545.055V257.843Z" fill="black"/>
<path fill-rule="evenodd" clip-rule="evenodd" d="M545.055 222.677H254.945V221.277H545.055V222.677Z" fill="black"/>
<path fill-rule="evenodd" clip-rule="evenodd" d="M545.055 187.513H254.945V186.113H545.055V187.513Z" fill="black"/>
</svg>
