<svg width="800" height="449" viewBox="0 0 800 449" fill="none" xmlns="http://www.w3.org/2000/svg">
<path fill-rule="evenodd" clip-rule="evenodd" d="M17.5824 112.088V116.484C17.5824 117.09 17.0904 117.582 16.4835 117.582H10.989C10.5124 117.582 10.0713 117.734 9.7112 117.992C9.1542 118.391 8.79121 119.043 8.79121 119.78V421.978C8.79121 431.689 16.6631 439.56 26.3736 439.56H773.626C783.337 439.56 791.209 431.689 791.209 421.978V119.78C791.209 119.043 790.846 118.391 790.289 117.992C789.929 117.734 789.488 117.582 789.011 117.582H783.517C782.91 117.582 782.418 117.09 782.418 116.484V112.088C782.418 112.088 782.847 111.981 783.517 111.694C784.375 111.327 785.628 110.667 786.875 109.561C787.141 109.325 787.407 109.069 787.668 108.791C789.547 106.795 791.209 103.679 791.209 98.9011V12.0736C791.209 10.2529 789.733 8.79121 787.912 8.79121H12.0879C10.2672 8.79121 8.79121 10.2529 8.79121 12.0736V98.9011C8.79121 103.679 10.4532 106.795 12.3319 108.791C12.5934 109.069 12.8592 109.325 13.1252 109.561C14.3717 110.667 15.6249 111.327 16.4835 111.694C17.1528 111.981 17.5824 112.088 17.5824 112.088ZM3.52106 111.719C1.43407 108.447 0 104.208 0 98.9011V12.0736C0 5.34797 5.46178 0 12.0879 0H787.912C794.538 0 800 5.34797 800 12.0736V98.9011C800 104.208 798.566 108.447 796.479 111.719C798.645 113.726 800 116.595 800 119.78V421.978C800 436.544 788.192 448.352 773.626 448.352H26.3736C11.8079 448.352 0 436.544 0 421.978V119.78C0 116.595 1.35545 113.726 3.52106 111.719Z" fill="#FFA580"/>
<path d="M17.5822 42.8572C17.5822 41.0365 19.0582 39.5605 20.8789 39.5605H779.121C780.941 39.5605 782.417 41.0365 782.417 42.8573V116.484C782.417 117.091 782.909 117.583 783.516 117.583H789.011C790.225 117.583 791.209 118.567 791.209 119.78V421.978C791.209 431.689 783.337 439.561 773.626 439.561H26.3734C16.6629 439.561 8.79102 431.689 8.79102 421.978V119.78C8.79102 118.567 9.77501 117.583 10.9888 117.583H16.4833C17.0902 117.583 17.5822 117.091 17.5822 116.484V42.8572Z" fill="#FFA580"/>
<path fill-rule="evenodd" clip-rule="evenodd" d="M16.882 42.858C16.882 40.6507 18.6714 38.8613 20.8787 38.8613H779.121C781.328 38.8613 783.117 40.6507 783.117 42.858V116.484C783.117 116.705 783.296 116.883 783.516 116.883H789.011C790.611 116.883 791.908 118.181 791.908 119.781V421.979C791.908 432.076 783.723 440.261 773.626 440.261H26.3732C16.2761 440.261 8.09082 432.076 8.09082 421.979V119.781C8.09082 118.181 9.38821 116.883 10.9886 116.883H16.4831C16.7034 116.883 16.882 116.705 16.882 116.484V42.858ZM20.8787 40.2613C19.4446 40.2613 18.282 41.4239 18.282 42.858V116.484C18.282 117.478 17.4766 118.283 16.4831 118.283H10.9886C10.1614 118.283 9.49082 118.954 9.49082 119.781V421.979C9.49082 431.303 17.0493 438.861 26.3732 438.861H773.626C782.95 438.861 790.508 431.303 790.508 421.979V119.781C790.508 118.954 789.838 118.283 789.011 118.283H783.516C782.523 118.283 781.717 117.478 781.717 116.484V42.858C781.717 41.4239 780.555 40.2613 779.121 40.2613H20.8787Z" fill="black"/>
<path d="M24.176 47.2532C24.176 46.6463 24.668 46.1543 25.2749 46.1543H774.725C775.332 46.1543 775.824 46.6463 775.824 47.2532V123.077C775.824 123.684 776.316 124.176 776.923 124.176H783.517C784.124 124.176 784.615 124.668 784.615 125.275V419.781C784.615 427.064 778.712 432.967 771.429 432.967H28.5716C21.2887 432.967 15.3848 427.064 15.3848 419.781V125.275C15.3848 124.668 15.8768 124.176 16.4837 124.176H23.0771C23.684 124.176 24.176 123.684 24.176 123.077V47.2532Z" fill="#FFA580"/>
<path fill-rule="evenodd" clip-rule="evenodd" d="M23.4758 47.252C23.4758 46.2585 24.2812 45.4531 25.2747 45.4531H774.725C775.719 45.4531 776.524 46.2585 776.524 47.252V123.076C776.524 123.297 776.703 123.475 776.923 123.475H783.516C784.51 123.475 785.315 124.281 785.315 125.274V419.78C785.315 427.449 779.098 433.666 771.428 433.666H28.5714C20.9019 433.666 14.6846 427.449 14.6846 419.78V125.274C14.6846 124.28 15.49 123.475 16.4835 123.475H23.0769C23.2972 123.475 23.4758 123.297 23.4758 123.076V47.252ZM25.2747 46.8531C25.0544 46.8531 24.8758 47.0317 24.8758 47.252V123.076C24.8758 124.07 24.0704 124.875 23.0769 124.875H16.4835C16.2632 124.875 16.0846 125.054 16.0846 125.274V419.78C16.0846 426.676 21.6751 432.266 28.5714 432.266H771.428C778.325 432.266 783.915 426.676 783.915 419.78V125.274C783.915 125.054 783.737 124.875 783.516 124.875H776.923C775.93 124.875 775.124 124.07 775.124 123.076V47.252C775.124 47.0317 774.945 46.8531 774.725 46.8531H25.2747Z" fill="black"/>
<path d="M213.187 134.066H586.813V347.253H213.187V134.066Z" fill="#FFA580"/>
<path fill-rule="evenodd" clip-rule="evenodd" d="M212.486 133.365H587.513V347.952H212.486V133.365ZM213.886 134.765V346.552H586.113V134.765H213.886Z" fill="black"/>
<path d="M234.066 146.154C234.066 142.513 237.018 139.561 240.66 139.561H559.341C562.983 139.561 565.935 142.513 565.935 146.154V335.165C565.935 338.806 562.983 341.758 559.341 341.758H240.66C237.018 341.758 234.066 338.806 234.066 335.165V146.154Z" fill="#FFA580"/>
<path fill-rule="evenodd" clip-rule="evenodd" d="M233.366 146.155C233.366 142.127 236.632 138.861 240.66 138.861H559.341C563.369 138.861 566.634 142.127 566.634 146.155V335.166C566.634 339.194 563.369 342.459 559.341 342.459H240.66C236.632 342.459 233.366 339.194 233.366 335.166V146.155ZM240.66 140.261C237.405 140.261 234.766 142.9 234.766 146.155V335.166C234.766 338.421 237.405 341.059 240.66 341.059H559.341C562.596 341.059 565.234 338.421 565.234 335.166V146.155C565.234 142.9 562.596 140.261 559.341 140.261H240.66Z" fill="black"/>
<path d="M8.79102 12.0734C8.79102 10.2527 10.267 8.79102 12.0877 8.79102H787.912C789.733 8.79102 791.209 10.2527 791.209 12.0734C791.209 27.129 791.209 89.2562 791.209 98.9009C791.209 109.89 782.417 112.088 782.417 112.088V42.857C782.417 41.0362 780.941 39.5602 779.121 39.5602H20.8789C19.0582 39.5602 17.5822 41.0362 17.5822 42.857V112.088C17.5822 112.088 8.79102 109.89 8.79102 98.9009C8.79102 89.2562 8.79102 27.129 8.79102 12.0734Z" fill="#FFA580"/>
<path fill-rule="evenodd" clip-rule="evenodd" d="M8.09082 12.0742C8.09082 9.86294 9.88417 8.0918 12.0875 8.0918H787.912C790.115 8.0918 791.908 9.86294 791.908 12.0742V98.9017C791.908 104.612 789.613 108.096 787.274 110.143C786.114 111.158 784.954 111.81 784.083 112.21C783.646 112.41 783.28 112.547 783.02 112.635C782.954 112.658 782.894 112.677 782.842 112.694C782.792 112.709 782.748 112.723 782.712 112.733C782.675 112.744 782.646 112.752 782.625 112.758L782.6 112.764L782.589 112.767L782.588 112.767C782.587 112.767 782.587 112.768 782.417 112.089L782.588 112.767L781.717 112.985V42.8577C781.717 41.4236 780.555 40.261 779.121 40.261H20.8788C19.4446 40.261 18.282 41.4236 18.282 42.8577V112.985L17.4123 112.768L17.582 112.089C17.4123 112.768 17.4127 112.768 17.4123 112.768L17.4075 112.766L17.3996 112.764L17.3742 112.758C17.3532 112.752 17.3241 112.744 17.2873 112.733C17.2138 112.712 17.1097 112.68 16.9794 112.635C16.7189 112.547 16.353 112.41 15.9167 112.21C15.0453 111.81 13.8858 111.158 12.7255 110.143C10.3866 108.096 8.09082 104.612 8.09082 98.9017V12.0742ZM16.882 111.103V42.8577C16.882 40.6504 18.6714 38.861 20.8788 38.861H779.121C781.328 38.861 783.117 40.6504 783.117 42.8577V111.103C783.235 111.055 783.363 110.999 783.499 110.937C784.276 110.581 785.314 109.997 786.352 109.089C788.409 107.29 790.508 104.18 790.508 98.9017V12.0742C790.508 10.6441 789.35 9.4918 787.912 9.4918H12.0875C10.6494 9.4918 9.49082 10.6441 9.49082 12.0742V98.9017C9.49082 104.18 11.5906 107.29 13.6474 109.089C14.6849 109.997 15.7231 110.581 16.5001 110.937C16.6361 110.999 16.7639 111.055 16.882 111.103Z" fill="black"/>
<path d="M382.418 8.79102H417.583V14.2855C417.583 14.8924 417.091 15.3844 416.484 15.3844H383.517C382.91 15.3844 382.418 14.8924 382.418 14.2855V8.79102Z" fill="#FFA580"/>
<path fill-rule="evenodd" clip-rule="evenodd" d="M381.718 8.0918H418.283V14.2863C418.283 15.2798 417.477 16.0852 416.484 16.0852H383.517C382.523 16.0852 381.718 15.2798 381.718 14.2863V8.0918ZM383.118 9.4918V14.2863C383.118 14.5066 383.296 14.6852 383.517 14.6852H416.484C416.704 14.6852 416.883 14.5066 416.883 14.2863V9.4918H383.118Z" fill="black"/>
<path d="M42.2621 150.074C47.9852 139.529 59.384 134.066 71.382 134.066H213.187V347.253H71.382C59.384 347.253 47.9852 341.791 42.262 331.246C32.6853 313.601 19.7803 282.129 19.7803 240.66C19.7803 199.19 32.6853 167.719 42.2621 150.074Z" fill="#FFA580"/>
<path fill-rule="evenodd" clip-rule="evenodd" d="M41.6466 149.739C47.5168 138.923 59.1831 133.365 71.3819 133.365H213.887V347.952H71.3818C59.1831 347.952 47.5168 342.394 41.6466 331.579C32.0307 313.861 19.0801 282.275 19.0801 240.659C19.0801 199.042 32.0307 167.456 41.6466 149.739ZM71.3819 134.765C59.5845 134.765 48.4532 140.132 42.8771 150.407C33.3396 167.98 20.4801 199.336 20.4801 240.659C20.4801 281.981 33.3396 313.338 42.8771 330.911C48.4532 341.185 59.5845 346.552 71.3818 346.552H212.487V134.765H71.3819Z" fill="black"/>
<path d="M47.9187 153.601C52.6012 144.578 62.1243 139.561 72.2904 139.561H201.099C204.74 139.561 207.692 142.513 207.692 146.154V335.165C207.692 338.806 204.74 341.758 201.099 341.758H72.2904C62.1243 341.758 52.6012 336.741 47.9187 327.717C38.8026 310.151 25.2744 277.821 25.2744 240.659C25.2744 203.498 38.8026 171.168 47.9187 153.601Z" fill="#FFA580"/>
<path fill-rule="evenodd" clip-rule="evenodd" d="M47.2981 153.28C52.1176 143.992 61.9017 138.861 72.2912 138.861H201.099C205.127 138.861 208.393 142.127 208.393 146.155V335.166C208.393 339.194 205.127 342.459 201.099 342.459H72.2912C61.9017 342.459 52.1176 337.328 47.2981 328.041C38.1574 310.426 24.5752 277.98 24.5752 240.66C24.5752 203.34 38.1574 170.894 47.2981 153.28ZM72.2912 140.261C62.3485 140.261 53.0864 145.165 48.5408 153.925C39.4495 171.444 25.9752 203.658 25.9752 240.66C25.9752 277.663 39.4494 309.876 48.5408 327.396C53.0864 336.155 62.3485 341.059 72.2912 341.059H201.099C204.354 341.059 206.993 338.421 206.993 335.166V146.155C206.993 142.9 204.354 140.261 201.099 140.261H72.2912Z" fill="black"/>
<path d="M757.738 150.074C752.015 139.529 740.616 134.066 728.618 134.066H586.813V347.253H728.618C740.616 347.253 752.015 341.791 757.738 331.246C767.315 313.601 780.22 282.129 780.22 240.66C780.22 199.19 767.315 167.719 757.738 150.074Z" fill="#FFA580"/>
<path fill-rule="evenodd" clip-rule="evenodd" d="M758.353 149.739C752.483 138.923 740.817 133.365 728.618 133.365H586.113V347.952H728.618C740.817 347.952 752.483 342.394 758.353 331.579C767.969 313.861 780.92 282.275 780.92 240.659C780.92 199.042 767.969 167.456 758.353 149.739ZM728.618 134.765C740.415 134.765 751.547 140.132 757.123 150.407C766.66 167.98 779.52 199.336 779.52 240.659C779.52 281.981 766.66 313.338 757.123 330.911C751.547 341.185 740.415 346.552 728.618 346.552H587.513V134.765H728.618Z" fill="black"/>
<path d="M752.081 153.601C747.399 144.578 737.876 139.561 727.71 139.561H598.901C595.26 139.561 592.308 142.513 592.308 146.154V335.165C592.308 338.806 595.26 341.758 598.901 341.758H727.71C737.876 341.758 747.399 336.741 752.081 327.717C761.197 310.151 774.726 277.821 774.726 240.659C774.726 203.498 761.197 171.168 752.081 153.601Z" fill="#FFA580"/>
<path fill-rule="evenodd" clip-rule="evenodd" d="M752.703 153.28C747.883 143.992 738.099 138.861 727.71 138.861H598.902C594.874 138.861 591.608 142.127 591.608 146.155V335.166C591.608 339.194 594.874 342.459 598.902 342.459H727.71C738.099 342.459 747.883 337.328 752.703 328.041C761.844 310.426 775.426 277.98 775.426 240.66C775.426 203.34 761.844 170.894 752.703 153.28ZM727.71 140.261C737.653 140.261 746.915 145.165 751.46 153.925C760.552 171.444 774.026 203.658 774.026 240.66C774.026 277.663 760.552 309.876 751.46 327.396C746.915 336.155 737.653 341.059 727.71 341.059H598.902C595.647 341.059 593.008 338.421 593.008 335.166V146.155C593.008 142.9 595.647 140.261 598.902 140.261H727.71Z" fill="black"/>
<path fill-rule="evenodd" clip-rule="evenodd" d="M395.824 34.0655C395.702 34.0655 395.604 33.9671 395.604 33.8458L395.604 31.0117C395.604 30.8817 395.492 30.7801 395.362 30.793L391.284 31.2008C390.879 31.2413 390.641 30.7567 390.922 30.4611L399.84 21.0471C399.927 20.9556 400.072 20.9556 400.159 21.0471L409.078 30.4611C409.358 30.7567 409.12 31.2413 408.715 31.2008L404.637 30.793C404.507 30.7801 404.395 30.8817 404.395 31.0117L404.395 33.8458C404.395 33.9671 404.297 34.0655 404.175 34.0655H395.824Z" fill="#FFA580"/>
<path fill-rule="evenodd" clip-rule="evenodd" d="M399.999 21.8954L391.911 30.4335L395.292 30.0953C395.834 30.0412 396.304 30.4663 396.304 31.0105L396.304 33.3644H403.695L403.695 31.0105C403.695 30.4664 404.165 30.0412 404.706 30.0953L408.088 30.4335L399.999 21.8954ZM399.332 20.5645C399.695 20.1816 400.304 20.1816 400.667 20.5646L409.586 29.9785C410.312 30.7449 409.695 32.0012 408.645 31.8962L405.095 31.5412L405.095 33.8446C405.095 34.3526 404.683 34.7644 404.175 34.7644H395.824C395.316 34.7644 394.904 34.3526 394.904 33.8446L394.904 31.5412L391.354 31.8962C390.303 32.0012 389.687 30.7449 390.413 29.9785L399.332 20.5645Z" fill="black"/>
<path fill-rule="evenodd" clip-rule="evenodd" d="M181.563 341.758C136.552 330.159 103.297 289.293 103.297 240.659C103.297 192.026 136.552 151.16 181.563 139.561H201.099C204.741 139.561 207.692 142.513 207.692 146.154V335.165C207.692 338.806 204.741 341.758 201.099 341.758H181.563Z" fill="#FFA580"/>
<path fill-rule="evenodd" clip-rule="evenodd" d="M181.474 138.861H201.099C205.127 138.861 208.392 142.127 208.392 146.155V335.166C208.392 339.194 205.127 342.459 201.099 342.459H181.474L181.388 342.437C136.076 330.76 102.597 289.621 102.597 240.66C102.597 191.7 136.076 150.561 181.388 138.883L181.474 138.861ZM181.652 140.261C136.986 151.813 103.997 192.385 103.997 240.66C103.997 288.936 136.986 329.508 181.652 341.059H201.099C204.354 341.059 206.992 338.421 206.992 335.166V146.155C206.992 142.9 204.354 140.261 201.099 140.261H181.652Z" fill="black"/>
<path fill-rule="evenodd" clip-rule="evenodd" d="M73.2 139.38L107.529 267.498L106.177 267.861L71.8477 139.742L73.2 139.38Z" fill="black"/>
<path fill-rule="evenodd" clip-rule="evenodd" d="M683.783 139.741L652.426 256.768L651.073 256.405L682.431 139.379L683.783 139.741Z" fill="black"/>
<path fill-rule="evenodd" clip-rule="evenodd" d="M592.308 302.198C626.294 302.198 653.846 274.646 653.846 240.66C653.846 206.673 626.294 179.121 592.308 179.121V302.198Z" fill="#FFA580"/>
<path fill-rule="evenodd" clip-rule="evenodd" d="M591.607 178.42H592.307C626.681 178.42 654.546 206.285 654.546 240.658C654.546 275.032 626.681 302.897 592.307 302.897H591.607V178.42ZM593.007 179.824V301.493C626.285 301.118 653.146 274.025 653.146 240.658C653.146 207.292 626.285 180.199 593.007 179.824Z" fill="black"/>
<path fill-rule="evenodd" clip-rule="evenodd" d="M207.693 187.912C178.561 187.912 154.945 211.528 154.945 240.659C154.945 269.791 178.561 293.407 207.693 293.407V287.912C201.279 287.912 195.164 286.634 189.588 284.32L192.701 277.28C197.324 279.175 202.386 280.22 207.693 280.22V201.099C206.635 201.099 205.588 201.141 204.552 201.222L203.728 193.571C205.035 193.462 206.357 193.407 207.693 193.407V187.912ZM180.713 201.861C186.773 197.639 193.869 194.801 201.542 193.803L202.366 201.455C196.072 202.302 190.247 204.629 185.253 208.075L180.713 201.861ZM164.922 220.545C168.154 213.686 172.987 207.729 178.94 203.158L183.479 209.373C178.607 213.149 174.641 218.038 171.962 223.658L164.922 220.545ZM160.44 240.659C160.44 234.246 161.718 228.131 164.032 222.555L171.072 225.668C169.177 230.291 168.132 235.353 168.132 240.66C168.132 241.717 168.174 242.764 168.255 243.801L160.604 244.625C160.495 243.317 160.44 241.995 160.44 240.659ZM168.894 267.638C164.672 261.579 161.834 254.483 160.836 246.81L168.488 245.986C169.335 252.28 171.662 258.105 175.108 263.099L168.894 267.638ZM187.579 283.43C180.719 280.198 174.762 275.365 170.192 269.412L176.406 264.873C180.182 269.745 185.071 273.711 190.691 276.391L187.579 283.43Z" fill="#FFA580"/>
<path fill-rule="evenodd" clip-rule="evenodd" d="M206.992 188.618C178.57 188.992 155.645 212.149 155.645 240.66C155.645 269.171 178.57 292.328 206.992 292.703V288.608C200.74 288.518 194.776 287.232 189.32 284.967L188.658 284.692L192.336 276.375L192.966 276.634C197.303 278.411 202.034 279.427 206.992 279.515V201.806C206.191 201.82 205.395 201.859 204.606 201.921L203.928 201.974L202.955 192.933L203.67 192.874C204.767 192.783 205.875 192.728 206.992 192.712V188.618ZM154.245 240.66C154.245 211.142 178.174 187.213 207.692 187.213H208.392V194.107H207.692C206.62 194.107 205.555 194.144 204.501 194.215L205.175 200.477C206.008 200.426 206.847 200.4 207.692 200.4L208.392 200.4V280.921H207.692C202.535 280.921 197.602 279.95 193.068 278.182L190.52 283.943C195.833 286.053 201.626 287.213 207.692 287.213H208.392V294.107H207.692C178.174 294.107 154.245 270.178 154.245 240.66ZM202.161 193.018L203.135 202.058L202.459 202.149C196.277 202.981 190.556 205.267 185.65 208.652L185.089 209.039L179.726 201.696L180.313 201.287C186.463 197.003 193.664 194.122 201.452 193.11L202.161 193.018ZM181.704 202.031L185.419 207.117C190.193 203.941 195.684 201.756 201.598 200.858L200.923 194.596C193.883 195.621 187.353 198.223 181.704 202.031ZM179.082 202.167L184.445 209.51L183.907 209.927C179.121 213.637 175.225 218.439 172.593 223.96L172.301 224.574L163.983 220.896L164.289 220.248C167.568 213.286 172.473 207.242 178.513 202.604L179.082 202.167ZM165.866 220.198L171.628 222.746C174.244 217.487 177.977 212.883 182.515 209.242L178.8 204.155C173.38 208.452 168.939 213.929 165.866 220.198ZM163.66 221.626L171.977 225.304L171.719 225.934C169.858 230.475 168.832 235.447 168.832 240.66C168.832 241.699 168.873 242.729 168.953 243.747L169.006 244.425L159.965 245.398L159.906 244.683C159.796 243.357 159.74 242.015 159.74 240.66C159.74 234.153 161.036 227.947 163.386 222.287L163.66 221.626ZM164.409 223.488C162.3 228.8 161.14 234.594 161.14 240.66C161.14 241.733 161.176 242.797 161.247 243.852L167.51 243.178C167.458 242.345 167.432 241.506 167.432 240.66C167.432 235.502 168.402 230.57 170.171 226.036L164.409 223.488ZM169.09 245.218L169.181 245.894C170.013 252.076 172.299 257.797 175.684 262.703L176.071 263.264L168.728 268.627L168.319 268.039C164.035 261.89 161.154 254.689 160.142 246.901L160.05 246.191L169.09 245.218ZM161.628 247.43C162.654 254.47 165.255 260.999 169.063 266.648L174.149 262.933C170.973 258.16 168.789 252.669 167.891 246.755L161.628 247.43ZM176.542 263.907L176.959 264.445C180.669 269.232 185.471 273.128 190.992 275.759L191.606 276.052L187.929 284.369L187.28 284.064C180.318 280.784 174.274 275.88 169.636 269.839L169.199 269.271L176.542 263.907ZM171.188 269.552C175.484 274.973 180.961 279.414 187.23 282.487L189.778 276.725C184.52 274.108 179.915 270.375 176.274 265.837L171.188 269.552Z" fill="black"/>
<path fill-rule="evenodd" clip-rule="evenodd" d="M592.308 293.41C619.168 293.442 642.157 273.042 644.808 245.76C647.625 216.765 626.404 190.976 597.409 188.159C595.696 187.993 593.994 187.91 592.308 187.908V193.403C593.818 193.405 595.343 193.479 596.877 193.628C601.317 194.059 605.554 195.092 609.514 196.637L606.546 203.739C603.278 202.481 599.788 201.639 596.134 201.284C594.849 201.159 593.573 201.098 592.308 201.096V280.223C593.638 280.224 594.955 280.159 596.257 280.03L597.237 287.663C595.614 287.832 593.969 287.917 592.308 287.915V293.41ZM620.074 278.894C614.058 283.266 607.002 286.237 599.417 287.385L598.437 279.752C604.659 278.781 610.451 276.344 615.409 272.775L620.074 278.894ZM617.156 271.442L621.821 277.562C627.65 272.899 632.377 266.867 635.482 259.894L628.381 256.926C625.805 262.64 621.926 267.591 617.156 271.442ZM639.339 245.229C638.907 249.669 637.875 253.905 636.329 257.866L629.228 254.898C630.486 251.63 631.328 248.14 631.683 244.485C631.939 241.849 631.93 239.249 631.678 236.71L639.312 235.73C639.634 238.829 639.652 242.007 639.339 245.229ZM631.4 234.53L639.034 233.55C637.886 225.965 634.914 218.908 630.543 212.893L624.423 217.558C627.992 222.515 630.429 228.308 631.4 234.53ZM611.542 197.484C618.515 200.59 624.548 205.317 629.21 211.146L623.091 215.811C619.239 211.04 614.288 207.162 608.574 204.586L611.542 197.484Z" fill="#FFA580"/>
<path fill-rule="evenodd" clip-rule="evenodd" d="M591.607 187.207L592.308 187.208C594.017 187.21 595.741 187.294 597.476 187.462C626.856 190.317 648.359 216.448 645.504 245.828C642.818 273.472 619.525 294.142 592.307 294.11L591.607 294.109V287.214L592.308 287.215C593.702 287.217 595.084 287.156 596.45 287.035L595.648 280.787C594.544 280.878 593.43 280.924 592.307 280.922L591.607 280.921V200.395L592.308 200.396C593.595 200.397 594.894 200.46 596.201 200.587C599.683 200.926 603.019 201.698 606.16 202.846L608.589 197.034C604.882 195.653 600.935 194.725 596.809 194.324C595.297 194.177 593.795 194.105 592.307 194.103L591.607 194.102V187.207ZM593.007 188.613V192.709C594.311 192.729 595.624 192.803 596.945 192.931C601.449 193.369 605.749 194.416 609.768 195.985L610.436 196.246L606.929 204.637L606.294 204.392C603.085 203.157 599.657 202.33 596.066 201.981C595.04 201.881 594.02 201.822 593.007 201.803V279.517C594.077 279.499 595.137 279.437 596.187 279.333L596.864 279.266L598.022 288.285L597.309 288.359C595.89 288.507 594.455 288.591 593.007 288.611V292.706C619.21 292.386 641.518 272.375 644.111 245.692C646.891 217.082 625.951 191.635 597.341 188.856C595.887 188.714 594.442 188.634 593.007 188.613ZM611.172 196.553L611.827 196.844C618.904 199.996 625.026 204.794 629.756 210.708L630.204 211.268L622.973 216.78L622.546 216.25C618.762 211.563 613.898 207.754 608.286 205.224L607.665 204.944L611.172 196.553ZM611.909 198.42L609.48 204.233C614.825 206.753 619.491 210.402 623.203 214.844L628.211 211.026C623.831 205.719 618.282 201.377 611.909 198.42ZM630.688 211.902L631.109 212.481C635.545 218.585 638.56 225.746 639.726 233.444L639.833 234.152L630.813 235.311L630.708 234.638C629.755 228.527 627.361 222.837 623.855 217.967L623.457 217.414L630.688 211.902ZM625.385 217.705C628.676 222.443 630.966 227.902 631.981 233.749L638.229 232.947C637.065 225.987 634.339 219.495 630.393 213.887L625.385 217.705ZM639.934 234.944L640.008 235.657C640.335 238.803 640.353 242.028 640.035 245.296C639.598 249.801 638.55 254.1 636.981 258.12L636.721 258.788L628.33 255.281L628.574 254.646C629.81 251.437 630.637 248.008 630.986 244.417C631.238 241.827 631.229 239.272 630.981 236.779L630.914 236.102L639.934 234.944ZM632.436 237.318C632.63 239.687 632.617 242.105 632.379 244.553C632.041 248.035 631.268 251.371 630.12 254.512L635.932 256.941C637.313 253.233 638.241 249.287 638.642 245.161C638.926 242.233 638.933 239.342 638.684 236.516L632.436 237.318ZM628.022 256.017L636.413 259.524L636.122 260.178C632.97 267.256 628.172 273.377 622.258 278.108L621.699 278.555L616.187 271.325L616.716 270.897C621.403 267.114 625.213 262.249 627.743 256.638L628.022 256.017ZM628.734 257.832C626.214 263.177 622.565 267.843 618.122 271.554L621.94 276.563C627.247 272.182 631.589 266.633 634.546 260.261L628.734 257.832ZM615.552 271.809L621.064 279.039L620.485 279.46C614.381 283.896 607.22 286.912 599.522 288.077L598.814 288.184L597.655 279.165L598.329 279.06C604.439 278.106 610.129 275.713 614.999 272.207L615.552 271.809ZM599.217 280.332L600.019 286.58C606.979 285.416 613.471 282.69 619.079 278.744L615.261 273.736C610.523 277.028 605.065 279.317 599.217 280.332Z" fill="black"/>
<path fill-rule="evenodd" clip-rule="evenodd" d="M207.692 201.1V280.22C185.844 280.22 168.132 262.509 168.132 240.66C168.132 218.811 185.844 201.1 207.692 201.1Z" fill="#FFA580"/>
<path fill-rule="evenodd" clip-rule="evenodd" d="M206.992 201.805C185.853 202.178 168.832 219.431 168.832 240.659C168.832 261.887 185.853 279.14 206.992 279.513V201.805ZM167.432 240.659C167.432 218.424 185.457 200.398 207.692 200.398H208.392V280.919H207.692C185.457 280.919 167.432 262.894 167.432 240.659Z" fill="black"/>
<path fill-rule="evenodd" clip-rule="evenodd" d="M592.308 280.22C614.156 280.22 631.868 262.509 631.868 240.66C631.868 218.811 614.156 201.1 592.308 201.1V280.22Z" fill="#FFA580"/>
<path fill-rule="evenodd" clip-rule="evenodd" d="M591.607 200.398H592.307C614.543 200.398 632.568 218.424 632.568 240.659C632.568 262.894 614.543 280.919 592.307 280.919H591.607V200.398ZM593.007 201.805V279.513C614.146 279.14 631.168 261.887 631.168 240.659C631.168 219.431 614.146 202.178 593.007 201.805Z" fill="black"/>
<path fill-rule="evenodd" clip-rule="evenodd" d="M207.692 205.494V275.824C188.271 275.824 172.527 260.08 172.527 240.659C172.527 221.238 188.271 205.494 207.692 205.494Z" fill="#FFA580"/>
<path fill-rule="evenodd" clip-rule="evenodd" d="M206.992 206.202C188.281 206.575 173.227 221.859 173.227 240.66C173.227 259.46 188.281 274.745 206.992 275.118V206.202ZM171.827 240.66C171.827 220.852 187.884 204.795 207.692 204.795H208.392V276.525H207.692C187.884 276.525 171.827 260.467 171.827 240.66Z" fill="black"/>
<path fill-rule="evenodd" clip-rule="evenodd" d="M592.308 275.824C611.729 275.824 627.472 260.08 627.472 240.659C627.472 221.238 611.729 205.494 592.308 205.494V275.824Z" fill="#FFA580"/>
<path fill-rule="evenodd" clip-rule="evenodd" d="M591.607 204.795H592.307C612.115 204.795 628.172 220.852 628.172 240.66C628.172 260.467 612.115 276.525 592.307 276.525H591.607V204.795ZM593.007 206.202V275.118C611.719 274.745 626.772 259.46 626.772 240.66C626.772 221.859 611.719 206.575 593.007 206.202Z" fill="black"/>
<path fill-rule="evenodd" clip-rule="evenodd" d="M115.314 67.1583C118.279 66.5124 121.207 68.3924 121.853 71.3574C123.434 78.6149 124.182 85.8713 124.725 92.9257C124.906 95.2767 125.063 97.5788 125.218 99.8527C125.537 104.527 125.848 109.083 126.343 113.7C126.666 116.717 124.482 119.425 121.465 119.748C118.448 120.072 115.74 117.888 115.416 114.871C114.899 110.044 114.563 105.123 114.235 100.329C114.084 98.1075 113.934 95.9136 113.769 93.7695C113.237 86.8685 112.534 80.2083 111.115 73.6965C110.469 70.7315 112.349 67.8042 115.314 67.1583Z" fill="black"/>
<path fill-rule="evenodd" clip-rule="evenodd" d="M210.828 67.3055C213.712 68.2496 215.284 71.3529 214.34 74.2368C213.868 75.6776 213.683 77.4436 213.696 79.6449C213.705 81.1155 213.787 82.4456 213.877 83.8974C213.932 84.7748 213.989 85.6966 214.034 86.7207C214.155 89.4551 214.367 92.1999 214.59 95.0465L214.607 95.266C214.823 98.0151 215.046 100.862 215.181 103.728C215.184 103.803 215.197 103.979 215.215 104.22C215.271 104.992 215.377 106.435 215.385 107.415C215.395 108.809 215.315 111.285 214.106 113.502C212.792 115.909 210.439 117.765 207.271 117.852C204.704 117.922 202.53 116.772 201.114 115.836C198.169 113.889 195.199 110.605 192.732 107.565C190.574 104.906 188.501 102.051 186.785 99.6184C186.627 100.074 186.466 100.549 186.304 101.039C185.407 103.754 184.572 106.632 183.893 108.996C183.837 109.191 183.782 109.383 183.728 109.572C183.46 110.508 183.214 111.365 183.011 112.047C182.889 112.457 182.768 112.85 182.656 113.187L182.653 113.198C182.577 113.425 182.394 113.978 182.133 114.491C181.585 115.566 180.416 117.433 178.121 118.283C175.406 119.288 173.093 118.216 171.864 117.298C170.725 116.447 169.948 115.365 169.468 114.61C168.94 113.779 168.49 112.885 168.118 112.061C166.672 108.864 165.648 105.027 165.555 104.653C163.602 96.8524 163.686 88.9619 163.763 81.7904C163.778 80.4272 163.792 79.09 163.792 77.7843C163.792 74.7498 166.252 72.2898 169.287 72.2898C172.321 72.2898 174.781 74.7498 174.781 77.7843C174.781 79.3219 174.768 80.8137 174.755 82.268C174.702 88.1669 174.655 93.4476 175.524 98.6536C175.638 98.2984 175.753 97.9436 175.87 97.5905C176.814 94.7332 177.949 91.6424 179.173 89.3848C179.719 88.3778 180.636 86.8465 182.029 85.7533C182.782 85.1627 184.095 84.3665 185.878 84.2995C187.835 84.2261 189.415 85.0598 190.466 86.047C190.961 86.513 191.388 87.0772 191.578 87.3296L191.58 87.332C191.853 87.6935 192.163 88.1255 192.485 88.5819C192.859 89.1115 193.309 89.7607 193.799 90.467C194.137 90.954 194.494 91.4682 194.857 91.989C196.699 94.6289 198.959 97.7997 201.265 100.64C202.313 101.932 203.297 103.062 204.192 104.004C204.064 101.392 203.859 98.7703 203.646 96.0539L203.635 95.9045C203.414 93.0811 203.186 90.1554 203.056 87.2059C203.028 86.5727 202.983 85.8339 202.935 85.0372C202.834 83.3688 202.718 81.4469 202.707 79.7111C202.691 76.9886 202.895 73.8756 203.897 70.8177C204.841 67.9338 207.944 66.3613 210.828 67.3055ZM204.328 108.544C204.327 108.544 204.328 108.54 204.33 108.533C204.329 108.541 204.328 108.544 204.328 108.544ZM207.657 106.947C207.669 106.951 207.675 106.953 207.675 106.953C207.675 106.954 207.669 106.952 207.657 106.947ZM172.176 109.87C172.176 109.87 172.179 109.861 172.186 109.844C172.179 109.863 172.176 109.871 172.176 109.87ZM178.833 108.85C178.845 108.865 178.852 108.873 178.852 108.874C178.851 108.874 178.845 108.866 178.833 108.85ZM182.671 93.7756C182.671 93.7755 182.673 93.7781 182.678 93.7836C182.674 93.7784 182.671 93.7757 182.671 93.7756Z" fill="black"/>
<path fill-rule="evenodd" clip-rule="evenodd" d="M231.458 76.9395C234.484 76.7126 237.121 78.9819 237.348 82.0079C237.41 82.838 237.471 83.6636 237.531 84.4852C237.955 90.2436 238.363 95.7987 239.176 101.261C239.268 101.883 239.37 102.167 239.414 102.269C239.442 102.338 239.459 102.365 239.512 102.426C239.605 102.536 239.784 102.716 240.251 103.111C240.356 103.2 240.494 103.314 240.653 103.446C241.056 103.781 241.597 104.231 242.097 104.672C244.373 106.68 244.59 110.152 242.582 112.427C240.574 114.703 237.102 114.92 234.827 112.912C234.444 112.574 234.146 112.327 233.81 112.049C233.613 111.885 233.402 111.71 233.154 111.5C232.579 111.014 231.847 110.372 231.158 109.566C229.571 107.709 228.708 105.579 228.306 102.878C227.429 96.9804 226.989 90.9851 226.57 85.2646C226.51 84.4468 226.45 83.6347 226.39 82.8293C226.163 79.8032 228.432 77.1663 231.458 76.9395Z" fill="black"/>
<path fill-rule="evenodd" clip-rule="evenodd" d="M227.043 57.1475C226.345 57.4481 225.591 57.9064 224.905 58.6101C223.302 60.2539 222.89 62.3686 223.15 64.1728C223.561 67.0163 225.447 68.8922 227.546 69.7274C229.236 70.3997 230.917 70.3661 231.901 70.2931C233.003 70.2114 234.047 70.0047 234.782 69.8433C235.099 69.7736 235.402 69.7024 235.634 69.6479C235.676 69.6381 235.715 69.6289 235.752 69.6203C235.881 69.5899 235.976 69.568 236.052 69.5512C236.116 69.537 236.142 69.532 236.142 69.5319C236.142 69.5319 236.141 69.5322 236.138 69.5328C239.124 68.9951 241.11 66.1382 240.572 63.1517C240.19 61.0312 238.639 59.4155 236.703 58.8492C236.021 56.5903 233.924 54.9453 231.442 54.9453C229.643 54.9453 228.045 55.8105 227.043 57.1475Z" fill="black"/>
<path fill-rule="evenodd" clip-rule="evenodd" d="M273.984 68.6164C274.112 68.6436 274.228 68.6683 274.331 68.6891C277.305 69.2923 279.227 72.1922 278.624 75.1662C278.021 78.1401 275.121 80.062 272.147 79.4588C271.986 79.4262 271.831 79.3943 271.69 79.3652L271.687 79.3645C271.544 79.335 271.417 79.3087 271.295 79.2839C271.046 79.2334 270.857 79.1973 270.698 79.1705C270.615 79.1565 270.547 79.1465 270.494 79.1394C270.466 79.1568 270.435 79.1775 270.399 79.2019C270.246 79.3054 270.096 79.4064 269.946 79.5071C269.534 79.7841 269.125 80.059 268.686 80.3773C268.834 80.4488 268.988 80.5216 269.15 80.5957C270.224 81.0868 271.305 81.5059 272.548 81.988C273.102 82.2029 273.689 82.4304 274.322 82.6823C276.194 83.4279 278.39 84.3625 280.367 85.6383C282.377 86.9351 284.467 88.7762 285.787 91.4823C288.433 96.9067 285.442 102.237 283.355 105.003C281.01 108.112 277.702 110.874 274.946 112.204C271.719 113.761 268.694 113.082 267.276 112.758C267.004 112.696 266.79 112.646 266.613 112.604C266.205 112.508 266.001 112.46 265.756 112.425C265.747 112.424 265.738 112.423 265.73 112.422C262.871 113.031 260.013 111.286 259.27 108.429C258.507 105.492 260.269 102.492 263.206 101.729C264.8 101.315 266.237 101.394 267.302 101.546C268.091 101.658 268.942 101.86 269.452 101.981C269.559 102.007 269.65 102.028 269.723 102.045C270.06 102.122 270.28 102.16 270.413 102.179C271.435 101.604 273.241 100.165 274.582 98.386C275.28 97.4604 275.639 96.7192 275.771 96.2493C275.787 96.1959 275.797 96.1516 275.805 96.1156C275.608 95.8129 275.218 95.3941 274.409 94.8717C273.387 94.2123 272.038 93.601 270.257 92.8917C269.836 92.7242 269.375 92.5453 268.889 92.3569C267.524 91.8276 265.966 91.2234 264.578 90.5884C262.65 89.7061 260.426 88.5026 258.586 86.7063C256.612 84.7783 255.671 82.1723 256.179 79.4317C256.601 77.1539 257.911 75.4459 258.85 74.4178C260.544 72.5637 262.876 71.0108 263.918 70.3166C264.038 70.2366 264.141 70.1681 264.224 70.1117C266.049 68.872 267.942 68.1854 270.065 68.1354C271.553 68.1004 273.07 68.4224 273.984 68.6164ZM275.825 95.9887C275.825 95.9886 275.825 95.9915 275.824 95.9977C275.824 95.9919 275.824 95.9888 275.825 95.9887ZM266.759 82.0822C266.758 82.0822 266.764 82.0732 266.776 82.055C266.766 82.0731 266.759 82.0822 266.759 82.0822ZM270.64 79.0565C270.64 79.0565 270.639 79.0569 270.637 79.0576C270.639 79.0568 270.64 79.0565 270.64 79.0565Z" fill="black"/>
<path fill-rule="evenodd" clip-rule="evenodd" d="M294.359 69.7554C297.103 68.4602 300.378 69.635 301.673 72.3793C306.219 82.012 307.245 92.4465 307.923 101.903C307.957 102.383 307.937 102.863 307.928 103.091C307.917 103.339 307.9 103.623 307.886 103.874C307.883 103.914 307.881 103.954 307.879 103.992C307.868 104.181 307.858 104.361 307.849 104.533C307.974 104.717 308.088 104.911 308.192 105.114C309.571 107.817 308.497 111.126 305.794 112.505C304.602 113.113 302.482 113.673 300.272 112.512C298.4 111.529 297.66 109.895 297.401 109.217C296.869 107.828 296.84 106.347 296.833 105.695C296.824 104.832 296.874 103.949 296.908 103.356C296.942 102.767 296.948 102.578 296.953 102.578C296.954 102.578 296.954 102.58 296.954 102.583C296.275 93.1525 295.302 84.6274 291.735 77.0693C290.44 74.3251 291.615 71.0505 294.359 69.7554ZM307.836 105.909C307.835 105.907 307.835 105.904 307.835 105.899C307.838 105.921 307.838 105.925 307.836 105.909Z" fill="black"/>
<path fill-rule="evenodd" clip-rule="evenodd" d="M328.277 85.0363C329.258 87.9079 327.726 91.031 324.854 92.0119C320.732 93.4198 316.454 94.8321 312.206 96.2344C308.668 97.4024 305.15 98.5636 301.761 99.7096C298.886 100.682 295.768 99.1395 294.796 96.2649C293.824 93.3903 295.366 90.2719 298.241 89.2998C301.88 88.0691 305.401 86.9074 308.899 85.7537C313.015 84.3958 317.098 83.0488 321.302 81.6129C324.173 80.632 327.296 82.1647 328.277 85.0363Z" fill="black"/>
<path fill-rule="evenodd" clip-rule="evenodd" d="M325.256 64.95C328.227 64.3326 331.136 66.2407 331.753 69.2118C333.638 78.2807 334.488 87.5458 335.308 96.4757C335.604 99.7042 335.896 102.889 336.232 106.005C336.557 109.022 334.375 111.731 331.358 112.056C328.341 112.381 325.631 110.199 325.306 107.182C324.929 103.684 324.616 100.27 324.308 96.912C323.507 88.1932 322.742 79.8589 320.994 71.4474C320.377 68.4764 322.285 65.5674 325.256 64.95Z" fill="black"/>
<path fill-rule="evenodd" clip-rule="evenodd" d="M382.77 73.6785C385.777 73.2663 388.548 75.3694 388.96 78.3758C389.292 80.7934 389.736 83.2971 390.21 85.9676L390.219 86.0211C390.689 88.673 391.187 91.4799 391.574 94.3067C392.345 99.9308 392.748 106.047 391.554 112.06C390.963 115.037 388.071 116.97 385.095 116.38C382.119 115.789 380.185 112.897 380.776 109.92C381.617 105.682 381.398 100.986 380.687 95.7989C380.333 93.2203 379.875 90.6225 379.399 87.9406L379.371 87.7822C378.911 85.188 378.434 82.5022 378.073 79.8685C377.661 76.8621 379.764 74.0907 382.77 73.6785Z" fill="black"/>
<path fill-rule="evenodd" clip-rule="evenodd" d="M465.223 84.6928C467.072 83.3737 467.978 80.9839 467.306 78.68C466.456 75.7669 463.406 74.0942 460.493 74.9439C458.264 75.5939 456.398 77.0084 455.279 79.119C454.272 81.0181 454.122 83.0072 454.185 84.5324C454.308 87.4834 455.358 90.8077 456.252 93.4681C456.518 94.2619 456.781 95.0234 457.034 95.7583C457.64 97.5164 458.194 99.1225 458.627 100.657C458.597 100.626 458.569 100.596 458.542 100.568C454.731 96.5481 452.375 91.5474 449.606 85.6711C449.102 84.6005 448.584 83.5008 448.04 82.3727C447.394 81.0308 446.614 79.6309 445.638 78.5158C444.824 77.5849 442.631 75.4584 439.308 75.9822C438.034 76.1829 437.03 76.7148 436.252 77.3354C434.623 77.9208 433.295 79.2652 432.804 81.0627C432.326 82.8155 431.83 84.5942 431.33 86.3903C430.115 90.7465 428.872 95.2056 427.784 99.6489C427.75 99.7868 427.705 99.9461 427.632 100.203C427.576 100.401 427.504 100.658 427.407 101.008C427.22 101.685 426.991 102.552 426.8 103.472C426.613 104.368 426.429 105.462 426.385 106.577C426.345 107.561 426.376 109.24 427.154 110.89C427.401 111.415 428.089 112.671 429.636 113.471C431.482 114.425 433.319 114.125 434.506 113.577C435.504 113.117 436.113 112.476 436.356 112.204C436.65 111.874 436.852 111.57 436.97 111.382C437.37 110.743 437.632 110.059 437.748 109.753C438.051 108.95 438.367 107.921 438.63 107.016C438.904 106.072 439.165 105.107 439.36 104.361C439.458 103.988 439.542 103.659 439.604 103.406C439.606 103.401 439.608 103.393 439.61 103.383C439.64 103.263 439.748 102.833 439.798 102.505C440.237 99.6337 440.768 96.8188 441.395 94.0181C443.737 98.8166 446.565 103.906 450.567 108.128C451.66 109.282 454.214 111.689 457.114 113.093C458.509 113.769 460.822 114.631 463.418 114.141C466.563 113.547 468.634 111.305 469.628 108.65C470.926 105.183 470.15 101.282 469.462 98.6287C468.888 96.4169 468.049 93.9836 467.308 91.8377C467.082 91.1832 466.866 90.5555 466.669 89.9689C465.866 87.5803 465.385 85.865 465.223 84.6928ZM427.434 105.957C427.423 105.984 427.418 105.996 427.418 105.995C427.418 105.995 427.423 105.981 427.434 105.957ZM465.168 83.7869C465.169 83.7765 465.17 83.7716 465.17 83.7717C465.17 83.7719 465.17 83.777 465.168 83.7869Z" fill="black"/>
<path fill-rule="evenodd" clip-rule="evenodd" d="M482.335 73.7548C485.298 73.102 488.23 74.9751 488.883 77.9385C490.659 85.9999 491.733 94.0017 492.788 101.864C492.816 102.074 492.844 102.283 492.872 102.493C492.925 102.888 492.975 103.299 493.027 103.722C493.212 105.236 493.415 106.902 493.834 108.515C493.919 108.841 494.004 109.128 494.087 109.379C494.615 109.15 495.22 108.857 495.883 108.508C497.943 107.422 499.969 106.111 501.124 105.364C501.229 105.295 501.328 105.231 501.418 105.173C503.969 103.528 507.369 104.262 509.014 106.813C510.659 109.363 509.924 112.763 507.374 114.408C507.291 114.462 507.196 114.523 507.089 114.592C505.956 115.326 503.532 116.898 501.009 118.228C499.639 118.95 498.056 119.701 496.507 120.209C495.73 120.464 494.826 120.703 493.872 120.813C492.964 120.919 491.649 120.953 490.253 120.478C487.646 119.59 486.046 117.667 485.113 116.101C484.169 114.515 483.585 112.767 483.199 111.28C482.569 108.859 482.252 106.201 482.074 104.71C482.038 104.406 482.007 104.15 481.981 103.955L481.921 103.508C480.848 95.5145 479.827 87.9098 478.151 80.3028C477.498 77.3394 479.372 74.4077 482.335 73.7548ZM494.635 110.599C494.635 110.6 494.63 110.594 494.621 110.581C494.63 110.592 494.635 110.599 494.635 110.599Z" fill="black"/>
<path fill-rule="evenodd" clip-rule="evenodd" d="M513.149 93.8626C513.505 96.8762 511.35 99.6076 508.336 99.9634C504.076 100.466 499.873 101.15 495.685 102.071C492.721 102.722 489.791 100.848 489.139 97.8842C488.488 94.9205 490.362 91.9897 493.326 91.3382C497.906 90.3313 502.47 89.5906 507.048 89.0501C510.062 88.6944 512.793 90.849 513.149 93.8626Z" fill="black"/>
<path fill-rule="evenodd" clip-rule="evenodd" d="M485.602 89.1865C485.327 89.3168 485.05 89.4483 484.77 89.5809C482.027 90.8799 478.751 89.7098 477.452 86.9674C476.153 84.225 477.323 80.9487 480.066 79.6497C480.529 79.43 481 79.205 481.478 78.9766C487.633 76.0364 494.979 72.5273 503.297 72.5273C506.331 72.5273 508.791 74.9873 508.791 78.0219C508.791 81.0564 506.331 83.5164 503.297 83.5164C497.555 83.5164 492.351 85.9848 485.602 89.1865Z" fill="black"/>
<path fill-rule="evenodd" clip-rule="evenodd" d="M547.253 65.9336C550.288 65.9336 552.748 68.3936 552.748 71.4281C552.748 83.2364 551.721 98.3266 546.79 110.165C545.786 112.575 543.724 115.28 540.404 116.192C536.439 117.282 532.999 115.267 531.003 112.362C528.083 108.111 526.087 103.078 524.488 98.4092C523.75 96.2541 523.127 94.2888 522.538 92.4285C521.743 89.9184 521.008 87.5996 520.131 85.2637C519.065 82.4227 520.503 79.2552 523.344 78.1888C526.185 77.1224 529.353 78.5611 530.419 81.4021C531.342 83.8604 532.276 86.789 533.178 89.6189C533.764 91.4551 534.336 93.2497 534.884 94.8473C535.839 97.6343 536.826 100.191 537.931 102.442C540.925 93.189 541.759 81.6502 541.759 71.4281C541.759 68.3936 544.219 65.9336 547.253 65.9336Z" fill="black"/>
<path fill-rule="evenodd" clip-rule="evenodd" d="M567.539 71.4415C570.568 71.6383 572.863 74.2526 572.666 77.2807C572.585 78.53 572.397 80.1994 572.202 81.929C572.101 82.8283 571.998 83.7439 571.907 84.6251C571.621 87.4022 571.393 90.3199 571.433 93.0698C571.473 95.8738 571.791 98.1487 572.384 99.7753C572.95 101.325 573.577 101.824 574.063 102.039C574.524 102.243 575.465 102.349 577.991 101.755C578.539 101.626 579.094 101.483 579.714 101.323L579.817 101.296C580.457 101.132 581.167 100.95 581.885 100.785C583.295 100.463 585.011 100.141 586.813 100.141C589.848 100.141 592.308 102.601 592.308 105.636C592.308 108.67 589.848 111.13 586.813 111.13C586.243 111.13 585.469 111.238 584.336 111.498C583.782 111.624 583.208 111.771 582.558 111.938L582.428 111.972C581.833 112.125 581.173 112.295 580.509 112.451C577.868 113.073 573.695 113.893 569.615 112.087C565.569 110.296 563.29 106.911 562.061 103.542C560.86 100.25 560.493 96.5706 560.445 93.2281C560.396 89.8314 560.676 86.4101 560.976 83.4981C561.1 82.2921 561.221 81.2277 561.328 80.2804C561.498 78.7825 561.635 77.5774 561.7 76.568C561.897 73.5399 564.511 71.2446 567.539 71.4415Z" fill="black"/>
<path fill-rule="evenodd" clip-rule="evenodd" d="M592.192 87.8844C592.813 90.8547 590.909 93.7662 587.938 94.3874C581.391 95.7569 575.063 96.7016 568.132 96.7016C565.098 96.7016 562.638 94.2416 562.638 91.2071C562.638 88.1726 565.098 85.7126 568.132 85.7126C574.029 85.7126 579.548 84.9156 585.689 83.6312C588.659 83.0099 591.57 84.9142 592.192 87.8844Z" fill="black"/>
<path fill-rule="evenodd" clip-rule="evenodd" d="M558.243 72.4686C558.275 69.4342 560.761 67.0009 563.796 67.0335C570.795 67.1089 577.493 67.5977 584.202 68.0873C584.473 68.1071 584.744 68.1269 585.015 68.1466C588.042 68.3672 590.316 70.9995 590.096 74.026C589.875 77.0525 587.243 79.3271 584.216 79.1066C583.983 79.0896 583.75 79.0725 583.517 79.0556C576.721 78.5598 570.328 78.0935 563.678 78.0219C560.643 77.9892 558.21 75.5029 558.243 72.4686Z" fill="black"/>
<path fill-rule="evenodd" clip-rule="evenodd" d="M617.612 99.7594C617.473 101.812 617.35 103.652 617.214 104.6C617.132 105.174 617.033 105.75 616.903 106.274C616.839 106.534 616.743 106.877 616.601 107.245C616.49 107.534 616.204 108.236 615.615 108.948C615.052 109.629 613.348 111.285 610.618 110.947C608.257 110.655 607.04 109.047 606.744 108.636C606.076 107.705 605.812 106.718 605.749 106.483C605.747 106.473 605.744 106.464 605.742 106.457C605.475 105.473 605.255 103.823 605.143 102.98C605.12 102.807 605.102 102.668 605.088 102.576C603.87 94.2272 604.524 85.4146 605.102 77.6221C605.198 76.32 605.293 75.0464 605.376 73.8082C605.58 70.7805 608.199 68.4912 611.227 68.6948C612.275 68.7653 613.234 69.1252 614.033 69.6913C615.339 68.7058 617.106 67.9576 619.294 68.1659C621.378 68.3642 622.992 69.3654 624.021 70.1844C625.104 71.0457 625.998 72.07 626.696 73.012C628.029 74.8112 629.204 77.0775 629.687 79.0059C630.651 82.8627 629.555 86.268 627.857 88.8172C635.307 90.9434 642.861 93.1773 650.314 96.0254C653.149 97.1086 654.568 100.285 653.485 103.119C652.402 105.954 649.226 107.374 646.391 106.29C638.403 103.238 630.376 100.957 621.982 98.5723C620.591 98.177 619.189 97.7789 617.776 97.3739C617.767 97.4952 617.759 97.6157 617.75 97.7354C617.702 98.417 617.656 99.0992 617.612 99.7594ZM617.172 78.7777C617.152 78.765 617.142 78.7573 617.142 78.7567C617.142 78.756 617.152 78.7624 617.172 78.7777Z" fill="black"/>
<path fill-rule="evenodd" clip-rule="evenodd" d="M139.008 367.75C139.219 370.777 136.935 373.402 133.908 373.613C131.292 373.795 127.941 374.7 125.395 376.244C122.838 377.794 122.004 379.351 121.979 380.737C121.96 381.817 122.284 382.525 122.986 383.267C123.845 384.177 125.243 385.076 127.302 386.067C130.61 387.658 134.039 389.022 137.678 390.47C137.899 390.558 138.122 390.646 138.345 390.735C142.165 392.256 146.203 393.883 150.134 395.869C150.159 395.882 150.245 395.92 150.38 395.98C151.253 396.368 154.2 397.678 156.222 398.982C157.428 399.76 159.17 401.036 160.317 402.881C160.94 403.881 161.514 405.25 161.538 406.907C161.563 408.628 160.988 410.172 160.094 411.426C157.732 414.738 154.176 416.736 151.069 417.968C147.874 419.236 144.526 419.94 141.854 420.307C136.175 421.088 129.276 421.332 122.945 419.304C122.943 419.304 122.935 419.301 122.921 419.297C122.717 419.238 121.255 418.811 120.202 418.249C119.866 418.069 119.329 417.756 118.788 417.272C118.31 416.845 117.301 415.822 116.921 414.136C116.463 412.104 117.169 410.324 118.117 409.175C118.908 408.216 119.83 407.708 120.332 407.464C122.73 406.297 125.56 407.032 127.112 409.079C131.008 410.13 135.676 410.064 140.357 409.421C142.462 409.131 144.89 408.597 147.017 407.753C147.506 407.559 147.951 407.36 148.355 407.158C148.137 407.05 147.915 406.943 147.69 406.838C147.25 406.63 146.836 406.444 146.438 406.265L146.342 406.221C145.983 406.059 145.535 405.857 145.178 405.677C141.739 403.939 138.127 402.476 134.28 400.945C134.031 400.846 133.782 400.746 133.531 400.647C129.971 399.231 126.206 397.733 122.539 395.97C117.989 393.781 110.83 389.555 110.992 380.539C111.112 373.886 115.446 369.424 119.698 366.847C123.96 364.263 129.058 362.934 133.146 362.65C136.173 362.44 138.798 364.723 139.008 367.75Z" fill="black"/>
<path fill-rule="evenodd" clip-rule="evenodd" d="M183.853 393.61C182.947 400.183 184.065 408.647 184.934 411.612C185.787 414.525 184.117 417.577 181.205 418.43C178.293 419.282 175.241 417.613 174.388 414.701C173.122 410.378 171.831 400.35 172.967 392.11C173.514 388.141 174.779 383.305 178.089 380.108C179.899 378.36 182.241 377.188 185.016 376.963C187.679 376.747 190.331 377.435 192.867 378.637C207.908 385.768 211.871 401.095 214.826 412.527C214.955 413.025 215.082 413.516 215.208 413.999C215.974 416.935 214.214 419.936 211.278 420.702C208.342 421.468 205.34 419.708 204.575 416.772C201.232 403.955 198.427 393.435 188.159 388.567C186.777 387.911 186.084 387.902 185.903 387.916C185.894 387.917 185.887 387.917 185.88 387.918C185.831 387.92 185.818 387.921 185.723 388.013C185.196 388.522 184.327 390.172 183.853 393.61Z" fill="black"/>
<path fill-rule="evenodd" clip-rule="evenodd" d="M210.954 394.973C211.303 397.987 209.142 400.714 206.127 401.062C197.229 402.092 189.216 403.566 180.837 406.319C177.954 407.266 174.849 405.697 173.902 402.814C172.955 399.931 174.524 396.826 177.407 395.879C186.708 392.823 195.497 391.23 204.864 390.146C207.878 389.797 210.605 391.958 210.954 394.973Z" fill="black"/>
<path fill-rule="evenodd" clip-rule="evenodd" d="M253.66 378.914C256.202 377.257 259.606 377.974 261.263 380.516C262.756 382.805 263.009 385.47 263.103 387.01C263.151 387.804 263.165 388.604 263.177 389.251C263.178 389.313 263.179 389.373 263.18 389.431C263.193 390.172 263.207 390.687 263.243 391.104C263.25 391.184 263.257 391.265 263.264 391.346C263.661 395.97 264.168 401.874 263.079 407.442C262.371 411.059 260.379 414.539 256.357 415.77C252.966 416.808 249.679 415.682 247.579 414.691C244.482 413.228 241.476 410.849 239.301 408.782C239.286 408.829 239.272 408.876 239.258 408.924C238.644 410.961 237.811 413.454 236.391 415.767C236.1 416.24 235.386 417.296 234.038 418.011C232.291 418.937 230.253 418.885 228.588 417.971C227.303 417.265 226.62 416.256 226.349 415.82C226.021 415.292 225.808 414.786 225.673 414.429C225.185 413.133 224.897 411.479 224.717 410.288C224.516 408.95 224.365 407.565 224.263 406.531C224.135 405.214 224.122 404.929 224.128 404.972C223.738 402.043 223.192 399.112 222.607 396.037C222.566 395.822 222.525 395.607 222.484 395.391C221.943 392.554 221.378 389.584 220.937 386.58C220.496 383.578 222.573 380.787 225.576 380.346C228.578 379.906 231.369 381.983 231.809 384.985C232.215 387.748 232.739 390.498 233.288 393.383C233.326 393.583 233.364 393.782 233.402 393.983C233.496 394.477 233.591 394.976 233.685 395.477C233.974 395.273 234.286 395.084 234.626 394.917C237.368 393.566 239.885 394.477 241.21 395.25C242.449 395.973 243.395 396.963 243.942 397.568C244.346 398.014 244.816 398.582 245.144 398.977C245.258 399.114 245.354 399.231 245.425 399.314C246.694 400.815 249.732 403.554 252.273 404.754C252.313 404.773 252.352 404.791 252.39 404.809C253.025 401.047 252.701 396.786 252.294 392.044C252.222 391.201 252.205 390.327 252.193 389.63C252.192 389.582 252.191 389.535 252.19 389.489C252.177 388.792 252.167 388.224 252.134 387.678C252.099 387.101 252.046 386.718 251.99 386.472C251.98 386.428 251.971 386.394 251.964 386.369C250.429 383.844 251.167 380.539 253.66 378.914ZM251.947 386.312C251.947 386.312 251.947 386.313 251.948 386.316C251.947 386.314 251.947 386.312 251.947 386.312ZM240.972 403.464C240.972 403.464 240.971 403.466 240.969 403.47C240.97 403.466 240.971 403.464 240.972 403.464Z" fill="black"/>
<path fill-rule="evenodd" clip-rule="evenodd" d="M310.101 377.296C312.93 376.198 316.113 377.601 317.211 380.43C319.893 387.341 321.342 394.218 322.295 401.182C322.354 401.617 322.414 402.109 322.464 402.525C322.489 402.734 322.512 402.924 322.532 403.077C322.601 403.622 322.661 404.025 322.734 404.372C322.863 404.993 323.017 405.383 323.276 405.777C324.941 408.314 324.234 411.72 321.697 413.385C319.16 415.05 315.753 414.343 314.088 411.806C312.089 408.759 311.731 405.536 311.508 403.524C311.473 403.208 311.441 402.921 311.407 402.67C310.526 396.226 309.236 390.254 306.966 384.406C305.869 381.577 307.272 378.394 310.101 377.296Z" fill="black"/>
<path fill-rule="evenodd" clip-rule="evenodd" d="M346.14 368.836C346.358 371.863 344.081 374.493 341.054 374.711C334.268 375.201 327.686 376.719 320.613 378.35C319.869 378.521 319.12 378.694 318.365 378.867C310.593 380.646 302.25 382.418 293.407 382.418C290.372 382.418 287.912 379.958 287.912 376.923C287.912 373.889 290.372 371.429 293.407 371.429C300.883 371.429 308.147 369.933 315.912 368.155C316.669 367.982 317.432 367.805 318.2 367.628C325.149 366.022 332.576 364.305 340.264 363.751C343.291 363.533 345.921 365.809 346.14 368.836Z" fill="black"/>
<path fill-rule="evenodd" clip-rule="evenodd" d="M351.275 371.628C354.199 370.815 357.228 372.525 358.041 375.449C361.251 386.984 363.35 398.633 364.794 410.313C365.167 413.325 363.027 416.068 360.016 416.441C357.004 416.813 354.261 414.674 353.888 411.662C352.493 400.38 350.484 389.285 347.454 378.394C346.641 375.471 348.352 372.442 351.275 371.628Z" fill="black"/>
<path fill-rule="evenodd" clip-rule="evenodd" d="M383.158 396.871C373.123 396.214 364.278 397.548 353.952 399.867C350.991 400.532 348.052 398.671 347.387 395.71C346.722 392.749 348.583 389.81 351.544 389.145C362.32 386.725 372.334 385.15 383.876 385.905C386.904 386.104 389.198 388.719 389 391.747C388.801 394.775 386.186 397.069 383.158 396.871Z" fill="black"/>
<path fill-rule="evenodd" clip-rule="evenodd" d="M381.755 377.509C383.859 375.322 387.338 375.255 389.524 377.36C393.076 380.778 394.406 385.105 395.021 388.796C395.331 390.655 395.484 392.508 395.599 394.161C395.631 394.61 395.659 395.037 395.686 395.448C395.764 396.632 395.833 397.681 395.941 398.717C396.382 402.937 396.916 407.018 397.7 411.035C398.282 414.013 396.339 416.899 393.361 417.481C390.382 418.062 387.496 416.119 386.915 413.141C386.044 408.682 385.47 404.248 385.011 399.86C384.879 398.593 384.79 397.245 384.709 396.007C384.685 395.634 384.661 395.271 384.637 394.924C384.526 393.337 384.401 391.918 384.182 390.605C383.74 387.953 383.007 386.338 381.904 385.278C379.718 383.174 379.651 379.695 381.755 377.509Z" fill="black"/>
<path fill-rule="evenodd" clip-rule="evenodd" d="M411.584 381.342C414.606 381.063 417.281 383.287 417.56 386.309C418.067 391.81 418.279 397.153 418.316 402.605C418.32 403.205 418.308 403.877 418.297 404.462C418.293 404.714 418.289 404.949 418.286 405.156C418.277 405.938 418.284 406.575 418.328 407.143C418.417 408.301 418.633 408.721 418.751 408.885C420.52 411.351 419.955 414.784 417.489 416.552C415.024 418.321 411.591 417.756 409.822 415.291C408.04 412.807 407.534 410.097 407.371 407.99C407.267 406.639 407.295 404.978 407.315 403.781C407.322 403.336 407.329 402.956 407.327 402.679C407.291 397.467 407.09 392.444 406.617 387.318C406.339 384.296 408.562 381.621 411.584 381.342Z" fill="black"/>
<path fill-rule="evenodd" clip-rule="evenodd" d="M441.481 373.483C444.921 372.003 448.654 372.546 451.433 373.098C454.409 373.69 456.342 376.582 455.751 379.558C455.159 382.535 452.267 384.468 449.291 383.876C448.054 383.631 447.188 383.525 446.558 383.517C446.182 383.511 445.973 383.543 445.879 383.564C445.869 383.576 445.858 383.591 445.845 383.609C445.695 383.818 445.39 384.356 445.07 385.513C444.439 387.8 444.492 388.978 444.595 389.483C444.659 389.795 444.733 389.91 444.988 390.11C445.403 390.437 446.223 390.866 447.82 391.353C449.182 391.768 450.712 392.117 452.595 392.545C452.921 392.62 453.258 392.696 453.606 392.776C456.56 393.453 459.832 395.122 461.086 398.77C462.215 402.054 461.009 405.093 460.051 406.851C458.058 410.512 454.315 413.827 451.753 415.422C449.18 417.024 444.715 418.352 440.697 418.627C438.637 418.768 436.168 418.675 433.862 417.851C431.417 416.977 428.84 415.125 427.746 411.781C426.802 408.897 428.375 405.794 431.259 404.85C433.871 403.996 436.663 405.206 437.868 407.585C438.28 407.669 438.967 407.73 439.947 407.663C441.165 407.58 442.493 407.322 443.685 406.974C444.941 406.607 445.713 406.237 445.945 406.093C446.542 405.721 447.466 405.009 448.395 404.091C448.746 403.744 449.064 403.402 449.342 403.076C447.753 402.712 446.11 402.32 444.613 401.864C442.538 401.23 440.197 400.321 438.2 398.752C436.041 397.056 434.45 394.72 433.829 391.685C433.248 388.843 433.597 385.779 434.478 382.589C435.554 378.692 437.565 375.167 441.481 373.483ZM451.678 403.644C451.678 403.644 451.672 403.642 451.661 403.636C451.673 403.641 451.678 403.644 451.678 403.644ZM450.575 401.229C450.585 401.185 450.593 401.162 450.595 401.161C450.597 401.16 450.592 401.182 450.575 401.229Z" fill="black"/>
<path fill-rule="evenodd" clip-rule="evenodd" d="M523.086 377.034C526.06 376.432 528.959 378.355 529.561 381.329C530.642 386.664 532.269 391.615 534.013 396.924C534.786 399.275 535.581 401.696 536.363 404.251C536.455 404.552 536.546 404.838 536.641 405.131L536.662 405.197C536.746 405.456 536.84 405.749 536.922 406.017C537.006 406.296 537.119 406.685 537.205 407.097L537.206 407.102C537.265 407.381 537.456 408.293 537.307 409.372C537.225 409.966 536.99 411.007 536.214 412.038C535.339 413.202 534.099 413.923 532.801 414.179C530.838 414.568 529.293 413.791 528.98 413.634C528.971 413.629 528.962 413.625 528.955 413.621C528.025 413.158 527.118 412.432 526.498 411.924C524.442 410.24 523.923 407.375 525.117 405.113C524.689 403.773 524.24 402.407 523.785 401.019C521.953 395.441 520.006 389.509 518.791 383.51C518.189 380.536 520.112 377.636 523.086 377.034Z" fill="black"/>
<path fill-rule="evenodd" clip-rule="evenodd" d="M544.772 384.812C529.691 384.034 515.286 385.316 504.376 393.421C501.94 395.231 498.498 394.723 496.689 392.287C494.879 389.852 495.387 386.41 497.823 384.6C511.988 374.076 529.776 373.035 545.338 373.838C548.369 373.994 550.699 376.577 550.543 379.608C550.386 382.638 547.803 384.968 544.772 384.812Z" fill="black"/>
<path fill-rule="evenodd" clip-rule="evenodd" d="M576.373 375.23C575.732 374.142 574.715 373.268 573.428 372.826C570.558 371.839 567.432 373.365 566.445 376.234C565.921 377.757 565.421 379.286 564.939 380.816C560.123 388.509 557.144 398.935 557.144 407.594C557.144 407.917 557.153 408.38 557.221 408.87C557.253 409.107 557.323 409.53 557.488 410.02C557.6 410.353 558.018 411.563 559.222 412.565C559.92 413.146 560.893 413.662 562.1 413.809C563.286 413.953 564.3 413.693 565.029 413.368C566.302 412.8 567.002 411.911 567.203 411.652C567.699 411.009 567.974 410.364 568.062 410.159L568.063 410.156C568.482 409.174 568.898 407.654 569.217 406.437C569.587 405.03 569.934 403.613 570.252 402.32C570.614 400.844 570.936 399.53 571.205 398.581C571.436 397.767 571.665 396.957 571.892 396.152C572.687 393.336 573.469 390.568 574.283 387.834C575.239 389.231 576.174 390.88 577.015 392.453C577.274 392.938 577.557 393.482 577.837 394.02C578.372 395.045 578.895 396.051 579.225 396.595C579.53 397.098 580.193 398.039 580.865 398.993C581.037 399.237 581.209 399.482 581.377 399.72C582.314 401.057 583.41 402.642 584.409 404.205C585.415 405.78 586.198 407.138 586.634 408.103C586.428 409.743 586.962 411.457 588.231 412.706C590.393 414.835 593.872 414.808 596.001 412.645C598.162 410.45 597.837 407.698 597.698 406.833C597.508 405.658 597.081 404.552 596.706 403.708C595.928 401.956 594.767 400.006 593.668 398.286C592.538 396.519 591.333 394.779 590.374 393.411C590.135 393.07 589.923 392.77 589.73 392.495C589.516 392.191 589.325 391.919 589.144 391.661C588.981 391.427 588.851 391.24 588.753 391.094C588.673 390.977 588.635 390.919 588.625 390.902C588.621 390.896 588.621 390.896 588.624 390.901C588.457 390.625 588.238 390.202 587.905 389.558C587.61 388.987 587.225 388.242 586.706 387.273C585.747 385.479 584.49 383.241 583.076 381.228C581.798 379.412 579.849 376.967 577.302 375.649C577.014 375.5 576.704 375.358 576.373 375.23ZM568.133 407.635C568.133 407.646 568.133 407.652 568.133 407.652C568.133 407.652 568.133 407.647 568.133 407.635Z" fill="black"/>
<path fill-rule="evenodd" clip-rule="evenodd" d="M592.308 398.901C582.739 398.901 572.881 401.167 563.151 404.154C560.25 405.044 557.177 403.414 556.286 400.513C555.396 397.613 557.026 394.539 559.927 393.649C570.034 390.546 581.117 387.912 592.308 387.912C595.343 387.912 597.803 390.372 597.803 393.407C597.803 396.441 595.343 398.901 592.308 398.901Z" fill="black"/>
<path fill-rule="evenodd" clip-rule="evenodd" d="M610.967 369.347C613.937 368.728 616.848 370.634 617.467 373.604C619.568 383.677 620.879 393.72 621.948 403.818C622.267 406.836 620.08 409.541 617.062 409.86C614.045 410.18 611.339 407.992 611.02 404.975C609.968 395.034 608.703 385.403 606.71 375.848C606.09 372.877 607.996 369.967 610.967 369.347Z" fill="black"/>
<path fill-rule="evenodd" clip-rule="evenodd" d="M622.433 377.362C620.371 378.158 618.138 379.936 616.158 382.119C614.119 384.367 610.644 384.536 608.396 382.497C606.149 380.458 605.98 376.983 608.019 374.736C610.547 371.949 614.147 368.782 618.472 367.111C623.088 365.328 628.597 365.277 633.731 369.052C635.8 370.573 637.263 372.569 637.977 374.896C638.672 377.167 638.548 379.4 638.056 381.321C637.107 385.03 634.64 388.254 632.022 390.301C630.548 391.453 628.918 392.424 627.18 393.176C625.735 395.33 622.941 396.197 620.509 395.183C620.49 395.177 620.466 395.171 620.44 395.163C620.293 395.123 620.184 395.095 620.042 395.059C619.936 395.033 619.812 395.001 619.64 394.956C619.489 394.917 619.278 394.861 619.065 394.796L619.053 394.792C618.918 394.751 618.435 394.604 617.923 394.34C617.918 394.337 617.913 394.335 617.907 394.331C617.73 394.241 616.821 393.778 616.058 392.799C615.602 392.214 614.898 391.059 614.889 389.436C614.879 387.694 615.666 386.385 616.402 385.609C617.495 384.455 618.783 384.118 618.978 384.067C618.985 384.065 618.991 384.063 618.995 384.062C619.396 383.952 619.735 383.905 619.91 383.884C621.822 383.652 623.696 382.861 625.253 381.644C625.734 381.267 626.233 380.749 626.646 380.156C627.063 379.557 627.305 379.009 627.41 378.596C627.479 378.33 627.476 378.183 627.47 378.129C627.44 378.089 627.368 378.013 627.221 377.905C625.634 376.739 624.203 376.678 622.433 377.362ZM627.491 378.162C627.49 378.162 627.485 378.155 627.479 378.14C627.489 378.155 627.492 378.162 627.491 378.162ZM627.468 378.108C627.467 378.106 627.467 378.105 627.467 378.105ZM620.601 395.211C620.6 395.211 620.592 395.208 620.578 395.203C620.594 395.208 620.601 395.211 620.601 395.211Z" fill="black"/>
<path fill-rule="evenodd" clip-rule="evenodd" d="M650.818 372.591C653.818 372.133 656.621 374.193 657.08 377.192C657.212 378.055 657.333 379.254 657.48 380.702C657.808 383.944 658.262 388.434 659.245 393.189C659.928 396.498 660.738 399.113 661.588 400.68C661.615 400.73 661.641 400.776 661.666 400.82C663.372 400.335 665.087 399.636 667.159 398.79C667.304 398.73 667.451 398.67 667.6 398.61C670.255 397.527 673.468 396.246 677.131 395.644C680.125 395.151 682.952 397.18 683.444 400.174C683.936 403.168 681.908 405.995 678.914 406.487C676.604 406.867 674.421 407.696 671.748 408.786C671.546 408.868 671.34 408.952 671.131 409.038C668.727 410.023 665.834 411.208 662.687 411.887C660.026 412.462 657.581 411.765 655.67 410.391C653.938 409.146 652.754 407.44 651.93 405.923C650.283 402.888 649.219 398.973 648.483 395.413C647.356 389.957 646.678 383.292 646.377 380.325C646.299 379.562 646.246 379.043 646.217 378.853C645.759 375.853 647.819 373.05 650.818 372.591Z" fill="black"/>
<path fill-rule="evenodd" clip-rule="evenodd" d="M674.177 389.608C666.242 388.812 661.057 388.461 654.68 390.856C651.84 391.924 648.672 390.486 647.605 387.646C646.537 384.805 647.975 381.637 650.815 380.57C659.818 377.187 667.316 377.875 675.275 378.674C678.294 378.977 680.496 381.67 680.193 384.69C679.89 387.709 677.197 389.911 674.177 389.608Z" fill="black"/>
<path fill-rule="evenodd" clip-rule="evenodd" d="M662.202 370.362C659.138 370.471 656.938 370.885 655.525 371.613C655.336 371.71 655.151 371.795 654.97 371.871C654.97 371.883 654.971 371.895 654.971 371.907C654.973 371.958 654.976 372.011 654.978 372.066C654.997 372.494 655.022 373.061 655.022 373.627C655.022 376.661 652.562 379.121 649.527 379.121C646.493 379.121 644.033 376.661 644.033 373.627C644.033 373.318 644.019 373.002 643.999 372.54C643.997 372.489 643.995 372.435 643.992 372.38C643.971 371.884 643.944 371.222 643.962 370.526C643.997 369.119 644.214 367.164 645.308 365.189C645.986 363.965 646.968 363.032 648.126 362.427C649.155 361.889 650.117 361.724 650.57 361.655C650.72 361.633 650.873 361.613 650.986 361.599C654.502 359.931 658.486 359.498 661.811 359.38C663.968 359.303 666.478 359.365 668.575 359.416C669.677 359.444 670.665 359.468 671.429 359.468C674.463 359.468 676.923 361.928 676.923 364.962C676.923 367.997 674.463 370.457 671.429 370.457C670.06 370.457 668.824 370.423 667.624 370.389C665.846 370.34 664.145 370.293 662.202 370.362ZM652.212 372.521C652.213 372.521 652.214 372.521 652.215 372.521Z" fill="black"/>
</svg>
