<svg width="655" height="720" viewBox="0 0 655 720" fill="none" xmlns="http://www.w3.org/2000/svg">
<path fill-rule="evenodd" clip-rule="evenodd" d="M60.6255 720C50.4815 720 42.2582 711.777 42.2582 701.633V582.245H19.299C9.15499 582.245 0.931641 574.022 0.931641 563.878V11.0204C0.931641 4.93401 5.86564 0 11.952 0H18.3806C23.4526 0 27.5643 4.11167 27.5643 9.18367V9.64271H54.6561V9.18367C54.6561 4.11167 58.7678 0 63.8398 0H100.115C104.549 0 108.371 2.61793 110.12 6.39223C111.573 5.82283 113.154 5.5102 114.809 5.5102H230.523C232.178 5.5102 233.76 5.82283 235.213 6.39223C236.962 2.61792 240.784 0 245.217 0H258.075C259.363 0 260.599 0.220975 261.748 0.627085C262.897 0.220975 264.133 0 265.421 0H556.544C557.832 0 559.068 0.220973 560.217 0.627076C561.366 0.220973 562.603 0 563.891 0H591.901C596.973 0 601.085 4.11163 601.085 9.18367V9.64271H628.177V9.18367C628.177 4.11163 632.288 0 637.36 0H643.789C649.875 0 654.809 4.93404 654.809 11.0204V563.878C654.809 574.022 646.586 582.245 636.442 582.245H613.483V701.633C613.483 711.777 605.259 720 595.115 720H60.6255ZM591.901 7.34694C592.915 7.34694 593.738 8.16927 593.738 9.18367V15.1529C593.738 16.1673 594.56 16.9897 595.575 16.9897H633.687C634.701 16.9897 635.523 16.1673 635.523 15.1529V9.18367C635.523 8.16927 636.346 7.34694 637.36 7.34694H643.789C645.818 7.34694 647.462 8.99161 647.462 11.0204V563.878C647.462 569.964 642.528 574.898 636.442 574.898H609.809C607.78 574.898 606.136 576.543 606.136 578.571V701.633C606.136 707.719 601.202 712.653 595.115 712.653H60.6255C54.5391 712.653 49.6051 707.719 49.6051 701.633V578.571C49.6051 576.543 47.9604 574.898 45.9316 574.898H19.299C13.2126 574.898 8.27858 569.964 8.27858 563.878V11.0204C8.27858 8.99161 9.92325 7.34694 11.952 7.34694H18.3806C19.395 7.34694 20.2174 8.16927 20.2174 9.18367V15.1529C20.2174 16.1673 21.0397 16.9897 22.0541 16.9897H60.1663C61.1807 16.9897 62.0031 16.1673 62.0031 15.1529V9.18367C62.0031 8.16927 62.8254 7.34694 63.8398 7.34694H100.115C102.144 7.34694 103.789 8.99161 103.789 11.0204V100.102C103.789 103.145 106.256 105.612 109.299 105.612V18.3673C109.299 16.7354 110.008 15.2692 111.136 14.2602C112.111 13.3877 113.398 12.8571 114.809 12.8571H230.523C231.935 12.8571 233.222 13.3877 234.197 14.2602C235.324 15.2692 236.034 16.7354 236.034 18.3673V105.612C239.077 105.612 241.544 103.145 241.544 100.102V11.0204C241.544 8.99161 243.189 7.34694 245.217 7.34694H258.075C260.103 7.34694 261.748 8.99161 261.748 11.0204C261.748 8.99161 263.393 7.34694 265.421 7.34694H556.544C558.573 7.34694 560.217 8.99161 560.217 11.0204C560.217 8.99161 561.862 7.34694 563.891 7.34694H591.901Z" fill="#A491D3"/>
<path fill-rule="evenodd" clip-rule="evenodd" d="M60.6262 712.654C54.5398 712.654 49.6058 707.72 49.6058 701.633V578.572C49.6058 576.543 47.9612 574.899 45.9324 574.899H19.2997C13.2133 574.899 8.2793 569.965 8.2793 563.878V11.0211C8.2793 8.99232 9.92396 7.34766 11.9528 7.34766H18.3813C19.3957 7.34766 20.2181 8.16999 20.2181 9.18439V15.1536C20.2181 16.168 21.0404 16.9904 22.0548 16.9904H60.1671C61.1815 16.9904 62.0038 16.168 62.0038 15.1536V9.18439C62.0038 8.16999 62.8261 7.34766 63.8405 7.34766H100.116C102.145 7.34766 103.79 8.99233 103.79 11.0211V100.103C103.79 103.146 106.257 105.613 109.3 105.613H236.034C239.078 105.613 241.545 103.146 241.545 100.103V11.0211C241.545 8.99232 243.189 7.34766 245.218 7.34766L258.075 7.34766C260.104 7.34766 261.749 8.99233 261.749 11.0211V466.531C261.749 474.647 268.327 481.225 276.443 481.225H545.524C553.639 481.225 560.218 474.647 560.218 466.531V11.0211C560.218 8.99232 561.863 7.34766 563.892 7.34766H591.902C592.916 7.34766 593.739 8.16999 593.739 9.18439V15.1536C593.739 16.168 594.561 16.9904 595.575 16.9904H633.688C634.702 16.9904 635.524 16.168 635.524 15.1536V9.18439C635.524 8.16999 636.347 7.34766 637.361 7.34766H643.79C645.818 7.34766 647.463 8.99232 647.463 11.0211V563.878C647.463 569.965 642.529 574.899 636.443 574.899H609.81C607.781 574.899 606.136 576.543 606.136 578.572V701.633C606.136 707.72 601.202 712.654 595.116 712.654H60.6262Z" fill="#A491D3"/>
<path fill-rule="evenodd" clip-rule="evenodd" d="M11.9516 8.04648C10.3094 8.04648 8.97812 9.37775 8.97812 11.02V563.877C8.97812 569.577 13.5987 574.198 19.2985 574.198H45.9312C48.3466 574.198 50.3047 576.156 50.3047 578.571V701.632C50.3047 707.332 54.9253 711.953 60.6251 711.953H595.115C600.815 711.953 605.435 707.332 605.435 701.632V578.571C605.435 576.156 607.393 574.198 609.809 574.198H636.441C642.141 574.198 646.762 569.577 646.762 563.877V11.02C646.762 9.37775 645.431 8.04648 643.788 8.04648H637.36C636.732 8.04648 636.223 8.55542 636.223 9.18322V15.1525C636.223 16.5535 635.087 17.6892 633.686 17.6892H595.574C594.173 17.6892 593.037 16.5535 593.037 15.1525V9.18322C593.037 8.55542 592.528 8.04648 591.901 8.04648H563.89C562.248 8.04648 560.917 9.37775 560.917 11.02V466.53C560.917 475.032 554.025 481.924 545.523 481.924H276.441C267.94 481.924 261.048 475.032 261.048 466.53V11.02C261.048 9.37775 259.716 8.04648 258.074 8.04648H245.217C243.575 8.04648 242.243 9.37775 242.243 11.02V100.102C242.243 103.531 239.463 106.312 236.033 106.312H109.299C105.869 106.312 103.088 103.531 103.088 100.102V11.02C103.088 9.37775 101.757 8.04648 100.115 8.04648H63.8394C63.2116 8.04648 62.7026 8.55542 62.7026 9.18322V15.1525C62.7026 16.5535 61.5669 17.6892 60.1659 17.6892H22.0536C20.6526 17.6892 19.5169 16.5535 19.5169 15.1525V9.18322C19.5169 8.55542 19.008 8.04648 18.3802 8.04648H11.9516ZM7.57812 11.02C7.57812 8.60455 9.53619 6.64648 11.9516 6.64648H18.3802C19.7812 6.64648 20.9169 7.78222 20.9169 9.18322V15.1525C20.9169 15.7803 21.4258 16.2892 22.0536 16.2892H60.1659C60.7937 16.2892 61.3026 15.7803 61.3026 15.1525V9.18322C61.3026 7.78222 62.4384 6.64648 63.8394 6.64648H100.115C102.53 6.64648 104.488 8.60456 104.488 11.02V100.102C104.488 102.758 106.642 104.912 109.299 104.912H236.033C238.69 104.912 240.843 102.758 240.843 100.102V11.02C240.843 8.60455 242.802 6.64648 245.217 6.64648H258.074C260.489 6.64648 262.448 8.60456 262.448 11.02V466.53C262.448 474.259 268.713 480.524 276.441 480.524H545.523C553.252 480.524 559.517 474.259 559.517 466.53V11.02C559.517 8.60455 561.475 6.64648 563.89 6.64648H591.901C593.302 6.64648 594.437 7.78222 594.437 9.18322V15.1525C594.437 15.7803 594.946 16.2892 595.574 16.2892H633.686C634.314 16.2892 634.823 15.7803 634.823 15.1525V9.18322C634.823 7.78222 635.959 6.64648 637.36 6.64648H643.788C646.204 6.64648 648.162 8.60455 648.162 11.02V563.877C648.162 570.35 642.914 575.597 636.441 575.597H609.809C608.167 575.597 606.835 576.929 606.835 578.571V701.632C606.835 708.105 601.588 713.353 595.115 713.353H60.6251C54.1521 713.353 48.9047 708.105 48.9047 701.632V578.571C48.9047 576.929 47.5734 575.597 45.9312 575.597H19.2985C12.8255 575.597 7.57812 570.35 7.57812 563.877V11.02Z" fill="black"/>
<path d="M103.789 105.611H241.544V712.652H103.789V105.611Z" fill="#A491D3"/>
<path fill-rule="evenodd" clip-rule="evenodd" d="M103.088 104.912H242.243V713.353H103.088V104.912ZM104.488 106.312V711.953H240.843V106.312H104.488Z" fill="black"/>
<path d="M109.299 18.3676C109.299 15.3244 111.766 12.8574 114.809 12.8574H230.523C233.567 12.8574 236.034 15.3244 236.034 18.3676V105.613H109.299V18.3676Z" fill="#A491D3"/>
<path fill-rule="evenodd" clip-rule="evenodd" d="M108.6 18.3665C108.6 14.9367 111.38 12.1562 114.81 12.1562H230.524C233.954 12.1562 236.734 14.9367 236.734 18.3665V106.311H108.6V18.3665ZM114.81 13.5562C112.153 13.5562 110 15.7099 110 18.3665V104.911H235.334V18.3665C235.334 15.7099 233.181 13.5562 230.524 13.5562H114.81Z" fill="black"/>
<path d="M261.748 11.0211C261.748 8.99233 263.393 7.34766 265.422 7.34766H556.544C558.573 7.34766 560.217 8.99232 560.217 11.0211V466.531C560.217 474.647 553.639 481.225 545.524 481.225H276.442C268.327 481.225 261.748 474.647 261.748 466.531V11.0211Z" fill="#A491D3"/>
<path fill-rule="evenodd" clip-rule="evenodd" d="M261.049 11.02C261.049 8.60456 263.007 6.64648 265.422 6.64648H556.545C558.96 6.64648 560.918 8.60455 560.918 11.02V466.53C560.918 475.032 554.026 481.924 545.524 481.924H276.443C267.941 481.924 261.049 475.032 261.049 466.53V11.02ZM265.422 8.04648C263.78 8.04648 262.449 9.37775 262.449 11.02V466.53C262.449 474.259 268.714 480.524 276.443 480.524H545.524C553.253 480.524 559.518 474.259 559.518 466.53V11.02C559.518 9.37775 558.187 8.04648 556.545 8.04648H265.422Z" fill="black"/>
<path d="M109.299 652.958C109.299 648.901 112.588 645.611 116.646 645.611H228.687C232.744 645.611 236.034 648.901 236.034 652.958V712.652H109.299V652.958Z" fill="#A491D3"/>
<path fill-rule="evenodd" clip-rule="evenodd" d="M108.6 652.959C108.6 648.515 112.202 644.912 116.647 644.912H228.687C233.132 644.912 236.734 648.515 236.734 652.959V713.353H108.6V652.959ZM116.647 646.312C112.976 646.312 110 649.288 110 652.959V711.953H235.334V652.959C235.334 649.288 232.358 646.312 228.687 646.312H116.647Z" fill="black"/>
<path d="M109.299 381.122C109.299 378.078 111.766 375.611 114.809 375.611H230.523C233.567 375.611 236.034 378.078 236.034 381.122V384.795C236.034 387.838 233.567 390.305 230.523 390.305H114.809C111.766 390.305 109.299 387.838 109.299 384.795V381.122Z" fill="#A491D3"/>
<path fill-rule="evenodd" clip-rule="evenodd" d="M108.6 381.122C108.6 377.693 111.38 374.912 114.81 374.912H230.524C233.954 374.912 236.734 377.693 236.734 381.122V384.796C236.734 388.226 233.954 391.006 230.524 391.006H114.81C111.38 391.006 108.6 388.226 108.6 384.796V381.122ZM114.81 376.312C112.153 376.312 110 378.466 110 381.122V384.796C110 387.452 112.153 389.606 114.81 389.606H230.524C233.181 389.606 235.334 387.452 235.334 384.796V381.122C235.334 378.466 233.181 376.312 230.524 376.312H114.81Z" fill="black"/>
<path d="M109.299 551.938C109.299 548.895 111.766 546.428 114.809 546.428H230.523C233.567 546.428 236.034 548.895 236.034 551.938V555.611C236.034 558.655 233.567 561.122 230.523 561.122H114.809C111.766 561.122 109.299 558.655 109.299 555.611V551.938Z" fill="#A491D3"/>
<path fill-rule="evenodd" clip-rule="evenodd" d="M108.6 551.939C108.6 548.509 111.38 545.729 114.81 545.729H230.524C233.954 545.729 236.734 548.509 236.734 551.939V555.612C236.734 559.042 233.954 561.822 230.524 561.822H114.81C111.38 561.822 108.6 559.042 108.6 555.612V551.939ZM114.81 547.129C112.153 547.129 110 549.282 110 551.939V555.612C110 558.269 112.153 560.422 114.81 560.422H230.524C233.181 560.422 235.334 558.269 235.334 555.612V551.939C235.334 549.282 233.181 547.129 230.524 547.129H114.81Z" fill="black"/>
<path d="M109.299 295.713C109.299 292.67 111.766 290.203 114.809 290.203H230.523C233.567 290.203 236.034 292.67 236.034 295.713V299.387C236.034 302.43 233.567 304.897 230.523 304.897H114.809C111.766 304.897 109.299 302.43 109.299 299.387V295.713Z" fill="#A491D3"/>
<path fill-rule="evenodd" clip-rule="evenodd" d="M108.6 295.714C108.6 292.284 111.38 289.504 114.81 289.504H230.524C233.954 289.504 236.734 292.284 236.734 295.714V299.388C236.734 302.817 233.954 305.598 230.524 305.598H114.81C111.38 305.598 108.6 302.817 108.6 299.388V295.714ZM114.81 290.904C112.153 290.904 110 293.058 110 295.714V299.388C110 302.044 112.153 304.198 114.81 304.198H230.524C233.181 304.198 235.334 302.044 235.334 299.388V295.714C235.334 293.058 233.181 290.904 230.524 290.904H114.81Z" fill="black"/>
<path d="M109.299 466.53C109.299 463.487 111.766 461.02 114.809 461.02H230.523C233.567 461.02 236.034 463.487 236.034 466.53V470.203C236.034 473.246 233.567 475.713 230.523 475.713H114.809C111.766 475.713 109.299 473.246 109.299 470.203V466.53Z" fill="#A491D3"/>
<path fill-rule="evenodd" clip-rule="evenodd" d="M108.6 466.531C108.6 463.101 111.38 460.32 114.81 460.32H230.524C233.954 460.32 236.734 463.101 236.734 466.531V470.204C236.734 473.634 233.954 476.414 230.524 476.414H114.81C111.38 476.414 108.6 473.634 108.6 470.204V466.531ZM114.81 461.72C112.153 461.72 110 463.874 110 466.531V470.204C110 472.861 112.153 475.014 114.81 475.014H230.524C233.181 475.014 235.334 472.861 235.334 470.204V466.531C235.334 463.874 233.181 461.72 230.524 461.72H114.81Z" fill="black"/>
<path d="M109.299 210.307C109.299 207.264 111.766 204.797 114.809 204.797H230.523C233.567 204.797 236.034 207.264 236.034 210.307V213.981C236.034 217.024 233.567 219.491 230.523 219.491H114.809C111.766 219.491 109.299 217.024 109.299 213.981V210.307Z" fill="#A491D3"/>
<path fill-rule="evenodd" clip-rule="evenodd" d="M108.6 210.306C108.6 206.876 111.38 204.096 114.81 204.096H230.524C233.954 204.096 236.734 206.876 236.734 210.306V213.979C236.734 217.409 233.954 220.19 230.524 220.19H114.81C111.38 220.19 108.6 217.409 108.6 213.979V210.306ZM114.81 205.496C112.153 205.496 110 207.649 110 210.306V213.979C110 216.636 112.153 218.79 114.81 218.79H230.524C233.181 218.79 235.334 216.636 235.334 213.979V210.306C235.334 207.649 233.181 205.496 230.524 205.496H114.81Z" fill="black"/>
<path d="M109.299 608.877C109.299 605.834 111.766 603.367 114.809 603.367H230.523C233.567 603.367 236.034 605.834 236.034 608.877V612.551C236.034 615.594 233.567 618.061 230.523 618.061H114.809C111.766 618.061 109.299 615.594 109.299 612.551V608.877Z" fill="#A491D3"/>
<path fill-rule="evenodd" clip-rule="evenodd" d="M108.6 608.878C108.6 605.448 111.38 602.668 114.81 602.668H230.524C233.954 602.668 236.734 605.448 236.734 608.878V612.552C236.734 615.981 233.954 618.762 230.524 618.762H114.81C111.38 618.762 108.6 615.981 108.6 612.552V608.878ZM114.81 604.068C112.153 604.068 110 606.222 110 608.878V612.552C110 615.208 112.153 617.362 114.81 617.362H230.524C233.181 617.362 235.334 615.208 235.334 612.552V608.878C235.334 606.222 233.181 604.068 230.524 604.068H114.81Z" fill="black"/>
<path d="M109.299 352.653C109.299 349.61 111.766 347.143 114.809 347.143H230.523C233.567 347.143 236.034 349.61 236.034 352.653V356.326C236.034 359.369 233.567 361.836 230.523 361.836H114.809C111.766 361.836 109.299 359.369 109.299 356.326V352.653Z" fill="#A491D3"/>
<path fill-rule="evenodd" clip-rule="evenodd" d="M108.6 352.654C108.6 349.224 111.38 346.443 114.81 346.443H230.524C233.954 346.443 236.734 349.224 236.734 352.654V356.327C236.734 359.757 233.954 362.537 230.524 362.537H114.81C111.38 362.537 108.6 359.757 108.6 356.327V352.654ZM114.81 347.843C112.153 347.843 110 349.997 110 352.654V356.327C110 358.984 112.153 361.137 114.81 361.137H230.524C233.181 361.137 235.334 358.984 235.334 356.327V352.654C235.334 349.997 233.181 347.843 230.524 347.843H114.81Z" fill="black"/>
<path d="M109.299 523.469C109.299 520.426 111.766 517.959 114.809 517.959H230.523C233.567 517.959 236.034 520.426 236.034 523.469V527.143C236.034 530.186 233.567 532.653 230.523 532.653H114.809C111.766 532.653 109.299 530.186 109.299 527.143V523.469Z" fill="#A491D3"/>
<path fill-rule="evenodd" clip-rule="evenodd" d="M108.6 523.47C108.6 520.04 111.38 517.26 114.81 517.26H230.524C233.954 517.26 236.734 520.04 236.734 523.47V527.143C236.734 530.573 233.954 533.354 230.524 533.354H114.81C111.38 533.354 108.6 530.573 108.6 527.143V523.47ZM114.81 518.66C112.153 518.66 110 520.813 110 523.47V527.143C110 529.8 112.153 531.954 114.81 531.954H230.524C233.181 531.954 235.334 529.8 235.334 527.143V523.47C235.334 520.813 233.181 518.66 230.524 518.66H114.81Z" fill="black"/>
<path d="M109.299 267.245C109.299 264.201 111.766 261.734 114.809 261.734H230.523C233.567 261.734 236.034 264.201 236.034 267.245V270.918C236.034 273.961 233.567 276.428 230.523 276.428H114.809C111.766 276.428 109.299 273.961 109.299 270.918V267.245Z" fill="#A491D3"/>
<path fill-rule="evenodd" clip-rule="evenodd" d="M108.6 267.245C108.6 263.816 111.38 261.035 114.81 261.035H230.524C233.954 261.035 236.734 263.816 236.734 267.245V270.919C236.734 274.349 233.954 277.129 230.524 277.129H114.81C111.38 277.129 108.6 274.349 108.6 270.919V267.245ZM114.81 262.435C112.153 262.435 110 264.589 110 267.245V270.919C110 273.575 112.153 275.729 114.81 275.729H230.524C233.181 275.729 235.334 273.575 235.334 270.919V267.245C235.334 264.589 233.181 262.435 230.524 262.435H114.81Z" fill="black"/>
<path d="M109.299 438.061C109.299 435.018 111.766 432.551 114.809 432.551H230.523C233.567 432.551 236.034 435.018 236.034 438.061V441.734C236.034 444.778 233.567 447.245 230.523 447.245H114.809C111.766 447.245 109.299 444.778 109.299 441.734V438.061Z" fill="#A491D3"/>
<path fill-rule="evenodd" clip-rule="evenodd" d="M108.6 438.062C108.6 434.632 111.38 431.852 114.81 431.852H230.524C233.954 431.852 236.734 434.632 236.734 438.062V441.735C236.734 445.165 233.954 447.945 230.524 447.945H114.81C111.38 447.945 108.6 445.165 108.6 441.735V438.062ZM114.81 433.252C112.153 433.252 110 435.405 110 438.062V441.735C110 444.392 112.153 446.545 114.81 446.545H230.524C233.181 446.545 235.334 444.392 235.334 441.735V438.062C235.334 435.405 233.181 433.252 230.524 433.252H114.81Z" fill="black"/>
<path d="M109.299 181.836C109.299 178.793 111.766 176.326 114.809 176.326H230.523C233.567 176.326 236.034 178.793 236.034 181.836V185.51C236.034 188.553 233.567 191.02 230.523 191.02H114.809C111.766 191.02 109.299 188.553 109.299 185.51V181.836Z" fill="#A491D3"/>
<path fill-rule="evenodd" clip-rule="evenodd" d="M108.6 181.837C108.6 178.407 111.38 175.627 114.81 175.627H230.524C233.954 175.627 236.734 178.407 236.734 181.837V185.511C236.734 188.94 233.954 191.721 230.524 191.721H114.81C111.38 191.721 108.6 188.94 108.6 185.511V181.837ZM114.81 177.027C112.153 177.027 110 179.181 110 181.837V185.511C110 188.167 112.153 190.321 114.81 190.321H230.524C233.181 190.321 235.334 188.167 235.334 185.511V181.837C235.334 179.181 233.181 177.027 230.524 177.027H114.81Z" fill="black"/>
<path d="M109.299 580.409C109.299 577.365 111.766 574.898 114.809 574.898H230.523C233.567 574.898 236.034 577.365 236.034 580.409V584.082C236.034 587.125 233.567 589.592 230.523 589.592H114.809C111.766 589.592 109.299 587.125 109.299 584.082V580.409Z" fill="#A491D3"/>
<path fill-rule="evenodd" clip-rule="evenodd" d="M108.6 580.407C108.6 576.978 111.38 574.197 114.81 574.197H230.524C233.954 574.197 236.734 576.978 236.734 580.407V584.081C236.734 587.511 233.954 590.291 230.524 590.291H114.81C111.38 590.291 108.6 587.511 108.6 584.081V580.407ZM114.81 575.597C112.153 575.597 110 577.751 110 580.407V584.081C110 586.738 112.153 588.891 114.81 588.891H230.524C233.181 588.891 235.334 586.738 235.334 584.081V580.407C235.334 577.751 233.181 575.597 230.524 575.597H114.81Z" fill="black"/>
<path d="M109.299 324.184C109.299 321.141 111.766 318.674 114.809 318.674H230.523C233.567 318.674 236.034 321.141 236.034 324.184V327.858C236.034 330.901 233.567 333.368 230.523 333.368H114.809C111.766 333.368 109.299 330.901 109.299 327.858V324.184Z" fill="#A491D3"/>
<path fill-rule="evenodd" clip-rule="evenodd" d="M108.6 324.183C108.6 320.753 111.38 317.973 114.81 317.973H230.524C233.954 317.973 236.734 320.753 236.734 324.183V327.856C236.734 331.286 233.954 334.067 230.524 334.067H114.81C111.38 334.067 108.6 331.286 108.6 327.856V324.183ZM114.81 319.373C112.153 319.373 110 321.526 110 324.183V327.856C110 330.513 112.153 332.667 114.81 332.667H230.524C233.181 332.667 235.334 330.513 235.334 327.856V324.183C235.334 321.526 233.181 319.373 230.524 319.373H114.81Z" fill="black"/>
<path d="M109.299 495C109.299 491.957 111.766 489.49 114.809 489.49H230.523C233.567 489.49 236.034 491.957 236.034 495V498.674C236.034 501.717 233.567 504.184 230.523 504.184H114.809C111.766 504.184 109.299 501.717 109.299 498.674V495Z" fill="#A491D3"/>
<path fill-rule="evenodd" clip-rule="evenodd" d="M108.6 494.999C108.6 491.569 111.38 488.789 114.81 488.789H230.524C233.954 488.789 236.734 491.569 236.734 494.999V498.673C236.734 502.103 233.954 504.883 230.524 504.883H114.81C111.38 504.883 108.6 502.103 108.6 498.673V494.999ZM114.81 490.189C112.153 490.189 110 492.343 110 494.999V498.673C110 501.329 112.153 503.483 114.81 503.483H230.524C233.181 503.483 235.334 501.329 235.334 498.673V494.999C235.334 492.343 233.181 490.189 230.524 490.189H114.81Z" fill="black"/>
<path d="M109.299 238.776C109.299 235.733 111.766 233.266 114.809 233.266H230.523C233.567 233.266 236.034 235.733 236.034 238.776V242.449C236.034 245.493 233.567 247.96 230.523 247.96H114.809C111.766 247.96 109.299 245.493 109.299 242.449V238.776Z" fill="#A491D3"/>
<path fill-rule="evenodd" clip-rule="evenodd" d="M108.6 238.775C108.6 235.345 111.38 232.564 114.81 232.564H230.524C233.954 232.564 236.734 235.345 236.734 238.775V242.448C236.734 245.878 233.954 248.658 230.524 248.658H114.81C111.38 248.658 108.6 245.878 108.6 242.448V238.775ZM114.81 233.964C112.153 233.964 110 236.118 110 238.775V242.448C110 245.105 112.153 247.258 114.81 247.258H230.524C233.181 247.258 235.334 245.105 235.334 242.448V238.775C235.334 236.118 233.181 233.964 230.524 233.964H114.81Z" fill="black"/>
<path d="M109.299 409.592C109.299 406.549 111.766 404.082 114.809 404.082H230.523C233.567 404.082 236.034 406.549 236.034 409.592V413.266C236.034 416.309 233.567 418.776 230.523 418.776H114.809C111.766 418.776 109.299 416.309 109.299 413.266V409.592Z" fill="#A491D3"/>
<path fill-rule="evenodd" clip-rule="evenodd" d="M108.6 409.591C108.6 406.161 111.38 403.381 114.81 403.381H230.524C233.954 403.381 236.734 406.161 236.734 409.591V413.265C236.734 416.694 233.954 419.475 230.524 419.475H114.81C111.38 419.475 108.6 416.694 108.6 413.265V409.591ZM114.81 404.781C112.153 404.781 110 406.934 110 409.591V413.265C110 415.921 112.153 418.075 114.81 418.075H230.524C233.181 418.075 235.334 415.921 235.334 413.265V409.591C235.334 406.934 233.181 404.781 230.524 404.781H114.81Z" fill="black"/>
<path d="M109.299 153.368C109.299 150.324 111.766 147.857 114.809 147.857H230.523C233.567 147.857 236.034 150.324 236.034 153.368V157.041C236.034 160.084 233.567 162.551 230.523 162.551H114.809C111.766 162.551 109.299 160.084 109.299 157.041V153.368Z" fill="#A491D3"/>
<path fill-rule="evenodd" clip-rule="evenodd" d="M108.6 153.366C108.6 149.937 111.38 147.156 114.81 147.156H230.524C233.954 147.156 236.734 149.937 236.734 153.366V157.04C236.734 160.47 233.954 163.25 230.524 163.25H114.81C111.38 163.25 108.6 160.47 108.6 157.04V153.366ZM114.81 148.556C112.153 148.556 110 150.71 110 153.366V157.04C110 159.697 112.153 161.85 114.81 161.85H230.524C233.181 161.85 235.334 159.697 235.334 157.04V153.366C235.334 150.71 233.181 148.556 230.524 148.556H114.81Z" fill="black"/>
<path d="M109.299 124.899C109.299 121.856 111.766 119.389 114.809 119.389H230.523C233.567 119.389 236.034 121.856 236.034 124.899V128.572C236.034 131.616 233.567 134.083 230.523 134.083H114.809C111.766 134.083 109.299 131.616 109.299 128.572V124.899Z" fill="#A491D3"/>
<path fill-rule="evenodd" clip-rule="evenodd" d="M108.6 124.898C108.6 121.468 111.38 118.688 114.81 118.688H230.524C233.954 118.688 236.734 121.468 236.734 124.898V128.571C236.734 132.001 233.954 134.781 230.524 134.781H114.81C111.38 134.781 108.6 132.001 108.6 128.571V124.898ZM114.81 120.087C112.153 120.087 110 122.241 110 124.898V128.571C110 131.228 112.153 133.381 114.81 133.381H230.524C233.181 133.381 235.334 131.228 235.334 128.571V124.898C235.334 122.241 233.181 120.087 230.524 120.087H114.81Z" fill="black"/>
<path d="M109.299 18.3676C109.299 15.3244 111.766 12.8574 114.809 12.8574H230.523C233.567 12.8574 236.034 15.3244 236.034 18.3676V22.0411C236.034 25.0843 233.567 27.5513 230.523 27.5513H114.809C111.766 27.5513 109.299 25.0843 109.299 22.0411V18.3676Z" fill="#A491D3"/>
<path fill-rule="evenodd" clip-rule="evenodd" d="M108.6 18.3665C108.6 14.9367 111.38 12.1562 114.81 12.1562H230.524C233.954 12.1562 236.734 14.9367 236.734 18.3665V22.0399C236.734 25.4697 233.954 28.2501 230.524 28.2501H114.81C111.38 28.2501 108.6 25.4697 108.6 22.0399V18.3665ZM114.81 13.5562C112.153 13.5562 110 15.7099 110 18.3665V22.0399C110 24.6965 112.153 26.8501 114.81 26.8501H230.524C233.181 26.8501 235.334 24.6965 235.334 22.0399V18.3665C235.334 15.7099 233.181 13.5562 230.524 13.5562H114.81Z" fill="black"/>
<path d="M109.299 46.8364C109.299 43.7932 111.766 41.3262 114.809 41.3262H230.523C233.567 41.3262 236.034 43.7932 236.034 46.8364V50.5098C236.034 53.553 233.567 56.0201 230.523 56.0201H114.809C111.766 56.0201 109.299 53.553 109.299 50.5098V46.8364Z" fill="#A491D3"/>
<path fill-rule="evenodd" clip-rule="evenodd" d="M108.6 46.8372C108.6 43.4074 111.38 40.627 114.81 40.627H230.524C233.954 40.627 236.734 43.4074 236.734 46.8372V50.5106C236.734 53.9404 233.954 56.7208 230.524 56.7208H114.81C111.38 56.7208 108.6 53.9404 108.6 50.5106V46.8372ZM114.81 42.027C112.153 42.027 110 44.1806 110 46.8372V50.5106C110 53.1672 112.153 55.3208 114.81 55.3208H230.524C233.181 55.3208 235.334 53.1672 235.334 50.5106V46.8372C235.334 44.1806 233.181 42.027 230.524 42.027H114.81Z" fill="black"/>
<path d="M109.299 75.3071C109.299 72.2639 111.766 69.7969 114.809 69.7969H230.523C233.567 69.7969 236.034 72.2639 236.034 75.3071V78.9806C236.034 82.0238 233.567 84.4908 230.523 84.4908H114.809C111.766 84.4908 109.299 82.0238 109.299 78.9806V75.3071Z" fill="#A491D3"/>
<path fill-rule="evenodd" clip-rule="evenodd" d="M108.6 75.3059C108.6 71.8761 111.38 69.0957 114.81 69.0957H230.524C233.954 69.0957 236.734 71.8761 236.734 75.3059V78.9794C236.734 82.4092 233.954 85.1896 230.524 85.1896H114.81C111.38 85.1896 108.6 82.4092 108.6 78.9794V75.3059ZM114.81 70.4957C112.153 70.4957 110 72.6493 110 75.3059V78.9794C110 81.636 112.153 83.7896 114.81 83.7896H230.524C233.181 83.7896 235.334 81.636 235.334 78.9794V75.3059C235.334 72.6493 233.181 70.4957 230.524 70.4957H114.81Z" fill="black"/>
<path d="M109.299 103.776C109.299 100.733 111.766 98.2656 114.809 98.2656H230.523C233.567 98.2656 236.034 100.733 236.034 103.776V105.613H109.299V103.776Z" fill="#A491D3"/>
<path fill-rule="evenodd" clip-rule="evenodd" d="M108.6 103.775C108.6 100.345 111.38 97.5645 114.81 97.5645H230.524C233.954 97.5645 236.734 100.345 236.734 103.775V106.311H108.6V103.775ZM114.81 98.9645C112.153 98.9645 110 101.118 110 103.775V104.911H235.334V103.775C235.334 101.118 233.181 98.9645 230.524 98.9645H114.81Z" fill="black"/>
<path d="M302.937 539.118C302.192 537.894 303.073 536.326 304.506 536.326H349.398C350.831 536.326 351.712 537.894 350.967 539.118L328.521 575.993C327.805 577.169 326.098 577.169 325.383 575.993L302.937 539.118Z" fill="#A491D3"/>
<path fill-rule="evenodd" clip-rule="evenodd" d="M349.398 537.726H304.506C304.165 537.726 303.955 538.099 304.133 538.39L326.579 575.266C326.749 575.545 327.155 575.545 327.325 575.266L349.771 538.39C349.948 538.099 349.738 537.726 349.398 537.726ZM304.506 536.326C303.073 536.326 302.192 537.894 302.937 539.118L325.383 575.993C326.098 577.169 327.805 577.169 328.521 575.993L350.967 539.118C351.712 537.894 350.831 536.326 349.398 536.326H304.506Z" fill="black"/>
<path fill-rule="evenodd" clip-rule="evenodd" d="M291.169 36.7587C293.183 38.299 293.568 41.1809 292.028 43.1955C290.24 45.533 289.165 48.4599 288.466 51.9616C287.9 54.8013 287.629 57.7142 287.339 60.8204C287.264 61.6275 287.188 62.4476 287.105 63.2829C287.105 63.281 287.105 63.2863 287.104 63.2997C287.1 63.3499 287.089 63.5145 287.07 63.8426C287.049 64.2061 287.023 64.6774 286.993 65.2133L286.986 65.3543C286.929 66.3895 286.86 67.6286 286.794 68.6854C286.738 69.5963 286.658 70.849 286.548 71.4548C286.548 71.4554 286.548 71.4567 286.547 71.4587C286.539 71.5084 286.459 71.9794 286.24 72.4965C286.17 72.6593 286.023 72.9841 285.765 73.3504C285.562 73.6387 284.945 74.4619 283.772 74.9509C282.239 75.5897 280.622 75.315 279.446 74.5266C278.54 73.9199 278.105 73.161 277.959 72.8921C277.647 72.3152 277.534 71.7991 277.509 71.6842L277.507 71.6749C277.464 71.4816 277.442 71.3215 277.43 71.2329C277.407 71.05 277.395 70.887 277.389 70.7866C277.366 70.4004 277.359 69.8331 277.359 69.1474C277.359 68.5645 277.468 68.0069 277.666 67.4938C277.709 66.7698 277.755 65.9468 277.798 65.1729C277.871 63.853 277.936 62.6757 277.966 62.3742C278.036 61.6745 278.103 60.9464 278.173 60.1972C278.464 57.0472 278.79 53.5232 279.46 50.1645C280.305 45.9311 281.769 41.4925 284.732 37.6176C286.272 35.6029 289.154 35.2184 291.169 36.7587Z" fill="black"/>
<path fill-rule="evenodd" clip-rule="evenodd" d="M285.36 36.0299C287.27 34.3617 290.171 34.5577 291.839 36.4678C294.312 39.2993 296.605 42.2533 298.802 45.0852C298.967 45.2971 299.13 45.5083 299.294 45.7187C301.673 48.782 303.962 51.6996 306.436 54.4325C306.82 54.8564 307.214 55.2841 307.615 55.7185C310.474 58.8202 313.652 62.2666 315.607 67.1784C316.544 69.5347 315.394 72.2049 313.038 73.1426C310.682 74.0802 308.011 72.9302 307.074 70.5739C305.785 67.3351 303.816 65.182 300.889 61.9802C300.487 61.5404 300.067 61.0808 299.628 60.5959C296.892 57.5741 294.409 54.4011 292.04 51.3513C291.887 51.1539 291.734 50.9571 291.582 50.7609C289.35 47.8846 287.213 45.1313 284.922 42.509C283.254 40.5989 283.45 37.6981 285.36 36.0299Z" fill="black"/>
<path fill-rule="evenodd" clip-rule="evenodd" d="M314.874 54.8945C315.494 57.3533 314.005 59.8499 311.546 60.4708C306.213 61.8176 300.694 62.1685 295.451 62.2676C293.231 62.3096 291.142 62.3087 289.117 62.3077C286.124 62.3063 283.27 62.305 280.33 62.4423C277.796 62.5606 275.647 60.6029 275.529 58.0697C275.41 55.5365 277.368 53.3869 279.901 53.2686C282.969 53.1253 286.295 53.1236 289.514 53.122C291.505 53.121 293.455 53.1201 295.278 53.0856C300.304 52.9905 304.99 52.6542 309.297 51.5666C311.756 50.9457 314.253 52.4356 314.874 54.8945Z" fill="black"/>
<path fill-rule="evenodd" clip-rule="evenodd" d="M368.537 36.5066C368.663 39.0395 366.712 41.1948 364.179 41.3207C357.882 41.6336 352.945 47.5445 351.849 55.4135C351.402 58.6318 352.47 59.8936 353.517 60.5506C354.956 61.4534 357.57 61.9008 360.856 61.1568C362.638 60.7534 365.825 59.3603 368.792 57.3395C369.166 57.0848 369.527 56.8264 369.873 56.566C367.635 56.8057 365.504 55.3686 364.937 53.1238C364.316 50.665 365.806 48.1682 368.265 47.5471C369.15 47.3235 371.973 46.8461 374.575 46.8362C375.782 46.8317 377.595 46.9123 379.192 47.5686C380.028 47.912 381.278 48.6045 382.137 49.9943C383.097 51.5475 383.129 53.242 382.732 54.6238C382.062 56.9562 380.636 58.9594 379.151 60.56C377.63 62.199 375.806 63.6734 373.962 64.9296C370.35 67.3898 366.103 69.3851 362.884 70.1139C358.131 71.1897 352.802 70.943 348.637 68.3301C344.08 65.4714 341.884 60.396 342.753 54.1477C344.162 44.0267 351.188 32.7713 363.723 32.1483C366.256 32.0225 368.412 33.9737 368.537 36.5066Z" fill="black"/>
<path fill-rule="evenodd" clip-rule="evenodd" d="M400.986 44.2863C400.957 44.3531 400.937 44.4006 400.927 44.4257C400.481 45.5621 400.194 46.8579 399.951 48.4281C399.842 49.132 399.749 49.8414 399.649 50.6108C399.637 50.7012 399.625 50.7923 399.613 50.8844C399.501 51.7373 399.377 52.6599 399.221 53.5885C398.389 58.5586 397.038 63.2576 395.621 67.7993C394.866 70.2202 392.291 71.5704 389.87 70.8151C387.449 70.0597 386.099 67.4849 386.854 65.064C388.24 60.6229 389.438 56.4063 390.164 52.0713C390.29 51.3198 390.395 50.5416 390.507 49.6883C390.519 49.5981 390.531 49.5069 390.543 49.4148C390.642 48.6591 390.749 47.8413 390.875 47.0263C391.158 45.1942 391.57 43.1287 392.379 41.0684C392.704 40.2395 393.759 37.9603 395.13 36.0531C395.764 35.1714 396.824 33.8501 398.286 33.0048C399.075 32.5491 400.259 32.0699 401.711 32.1518C403.266 32.2395 404.562 32.9386 405.501 33.8699C406.875 35.2327 407.767 36.8583 408.377 38.1634C408.791 39.0485 409.202 40.0858 409.517 40.8805C409.638 41.1871 409.746 41.4577 409.833 41.6694C411.483 45.6607 413.355 49.5338 415.309 53.5781L415.339 53.6406C415.938 54.8802 416.606 56.0605 417.358 57.3865C417.656 57.9138 417.968 58.4641 418.294 59.0503C419.368 60.9839 420.529 63.2067 421.316 65.6123C422.105 68.0225 420.79 70.6158 418.38 71.4047C415.97 72.1935 413.377 70.8792 412.588 68.469C412.087 66.9376 411.286 65.3482 410.265 63.5094C410.026 63.0796 409.768 62.6243 409.5 62.1511C408.7 60.7394 407.81 59.1678 407.07 57.6358L406.987 57.4638C405.069 53.4949 403.099 49.4175 401.346 45.1781C401.213 44.8548 401.095 44.5609 400.986 44.2863ZM403.074 40.8258C403.074 40.8258 403.072 40.8279 403.067 40.8317C403.072 40.8276 403.074 40.8257 403.074 40.8258Z" fill="black"/>
<path fill-rule="evenodd" clip-rule="evenodd" d="M419.7 52.0972C419.837 54.6295 417.896 56.7936 415.363 56.931C407.016 57.3837 398.99 57.8569 390.816 58.7474C388.295 59.0221 386.029 57.201 385.754 54.6799C385.479 52.1589 387.3 49.8925 389.821 49.6178C398.269 48.6974 406.517 48.2135 414.866 47.7608C417.398 47.6234 419.562 49.5649 419.7 52.0972Z" fill="black"/>
<path fill-rule="evenodd" clip-rule="evenodd" d="M434.61 33.9834C437.143 34.0988 439.103 36.2461 438.988 38.7795C438.889 40.9458 438.776 43.0864 438.664 45.209C438.361 50.9663 438.065 56.5914 438.074 62.2377C438.372 62.8461 438.539 63.5299 438.539 64.2528C438.539 64.7267 438.519 65.5152 438.299 66.2996C438.235 66.5261 438.121 66.877 437.916 67.27C437.735 67.6167 437.317 68.3223 436.499 68.9138C435.528 69.6156 434.156 70.0191 432.691 69.6655C431.443 69.3643 430.674 68.6418 430.331 68.2646C429.671 67.5395 429.397 66.7769 429.316 66.5471C429.19 66.1913 429.112 65.8582 429.061 65.5927C428.958 65.0518 428.909 64.4771 428.902 63.9099C428.824 57.4127 429.169 50.86 429.505 44.4967C429.614 42.4288 429.722 40.3809 429.814 38.3614C429.929 35.828 432.076 33.8679 434.61 33.9834ZM429.351 64.3909C429.351 64.3903 429.351 64.375 429.354 64.347C429.353 64.3776 429.352 64.3916 429.351 64.3909Z" fill="black"/>
<path fill-rule="evenodd" clip-rule="evenodd" d="M460.607 47.2291C461.588 52.1896 461.982 57.5011 462.387 62.9736C462.542 65.0586 462.698 67.1669 462.889 69.2881C463.117 71.8139 465.349 73.6769 467.875 73.4493C470.401 73.2217 472.264 70.9896 472.036 68.4638C471.878 66.7111 471.744 64.858 471.605 62.9366C470.99 54.4332 470.279 44.5914 466.965 36.188C466.571 35.1882 466.013 34.0701 465.153 33.1433C464.223 32.1409 462.689 31.1307 460.65 31.2293C458.803 31.3186 457.511 32.2853 456.828 32.9282C456.107 33.6064 455.572 34.3845 455.19 35.0191C453.771 37.3782 452.737 40.8006 452.355 42.0646C452.349 42.0844 452.343 42.1036 452.337 42.1223C452.038 43.1127 451.748 44.6434 451.484 46.0373C451.42 46.3763 451.357 46.7072 451.296 47.0203C451.048 48.296 450.786 49.5412 450.492 50.653C449.989 49.8587 449.51 48.9949 449.018 48.0452C448.768 47.5634 448.501 47.0303 448.218 46.4661C447.496 45.0244 446.672 43.3802 445.776 41.8727C443.088 37.3545 439.692 34.7925 435.861 32.4739C433.691 31.1608 430.868 31.855 429.555 34.0246C428.242 36.1941 428.936 39.0174 431.105 40.3306C434.336 42.2859 436.293 43.8947 437.882 46.5673C438.604 47.7799 439.182 48.9363 439.834 50.2393C440.152 50.8746 440.488 51.5447 440.865 52.2731C441.941 54.3466 443.248 56.644 445.123 58.7957C446.099 59.9163 447.369 61.0503 448.994 61.642C450.853 62.3185 452.801 62.1421 454.463 61.1796C455.906 60.3438 456.82 59.1005 457.386 58.141C457.981 57.1314 458.428 56.0248 458.774 54.9992C459.465 52.9542 459.949 50.634 460.311 48.7738C460.414 48.244 460.504 47.7686 460.585 47.3436C460.593 47.305 460.6 47.2669 460.607 47.2291ZM449.384 53.6154C449.384 53.615 449.389 53.6071 449.401 53.5932C449.39 53.609 449.384 53.6159 449.384 53.6154Z" fill="black"/>
<path fill-rule="evenodd" clip-rule="evenodd" d="M485.102 33.0746C487.63 33.271 489.521 35.4799 489.324 38.0083C489.133 40.4757 488.856 42.9677 488.589 45.3725C488.512 46.069 488.435 46.758 488.362 47.4371C488.029 50.5156 487.751 53.4664 487.673 56.3703C487.632 57.8796 487.79 58.7189 487.974 59.1366C488.011 59.2189 488.04 59.2645 488.055 59.2859C488.069 59.3057 488.077 59.3135 488.083 59.318C488.088 59.3224 488.109 59.3403 488.16 59.3671C488.212 59.3947 488.312 59.4391 488.476 59.4842C489.841 59.8597 491.414 59.7239 493.707 59.1308C494.471 58.9333 495.172 58.7267 495.946 58.4988C496.387 58.369 496.851 58.2323 497.364 58.0864C498.668 57.7152 500.148 57.328 501.697 57.1019C504.207 56.7357 506.538 58.4731 506.904 60.9825C507.27 63.4919 505.533 65.8231 503.023 66.1893C502.088 66.3259 501.075 66.5785 499.878 66.9192C499.533 67.0174 499.15 67.1299 498.746 67.2487C497.876 67.5043 496.908 67.7889 496.007 68.0219C493.265 68.731 489.772 69.3655 486.04 68.339C482.847 67.4608 480.71 65.425 479.571 62.8411C478.553 60.5327 478.441 58.0398 478.493 56.1241C478.581 52.831 478.894 49.575 479.232 46.4506C479.311 45.7113 479.392 44.983 479.472 44.2628C479.736 41.8863 479.989 39.5984 480.168 37.297C480.365 34.7686 482.574 32.8781 485.102 33.0746Z" fill="black"/>
<path fill-rule="evenodd" clip-rule="evenodd" d="M508.32 46.6514C509.436 48.9284 508.495 51.6793 506.218 52.7958C502.353 54.691 497.751 55.0424 493.887 55.0945C492.152 55.1178 490.405 55.0782 488.806 55.042C488.571 55.0367 488.338 55.0314 488.11 55.0264C486.275 54.9865 484.686 54.965 483.305 55.0345C480.772 55.1619 478.616 53.2119 478.488 50.6791C478.361 48.1463 480.311 45.9898 482.844 45.8624C484.599 45.7741 486.498 45.8055 488.31 45.8449C488.55 45.8502 488.789 45.8556 489.028 45.8609C490.64 45.8973 492.207 45.9326 493.763 45.9116C497.45 45.8619 500.272 45.4833 502.175 44.5501C504.452 43.4336 507.203 44.3744 508.32 46.6514Z" fill="black"/>
<path fill-rule="evenodd" clip-rule="evenodd" d="M491.355 38.2112C489.611 38.335 487.855 38.4597 486.096 38.5625C483.565 38.7105 481.392 36.7781 481.244 34.2464C481.096 31.7147 483.029 29.5424 485.56 29.3945C487.016 29.3094 488.559 29.197 490.166 29.0801C497.703 28.5312 506.624 27.8817 514.315 29.4831C516.798 30 518.392 32.4317 517.875 34.9144C517.358 37.3972 514.926 38.9908 512.443 38.4739C506.139 37.1614 498.859 37.6783 491.355 38.2112Z" fill="black"/>
<path fill-rule="evenodd" clip-rule="evenodd" d="M301.167 95.5876C303.659 96.0558 305.3 98.4559 304.832 100.948C304.542 102.493 304.148 104.085 303.777 105.571C303.759 105.643 303.741 105.715 303.723 105.787C303.361 107.237 303.019 108.608 302.74 109.969C302.172 112.745 301.984 114.975 302.327 116.778C302.341 116.803 302.358 116.833 302.379 116.871L302.38 116.872C302.439 116.977 302.56 117.192 302.676 117.436C302.679 117.442 302.682 117.447 302.685 117.454C302.844 117.785 303.506 119.167 303.128 120.899C302.656 123.065 301.026 124.096 300.111 124.502C297.793 125.53 295.08 124.485 294.051 122.166C293.726 121.432 293.608 120.659 293.673 119.912C293.581 119.659 293.493 119.376 293.424 119.07C292.567 115.268 293.076 111.386 293.743 108.127C294.063 106.567 294.449 105.02 294.8 103.614C294.822 103.525 294.844 103.436 294.866 103.348C295.245 101.828 295.574 100.491 295.806 99.2527C296.275 96.7603 298.675 95.1194 301.167 95.5876ZM302.24 116.619C302.24 116.619 302.243 116.625 302.248 116.635C302.242 116.624 302.24 116.619 302.24 116.619Z" fill="black"/>
<path fill-rule="evenodd" clip-rule="evenodd" d="M283.789 124.897C283.789 122.361 285.845 120.305 288.381 120.305H310.422C312.958 120.305 315.014 122.361 315.014 124.897C315.014 127.433 312.958 129.488 310.422 129.488H288.381C285.845 129.488 283.789 127.433 283.789 124.897Z" fill="black"/>
<path fill-rule="evenodd" clip-rule="evenodd" d="M310.834 99.7622C301.191 98.6942 293.384 98.96 284.201 101.74C281.774 102.475 279.21 101.102 278.475 98.6753C277.741 96.248 279.113 93.6847 281.54 92.95C292.211 89.7198 301.322 89.4689 311.845 90.6343C314.366 90.9135 316.183 93.1831 315.904 95.7037C315.625 98.2243 313.355 100.041 310.834 99.7622Z" fill="black"/>
<path fill-rule="evenodd" clip-rule="evenodd" d="M386.976 104.025C386.97 104.11 386.965 104.176 386.961 104.222C386.553 109.404 385.544 114.374 384.58 119.117C384.352 120.242 384.126 121.354 383.912 122.452C383.884 122.595 383.851 122.773 383.814 122.972C383.717 123.496 383.594 124.161 383.469 124.696C383.302 125.411 382.974 126.673 382.205 127.805C381.243 129.221 379.508 130.505 377.115 130.402C375.259 130.322 373.73 129.406 372.698 128.661C368.262 125.453 365.415 120.425 363.682 115.982C360.364 118.349 357.21 121.088 353.92 123.979C353.928 123.971 353.933 123.967 353.933 123.967C353.934 123.968 353.877 124.022 353.708 124.193C353.677 124.225 353.643 124.259 353.606 124.296C353.446 124.459 353.239 124.67 353.02 124.886C352.497 125.402 351.728 126.131 350.867 126.753C350.215 127.225 348.61 128.324 346.56 128.323C345.31 128.322 343.964 127.908 342.848 126.905C341.823 125.984 341.319 124.858 341.06 123.972C340.621 122.468 340.703 121.046 340.818 120.095C340.904 119.388 341.065 118.584 341.162 118.102C341.187 117.976 341.208 117.872 341.222 117.798C342.28 112.146 343.503 106.51 344.708 100.952C345.029 99.4727 345.349 97.9992 345.664 96.5325C346.196 94.0531 348.638 92.4748 351.118 93.0073C353.597 93.5398 355.175 95.9815 354.643 98.461C354.319 99.9698 353.993 101.471 353.668 102.967C352.86 106.693 352.059 110.386 351.308 114.081C354.067 111.724 356.99 109.368 360.124 107.279C360.941 106.735 361.894 106.137 362.868 105.746C363.837 105.356 365.59 104.858 367.522 105.644C369.366 106.393 370.276 107.884 370.688 108.67C371.126 109.504 371.466 110.476 371.737 111.272C372.638 113.921 373.86 116.444 375.346 118.438C375.44 117.973 375.534 117.511 375.626 117.054C376.576 112.363 377.446 108.071 377.806 103.5C377.808 103.473 377.812 103.426 377.817 103.363C377.863 102.741 378.031 100.472 378.29 98.5414C378.412 97.6242 378.618 96.2409 378.998 95.2118C379.098 94.9419 379.316 94.3901 379.728 93.8239C380.015 93.4294 381.295 91.7862 383.683 91.8371C386.057 91.8877 387.269 93.5684 387.542 93.9747C387.937 94.5608 388.146 95.135 388.249 95.4465C388.774 97.031 388.388 98.6982 387.376 99.8802C387.168 101.475 387.028 103.34 386.976 104.025ZM362.556 112.935C362.556 112.936 362.556 112.937 362.557 112.938C362.553 112.93 362.552 112.929 362.556 112.935Z" fill="black"/>
<path fill-rule="evenodd" clip-rule="evenodd" d="M403.242 96.4277C405.778 96.4277 407.834 98.4836 407.834 101.02V117.649C407.834 118.114 407.808 118.593 407.791 118.91C407.788 118.972 407.785 119.028 407.783 119.076C407.776 119.206 407.772 119.308 407.77 119.389C409.156 121.235 408.961 123.867 407.241 125.486C405.394 127.224 402.488 127.136 400.75 125.289C399.217 123.66 398.72 121.849 398.611 120.328C398.563 119.654 398.59 119.031 398.61 118.619C398.616 118.506 398.621 118.407 398.626 118.319C398.641 118.025 398.65 117.847 398.65 117.649V101.02C398.65 98.4836 400.706 96.4277 403.242 96.4277Z" fill="black"/>
<path fill-rule="evenodd" clip-rule="evenodd" d="M426.266 91.9334C428.747 92.4557 430.336 94.8909 429.813 97.3726C428.659 102.858 428.129 108.297 428.085 113.959C428.081 114.461 428.048 115.081 428.022 115.581C428.012 115.758 428.004 115.921 427.997 116.057C427.97 116.652 427.963 117.126 427.988 117.523C428.057 117.516 428.132 117.507 428.214 117.497C428.692 117.434 429.21 117.329 429.879 117.188C429.921 117.179 429.963 117.17 430.006 117.161C430.584 117.039 431.347 116.878 432.07 116.784C435.628 116.324 439.215 116.627 442.228 116.882C442.816 116.931 443.383 116.979 443.924 117.019C446.453 117.206 448.351 119.408 448.164 121.937C447.977 124.466 445.775 126.365 443.246 126.178C442.52 126.124 441.827 126.067 441.163 126.013C438.177 125.768 435.747 125.569 433.249 125.892C432.909 125.936 432.486 126.024 431.771 126.175C431.134 126.309 430.288 126.487 429.411 126.602C427.812 126.812 425.025 126.987 422.53 125.318C419.589 123.351 418.985 120.197 418.84 118.345C418.761 117.344 418.789 116.384 418.823 115.638C418.838 115.317 418.852 115.057 418.864 114.833C418.885 114.45 418.899 114.175 418.902 113.888C418.949 107.683 419.532 101.629 420.826 95.481C421.349 92.9993 423.784 91.411 426.266 91.9334ZM428.087 118.195C428.086 118.196 428.082 118.186 428.075 118.163C428.084 118.183 428.087 118.194 428.087 118.195Z" fill="black"/>
<path fill-rule="evenodd" clip-rule="evenodd" d="M452.638 93.7943C455.107 93.2151 457.578 94.747 458.157 97.216C458.925 100.489 458.839 103.534 458.706 106.085C458.685 106.481 458.664 106.861 458.644 107.23C458.524 109.374 458.428 111.099 458.623 112.906C458.677 113.406 458.725 114.054 458.772 114.673C458.789 114.902 458.806 115.127 458.822 115.339C458.891 116.209 458.971 117.081 459.09 117.9C459.161 118.393 459.24 118.817 459.322 119.171C459.405 119.142 459.495 119.108 459.592 119.07C460.251 118.812 460.966 118.452 461.777 118.023C461.894 117.961 462.02 117.893 462.154 117.821C462.798 117.477 463.603 117.046 464.276 116.754C473.351 112.82 483.591 113.448 491.979 114.627C494.49 114.98 496.24 117.302 495.887 119.813C495.534 122.325 493.212 124.074 490.701 123.722C482.58 122.58 474.528 122.319 467.929 125.18C467.635 125.307 467.271 125.501 466.662 125.826C466.489 125.918 466.296 126.021 466.079 126.136C465.229 126.587 464.122 127.159 462.944 127.621C461.029 128.371 456.68 129.734 453.19 126.613C451.845 125.41 451.169 123.849 450.8 122.755C450.4 121.571 450.16 120.317 450.001 119.216C449.8 117.831 449.656 115.955 449.568 114.81C449.535 114.38 449.51 114.052 449.493 113.893C449.209 111.272 449.357 108.711 449.479 106.596C449.499 106.254 449.518 105.925 449.535 105.608C449.661 103.182 449.668 101.241 449.216 99.3135C448.637 96.8445 450.169 94.3735 452.638 93.7943ZM459.629 120.133C459.629 120.133 459.626 120.129 459.622 120.121C459.627 120.128 459.629 120.133 459.629 120.133Z" fill="black"/>
<path fill-rule="evenodd" clip-rule="evenodd" d="M297.81 157.906C300.206 159.02 301.911 161.058 303.158 162.606C304.749 164.582 304.437 167.472 302.462 169.063C300.487 170.654 297.597 170.342 296.006 168.367C295.391 167.604 294.939 167.087 294.555 166.719C294.182 166.361 293.99 166.258 293.939 166.234C293.938 166.234 293.937 166.233 293.936 166.232C293.931 166.228 293.92 166.221 293.839 166.223C293.697 166.227 293.323 166.269 292.617 166.539C291.246 167.063 290.469 167.625 289.986 168.166C289.526 168.681 289.108 169.428 288.861 170.715C288.542 172.371 288.319 174.025 288.396 175.468C288.474 176.931 288.831 177.626 289.134 177.949C290.392 179.29 292.233 180.296 294.812 181.286C295.833 181.678 296.863 182.03 297.976 182.41C298.264 182.508 298.558 182.609 298.859 182.713C300.264 183.196 301.79 183.738 303.259 184.392C304.852 185.101 306.608 186.127 308.205 187.338C309.765 188.52 311.434 190.075 312.59 191.923C313.735 193.755 314.78 196.591 313.538 199.651C312.356 202.565 309.654 204.254 306.851 205.271C301.9 207.068 296.441 206.882 291.901 205.882C291.249 205.738 290.474 205.443 290.044 205.279L290.04 205.277C289.772 205.175 289.488 205.064 289.22 204.959L289.189 204.947C288.905 204.836 288.634 204.731 288.375 204.632C288.151 204.546 287.963 204.477 287.808 204.421C285.316 204.371 283.311 202.335 283.311 199.83C283.311 199.025 283.522 198.095 284.101 197.232C284.663 196.395 285.383 195.899 285.965 195.621C286.986 195.132 287.911 195.147 288.193 195.154C288.892 195.172 289.502 195.335 289.747 195.402C290.376 195.574 291.094 195.84 291.646 196.05C291.946 196.165 292.251 196.284 292.531 196.393L292.548 196.4C292.828 196.509 293.081 196.608 293.313 196.697C293.763 196.868 293.933 196.921 293.932 196.925C293.932 196.925 293.929 196.925 293.922 196.923C297.347 197.67 300.911 197.657 303.719 196.638C304.023 196.528 304.269 196.425 304.467 196.332C304.07 195.85 303.465 195.268 302.657 194.656C301.608 193.861 300.459 193.198 299.525 192.782C298.451 192.304 297.25 191.871 295.87 191.396C295.615 191.308 295.352 191.219 295.083 191.127C293.954 190.741 292.719 190.319 291.52 189.859C288.557 188.722 285.137 187.111 282.437 184.233C280.061 181.701 279.363 178.527 279.225 175.959C279.087 173.372 279.486 170.832 279.842 168.981C280.349 166.346 281.394 164.001 283.134 162.051C284.851 160.127 287.01 158.851 289.336 157.961C292.168 156.878 295.031 156.614 297.81 157.906ZM304.947 197.061C304.947 197.06 304.944 197.054 304.94 197.041C304.946 197.054 304.948 197.061 304.947 197.061ZM287.328 204.261C287.331 204.262 287.334 204.263 287.338 204.264C287.283 204.252 287.275 204.247 287.328 204.261Z" fill="black"/>
<path fill-rule="evenodd" clip-rule="evenodd" d="M314.814 165.444C317.274 164.827 319.768 166.321 320.385 168.781C321.615 173.686 322.785 178.608 323.948 183.497L324.066 183.994C325.27 189.056 326.468 194.083 327.73 199.079C328.351 201.538 326.861 204.035 324.402 204.656C321.943 205.277 319.447 203.787 318.826 201.328C317.546 196.261 316.334 191.174 315.132 186.119L315.018 185.642C313.852 180.738 312.693 175.865 311.477 171.014C310.86 168.555 312.354 166.06 314.814 165.444Z" fill="black"/>
<path fill-rule="evenodd" clip-rule="evenodd" d="M329.848 169.982C327.015 170.257 324.027 171.148 321.19 172.191C318.809 173.066 316.17 171.846 315.295 169.466C314.42 167.086 315.64 164.447 318.02 163.572C321.126 162.43 324.973 161.229 328.96 160.842C332.959 160.454 337.453 160.851 341.519 163.296C344.229 164.926 346.63 167.404 347.617 170.623C348.671 174.061 347.893 177.66 345.418 180.673C343.366 183.171 340.656 184.52 338.274 185.34C336.205 186.053 334.008 186.482 332.31 186.814C332.086 186.858 331.871 186.9 331.667 186.941C331.265 187.02 330.873 187.062 330.591 187.087C330.29 187.114 329.973 187.134 329.695 187.151C329.623 187.156 329.552 187.16 329.483 187.164C328.97 187.195 328.528 187.222 328.103 187.266C327.984 187.279 327.877 187.291 327.783 187.304C326.421 188.356 324.521 188.596 322.886 187.762C320.627 186.61 319.73 183.845 320.882 181.586C321.916 179.557 323.85 178.863 324.551 178.637C325.482 178.338 326.444 178.206 327.147 178.132C327.79 178.065 328.449 178.026 328.942 177.996C329.01 177.992 329.074 177.988 329.135 177.985C329.546 177.96 329.753 177.942 329.837 177.934C329.889 177.93 329.895 177.929 329.875 177.934C330.104 177.888 330.33 177.843 330.553 177.799C332.321 177.451 333.858 177.148 335.283 176.657C336.847 176.118 337.777 175.508 338.322 174.844C338.711 174.371 338.828 174.035 338.867 173.858C338.904 173.688 338.9 173.522 338.837 173.315C338.693 172.847 338.153 171.988 336.787 171.167C334.977 170.079 332.668 169.709 329.848 169.982Z" fill="black"/>
<path fill-rule="evenodd" clip-rule="evenodd" d="M361.088 161.033C363.448 160.105 366.114 161.265 367.042 163.625C369.198 169.106 369.187 174.155 369.176 178.889C369.176 179.214 369.175 179.537 369.175 179.859C369.175 180.686 369.151 181.424 369.128 182.113C369.085 183.44 369.048 184.587 369.199 185.848C369.298 186.682 369.459 187.199 369.606 187.494C369.716 187.714 369.782 187.748 369.807 187.761C369.809 187.762 369.81 187.762 369.812 187.763C370.951 188.386 373.004 188.481 376.58 187.75C377.796 187.502 378.979 187.209 380.231 186.899C380.72 186.778 381.219 186.655 381.735 186.53C383.45 186.116 385.373 185.685 387.183 185.535C389.711 185.324 391.93 187.202 392.141 189.729C392.351 192.256 390.473 194.476 387.946 194.686C386.911 194.773 385.598 195.045 383.891 195.457C383.485 195.555 383.054 195.662 382.605 195.773C381.296 196.097 379.835 196.459 378.418 196.748C374.803 197.487 369.723 198.184 365.402 195.819C361.466 193.665 360.405 189.658 360.08 186.939C359.842 184.949 359.915 182.588 359.964 181.037C359.979 180.554 359.991 180.15 359.991 179.859C359.991 179.676 359.991 179.495 359.991 179.316C359.993 174.22 359.994 170.798 358.496 166.987C357.567 164.627 358.728 161.961 361.088 161.033Z" fill="black"/>
<path fill-rule="evenodd" clip-rule="evenodd" d="M388.455 176.739C388.734 179.26 386.917 181.529 384.396 181.809C378.047 182.511 371.752 182.698 365.566 182.755C363.03 182.778 360.955 180.741 360.932 178.205C360.908 175.669 362.945 173.595 365.481 173.571C371.565 173.515 377.498 173.333 383.386 172.681C385.906 172.402 388.176 174.219 388.455 176.739Z" fill="black"/>
<path fill-rule="evenodd" clip-rule="evenodd" d="M371.856 168.003C370.027 168.313 368.152 168.63 366.213 168.926C363.706 169.307 361.364 167.584 360.983 165.077C360.601 162.57 362.324 160.228 364.831 159.846C366.421 159.604 368.071 159.324 369.766 159.036C375.4 158.08 381.527 157.039 387.563 157.039C390.099 157.039 392.155 159.095 392.155 161.631C392.155 164.167 390.099 166.223 387.563 166.223C382.375 166.223 377.316 167.079 371.856 168.003Z" fill="black"/>
<path fill-rule="evenodd" clip-rule="evenodd" d="M411.392 159.879C413.882 160.358 415.512 162.766 415.032 165.256C414.815 166.385 414.597 167.509 414.38 168.629C413.007 175.698 411.665 182.615 410.739 189.601C410.704 189.863 410.685 190.082 410.662 190.345C410.642 190.586 410.618 190.863 410.575 191.244L410.574 191.255C410.564 191.349 410.533 191.631 410.475 191.91C410.458 191.99 410.416 192.186 410.339 192.425C410.301 192.542 410.224 192.764 410.095 193.028C410.008 193.207 409.695 193.841 409.034 194.435C408.234 195.154 406.436 196.143 404.278 195.292C402.717 194.677 402.055 193.45 401.92 193.2L401.919 193.199C401.559 192.533 401.453 191.919 401.44 191.843C401.44 191.84 401.439 191.838 401.439 191.836C401.358 191.398 401.349 190.95 401.347 190.86C401.347 190.854 401.347 190.85 401.347 190.847C401.342 190.643 401.34 190.393 401.34 190.102C401.34 189.546 401.438 189.014 401.619 188.522C401.625 188.474 401.63 188.432 401.635 188.394C402.6 181.113 404.001 173.898 405.37 166.846C405.586 165.733 405.802 164.624 406.015 163.519C406.494 161.029 408.902 159.399 411.392 159.879ZM401.441 190.29C401.441 190.29 401.442 190.281 401.444 190.267C401.442 190.283 401.441 190.291 401.441 190.29ZM410.528 190.636C410.531 190.674 410.532 190.696 410.531 190.698C410.531 190.699 410.53 190.68 410.528 190.636Z" fill="black"/>
<path fill-rule="evenodd" clip-rule="evenodd" d="M435.859 156.15C438.379 155.869 440.65 157.684 440.932 160.204C441.038 161.158 441.164 162.154 441.293 163.181C441.696 166.371 442.137 169.863 442.16 173.364C442.167 174.383 442.243 175.574 442.343 176.984C442.356 177.156 442.368 177.331 442.381 177.509C442.47 178.738 442.568 180.097 442.622 181.451C442.741 184.426 442.699 188.125 441.499 191.312C441.166 192.195 440.508 193.241 439.317 193.958C438.141 194.666 436.945 194.753 436.085 194.664C434.598 194.51 433.426 193.77 432.871 193.395C431.557 192.507 430.197 191.165 429.116 190.017C426.85 187.612 424.691 184.839 424.424 184.49C422.395 181.85 420.517 179.049 418.745 176.406C418.08 175.416 417.431 174.447 416.794 173.517C414.383 169.998 412 166.797 409.142 163.989C407.332 162.212 407.306 159.305 409.084 157.496C410.861 155.686 413.768 155.66 415.577 157.437C419.081 160.879 421.863 164.668 424.37 168.327C425.12 169.421 425.835 170.488 426.535 171.532C428.246 174.083 429.87 176.506 431.707 178.896C431.826 179.051 432.496 179.912 433.407 181.003C433.358 180.076 433.291 179.14 433.222 178.179C433.209 178 433.196 177.819 433.183 177.638C433.084 176.251 432.986 174.781 432.977 173.425C432.957 170.518 432.616 167.803 432.233 164.768C432.091 163.64 431.943 162.466 431.805 161.223C431.523 158.702 433.338 156.431 435.859 156.15ZM438.116 185.848C438.116 185.85 438.093 185.838 438.045 185.807C438.091 185.831 438.115 185.846 438.116 185.848Z" fill="black"/>
<path fill-rule="evenodd" clip-rule="evenodd" d="M460.459 156.158C462.976 155.84 465.272 157.623 465.59 160.139C465.988 163.298 466.512 166.438 467.054 169.685C467.152 170.268 467.25 170.855 467.348 171.446C467.983 175.279 468.609 179.25 468.98 183.286C469 183.507 469.031 183.757 469.074 184.108C469.081 184.168 469.089 184.231 469.097 184.298C469.147 184.711 469.207 185.225 469.248 185.75C469.309 186.525 469.442 188.345 468.772 189.994C467.817 192.343 465.138 193.473 462.789 192.518C460.58 191.62 459.449 189.198 460.115 186.959C460.115 186.853 460.11 186.692 460.092 186.463C460.068 186.151 460.029 185.808 459.98 185.402C459.973 185.35 459.967 185.297 459.96 185.241C459.919 184.902 459.869 184.494 459.835 184.127C459.497 180.449 458.92 176.763 458.288 172.948C458.194 172.38 458.098 171.809 458.002 171.234C457.461 167.993 456.901 164.645 456.478 161.288C456.161 158.772 457.943 156.475 460.459 156.158ZM460.11 187.098C460.11 187.097 460.11 187.088 460.113 187.07C460.111 187.089 460.11 187.098 460.11 187.098Z" fill="black"/>
<path fill-rule="evenodd" clip-rule="evenodd" d="M453.689 160.528C453.791 157.994 455.928 156.023 458.462 156.125C468.888 156.545 478.649 158.404 488.143 164.439C489.962 165.595 492.419 167.184 494.208 169.406C496.208 171.893 497.312 175.073 496.663 178.968C496.283 181.248 495.433 183.832 494.314 186.195C493.213 188.52 491.676 191.007 489.719 192.826C488.302 194.144 486.595 194.846 485.148 195.254C483.667 195.671 482.12 195.873 480.73 195.981C479.327 196.091 477.935 196.115 476.754 196.126C476.503 196.128 476.265 196.13 476.041 196.132C475.141 196.139 474.446 196.145 473.869 196.176C473.877 196.176 473.874 196.176 473.854 196.178C473.817 196.182 473.72 196.191 473.529 196.212C473.453 196.22 473.361 196.23 473.259 196.241C473.063 196.263 472.831 196.289 472.604 196.313C471.897 196.388 470.966 196.478 470.077 196.513C469.421 196.54 468.009 196.588 466.774 196.206L466.767 196.205C466.403 196.092 463.988 195.348 463.328 192.656C462.668 189.964 464.463 188.17 464.76 187.873L464.762 187.871C466.332 186.302 468.755 186.106 470.538 187.285C470.895 187.256 471.268 187.219 471.636 187.18C471.757 187.168 471.897 187.152 472.046 187.136C472.512 187.084 473.062 187.023 473.366 187.006C474.181 186.962 475.159 186.954 476.075 186.948C476.276 186.946 476.474 186.945 476.666 186.943C477.816 186.932 478.944 186.909 480.016 186.825C481.102 186.741 481.986 186.603 482.656 186.414C483.272 186.241 483.476 186.088 483.477 186.089C483.477 186.089 483.477 186.09 483.477 186.09C484.251 185.366 485.18 184.026 486.013 182.265C486.832 180.536 487.386 178.765 487.604 177.458C487.789 176.352 487.547 175.778 487.052 175.163C486.345 174.284 485.158 173.424 483.217 172.19C475.581 167.336 467.604 165.684 458.093 165.301C455.559 165.199 453.587 163.062 453.689 160.528ZM469.049 187.336C469.05 187.336 469.06 187.337 469.079 187.339C469.059 187.338 469.049 187.336 469.049 187.336Z" fill="black"/>
<path fill-rule="evenodd" clip-rule="evenodd" d="M322.934 234.218C325.45 234.536 327.232 236.833 326.915 239.349C326.694 241.101 326.464 242.834 326.237 244.553C325.323 251.471 324.44 258.147 324.248 264.857C325.004 266.102 325.156 267.685 324.517 269.116C323.483 271.432 320.768 272.47 318.452 271.436C317.851 271.168 317.048 270.712 316.353 269.909C315.6 269.04 315.247 268.084 315.104 267.26C314.983 266.564 315.012 265.944 315.023 265.695L315.024 265.689C315.032 265.503 315.039 265.401 315.044 265.324C315.049 265.231 315.053 265.173 315.056 265.045C315.236 257.655 316.219 250.235 317.159 243.137C317.38 241.472 317.598 239.825 317.803 238.199C318.121 235.683 320.418 233.901 322.934 234.218ZM324.195 266.184C324.195 266.185 324.195 266.174 324.196 266.152C324.196 266.172 324.196 266.183 324.195 266.184Z" fill="black"/>
<path fill-rule="evenodd" clip-rule="evenodd" d="M358.645 240.903C358.705 240.781 358.707 240.808 358.637 240.922C358.64 240.915 358.643 240.909 358.645 240.903ZM355.251 250.254C355.724 252.43 356.122 254.63 356.536 256.923C356.667 257.646 356.799 258.379 356.936 259.122C357.555 262.481 358.255 266 359.283 269.467C360.005 271.898 362.56 273.285 364.991 272.564C367.423 271.842 368.809 269.287 368.088 266.855C367.206 263.883 366.577 260.767 365.968 257.46C365.844 256.785 365.72 256.099 365.595 255.405C365.118 252.765 364.619 250.002 364.002 247.304C364.002 247.303 364.001 247.297 363.998 247.286L363.986 247.229C363.976 247.18 363.963 247.118 363.946 247.04C363.939 247.003 363.93 246.964 363.922 246.922C363.894 246.787 363.86 246.625 363.822 246.446C363.722 245.971 363.589 245.355 363.43 244.661C363.115 243.295 362.675 241.543 362.142 239.937C361.876 239.136 361.561 238.291 361.193 237.511C360.861 236.811 360.326 235.809 359.502 234.972C358.689 234.146 356.613 232.599 353.868 233.553C351.741 234.293 350.757 236.117 350.371 236.92C348.76 240.265 347.581 244.009 346.534 247.333C346.146 248.566 345.776 249.742 345.408 250.818C345.31 251.107 345.207 251.439 345.12 251.724L345.096 251.802C345.009 252.084 344.922 252.365 344.827 252.661C344.638 253.249 344.441 253.812 344.229 254.312C344.116 254.246 343.996 254.173 343.871 254.092C342.823 253.419 341.786 252.503 341.135 251.844C339.368 250.057 337.729 248.231 336.01 246.316C335.4 245.637 334.781 244.947 334.142 244.243C331.76 241.619 329.191 238.905 326.245 236.41C324.31 234.771 321.413 235.011 319.774 236.946C318.135 238.881 318.374 241.778 320.31 243.417C322.783 245.513 325.027 247.865 327.343 250.417C327.903 251.034 328.474 251.67 329.055 252.318C330.815 254.278 332.668 256.342 334.604 258.301C335.574 259.282 337.131 260.677 338.906 261.818C340.43 262.797 343.191 264.311 346.218 263.896C348.39 263.598 349.851 262.296 350.69 261.299C351.545 260.282 352.142 259.127 352.556 258.192C353.18 256.784 353.726 254.998 353.976 254.181C354.034 253.991 354.076 253.853 354.1 253.785C354.52 252.553 354.895 251.381 355.251 250.254ZM343.651 255.399C343.651 255.399 343.654 255.396 343.659 255.39C343.654 255.397 343.651 255.399 343.651 255.399ZM345.277 254.788C345.283 254.789 345.286 254.79 345.286 254.79C345.286 254.79 345.283 254.789 345.277 254.788Z" fill="black"/>
<path fill-rule="evenodd" clip-rule="evenodd" d="M406.004 232.758C405.405 234.094 404.504 235.819 404.387 236.038C403.374 237.926 402.511 239.923 401.555 242.133C401.204 242.944 400.841 243.784 400.453 244.657C399.083 247.746 397.454 251.133 395.204 254.098C394.101 255.553 392.523 256.741 390.472 257.061C388.527 257.363 386.869 256.77 385.744 256.165C383.655 255.041 382 253.093 381.218 252.168C379.159 249.731 377.295 247.171 375.546 244.767C375.276 244.397 375.01 244.03 374.745 243.668C372.72 240.897 370.789 238.335 368.6 235.997C366.866 234.146 366.961 231.24 368.813 229.507C370.664 227.773 373.569 227.869 375.303 229.72C377.906 232.5 380.119 235.456 382.16 238.25C382.441 238.634 382.718 239.014 382.992 239.391C384.755 241.812 386.405 244.077 388.232 246.24C388.47 246.521 388.703 246.789 388.932 247.037C390.048 245.276 391.039 243.232 392.059 240.933C392.363 240.248 392.674 239.527 392.995 238.785C393.995 236.471 395.082 233.957 396.294 231.697L396.295 231.696C396.297 231.692 396.311 231.665 396.34 231.611C396.369 231.554 396.408 231.479 396.455 231.387C396.55 231.204 396.674 230.963 396.81 230.691C396.825 230.661 396.84 230.631 396.855 230.601C396.818 229.592 397.113 228.564 397.763 227.692C398.053 227.303 398.454 226.785 398.894 226.366C399.021 226.245 399.226 226.061 399.494 225.872C399.704 225.724 400.262 225.347 401.073 225.142C401.981 224.912 403.73 224.808 405.255 226.135C406.538 227.252 406.763 228.647 406.817 229.102C406.924 230.02 406.726 230.779 406.685 230.934C406.684 230.941 406.682 230.946 406.681 230.95C406.608 231.235 406.521 231.489 406.455 231.668C406.321 232.035 406.155 232.422 406.004 232.758ZM397.834 228.504C397.834 228.504 397.833 228.507 397.831 228.512C397.833 228.507 397.834 228.504 397.834 228.504ZM390.107 248.083C390.107 248.083 390.104 248.082 390.099 248.079C390.104 248.082 390.106 248.083 390.107 248.083Z" fill="black"/>
<path fill-rule="evenodd" clip-rule="evenodd" d="M386.929 246.844C389.066 245.479 391.906 246.104 393.271 248.242C396.33 253.03 397.08 258.255 397.701 262.576C397.764 263.014 397.826 263.442 397.888 263.859C397.926 264.114 397.96 264.361 397.989 264.573L397.989 264.575C398.02 264.797 398.044 264.979 398.071 265.153C398.123 265.505 398.164 265.711 398.201 265.849C398.205 265.864 398.209 265.877 398.212 265.889C399.928 267.661 399.939 270.488 398.211 272.274C396.447 274.097 393.54 274.144 391.718 272.381C389.364 270.103 389.009 266.979 388.856 265.629C388.837 265.464 388.821 265.325 388.805 265.218C388.752 264.862 388.701 264.515 388.65 264.175C387.96 259.51 387.475 256.228 385.531 253.185C384.166 251.048 384.792 248.209 386.929 246.844Z" fill="black"/>
<path fill-rule="evenodd" clip-rule="evenodd" d="M296.681 304.515C296.892 307.042 295.014 309.262 292.487 309.473C292.083 309.506 291.701 309.537 291.339 309.567C288.65 309.785 287.071 309.913 285.716 310.389C284.627 310.771 283.615 311.413 282.538 313.412C281.539 315.266 280.949 317.656 281.043 319.879C281.137 322.083 281.866 323.717 283.021 324.735C284.487 326.027 285.726 326.574 286.776 326.797C287.852 327.026 289.035 326.978 290.471 326.636C291.95 326.284 293.535 325.663 295.417 324.847C295.828 324.668 296.262 324.477 296.711 324.278C298.19 323.625 299.843 322.895 301.481 322.289C303.859 321.409 306.501 322.624 307.381 325.002C308.261 327.381 307.046 330.022 304.667 330.902C303.32 331.401 302.032 331.969 300.616 332.594C300.119 332.813 299.607 333.04 299.07 333.272C297.119 334.118 294.911 335.019 292.597 335.57C290.24 336.131 287.629 336.367 284.869 335.781C282.083 335.189 279.444 333.824 276.95 331.625C273.427 328.521 272.036 324.233 271.868 320.269C271.7 316.325 272.704 312.303 274.453 309.056C276.538 305.187 279.277 302.915 282.676 301.723C285.247 300.821 288.159 300.597 290.651 300.406C291.019 300.377 291.377 300.35 291.724 300.321C294.251 300.11 296.47 301.988 296.681 304.515Z" fill="black"/>
<path fill-rule="evenodd" clip-rule="evenodd" d="M307.853 299.693C310.219 298.781 312.877 299.961 313.788 302.328C316.173 308.521 317.299 315.174 318.333 321.292C318.719 323.574 319.093 325.781 319.514 327.863C320.017 330.348 318.41 332.771 315.925 333.274C313.439 333.778 311.016 332.171 310.513 329.685C309.963 326.967 309.527 324.389 309.108 321.907C308.136 316.149 307.251 310.908 305.218 305.628C304.307 303.262 305.486 300.604 307.853 299.693Z" fill="black"/>
<path fill-rule="evenodd" clip-rule="evenodd" d="M305.83 317.754C305.83 315.218 307.886 313.162 310.422 313.162H327.871C330.407 313.162 332.463 315.218 332.463 317.754C332.463 320.29 330.407 322.346 327.871 322.346H310.422C307.886 322.346 305.83 320.29 305.83 317.754Z" fill="black"/>
<path fill-rule="evenodd" clip-rule="evenodd" d="M330.141 295.739C332.663 295.471 334.924 297.299 335.192 299.821C336.037 307.797 336.894 315.707 337.933 323.582C338.264 326.097 336.495 328.404 333.981 328.735C331.467 329.067 329.16 327.297 328.828 324.783C327.773 316.78 326.905 308.766 326.059 300.789C325.792 298.267 327.619 296.006 330.141 295.739Z" fill="black"/>
<path fill-rule="evenodd" clip-rule="evenodd" d="M343.543 296.713C346.034 296.238 348.438 297.874 348.912 300.365C349.158 301.656 349.423 302.988 349.694 304.351C351.095 311.397 352.667 319.297 352.667 326.938C352.667 329.474 350.611 331.53 348.075 331.53C345.539 331.53 343.483 329.474 343.483 326.938C343.483 320.287 342.129 313.447 340.733 306.395C340.45 304.966 340.166 303.529 339.89 302.082C339.416 299.591 341.051 297.187 343.543 296.713Z" fill="black"/>
<path fill-rule="evenodd" clip-rule="evenodd" d="M368.417 299.471C370.907 299.953 372.535 302.361 372.053 304.851C371.989 305.183 371.879 305.698 371.738 306.358C371.204 308.849 370.231 313.394 369.643 317.864C369.321 320.317 369.157 322.466 369.205 324.048C370.073 323.931 371.023 323.747 372.145 323.53C372.426 323.476 372.718 323.419 373.022 323.361C375.445 322.899 378.641 322.351 382.056 323.05C384.541 323.558 386.143 325.984 385.634 328.469C385.126 330.953 382.7 332.556 380.216 332.047C378.737 331.745 377.128 331.927 374.743 332.382C374.487 332.431 374.218 332.484 373.936 332.54C371.873 332.947 369.156 333.485 366.391 333.343C363.614 333.201 361.949 331.354 361.164 329.799C360.454 328.391 360.201 326.814 360.093 325.538C359.871 322.898 360.145 319.653 360.538 316.667C361.189 311.713 362.325 306.434 362.819 304.138C362.925 303.648 363.001 303.293 363.037 303.107C363.518 300.618 365.927 298.99 368.417 299.471Z" fill="black"/>
<path fill-rule="evenodd" clip-rule="evenodd" d="M388.583 299.727C390.93 298.768 393.611 299.893 394.57 302.241C396.32 306.523 397.038 310.909 397.663 314.729L397.664 314.732C398.314 318.708 398.867 322.087 400.108 325.269C401.029 327.631 399.861 330.294 397.498 331.215C395.136 332.136 392.473 330.968 391.552 328.605C389.955 324.512 389.268 320.3 388.665 316.612C388.644 316.478 388.622 316.344 388.6 316.212C387.956 312.273 387.367 308.891 386.069 305.715C385.11 303.367 386.235 300.686 388.583 299.727Z" fill="black"/>
<path fill-rule="evenodd" clip-rule="evenodd" d="M402.343 304.419C399.103 303.855 395.509 303.952 392.326 304.07C389.792 304.164 387.661 302.185 387.568 299.651C387.474 297.116 389.453 294.986 391.987 294.892C395.073 294.778 399.592 294.618 403.918 295.371C408.187 296.114 413.202 297.904 416.272 302.469C418.558 305.868 417.912 310.084 417.255 312.644C416.514 315.533 415.235 318.266 414.273 319.969C410.587 326.486 405.215 328.757 400.765 330.639C399.703 331.088 398.694 331.514 397.773 331.971C395.501 333.097 392.746 332.168 391.62 329.896C390.493 327.624 391.422 324.869 393.694 323.743C395.52 322.837 397.057 322.17 398.38 321.595C402.209 319.932 404.243 319.049 406.279 315.448C406.959 314.244 407.87 312.269 408.359 310.362C408.603 309.414 408.699 308.645 408.686 308.087C408.678 307.759 408.636 307.598 408.62 307.547C407.602 306.072 405.606 304.987 402.343 304.419Z" fill="black"/>
<path fill-rule="evenodd" clip-rule="evenodd" d="M427.25 295.771C429.755 295.372 432.108 297.079 432.506 299.584C432.506 299.583 432.506 299.583 432.506 299.583C432.506 299.583 432.51 299.609 432.522 299.672C432.535 299.738 432.552 299.825 432.574 299.935C432.619 300.156 432.678 300.442 432.751 300.792C432.837 301.199 432.937 301.67 433.05 302.199C433.132 302.585 433.221 303.002 433.316 303.449C433.761 305.548 434.318 308.213 434.823 310.855C435.324 313.474 435.792 316.171 436.041 318.305C436.163 319.346 436.253 320.423 436.234 321.35C436.225 321.79 436.19 322.426 436.027 323.09L436.023 323.103C435.933 323.472 435.467 325.377 433.505 326.409C431.261 327.591 428.484 326.729 427.303 324.485C426.678 323.298 426.625 321.962 427.045 320.792C427.03 320.464 426.992 319.995 426.919 319.369C426.711 317.58 426.295 315.151 425.803 312.579C425.316 310.031 424.774 307.439 424.332 305.354C424.251 304.971 424.171 304.595 424.094 304.234C423.778 302.751 423.514 301.512 423.437 301.027C423.038 298.522 424.746 296.169 427.25 295.771ZM427.049 321.236C427.049 321.236 427.049 321.229 427.051 321.216C427.05 321.23 427.049 321.236 427.049 321.236Z" fill="black"/>
<path fill-rule="evenodd" clip-rule="evenodd" d="M450.012 316.836C442.616 316.836 435.228 317.614 427.666 318.632C425.152 318.97 422.841 317.207 422.503 314.693C422.164 312.18 423.928 309.868 426.441 309.53C434.139 308.494 442.002 307.652 450.012 307.652C452.548 307.652 454.604 309.708 454.604 312.244C454.604 314.78 452.548 316.836 450.012 316.836Z" fill="black"/>
<path fill-rule="evenodd" clip-rule="evenodd" d="M448.336 293.939C450.837 293.52 453.204 295.208 453.623 297.709C455.166 306.92 456.429 316.236 457.338 325.574C457.584 328.098 455.737 330.343 453.213 330.589C450.689 330.835 448.443 328.988 448.198 326.463C447.311 317.355 446.077 308.248 444.566 299.226C444.147 296.725 445.835 294.358 448.336 293.939Z" fill="black"/>
<path fill-rule="evenodd" clip-rule="evenodd" d="M459.768 296.949C461.656 294.483 464.609 292.637 468.659 293.004C475.773 293.648 480.38 298.968 481.132 305.76C481.422 308.372 481.111 311.829 480.155 314.936C479.271 317.809 477.387 321.816 473.438 323.492C471.968 324.116 470.374 324.35 468.761 324.057C467.179 323.77 465.886 323.032 464.883 322.196C462.991 320.619 461.75 318.375 460.923 316.533C460.05 314.59 459.388 312.514 458.892 310.817C458.639 309.952 458.449 309.262 458.293 308.696C456.77 307.565 456.052 305.555 456.649 303.642C457.224 301.801 458.113 299.11 459.768 296.949ZM466.369 303.747C466.428 303.88 466.482 304.018 466.529 304.158C466.727 304.748 466.988 305.686 467.253 306.634C467.407 307.189 467.563 307.747 467.707 308.241C468.166 309.812 468.689 311.408 469.3 312.769C469.678 313.611 470.019 314.197 470.29 314.585C470.317 314.548 470.345 314.508 470.374 314.466C470.722 313.959 471.079 313.207 471.378 312.235C471.992 310.238 472.146 308.044 472.005 306.771C471.669 303.744 470.044 302.35 467.83 302.15C467.641 302.133 467.533 302.145 467.487 302.153C467.444 302.16 467.428 302.168 467.421 302.172L467.421 302.172C467.412 302.176 467.285 302.238 467.06 302.531C466.824 302.839 466.598 303.24 466.369 303.747Z" fill="black"/>
<path fill-rule="evenodd" clip-rule="evenodd" d="M503.867 290.405C507.419 291.026 510.68 293.012 513.014 295.626C516.643 299.691 516.541 305.283 515.514 309.426C514.462 313.667 512.07 318.045 508.879 320.627C505.98 322.972 501.668 324.374 497.696 324.162C495.643 324.052 493.385 323.495 491.413 322.102C489.358 320.65 487.911 318.493 487.314 315.794C485.529 307.733 488.205 301.292 491.811 295.828C492.01 295.088 492.398 294.387 492.975 293.802C493.226 293.548 493.482 293.308 493.744 293.084C494.418 292.181 495.361 291.597 496.379 291.36C498.79 290.21 501.415 289.977 503.867 290.405ZM500.317 299.66C496.821 304.595 495.16 308.747 496.28 313.809C496.403 314.363 496.593 314.517 496.712 314.601C496.914 314.744 497.368 314.948 498.186 314.991C499.955 315.086 502.019 314.364 503.103 313.487C504.349 312.479 505.894 310.066 506.6 307.215C507.332 304.266 506.81 302.467 506.163 301.742C505.043 300.487 503.572 299.677 502.286 299.452C501.52 299.318 500.876 299.386 500.317 299.66Z" fill="black"/>
<path fill-rule="evenodd" clip-rule="evenodd" d="M525.508 290.508C527.876 289.598 530.532 290.78 531.442 293.147C534.213 300.357 534.981 306.809 535.542 313.849C535.63 314.952 535.686 315.545 535.806 316.023C535.854 316.212 535.894 316.306 535.913 316.344C537.697 318.128 537.708 321.02 535.933 322.817C534.15 324.621 531.243 324.639 529.439 322.857C526.793 320.243 526.537 316.654 526.413 314.917C526.404 314.795 526.396 314.682 526.388 314.579C525.844 307.761 525.153 302.383 522.869 296.442C521.96 294.074 523.141 291.418 525.508 290.508ZM535.926 316.365C535.926 316.365 535.923 316.361 535.917 316.35C535.923 316.359 535.926 316.364 535.926 316.365Z" fill="black"/>
<path fill-rule="evenodd" clip-rule="evenodd" d="M523.57 297.57C524.066 295.083 526.484 293.469 528.971 293.964C532.748 294.717 539.793 296.275 544.722 299.35C547.18 300.884 549.959 303.313 550.794 306.995C551.681 310.905 550.05 314.617 547.211 317.85C543.23 322.384 538.074 325.009 532.37 325.957C529.868 326.372 527.503 324.681 527.088 322.179C526.672 319.678 528.363 317.313 530.865 316.897C534.671 316.265 537.852 314.59 540.31 311.791C541.206 310.77 541.59 310.04 541.746 309.601C541.882 309.218 541.846 309.062 541.839 309.029C541.838 309.029 541.838 309.028 541.838 309.027C541.807 308.889 541.525 308.18 539.861 307.142C536.545 305.073 531.096 303.752 527.176 302.971C524.689 302.475 523.074 300.057 523.57 297.57Z" fill="black"/>
<path fill-rule="evenodd" clip-rule="evenodd" d="M340.081 362.694C343.43 360.759 347.488 360.439 351.367 361.569C358.555 363.664 362.515 368.925 364.281 374.696C365.992 380.285 365.737 386.502 364.707 391.61C363.562 397.281 360.131 402.527 355.35 405.674C350.426 408.914 344.02 409.916 337.665 406.735C331.105 403.451 326.966 396.95 326.13 390.051C325.763 387.024 326.503 384.279 327.343 382.089C327.879 380.692 328.633 379.125 329.24 377.866C329.503 377.322 329.737 376.834 329.915 376.443C330.65 374.822 332.21 373.835 333.873 373.752C333.79 373.3 333.775 372.827 333.836 372.346C334.377 368.103 336.669 364.665 340.081 362.694ZM338.614 377.514C338.777 378.403 338.68 379.35 338.279 380.236C337.906 381.057 337.57 381.749 337.259 382.389C336.761 383.416 336.328 384.308 335.917 385.378C335.323 386.928 335.137 388.045 335.247 388.946C335.744 393.05 338.201 396.733 341.776 398.523C344.882 400.078 347.805 399.645 350.301 398.002C352.94 396.266 355.021 393.181 355.704 389.793C356.545 385.626 356.623 381.053 355.5 377.384C354.433 373.898 352.396 371.435 348.798 370.386C346.985 369.858 345.566 370.131 344.675 370.646C343.849 371.123 343.14 371.989 342.946 373.508C342.66 375.752 340.799 377.411 338.614 377.514Z" fill="black"/>
<path fill-rule="evenodd" clip-rule="evenodd" d="M417.058 362.855C419.031 364.449 419.339 367.34 417.746 369.313C417.246 369.932 417.146 370.223 417.12 370.318L417.119 370.321C417.106 370.37 417.053 370.567 417.189 371.122C418.422 376.144 419.742 381.633 419.706 387.549C419.695 389.3 419.67 392.978 418.541 395.896C417.957 397.406 416.784 399.494 414.404 400.588C411.894 401.742 409.306 401.229 407.185 400.212C402.302 397.871 398.453 394.056 395.258 390.374C393.859 388.762 392.514 387.088 391.252 385.517C391.064 385.283 390.877 385.051 390.693 384.822C389.241 383.019 387.899 381.377 386.556 379.926C386.559 379.929 386.548 379.918 386.524 379.894C386.391 379.76 385.856 379.221 385.038 378.433C384.725 378.131 384.382 377.804 384.018 377.463C384.006 379.502 383.885 381.517 383.683 383.524C383.651 383.838 383.615 384.205 383.574 384.612C383.347 386.914 382.991 390.51 382.601 393.32C382.392 394.826 382.111 396.608 381.718 397.762C381.628 398.024 381.394 398.691 380.917 399.348C380.684 399.668 380.125 400.365 379.141 400.847C377.929 401.441 376.427 401.521 375.06 400.868C373.948 400.337 373.352 399.521 373.108 399.146C372.829 398.716 372.665 398.317 372.573 398.068C372.388 397.567 372.281 397.07 372.213 396.7C371.844 394.686 371.935 392.533 372.064 390.834C372.133 389.922 372.204 389.195 372.267 388.55C372.346 387.754 372.411 387.084 372.445 386.347C372.706 380.613 373.009 374.886 373.32 369.173C373.423 367.274 374.666 365.708 376.349 365.101C376.84 364.682 377.421 364.353 378.072 364.147C379.293 363.759 380.362 363.928 380.923 364.058C382.039 364.316 383.014 364.881 383.61 365.254C384.946 366.091 386.455 367.324 387.755 368.457C390.4 370.76 393.004 373.372 393.299 373.69C394.879 375.399 396.398 377.264 397.846 379.063C398.039 379.302 398.23 379.54 398.42 379.776C399.691 381.358 400.918 382.884 402.194 384.355C404.868 387.437 407.455 389.905 410.26 391.467C410.315 391.156 410.363 390.799 410.402 390.399C410.497 389.423 410.517 388.415 410.522 387.493C410.55 382.871 409.526 378.427 408.27 373.312C407.834 371.535 407.765 369.74 408.253 367.93C408.727 366.169 409.636 364.739 410.601 363.543C412.194 361.57 415.085 361.262 417.058 362.855ZM409.88 392.791C409.88 392.79 409.885 392.78 409.897 392.762C409.887 392.782 409.881 392.791 409.88 392.791ZM411.507 392.074C411.511 392.074 411.513 392.075 411.513 392.075C411.513 392.075 411.511 392.075 411.507 392.074ZM383.554 370.212C383.554 370.212 383.554 370.214 383.553 370.22C383.553 370.214 383.554 370.211 383.554 370.212ZM381.263 395.126C381.263 395.126 381.262 395.122 381.26 395.114C381.262 395.121 381.263 395.125 381.263 395.126Z" fill="black"/>
<path fill-rule="evenodd" clip-rule="evenodd" d="M508.776 232.013C508.96 234.542 507.058 236.742 504.529 236.926C484.029 238.416 463.644 237.888 443.368 236.933C440.835 236.813 438.878 234.663 438.997 232.13C439.117 229.597 441.267 227.64 443.8 227.759C463.982 228.71 483.926 229.215 503.863 227.766C506.393 227.582 508.592 229.484 508.776 232.013Z" fill="black"/>
<path fill-rule="evenodd" clip-rule="evenodd" d="M481.583 251.595C469.793 250.115 458.068 250.76 445.74 251.62C443.21 251.796 441.016 249.889 440.839 247.359C440.663 244.829 442.571 242.635 445.101 242.459C457.404 241.6 469.947 240.878 482.727 242.483C485.243 242.799 487.027 245.095 486.711 247.611C486.395 250.128 484.099 251.911 481.583 251.595Z" fill="black"/>
<path fill-rule="evenodd" clip-rule="evenodd" d="M281.951 244.285C281.951 241.749 284.007 239.693 286.543 239.693H298.482C301.018 239.693 303.074 241.749 303.074 244.285C303.074 246.821 301.018 248.877 298.482 248.877H286.543C284.007 248.877 281.951 246.821 281.951 244.285Z" fill="black"/>
<path fill-rule="evenodd" clip-rule="evenodd" d="M302.069 253.497C302.561 255.984 300.943 258.4 298.455 258.892C298.058 258.971 297.661 259.049 297.263 259.128C290.944 260.379 284.534 261.649 278.027 262.604C275.518 262.973 273.185 261.237 272.817 258.728C272.449 256.219 274.184 253.886 276.693 253.518C282.965 252.597 289.166 251.369 295.537 250.108C295.915 250.033 296.294 249.958 296.673 249.883C299.161 249.391 301.577 251.009 302.069 253.497Z" fill="black"/>
</svg>
