<svg width="801" height="504" viewBox="0 0 801 504" fill="none" xmlns="http://www.w3.org/2000/svg">
<path fill-rule="evenodd" clip-rule="evenodd" d="M7.21581 28.6445C7.21581 12.8246 20.0404 0 35.8603 0H764.249C780.069 0 792.894 12.8246 792.894 28.6445V314.383C797.197 317.101 800.055 321.9 800.055 327.366V447.059C800.055 452.525 797.197 457.324 792.894 460.042V474.68C792.894 490.5 780.069 503.325 764.249 503.325H35.8603C20.0404 503.325 7.21581 490.5 7.21581 474.68V460.042C2.91266 457.324 0.0546875 452.525 0.0546875 447.059V327.366C0.0546875 321.9 2.91266 317.101 7.21581 314.383V28.6445ZM15.4 320.205C11.445 320.205 8.23883 323.411 8.23883 327.366V447.059C8.23883 451.014 11.445 454.22 15.4 454.22V474.68C15.4 485.98 24.5604 495.141 35.8603 495.141H764.249C775.549 495.141 784.709 485.98 784.709 474.68V454.22C788.664 454.22 791.871 451.014 791.871 447.059V327.366C791.871 323.411 788.664 320.205 784.709 320.205V28.6445C784.709 17.3446 775.549 8.18414 764.249 8.18414H35.8603C24.5604 8.18414 15.4 17.3446 15.4 28.6445V320.205Z" fill="#CCDDBD"/>
<path d="M15.4004 28.6439C15.4004 17.344 24.5608 8.18359 35.8607 8.18359H764.25C775.549 8.18359 784.71 17.344 784.71 28.644V474.68C784.71 485.98 775.549 495.14 764.25 495.14H35.8608C24.5608 495.14 15.4004 485.98 15.4004 474.68V28.6439Z" fill="#CCDDBD"/>
<path fill-rule="evenodd" clip-rule="evenodd" d="M14.6992 28.6447C14.6992 16.9582 24.173 7.48438 35.8596 7.48438H764.248C775.935 7.48438 785.409 16.9582 785.409 28.6447V474.681C785.409 486.367 775.935 495.841 764.248 495.841H35.8596C24.1731 495.841 14.6992 486.367 14.6992 474.681V28.6447ZM35.8596 8.88437C24.9462 8.88437 16.0992 17.7314 16.0992 28.6447V474.681C16.0992 485.594 24.9463 494.441 35.8596 494.441H764.248C775.162 494.441 784.009 485.594 784.009 474.681V28.6447C784.009 17.7314 775.162 8.88437 764.248 8.88437H35.8596Z" fill="black"/>
<path d="M80.5211 45.3639C82.056 43.829 84.1376 42.9668 86.3082 42.9668H713.799C715.97 42.9668 718.052 43.8291 719.586 45.3639L747.529 73.3063C749.064 74.8411 749.926 76.9228 749.926 79.0934V366.24C749.926 367.37 749.01 368.286 747.88 368.286H52.2277C51.0977 368.286 50.1816 367.37 50.1816 366.24V79.0934C50.1816 76.9228 51.0439 74.8411 52.5787 73.3063L80.5211 45.3639Z" fill="#CCDDBD"/>
<path fill-rule="evenodd" clip-rule="evenodd" d="M86.309 43.6676C84.3241 43.6676 82.4204 44.4561 81.0169 45.8596L53.0745 73.802C51.6709 75.2056 50.8824 77.1092 50.8824 79.0941V366.241C50.8824 366.985 51.4851 367.587 52.2284 367.587H747.881C748.624 367.587 749.227 366.985 749.227 366.241V79.0941C749.227 77.1092 748.438 75.2056 747.035 73.802L719.092 45.8596C717.689 44.4561 715.785 43.6676 713.8 43.6676H86.309ZM80.0269 44.8697C81.693 43.2036 83.9528 42.2676 86.309 42.2676H713.8C716.156 42.2676 718.416 43.2036 720.082 44.8697L748.025 72.8121C749.691 74.4782 750.627 76.7379 750.627 79.0941V366.241C750.627 367.758 749.397 368.987 747.881 368.987H52.2284C50.7119 368.987 49.4824 367.758 49.4824 366.241V79.0941C49.4824 76.7379 50.4184 74.4782 52.0845 72.8121L80.0269 44.8697Z" fill="black"/>
<path d="M83.5907 51.5025C85.1256 49.9677 87.2072 49.1055 89.3778 49.1055H710.731C712.901 49.1055 714.983 49.9677 716.518 51.5025L741.391 76.3759C742.926 77.9107 743.788 79.9924 743.788 82.163V360.103C743.788 361.233 742.872 362.149 741.742 362.149H58.3663C57.2363 362.149 56.3203 361.233 56.3203 360.103V82.163C56.3203 79.9924 57.1826 77.9107 58.7174 76.3759L83.5907 51.5025Z" fill="#CCDDBD"/>
<path fill-rule="evenodd" clip-rule="evenodd" d="M89.3786 49.8043C87.3937 49.8043 85.4901 50.5928 84.0865 51.9964L59.2131 76.8697C57.8096 78.2733 57.0211 80.1769 57.0211 82.1618V360.102C57.0211 360.845 57.6237 361.448 58.3671 361.448H741.743C742.487 361.448 743.089 360.845 743.089 360.102V82.1618C743.089 80.1769 742.301 78.2733 740.897 76.8697L716.024 51.9964C714.62 50.5928 712.717 49.8043 710.732 49.8043H89.3786ZM83.0966 51.0064C84.7627 49.3403 87.0224 48.4043 89.3786 48.4043H710.732C713.088 48.4043 715.348 49.3403 717.014 51.0064L741.887 75.8798C743.553 77.5459 744.489 79.8056 744.489 82.1618V360.102C744.489 361.618 743.26 362.848 741.743 362.848H58.3671C56.8505 362.848 55.6211 361.618 55.6211 360.102V82.1618C55.6211 79.8056 56.5571 77.5459 58.2232 75.8798L83.0966 51.0064Z" fill="black"/>
<path d="M176.014 228.133C176.014 194.233 203.495 166.752 237.395 166.752H560.668C594.568 166.752 622.049 194.233 622.049 228.133V228.133C622.049 262.033 594.568 289.514 560.668 289.514H237.395C203.495 289.514 176.014 262.033 176.014 228.133V228.133Z" fill="#CCDDBD"/>
<path fill-rule="evenodd" clip-rule="evenodd" d="M175.314 228.134C175.314 193.847 203.109 166.053 237.396 166.053H560.669C594.956 166.053 622.75 193.847 622.75 228.134C622.75 262.42 594.956 290.215 560.669 290.215H237.396C203.109 290.215 175.314 262.42 175.314 228.134ZM237.396 167.453C203.882 167.453 176.714 194.621 176.714 228.134C176.714 261.647 203.882 288.815 237.396 288.815H560.669C594.182 288.815 621.35 261.647 621.35 228.134C621.35 194.621 594.182 167.453 560.669 167.453H237.396Z" fill="black"/>
<path d="M154.166 387.032C154.975 383.258 158.309 380.562 162.169 380.562H635.893C639.752 380.562 643.087 383.258 643.895 387.032L667.061 495.141H131L154.166 387.032Z" fill="#CCDDBD"/>
<path fill-rule="evenodd" clip-rule="evenodd" d="M153.482 386.886C154.36 382.79 157.98 379.863 162.169 379.863H635.893C640.083 379.863 643.703 382.79 644.58 386.886L667.928 495.841H130.135L153.482 386.886ZM162.169 381.263C158.64 381.263 155.591 383.729 154.851 387.179L131.867 494.441H666.196L643.211 387.179C642.472 383.729 639.422 381.263 635.893 381.263H162.169Z" fill="black"/>
<path d="M182.152 228.134C182.152 197.624 206.885 172.891 237.395 172.891H560.669C591.179 172.891 615.912 197.624 615.912 228.134V228.134C615.912 258.643 591.179 283.377 560.669 283.377H237.395C206.885 283.377 182.152 258.643 182.152 228.134V228.134Z" fill="#CCDDBD"/>
<path fill-rule="evenodd" clip-rule="evenodd" d="M181.451 228.132C181.451 197.236 206.498 172.189 237.394 172.189H560.668C591.564 172.189 616.611 197.236 616.611 228.132C616.611 259.029 591.564 284.075 560.668 284.075H237.394C206.498 284.075 181.451 259.029 181.451 228.132ZM237.394 173.589C207.271 173.589 182.851 198.009 182.851 228.132C182.851 258.256 207.271 282.675 237.394 282.675H560.668C590.791 282.675 615.211 258.256 615.211 228.132C615.211 198.009 590.791 173.589 560.668 173.589H237.394Z" fill="black"/>
<path d="M318.213 188.235C318.213 186.54 319.587 185.166 321.282 185.166H476.781C478.476 185.166 479.85 186.54 479.85 188.235V232.225C479.85 233.92 478.476 235.294 476.781 235.294H321.282C319.587 235.294 318.213 233.92 318.213 232.225V188.235Z" fill="#CCDDBD"/>
<path fill-rule="evenodd" clip-rule="evenodd" d="M317.514 188.236C317.514 186.154 319.201 184.467 321.283 184.467H476.781C478.863 184.467 480.551 186.154 480.551 188.236V232.226C480.551 234.307 478.863 235.995 476.781 235.995H321.283C319.201 235.995 317.514 234.307 317.514 232.226V188.236ZM321.283 185.867C319.974 185.867 318.914 186.927 318.914 188.236V232.226C318.914 233.534 319.974 234.595 321.283 234.595H476.781C478.09 234.595 479.151 233.534 479.151 232.226V188.236C479.151 186.927 478.09 185.867 476.781 185.867H321.283Z" fill="black"/>
<path d="M784.709 320.205L-nan -nanC-nan -nan -nan -nan -nan -nanL784.709 320.205C-nan -nan -nan -nan 791.87 327.366V327.366V447.059C791.87 451.014 788.664 454.22 784.709 454.22C-nan -nan -nan -nan 784.709 454.22L-nan -nanC-nan -nan -nan -nan -nan -nanL784.709 454.22V320.205Z" fill="#CCDDBD"/>
<path fill-rule="evenodd" clip-rule="evenodd" d="M785.41 320.941V453.482C788.649 453.133 791.171 450.39 791.171 447.058V327.365C791.171 324.033 788.649 321.29 785.41 320.941ZM784.71 454.219V454.919C789.051 454.919 792.571 451.4 792.571 447.058V327.365C792.571 323.023 789.051 319.504 784.71 319.504V320.204H784.01V454.219H784.71Z" fill="black"/>
<path d="M8.23828 327.366V327.366C-nan -nan -nan -nan 15.3994 320.205L-nan -nanC-nan -nan -nan -nan -nan -nanL15.3994 320.205V454.22L-nan -nanC-nan -nan -nan -nan -nan -nanL15.3994 454.22C-nan -nan -nan -nan 8.23828 447.059V447.059V327.366Z" fill="#CCDDBD"/>
<path fill-rule="evenodd" clip-rule="evenodd" d="M7.53906 327.365C7.53906 323.023 11.0586 319.504 15.4002 319.504V320.204H16.1002V454.219H15.4002V454.919C11.0586 454.919 7.53906 451.4 7.53906 447.058V327.365ZM14.7002 453.482V320.941C11.461 321.29 8.93906 324.033 8.93906 327.365V447.058C8.93906 450.39 11.461 453.133 14.7002 453.482Z" fill="black"/>
<path d="M286.499 228.132C286.499 255.252 264.514 277.237 237.394 277.237C210.274 277.237 188.289 255.252 188.289 228.132C188.289 201.012 210.274 179.027 237.394 179.027C264.514 179.027 286.499 201.012 286.499 228.132Z" fill="#CCDDBD"/>
<path fill-rule="evenodd" clip-rule="evenodd" d="M237.395 179.728C210.661 179.728 188.99 201.4 188.99 228.133C188.99 254.866 210.661 276.538 237.395 276.538C264.128 276.538 285.8 254.866 285.8 228.133C285.8 201.4 264.128 179.728 237.395 179.728ZM187.59 228.133C187.59 200.627 209.888 178.328 237.395 178.328C264.901 178.328 287.2 200.627 287.2 228.133C287.2 255.639 264.901 277.938 237.395 277.938C209.888 277.938 187.59 255.639 187.59 228.133Z" fill="black"/>
<path fill-rule="evenodd" clip-rule="evenodd" d="M336.373 235.294C336.541 232.929 336.627 230.541 336.627 228.133C336.627 212.741 333.123 198.167 326.868 185.166H321.282C319.587 185.166 318.213 186.54 318.213 188.235V232.225C318.213 233.92 319.587 235.294 321.282 235.294H336.373Z" fill="#CCDDBD"/>
<path fill-rule="evenodd" clip-rule="evenodd" d="M317.514 188.236C317.514 186.154 319.201 184.467 321.283 184.467H327.309L327.5 184.863C333.799 197.957 337.328 212.634 337.328 228.134C337.328 230.558 337.242 232.963 337.072 235.344L337.025 235.995H321.283C319.201 235.995 317.514 234.307 317.514 232.226V188.236ZM321.283 185.867C319.974 185.867 318.914 186.927 318.914 188.236V232.226C318.914 233.534 319.974 234.595 321.283 234.595H335.72C335.858 232.459 335.928 230.304 335.928 228.134C335.928 213.005 332.519 198.675 326.428 185.867H321.283Z" fill="black"/>
<path d="M609.774 228.132C609.774 255.252 587.789 277.237 560.669 277.237C533.549 277.237 511.564 255.252 511.564 228.132C511.564 201.012 533.549 179.027 560.669 179.027C587.789 179.027 609.774 201.012 609.774 228.132Z" fill="#CCDDBD"/>
<path fill-rule="evenodd" clip-rule="evenodd" d="M560.668 179.728C533.935 179.728 512.263 201.4 512.263 228.133C512.263 254.866 533.935 276.538 560.668 276.538C587.401 276.538 609.073 254.866 609.073 228.133C609.073 201.4 587.401 179.728 560.668 179.728ZM510.863 228.133C510.863 200.627 533.162 178.328 560.668 178.328C588.175 178.328 610.473 200.627 610.473 228.133C610.473 255.639 588.175 277.938 560.668 277.938C533.162 277.938 510.863 255.639 510.863 228.133Z" fill="black"/>
<path fill-rule="evenodd" clip-rule="evenodd" d="M381.781 235.294C381.688 232.918 381.641 230.531 381.641 228.133C381.641 213.322 383.439 198.931 386.83 185.166H476.781C478.476 185.166 479.85 186.54 479.85 188.235V232.225C479.85 233.92 478.476 235.294 476.781 235.294H381.781Z" fill="#CCDDBD"/>
<path fill-rule="evenodd" clip-rule="evenodd" d="M386.28 184.467H476.78C478.862 184.467 480.549 186.154 480.549 188.236V232.226C480.549 234.307 478.862 235.995 476.78 235.995H381.107L381.081 235.322C380.987 232.938 380.939 230.541 380.939 228.134C380.939 213.266 382.745 198.818 386.149 184.999L386.28 184.467ZM387.378 185.867C384.085 199.415 382.339 213.57 382.339 228.134C382.339 230.296 382.378 232.45 382.454 234.595H476.78C478.089 234.595 479.149 233.534 479.149 232.226V188.236C479.149 186.927 478.089 185.867 476.78 185.867H387.378Z" fill="black"/>
<path fill-rule="evenodd" clip-rule="evenodd" d="M560.668 271.1C584.398 271.1 603.635 251.863 603.635 228.133C603.635 204.403 584.398 185.166 560.668 185.166C536.938 185.166 517.701 204.403 517.701 228.133C517.701 251.863 536.938 271.1 560.668 271.1ZM593.029 240.91C594.592 236.954 595.451 232.644 595.451 228.133C595.451 223.622 594.592 219.311 593.029 215.356L584.488 220.286L579.373 211.427L587.907 206.5C582.538 199.749 574.713 195.04 565.783 193.724V203.58H555.553V193.724C546.623 195.04 538.798 199.749 533.429 206.5L541.962 211.427L536.847 220.286L528.307 215.356C526.744 219.311 525.885 223.622 525.885 228.133C525.885 232.644 526.744 236.954 528.307 240.91L536.847 235.979L541.962 244.839L533.429 249.765C538.798 256.516 546.623 261.226 555.553 262.542V252.685H565.783V262.542C574.713 261.226 582.538 256.516 587.907 249.765L579.373 244.839L584.488 235.979L593.029 240.91Z" fill="#CCDDBD"/>
<path fill-rule="evenodd" clip-rule="evenodd" d="M560.669 185.867C537.325 185.867 518.402 204.79 518.402 228.134C518.402 251.477 537.325 270.4 560.669 270.4C584.012 270.4 602.935 251.477 602.935 228.134C602.935 204.79 584.012 185.867 560.669 185.867ZM517.002 228.134C517.002 204.017 536.552 184.467 560.669 184.467C584.785 184.467 604.335 204.017 604.335 228.134C604.335 252.25 584.785 271.8 560.669 271.8C536.552 271.8 517.002 252.25 517.002 228.134ZM565.084 192.914L565.886 193.032C574.997 194.375 582.98 199.18 588.455 206.065L588.961 206.701L580.33 211.684L584.745 219.331L593.382 214.344L593.68 215.099C595.275 219.135 596.151 223.533 596.151 228.134C596.151 232.734 595.275 237.132 593.68 241.168L593.382 241.923L584.745 236.936L580.33 244.583L588.961 249.566L588.455 250.202C582.98 257.087 574.997 261.892 565.886 263.235L565.084 263.353V253.386H556.254V263.353L555.452 263.235C546.34 261.892 538.358 257.087 532.882 250.202L532.376 249.566L541.007 244.583L536.592 236.936L527.955 241.923L527.657 241.168C526.062 237.132 525.186 232.734 525.186 228.134C525.186 223.533 526.062 219.135 527.657 215.099L527.955 214.344L536.592 219.331L541.007 211.684L532.376 206.701L532.882 206.065C538.358 199.18 546.34 194.375 555.452 193.032L556.254 192.914V202.881H565.084V192.914ZM566.484 194.545V204.281H554.854V194.545C546.718 195.943 539.567 200.226 534.492 206.306L542.919 211.171L537.104 221.243L528.669 216.373C527.322 220.038 526.586 223.999 526.586 228.134C526.586 232.268 527.322 236.229 528.669 239.894L537.104 235.024L542.919 245.096L534.492 249.961C539.567 256.041 546.718 260.324 554.854 261.722V251.986H566.484V261.722C574.62 260.324 581.771 256.041 586.846 249.961L578.418 245.096L584.233 235.024L592.668 239.894C594.015 236.229 594.751 232.268 594.751 228.134C594.751 223.999 594.015 220.038 592.668 216.373L584.233 221.243L578.418 211.171L586.846 206.306C581.771 200.226 574.62 195.943 566.484 194.545Z" fill="black"/>
<path fill-rule="evenodd" clip-rule="evenodd" d="M237.394 271.1C261.124 271.1 280.361 251.863 280.361 228.133C280.361 204.403 261.124 185.166 237.394 185.166C213.665 185.166 194.428 204.403 194.428 228.133C194.428 251.863 213.665 271.1 237.394 271.1ZM269.755 240.91C271.318 236.954 272.177 232.644 272.177 228.133C272.177 223.622 271.318 219.311 269.755 215.356L261.215 220.286L256.1 211.427L264.633 206.5C259.265 199.749 251.439 195.04 242.51 193.724V203.58H232.279V193.724C223.35 195.04 215.524 199.749 210.156 206.5L218.689 211.427L213.574 220.286L205.034 215.356C203.471 219.311 202.612 223.622 202.612 228.133C202.612 232.644 203.471 236.954 205.034 240.91L213.574 235.979L218.689 244.839L210.156 249.765C215.524 256.516 223.35 261.226 232.279 262.542V252.685H242.51V262.542C251.439 261.226 259.265 256.516 264.633 249.765L256.1 244.839L261.215 235.979L269.755 240.91Z" fill="#CCDDBD"/>
<path fill-rule="evenodd" clip-rule="evenodd" d="M237.395 185.867C214.052 185.867 195.129 204.79 195.129 228.134C195.129 251.477 214.052 270.4 237.395 270.4C260.739 270.4 279.662 251.477 279.662 228.134C279.662 204.79 260.739 185.867 237.395 185.867ZM193.729 228.134C193.729 204.017 213.279 184.467 237.395 184.467C261.512 184.467 281.062 204.017 281.062 228.134C281.062 252.25 261.512 271.8 237.395 271.8C213.279 271.8 193.729 252.25 193.729 228.134ZM241.81 192.914L242.612 193.032C251.724 194.375 259.706 199.18 265.182 206.065L265.688 206.701L257.057 211.684L261.472 219.331L270.109 214.344L270.407 215.099C272.002 219.135 272.878 223.533 272.878 228.134C272.878 232.734 272.002 237.132 270.407 241.168L270.109 241.923L261.472 236.936L257.057 244.583L265.688 249.566L265.182 250.202C259.706 257.087 251.724 261.892 242.612 263.235L241.81 263.353V253.386H232.98V263.353L232.178 263.235C223.067 261.892 215.084 257.087 209.609 250.202L209.103 249.566L217.734 244.583L213.318 236.936L204.682 241.923L204.383 241.168C202.789 237.132 201.913 232.734 201.913 228.134C201.913 223.533 202.789 219.135 204.383 215.099L204.682 214.344L213.318 219.331L217.734 211.684L209.103 206.701L209.609 206.065C215.084 199.18 223.067 194.375 232.178 193.032L232.98 192.914V202.881H241.81V192.914ZM243.21 194.545V204.281H231.58V194.545C223.444 195.943 216.293 200.226 211.218 206.306L219.646 211.171L213.831 221.243L205.396 216.373C204.048 220.038 203.313 223.999 203.313 228.134C203.313 232.268 204.048 236.229 205.396 239.894L213.831 235.024L219.646 245.096L211.218 249.961C216.293 256.041 223.444 260.324 231.58 261.722V251.986H243.21V261.722C251.346 260.324 258.497 256.041 263.572 249.961L255.145 245.096L260.96 235.024L269.395 239.894C270.742 236.229 271.478 232.268 271.478 228.134C271.478 223.999 270.742 220.038 269.395 216.373L260.96 221.243L255.145 211.171L263.572 206.306C258.497 200.226 251.346 195.943 243.21 194.545Z" fill="black"/>
<path d="M234.327 469.565C234.327 479.735 226.082 487.979 215.912 487.979C205.742 487.979 197.498 479.735 197.498 469.565C197.498 459.395 205.742 451.15 215.912 451.15C226.082 451.15 234.327 459.395 234.327 469.565Z" fill="#CCDDBD"/>
<path fill-rule="evenodd" clip-rule="evenodd" d="M215.912 486.579C225.309 486.579 232.927 478.961 232.927 469.565C232.927 460.168 225.309 452.55 215.912 452.55C206.516 452.55 198.898 460.168 198.898 469.565C198.898 478.961 206.516 486.579 215.912 486.579ZM215.912 487.979C226.082 487.979 234.327 479.735 234.327 469.565C234.327 459.395 226.082 451.15 215.912 451.15C205.742 451.15 197.498 459.395 197.498 469.565C197.498 479.735 205.742 487.979 215.912 487.979Z" fill="black"/>
<path d="M602.612 469.565C602.612 479.735 594.367 487.979 584.198 487.979C574.028 487.979 565.783 479.735 565.783 469.565C565.783 459.395 574.028 451.15 584.198 451.15C594.367 451.15 602.612 459.395 602.612 469.565Z" fill="#CCDDBD"/>
<path fill-rule="evenodd" clip-rule="evenodd" d="M584.198 486.579C593.594 486.579 601.212 478.961 601.212 469.565C601.212 460.168 593.594 452.55 584.198 452.55C574.801 452.55 567.183 460.168 567.183 469.565C567.183 478.961 574.801 486.579 584.198 486.579ZM584.198 487.979C594.367 487.979 602.612 479.735 602.612 469.565C602.612 459.395 594.367 451.15 584.198 451.15C574.028 451.15 565.783 459.395 565.783 469.565C565.783 479.735 574.028 487.979 584.198 487.979Z" fill="black"/>
<path d="M275.246 455.244C275.246 449.594 279.826 445.014 285.476 445.014H297.753C303.402 445.014 307.983 449.594 307.983 455.244V463.428C307.983 469.078 303.402 473.658 297.753 473.658H285.476C279.826 473.658 275.246 469.078 275.246 463.428V455.244Z" fill="#CCDDBD"/>
<path fill-rule="evenodd" clip-rule="evenodd" d="M297.753 446.414H285.476C280.6 446.414 276.646 450.367 276.646 455.244V463.428C276.646 468.305 280.6 472.258 285.476 472.258H297.753C302.629 472.258 306.583 468.305 306.583 463.428V455.244C306.583 450.367 302.629 446.414 297.753 446.414ZM285.476 445.014C279.826 445.014 275.246 449.594 275.246 455.244V463.428C275.246 469.078 279.826 473.658 285.476 473.658H297.753C303.402 473.658 307.983 469.078 307.983 463.428V455.244C307.983 449.594 303.402 445.014 297.753 445.014H285.476Z" fill="black"/>
<path d="M492.127 455.244C492.127 449.594 496.707 445.014 502.357 445.014H514.633C520.283 445.014 524.864 449.594 524.864 455.244V463.428C524.864 469.078 520.283 473.658 514.633 473.658H502.357C496.707 473.658 492.127 469.078 492.127 463.428V455.244Z" fill="#CCDDBD"/>
<path fill-rule="evenodd" clip-rule="evenodd" d="M514.633 446.414H502.357C497.48 446.414 493.527 450.367 493.527 455.244V463.428C493.527 468.305 497.48 472.258 502.357 472.258H514.633C519.51 472.258 523.464 468.305 523.464 463.428V455.244C523.464 450.367 519.51 446.414 514.633 446.414ZM502.357 445.014C496.707 445.014 492.127 449.594 492.127 455.244V463.428C492.127 469.078 496.707 473.658 502.357 473.658H514.633C520.283 473.658 524.864 469.078 524.864 463.428V455.244C524.864 449.594 520.283 445.014 514.633 445.014H502.357Z" fill="black"/>
<path fill-rule="evenodd" clip-rule="evenodd" d="M170.732 80.5239C170.449 81.1298 169.997 82.0724 169.461 82.7742C168.947 83.4478 168.145 84.2224 166.972 84.6783C165.737 85.1583 164.504 85.1239 163.465 84.8186C161.701 84.3 160.56 83.0281 160.031 82.3897C158.813 80.9178 157.713 78.7997 156.869 77.0945C156.622 76.596 156.393 76.1235 156.176 75.6729C156.145 75.746 156.114 75.8177 156.083 75.8866C155.256 77.7277 154.455 79.6955 153.626 81.7303C151.813 86.1819 149.87 90.9545 147.247 95.4246C145.96 97.6175 143.139 98.3521 140.946 97.0654C138.754 95.7788 138.019 92.9581 139.306 90.7652C141.602 86.8511 143.104 83.1473 144.758 79.0663C145.641 76.8869 146.568 74.6 147.683 72.1161C147.69 72.1002 147.715 72.037 147.756 71.9355C148.003 71.3101 148.827 69.2318 149.576 67.8362C150.062 66.9311 150.778 65.7552 151.769 64.7862C152.729 63.8479 154.662 62.4408 157.315 62.8642C158.733 63.0904 159.675 63.858 160.083 64.2276C160.562 64.6611 160.93 65.1283 161.188 65.4861C161.708 66.2087 162.186 67.0647 162.591 67.8376C163.075 68.7619 163.647 69.9557 164.193 71.0939C164.293 71.3032 164.393 71.5106 164.491 71.7141C165.026 70.4259 165.605 69.0387 166.168 67.7317C167.146 65.4605 168.222 63.0869 169.229 61.3136C169.706 60.4729 170.329 59.4733 171.076 58.6785C171.432 58.2994 172.088 57.6687 173.039 57.2394C174.133 56.7459 175.861 56.4478 177.586 57.407C178.857 58.1134 179.599 59.1567 179.98 59.7777C180.4 60.4636 180.698 61.167 180.903 61.7105C181.114 62.2717 181.284 62.8155 181.405 63.2143C181.436 63.3156 181.46 63.3967 181.482 63.4693C181.51 63.5623 181.534 63.6413 181.562 63.7305C181.583 63.7985 181.599 63.8503 181.612 63.8905C181.618 63.9102 181.623 63.9248 181.627 63.9352C181.63 63.9439 181.631 63.9483 181.632 63.949C181.632 63.949 181.632 63.9491 181.632 63.9491C182.055 65.1256 182.449 66.2558 182.833 67.3594C183.568 69.4689 184.269 71.4815 185.079 73.5356C186.368 76.8034 187.928 79.5533 190.002 82.4877C191.47 84.5639 190.976 87.4366 188.9 88.9042C186.824 90.3717 183.951 89.8783 182.484 87.8021C180.063 84.3768 178.118 80.9815 176.514 76.9132C175.822 75.1589 175.17 73.3379 174.546 71.556C173.979 72.8741 173.439 74.1747 172.918 75.428C172.567 76.2725 172.225 77.0956 171.89 77.888C171.48 78.8576 171.084 79.7716 170.732 80.5239ZM167.228 76.6317C167.228 76.6343 167.206 76.6146 167.163 76.5649C167.206 76.6044 167.228 76.6292 167.228 76.6317ZM153.691 70.8337C153.691 70.8335 153.695 70.8374 153.701 70.8457C153.695 70.8381 153.692 70.8339 153.691 70.8337Z" fill="black"/>
<path fill-rule="evenodd" clip-rule="evenodd" d="M217.027 61.0078C219.494 61.6248 220.993 64.1245 220.376 66.5909C219.824 68.7971 218.965 72.1368 217.702 75.3192C216.519 78.3 214.64 82.0681 211.574 84.2743C210.605 84.9716 209.268 85.5283 207.686 85.406C206.151 85.2873 205.001 84.5761 204.267 83.9331C202.957 82.786 202.234 81.218 201.859 80.3083C201.418 79.2396 201.091 78.1295 200.867 77.303C200.763 76.92 200.672 76.5662 200.603 76.2939C200.596 76.2662 200.589 76.2393 200.582 76.2133C200.51 75.9293 200.48 75.822 200.473 75.7963C200.472 75.7911 200.472 75.7892 200.472 75.79C199.632 73.1321 198.575 71.0886 196.892 68.8635C195.359 66.8353 195.76 63.9482 197.789 62.415C199.817 60.8817 202.704 61.2829 204.237 63.3111C206.39 66.1584 207.876 68.9396 209.005 72.2656C209.051 72.1536 209.098 72.0394 209.144 71.9231C210.16 69.3633 210.895 66.5505 211.444 64.3567C212.061 61.8902 214.561 60.3909 217.027 61.0078ZM210.622 77.3184C210.622 77.3186 210.619 77.3139 210.613 77.3038C210.619 77.3131 210.623 77.3182 210.622 77.3184Z" fill="black"/>
<path fill-rule="evenodd" clip-rule="evenodd" d="M206.294 77.4652C208.711 76.6756 211.31 77.9946 212.1 80.4114C212.578 81.8754 212.735 83.5352 212.792 84.9621C212.852 86.4624 212.811 88.0755 212.739 89.5998C212.672 91.024 212.587 92.293 212.512 93.4173C212.411 94.9259 212.327 96.1739 212.327 97.1864C212.327 99.7289 210.266 101.79 207.724 101.79C205.181 101.79 203.12 99.7289 203.12 97.1864C203.12 95.9414 203.239 94.0997 203.358 92.2698C203.428 91.1894 203.497 90.1131 203.542 89.1661C203.609 87.7473 203.637 86.4391 203.592 85.329C203.545 84.1456 203.425 83.506 203.348 83.2709C202.558 80.8541 203.877 78.2548 206.294 77.4652Z" fill="black"/>
<path fill-rule="evenodd" clip-rule="evenodd" d="M257.19 68.0673C258.582 70.1946 257.986 73.0479 255.859 74.4403C253.025 76.2953 251.617 78.6246 251.286 80.7438C250.967 82.784 251.544 85.2425 253.917 87.7236C256.638 90.5688 258.769 91.4424 260.554 91.5486C262.465 91.6623 264.934 90.9584 268.408 88.722C268.751 88.5009 269.373 88 270.032 87.2887C270.468 86.8186 270.838 86.345 271.12 85.91C271.053 85.9315 270.982 85.956 270.906 85.984C270.043 86.3023 269.087 86.8968 268.291 87.5381C266.312 89.1331 263.413 88.821 261.818 86.8411C260.223 84.8611 260.535 81.963 262.515 80.368C263.818 79.3191 265.64 78.1128 267.72 77.3458C269.753 76.5957 272.627 76.0579 275.516 77.2866C277.984 78.3355 279.991 80.2114 280.654 82.9701C281.249 85.4481 280.523 87.7303 279.764 89.2969C278.261 92.3998 275.445 95.1416 273.392 96.4635C269.162 99.1867 264.709 101.019 260.007 100.739C255.179 100.452 251.007 98.0022 247.263 94.087C243.149 89.7858 241.375 84.5245 242.189 79.3213C242.99 74.197 246.199 69.7591 250.817 66.7366C252.944 65.3442 255.797 65.94 257.19 68.0673ZM271.666 84.7868C271.666 84.7838 271.666 84.7823 271.666 84.7823C271.666 84.7823 271.666 84.7838 271.666 84.7868Z" fill="black"/>
<path fill-rule="evenodd" clip-rule="evenodd" d="M296.841 79.6978C296.113 82.1383 295.423 84.5901 294.786 87.0353C294.73 87.2476 294.666 87.5891 294.574 88.1738C294.555 88.2943 294.534 88.4279 294.513 88.5708C294.442 89.0281 294.357 89.5808 294.263 90.1033C294.045 91.3053 293.607 93.5054 292.307 95.2481C291.93 95.7531 290.495 97.3787 288.03 97.0617C285.977 96.7978 284.983 95.3387 284.813 95.0892L284.812 95.0876C284.507 94.6401 284.354 94.2422 284.3 94.0964C284.229 93.9063 284.185 93.7492 284.162 93.658C284.086 93.3689 284.055 93.1272 284.05 93.0871L284.049 93.0829C284.031 92.9442 284.021 92.8249 284.018 92.7865L284.018 92.7858C284.01 92.6774 284.003 92.5596 283.998 92.4636C283.987 92.2578 283.976 91.997 283.967 91.7413C283.957 91.4855 283.949 91.2101 283.945 90.9763C283.943 90.8619 283.941 90.7358 283.942 90.6178C283.942 90.56 283.943 90.4814 283.946 90.3952L283.946 90.3902C283.947 90.3403 283.955 90.1278 283.989 89.8762C284.774 84.1553 287.051 78.5086 289.001 73.6732C289.083 73.4694 289.165 73.267 289.246 73.0662C289.46 72.3913 289.718 71.7155 290.04 71.0715C290.107 70.9013 290.173 70.7324 290.237 70.565C290.675 69.4307 291.513 68.5689 292.528 68.0786C293.04 67.7255 293.632 67.4283 294.313 67.2343C297.718 66.2633 300.22 68.5417 301.088 69.4325C303.208 71.6058 304.905 75.1862 305.625 76.7274C306.227 78.0148 306.786 79.4423 307.295 80.7407C307.386 80.9729 307.475 81.201 307.563 81.4235C308.174 82.9719 308.747 84.364 309.396 85.6087C310.72 88.1501 311.955 89.2931 313.345 89.6925C315.789 90.3944 317.201 92.9444 316.499 95.3881C315.797 97.8318 313.247 99.2437 310.803 98.5418C305.795 97.1032 302.984 93.2299 301.23 89.8626C300.339 88.153 299.616 86.3676 298.998 84.8011C298.895 84.5393 298.795 84.2852 298.698 84.0384C298.185 82.7305 297.751 81.6238 297.284 80.6258C297.15 80.3377 297.001 80.0246 296.841 79.6978Z" fill="black"/>
<path fill-rule="evenodd" clip-rule="evenodd" d="M315.569 80.9506C316.06 83.4451 314.437 85.8658 311.942 86.3575C309.92 86.756 307.844 87.0149 305.882 87.2409C305.484 87.2867 305.093 87.331 304.706 87.3748C303.131 87.5532 301.635 87.7225 300.145 87.9446C296.424 88.4993 293.41 89.3026 291.034 90.8292C288.894 92.2033 286.046 91.5831 284.672 89.4439C283.298 87.3048 283.918 84.4567 286.057 83.0826C290.104 80.4832 294.688 79.4492 298.787 78.8381C300.454 78.5896 302.152 78.3976 303.74 78.218C304.109 78.1763 304.472 78.1352 304.828 78.0942C306.768 77.8708 308.529 77.6459 310.162 77.3241C312.656 76.8325 315.077 78.4561 315.569 80.9506Z" fill="black"/>
<path fill-rule="evenodd" clip-rule="evenodd" d="M329.225 68.0376C331.764 67.9051 333.93 69.856 334.062 72.395C334.159 74.2425 334.165 76.2256 334.166 78.1486C334.166 78.2812 334.166 78.4135 334.166 78.5457C334.167 80.3714 334.168 82.1623 334.228 83.9322C334.36 87.8153 334.772 91.0189 335.755 93.357C336.74 95.7008 335.639 98.3996 333.295 99.3851C330.952 100.371 328.253 99.2694 327.267 96.9256C325.597 92.9533 325.165 88.3259 325.026 84.2446C324.961 82.3136 324.96 80.3747 324.959 78.5793C324.959 78.4369 324.959 78.2953 324.959 78.1547C324.957 76.2022 324.95 74.4496 324.868 72.8749C324.735 70.3359 326.686 68.1701 329.225 68.0376Z" fill="black"/>
<path fill-rule="evenodd" clip-rule="evenodd" d="M332.315 75.8275C332.331 75.8289 332.347 75.8303 332.361 75.8316C332.698 75.8616 332.886 75.8815 333.022 75.896C333.151 75.9097 333.234 75.9185 333.353 75.9263C335.726 76.0813 337.631 75.7269 339.025 74.8528C339.262 74.704 339.726 74.3654 340.276 73.8701C340.816 73.3829 341.333 72.8396 341.731 72.3172C341.774 72.2606 341.815 72.2057 341.853 72.1526C341.838 72.1505 341.823 72.1485 341.808 72.1466C341.145 72.0619 340.023 72.1908 338.426 72.7509C336.304 73.4948 334.113 74.7131 332.315 75.8275ZM326.522 78.0344C325.37 77.8056 324.305 77.139 323.598 76.0877C322.18 73.9778 322.74 71.1174 324.85 69.6987C326.726 68.4368 330.952 65.6144 335.38 64.0622C337.583 63.2896 340.275 62.6689 342.974 63.0135C345.92 63.3896 348.697 64.9122 350.491 67.9478C351.732 70.0469 351.633 72.2372 351.159 73.8947C350.706 75.4829 349.85 76.8531 349.056 77.8952C348.132 79.1096 347.026 80.2206 345.976 81.116C347.821 81.4552 349.701 81.8277 351.292 82.2703C353.933 83.0049 356.781 84.1436 359.367 85.1774C360.372 85.5793 361.338 85.9654 362.236 86.3057C365.745 87.6345 368.718 88.4914 371.408 88.4914C373.951 88.4914 376.012 90.5524 376.012 93.0949C376.012 95.6374 373.951 97.6985 371.408 97.6985C366.946 97.6985 362.651 96.3081 358.975 94.9159C357.7 94.4329 356.522 93.9613 355.406 93.5146C353.044 92.5688 350.96 91.7347 348.825 91.1408C347.165 90.6791 345.44 90.3727 343.449 90.0189C342.24 89.804 340.933 89.5716 339.482 89.2765C336.048 88.578 332.001 87.5395 328.698 85.3346C328.294 85.0645 327.827 84.7251 327.403 84.3176L327.399 84.314C327.138 84.0623 326.138 83.1008 325.838 81.5235C325.651 80.5389 325.754 79.3753 326.368 78.2889C326.417 78.2007 326.469 78.1159 326.522 78.0344Z" fill="black"/>
<path fill-rule="evenodd" clip-rule="evenodd" d="M383.515 75.5038C383.439 76.3707 383.351 77.2525 383.242 78.037C382.967 80.0069 382.597 81.941 382.252 83.7465L382.233 83.8459C381.876 85.718 381.545 87.4572 381.306 89.1925C381.243 89.6522 381.192 90.0121 381.153 90.274C381.152 90.2823 381.151 90.2928 381.149 90.3051C381.128 90.449 381.069 90.8482 380.99 91.158L380.988 91.1633C380.974 91.2186 380.907 91.4827 380.777 91.7952C380.775 91.798 380.774 91.8013 380.772 91.8051C380.727 91.9145 380.503 92.4567 380.03 93.0117C379.711 93.3502 378.717 94.0745 378.015 94.3821C376.932 94.6116 374.79 94.2898 373.847 93.7704C373.292 93.3026 372.574 92.3883 372.367 92.0017C372.256 91.7495 372.106 91.316 372.058 91.1385C371.973 90.8001 371.947 90.5276 371.939 90.4298C371.918 90.2008 371.92 90.0189 371.92 89.9662C371.922 89.7576 371.939 89.5569 371.943 89.5L371.944 89.4922C371.96 89.3048 371.985 89.0463 372.015 88.7601C372.122 87.7395 372.336 85.8442 372.594 83.5653C372.631 83.2383 372.669 82.9034 372.707 82.562C373.329 77.0524 374.137 69.8425 374.428 66.2714C374.635 63.7373 376.856 61.8504 379.39 62.057C379.391 62.057 379.391 62.057 379.392 62.0571C380.733 61.707 381.884 61.9934 382.488 62.1998C383.771 62.638 384.832 63.4978 385.451 64.0327C386.883 65.2715 388.501 67.0908 389.926 68.8037C392.804 72.262 395.693 76.2634 396.128 76.9496C396.202 77.0675 396.319 77.2574 396.469 77.5038C397.084 78.5094 398.275 80.4564 399.576 82.2917C400.17 83.1304 400.693 83.8086 401.107 84.2872C401.898 84.4724 402.649 84.869 403.272 85.4779C405.089 87.2557 405.122 90.1703 403.344 91.988C402.432 92.9209 401.229 93.4438 399.977 93.5088C398.863 93.5666 397.966 93.253 397.421 93.004C396.38 92.5285 395.572 91.7972 395.087 91.3215C394.024 90.2774 392.948 88.8632 392.063 87.6144C391.14 86.311 390.262 84.954 389.593 83.8895C389.256 83.3534 388.966 82.8836 388.746 82.5242C388.677 82.4108 388.611 82.3033 388.555 82.2115C388.525 82.1616 388.497 82.1163 388.473 82.0772L388.386 81.9358L388.36 81.8933C388.353 81.8824 388.351 81.8783 388.351 81.8791C388.355 81.8842 388.349 81.8761 388.333 81.8538C388.284 81.7831 388.136 81.5696 387.86 81.186C387.535 80.7339 387.093 80.1294 386.571 79.4326C385.699 78.2663 384.623 76.867 383.515 75.5038ZM381.118 90.2791C381.118 90.2797 381.118 90.2722 381.12 90.255C381.119 90.27 381.118 90.2786 381.118 90.2791ZM401.683 84.8845C401.684 84.8849 401.676 84.8794 401.662 84.8668C401.676 84.8778 401.683 84.8841 401.683 84.8845Z" fill="black"/>
<path fill-rule="evenodd" clip-rule="evenodd" d="M375.197 88.1851C375.016 88.2339 374.835 88.2828 374.653 88.3317C372.199 88.994 369.672 87.5409 369.01 85.0862C368.347 82.6314 369.801 80.1046 372.255 79.4424C372.577 79.3554 372.901 79.2678 373.227 79.1797C380.207 77.2919 387.973 75.1914 395.961 75.1914C398.503 75.1914 400.564 77.2525 400.564 79.795C400.564 82.3375 398.503 84.3986 395.961 84.3986C389.224 84.3986 382.52 86.2083 375.197 88.1851Z" fill="black"/>
<path fill-rule="evenodd" clip-rule="evenodd" d="M424.473 59.4659C426.096 61.423 425.825 64.3252 423.868 65.9481C420.015 69.1428 417.807 74.9401 417.963 80.7353C418.369 80.2415 418.885 79.8247 419.497 79.5256C419.632 79.4593 419.842 79.3482 420.107 79.2081C421.073 78.6974 422.769 77.8008 424.25 77.2777C426.188 76.5934 429.706 75.7732 432.895 78.0255C434.097 78.8746 434.98 80.1512 435.258 81.7083C435.508 83.1064 435.196 84.3147 434.893 85.1071C434.31 86.6255 433.249 87.908 432.477 88.7433C431.621 89.6693 430.681 90.5081 429.906 91.1435C429.21 91.7136 428.385 92.3359 427.757 92.6852C424.192 94.6692 419.91 95.3243 416.09 93.7617C412.065 92.1153 409.499 88.3951 408.948 83.6344C407.939 74.9168 410.803 64.8216 417.991 58.8608C419.948 57.2379 422.85 57.5088 424.473 59.4659ZM428.132 85.7574C428.131 85.7584 428.117 85.7595 428.092 85.7573C428.12 85.7553 428.133 85.7563 428.132 85.7574Z" fill="black"/>
<path fill-rule="evenodd" clip-rule="evenodd" d="M433.053 61.8235C435.069 60.2737 437.959 60.6513 439.509 62.6668C444.68 69.3911 445.367 77.1842 445.943 83.7218C445.98 84.1411 446.017 84.5553 446.054 84.9638C446.076 85.2049 446.095 85.4755 446.112 85.7103C446.115 85.7474 446.118 85.7836 446.12 85.8187C446.14 86.0983 446.161 86.3639 446.186 86.6315C446.212 86.9028 446.241 87.1501 446.274 87.3736C446.353 87.3593 446.437 87.3429 446.526 87.3241C447.441 87.1306 448.553 86.7567 449.744 86.235C452.224 85.149 454.329 83.7455 455.152 82.943C456.972 81.1678 459.886 81.2041 461.662 83.0242C463.437 84.8442 463.401 87.7588 461.58 89.5341C459.688 91.3803 456.505 93.3253 453.438 94.6687C451.856 95.3618 450.13 95.9728 448.431 96.3321C446.82 96.6727 444.786 96.8858 442.822 96.3481C438.99 95.2988 437.824 91.7234 437.444 90.1618C437.084 88.6796 436.966 86.9612 436.911 86.1543C436.9 86 436.892 85.879 436.885 85.7994C436.87 85.6419 436.856 85.4853 436.842 85.3296C436.185 78.1056 435.705 72.8238 432.21 68.2791C430.66 66.2636 431.038 63.3733 433.053 61.8235Z" fill="black"/>
<path fill-rule="evenodd" clip-rule="evenodd" d="M462.627 74.9825C463.59 77.3357 462.463 80.0238 460.11 80.9866C455.098 83.0371 449.397 83.948 444.452 84.738C443.162 84.9441 441.924 85.1419 440.763 85.3496C438.26 85.7973 435.868 84.1313 435.42 81.6285C434.973 79.1258 436.639 76.734 439.141 76.2863C440.685 76.0102 442.18 75.7691 443.628 75.5354C448.41 74.764 452.694 74.0728 456.623 72.4652C458.976 71.5023 461.664 72.6294 462.627 74.9825Z" fill="black"/>
<path fill-rule="evenodd" clip-rule="evenodd" d="M464.504 68.0314C453.94 68.0314 444.548 68.1334 435.115 70.9127C432.676 71.6313 430.116 70.2368 429.398 67.798C428.679 65.3591 430.074 62.7995 432.513 62.081C443.397 58.874 454.068 58.8242 464.504 58.8242C467.047 58.8242 469.108 60.8853 469.108 63.4278C469.108 65.9703 467.047 68.0314 464.504 68.0314Z" fill="black"/>
<path fill-rule="evenodd" clip-rule="evenodd" d="M494.896 65.9941C497.434 65.83 499.623 67.7537 499.788 70.2909C500.24 77.2873 500.956 84.2407 501.685 91.3241C501.73 91.7568 501.774 92.19 501.819 92.6237C502.079 95.1528 500.24 97.4139 497.71 97.6739C495.181 97.934 492.92 96.0945 492.66 93.5653C492.614 93.1183 492.568 92.6709 492.522 92.2232C491.797 85.1796 491.064 78.0629 490.6 70.8853C490.435 68.3481 492.359 66.1583 494.896 65.9941Z" fill="black"/>
<path fill-rule="evenodd" clip-rule="evenodd" d="M495.311 75.8321C495.013 76.0077 494.72 76.1806 494.433 76.3471C492.232 77.6211 489.416 76.8703 488.142 74.67C486.868 72.4698 487.619 69.6533 489.819 68.3793C489.984 68.2839 490.183 68.1649 490.413 68.0279C491.812 67.1941 494.33 65.693 496.882 64.8032C499.605 63.8539 504.854 62.7686 508.436 67.1143C510.884 70.0855 510.208 73.7584 509.665 75.6259C509.627 75.757 509.587 75.8874 509.545 76.0171C514.064 76.1266 519.77 77.1516 523.847 80.8695C526.473 83.2636 527.798 86.5033 527.327 89.8796C526.873 93.1377 524.849 95.8248 522.194 97.5702C519.633 99.2543 515.894 100.548 512.39 101.228C509.027 101.881 504.721 102.2 501.356 100.859C498.994 99.9174 497.843 97.2396 498.784 94.8778C499.726 92.5161 502.404 91.3649 504.765 92.3065C505.578 92.6304 507.685 92.7621 510.636 92.1896C513.446 91.6444 515.921 90.6759 517.136 89.8767C518.032 89.2879 518.189 88.7453 518.208 88.6091C518.218 88.5392 518.215 88.4662 518.173 88.3588C518.129 88.2448 518.001 87.9993 517.643 87.6728C515.633 85.8394 511.735 85.0628 507.574 85.2377C507.574 85.2377 507.574 85.2377 507.573 85.2378C507.559 85.239 507.399 85.253 507.05 85.3257C506.707 85.3973 506.286 85.5033 505.802 85.6409C504.833 85.9165 503.758 86.2758 502.795 86.617C501.913 86.9292 501.169 87.2101 500.723 87.3786C500.685 87.3927 500.65 87.406 500.617 87.4185C500.519 87.4554 500.409 87.4966 500.326 87.5268C500.317 87.5303 500.187 87.5781 500.042 87.6221C500.004 87.6338 499.891 87.6677 499.746 87.7017C499.678 87.7176 499.526 87.7516 499.331 87.7788C499.33 87.7789 499.327 87.7793 499.324 87.7798C499.246 87.7918 498.596 87.8909 497.809 87.7362C497.253 87.5906 495.845 86.8331 495.112 86.108C494.421 84.927 494.138 82.5714 494.394 81.5796C494.63 81.0606 495.124 80.3151 495.338 80.0701C495.479 79.9258 495.729 79.6986 495.835 79.6123C496.157 79.3565 496.454 79.1973 496.475 79.1861C496.475 79.1857 496.476 79.1855 496.476 79.1855C496.611 79.1107 496.726 79.0566 496.75 79.0452L496.753 79.044C496.796 79.0237 496.834 79.0066 496.859 78.9954C496.91 78.9726 496.964 78.949 497.011 78.9282C497.08 78.8985 497.165 78.8617 497.266 78.8188C497.279 78.8074 497.295 78.7932 497.314 78.7759C497.455 78.6477 497.653 78.4351 497.906 78.1145C498.31 77.6035 498.645 77.099 499.028 76.5213C499.171 76.3048 499.322 76.0779 499.485 75.8366C499.908 75.2125 500.456 74.198 500.765 73.2475C500.529 73.3013 500.246 73.3811 499.913 73.4971C498.331 74.0489 496.766 74.9727 495.311 75.8321ZM497.218 78.8572C497.218 78.8572 497.219 78.8562 497.222 78.8544C497.219 78.8563 497.218 78.8572 497.218 78.8572ZM500.591 87.4123C500.59 87.4127 500.602 87.407 500.633 87.3936C500.608 87.4051 500.593 87.4118 500.591 87.4123Z" fill="black"/>
<path fill-rule="evenodd" clip-rule="evenodd" d="M549.869 66.3021C549.444 64.7557 548.222 63.4761 546.556 63.0553C544.091 62.4327 541.588 63.9264 540.965 66.3915C539.733 71.271 538.251 75.9364 536.714 80.7749C536.098 82.7151 535.473 84.6831 534.852 86.704C534.461 87.9744 534.089 90.1736 533.88 91.4807C533.764 92.2063 533.673 92.8189 533.628 93.1419C533.617 93.2203 533.607 93.2964 533.599 93.3574L533.598 93.3596C533.596 93.3761 533.586 93.4523 533.578 93.536C533.576 93.5571 533.569 93.6303 533.564 93.7236C533.562 93.7625 533.556 93.8752 533.557 94.0196C533.558 94.0977 533.567 94.2985 533.577 94.4209C533.603 94.6379 533.755 95.3211 533.919 95.7742C534.673 96.9896 538.133 98.5877 540.51 97.9428C541.311 97.3403 542.158 96.267 542.327 95.9409C542.401 95.7766 542.504 95.51 542.538 95.4097C542.559 95.3436 542.592 95.2302 542.605 95.1829C542.646 95.0313 542.671 94.907 542.675 94.8854L542.675 94.8832C542.708 94.7199 542.746 94.4594 542.768 94.3073C542.77 94.2946 542.771 94.2827 542.773 94.2716C543.079 92.1619 543.744 90.1785 544.543 87.7988C544.797 87.0405 545.065 86.2419 545.339 85.3862C545.71 84.2269 545.99 83.2458 546.258 82.3107C546.611 81.0725 546.942 79.9151 547.43 78.5316C547.572 78.1293 547.716 77.7473 547.862 77.3852C548.178 77.8829 548.509 78.4284 548.852 79.0151C550.551 81.9263 551.953 84.8006 552.841 86.6219C553.179 87.3155 553.443 87.8564 553.62 88.1885C554.162 89.2017 554.686 90.1437 555.187 91.0442C555.72 92.0027 556.227 92.9143 556.701 93.8147C555.998 95.8416 556.793 98.15 558.712 99.2831C558.696 99.2736 558.654 99.2491 559.037 99.5061L559.037 99.5062C559.244 99.6449 559.722 99.9659 560.251 100.219C560.493 100.335 561.037 100.582 561.741 100.699C562.31 100.794 564.248 101.005 565.872 99.4298C567.462 97.8874 567.347 95.9812 567.285 95.4216C567.206 94.705 566.988 94.1154 566.853 93.7832C565.77 91.1182 564.28 88.44 562.979 86.102C562.537 85.3076 562.116 84.5525 561.741 83.8505C561.744 83.8551 561.733 83.8342 561.701 83.7717C561.672 83.714 561.635 83.6388 561.588 83.543C561.509 83.3834 561.415 83.1898 561.302 82.957C561.277 82.9076 561.252 82.8565 561.227 82.8035C560.935 82.2064 560.552 81.4224 560.105 80.5305C559.215 78.7557 558.049 76.5082 556.803 74.3739C555.603 72.3167 554.159 70.0669 552.687 68.4811C552.071 67.8178 551.117 66.896 549.869 66.3021Z" fill="black"/>
<path fill-rule="evenodd" clip-rule="evenodd" d="M561.174 87.7575C561.298 90.297 559.339 92.4556 556.799 92.5788C550.107 92.9036 543.49 93.6658 536.739 94.5879C534.22 94.932 531.899 93.1688 531.555 90.6497C531.211 88.1306 532.974 85.8095 535.493 85.4654C542.352 84.5285 549.272 83.7261 556.353 83.3825C558.893 83.2592 561.051 85.218 561.174 87.7575Z" fill="black"/>
<path fill-rule="evenodd" clip-rule="evenodd" d="M571.446 67.041C573.971 67.3437 575.772 69.6355 575.469 72.16C575.004 76.0336 574.749 84.0935 574.616 90.3979C574.555 93.2931 574.521 95.738 574.502 97.1077C574.501 97.2039 574.499 97.2948 574.498 97.3803C574.494 97.7021 574.49 97.9563 574.487 98.1183C574.486 98.1859 574.484 98.2811 574.481 98.3584C574.48 98.3768 574.478 98.4297 574.474 98.4942C574.473 98.5201 574.468 98.5994 574.457 98.6999C574.451 98.756 574.431 98.9024 574.416 98.9931C574.383 99.1656 574.208 99.7768 574.03 100.201C572.635 101.898 567.862 102.348 565.847 100.432C565.603 99.9143 565.378 99.1745 565.34 98.9765C565.299 98.7365 565.287 98.5382 565.286 98.5187L565.286 98.5172C565.279 98.4215 565.277 98.3427 565.277 98.3246L565.276 98.3228C565.271 98.1448 565.271 97.543 565.271 96.6131V96.5382C565.271 96.334 565.285 96.133 565.311 95.9358C565.331 94.5114 565.363 92.4972 565.411 90.2038C565.541 84.04 565.798 75.4812 566.327 71.0637C566.63 68.5393 568.922 66.7383 571.446 67.041Z" fill="black"/>
<path fill-rule="evenodd" clip-rule="evenodd" d="M599.396 69.0203C601.145 67.5286 601.542 64.9313 600.236 62.9703C599.83 62.3602 599.22 61.5527 598.363 60.9191C597.555 60.322 595.46 59.171 593.036 60.3456C591.018 61.3235 590.414 63.2088 590.24 63.8395C590.003 64.6998 589.948 65.5674 589.948 66.277C589.948 70.4801 591.058 74.2089 592.246 77.4602C592.708 78.7243 593.153 79.8523 593.573 80.9189C594.042 82.1096 594.481 83.2239 594.88 84.3657C589.025 79.2032 583.622 73.3682 578.047 67.3475C577.473 66.7274 576.897 66.1052 576.318 65.4816C574.589 63.6179 571.676 63.5089 569.812 65.2382C567.948 66.9676 567.839 69.8804 569.569 71.7441C570.189 72.4121 570.811 73.0842 571.435 73.7592C579.528 82.5053 588.067 91.7347 598.466 98.8609C599.009 99.2326 600.422 100.045 602.296 99.6344C604.299 99.1961 605.26 97.7269 605.616 96.9936C605.974 96.2565 606.085 95.5709 606.13 95.2126C606.183 94.7958 606.194 94.4025 606.191 94.0812C606.182 92.8827 605.967 91.3963 605.751 90.1448C605.303 87.5512 604.612 84.6456 604.394 83.8919C603.723 81.5712 602.772 79.1449 601.929 76.9963C601.55 76.0296 601.193 75.1191 600.894 74.2997C600.208 72.4232 599.682 70.7029 599.396 69.0203ZM592.487 67.9548C592.488 67.9544 592.494 67.9619 592.506 67.9786C592.494 67.9636 592.487 67.9553 592.487 67.9548Z" fill="black"/>
<path fill-rule="evenodd" clip-rule="evenodd" d="M613.506 65.1744C615.932 64.4113 618.516 65.7589 619.279 68.1841C621.812 76.234 624.016 84.2774 625.935 92.4999C625.955 92.5852 626.033 92.9916 626.113 93.4054C626.164 93.6692 626.215 93.9361 626.252 94.1247C626.509 94.699 626.653 95.3357 626.653 96.0059C626.653 96.1139 626.652 96.4392 626.594 96.8235L626.594 96.8236C626.572 96.9665 626.491 97.49 626.211 98.0933C626.075 98.3875 624.882 100.861 621.88 100.765C620.601 100.725 619.694 100.177 619.235 99.8272C618.767 99.472 618.471 99.1053 618.322 98.9057C618.026 98.5076 617.861 98.1498 617.804 98.0235C617.668 97.723 617.587 97.4608 617.558 97.3645C617.435 96.9569 617.326 96.4353 617.262 96.1236C617.184 95.739 617.105 95.3262 617.046 95.0134C617.031 94.9298 617.017 94.8602 617.007 94.8029C616.963 94.5713 616.957 94.5402 616.969 94.5927C615.103 86.5983 612.96 78.7785 610.497 70.9474C609.734 68.5221 611.081 65.9374 613.506 65.1744Z" fill="black"/>
<path fill-rule="evenodd" clip-rule="evenodd" d="M624.887 76.8289C621.273 76.2354 618.168 76.1088 616.382 76.2926C613.853 76.5527 611.591 74.7134 611.331 72.1842C611.071 69.6551 612.91 67.3939 615.44 67.1337C618.335 66.8359 622.322 67.0772 626.379 67.7434C630.476 68.4164 634.998 69.5803 638.947 71.3223C642.731 72.9917 646.782 75.5355 648.849 79.4239C649.945 81.4877 650.432 83.8481 650.056 86.3762C649.69 88.8402 648.55 91.1733 646.877 93.3601C641.955 99.7913 634.644 103.575 627.457 105.339C626.98 105.456 625.323 105.788 623.956 105.865C623.601 105.885 623.097 105.899 622.563 105.843C622.297 105.815 621.898 105.758 621.449 105.619C621.054 105.497 620.247 105.201 619.488 104.48C618.578 103.615 617.929 102.3 618.014 100.769C618.086 99.4842 618.65 98.5794 618.956 98.1582C619.551 97.3396 620.311 96.8125 620.686 96.5626C622.159 95.5813 623.992 95.5606 625.445 96.3523C631.143 94.92 636.294 92.0393 639.565 87.7647C640.566 86.4567 640.871 85.5495 640.949 85.0225C641.018 84.5596 640.949 84.1783 640.718 83.7445C640.13 82.6375 638.441 81.1622 635.231 79.7463C632.186 78.4029 628.459 77.4155 624.887 76.8289ZM623.356 96.6752C623.356 96.6752 623.359 96.6751 623.363 96.6752C623.358 96.6753 623.356 96.6752 623.356 96.6752ZM625.789 104.227C625.756 104.252 625.737 104.265 625.735 104.265C625.734 104.265 625.75 104.252 625.789 104.227Z" fill="black"/>
<path fill-rule="evenodd" clip-rule="evenodd" d="M148.133 114.074C150.671 113.931 152.845 115.874 152.987 118.412C153.09 120.246 153.224 122.158 153.361 124.114C153.681 128.676 154.017 133.48 154.017 138.107C154.017 140.65 151.956 142.711 149.414 142.711C146.871 142.711 144.81 140.65 144.81 138.107C144.81 133.811 144.511 129.547 144.201 125.144C144.058 123.108 143.913 121.042 143.794 118.928C143.652 116.39 145.594 114.216 148.133 114.074Z" fill="black"/>
<path fill-rule="evenodd" clip-rule="evenodd" d="M140.788 106.624C141.226 104.12 143.611 102.444 146.116 102.882C146.765 102.995 147.367 103.131 147.911 103.302C149.942 103.088 151.94 104.252 152.697 106.251C153.598 108.629 152.4 111.286 150.023 112.187C149.838 112.257 149.706 112.31 149.616 112.348C149.576 112.372 149.535 112.397 149.493 112.421C149.341 112.508 149.118 112.625 148.836 112.733C148.698 112.787 148.474 112.866 148.189 112.93C148.044 112.963 147.84 113.002 147.593 113.024C147.361 113.045 146.983 113.063 146.524 112.998C146.287 112.964 145.991 112.903 145.662 112.789C145.333 112.675 144.942 112.498 144.54 112.218C144.383 112.109 144.227 111.986 144.076 111.849C141.827 111.218 140.378 108.974 140.788 106.624ZM145.151 112.086C145.171 112.092 145.168 112.092 145.145 112.084C145.147 112.085 145.149 112.085 145.151 112.086Z" fill="black"/>
<path fill-rule="evenodd" clip-rule="evenodd" d="M164.969 108.271C168.194 106.595 172.444 106.483 175.73 107.823C178.085 108.782 179.216 111.469 178.256 113.823C177.296 116.178 174.61 117.308 172.255 116.349C171.903 116.205 171.337 116.092 170.672 116.117C170.213 116.134 169.828 116.213 169.542 116.307C170.422 118.142 172.168 119.756 174.871 121.473C176.212 122.324 177.644 123.115 179.193 123.97L179.211 123.98C180.703 124.803 182.332 125.702 183.828 126.673C184.717 127.251 186.462 128.616 186.723 131.053C187.001 133.643 185.408 135.319 184.632 135.98C183.767 136.716 182.768 137.211 181.992 137.543C181.158 137.899 180.259 138.2 179.398 138.451C177.675 138.955 175.822 139.344 174.356 139.606C173.041 139.841 171.613 140.052 170.898 140.065C170.486 140.073 169.966 140.034 169.544 139.995C168.087 140.881 166.192 140.919 164.661 139.936C164.312 139.711 163.498 139.176 162.872 138.308C162.545 137.852 161.924 136.833 161.946 135.397C161.972 133.725 162.837 132.493 163.695 131.791C164.427 131.193 165.164 130.951 165.517 130.851C165.925 130.736 166.289 130.685 166.539 130.659C167.037 130.607 167.517 130.611 167.865 130.622C168.558 130.645 169.33 130.722 169.865 130.775L169.907 130.779C170.266 130.814 170.486 130.834 170.609 130.845C170.667 130.851 170.704 130.854 170.724 130.856C170.745 130.852 170.792 130.846 170.865 130.836C171.088 130.806 171.553 130.744 172.238 130.629C171.473 130.19 170.697 129.729 169.935 129.245C166.734 127.212 163.181 124.419 161.185 120.171C160.123 117.912 159.775 115.41 160.651 113.012C161.506 110.673 163.263 109.158 164.969 108.271ZM169.637 132.189C169.554 132.136 169.569 132.137 169.645 132.194C169.642 132.192 169.639 132.19 169.637 132.189ZM169.361 115.817C169.362 115.818 169.363 115.823 169.363 115.834C169.361 115.823 169.361 115.817 169.361 115.817Z" fill="black"/>
<path fill-rule="evenodd" clip-rule="evenodd" d="M222.587 114.144C224.522 115.794 224.753 118.699 223.103 120.634C221.675 122.308 220.117 124.571 218.995 126.861C219.389 126.691 219.814 126.573 220.262 126.517C220.726 126.459 221.145 126.387 221.676 126.296C222.242 126.198 222.935 126.079 223.947 125.932C225.507 125.704 227.528 125.471 229.395 125.589C230.332 125.648 231.469 125.807 232.583 126.241C233.719 126.684 235.112 127.53 236.027 129.113C237.898 132.352 236.334 135.771 235.062 137.84C233.063 141.092 230.274 143.296 226.883 144.241C223.597 145.157 220.202 144.768 217.071 143.74C213.396 142.533 210.642 140.314 209.234 137.118C207.901 134.09 208.091 130.885 208.734 128.203C210.001 122.915 213.486 117.722 216.097 114.659C217.747 112.725 220.653 112.494 222.587 114.144ZM222.339 135.517C223.168 135.594 223.854 135.527 224.41 135.372C224.675 135.299 224.943 135.196 225.214 135.051C224.561 135.147 223.927 135.254 223.309 135.357L223.234 135.37C222.943 135.419 222.638 135.47 222.339 135.517Z" fill="black"/>
<path fill-rule="evenodd" clip-rule="evenodd" d="M249.57 115.094C254.49 115.211 260.736 118.152 262.75 124.273C263.819 127.524 263.753 131.002 262.309 134.103C260.854 137.226 258.175 139.591 254.717 140.895C251.885 141.963 248.998 142.01 246.414 140.681C244.004 139.441 242.542 137.347 241.645 135.54C240.438 133.107 239.813 130.25 239.456 128.07C239.319 127.755 239.216 127.419 239.15 127.067C238.508 123.597 239.256 120.259 241.708 117.89C243.977 115.699 246.999 115.032 249.57 115.094ZM248.24 124.45C248.413 124.38 248.76 124.284 249.351 124.298C250.302 124.321 251.415 124.638 252.346 125.224C253.261 125.8 253.786 126.49 254.003 127.15C254.428 128.442 254.307 129.476 253.962 130.216C253.628 130.932 252.918 131.734 251.469 132.28C250.982 132.464 250.72 132.487 250.608 132.48C250.534 132.424 250.257 132.182 249.893 131.448C248.953 129.554 248.545 126.763 248.241 124.461C248.241 124.457 248.24 124.453 248.24 124.45ZM250.541 132.467C250.543 132.464 250.562 132.466 250.596 132.48C250.557 132.476 250.54 132.47 250.541 132.467Z" fill="black"/>
<path fill-rule="evenodd" clip-rule="evenodd" d="M280.542 113.205C282.996 113.87 284.446 116.399 283.78 118.853C283.262 120.761 282.754 122.732 282.236 124.74C280.668 130.822 279.011 137.245 276.742 143.288C276.738 143.297 276.735 143.307 276.731 143.317C276.654 143.522 276.45 144.069 276.163 144.544C276.161 144.547 276.159 144.55 276.157 144.554C276.093 144.661 275.768 145.204 275.177 145.705C274.894 145.946 274.029 146.633 272.678 146.778C270.923 146.965 269.471 146.146 268.63 145.124C267.974 144.328 267.765 143.529 267.699 143.248C267.613 142.885 267.589 142.587 267.58 142.427C267.562 142.102 267.581 141.841 267.59 141.73C267.64 141.142 267.833 140.332 267.926 139.941C267.93 139.926 267.933 139.913 267.936 139.9C268.07 139.336 268.231 138.704 268.358 138.209C268.414 137.993 268.464 137.798 268.504 137.643L268.522 137.575C268.545 137.488 268.56 137.43 268.569 137.394C268.581 137.347 268.583 137.338 268.58 137.35C268.785 136.487 269.22 135.739 269.805 135.156C271.07 131.15 272.13 127.045 273.218 122.828C273.76 120.727 274.309 118.599 274.894 116.442C275.56 113.989 278.089 112.539 280.542 113.205ZM268.054 140.224C268.054 140.223 268.06 140.21 268.069 140.188C268.059 140.213 268.054 140.225 268.054 140.224Z" fill="black"/>
<path fill-rule="evenodd" clip-rule="evenodd" d="M277.475 111.391C279.801 110.362 282.519 111.414 283.547 113.739C283.972 114.699 284.388 115.65 284.8 116.591C286.714 120.963 288.538 125.132 290.718 129.118C290.722 128.536 290.715 127.935 290.701 127.315C290.685 126.58 290.656 125.757 290.625 124.902C290.573 123.447 290.517 121.896 290.517 120.517C290.517 120.521 290.517 120.523 290.517 120.523C290.517 120.523 290.516 120.47 290.505 120.328C290.495 120.201 290.484 120.066 290.468 119.889C290.463 119.838 290.459 119.784 290.454 119.726C290.413 119.259 290.355 118.575 290.349 117.871C290.345 117.211 290.379 116.22 290.668 115.203C290.951 114.209 291.691 112.477 293.62 111.496C295.887 110.345 298.658 111.249 299.81 113.516C300.581 115.034 300.43 116.778 299.566 118.111C299.577 118.34 299.598 118.604 299.626 118.923C299.629 118.962 299.633 119.004 299.637 119.047C299.653 119.231 299.672 119.444 299.686 119.637C299.704 119.871 299.724 120.189 299.724 120.517C299.724 121.789 299.768 122.977 299.816 124.262C299.849 125.146 299.883 126.077 299.906 127.111C299.958 129.452 299.933 132.028 299.541 134.58C299.345 135.856 298.869 137.265 297.82 138.457C296.72 139.706 295.333 140.329 294.038 140.555C291.831 140.941 289.698 140.198 288.668 139.821C286.754 139.121 285.473 137.872 284.619 136.767C283.915 135.857 283.352 134.831 282.998 134.186C282.955 134.107 282.915 134.034 282.878 133.968C280.374 129.452 278.289 124.684 276.312 120.163C275.913 119.251 275.519 118.35 275.127 117.463C274.099 115.137 275.15 112.419 277.475 111.391ZM290.437 133.2C290.437 133.2 290.438 133.199 290.438 133.197C290.438 133.199 290.437 133.2 290.437 133.2ZM292.798 131.459C292.808 131.46 292.813 131.461 292.813 131.461C292.813 131.461 292.808 131.461 292.798 131.459Z" fill="black"/>
<path fill-rule="evenodd" clip-rule="evenodd" d="M309.152 109.977C311.693 110.058 313.688 112.183 313.607 114.725C313.392 121.502 312.508 128.207 311.496 134.737C311.931 135.606 312.095 136.618 311.901 137.646C311.654 138.959 311.062 141.118 310.582 142.338C310.579 142.345 310.576 142.354 310.572 142.364C310.495 142.562 310.206 143.307 309.699 143.958C309.548 144.151 309.148 144.643 308.48 145.064C307.775 145.508 306.172 146.206 304.28 145.448C302.614 144.781 301.944 143.441 301.745 142.984C301.503 142.429 301.421 141.947 301.39 141.726C301.28 140.964 301.361 140.189 301.396 139.85L301.396 139.844C301.449 139.337 301.537 138.715 301.657 137.977C302.96 129.936 304.158 122.179 304.405 114.432C304.485 111.891 306.611 109.896 309.152 109.977ZM301.97 139.071C301.97 139.068 301.983 139.037 302.008 138.984C301.983 139.047 301.971 139.073 301.97 139.071ZM310.539 140.96C310.539 140.988 310.538 141.004 310.537 141.005C310.537 141.005 310.537 140.991 310.539 140.96Z" fill="black"/>
<path fill-rule="evenodd" clip-rule="evenodd" d="M306.001 113.138C307.927 111.478 310.834 111.694 312.493 113.62C313.092 114.314 313.706 115.021 314.333 115.74C318.176 120.155 322.44 125.053 325.808 130.551C327.221 126.845 327.319 122.354 325.827 119.24C324.729 116.947 325.697 114.198 327.989 113.099C330.282 112 333.032 112.968 334.13 115.261C337.633 122.571 336.246 132.228 331.995 138.517C331.509 139.237 330.918 140.015 330.22 140.69C329.565 141.324 328.484 142.192 326.982 142.551C325.222 142.971 323.491 142.551 322.124 141.542C320.948 140.675 320.213 139.509 319.735 138.552C316.745 132.566 312.21 127.343 307.4 121.802C306.776 121.084 306.148 120.361 305.519 119.63C303.859 117.704 304.075 114.797 306.001 113.138ZM323.82 134.071C323.796 134.095 323.797 134.09 323.825 134.066C323.824 134.068 323.822 134.07 323.82 134.071ZM328.043 134.57C328.054 134.585 328.059 134.593 328.059 134.593C328.058 134.594 328.053 134.586 328.043 134.57Z" fill="black"/>
<path fill-rule="evenodd" clip-rule="evenodd" d="M347.88 112.021C350.423 112.021 352.484 114.083 352.484 116.625C352.484 121.216 351.301 125.483 350.033 129.263C349.571 130.641 349.116 131.91 348.682 133.123C348.248 134.334 347.834 135.488 347.454 136.636C347.555 137.302 347.509 138.001 347.295 138.688C347.066 139.421 346.566 140.809 346.193 141.642L346.188 141.653C346.12 141.805 345.92 142.253 345.633 142.677C345.549 142.802 345.364 143.067 345.082 143.355C345.079 143.358 345.075 143.362 345.071 143.367C344.913 143.53 344.064 144.405 342.62 144.678C341.695 144.853 340.573 144.765 339.511 144.172C338.527 143.622 337.981 142.852 337.703 142.34C337.221 141.45 337.164 140.634 337.151 140.439L337.15 140.431C337.113 139.901 337.175 139.457 337.194 139.326L337.194 139.321C337.223 139.114 337.261 138.916 337.295 138.749C337.365 138.411 337.463 138.005 337.583 137.541C338.276 134.87 339.276 132.07 340.19 129.513C340.589 128.397 340.971 127.328 341.304 126.335C342.484 122.817 343.277 119.693 343.277 116.625C343.277 114.083 345.338 112.021 347.88 112.021ZM337.761 137.94C337.761 137.939 337.768 137.924 337.781 137.898C337.768 137.928 337.761 137.941 337.761 137.94Z" fill="black"/>
<path fill-rule="evenodd" clip-rule="evenodd" d="M344.347 114.694C345.978 112.743 348.882 112.484 350.832 114.115C358.369 120.417 364.71 130.302 366.715 140.268C367.216 142.761 365.602 145.188 363.109 145.689C360.617 146.191 358.189 144.576 357.688 142.084C356.137 134.371 351.02 126.274 344.926 121.178C342.976 119.547 342.717 116.644 344.347 114.694Z" fill="black"/>
<path fill-rule="evenodd" clip-rule="evenodd" d="M367.529 126.244C368.432 128.621 367.237 131.279 364.86 132.182C358.059 134.765 351.273 137.323 344.071 139.454C341.633 140.175 339.072 138.783 338.351 136.345C337.629 133.907 339.021 131.346 341.459 130.625C348.283 128.606 354.765 126.167 361.591 123.575C363.968 122.672 366.626 123.867 367.529 126.244Z" fill="black"/>
<path fill-rule="evenodd" clip-rule="evenodd" d="M394.609 112.031C397.145 111.85 399.348 113.758 399.53 116.294C399.615 117.491 399.694 118.673 399.772 119.841C400.251 127.005 400.696 133.655 402.442 139.944C403.123 142.393 401.689 144.931 399.239 145.611C396.789 146.292 394.252 144.858 393.571 142.408C391.55 135.131 391.042 127.423 390.574 120.32C390.499 119.18 390.425 118.056 390.346 116.952C390.164 114.416 392.073 112.213 394.609 112.031Z" fill="black"/>
<path fill-rule="evenodd" clip-rule="evenodd" d="M393.443 120.752C393.046 120.892 392.667 121.025 392.313 121.144C389.903 121.954 387.293 120.657 386.483 118.247C385.673 115.837 386.971 113.226 389.381 112.417C389.539 112.363 389.757 112.285 390.024 112.19C391.543 111.646 394.662 110.529 397.556 110.135C399.252 109.905 401.551 109.806 403.712 110.661C406.261 111.669 408.122 113.817 408.639 116.845C408.919 118.488 408.622 119.955 408.116 121.175C409.56 121.604 411.023 122.187 412.522 122.977C414.538 124.04 416.381 125.367 417.832 126.899C419.241 128.386 420.55 130.357 420.923 132.711C421.336 135.319 420.503 137.871 418.524 139.808C416.731 141.564 414.243 142.593 411.534 143.19C411.086 143.289 410.563 143.332 410.336 143.351L410.315 143.352C409.971 143.381 409.561 143.408 409.134 143.433C408.275 143.484 407.247 143.534 406.348 143.578L406.135 143.588C405.735 143.607 405.373 143.625 405.067 143.64C404.766 143.702 404.454 143.734 404.134 143.734C403.973 143.734 403.814 143.733 403.678 143.73C403.618 143.728 403.505 143.725 403.377 143.716C403.321 143.712 403.181 143.701 403.007 143.675C402.924 143.662 402.751 143.634 402.537 143.579C402.534 143.578 402.531 143.578 402.526 143.576C402.411 143.548 401.772 143.387 401.098 142.93C400.755 142.698 399.869 142.037 399.382 140.769C398.777 139.191 399.144 137.664 399.804 136.634C400.336 135.805 400.992 135.369 401.245 135.211C401.559 135.015 401.831 134.899 401.979 134.84C402.448 134.653 402.858 134.586 402.893 134.58C402.894 134.58 402.895 134.58 402.895 134.58C403.091 134.545 403.26 134.529 403.307 134.524L403.311 134.524C403.447 134.511 403.594 134.501 403.707 134.493C404.132 134.466 404.87 134.431 405.654 134.393C405.738 134.389 405.822 134.385 405.906 134.381C406.812 134.338 407.789 134.29 408.587 134.242C408.988 134.218 409.318 134.196 409.558 134.176C409.624 134.171 409.675 134.166 409.712 134.163C410.536 133.972 411.097 133.766 411.467 133.596C411.381 133.488 411.276 133.366 411.148 133.23C410.518 132.565 409.536 131.811 408.228 131.122C405.556 129.713 403.047 129.305 399.482 129.236C399.132 129.229 398.659 129.205 398.16 129.108C398.155 129.107 398.15 129.106 398.144 129.105C397.845 129.047 396.547 128.796 395.473 127.677C394.787 126.962 394.244 125.938 394.169 124.702C394.1 123.566 394.453 122.683 394.726 122.173C395.209 121.272 395.874 120.736 396.058 120.588L396.062 120.585C396.51 120.224 397.03 119.922 397.227 119.809C397.24 119.801 397.252 119.794 397.262 119.788C397.508 119.644 397.578 119.602 397.578 119.603C397.578 119.603 397.578 119.603 397.578 119.604C397.657 119.546 397.736 119.488 397.815 119.429C396.301 119.744 394.768 120.285 393.443 120.752ZM399.617 120.029C399.617 120.029 399.623 120.029 399.634 120.03C399.622 120.029 399.617 120.029 399.617 120.029Z" fill="black"/>
<path fill-rule="evenodd" clip-rule="evenodd" d="M426.417 114.243C428.863 113.548 431.409 114.968 432.104 117.413C434.084 124.386 434.906 131.359 435.179 138.358C435.197 138.802 435.189 139.263 435.18 139.632C435.178 139.731 435.176 139.824 435.174 139.914C435.264 139.886 435.355 139.857 435.447 139.828C435.596 139.781 435.747 139.733 435.9 139.684C436.741 139.418 437.644 139.131 438.55 138.873C440.745 138.247 443.209 137.711 446.089 137.711C448.632 137.711 450.693 139.772 450.693 142.314C450.693 144.857 448.632 146.918 446.089 146.918C444.389 146.918 442.835 147.225 441.074 147.727C440.311 147.944 439.557 148.184 438.714 148.451C438.554 148.502 438.39 148.554 438.223 148.607C437.206 148.928 436.084 149.276 434.88 149.592C432.986 150.088 430.616 150.048 428.642 148.418C426.925 147 426.386 145.059 426.177 143.942C425.948 142.724 425.939 141.493 425.949 140.634C425.955 140.153 425.965 139.81 425.972 139.539C425.982 139.189 425.989 138.962 425.979 138.717C425.724 132.193 424.968 125.989 423.247 119.929C422.552 117.483 423.972 114.937 426.417 114.243ZM432.538 140.687C432.538 140.687 432.539 140.687 432.542 140.686C432.539 140.687 432.538 140.687 432.538 140.687ZM435.236 142.295C435.249 142.331 435.253 142.351 435.252 142.352C435.251 142.354 435.245 142.336 435.236 142.295Z" fill="black"/>
<path fill-rule="evenodd" clip-rule="evenodd" d="M445.638 127.107C447.193 129.118 446.825 132.009 444.814 133.565C441.928 135.798 438.724 136.998 435.783 137.788C433.971 138.275 431.91 138.68 430.107 139.034C429.198 139.213 428.354 139.378 427.64 139.535C425.157 140.081 422.701 138.511 422.155 136.028C421.609 133.545 423.179 131.089 425.663 130.543C426.831 130.286 427.874 130.084 428.864 129.892C430.414 129.591 431.832 129.316 433.394 128.897C435.737 128.267 437.641 127.474 439.179 126.283C441.19 124.727 444.082 125.096 445.638 127.107Z" fill="black"/>
<path fill-rule="evenodd" clip-rule="evenodd" d="M448.537 115.627C449.088 118.109 447.522 120.568 445.04 121.118C439.118 122.432 433.979 123.866 428.296 126.039C425.922 126.947 423.26 125.758 422.352 123.384C421.444 121.009 422.632 118.348 425.007 117.439C431.211 115.067 436.801 113.515 443.046 112.13C445.528 111.579 447.987 113.145 448.537 115.627Z" fill="black"/>
<path fill-rule="evenodd" clip-rule="evenodd" d="M480.471 116.339C482.888 115.552 485.486 116.874 486.273 119.291C488.599 126.435 490.734 133.691 492.38 141.12C492.475 141.549 492.66 142.388 492.635 143.206C492.628 143.451 492.598 143.919 492.435 144.47C492.286 144.973 491.87 146.077 490.715 146.925C489.383 147.902 487.915 147.938 486.913 147.707C486.055 147.509 485.464 147.116 485.217 146.94C484.708 146.578 484.363 146.179 484.258 146.059L484.255 146.056C484.102 145.879 483.968 145.706 483.887 145.599C483.789 145.471 483.727 145.389 483.68 145.326C483.617 145.242 483.581 145.195 483.524 145.125C482.439 143.794 482.221 142.04 482.801 140.545C481.333 134.385 479.516 128.278 477.518 122.141C476.731 119.724 478.053 117.126 480.471 116.339ZM483.454 143.428C483.454 143.428 483.453 143.425 483.453 143.419C483.454 143.425 483.454 143.429 483.454 143.428Z" fill="black"/>
<path fill-rule="evenodd" clip-rule="evenodd" d="M500.515 121.229C500.176 121.223 499.731 121.238 499.019 121.274C492.688 121.594 486.593 123.061 480.23 125.1C477.809 125.876 475.217 124.542 474.442 122.121C473.666 119.7 474.999 117.108 477.421 116.332C484.16 114.172 491.105 112.455 498.555 112.079C498.581 112.078 498.607 112.076 498.633 112.075C499.898 112.011 501.473 111.931 503.004 112.29C504.822 112.715 506.175 113.628 507.387 114.661C509.322 116.31 509.554 119.215 507.905 121.15C506.256 123.086 503.351 123.318 501.415 121.669C501.116 121.414 500.945 121.297 500.866 121.248C500.813 121.242 500.705 121.232 500.515 121.229ZM500.811 121.22C500.81 121.218 500.821 121.222 500.845 121.236C500.824 121.228 500.812 121.221 500.811 121.22Z" fill="black"/>
<path fill-rule="evenodd" clip-rule="evenodd" d="M510.936 128.903C511.499 131.382 509.946 133.849 507.467 134.412L484.961 139.527C482.482 140.091 480.015 138.538 479.451 136.058C478.888 133.579 480.441 131.112 482.92 130.549L505.427 125.434C507.906 124.87 510.373 126.423 510.936 128.903Z" fill="black"/>
<path fill-rule="evenodd" clip-rule="evenodd" d="M521.331 143.421C521.363 142.897 521.408 142.371 521.467 141.843C522.207 136.975 523.6 132.176 525.254 127.289C526.716 129.734 527.837 132.352 528.924 135.209C529.277 136.137 529.636 137.121 530.008 138.137C530.889 140.548 531.837 143.142 532.925 145.614C533.949 147.941 536.666 148.996 538.993 147.972C541.32 146.947 542.376 144.23 541.352 141.904C540.386 139.71 539.609 137.581 538.779 135.31C538.383 134.225 537.975 133.108 537.53 131.935C536.205 128.453 534.636 124.766 532.299 121.192C532.283 121.168 532.228 121.078 532.144 120.939C531.732 120.259 530.598 118.388 529.648 117.047C529.013 116.152 528.215 115.116 527.332 114.257C526.889 113.828 526.313 113.332 525.621 112.921C524.961 112.529 523.873 112.021 522.495 112.021C520.693 112.021 519.536 113.005 519.069 113.492C518.577 114.003 518.298 114.518 518.166 114.78C517.89 115.333 517.728 115.882 517.64 116.21C517.444 116.933 517.295 117.77 517.187 118.453C517.074 119.171 516.981 119.884 516.914 120.416C516.91 120.448 516.906 120.48 516.903 120.51C516.82 121.169 516.818 121.185 516.845 121.05C516.356 123.483 515.728 125.781 515.055 128.243C514.704 129.527 514.34 130.856 513.978 132.273C513.305 134.906 512.68 137.701 512.34 140.623C512.323 140.741 512.305 140.86 512.288 140.978C512.208 141.536 512.162 142.31 512.133 142.999C512.095 143.674 512.074 144.354 512.074 145.041C512.074 145.048 512.074 145.057 512.074 145.067C512.074 145.147 512.074 145.323 512.078 145.431L512.078 145.432C512.078 145.449 512.082 145.546 512.092 145.665L512.092 145.665C512.092 145.668 512.112 145.943 512.186 146.273C512.255 146.546 512.687 147.564 513.161 148.24C515.569 149.737 519.781 148.671 520.773 147.373C520.957 146.969 521.149 146.368 521.19 146.186C521.209 146.085 521.236 145.921 521.244 145.858C521.259 145.742 521.266 145.651 521.269 145.621C521.274 145.548 521.277 145.491 521.278 145.475L521.278 145.475C521.281 145.412 521.282 145.354 521.282 145.348L521.282 145.348C521.283 145.313 521.283 145.266 521.284 145.225L521.285 145.182C521.288 144.994 521.293 144.677 521.303 144.302C521.31 144.02 521.319 143.716 521.331 143.421Z" fill="black"/>
<path fill-rule="evenodd" clip-rule="evenodd" d="M543.777 131.659C543.948 134.195 542.031 136.391 539.494 136.562C532.109 137.061 525.698 137.824 519.408 140.336C517.047 141.279 514.369 140.13 513.425 137.769C512.482 135.408 513.632 132.729 515.993 131.786C523.691 128.711 531.313 127.887 538.874 127.376C541.41 127.205 543.606 129.122 543.777 131.659Z" fill="black"/>
<path fill-rule="evenodd" clip-rule="evenodd" d="M558.621 133.965C558.513 134.821 558.411 135.717 558.305 136.663L558.301 136.699C558.138 138.142 557.963 139.693 557.74 141.245C557.294 144.346 556.62 147.755 555.26 150.89C555.153 151.138 554.946 151.578 554.602 152.038C554.373 152.344 553.43 153.568 551.628 153.891C549.315 154.307 547.76 152.966 547.157 152.226C546.608 151.553 546.371 150.882 546.286 150.628C545.962 149.663 545.902 148.504 545.875 147.977C545.801 146.522 545.839 144.693 545.891 143.73C546.162 138.706 546.546 133.663 546.924 128.681C547.064 126.841 547.203 125.009 547.336 123.189C547.475 121.285 548.754 119.736 550.456 119.161C550.56 118.879 550.752 118.442 551.09 117.986C551.552 117.364 552.766 116.113 554.806 116.113C556.526 116.113 557.76 116.963 558.251 117.332C558.868 117.795 559.383 118.335 559.772 118.781C560.562 119.69 561.324 120.797 561.954 121.774C562.604 122.781 563.21 123.805 563.679 124.606C563.792 124.798 563.89 124.967 563.98 125.121C564.089 125.308 564.185 125.474 564.278 125.632C564.437 125.901 564.505 126.011 564.518 126.033C564.52 126.036 564.521 126.037 564.521 126.037C564.77 126.407 565.026 126.827 565.242 127.185C565.281 127.249 565.319 127.312 565.357 127.374C565.55 127.693 565.736 128 565.936 128.319C566.246 128.813 566.538 129.249 566.815 129.621C566.945 129.396 567.085 129.127 567.239 128.803C567.454 128.349 567.641 127.908 567.865 127.382C567.949 127.184 568.039 126.973 568.137 126.745C568.463 125.987 568.872 125.069 569.386 124.173C569.897 123.283 571.333 121.346 574.034 121.347C576.351 121.349 577.761 122.849 578.199 123.349C579.258 124.56 579.983 126.257 580.417 127.359C580.924 128.649 581.361 130.021 581.678 131.079C581.839 131.617 581.974 132.091 582.075 132.454C582.124 132.63 582.166 132.781 582.197 132.897L582.24 133.052L582.252 133.095C582.255 133.104 582.256 133.108 582.256 133.108C582.589 134.26 582.879 135.335 583.152 136.349C584.03 139.604 584.737 142.224 586.151 144.708C587.41 146.917 586.639 149.728 584.43 150.986C582.22 152.245 579.409 151.474 578.151 149.265C576.091 145.649 574.99 141.521 574.073 138.083C573.886 137.381 573.706 136.708 573.528 136.075C572.887 136.865 572.106 137.631 571.143 138.289C569.084 139.694 566.728 139.993 564.537 139.239C562.654 138.592 561.282 137.303 560.402 136.315C559.714 135.544 559.116 134.712 558.621 133.965Z" fill="black"/>
<path fill-rule="evenodd" clip-rule="evenodd" d="M594.799 123.627C599.548 122.359 604.356 124.567 607.837 128.345L604.452 131.465L607.837 128.345C609.233 129.86 610.744 132.177 611.605 134.709C612.419 137.103 613.036 140.921 610.637 144.207C608.499 147.135 605.6 148.868 602.187 148.849C599.128 148.832 596.481 147.394 594.545 145.993C591.261 143.616 588.261 139.975 586.545 137.894C586.26 137.549 586.012 137.247 585.803 137.001C584.158 135.062 584.395 132.157 586.334 130.512C586.801 130.116 587.323 129.829 587.871 129.649C589.229 126.726 591.555 124.492 594.799 123.627ZM595.847 134.626C597.127 136.079 598.507 137.495 599.944 138.535C601.252 139.482 601.995 139.641 602.238 139.642C602.294 139.643 602.321 139.639 602.394 139.599C602.486 139.547 602.746 139.374 603.12 138.886C603.134 138.758 603.134 138.396 602.888 137.674C602.48 136.474 601.68 135.251 601.066 134.584C599.028 132.372 597.531 132.427 597.173 132.523C597.06 132.552 596.234 132.802 595.847 134.626ZM603.111 138.941C603.111 138.941 603.111 138.939 603.113 138.935C603.112 138.939 603.111 138.941 603.111 138.941Z" fill="black"/>
<path fill-rule="evenodd" clip-rule="evenodd" d="M616.423 123.538C618.82 122.691 621.45 123.947 622.297 126.345C622.675 127.415 623.152 129.196 623.666 131.116C623.94 132.14 624.225 133.205 624.512 134.222C625.417 137.439 626.487 140.813 627.767 143.548C628.405 144.911 629.034 145.982 629.631 146.75C630.193 147.473 630.577 147.736 630.725 147.814C630.735 147.811 630.747 147.807 630.76 147.802C631.022 147.709 631.747 147.334 632.891 146.063C634.017 144.814 634.929 142.754 635.437 140.092C635.901 137.663 635.957 135.094 635.73 132.944C634.582 132.655 633.545 131.926 632.894 130.826C631.598 128.639 632.321 125.815 634.508 124.519C635.603 123.871 637.162 123.265 638.978 123.537C640.899 123.824 642.208 124.951 642.982 125.999C644.284 127.76 644.646 130.052 644.807 131.304C645.211 134.447 645.172 138.198 644.481 141.818C643.8 145.384 642.402 149.26 639.734 152.224C638.002 154.147 636.062 155.687 633.852 156.474C631.498 157.314 629.133 157.188 627.006 156.238C625.02 155.351 623.503 153.869 622.36 152.399C621.2 150.906 620.236 149.178 619.428 147.45C617.815 144.005 616.582 140.033 615.649 136.717C615.231 135.231 614.889 133.949 614.601 132.864C614.188 131.315 613.883 130.169 613.616 129.412C612.769 127.015 614.025 124.385 616.423 123.538ZM635.414 131.202C635.414 131.202 635.415 131.205 635.418 131.211C635.415 131.205 635.414 131.202 635.414 131.202ZM630.667 147.828C630.667 147.828 630.668 147.828 630.671 147.828C630.668 147.828 630.667 147.829 630.667 147.828Z" fill="black"/>
<path fill-rule="evenodd" clip-rule="evenodd" d="M665.287 114.629C666.954 116.548 666.749 119.456 664.829 121.123C664.351 121.538 663.457 122.211 662.511 122.924C662.017 123.296 661.508 123.678 661.038 124.041C659.461 125.254 657.738 126.65 656.271 128.076C655.108 129.208 654.314 130.162 653.851 130.889C654.439 130.943 655.177 130.932 656.246 130.897C656.315 130.895 656.386 130.892 656.46 130.89C657.531 130.853 659.07 130.801 660.507 131.018C662.128 131.263 664.332 131.945 665.943 133.995C667.312 135.737 667.872 137.869 667.417 140.044C667.013 141.974 665.907 143.471 664.917 144.513C662.949 146.585 660.09 148.252 657.678 149.446C655.161 150.693 652.618 151.673 650.886 152.243C650.125 152.493 649.206 152.771 648.495 152.878C648.491 152.879 648.486 152.88 648.481 152.88C648.353 152.9 647.745 152.994 647.029 152.896C647.025 152.895 647.019 152.894 647.012 152.893C646.778 152.863 645.296 152.668 644.142 151.331C643.396 150.467 642.992 149.351 643.021 148.195C643.047 147.173 643.402 146.414 643.634 146.01C644.063 145.261 644.599 144.822 644.74 144.706L644.741 144.705C644.963 144.523 645.161 144.393 645.281 144.318C645.526 144.164 645.762 144.042 645.93 143.959C646.614 143.62 647.342 143.468 648.056 143.481C649.43 143.026 651.538 142.213 653.591 141.196C654.315 140.837 654.981 140.478 655.577 140.127C654.559 140.148 653.33 140.135 652.123 139.95C650.427 139.691 648.346 139.038 646.613 137.322C645.275 135.998 644.444 134.336 644.254 132.48C644.075 130.723 644.502 129.13 645.058 127.857C646.126 125.404 648.085 123.194 649.852 121.476C651.699 119.679 653.752 118.03 655.422 116.744C656.269 116.093 656.943 115.588 657.47 115.192C658.11 114.713 658.535 114.394 658.793 114.17C660.713 112.504 663.62 112.709 665.287 114.629ZM650.001 152.217C650.001 152.217 650.004 152.216 650.01 152.213C650.004 152.216 650.001 152.217 650.001 152.217ZM653.016 130.72C653.016 130.72 653.021 130.723 653.03 130.728C653.02 130.723 653.016 130.72 653.016 130.72ZM653.413 131.77C653.413 131.772 653.413 131.773 653.413 131.773C653.413 131.774 653.413 131.772 653.413 131.77Z" fill="black"/>
</svg>
