<svg width="615" height="640" viewBox="0 0 615 640" fill="none" xmlns="http://www.w3.org/2000/svg">
<path fill-rule="evenodd" clip-rule="evenodd" d="M614.703 38.7008V615.573C614.703 629.063 603.766 640 590.275 640H24.779C11.2881 640 0.351562 629.063 0.351562 615.573V24.4275C0.351562 10.9366 11.2881 0 24.779 0H77.2981V6.10687H90.9608L93.4035 3.66412H145.695V0H480.352V11.8306L487.297 4.8855H535.924V0H576.002L614.703 38.7008ZM95.008 15.8779H67.5271V9.77099H24.779C16.6845 9.77099 10.1226 16.3329 10.1226 24.4275V615.573C10.1226 623.667 16.6845 630.229 24.779 630.229H590.275C598.37 630.229 604.932 623.667 604.932 615.573V42.7481L571.955 9.77099H545.695V14.6565H491.344L480.962 25.0382H470.581V9.77099H155.466V13.4351H97.4508L95.008 15.8779Z" fill="#F6A5B8"/>
<path d="M10.1221 615.573V24.428C10.1221 16.3334 16.684 9.77148 24.7786 9.77148H67.5266V15.8784H95.0076L97.4503 13.4356H155.466V9.77148H470.58V25.0387H480.962L491.343 14.657H545.695V9.77148H571.954L604.931 42.7486V615.573C604.931 623.668 598.369 630.229 590.275 630.229H24.7786C16.684 630.229 10.1221 623.668 10.1221 615.573Z" fill="#F6A5B8"/>
<path fill-rule="evenodd" clip-rule="evenodd" d="M24.7793 10.4703C17.0714 10.4703 10.8229 16.7188 10.8229 24.4268V615.572C10.8229 623.28 17.0714 629.528 24.7793 629.528H590.276C597.983 629.528 604.232 623.28 604.232 615.572V43.0373L571.665 10.4703H546.395V15.3558H491.634L481.253 25.7375H471.281V197.862C471.281 208.367 462.765 216.883 452.26 216.883H85.848C75.3432 216.883 66.8274 208.367 66.8274 197.862V10.4703H24.7793ZM471.281 24.3375H480.673L491.054 13.9558H544.995V9.07031H572.245L605.632 42.4575V615.572C605.632 624.053 598.757 630.928 590.276 630.928H24.7793C16.2982 630.928 9.42285 624.053 9.42285 615.572V24.4268C9.42285 15.9456 16.2982 9.07031 24.7793 9.07031H68.2274V15.1772H94.7184L97.1611 12.7344H154.766V9.07031H471.281V24.3375ZM93.3184 16.5772H68.2274V20.6734H89.2222L93.3184 16.5772ZM68.2274 22.0734V197.862C68.2274 207.594 76.1164 215.483 85.848 215.483H452.26C461.992 215.483 469.881 207.594 469.881 197.862V10.4703H156.166V14.1344H97.741L89.8021 22.0734H68.2274Z" fill="black"/>
<path d="M155.466 9.77148H470.58V197.863C470.58 207.981 462.378 216.184 452.26 216.184H173.786C163.668 216.184 155.466 207.981 155.466 197.863V9.77148Z" fill="#F6A5B8"/>
<path fill-rule="evenodd" clip-rule="evenodd" d="M154.766 9.07031H471.28V197.862C471.28 208.367 462.764 216.883 452.26 216.883H173.786C163.281 216.883 154.766 208.367 154.766 197.862V9.07031ZM156.166 10.4703V197.862C156.166 207.593 164.055 215.482 173.786 215.482H452.26C461.991 215.482 469.88 207.593 469.88 197.862V10.4703H156.166Z" fill="black"/>
<path d="M341.115 45.1909C341.115 41.8181 343.849 39.084 347.222 39.084H415.619C418.992 39.084 421.726 41.8181 421.726 45.1909V197.863C421.726 201.235 418.992 203.969 415.619 203.969H347.222C343.849 203.969 341.115 201.235 341.115 197.863V45.1909Z" fill="#F6A5B8"/>
<path fill-rule="evenodd" clip-rule="evenodd" d="M340.415 45.1916C340.415 41.4323 343.463 38.3848 347.222 38.3848H415.619C419.378 38.3848 422.426 41.4323 422.426 45.1916V197.863C422.426 201.623 419.378 204.67 415.619 204.67H347.222C343.463 204.67 340.415 201.623 340.415 197.863V45.1916ZM347.222 39.7848C344.236 39.7848 341.815 42.2055 341.815 45.1916V197.863C341.815 200.85 344.236 203.27 347.222 203.27H415.619C418.605 203.27 421.026 200.85 421.026 197.863V45.1916C421.026 42.2055 418.605 39.7848 415.619 39.7848H347.222Z" fill="black"/>
<path d="M67.5273 282.137C67.5273 272.019 75.7298 263.816 85.848 263.816H529.207C539.325 263.816 547.527 272.019 547.527 282.137V630.229H67.5273V282.137Z" fill="#F6A5B8"/>
<path fill-rule="evenodd" clip-rule="evenodd" d="M66.8271 282.138C66.8271 271.633 75.343 263.117 85.8478 263.117H529.207C539.711 263.117 548.227 271.633 548.227 282.138V630.929H66.8271V282.138ZM85.8478 264.517C76.1162 264.517 68.2271 272.406 68.2271 282.138V629.529H546.827V282.138C546.827 272.406 538.938 264.517 529.207 264.517H85.8478Z" fill="black"/>
<path d="M67.5273 282.137C67.5273 272.019 75.7298 263.816 85.848 263.816H529.207C539.325 263.816 547.527 272.019 547.527 282.137V589.923C547.527 600.041 539.325 608.244 529.207 608.244H85.848C75.7298 608.244 67.5273 600.041 67.5273 589.923V282.137Z" fill="#F6A5B8"/>
<path fill-rule="evenodd" clip-rule="evenodd" d="M66.8271 282.138C66.8271 271.633 75.343 263.117 85.8478 263.117H529.207C539.711 263.117 548.227 271.633 548.227 282.138V589.924C548.227 600.429 539.711 608.945 529.207 608.945H85.8478C75.343 608.945 66.8271 600.429 66.8271 589.924V282.138ZM85.8478 264.517C76.1162 264.517 68.2271 272.406 68.2271 282.138V589.924C68.2271 599.656 76.1162 607.545 85.8478 607.545H529.207C538.938 607.545 546.827 599.656 546.827 589.924V282.138C546.827 272.406 538.938 264.517 529.207 264.517H85.8478Z" fill="black"/>
<path d="M28.4434 556.947H57.7563V586.26H28.4434V556.947Z" fill="#F6A5B8"/>
<path fill-rule="evenodd" clip-rule="evenodd" d="M27.7432 556.246H58.4561V586.959H27.7432V556.246ZM29.1432 557.646V585.559H57.0561V557.646H29.1432Z" fill="black"/>
<path d="M28.4434 556.947H57.7563V576.489H28.4434V556.947Z" fill="#F6A5B8"/>
<path fill-rule="evenodd" clip-rule="evenodd" d="M27.7432 556.246H58.4561V577.188H27.7432V556.246ZM29.1432 557.646V575.788H57.0561V557.646H29.1432Z" fill="black"/>
<path d="M557.298 556.947H586.611V586.26H557.298V556.947Z" fill="#F6A5B8"/>
<path fill-rule="evenodd" clip-rule="evenodd" d="M556.598 556.246H587.311V586.959H556.598V556.246ZM557.998 557.646V585.559H585.911V557.646H557.998Z" fill="black"/>
<path fill-rule="evenodd" clip-rule="evenodd" d="M29.6649 96.4891V79.3898H21.1152L35.7717 48.8555L50.4282 79.3898H41.8786V96.4891H35.7717H29.6649Z" fill="#F6A5B8"/>
<path fill-rule="evenodd" clip-rule="evenodd" d="M35.7719 47.2383L51.5408 80.0903H42.5787V97.1895H28.965V80.0903H20.0029L35.7719 47.2383ZM22.2279 78.6903H30.365V95.7895H41.1787V78.6903H49.3159L35.7719 50.4735L22.2279 78.6903Z" fill="black"/>
<path fill-rule="evenodd" clip-rule="evenodd" d="M447.348 553.158C445.99 550.584 442.836 549.501 440.169 550.743C437.417 552.025 436.225 555.294 437.506 558.046C438.347 559.853 440.673 563.653 443.033 565.93C443.641 566.517 444.563 567.314 445.731 567.866C446.857 568.399 449.318 569.18 451.857 567.692C454.164 566.34 454.845 564.055 455.076 562.929C455.344 561.628 455.352 560.215 455.262 558.847C454.666 556.697 452.885 554.676 452.483 554.425C452.317 554.335 452.057 554.208 451.966 554.167C451.819 554.103 451.7 554.06 451.67 554.049L451.669 554.048C451.587 554.018 451.521 553.996 451.503 553.991L451.503 553.99C451.452 553.974 451.41 553.961 451.391 553.955C451.345 553.94 451.298 553.926 451.255 553.913C451.166 553.887 451.054 553.855 450.925 553.819C450.667 553.748 450.313 553.655 449.907 553.562C449.33 553.43 448.37 553.229 447.348 553.158ZM450.798 558.14C450.808 558.148 450.813 558.152 450.813 558.152C450.813 558.152 450.808 558.149 450.798 558.14Z" fill="black"/>
<path fill-rule="evenodd" clip-rule="evenodd" d="M469.406 547.516C469.388 548.879 469.735 551.015 471.66 552.643C472.736 553.554 473.906 553.957 474.949 554.107C476.368 555.214 478.143 556.158 480.236 556.315C482.99 556.521 485.211 555.296 486.654 553.698C487.959 552.252 488.64 550.53 489.005 549.131C489.727 546.369 489.695 543.023 488.798 540.301C488.364 538.984 487.483 537.067 485.634 535.725C483.359 534.075 480.588 533.983 478.219 535.079C476.304 535.964 474.647 537.611 473.561 538.862C473.367 539.086 473.172 539.318 472.979 539.558C472.382 539.7 471.798 539.944 471.254 540.297C468.833 541.868 468.058 545.021 469.406 547.516Z" fill="black"/>
<path fill-rule="evenodd" clip-rule="evenodd" d="M512.382 574.631C511.985 575.253 511.625 575.816 511.387 576.178C504.905 586.026 497.277 592.462 487.793 593.9C478.467 595.315 468.864 591.648 458.955 584.957C456.439 583.258 455.777 579.842 457.476 577.326C459.175 574.81 462.591 574.148 465.107 575.847C474.117 581.931 480.843 583.836 486.144 583.032C491.287 582.252 496.582 578.678 502.205 570.134C502.398 569.842 502.697 569.374 503.081 568.772C503.201 568.583 503.33 568.382 503.467 568.168C504.019 567.305 504.668 566.295 505.287 565.36C505.885 564.457 506.536 563.5 507.074 562.799C507.27 562.543 507.731 561.944 508.304 561.442C508.471 561.296 508.784 561.036 509.212 560.783C509.527 560.598 510.538 560.025 511.973 560.003C513.94 559.971 515.812 560.99 516.837 562.738C517.582 564.01 517.604 565.207 517.604 565.58C517.604 567.345 516.772 568.916 515.479 569.921C515.208 570.302 514.86 570.813 514.453 571.428C513.884 572.287 513.275 573.235 512.727 574.091C512.61 574.274 512.495 574.455 512.382 574.631ZM515.901 569.358C515.901 569.358 515.893 569.368 515.877 569.386C515.893 569.366 515.901 569.357 515.901 569.358ZM506.62 565.89C506.612 565.754 506.611 565.648 506.611 565.58C506.611 565.684 506.614 565.787 506.62 565.89Z" fill="black"/>
<path fill-rule="evenodd" clip-rule="evenodd" d="M117.103 363.862C117.838 366.808 116.046 369.791 113.101 370.526C110.533 371.166 107.826 372.186 105.736 373.596C103.664 374.992 102.642 376.449 102.351 377.948L102.351 377.95C102.327 378.072 102.309 378.164 102.479 378.458C102.719 378.872 103.253 379.491 104.273 380.265C105.984 381.562 108.026 382.575 110.11 383.608C110.652 383.877 111.198 384.148 111.741 384.425C115.04 386.11 118.778 389 119.363 393.665C119.964 398.465 116.893 402.196 113.753 404.674C112.949 405.308 112.033 405.727 111.495 405.958C110.835 406.242 110.099 406.509 109.354 406.752C107.863 407.238 106.095 407.702 104.372 408.035C102.735 408.352 100.774 408.623 99.0361 408.534C98.2353 408.494 96.8932 408.356 95.5725 407.696C93.9822 406.901 92.0518 405.061 92.0518 402.094C92.0518 399.058 94.5125 396.598 97.548 396.598C98.6668 396.598 99.7076 396.932 100.576 397.506C101.03 397.458 101.604 397.374 102.286 397.243C103.557 396.997 104.886 396.647 105.949 396.3C106.482 396.127 106.888 395.974 107.153 395.86C107.168 395.853 107.181 395.847 107.194 395.842C107.584 395.518 107.866 395.242 108.067 395.02C107.771 394.797 107.343 394.522 106.743 394.216C106.431 394.056 106.056 393.872 105.633 393.664C103.541 392.635 100.274 391.027 97.6325 389.025C94.53 386.673 90.3147 382.275 91.5598 375.855C92.5913 370.537 96.0483 366.87 99.5899 364.482C103.113 362.106 107.152 360.68 110.44 359.86C113.385 359.125 116.368 360.917 117.103 363.862ZM107.361 395.763C107.361 395.763 107.353 395.768 107.336 395.776C107.352 395.767 107.36 395.763 107.361 395.763ZM99.5171 397.549C99.518 397.548 99.5388 397.55 99.5767 397.555C99.5352 397.553 99.5162 397.55 99.5171 397.549Z" fill="black"/>
<path fill-rule="evenodd" clip-rule="evenodd" d="M135.274 367.039C138.301 367.269 140.568 369.908 140.339 372.935C140.014 377.223 140.295 381.258 140.608 385.748C140.739 387.636 140.876 389.605 140.976 391.707C141.009 392.41 141.006 393.228 141.003 393.867C141.003 394.067 141.002 394.249 141.002 394.405C141.005 395.206 141.03 395.762 141.093 396.196C141.099 396.238 141.105 396.277 141.111 396.312C141.512 396.368 142.298 396.361 143.603 395.942C145.376 395.373 147.188 394.317 148.389 393.366C150.769 391.482 154.226 391.883 156.11 394.263C157.995 396.643 157.593 400.099 155.213 401.984C153.136 403.629 150.171 405.379 146.962 406.409C143.904 407.39 139.515 408.058 135.519 405.876C131.751 403.818 130.581 400.301 130.214 397.774C130.036 396.541 130.013 395.349 130.01 394.439C130.009 394.088 130.01 393.793 130.011 393.533C130.013 393.01 130.015 392.63 129.996 392.229C129.921 390.657 129.806 388.999 129.687 387.281C129.354 382.494 128.989 377.243 129.378 372.105C129.607 369.078 132.247 366.81 135.274 367.039Z" fill="black"/>
<path fill-rule="evenodd" clip-rule="evenodd" d="M129.206 379.85C129.206 376.814 131.667 374.354 134.702 374.354H157.908C160.944 374.354 163.405 376.814 163.405 379.85C163.405 382.885 160.944 385.346 157.908 385.346H134.702C131.667 385.346 129.206 382.885 129.206 379.85Z" fill="black"/>
<path fill-rule="evenodd" clip-rule="evenodd" d="M156.023 368.597C149.199 367.766 143.251 368.421 136.244 370.468C133.331 371.32 130.278 369.648 129.427 366.734C128.576 363.821 130.248 360.769 133.161 359.917C141.354 357.523 148.814 356.645 157.352 357.685C160.365 358.052 162.51 360.792 162.143 363.805C161.776 366.818 159.036 368.964 156.023 368.597Z" fill="black"/>
<path fill-rule="evenodd" clip-rule="evenodd" d="M180.009 363.363C183.044 363.426 185.452 365.938 185.389 368.973C185.27 374.601 184.331 385.495 183.44 393.531C182.999 397.51 182.54 401.062 182.164 402.98C182.077 403.419 181.943 404.055 181.741 404.637C181.74 404.641 181.738 404.647 181.736 404.654C181.681 404.816 181.368 405.748 180.623 406.615C180.269 407.026 178.915 408.491 176.553 408.55C173.914 408.617 172.407 406.924 171.917 406.243C171.4 405.525 171.178 404.851 171.098 404.597C170.995 404.267 170.937 403.982 170.904 403.795C170.837 403.422 170.805 403.068 170.786 402.804C170.747 402.258 170.733 401.602 170.733 400.884C170.733 399.612 171.165 398.442 171.89 397.51C172.082 396.066 172.294 394.304 172.514 392.32C173.399 384.342 174.291 373.853 174.399 368.742C174.463 365.707 176.974 363.299 180.009 363.363ZM181.754 402.058C181.754 402.058 181.753 402.054 181.753 402.047C181.753 402.054 181.754 402.058 181.754 402.058Z" fill="black"/>
<path fill-rule="evenodd" clip-rule="evenodd" d="M204.251 363.361C207.287 363.361 209.747 365.822 209.747 368.858C209.747 370.226 209.764 371.649 209.78 373.109C209.827 377.213 209.878 381.604 209.578 385.86C209.572 385.948 209.564 386.073 209.554 386.229C209.494 387.206 209.357 389.408 209.044 391.527C208.864 392.746 208.593 394.188 208.154 395.5C207.935 396.155 207.616 396.953 207.14 397.731C206.696 398.458 205.854 399.597 204.408 400.363C201.486 401.91 198.651 401.05 197.104 400.317C195.493 399.553 194.112 398.413 193.097 397.46C191.024 395.511 189.307 393.21 188.663 392.275C187.451 390.516 186.544 388.411 185.852 386.76C185.715 386.435 185.584 386.12 185.458 385.816C184.866 384.394 184.369 383.198 183.796 382.101C183.098 380.763 182.584 380.185 182.304 379.97C182.294 379.962 182.287 379.954 182.28 379.947C182.247 379.912 182.226 379.89 181.955 379.932C178.955 380.396 176.147 378.341 175.683 375.341C175.218 372.342 177.274 369.533 180.273 369.069C183.66 368.545 186.639 369.434 189.012 371.262C191.164 372.919 192.571 375.157 193.54 377.013C194.358 378.579 195.076 380.31 195.666 381.734C195.778 382.005 195.886 382.264 195.989 382.509C196.717 384.246 197.236 385.344 197.715 386.04C197.868 386.261 198.135 386.627 198.479 387.063C198.52 386.528 198.551 386.043 198.576 385.643C198.59 385.433 198.602 385.246 198.613 385.087C198.879 381.314 198.836 377.604 198.791 373.653C198.773 372.098 198.755 370.506 198.755 368.858C198.755 365.822 201.216 363.361 204.251 363.361ZM201.828 390.391C201.828 390.391 201.825 390.39 201.82 390.387C201.825 390.389 201.828 390.391 201.828 390.391Z" fill="black"/>
<path fill-rule="evenodd" clip-rule="evenodd" d="M234.489 363.372C237.517 363.17 240.136 365.461 240.339 368.489C240.516 371.15 240.626 373.7 240.731 376.171C241.007 382.62 241.26 388.533 242.649 394.475C243.34 397.431 241.504 400.387 238.549 401.078C235.593 401.769 232.637 399.933 231.946 396.977C230.302 389.946 229.986 382.51 229.698 375.745C229.602 373.482 229.509 371.294 229.371 369.222C229.169 366.193 231.46 363.574 234.489 363.372Z" fill="black"/>
<path fill-rule="evenodd" clip-rule="evenodd" d="M258.619 363.209C259.04 366.215 256.944 368.994 253.938 369.415C241.873 371.104 230.618 372.783 218.978 375.437C216.018 376.112 213.072 374.26 212.397 371.3C211.723 368.34 213.575 365.394 216.535 364.72C228.669 361.953 240.326 360.221 252.414 358.528C255.42 358.107 258.198 360.203 258.619 363.209Z" fill="black"/>
<path fill-rule="evenodd" clip-rule="evenodd" d="M308.861 367.046C311.884 366.772 314.558 369 314.832 372.023C315.129 375.287 315.333 378.632 315.531 381.923L315.544 382.136C315.74 385.381 315.933 388.58 316.209 391.756C316.773 398.262 317.661 404.376 319.468 409.894C320.412 412.779 318.839 415.883 315.954 416.827C313.07 417.772 309.965 416.199 309.021 413.314C306.826 406.609 305.848 399.517 305.257 392.705C304.969 389.384 304.769 386.059 304.575 382.855C304.57 382.765 304.565 382.675 304.559 382.585C304.359 379.27 304.164 376.089 303.885 373.017C303.61 369.994 305.838 367.321 308.861 367.046Z" fill="black"/>
<path fill-rule="evenodd" clip-rule="evenodd" d="M334.356 368.187C334.725 371.2 332.582 373.942 329.569 374.311C315.397 376.049 301.393 378.63 287.271 381.566C284.299 382.183 281.389 380.275 280.771 377.303C280.154 374.331 282.062 371.421 285.034 370.803C299.302 367.837 313.636 365.19 328.232 363.401C331.245 363.031 333.987 365.174 334.356 368.187Z" fill="black"/>
<path fill-rule="evenodd" clip-rule="evenodd" d="M334.518 368.519C337.402 367.574 340.507 369.146 341.452 372.03C344.698 381.936 347.186 391.843 348.972 402.113C349.492 405.104 347.49 407.95 344.499 408.47C341.509 408.99 338.663 406.987 338.142 403.997C336.449 394.26 334.091 384.867 331.006 375.453C330.061 372.569 331.633 369.464 334.518 368.519Z" fill="black"/>
<path fill-rule="evenodd" clip-rule="evenodd" d="M365.026 376.514C366.867 378.927 366.404 382.376 363.991 384.217C359.928 387.318 355.619 390.04 351.453 392.605C350.716 393.059 349.985 393.506 349.261 393.95C345.822 396.057 342.519 398.081 339.334 400.261C336.829 401.976 333.408 401.335 331.694 398.83C329.979 396.325 330.62 392.905 333.125 391.19C336.562 388.838 340.148 386.641 343.592 384.531C344.298 384.099 344.998 383.67 345.69 383.244C349.824 380.699 353.729 378.22 357.323 375.479C359.736 373.637 363.185 374.101 365.026 376.514Z" fill="black"/>
<path fill-rule="evenodd" clip-rule="evenodd" d="M358.029 372.578C360.695 371.127 364.033 372.112 365.484 374.778C368.257 379.873 369.518 385.301 370.439 390.214C370.69 391.555 370.915 392.837 371.131 394.075C371.749 397.61 372.303 400.781 373.247 403.911C374.123 406.817 372.477 409.883 369.571 410.759C366.665 411.635 363.598 409.99 362.722 407.083C361.57 403.262 360.857 399.169 360.212 395.474C360.017 394.353 359.828 393.269 359.635 392.24C358.758 387.561 357.742 383.547 355.829 380.033C354.378 377.367 355.363 374.029 358.029 372.578Z" fill="black"/>
<path fill-rule="evenodd" clip-rule="evenodd" d="M381.523 364.696C384.494 364.078 387.405 365.986 388.023 368.958C390.138 379.126 392.638 389.081 395.288 399.222C396.055 402.159 394.297 405.162 391.36 405.929C388.423 406.697 385.42 404.938 384.652 402.001C381.989 391.81 379.433 381.641 377.261 371.197C376.643 368.225 378.551 365.314 381.523 364.696Z" fill="black"/>
<path fill-rule="evenodd" clip-rule="evenodd" d="M437.18 366.994C437.534 370.008 435.378 372.74 432.363 373.094C429.689 373.408 425.346 374.249 422.64 375.682C422.215 375.907 421.921 376.1 421.721 376.248C421.8 376.37 421.903 376.516 422.037 376.688C423.665 378.789 425.876 380.788 428.527 382.929C429.395 383.63 430.37 384.391 431.383 385.181C433.197 386.596 435.13 388.104 436.777 389.526C438.265 390.81 439.721 392.524 440.348 394.756C441.043 397.23 440.504 399.556 439.359 401.383C438.326 403.03 436.869 404.187 435.619 404.988C434.32 405.82 432.876 406.497 431.478 407.054C426.649 408.976 420.444 410.167 417.571 410.718C417.227 410.784 416.931 410.841 416.691 410.889C413.714 411.481 410.82 409.548 410.228 406.57C409.635 403.593 411.569 400.7 414.546 400.107C414.852 400.047 415.197 399.98 415.573 399.907C418.594 399.32 423.651 398.338 427.412 396.841C427.644 396.749 427.862 396.658 428.067 396.568C427.076 395.761 426.067 394.976 425.002 394.147C423.943 393.323 422.828 392.456 421.621 391.481C418.798 389.202 415.779 386.558 413.348 383.421C410.953 380.331 409.653 376.531 411.088 372.632C412.351 369.2 415.259 367.153 417.495 365.968C422.087 363.535 428.134 362.523 431.08 362.177C434.094 361.822 436.826 363.979 437.18 366.994ZM429.981 398.231C429.981 398.231 429.979 398.228 429.975 398.223C429.979 398.228 429.981 398.231 429.981 398.231ZM421.471 375.762C421.473 375.762 421.481 375.783 421.488 375.823C421.472 375.781 421.468 375.761 421.471 375.762Z" fill="black"/>
<path fill-rule="evenodd" clip-rule="evenodd" d="M91.2577 449.202C94.1023 448.143 97.267 449.591 98.3262 452.435C100.48 458.22 101.835 464.079 103.049 469.627C103.195 470.294 103.338 470.956 103.481 471.613C104.546 476.52 105.551 481.146 106.971 485.691C107.876 488.588 106.261 491.671 103.364 492.576C100.467 493.482 97.3842 491.867 96.4789 488.969C94.9022 483.923 93.7886 478.787 92.7351 473.93C92.5927 473.273 92.4514 472.621 92.3102 471.975C91.1015 466.448 89.8823 461.26 88.0247 456.271C86.9655 453.426 88.413 450.262 91.2577 449.202Z" fill="black"/>
<path fill-rule="evenodd" clip-rule="evenodd" d="M99.6638 459.215C95.1815 460.176 91.113 462.217 88.3651 464.767C86.1403 466.832 82.6628 466.703 80.5977 464.478C78.5327 462.253 78.6623 458.776 80.887 456.711C85.3092 452.606 91.2632 449.774 97.3588 448.467C103.451 447.16 110.171 447.275 116.107 449.655C120.507 451.419 124.421 454.782 126.799 458.951C129.218 463.191 130.21 468.627 127.903 473.996C126.793 476.579 124.417 479.209 122.126 481.302C119.674 483.542 116.627 485.792 113.473 487.481C110.476 489.085 106.667 490.573 102.909 490.363C100.902 490.25 98.7432 489.639 96.8567 488.143C94.9664 486.644 93.7816 484.598 93.1366 482.365C92.2942 479.449 93.9753 476.402 96.8915 475.56C99.8078 474.717 102.855 476.398 103.697 479.314C103.705 479.341 103.712 479.366 103.72 479.389C104.522 479.364 106.078 478.971 108.284 477.79C110.529 476.588 112.84 474.897 114.712 473.187C115.64 472.339 116.402 471.538 116.964 470.854C117.244 470.514 117.453 470.228 117.6 470.003C117.753 469.769 117.804 469.655 117.804 469.657C118.475 468.095 118.339 466.305 117.251 464.398C116.123 462.42 114.151 460.714 112.018 459.858C108.563 458.474 104.15 458.253 99.6638 459.215ZM103.842 479.688C103.842 479.689 103.84 479.685 103.835 479.678C103.84 479.684 103.842 479.688 103.842 479.688Z" fill="black"/>
<path fill-rule="evenodd" clip-rule="evenodd" d="M142.376 448.886C148.979 448.454 154.753 452.632 157.905 459.364C160.794 465.537 160.359 473.209 155.971 478.931C153.413 482.267 149.932 484.559 145.67 484.249C141.87 483.973 138.936 481.684 137.008 479.737C133.546 476.241 130.712 471.07 129.178 468.272C128.993 467.936 128.828 467.634 128.682 467.373C128.021 466.189 127.845 464.864 128.089 463.63C127.901 462.688 127.958 461.685 128.305 460.715C130.677 454.067 135.887 449.31 142.376 448.886ZM139.06 463.42C140.675 466.334 142.637 469.799 144.819 472.003C145.59 472.781 146.097 473.093 146.338 473.214C146.523 473.075 146.827 472.792 147.248 472.242C148.927 470.053 149.252 466.808 147.949 464.024C146.201 460.289 144.076 459.791 143.093 459.855C142.105 459.92 140.334 460.665 139.06 463.42ZM146.12 473.336C146.12 473.33 146.15 473.313 146.21 473.3C146.15 473.334 146.12 473.341 146.12 473.336Z" fill="black"/>
<path fill-rule="evenodd" clip-rule="evenodd" d="M183.73 454.041C185.251 456.667 184.356 460.03 181.729 461.552L181.68 461.58C177.787 463.836 174.864 465.528 173.144 467.544C172.401 468.415 172.092 469.128 171.994 469.771C171.897 470.406 171.929 471.468 172.696 473.169C173.008 473.861 173.301 474.056 173.491 474.158C173.777 474.312 174.34 474.493 175.377 474.505C177.346 474.529 179.515 474.004 182.095 473.38C182.555 473.268 183.028 473.154 183.516 473.039C186.47 472.341 189.43 474.17 190.128 477.125C190.826 480.079 188.996 483.039 186.042 483.737C185.719 483.813 185.359 483.902 184.967 483.999C182.487 484.613 178.739 485.539 175.243 485.497C173.096 485.471 170.627 485.098 168.289 483.841C165.853 482.533 163.926 480.461 162.676 477.689C161.218 474.457 160.649 471.244 161.128 468.112C161.605 464.988 163.048 462.441 164.783 460.407C167.777 456.901 172.229 454.338 175.473 452.47C175.73 452.323 175.979 452.179 176.219 452.04C178.845 450.519 182.208 451.414 183.73 454.041Z" fill="black"/>
<path fill-rule="evenodd" clip-rule="evenodd" d="M245.674 448.126C248.438 449.379 249.664 452.636 248.411 455.401C248.046 456.207 247.682 457.004 247.322 457.794C243.997 465.085 240.949 471.767 239.539 478.903C239.543 478.881 239.546 478.869 239.546 478.869C239.549 478.87 239.527 479.042 239.476 479.521C239.47 479.575 239.464 479.631 239.458 479.688C239.411 480.13 239.353 480.677 239.297 481.128C239.266 481.37 239.225 481.684 239.172 481.975C239.151 482.094 239.098 482.378 239.004 482.7C238.967 482.83 238.851 483.221 238.621 483.677C238.511 483.896 238.261 484.363 237.82 484.861C237.44 485.291 236.378 486.36 234.569 486.65C232.437 486.993 230.795 486.046 229.918 485.219C229.166 484.51 228.807 483.767 228.675 483.477C228.394 482.853 228.294 482.314 228.268 482.173L228.266 482.167C228.195 481.779 228.173 481.437 228.165 481.299C228.143 480.946 228.138 480.525 228.138 480.089C228.138 479.306 228.301 478.562 228.596 477.888C228.635 477.54 228.687 477.114 228.745 476.821C230.418 468.32 234.031 460.42 237.291 453.293C237.666 452.473 238.037 451.663 238.399 450.864C239.652 448.099 242.909 446.873 245.674 448.126Z" fill="black"/>
<path fill-rule="evenodd" clip-rule="evenodd" d="M232.964 448.531C234.83 446.137 238.284 445.71 240.678 447.576C253.17 457.316 257.078 469.345 260.885 482.093C261.754 485.002 260.1 488.064 257.192 488.933C254.283 489.801 251.221 488.148 250.352 485.239C246.562 472.545 243.417 463.65 233.919 456.245C231.525 454.379 231.097 450.925 232.964 448.531Z" fill="black"/>
<path fill-rule="evenodd" clip-rule="evenodd" d="M268.417 467.25C268.714 470.271 266.505 472.96 263.484 473.257C255.814 474.011 248.114 474.578 240.488 475.14C237.926 475.328 235.373 475.516 232.831 475.71C229.805 475.942 227.164 473.676 226.932 470.649C226.701 467.623 228.967 464.982 231.994 464.75C234.604 464.551 237.2 464.359 239.787 464.169C247.377 463.61 254.885 463.057 262.409 462.318C265.43 462.021 268.12 464.229 268.417 467.25Z" fill="black"/>
<path fill-rule="evenodd" clip-rule="evenodd" d="M275.34 452.521C278.376 452.521 280.837 454.982 280.837 458.018C280.837 460.635 280.789 463.167 280.743 465.643C280.667 469.698 280.594 473.604 280.736 477.495C282.672 478.837 283.594 481.332 282.837 483.691C282.598 484.435 282.314 485.279 282.002 486.017C281.849 486.381 281.632 486.854 281.347 487.329C281.153 487.654 280.536 488.669 279.368 489.436C278.697 489.877 277.608 490.39 276.195 490.384C274.712 490.378 273.498 489.804 272.656 489.129C271.277 488.025 270.791 486.59 270.657 486.195C270.282 485.087 270.127 483.772 270.031 482.628C269.538 476.739 269.652 470.58 269.759 464.806C269.802 462.465 269.844 460.188 269.844 458.018C269.844 454.982 272.305 452.521 275.34 452.521ZM271.842 481.817C271.842 481.817 271.843 481.815 271.844 481.812C271.843 481.815 271.842 481.817 271.842 481.817Z" fill="black"/>
<path fill-rule="evenodd" clip-rule="evenodd" d="M299.949 437.863C302.984 437.863 305.445 440.324 305.445 443.359C305.445 447.104 305.903 450.931 306.408 455.155C306.577 456.562 306.751 458.014 306.914 459.52C307.538 465.257 307.981 471.627 306.72 477.796C306.308 479.81 305.14 482.516 302.164 483.739C299.514 484.828 297.067 484.01 295.886 483.5C293.556 482.495 291.394 480.554 290.542 479.79C290.502 479.754 290.465 479.721 290.431 479.69C286.945 476.572 284.053 472.971 281.483 469.772C281.332 469.584 281.182 469.397 281.033 469.212C278.246 465.746 275.774 462.753 272.855 460.311C270.527 458.363 270.219 454.897 272.167 452.569C274.115 450.241 277.581 449.933 279.909 451.881C283.773 455.114 286.869 458.929 289.599 462.323C289.69 462.437 289.781 462.55 289.872 462.663C292.18 465.534 294.241 468.096 296.518 470.333C296.602 467.364 296.362 464.168 295.986 460.708C295.855 459.497 295.703 458.237 295.548 456.944C295.023 452.571 294.452 447.825 294.452 443.359C294.452 440.324 296.913 437.863 299.949 437.863ZM300.241 473.407C300.24 473.407 300.24 473.407 300.239 473.407C300.25 473.411 300.251 473.412 300.241 473.407Z" fill="black"/>
<path fill-rule="evenodd" clip-rule="evenodd" d="M317.743 442.927C320.68 442.161 323.682 443.921 324.449 446.858C325.069 449.237 325.633 451.579 326.186 453.873C328.154 462.043 329.975 469.603 333.669 476.046C335.179 478.68 334.268 482.038 331.635 483.548C329.002 485.058 325.643 484.147 324.133 481.514C319.572 473.557 317.275 463.947 315.277 455.592C314.781 453.513 314.302 451.512 313.812 449.633C313.046 446.696 314.806 443.693 317.743 442.927Z" fill="black"/>
<path fill-rule="evenodd" clip-rule="evenodd" d="M321.445 454.85C320.056 455.03 318.677 455.208 317.315 455.365C314.3 455.712 311.574 453.548 311.227 450.533C310.88 447.517 313.043 444.791 316.059 444.444C317.108 444.324 318.267 444.172 319.509 444.01C324.435 443.368 330.666 442.555 336.555 442.792C344.033 443.094 352.475 445.104 358.11 452.417C364.285 460.431 360.561 469.82 354.754 474.706C353.505 475.758 351.28 476.908 349.314 477.833C347.107 478.87 344.407 479.994 341.703 480.926C339.065 481.835 336.133 482.663 333.555 482.947C332.294 483.086 330.738 483.141 329.205 482.791C327.66 482.438 325.348 481.459 324.098 478.916C322.759 476.192 323.881 472.898 326.606 471.559C328.491 470.632 330.65 470.885 332.245 472.032C332.279 472.028 332.315 472.025 332.353 472.021C333.728 471.869 335.76 471.347 338.122 470.533C340.418 469.742 342.752 468.771 344.638 467.884C346.558 466.982 347.5 466.404 347.654 466.309C347.671 466.299 347.678 466.295 347.676 466.296C349.075 465.119 349.908 463.689 350.176 462.436C350.417 461.307 350.244 460.218 349.403 459.126C346.683 455.597 342.25 454.023 336.112 453.776C331.261 453.58 326.287 454.223 321.445 454.85Z" fill="black"/>
<path fill-rule="evenodd" clip-rule="evenodd" d="M406.654 433.317C408.828 435.436 408.874 438.915 406.755 441.089C403.353 444.582 399.733 448.614 397.5 452.841C395.306 456.996 394.841 460.548 396.344 463.799C397.472 466.239 399.455 467.63 402.01 468.163C404.7 468.725 407.93 468.277 410.752 466.866C412.245 466.119 412.469 465.376 412.534 465.01C412.638 464.421 412.488 463.518 411.888 462.631C411.271 461.719 410.605 461.436 410.372 461.397C410.299 461.385 410.241 461.386 410.134 461.429C410.012 461.478 409.651 461.657 409.135 462.26C407.16 464.566 403.69 464.833 401.385 462.859C399.08 460.884 398.812 457.414 400.787 455.109C403.861 451.52 407.945 449.862 412.146 450.549C416.024 451.183 419.097 453.669 420.993 456.472C422.907 459.301 424.044 463.06 423.357 466.932C422.63 471.026 419.982 474.539 415.67 476.697C410.861 479.103 405.116 480.041 399.763 478.923C394.275 477.777 389.145 474.421 386.367 468.413C382.878 460.868 384.711 453.518 387.78 447.707C390.811 441.97 395.419 436.973 398.882 433.419C401 431.244 404.48 431.199 406.654 433.317Z" fill="black"/>
<path fill-rule="evenodd" clip-rule="evenodd" d="M437.698 445.825C441.149 443.453 445.199 443.579 449.085 444.967C455.32 447.194 461.146 453.334 461.412 460.735C461.695 468.633 454.596 474.931 446.797 474.483C443.369 474.286 440.355 473.003 438.229 470.492C436.24 468.143 435.557 465.333 435.349 463.036C435.272 462.186 435.255 461.321 435.281 460.462C432.784 459.302 431.499 456.428 432.386 453.752C433.211 451.262 434.645 447.924 437.698 445.825ZM446.935 456.072C449.047 457.396 450.37 459.557 450.427 461.13C450.44 461.514 450.264 462.118 449.65 462.689C449.051 463.245 448.25 463.556 447.428 463.508C446.951 463.481 446.708 463.408 446.602 463.361C446.546 463.261 446.374 462.9 446.297 462.046C446.14 460.308 446.481 458.169 446.935 456.072ZM446.534 463.319C446.537 463.317 446.556 463.326 446.584 463.353C446.546 463.334 446.532 463.321 446.534 463.319Z" fill="black"/>
<path fill-rule="evenodd" clip-rule="evenodd" d="M475.596 450.187C478.571 449.584 481.471 451.507 482.074 454.482C483.497 461.512 484.66 468.495 485.778 475.467C486.258 478.464 484.218 481.283 481.221 481.764C478.223 482.244 475.404 480.204 474.924 477.206C473.811 470.262 472.677 463.463 471.3 456.665C470.697 453.69 472.621 450.789 475.596 450.187Z" fill="black"/>
<path fill-rule="evenodd" clip-rule="evenodd" d="M497.805 446.194C495.822 445.379 494.752 445.127 493.238 445.207C483.334 445.73 473.484 447.927 463.697 451.041C460.805 451.962 457.714 450.363 456.793 447.471C455.873 444.578 457.472 441.487 460.364 440.567C470.728 437.269 481.538 434.817 492.658 434.23C496.436 434.031 499.223 434.893 501.982 436.025C504.789 437.179 506.131 440.39 504.978 443.198C503.824 446.005 500.613 447.347 497.805 446.194Z" fill="black"/>
<path fill-rule="evenodd" clip-rule="evenodd" d="M86.994 536.184C89.6921 534.793 93.0068 535.853 94.3974 538.552C97.7265 545.011 100.115 551.816 102.381 558.276C103.177 560.544 103.958 562.768 104.759 564.921C104.965 565.474 105.11 565.858 105.251 566.19C105.382 566.495 105.47 566.66 105.524 566.749C108.176 568.156 109.212 571.439 107.835 574.117C106.447 576.817 103.134 577.88 100.434 576.492C96.5711 574.506 95.2861 571.01 94.5651 569.048C94.5277 568.946 94.4918 568.849 94.4571 568.755C93.4964 566.175 92.6251 563.692 91.7789 561.281C89.5954 555.061 87.5791 549.316 84.6265 543.588C83.2359 540.889 84.2958 537.575 86.994 536.184Z" fill="black"/>
<path fill-rule="evenodd" clip-rule="evenodd" d="M117.43 540.496C114.363 540.426 112.25 540.378 109.093 541.25C102.993 542.936 98.4597 545.92 92.9055 550.279C90.5177 552.153 87.0627 551.737 85.1886 549.349C83.3144 546.961 83.7308 543.506 86.1186 541.632C92.0425 536.982 97.9513 532.925 106.165 530.655C110.977 529.326 115.31 529.421 118.985 529.502C120.179 529.528 121.303 529.553 122.353 529.527C125.387 529.451 127.908 531.85 127.984 534.885C128.059 537.919 125.66 540.44 122.626 540.516C120.54 540.568 118.879 540.53 117.43 540.496Z" fill="black"/>
<path fill-rule="evenodd" clip-rule="evenodd" d="M128.934 550.354C129.877 553.239 128.303 556.343 125.418 557.286C116.47 560.212 107.497 563.111 98.441 565.869C95.5373 566.754 92.4663 565.117 91.5818 562.213C90.6972 559.31 92.3341 556.239 95.2378 555.354C104.184 552.629 113.072 549.758 122.001 546.838C124.886 545.895 127.99 547.469 128.934 550.354Z" fill="black"/>
<path fill-rule="evenodd" clip-rule="evenodd" d="M142.55 539.585C145.393 538.523 148.56 539.967 149.622 542.811C152.054 549.322 154.496 555.832 156.945 562.34C158.015 565.181 156.578 568.351 153.737 569.42C150.896 570.489 147.727 569.053 146.658 566.212C144.205 559.696 141.761 553.178 139.325 546.657C138.262 543.814 139.706 540.648 142.55 539.585Z" fill="black"/>
<path fill-rule="evenodd" clip-rule="evenodd" d="M129.787 517.85C131.144 515.135 134.445 514.035 137.16 515.392L139.603 516.613C142.318 517.971 143.419 521.272 142.061 523.987C140.704 526.702 137.402 527.803 134.687 526.445L132.244 525.224C129.53 523.866 128.429 520.565 129.787 517.85Z" fill="black"/>
<path fill-rule="evenodd" clip-rule="evenodd" d="M171.272 532.064C174.222 531.35 177.193 533.163 177.907 536.113C180.081 545.099 182.515 553.848 185.159 562.703C186.028 565.611 184.374 568.673 181.466 569.542C178.557 570.411 175.495 568.757 174.627 565.849C171.943 556.863 169.455 547.921 167.223 538.698C166.509 535.748 168.322 532.778 171.272 532.064Z" fill="black"/>
<path fill-rule="evenodd" clip-rule="evenodd" d="M180.677 537.152C179.63 537.263 178.507 537.383 177.6 537.439C174.57 537.625 171.963 535.32 171.777 532.291C171.59 529.261 173.895 526.654 176.925 526.467C177.587 526.427 178.288 526.351 179.167 526.257C179.671 526.203 180.234 526.142 180.883 526.078C182.499 525.919 184.428 525.767 186.393 525.81C189.996 525.889 195.52 526.653 198.86 531.363C202.076 535.896 200.537 540.704 199.003 543.508C198.144 545.077 197.054 546.499 196.007 547.685C196.153 547.701 196.299 547.717 196.445 547.735C203.697 548.592 210.653 550.5 217.277 553.036C220.112 554.121 221.531 557.299 220.446 560.134C219.361 562.969 216.183 564.387 213.348 563.302C207.396 561.024 201.333 559.382 195.154 558.651C190.614 558.114 186.027 558.209 181.438 558.867C181.422 558.871 181.328 558.892 181.113 558.947C181.047 558.965 180.943 558.992 180.821 559.024C180.569 559.091 180.238 559.178 179.987 559.241C179.555 559.35 178.996 559.482 178.413 559.576C177.902 559.658 177.003 559.777 176.008 559.667C175.728 559.636 175.199 559.565 174.601 559.364C174.596 559.363 174.591 559.361 174.586 559.36C174.245 559.246 172.432 558.639 171.38 556.655C169.911 553.883 171.261 551.465 171.899 550.635C172.509 549.842 173.194 549.395 173.419 549.25C174.269 548.703 175.391 548.301 175.88 548.126C175.902 548.118 175.923 548.11 175.943 548.103C176.296 547.976 176.671 547.846 177.014 547.728L177.025 547.724C177.376 547.602 177.701 547.49 178.008 547.38C178.319 547.269 178.573 547.174 178.773 547.094C178.951 547.023 179.023 546.988 179.023 546.988C179.023 546.988 179.021 546.989 179.016 546.992C181.717 545.569 184.093 543.977 186.158 542.052C187.352 540.938 188.651 539.526 189.36 538.23C189.531 537.919 189.628 537.685 189.683 537.522C189.307 537.252 188.374 536.849 186.151 536.8C184.856 536.771 183.45 536.871 181.961 537.018C181.562 537.057 181.127 537.104 180.677 537.152Z" fill="black"/>
<path fill-rule="evenodd" clip-rule="evenodd" d="M230.061 528.363C233.031 527.739 235.945 529.641 236.569 532.611C236.905 534.208 237.216 536.557 237.539 538.997C237.692 540.147 237.847 541.316 238.008 542.437C238.557 546.248 239.247 550.116 240.28 553.315C241.395 556.767 242.54 558.237 243.186 558.659C243.331 558.754 243.436 558.799 243.72 558.773C244.118 558.736 245.023 558.519 246.528 557.547C249.077 555.899 252.479 556.63 254.127 559.179C255.775 561.728 255.044 565.131 252.495 566.778C250.019 568.379 247.421 569.47 244.731 569.719C241.927 569.978 239.357 569.286 237.178 567.864C233.175 565.251 231.071 560.569 229.819 556.693C228.486 552.564 227.694 547.928 227.128 544.004C226.901 542.429 226.716 541.026 226.553 539.787C226.278 537.694 226.064 536.069 225.812 534.872C225.188 531.901 227.09 528.987 230.061 528.363Z" fill="black"/>
<path fill-rule="evenodd" clip-rule="evenodd" d="M259.781 541.186C260.392 544.159 258.477 547.065 255.504 547.676L255.196 547.739C247.965 549.225 240.642 550.73 232.908 551.43C229.885 551.704 227.212 549.475 226.939 546.452C226.665 543.429 228.894 540.756 231.917 540.482C239.032 539.839 245.839 538.44 253.259 536.915L253.291 536.909C256.264 536.298 259.17 538.213 259.781 541.186Z" fill="black"/>
<path fill-rule="evenodd" clip-rule="evenodd" d="M267.146 521.842C267.648 524.835 265.627 527.669 262.633 528.17C252.6 529.849 243.43 531.427 233.921 534.141C231.002 534.974 227.961 533.283 227.128 530.365C226.294 527.446 227.985 524.404 230.904 523.571C241.084 520.665 250.826 519.001 260.818 517.328C263.812 516.827 266.645 518.848 267.146 521.842Z" fill="black"/>
<path fill-rule="evenodd" clip-rule="evenodd" d="M275.711 521.254C278.561 520.208 281.718 521.671 282.763 524.521C285.56 532.147 287.294 539.964 288.957 547.466C289.485 549.845 290.005 552.193 290.551 554.493C290.634 554.843 290.729 555.224 290.837 555.603C290.946 555.989 291.056 556.328 291.161 556.601C291.166 556.615 291.171 556.628 291.176 556.641C292.898 558.288 293.405 560.934 292.248 563.153C290.845 565.844 287.525 566.889 284.834 565.486C283.286 564.679 282.401 563.431 281.981 562.761C281.496 561.987 281.146 561.185 280.897 560.537C280.397 559.232 280.053 557.864 279.855 557.029C279.228 554.383 278.658 551.819 278.102 549.314C276.477 541.995 274.964 535.18 272.443 528.306C271.398 525.456 272.861 522.299 275.711 521.254Z" fill="black"/>
<path fill-rule="evenodd" clip-rule="evenodd" d="M269.678 530.916C269.889 527.888 272.516 525.605 275.544 525.816C281.002 526.198 294.026 527.319 303.703 530.994C308.33 532.751 313.708 535.635 316.102 540.691C318.887 546.571 316.616 552.681 311.85 558.117C309.294 561.032 305.737 563.002 303.199 564.407C302.988 564.524 302.784 564.637 302.588 564.746C299.519 566.458 297.989 567.495 297.234 568.6C295.521 571.105 292.101 571.748 289.595 570.035C287.089 568.321 286.447 564.901 288.16 562.396C290.579 558.858 294.462 556.692 297.096 555.223C297.142 555.197 297.187 555.172 297.231 555.147C300.385 553.387 302.344 552.285 303.584 550.871C306.977 547 306.259 545.577 306.173 545.406C306.171 545.402 306.169 545.398 306.168 545.396C305.724 544.459 303.998 542.864 299.8 541.27C291.83 538.243 280.332 537.17 274.777 536.782C271.749 536.57 269.466 533.944 269.678 530.916Z" fill="black"/>
<path fill-rule="evenodd" clip-rule="evenodd" d="M101.689 290.078C104.724 290.058 107.201 292.502 107.222 295.537C107.303 307.711 107.602 319.785 108.43 331.839C108.638 334.867 106.352 337.491 103.324 337.699C100.296 337.907 97.672 335.621 97.4638 332.592C96.6137 320.227 96.3121 307.906 96.2296 295.611C96.2093 292.576 98.6534 290.099 101.689 290.078Z" fill="black"/>
<path fill-rule="evenodd" clip-rule="evenodd" d="M140.371 294.985C143.395 294.717 146.063 296.95 146.331 299.974C146.541 302.339 146.519 304.923 146.462 307.382C146.444 308.134 146.423 308.874 146.403 309.604C146.353 311.365 146.305 313.077 146.306 314.816C146.31 319.902 146.79 323.596 148.059 325.886C149.531 328.541 148.572 331.886 145.917 333.358C143.262 334.83 139.917 333.871 138.445 331.216C135.674 326.217 135.317 319.93 135.314 314.824C135.312 312.916 135.367 310.953 135.419 309.132C135.438 308.438 135.457 307.766 135.472 307.124C135.529 304.693 135.533 302.645 135.382 300.945C135.114 297.921 137.347 295.253 140.371 294.985Z" fill="black"/>
<path fill-rule="evenodd" clip-rule="evenodd" d="M172.247 296.261C161.318 295.628 153.222 298.985 142.32 305.23C139.686 306.738 136.327 305.826 134.819 303.192C133.31 300.558 134.222 297.2 136.856 295.691C148.368 289.097 158.744 284.468 172.883 285.287C175.913 285.463 178.228 288.062 178.052 291.092C177.876 294.123 175.277 296.437 172.247 296.261Z" fill="black"/>
<path fill-rule="evenodd" clip-rule="evenodd" d="M165.452 318.172C157.55 318.162 150.215 318.152 142.897 319.322C139.9 319.801 137.082 317.759 136.603 314.761C136.124 311.764 138.165 308.946 141.163 308.467C149.399 307.151 157.612 307.165 165.366 307.179C166.142 307.18 166.913 307.181 167.679 307.181C170.715 307.181 173.175 309.642 173.175 312.677C173.175 315.713 170.715 318.174 167.679 318.174C166.931 318.174 166.189 318.173 165.452 318.172Z" fill="black"/>
<path fill-rule="evenodd" clip-rule="evenodd" d="M189.472 290.558C191.46 289.369 193.719 288.857 196.098 288.857C199.798 288.857 203.968 289.879 207.563 291.821C211.131 293.749 214.773 296.954 216.245 301.701C218.914 310.312 215.426 320.211 208.938 325.666C205.984 328.149 202.466 329.684 198.647 329.004C195.011 328.356 192.522 325.934 190.951 323.818C187.889 319.693 186.166 313.757 185.282 310.695C185.135 310.187 185.065 309.675 185.065 309.171C183.631 308.051 182.783 306.244 182.973 304.299C183.206 301.913 183.575 298.192 185.229 295.094C186.131 293.403 187.479 291.75 189.472 290.558ZM193.965 304.854C194.838 305.541 195.512 306.498 195.843 307.647C196.834 311.079 198.103 315.01 199.777 317.266C200.143 317.759 200.408 318.004 200.556 318.12C200.784 318.029 201.21 317.802 201.864 317.252C205.271 314.387 206.991 308.974 205.745 304.956C205.412 303.879 204.379 302.595 202.337 301.492C200.322 300.403 197.945 299.85 196.098 299.85C195.692 299.85 195.437 299.893 195.296 299.928C195.226 299.945 195.181 299.962 195.156 299.972C195.13 299.982 195.119 299.989 195.117 299.99L195.115 299.992C195.114 299.992 195.108 299.998 195.095 300.011C195.071 300.038 195.01 300.113 194.926 300.269C194.744 300.612 194.533 301.191 194.346 302.127C194.185 302.927 194.071 303.82 193.965 304.854ZM200.354 318.175C200.354 318.173 200.375 318.168 200.414 318.167C200.373 318.177 200.354 318.178 200.354 318.175Z" fill="black"/>
<path fill-rule="evenodd" clip-rule="evenodd" d="M224.092 290.167C227.078 289.62 229.942 291.596 230.49 294.582C230.864 296.62 231.157 299.061 231.447 301.474C231.48 301.749 231.513 302.024 231.546 302.298C231.88 305.066 232.238 307.892 232.746 310.618C233.833 316.447 235.368 320.288 237.294 322.008C239.558 324.03 239.755 327.504 237.733 329.768C235.712 332.032 232.237 332.229 229.973 330.207C225.012 325.777 223.028 318.472 221.94 312.632C221.361 309.524 220.967 306.384 220.633 303.616C220.601 303.353 220.57 303.094 220.539 302.84C220.237 300.329 219.986 298.246 219.678 296.565C219.13 293.579 221.107 290.715 224.092 290.167Z" fill="black"/>
<path fill-rule="evenodd" clip-rule="evenodd" d="M240.851 297.989C237.197 296.928 231.006 297.45 226.191 298.441C223.218 299.052 220.312 297.137 219.701 294.164C219.089 291.191 221.004 288.285 223.977 287.673C229.051 286.63 237.518 285.574 243.918 287.433C247.22 288.393 251.129 290.49 252.771 294.942C254.352 299.231 253.142 303.927 250.725 308.454C249.196 311.32 247.377 313.714 245.235 315.641C249.018 316.33 252.955 316.677 257.204 316.959C260.233 317.161 262.525 319.779 262.324 322.808C262.123 325.837 259.504 328.129 256.476 327.928C249.42 327.459 242.078 326.768 234.663 324.259C234.232 324.113 233.488 323.77 232.975 323.524C232.321 323.211 231.421 322.757 230.576 322.245C230.156 321.991 229.662 321.671 229.187 321.298C228.803 320.996 228.019 320.349 227.404 319.377C226.785 318.396 225.535 315.572 227.569 312.774C229.004 310.8 231.135 310.413 231.665 310.317C235.983 309.534 238.755 307.537 241.028 303.278C241.91 301.626 242.288 300.453 242.424 299.688C242.49 299.316 242.494 299.07 242.485 298.928C242.48 298.857 242.472 298.81 242.467 298.783C242.464 298.77 242.462 298.761 242.46 298.755C242.446 298.739 242.409 298.7 242.334 298.643C242.119 298.48 241.667 298.227 240.851 297.989Z" fill="black"/>
<path fill-rule="evenodd" clip-rule="evenodd" d="M289.091 288.075C290.535 290.745 289.541 294.08 286.87 295.524C282.846 297.699 280.909 299.183 279.813 300.748C278.85 302.123 278.107 304.201 278.227 308.593C278.453 316.953 284.248 323.055 291.171 323.055C291.93 323.055 293.002 322.677 294.285 321.255C295.571 319.83 296.654 317.769 297.263 315.652C297.566 314.596 297.697 313.727 297.74 313.066C295.581 312.784 293.706 311.226 293.128 308.989C292.369 306.05 294.136 303.052 297.075 302.293C299.224 301.737 301.697 301.746 303.974 303.016C306.215 304.265 307.438 306.276 308.056 308.075C309.216 311.453 308.765 315.428 307.827 318.69C306.843 322.112 305.044 325.741 302.445 328.621C299.842 331.505 296.023 334.047 291.171 334.047C276.961 334.047 267.588 321.776 267.238 308.891C267.083 303.187 267.996 298.458 270.81 294.441C273.491 290.614 277.453 288.119 281.643 285.854C284.313 284.41 287.648 285.405 289.091 288.075Z" fill="black"/>
<path fill-rule="evenodd" clip-rule="evenodd" d="M326.344 292.296C328.971 291.094 331.846 291.053 334.707 291.778C338.683 292.786 342.534 295.146 345.492 298.138C348.437 301.118 350.951 305.195 351.42 309.899C351.835 314.068 350.519 318.624 348.352 322.212C346.218 325.746 342.528 329.494 337.333 330.226C328.955 331.406 323.123 325.863 319.586 321.01C316.562 316.862 314.209 311.835 312.588 308.372C312.277 307.708 311.993 307.102 311.737 306.57C310.418 303.836 311.565 300.551 314.299 299.232C316.19 298.319 318.345 298.587 319.931 299.744C320.245 298.922 320.608 298.119 321.03 297.37C322.093 295.482 323.754 293.482 326.344 292.296ZM327.184 312.634C327.595 313.286 328.022 313.923 328.469 314.536C331.378 318.527 333.724 319.634 335.8 319.341C336.425 319.253 337.701 318.585 338.942 316.53C340.149 314.53 340.615 312.326 340.482 310.989C340.334 309.505 339.432 307.644 337.674 305.866C335.93 304.102 333.792 302.886 332.005 302.433C331.395 302.278 331.066 302.282 330.932 302.298C330.873 302.358 330.76 302.493 330.607 302.765C330.269 303.366 329.933 304.28 329.607 305.588C329.357 306.59 329.167 307.577 328.958 308.666C328.89 309.017 328.821 309.378 328.747 309.754C328.522 310.894 327.96 311.882 327.184 312.634ZM330.978 302.257C330.978 302.257 330.973 302.261 330.964 302.267C330.973 302.26 330.978 302.257 330.978 302.257ZM330.888 302.304C330.869 302.311 330.858 302.313 330.857 302.313C330.857 302.312 330.867 302.308 330.888 302.304Z" fill="black"/>
<path fill-rule="evenodd" clip-rule="evenodd" d="M370.942 291.345C373.952 290.954 376.709 293.078 377.1 296.088C378.233 304.819 378.944 313.422 379.573 322.044C379.795 325.072 377.52 327.705 374.492 327.926C371.465 328.147 368.831 325.872 368.61 322.845C367.984 314.273 367.291 305.919 366.199 297.503C365.808 294.493 367.931 291.736 370.942 291.345Z" fill="black"/>
<path fill-rule="evenodd" clip-rule="evenodd" d="M396.659 290.134C396.965 293.154 394.765 295.85 391.745 296.156C377.423 297.607 363.432 299.21 349.592 302.17C346.624 302.804 343.703 300.913 343.068 297.944C342.433 294.976 344.325 292.055 347.293 291.42C361.77 288.324 376.28 286.674 390.637 285.22C393.657 284.914 396.353 287.114 396.659 290.134Z" fill="black"/>
<path fill-rule="evenodd" clip-rule="evenodd" d="M442.04 290.338C444.932 289.415 448.024 291.012 448.947 293.903C452.036 303.586 455.124 313.524 457.597 323.573C458.322 326.521 456.521 329.498 453.574 330.224C450.626 330.949 447.649 329.148 446.923 326.2C444.546 316.541 441.558 306.91 438.474 297.244C437.552 294.352 439.148 291.26 442.04 290.338Z" fill="black"/>
<path fill-rule="evenodd" clip-rule="evenodd" d="M460.551 296.267C448.081 295.681 437.502 298.302 424.476 302.075C421.561 302.92 418.512 301.241 417.668 298.325C416.823 295.41 418.502 292.362 421.418 291.517C434.573 287.706 446.652 284.609 461.067 285.287C464.1 285.429 466.442 288.003 466.299 291.035C466.157 294.067 463.583 296.41 460.551 296.267Z" fill="black"/>
<path fill-rule="evenodd" clip-rule="evenodd" d="M483.514 295.707C486.915 293.785 490.952 293.049 495.713 294.521C501.981 296.458 506.376 301.788 507.532 307.753C508.236 311.39 507.664 315.422 506.219 318.882C504.775 322.338 502.167 325.899 498.147 327.81C494.029 329.768 489.944 329.53 486.465 327.544C483.356 325.769 481.179 322.86 479.664 320.272C477.248 316.146 475.515 310.934 474.532 307.98C474.303 307.29 474.114 306.724 473.968 306.323C472.925 303.472 474.391 300.316 477.242 299.273C477.886 299.037 478.546 298.93 479.194 298.937C480.46 297.792 481.925 296.604 483.514 295.707ZM486.025 307.602C486.858 309.974 487.846 312.492 489.15 314.718C490.282 316.653 491.262 317.625 491.914 317.997L491.927 318.004C492.204 318.163 492.492 318.327 493.427 317.883C494.299 317.468 495.333 316.423 496.075 314.646C496.816 312.872 496.972 311.043 496.74 309.844C496.314 307.644 494.655 305.7 492.467 305.023C490.751 304.493 489.834 304.762 488.92 305.278C487.991 305.803 487.158 306.529 486.025 307.602Z" fill="black"/>
</svg>
