<svg width="817" height="714" viewBox="0 0 817 714" fill="none" xmlns="http://www.w3.org/2000/svg">
<path fill-rule="evenodd" clip-rule="evenodd" d="M12.31 0H803.799C810.568 0 816.055 5.48689 816.055 12.2553V701.617C816.055 708.385 810.568 713.872 803.799 713.872H12.31C5.5415 713.872 0.0546875 708.385 0.0546875 701.617V12.2553C0.0546875 5.48688 5.54159 0 12.31 0ZM12.31 8C9.95986 8 8.05469 9.90517 8.05469 12.2553V701.617C8.05469 703.967 9.95983 705.872 12.31 705.872H803.799C806.15 705.872 808.055 703.967 808.055 701.617V12.2553C808.055 9.90517 806.15 8 803.799 8H12.31Z" fill="#FED2D1"/>
<path d="M8.05469 12.2553C8.05469 9.90517 9.95986 8 12.31 8H803.799C806.15 8 808.055 9.90517 808.055 12.2553V701.617C808.055 703.967 806.15 705.872 803.799 705.872H12.31C9.95983 705.872 8.05469 703.967 8.05469 701.617V12.2553Z" fill="#FED2D1"/>
<path fill-rule="evenodd" clip-rule="evenodd" d="M7.35547 12.2561C7.35547 9.51935 9.57404 7.30078 12.3108 7.30078H803.8C806.537 7.30078 808.755 9.51935 808.755 12.2561V701.618C808.755 704.355 806.537 706.573 803.8 706.573H12.3108C9.57401 706.573 7.35547 704.355 7.35547 701.618V12.2561ZM12.3108 8.70078C10.3472 8.70078 8.75547 10.2925 8.75547 12.2561V701.618C8.75547 703.581 10.3472 705.173 12.3108 705.173H803.8C805.764 705.173 807.355 703.581 807.355 701.618V12.2561C807.355 10.2926 805.764 8.70078 803.8 8.70078H12.3108Z" fill="black"/>
<path d="M8.05469 14.3828H71.8845V699.489H8.05469V14.3828Z" fill="#FED2D1"/>
<path fill-rule="evenodd" clip-rule="evenodd" d="M7.35547 13.6836H72.5853V700.19H7.35547V13.6836ZM8.75547 15.0836V698.79H71.1853V15.0836H8.75547Z" fill="black"/>
<path d="M71.8848 14.3828H86.7784V699.489H71.8848V14.3828Z" fill="#FED2D1"/>
<path fill-rule="evenodd" clip-rule="evenodd" d="M71.1836 13.6836H87.4772V700.19H71.1836V13.6836ZM72.5836 15.0836V698.79H86.0772V15.0836H72.5836Z" fill="black"/>
<path d="M774.013 355.873C774.013 542.122 623.028 693.107 436.779 693.107C250.53 693.107 99.5449 542.122 99.5449 355.873C99.5449 169.623 250.53 18.6387 436.779 18.6387C623.028 18.6387 774.013 169.623 774.013 355.873Z" fill="#FED2D1"/>
<path fill-rule="evenodd" clip-rule="evenodd" d="M436.779 691.707C622.255 691.707 772.613 541.349 772.613 355.873C772.613 170.397 622.255 20.0387 436.779 20.0387C251.303 20.0387 100.945 170.397 100.945 355.873C100.945 541.349 251.303 691.707 436.779 691.707ZM436.779 693.107C623.028 693.107 774.013 542.122 774.013 355.873C774.013 169.623 623.028 18.6387 436.779 18.6387C250.53 18.6387 99.5449 169.623 99.5449 355.873C99.5449 542.122 250.53 693.107 436.779 693.107Z" fill="black"/>
<path d="M561.247 355.872C561.247 424.614 505.52 480.34 436.779 480.34C368.037 480.34 312.311 424.614 312.311 355.872C312.311 287.131 368.037 231.404 436.779 231.404C505.52 231.404 561.247 287.131 561.247 355.872Z" fill="#FED2D1"/>
<path fill-rule="evenodd" clip-rule="evenodd" d="M436.779 478.94C504.747 478.94 559.847 423.841 559.847 355.872C559.847 287.904 504.747 232.804 436.779 232.804C368.81 232.804 313.711 287.904 313.711 355.872C313.711 423.841 368.81 478.94 436.779 478.94ZM436.779 480.34C505.52 480.34 561.247 424.614 561.247 355.872C561.247 287.131 505.52 231.404 436.779 231.404C368.037 231.404 312.311 287.131 312.311 355.872C312.311 424.614 368.037 480.34 436.779 480.34Z" fill="black"/>
<path d="M551.672 355.872C551.672 419.326 500.232 470.766 436.778 470.766C373.324 470.766 321.885 419.326 321.885 355.872C321.885 292.418 373.324 240.979 436.778 240.979C500.232 240.979 551.672 292.418 551.672 355.872Z" fill="#FED2D1"/>
<path fill-rule="evenodd" clip-rule="evenodd" d="M436.778 469.366C499.459 469.366 550.272 418.553 550.272 355.872C550.272 293.191 499.459 242.379 436.778 242.379C374.098 242.379 323.285 293.191 323.285 355.872C323.285 418.553 374.098 469.366 436.778 469.366ZM436.778 470.766C500.232 470.766 551.672 419.326 551.672 355.872C551.672 292.418 500.232 240.979 436.778 240.979C373.324 240.979 321.885 292.418 321.885 355.872C321.885 419.326 373.324 470.766 436.778 470.766Z" fill="black"/>
<path d="M526.139 355.871C526.139 405.225 486.131 445.233 436.778 445.233C387.425 445.233 347.416 405.225 347.416 355.871C347.416 306.518 387.425 266.51 436.778 266.51C486.131 266.51 526.139 306.518 526.139 355.871Z" fill="#FED2D1"/>
<path fill-rule="evenodd" clip-rule="evenodd" d="M436.778 443.833C485.358 443.833 524.739 404.451 524.739 355.871C524.739 307.292 485.358 267.91 436.778 267.91C388.198 267.91 348.816 307.292 348.816 355.871C348.816 404.451 388.198 443.833 436.778 443.833ZM436.778 445.233C486.131 445.233 526.139 405.225 526.139 355.871C526.139 306.518 486.131 266.51 436.778 266.51C387.425 266.51 347.416 306.518 347.416 355.871C347.416 405.225 387.425 445.233 436.778 445.233Z" fill="black"/>
<path d="M476.139 355.871C476.139 377.61 458.517 395.233 436.778 395.233C415.039 395.233 397.416 377.61 397.416 355.871C397.416 334.133 415.039 316.51 436.778 316.51C458.517 316.51 476.139 334.133 476.139 355.871Z" fill="#FED2D1"/>
<path fill-rule="evenodd" clip-rule="evenodd" d="M436.778 393.833C457.743 393.833 474.739 376.837 474.739 355.871C474.739 334.906 457.743 317.91 436.778 317.91C415.812 317.91 398.816 334.906 398.816 355.871C398.816 376.837 415.812 393.833 436.778 393.833ZM436.778 395.233C458.517 395.233 476.139 377.61 476.139 355.871C476.139 334.133 458.517 316.51 436.778 316.51C415.039 316.51 397.416 334.133 397.416 355.871C397.416 377.61 415.039 395.233 436.778 395.233Z" fill="black"/>
<path d="M456.46 321.784C475.286 332.653 481.736 356.726 470.867 375.553C459.998 394.379 435.924 400.83 417.098 389.96C398.272 379.091 391.821 355.017 402.691 336.191C413.56 317.365 437.633 310.914 456.46 321.784Z" fill="#FED2D1"/>
<path fill-rule="evenodd" clip-rule="evenodd" d="M469.655 374.853C480.137 356.696 473.916 333.479 455.76 322.996C437.603 312.513 414.386 318.734 403.903 336.891C393.42 355.048 399.641 378.265 417.798 388.748C435.955 399.231 459.172 393.01 469.655 374.853ZM470.867 375.553C481.736 356.726 475.286 332.653 456.46 321.784C437.633 310.914 413.56 317.365 402.691 336.191C391.821 355.017 398.272 379.091 417.098 389.96C435.924 400.83 459.998 394.379 470.867 375.553Z" fill="black"/>
<path d="M476.139 355.871C476.139 377.61 458.517 395.233 436.778 395.233C415.039 395.233 397.416 377.61 397.416 355.871C397.416 334.133 415.039 316.51 436.778 316.51C458.517 316.51 476.139 334.133 476.139 355.871Z" fill="#FED2D1"/>
<path fill-rule="evenodd" clip-rule="evenodd" d="M436.778 393.833C457.743 393.833 474.739 376.837 474.739 355.871C474.739 334.906 457.743 317.91 436.778 317.91C415.812 317.91 398.816 334.906 398.816 355.871C398.816 376.837 415.812 393.833 436.778 393.833ZM436.778 395.233C458.517 395.233 476.139 377.61 476.139 355.871C476.139 334.133 458.517 316.51 436.778 316.51C415.039 316.51 397.416 334.133 397.416 355.871C397.416 377.61 415.039 395.233 436.778 395.233Z" fill="black"/>
<path fill-rule="evenodd" clip-rule="evenodd" d="M425.608 385.794V409.064C425.608 410.533 424.417 411.724 422.949 411.724C421.48 411.724 420.289 410.533 420.289 409.064V385.255C420.289 381.363 424.411 379.448 427.421 380.781C430.312 382.062 433.469 382.766 436.778 382.766C440.088 382.766 443.245 382.062 446.136 380.781C449.146 379.448 453.268 381.363 453.268 385.255V409.064C453.268 410.533 452.077 411.724 450.608 411.724C449.139 411.724 447.949 410.533 447.949 409.064V385.794C444.492 387.271 440.722 388.085 436.778 388.085C432.835 388.085 429.064 387.271 425.608 385.794Z" fill="#FED2D1"/>
<path fill-rule="evenodd" clip-rule="evenodd" d="M422.379 380.449C423.965 379.549 425.981 379.378 427.703 380.14C430.508 381.382 433.568 382.064 436.777 382.064C439.986 382.064 443.047 381.382 445.851 380.14C447.574 379.378 449.59 379.549 451.175 380.449C452.778 381.359 453.967 383.031 453.967 385.254V409.063C453.967 410.919 452.462 412.423 450.607 412.423C448.752 412.423 447.247 410.919 447.247 409.063V386.833C443.977 388.095 440.45 388.784 436.777 388.784C433.104 388.784 429.578 388.095 426.307 386.833V409.063C426.307 410.919 424.803 412.423 422.947 412.423C421.092 412.423 419.588 410.919 419.588 409.063V385.254C419.588 383.031 420.776 381.359 422.379 380.449ZM423.071 381.666C421.861 382.353 420.988 383.584 420.988 385.254V409.063C420.988 410.146 421.865 411.023 422.947 411.023C424.03 411.023 424.907 410.146 424.907 409.063V384.732L425.882 385.149C429.254 386.59 432.931 387.384 436.777 387.384C440.624 387.384 444.3 386.59 447.672 385.149L448.647 384.732V409.063C448.647 410.146 449.525 411.023 450.607 411.023C451.689 411.023 452.567 410.146 452.567 409.063V385.254C452.567 383.584 451.694 382.353 450.484 381.666C449.256 380.969 447.706 380.85 446.418 381.42C443.441 382.739 440.187 383.464 436.777 383.464C433.367 383.464 430.114 382.739 427.136 381.42C425.848 380.85 424.299 380.969 423.071 381.666Z" fill="black"/>
<path fill-rule="evenodd" clip-rule="evenodd" d="M468.275 350.587L488.428 338.951C489.7 338.217 491.327 338.653 492.061 339.925C492.796 341.197 492.36 342.823 491.088 343.558L470.468 355.462C467.098 357.408 463.379 354.796 463.028 351.523C462.691 348.379 461.722 345.293 460.068 342.427C458.413 339.561 456.225 337.179 453.671 335.315C451.011 333.375 450.608 328.848 453.979 326.902L474.598 314.997C475.871 314.263 477.497 314.699 478.232 315.971C478.966 317.243 478.53 318.869 477.258 319.604L457.105 331.239C460.113 333.493 462.702 336.352 464.674 339.767C466.646 343.183 467.827 346.854 468.275 350.587Z" fill="#FED2D1"/>
<path fill-rule="evenodd" clip-rule="evenodd" d="M465.262 356.052C463.69 355.129 462.533 353.469 462.333 351.596C462.006 348.546 461.066 345.555 459.462 342.776C457.857 339.997 455.736 337.687 453.258 335.879C451.737 334.769 450.877 332.937 450.864 331.115C450.85 329.271 451.704 327.406 453.629 326.295L474.249 314.39C475.856 313.462 477.91 314.013 478.838 315.62C479.766 317.226 479.215 319.281 477.608 320.209L458.356 331.324C461.085 333.525 463.444 336.235 465.281 339.416C467.117 342.597 468.284 345.995 468.826 349.459L488.079 338.344C489.686 337.416 491.74 337.967 492.668 339.573C493.596 341.18 493.045 343.235 491.438 344.163L470.819 356.067C468.894 357.179 466.852 356.986 465.262 356.052ZM465.97 354.845C467.17 355.55 468.673 355.69 470.119 354.855L490.738 342.95C491.675 342.409 491.997 341.211 491.455 340.273C490.914 339.336 489.716 339.015 488.779 339.556L467.707 351.722L467.58 350.669C467.143 347.028 465.991 343.447 464.068 340.116C462.145 336.785 459.62 333.997 456.685 331.798L455.837 331.162L476.908 318.996C477.846 318.455 478.167 317.257 477.626 316.32C477.085 315.382 475.886 315.061 474.949 315.602L454.329 327.507C452.884 328.342 452.254 329.713 452.264 331.104C452.274 332.516 452.946 333.918 454.084 334.748C456.714 336.668 458.969 339.122 460.674 342.076C462.379 345.029 463.378 348.209 463.725 351.447C463.875 352.847 464.753 354.13 465.97 354.845Z" fill="black"/>
<path fill-rule="evenodd" clip-rule="evenodd" d="M416.451 331.239L396.298 319.604C395.025 318.869 394.59 317.243 395.324 315.971C396.058 314.699 397.685 314.263 398.957 314.997L419.577 326.902C422.947 328.848 422.545 333.375 419.885 335.315C417.331 337.178 415.143 339.56 413.488 342.427C411.833 345.293 410.864 348.379 410.527 351.523C410.177 354.796 406.458 357.408 403.087 355.462L382.468 343.557C381.196 342.823 380.76 341.197 381.494 339.924C382.229 338.652 383.855 338.217 385.127 338.951L405.28 350.586C405.729 346.854 406.91 343.182 408.881 339.767C410.853 336.352 413.443 333.493 416.451 331.239Z" fill="#FED2D1"/>
<path fill-rule="evenodd" clip-rule="evenodd" d="M422.693 331.116C422.68 332.939 421.82 334.77 420.298 335.881C417.82 337.688 415.699 339.998 414.095 342.777C412.49 345.556 411.551 348.548 411.224 351.598C411.024 353.471 409.867 355.131 408.295 356.054C406.705 356.987 404.663 357.18 402.738 356.069L382.118 344.164C380.512 343.236 379.961 341.182 380.889 339.575C381.817 337.968 383.871 337.417 385.478 338.345L404.73 349.46C405.273 345.997 406.439 342.598 408.276 339.418C410.112 336.237 412.472 333.527 415.201 331.326L395.948 320.21C394.341 319.282 393.791 317.228 394.719 315.621C395.646 314.014 397.701 313.463 399.308 314.391L419.927 326.296C421.852 327.407 422.706 329.272 422.693 331.116ZM421.293 331.106C421.303 329.714 420.673 328.343 419.227 327.508L398.608 315.604C397.671 315.063 396.472 315.384 395.931 316.321C395.39 317.258 395.711 318.457 396.648 318.998L417.72 331.163L416.871 331.8C413.937 333.999 411.412 336.786 409.488 340.118C407.565 343.449 406.414 347.029 405.976 350.67L405.85 351.723L384.778 339.558C383.841 339.016 382.642 339.338 382.101 340.275C381.56 341.212 381.881 342.41 382.818 342.952L403.438 354.856C404.884 355.691 406.386 355.551 407.586 354.846C408.804 354.131 409.682 352.849 409.832 351.448C410.179 348.21 411.177 345.03 412.882 342.077C414.588 339.124 416.842 336.669 419.473 334.75C420.611 333.92 421.283 332.518 421.293 331.106Z" fill="black"/>
<path d="M786.777 487.787C786.777 486.025 788.206 484.596 789.969 484.596V484.596C791.731 484.596 793.16 486.025 793.16 487.787V600.553C793.16 602.316 791.731 603.745 789.969 603.745V603.745C788.206 603.745 786.777 602.316 786.777 600.553V487.787Z" fill="#FED2D1"/>
<path fill-rule="evenodd" clip-rule="evenodd" d="M791.76 600.553V487.787C791.76 486.798 790.958 485.996 789.969 485.996C788.979 485.996 788.177 486.798 788.177 487.787V600.553C788.177 601.543 788.979 602.345 789.969 602.345C790.958 602.345 791.76 601.543 791.76 600.553ZM789.969 484.596C788.206 484.596 786.777 486.025 786.777 487.787V600.553C786.777 602.316 788.206 603.745 789.969 603.745C791.731 603.745 793.16 602.316 793.16 600.553V487.787C793.16 486.025 791.731 484.596 789.969 484.596Z" fill="black"/>
<path d="M786.777 113.318C786.777 111.556 788.206 110.127 789.969 110.127V110.127C791.731 110.127 793.16 111.556 793.16 113.318V226.084C793.16 227.847 791.731 229.276 789.969 229.276V229.276C788.206 229.276 786.777 227.847 786.777 226.084V113.318Z" fill="#FED2D1"/>
<path fill-rule="evenodd" clip-rule="evenodd" d="M791.76 226.084V113.318C791.76 112.329 790.958 111.527 789.969 111.527C788.979 111.527 788.177 112.329 788.177 113.318V226.084C788.177 227.074 788.979 227.876 789.969 227.876C790.958 227.876 791.76 227.074 791.76 226.084ZM789.969 110.127C788.206 110.127 786.777 111.556 786.777 113.318V226.084C786.777 227.847 788.206 229.276 789.969 229.276C791.731 229.276 793.16 227.847 793.16 226.084V113.318C793.16 111.556 791.731 110.127 789.969 110.127Z" fill="black"/>
<path fill-rule="evenodd" clip-rule="evenodd" d="M337.685 21.9605C338.2 23.6461 337.251 25.4303 335.566 25.9456C221.736 60.7435 132.906 152.712 102.631 268.324C102.185 270.029 100.44 271.049 98.7353 270.603C97.0302 270.156 96.0099 268.412 96.4564 266.707C127.295 148.943 217.763 55.2835 333.7 19.8414C335.385 19.3262 337.17 20.2749 337.685 21.9605ZM536.927 22.2745C537.447 20.5905 539.235 19.6475 540.919 20.1682C656.345 55.8564 746.355 149.303 777.099 266.707C777.546 268.412 776.526 270.156 774.82 270.603C773.115 271.049 771.371 270.029 770.924 268.324C740.742 153.066 652.362 61.3061 539.033 26.2663C537.349 25.7456 536.406 23.9585 536.927 22.2745ZM99.0028 442.196C100.707 441.744 102.454 442.759 102.906 444.463C133.441 559.585 222.079 651.105 335.566 685.799C337.251 686.314 338.2 688.098 337.685 689.784C337.17 691.469 335.385 692.418 333.7 691.903C218.112 656.567 127.84 563.364 96.7362 446.099C96.2843 444.395 97.2991 442.648 99.0028 442.196ZM774.553 442.196C776.257 442.648 777.271 444.395 776.82 446.099C745.812 563.005 655.997 655.996 540.919 691.576C539.235 692.097 537.448 691.154 536.927 689.47C536.406 687.786 537.349 685.999 539.033 685.478C652.02 650.544 740.209 559.232 770.65 444.463C771.102 442.759 772.849 441.744 774.553 442.196Z" fill="#FED2D1"/>
<path fill-rule="evenodd" clip-rule="evenodd" d="M335.157 24.6067C336.103 24.3175 336.635 23.316 336.346 22.3698C336.057 21.4236 335.055 20.891 334.109 21.1803C218.635 56.4811 128.526 149.77 97.8108 267.062C97.5601 268.019 98.1329 268.998 99.09 269.248C100.047 269.499 101.026 268.926 101.277 267.969C131.676 151.885 220.865 59.546 335.157 24.6067ZM540.505 21.5057C539.56 21.2134 538.557 21.7428 538.264 22.6881C537.972 23.6333 538.501 24.6365 539.447 24.9288C653.236 60.1108 741.973 152.24 772.279 267.969C772.529 268.926 773.509 269.499 774.466 269.248C775.423 268.998 775.996 268.019 775.745 267.062C745.124 150.128 655.471 57.0517 540.505 21.5057ZM101.553 444.822C101.299 443.865 100.318 443.296 99.3618 443.549C98.4054 443.803 97.8358 444.784 98.0894 445.74C129.068 562.535 218.982 655.369 334.109 690.564C335.055 690.853 336.057 690.321 336.346 689.375C336.635 688.428 336.103 687.427 335.157 687.138C221.209 652.303 132.212 560.414 101.553 444.822ZM775.466 445.74C775.72 444.784 775.15 443.803 774.194 443.549C773.238 443.296 772.257 443.865 772.003 444.822C741.438 560.059 652.893 651.74 539.447 686.816C538.501 687.108 537.972 688.111 538.264 689.056C538.557 690.002 539.56 690.531 540.505 690.239C655.125 654.8 744.583 562.177 775.466 445.74ZM335.566 25.9456C337.251 25.4303 338.2 23.6461 337.685 21.9605C337.17 20.2749 335.385 19.3262 333.7 19.8414C217.763 55.2835 127.295 148.943 96.4564 266.707C96.0099 268.412 97.0302 270.156 98.7353 270.603C100.44 271.049 102.185 270.029 102.631 268.324C132.906 152.712 221.736 60.7435 335.566 25.9456ZM540.919 20.1682C539.235 19.6475 537.448 20.5905 536.927 22.2745C536.406 23.9585 537.349 25.7456 539.033 26.2663C652.362 61.3061 740.742 153.066 770.924 268.324C771.371 270.029 773.115 271.049 774.82 270.603C776.526 270.156 777.546 268.412 777.099 266.707C746.355 149.303 656.345 55.8564 540.919 20.1682ZM102.906 444.463C102.454 442.759 100.707 441.744 99.0028 442.196C97.2991 442.648 96.2843 444.395 96.7362 446.099C127.84 563.364 218.112 656.567 333.7 691.903C335.385 692.418 337.17 691.469 337.685 689.784C338.2 688.098 337.251 686.314 335.566 685.799C222.079 651.106 133.441 559.585 102.906 444.463ZM776.82 446.099C777.271 444.395 776.257 442.648 774.553 442.196C772.849 441.744 771.102 442.759 770.65 444.463C740.209 559.232 652.02 650.544 539.033 685.478C537.349 685.999 536.406 687.786 536.927 689.47C537.448 691.154 539.235 692.097 540.919 691.576C655.997 655.996 745.812 563.005 776.82 446.099Z" fill="black"/>
<path fill-rule="evenodd" clip-rule="evenodd" d="M646.352 8V21.8298C646.352 26.5301 650.163 30.3404 654.863 30.3404H686.778C691.478 30.3404 695.289 26.5301 695.289 21.8298V8H703.799V21.8298C703.799 31.2304 696.179 38.8511 686.778 38.8511H654.863C645.462 38.8511 637.842 31.2304 637.842 21.8298V8H646.352Z" fill="#FED2D1"/>
<path fill-rule="evenodd" clip-rule="evenodd" d="M637.143 7.30078H647.053V21.8306C647.053 26.1443 650.55 29.6412 654.864 29.6412H686.779C691.092 29.6412 694.589 26.1443 694.589 21.8306V7.30078H704.5V21.8306C704.5 31.6178 696.566 39.5518 686.779 39.5518H654.864C645.077 39.5518 637.143 31.6178 637.143 21.8306V7.30078ZM638.543 8.70078V21.8306C638.543 30.8446 645.85 38.1518 654.864 38.1518H686.779C695.793 38.1518 703.1 30.8446 703.1 21.8306V8.70078H695.989V21.8306C695.989 26.9175 691.866 31.0412 686.779 31.0412H654.864C649.777 31.0412 645.653 26.9175 645.653 21.8306V8.70078H638.543Z" fill="black"/>
<path fill-rule="evenodd" clip-rule="evenodd" d="M646.352 705.873V692.043C646.352 687.343 650.163 683.533 654.863 683.533H686.778C691.478 683.533 695.289 687.343 695.289 692.043V705.873H703.799V692.043C703.799 682.643 696.179 675.022 686.778 675.022H654.863C645.462 675.022 637.842 682.643 637.842 692.043V705.873H646.352Z" fill="#FED2D1"/>
<path fill-rule="evenodd" clip-rule="evenodd" d="M637.143 706.572H647.053V692.042C647.053 687.729 650.55 684.232 654.864 684.232H686.779C691.092 684.232 694.589 687.729 694.589 692.042V706.572H704.5V692.042C704.5 682.255 696.566 674.321 686.779 674.321H654.864C645.077 674.321 637.143 682.255 637.143 692.042V706.572ZM638.543 705.172V692.042C638.543 683.028 645.85 675.721 654.864 675.721H686.779C695.793 675.721 703.1 683.028 703.1 692.042V705.172H695.989V692.042C695.989 686.956 691.866 682.832 686.779 682.832H654.864C649.777 682.832 645.653 686.956 645.653 692.042V705.172H638.543Z" fill="black"/>
<path fill-rule="evenodd" clip-rule="evenodd" d="M169.757 8V21.8298C169.757 26.5301 173.567 30.3404 178.267 30.3404H210.182C214.883 30.3404 218.693 26.5301 218.693 21.8298V8H227.204V21.8298C227.204 31.2304 219.583 38.8511 210.182 38.8511H178.267C168.867 38.8511 161.246 31.2304 161.246 21.8298V8H169.757Z" fill="#FED2D1"/>
<path fill-rule="evenodd" clip-rule="evenodd" d="M160.547 7.30078H170.458V21.8306C170.458 26.1443 173.954 29.6412 178.268 29.6412H210.183C214.497 29.6412 217.994 26.1443 217.994 21.8306V7.30078H227.904V21.8306C227.904 31.6178 219.97 39.5518 210.183 39.5518H178.268C168.481 39.5518 160.547 31.6178 160.547 21.8306V7.30078ZM161.947 8.70078V21.8306C161.947 30.8446 169.254 38.1518 178.268 38.1518H210.183C219.197 38.1518 226.504 30.8446 226.504 21.8306V8.70078H219.394V21.8306C219.394 26.9175 215.27 31.0412 210.183 31.0412H178.268C173.181 31.0412 169.058 26.9175 169.058 21.8306V8.70078H161.947Z" fill="black"/>
<path fill-rule="evenodd" clip-rule="evenodd" d="M169.757 705.873V692.043C169.757 687.343 173.567 683.533 178.267 683.533H210.182C214.883 683.533 218.693 687.343 218.693 692.043V705.873H227.204V692.043C227.204 682.643 219.583 675.022 210.182 675.022H178.267C168.867 675.022 161.246 682.643 161.246 692.043V705.873H169.757Z" fill="#FED2D1"/>
<path fill-rule="evenodd" clip-rule="evenodd" d="M160.547 706.572H170.458V692.042C170.458 687.729 173.954 684.232 178.268 684.232H210.183C214.497 684.232 217.994 687.729 217.994 692.042V706.572H227.904V692.042C227.904 682.255 219.97 674.321 210.183 674.321H178.268C168.481 674.321 160.547 682.255 160.547 692.042V706.572ZM161.947 705.172V692.042C161.947 683.028 169.254 675.721 178.268 675.721H210.183C219.197 675.721 226.504 683.028 226.504 692.042V705.172H219.394V692.042C219.394 686.956 215.27 682.832 210.183 682.832H178.268C173.181 682.832 169.058 686.956 169.058 692.042V705.172H161.947Z" fill="black"/>
<path fill-rule="evenodd" clip-rule="evenodd" d="M269.856 113.436C277.991 110.475 286.949 111.221 295.895 116.704C309.262 124.897 309.943 139.699 307.387 151.125C304.784 162.763 298.322 174.3 292.392 181.124C286.106 188.359 275.149 192.222 265.429 192.551C255.766 192.878 243.612 189.678 238.43 178.191C228.743 156.717 236.138 133.768 252.644 119.775C254.993 117.783 258.16 117.386 260.827 118.475C263.549 116.389 266.557 114.637 269.856 113.436ZM255.42 140.54C249.533 149.777 248.224 161.095 252.976 171.629C254.26 174.476 258.036 176.835 264.888 176.602C271.683 176.372 277.826 173.558 280.346 170.658C284.673 165.679 289.832 156.504 291.814 147.642C293.844 138.567 292.075 133.079 287.556 130.309C282.481 127.199 278.583 127.241 275.314 128.431C271.616 129.777 267.782 132.97 264.161 137.745C262.072 140.5 258.54 141.517 255.42 140.54Z" fill="black"/>
<path fill-rule="evenodd" clip-rule="evenodd" d="M363.585 92.8679C364.187 96.6141 364.412 101.063 364.439 101.759C364.484 102.915 364.541 104.142 364.6 105.424C364.862 111.096 365.175 117.855 364.783 124.422C364.303 132.481 362.733 141.417 357.965 148.943C352.839 157.035 344.237 158.095 337.858 157.187C331.53 156.285 325.424 153.345 321.369 150.553C311.664 143.871 308.337 133.274 307.144 123.939C306.266 117.061 306.435 109.542 306.571 103.491C306.616 101.52 306.657 99.7049 306.657 98.1187C306.657 93.7122 310.229 90.14 314.635 90.14C319.042 90.14 322.614 93.7122 322.614 98.1187C322.614 100.407 322.563 102.68 322.513 104.938C322.385 110.681 322.26 116.331 322.973 121.917C323.939 129.482 326.241 134.533 330.418 137.409C332.986 139.177 336.8 140.917 340.109 141.389C343.367 141.853 344.12 140.979 344.485 140.403C347.126 136.235 348.436 130.483 348.854 123.473C349.19 117.835 348.93 112.136 348.673 106.507C348.61 105.128 348.548 103.754 348.494 102.386C348.478 101.977 348.351 99.5882 348.078 97.2292C345.221 94.9437 344.228 90.9061 345.907 87.4858C346.224 86.8402 346.701 85.9839 347.402 85.1443C348.046 84.3723 349.382 83.0053 351.556 82.3227C354.125 81.5163 356.645 82.0369 358.534 83.2092C360.122 84.1948 361.021 85.469 361.448 86.1571C362.31 87.5448 362.744 89.0168 362.966 89.8559C363.231 90.8568 363.431 91.9073 363.585 92.8679ZM347.483 93.7473C347.483 93.7463 347.49 93.7663 347.504 93.8106C347.489 93.7705 347.482 93.7483 347.483 93.7473Z" fill="black"/>
<path fill-rule="evenodd" clip-rule="evenodd" d="M387.983 121.335C388.932 126.231 389.863 130.578 390.644 133.124C390.854 133.807 391.217 134.928 391.778 135.96L391.79 135.983C391.982 136.338 392.781 137.815 394.416 138.963C395.401 139.655 397.188 140.571 399.563 140.432C402.034 140.287 403.817 139.083 404.855 138.035C406.462 136.41 406.939 134.534 407.043 134.129C407.046 134.117 407.048 134.106 407.051 134.097C407.233 133.393 407.319 132.739 407.367 132.277C407.466 131.323 407.497 130.224 407.497 129.092C407.497 125.091 405.637 121.071 404.558 118.819C404.044 117.747 403.609 116.882 403.239 116.154C403.21 116 403.18 115.846 403.151 115.69C401.718 108.079 400.174 99.0446 398.847 91.2786C398.68 90.3008 398.516 89.3431 398.357 88.4109C399.275 86.6937 400.681 84.7347 402.671 82.639C406.413 78.6991 411.309 75.2578 415.838 73.1999C418.093 72.1748 420.022 71.601 421.483 71.3897C421.858 71.3355 422.167 71.3099 422.416 71.3007C422.425 72.0504 422.321 73.2947 421.848 75.1771C420.773 79.4506 423.366 83.7861 427.64 84.8607C431.913 85.9354 436.249 83.3422 437.324 79.0687C438.432 74.6602 438.802 70.2938 437.75 66.3415C436.604 62.0374 433.864 58.6669 429.918 56.8408C426.324 55.177 422.46 55.1251 419.2 55.5965C415.854 56.0804 412.449 57.2121 409.236 58.6721C402.827 61.5844 396.246 66.2314 391.1 71.6507C390.761 72.0078 390.423 72.3733 390.089 72.7469C389.249 72.6211 388.375 72.6283 387.492 72.7871C383.156 73.5677 380.273 77.7162 381.053 82.0531C381.294 83.3892 381.573 84.9815 381.881 86.7637C381.429 88.3696 381.136 90.0215 381.039 91.7089C380.455 101.861 383.719 110.507 386.538 117.973C386.608 118.158 386.677 118.342 386.747 118.525C387.104 119.472 387.552 120.448 387.983 121.335ZM391.496 130.621C391.495 130.622 391.495 130.623 391.495 130.625C391.492 130.651 391.492 130.648 391.496 130.621Z" fill="black"/>
<path fill-rule="evenodd" clip-rule="evenodd" d="M205.358 336.287C205.57 336.451 205.916 336.763 206.373 337.328C208.063 339.416 209.848 343.158 211.446 348.183C214.605 358.122 216.033 369.794 216.033 373.905C216.033 378.311 219.605 381.883 224.012 381.883C228.418 381.883 231.991 378.311 231.991 373.905C231.991 368.035 230.272 354.733 226.653 343.349C224.862 337.713 222.351 331.706 218.777 327.29C216.953 325.035 214.539 322.803 211.404 321.459C208.083 320.035 204.421 319.818 200.775 320.98C195.654 322.611 191.964 326.297 189.345 329.879C186.684 333.516 184.574 337.807 182.851 341.854C182.554 342.552 182.263 343.255 181.979 343.959C181.875 343.782 181.769 343.605 181.661 343.429C180.235 341.092 178.266 338.45 175.746 336.489C173.261 334.555 168.893 332.338 163.772 334.104C159.071 335.725 156.406 339.86 154.818 343.577C153.554 346.538 152.508 349.568 151.64 352.641C150.415 350.163 147.935 348.391 144.978 348.207C140.58 347.933 136.793 351.276 136.519 355.674C135.419 373.332 137.746 388.262 141.626 404.704C142.482 408.328 143.35 411.364 144.284 413.546C144.691 414.494 145.448 416.118 146.762 417.49C147.445 418.204 148.806 419.408 150.905 419.957C153.354 420.598 155.767 420.077 157.628 418.871C159.212 417.845 160.093 416.536 160.525 415.791C160.998 414.975 161.3 414.189 161.497 413.592C161.889 412.402 162.134 411.124 162.305 409.968C162.654 407.603 162.858 404.578 162.963 401.146C163.038 398.717 163.094 396.311 163.15 393.93C163.502 378.947 163.831 364.952 168.456 352.452C169.095 353.593 169.643 354.797 170.041 355.877C170.054 355.952 170.072 356.061 170.094 356.209C170.17 356.723 170.251 357.402 170.349 358.276C170.375 358.51 170.402 358.758 170.431 359.016C170.599 360.55 170.81 362.467 171.083 364.168C171.243 365.171 171.455 366.298 171.749 367.366C171.98 368.206 172.498 369.954 173.673 371.535C174.298 372.377 175.557 373.784 177.665 374.575C180.074 375.478 182.488 375.169 184.375 374.26C186.005 373.474 187.051 372.351 187.617 371.652C188.232 370.893 188.697 370.111 189.046 369.45C190.586 366.53 192.002 362.727 193.293 359.199C193.463 358.737 193.631 358.274 193.8 357.812C194.997 354.531 196.195 351.25 197.534 348.104C199.07 344.496 200.619 341.494 202.224 339.3C203.649 337.352 204.727 336.577 205.358 336.287ZM159.059 407.488C159.059 407.49 159.044 407.464 159.017 407.406C159.046 407.457 159.06 407.487 159.059 407.488ZM174.916 362.034C174.916 362.034 174.919 362.028 174.925 362.018C174.919 362.029 174.916 362.034 174.916 362.034ZM187.153 363.197C187.178 363.264 187.189 363.301 187.188 363.304C187.188 363.306 187.175 363.273 187.153 363.197Z" fill="black"/>
<path fill-rule="evenodd" clip-rule="evenodd" d="M249.372 290.126C253.369 288.269 258.114 290.003 259.97 293.999C266.452 307.949 271.352 322.266 271.352 338.851C271.352 343.257 267.779 346.83 263.373 346.83C258.966 346.83 255.394 343.257 255.394 338.851C255.394 325.573 251.525 313.692 245.499 300.724C243.642 296.727 245.376 291.983 249.372 290.126Z" fill="black"/>
<path fill-rule="evenodd" clip-rule="evenodd" d="M223.285 246.298C227.284 244.942 231.059 246.336 233.594 248.297C236.254 250.354 237.105 253.148 237.35 255.066C238.942 256.811 239.747 259.242 239.33 261.752C238.773 265.116 236.188 267.637 233.033 268.272C232.993 268.321 232.952 268.369 232.912 268.417C232.21 269.251 230.42 271.247 227.563 272.037C225.835 272.514 223.518 272.583 221.219 271.406C219.04 270.291 217.84 268.546 217.218 267.267C216.107 264.98 216.01 262.5 216.037 260.855C216.064 259.145 216.269 257.161 216.629 254.902C216.926 251.116 219.359 247.629 223.285 246.298Z" fill="black"/>
<path fill-rule="evenodd" clip-rule="evenodd" d="M264.983 264.979C265.241 260.58 269.016 257.223 273.415 257.481C282.351 258.005 290.29 260.729 297.431 263.706C300.36 264.927 303.003 266.115 305.541 267.255C309.618 269.086 313.424 270.795 317.705 272.327C319.136 272.839 320.295 273.167 321.664 273.554C322.699 273.847 323.854 274.173 325.339 274.64C328.242 275.552 331.728 276.841 334.986 279.133C338.59 281.669 339.455 286.647 336.92 290.25C334.384 293.854 329.406 294.72 325.803 292.184C324.56 291.309 322.93 290.609 320.557 289.864C319.944 289.671 319.112 289.431 318.179 289.162C316.329 288.628 314.079 287.978 312.329 287.352C307.58 285.653 302.631 283.441 298.083 281.408C295.677 280.333 293.382 279.307 291.29 278.435C284.754 275.71 278.763 273.779 272.481 273.411C268.082 273.153 264.725 269.378 264.983 264.979Z" fill="black"/>
<path fill-rule="evenodd" clip-rule="evenodd" d="M320.782 225.694C324.523 228.023 325.668 232.943 323.339 236.684C317.833 245.53 315.32 257.354 313.882 270.847C313.281 276.493 312.885 282.195 312.487 287.944C312.414 288.996 312.341 290.05 312.267 291.105C311.871 296.718 311.435 302.374 310.755 307.757C312.284 309.966 312.66 312.896 311.493 315.533C311.053 316.527 310.721 317.365 310.337 318.333C310.039 319.086 309.709 319.918 309.273 320.963C308.43 322.986 307.338 325.398 305.838 327.657C305.606 328.006 305.244 328.529 304.788 329.048C304.569 329.297 304.151 329.749 303.56 330.208C303.167 330.515 301.665 331.666 299.362 331.896C298.022 332.03 296.414 331.845 294.841 331.024C293.303 330.221 292.313 329.08 291.718 328.116C290.679 326.432 290.554 324.833 290.523 324.379C290.443 323.25 290.615 322.296 290.667 322.004L290.669 321.994C290.913 320.631 291.538 318.663 291.992 317.236C292.134 316.79 292.274 316.349 292.413 315.916C293.449 312.667 294.346 309.856 294.539 308.565C295.377 302.941 295.874 296.716 296.349 289.982C296.42 288.967 296.491 287.94 296.563 286.903C296.961 281.162 297.379 275.122 298.015 269.156C299.501 255.206 302.279 240.321 309.792 228.252C312.12 224.511 317.041 223.366 320.782 225.694ZM292.513 318.876C292.513 318.875 292.519 318.867 292.529 318.852C292.518 318.868 292.513 318.876 292.513 318.876Z" fill="black"/>
<path fill-rule="evenodd" clip-rule="evenodd" d="M354.157 175.009C358.276 173.444 362.884 175.514 364.449 179.634C370.318 195.083 374.884 211.117 379.334 226.75C380.864 232.124 382.381 237.451 383.932 242.69C383.921 242.653 383.927 242.668 383.957 242.747C384.01 242.887 384.141 243.229 384.394 243.85C384.732 244.678 385.177 245.732 385.689 246.938C385.945 247.538 386.217 248.175 386.497 248.832C387.321 250.761 388.219 252.862 388.986 254.717C389.502 255.963 389.989 257.168 390.375 258.191C390.676 258.99 391.167 260.312 391.392 261.464C391.446 261.743 391.599 262.546 391.558 263.541C391.539 264.02 391.461 265.071 390.966 266.287C390.436 267.59 389.163 269.653 386.529 270.715C384.012 271.73 381.807 271.193 380.736 270.797C379.655 270.398 378.904 269.856 378.553 269.584C377.83 269.024 377.337 268.449 377.142 268.216C376.362 267.288 375.539 265.954 374.812 264.732C373.864 263.14 373.534 261.351 373.752 259.645C373.147 258.202 372.492 256.667 371.854 255.174C371.566 254.498 371.281 253.831 371.006 253.185L370.995 253.159C370.092 251.037 369.006 248.484 368.632 247.221C366.974 241.622 365.393 236.072 363.826 230.568C359.429 215.128 355.137 200.054 349.532 185.301C347.967 181.181 350.038 176.574 354.157 175.009Z" fill="black"/>
<path fill-rule="evenodd" clip-rule="evenodd" d="M395.889 192.99C398.03 194.556 400.905 195.021 403.552 193.97C407.648 192.344 409.649 187.705 408.023 183.61C407.897 183.292 407.849 183.062 407.738 182.422C407.736 182.412 407.734 182.398 407.731 182.38C407.692 182.144 407.542 181.234 407.244 180.361C406.904 179.368 405.814 176.704 402.726 175.275C399.925 173.979 397.385 174.62 396.547 174.857C395.524 175.148 394.606 175.581 394.02 175.869C393.089 176.327 391.829 177.019 390.358 177.826C389.922 178.065 389.468 178.314 388.998 178.57C385.388 180.54 381.83 182.583 378.359 184.576C378.175 184.682 377.991 184.787 377.807 184.893C374.134 187.002 370.551 189.053 366.934 191.005C365.51 191.773 364.03 192.543 362.526 193.326C357.078 196.16 351.308 199.162 346.661 202.887C340.086 208.158 335.25 215.1 333.201 225.623C332.359 229.949 335.183 234.138 339.508 234.98C343.834 235.822 348.023 232.998 348.865 228.672C350.154 222.048 352.859 218.371 356.642 215.338C359.953 212.684 363.818 210.667 368.911 208.008C370.63 207.11 372.488 206.14 374.512 205.048C378.339 202.983 382.094 200.832 385.753 198.732C385.922 198.634 386.091 198.537 386.26 198.44C389.514 196.572 392.691 194.747 395.889 192.99ZM401.308 190.073C401.313 190.071 401.315 190.07 401.315 190.07C401.315 190.07 401.313 190.071 401.308 190.073Z" fill="black"/>
<path fill-rule="evenodd" clip-rule="evenodd" d="M446.118 184.601C446.122 184.605 446.126 184.609 446.129 184.612C447.588 186.062 449.096 187.535 450.631 189.036C454.569 192.885 458.692 196.914 462.652 201.183C468.156 207.115 472.733 212.882 475.396 218.173C477.377 222.109 482.173 223.694 486.11 221.713C490.046 219.733 491.631 214.936 489.65 211C485.958 203.664 480.145 196.576 474.35 190.33C470.104 185.753 465.538 181.29 461.517 177.36C460.05 175.927 458.656 174.564 457.376 173.292C457.123 173.041 456.767 172.664 456.327 172.2C454.507 170.277 451.259 166.846 447.998 164.532C445.85 163.007 442.9 161.333 439.39 160.818C435.504 160.249 431.486 161.196 428.046 164.044C423.459 167.842 421.485 172.832 420.728 177.334C419.993 181.707 420.322 186.077 420.698 189.394C421.673 197.975 423.69 215.143 425.47 228.035C426.342 234.355 427.208 240.032 427.9 243.075C428.058 243.774 428.307 244.793 428.676 245.718C428.679 245.726 428.682 245.736 428.687 245.748C428.796 246.026 429.354 247.455 430.623 248.719C431.326 249.421 433.301 251.118 436.415 251.085C439.771 251.049 441.828 249.064 442.664 248.002C443.479 246.968 443.851 245.974 443.996 245.554C444.175 245.039 444.277 244.588 444.336 244.288C444.455 243.689 444.513 243.12 444.547 242.695C444.616 241.815 444.64 240.76 444.64 239.608C444.64 228.276 445.008 216.935 445.415 205.47C445.456 204.321 445.497 203.171 445.539 202.019C445.745 196.243 445.953 190.431 446.118 184.601ZM428.634 241.493C428.634 241.493 428.634 241.487 428.635 241.476C428.634 241.488 428.634 241.493 428.634 241.493Z" fill="black"/>
<path fill-rule="evenodd" clip-rule="evenodd" d="M494.885 188.291C496.956 192.181 495.481 197.013 491.592 199.084C485.701 202.22 479.852 204.881 474.34 207.369C474.046 207.501 473.754 207.633 473.463 207.764C468.211 210.134 463.311 212.344 458.618 214.791C448.841 219.889 440.462 225.767 433.634 235.062C431.026 238.614 426.032 239.378 422.48 236.769C418.929 234.16 418.165 229.167 420.774 225.615C429.562 213.651 440.236 206.379 451.241 200.641C456.351 197.977 461.639 195.592 466.786 193.27C467.116 193.121 467.446 192.973 467.775 192.824C473.305 190.328 478.717 187.86 484.093 184.998C487.982 182.927 492.814 184.402 494.885 188.291Z" fill="black"/>
<path fill-rule="evenodd" clip-rule="evenodd" d="M485.615 130.866C488.849 127.874 493.897 128.07 496.89 131.304C503.343 138.279 508.757 145.82 513.766 153.219C515.388 155.615 516.947 157.964 518.484 160.28C521.799 165.274 525.007 170.107 528.501 174.893C528.909 175.453 529.524 176.132 530.627 177.343L530.629 177.345C531.579 178.389 532.9 179.839 534.034 181.419C535.141 182.963 536.522 185.231 537.069 188.041C537.683 191.188 537.152 194.548 535.112 197.57C532.647 201.222 527.687 202.184 524.035 199.719C520.988 197.662 519.813 193.868 520.94 190.547C520.44 189.877 519.77 189.121 518.828 188.087C518.759 188.011 518.686 187.931 518.612 187.85C517.749 186.904 516.565 185.607 515.612 184.302C511.904 179.222 508.367 173.895 504.953 168.752C503.464 166.509 501.998 164.301 500.551 162.164C495.677 154.963 490.799 148.218 485.177 142.142C482.184 138.907 482.38 133.859 485.615 130.866Z" fill="black"/>
<path fill-rule="evenodd" clip-rule="evenodd" d="M513.994 122.977C504.343 131.417 495.125 144.169 492.521 148.427C490.223 152.187 485.312 153.371 481.552 151.072C477.793 148.774 476.608 143.863 478.907 140.103C482.067 134.934 492.267 120.78 503.488 110.965C508.917 106.218 515.756 101.42 522.922 100.278C526.783 99.6632 530.981 100.077 534.888 102.35C538.715 104.578 541.457 108.121 543.378 112.298C550.555 127.906 540.756 141.458 531.791 150.216C527.02 154.877 521.605 159.076 516.8 162.643C515.266 163.782 513.829 164.832 512.491 165.81C509.433 168.045 506.893 169.901 504.902 171.566C501.522 174.393 496.49 173.945 493.663 170.565C490.836 167.185 491.284 162.153 494.665 159.326C497.08 157.305 500.292 154.958 503.568 152.563C504.812 151.654 506.066 150.738 507.289 149.83C511.966 146.358 516.669 142.68 520.64 138.801C529.158 130.48 531.337 124.307 528.88 118.965C527.906 116.848 527.082 116.271 526.862 116.142C526.721 116.06 526.39 115.885 525.432 116.037C522.96 116.431 519.001 118.598 513.994 122.977Z" fill="black"/>
<path fill-rule="evenodd" clip-rule="evenodd" d="M560.184 112.011C564.432 110.837 568.826 113.329 570 117.577C572.035 124.946 572.97 132.05 573.708 138.717C573.854 140.03 573.991 141.318 574.126 142.587C574.693 147.908 575.224 152.895 576.176 158.018C576.821 161.489 577.809 163.416 578.601 164.264C578.912 164.597 579.153 164.725 579.383 164.798C579.637 164.879 580.259 165.01 581.466 164.804C585.844 164.058 590.278 162.637 595.019 160.86C596.797 160.194 598.875 159.372 601.031 158.519C602.386 157.983 603.771 157.435 605.133 156.906C605.17 156.666 605.219 156.426 605.279 156.185C606.346 151.91 610.677 149.309 614.952 150.377C616.422 150.744 618.252 151.293 619.853 152.239C621.001 152.916 625.507 155.975 624.381 161.721C623.934 164.005 622.697 165.541 621.893 166.359C621.053 167.213 620.163 167.814 619.49 168.217C618.144 169.022 616.591 169.661 615.144 170.183C612.376 171.181 609.98 172.135 607.457 173.14C605.36 173.975 603.176 174.844 600.619 175.803C595.525 177.712 589.995 179.538 584.148 180.535C577.227 181.715 571.222 179.742 566.94 175.157C563.119 171.067 561.361 165.632 560.488 160.934C559.411 155.141 558.801 149.399 558.231 144.035C558.103 142.828 557.977 141.639 557.848 140.473C557.128 133.978 556.301 127.916 554.618 121.826C553.445 117.579 555.937 113.184 560.184 112.011Z" fill="black"/>
<path fill-rule="evenodd" clip-rule="evenodd" d="M609.56 123.236C613.483 125.242 615.037 130.049 613.031 133.973C611.932 136.122 610.236 137.558 609.218 138.336C608.049 139.231 606.771 139.999 605.644 140.62C603.918 141.573 601.94 142.502 600.518 143.17C600.139 143.349 599.798 143.508 599.513 143.645C591.432 147.518 583.64 151.809 575.613 156.231C573.536 157.374 571.443 158.527 569.325 159.683C565.458 161.795 560.611 160.371 558.499 156.504C556.387 152.636 557.811 147.789 561.678 145.677C563.678 144.585 565.693 143.476 567.721 142.358C575.792 137.912 584.088 133.343 592.617 129.255C593.106 129.02 593.588 128.794 594.063 128.57C595.417 127.933 596.711 127.324 597.936 126.648C598.624 126.269 599.099 125.969 599.395 125.756C601.643 122.545 605.971 121.401 609.56 123.236Z" fill="black"/>
<path fill-rule="evenodd" clip-rule="evenodd" d="M573.823 123.557C570.82 125.7 568.054 127.674 566.452 128.648C562.686 130.935 557.778 129.737 555.491 125.97C553.203 122.204 554.402 117.297 558.168 115.009C559.229 114.364 561.506 112.741 564.896 110.322C565.137 110.151 565.383 109.976 565.634 109.796C569.238 107.226 573.656 104.093 578.102 101.152C582.497 98.2448 587.171 95.357 591.268 93.3697C593.294 92.3872 595.488 91.4713 597.62 90.9419C599.362 90.5094 602.903 89.8384 606.339 91.5775C610.27 93.5676 611.844 98.368 609.854 102.3C608.195 105.577 604.582 107.216 601.148 106.517C600.526 106.707 599.564 107.082 598.232 107.728C595.111 109.241 591.146 111.657 586.905 114.461C582.716 117.233 578.5 120.221 574.899 122.789C574.538 123.046 574.178 123.303 573.823 123.557ZM601.791 106.369C601.788 106.373 601.726 106.386 601.613 106.395C601.738 106.369 601.794 106.364 601.791 106.369Z" fill="black"/>
<path fill-rule="evenodd" clip-rule="evenodd" d="M556.877 488.825C552.343 493.75 549.177 498.249 547.371 502.804C545.454 507.641 544.902 512.964 546.555 519.637C547.446 523.233 548.111 525.968 548.356 527.631C548.42 528.069 548.511 528.776 548.503 529.561C548.499 529.953 548.471 530.621 548.296 531.411C548.143 532.107 547.721 533.63 546.438 535.085C544.879 536.853 542.639 537.846 540.298 537.825C538.371 537.807 536.967 537.113 536.357 536.772C535.174 536.111 534.38 535.275 534.153 535.036L534.141 535.023C533.575 534.428 532.994 533.68 532.646 533.232C532.628 533.209 532.611 533.187 532.594 533.165C532.539 533.095 532.484 533.024 532.43 532.954C532.039 532.45 531.654 531.955 531.218 531.421C530.219 530.2 529.159 529.046 528.044 528.139C522.805 523.88 517.244 520.514 512.167 519.289C507.562 518.178 503.608 518.811 499.844 522.411C493.849 528.143 493.096 536.695 497.95 542.219C512.997 559.341 533.759 567.802 555.067 563.623C557.653 563.116 560.192 563.919 561.997 565.572C562 565.504 562.003 565.436 562.007 565.368C563.062 543.697 563.431 515.964 561.192 502.862C560.356 497.968 558.923 493.235 556.877 488.825ZM561.276 577.921C560.369 578.577 559.309 579.052 558.138 579.282C530.357 584.73 504.113 573.405 485.964 552.753C474.357 539.545 477.928 521.288 488.815 510.877C497.163 502.896 506.974 501.621 515.91 503.777C520.808 504.959 525.469 507.157 529.686 509.741C529.941 505.261 530.919 501.004 532.537 496.923C535.642 489.09 540.927 482.356 546.898 476.147C547.182 475.851 547.361 475.644 547.619 475.346C547.844 475.086 548.129 474.756 548.597 474.237C549.29 473.469 550.483 472.185 551.991 471.156C553.491 470.132 556.414 468.608 560.124 469.373C563.814 470.134 566.058 472.697 567.301 474.665C572.268 482.524 575.399 491.265 576.922 500.174C579.505 515.29 578.985 544.791 577.945 566.144C577.419 576.944 576.734 586.155 576.155 590.95C576.016 592.106 575.851 593.277 575.648 594.202C575.646 594.211 575.643 594.222 575.641 594.236C575.58 594.518 575.336 595.647 574.739 596.77C574.549 597.127 574.155 597.813 573.484 598.531C572.865 599.193 571.399 600.537 569.017 600.96C566.274 601.449 563.986 600.443 562.574 599.303C561.366 598.328 560.744 597.247 560.489 596.761C559.962 595.758 559.761 594.855 559.7 594.58C559.609 594.167 559.555 593.793 559.521 593.521C559.451 592.971 559.41 592.383 559.382 591.83C559.325 590.698 559.299 589.203 559.299 587.364C559.299 585.544 559.909 583.867 560.934 582.524C561.048 581.118 561.162 579.577 561.276 577.921ZM532.574 530C532.574 530 532.572 529.988 532.57 529.966C532.573 529.989 532.575 530 532.574 530ZM553.81 483.186C553.804 483.178 553.801 483.174 553.801 483.173C553.801 483.173 553.804 483.177 553.81 483.186Z" fill="black"/>
</svg>
