<svg width="655" height="720" viewBox="0 0 655 720" fill="none" xmlns="http://www.w3.org/2000/svg">
<path fill-rule="evenodd" clip-rule="evenodd" d="M60.5025 720C50.3585 720 42.1351 711.777 42.1351 701.633V582.245H19.1759C9.03195 582.245 0.808594 574.022 0.808594 563.878V11.0204C0.808594 4.93401 5.7426 0 11.829 0H18.2576C23.3296 0 27.4412 4.11167 27.4412 9.18367V9.64271H54.5331V9.18367C54.5331 4.11167 58.6448 0 63.7168 0H99.9923C104.426 0 108.248 2.61793 109.997 6.39223C111.45 5.82283 113.031 5.5102 114.686 5.5102H230.4C232.055 5.5102 233.637 5.82283 235.09 6.39223C236.839 2.61792 240.661 0 245.094 0H257.951C259.24 0 260.476 0.220975 261.625 0.627085C262.774 0.220975 264.01 0 265.298 0H556.421C557.709 0 558.945 0.220973 560.094 0.627076C561.243 0.220973 562.48 0 563.768 0H591.778C596.85 0 600.962 4.11163 600.962 9.18367V9.64271H628.054V9.18367C628.054 4.11163 632.165 0 637.237 0H643.666C649.752 0 654.686 4.93404 654.686 11.0204V563.878C654.686 574.022 646.463 582.245 636.319 582.245H613.36V701.633C613.36 711.777 605.136 720 594.992 720H60.5025ZM591.778 7.34694C592.792 7.34694 593.615 8.16927 593.615 9.18367V15.1529C593.615 16.1673 594.437 16.9897 595.451 16.9897H633.564C634.578 16.9897 635.4 16.1673 635.4 15.1529V9.18367C635.4 8.16927 636.223 7.34694 637.237 7.34694H643.666C645.695 7.34694 647.339 8.99161 647.339 11.0204V563.878C647.339 569.964 642.405 574.898 636.319 574.898H609.686C607.657 574.898 606.013 576.543 606.013 578.571V701.633C606.013 707.719 601.079 712.653 594.992 712.653H60.5025C54.4161 712.653 49.4821 707.719 49.4821 701.633V578.571C49.4821 576.543 47.8374 574.898 45.8086 574.898H19.1759C13.0895 574.898 8.15553 569.964 8.15553 563.878V11.0204C8.15553 8.99161 9.8002 7.34694 11.829 7.34694H18.2576C19.272 7.34694 20.0943 8.16927 20.0943 9.18367V15.1529C20.0943 16.1673 20.9166 16.9897 21.931 16.9897H60.0433C61.0577 16.9897 61.88 16.1673 61.88 15.1529V9.18367C61.88 8.16927 62.7024 7.34694 63.7168 7.34694H99.9923C102.021 7.34694 103.666 8.99161 103.666 11.0204V100.102C103.666 103.145 106.133 105.612 109.176 105.612V18.3673C109.176 16.7354 109.885 15.2692 111.013 14.2602C111.988 13.3877 113.275 12.8571 114.686 12.8571H230.4C231.812 12.8571 233.099 13.3877 234.074 14.2602C235.201 15.2692 235.911 16.7354 235.911 18.3673V105.612C238.954 105.612 241.421 103.145 241.421 100.102V11.0204C241.421 8.99161 243.066 7.34694 245.094 7.34694H257.951C259.98 7.34694 261.625 8.99161 261.625 11.0204C261.625 8.99161 263.27 7.34694 265.298 7.34694H556.421C558.45 7.34694 560.094 8.99161 560.094 11.0204C560.094 8.99161 561.739 7.34694 563.768 7.34694H591.778Z" fill="#9CA089"/>
<path fill-rule="evenodd" clip-rule="evenodd" d="M60.5032 712.654C54.4168 712.654 49.4828 707.72 49.4828 701.633V578.572C49.4828 576.543 47.8381 574.899 45.8093 574.899H19.1767C13.0903 574.899 8.15625 569.965 8.15625 563.878V11.0211C8.15625 8.99232 9.80092 7.34766 11.8297 7.34766H18.2583C19.2727 7.34766 20.095 8.16999 20.095 9.18439V15.1536C20.095 16.168 20.9174 16.9904 21.9318 16.9904H60.044C61.0584 16.9904 61.8807 16.168 61.8807 15.1536V9.18439C61.8807 8.16999 62.7031 7.34766 63.7175 7.34766H99.993C102.022 7.34766 103.666 8.99233 103.666 11.0211V100.103C103.666 103.146 106.133 105.613 109.177 105.613H235.911C238.955 105.613 241.422 103.146 241.422 100.103V11.0211C241.422 8.99232 243.066 7.34766 245.095 7.34766L257.952 7.34766C259.981 7.34766 261.626 8.99233 261.626 11.0211V466.531C261.626 474.647 268.204 481.225 276.32 481.225H545.401C553.516 481.225 560.095 474.647 560.095 466.531V11.0211C560.095 8.99232 561.74 7.34766 563.768 7.34766H591.779C592.793 7.34766 593.615 8.16999 593.615 9.18439V15.1536C593.615 16.168 594.438 16.9904 595.452 16.9904H633.564C634.579 16.9904 635.401 16.168 635.401 15.1536V9.18439C635.401 8.16999 636.224 7.34766 637.238 7.34766H643.667C645.695 7.34766 647.34 8.99232 647.34 11.0211V563.878C647.34 569.965 642.406 574.899 636.32 574.899H609.687C607.658 574.899 606.013 576.543 606.013 578.572V701.633C606.013 707.72 601.079 712.654 594.993 712.654H60.5032Z" fill="#9CA089"/>
<path fill-rule="evenodd" clip-rule="evenodd" d="M11.8285 8.04648C10.1863 8.04648 8.85508 9.37775 8.85508 11.02V563.877C8.85508 569.577 13.4757 574.198 19.1755 574.198H45.8081C48.2235 574.198 50.1816 576.156 50.1816 578.571V701.632C50.1816 707.332 54.8022 711.953 60.502 711.953H594.992C600.692 711.953 605.312 707.332 605.312 701.632V578.571C605.312 576.156 607.27 574.198 609.686 574.198H636.318C642.018 574.198 646.639 569.577 646.639 563.877V11.02C646.639 9.37775 645.307 8.04648 643.665 8.04648H637.237C636.609 8.04648 636.1 8.55542 636.1 9.18322V15.1525C636.1 16.5535 634.964 17.6892 633.563 17.6892H595.451C594.05 17.6892 592.914 16.5535 592.914 15.1525V9.18322C592.914 8.55542 592.405 8.04648 591.778 8.04648H563.767C562.125 8.04648 560.794 9.37775 560.794 11.02V466.53C560.794 475.032 553.902 481.924 545.4 481.924H276.318C267.817 481.924 260.924 475.032 260.924 466.53V11.02C260.924 9.37775 259.593 8.04648 257.951 8.04648H245.094C243.452 8.04648 242.12 9.37775 242.12 11.02V100.102C242.12 103.531 239.34 106.312 235.91 106.312H109.175C105.746 106.312 102.965 103.531 102.965 100.102V11.02C102.965 9.37775 101.634 8.04648 99.9918 8.04648H63.7163C63.0885 8.04648 62.5796 8.55542 62.5796 9.18322V15.1525C62.5796 16.5535 61.4438 17.6892 60.0428 17.6892H21.9306C20.5296 17.6892 19.3939 16.5535 19.3939 15.1525V9.18322C19.3939 8.55542 18.8849 8.04648 18.2571 8.04648H11.8285ZM7.45508 11.02C7.45508 8.60455 9.41315 6.64648 11.8285 6.64648H18.2571C19.6581 6.64648 20.7939 7.78222 20.7939 9.18322V15.1525C20.7939 15.7803 21.3028 16.2892 21.9306 16.2892H60.0428C60.6706 16.2892 61.1796 15.7803 61.1796 15.1525V9.18322C61.1796 7.78222 62.3153 6.64648 63.7163 6.64648H99.9918C102.407 6.64648 104.365 8.60456 104.365 11.02V100.102C104.365 102.758 106.519 104.912 109.175 104.912H235.91C238.567 104.912 240.72 102.758 240.72 100.102V11.02C240.72 8.60455 242.678 6.64648 245.094 6.64648H257.951C260.366 6.64648 262.324 8.60456 262.324 11.02V466.53C262.324 474.259 268.59 480.524 276.318 480.524H545.4C553.129 480.524 559.394 474.259 559.394 466.53V11.02C559.394 8.60455 561.352 6.64648 563.767 6.64648H591.778C593.179 6.64648 594.314 7.78222 594.314 9.18322V15.1525C594.314 15.7803 594.823 16.2892 595.451 16.2892H633.563C634.191 16.2892 634.7 15.7803 634.7 15.1525V9.18322C634.7 7.78222 635.836 6.64648 637.237 6.64648H643.665C646.081 6.64648 648.039 8.60455 648.039 11.02V563.877C648.039 570.35 642.791 575.597 636.318 575.597H609.686C608.044 575.597 606.712 576.929 606.712 578.571V701.632C606.712 708.105 601.465 713.353 594.992 713.353H60.502C54.029 713.353 48.7816 708.105 48.7816 701.632V578.571C48.7816 576.929 47.4503 575.597 45.8081 575.597H19.1755C12.7025 575.597 7.45508 570.35 7.45508 563.877V11.02Z" fill="black"/>
<path d="M103.666 105.611H241.421V712.652H103.666V105.611Z" fill="#9CA089"/>
<path fill-rule="evenodd" clip-rule="evenodd" d="M102.965 104.912H242.12V713.353H102.965V104.912ZM104.365 106.312V711.953H240.72V106.312H104.365Z" fill="black"/>
<path d="M109.176 18.3676C109.176 15.3244 111.643 12.8574 114.686 12.8574H230.4C233.443 12.8574 235.91 15.3244 235.91 18.3676V105.613H109.176V18.3676Z" fill="#9CA089"/>
<path fill-rule="evenodd" clip-rule="evenodd" d="M108.477 18.3665C108.477 14.9367 111.257 12.1562 114.687 12.1562H230.401C233.831 12.1562 236.611 14.9367 236.611 18.3665V106.311H108.477V18.3665ZM114.687 13.5562C112.03 13.5562 109.877 15.7099 109.877 18.3665V104.911H235.211V18.3665C235.211 15.7099 233.058 13.5562 230.401 13.5562H114.687Z" fill="black"/>
<path d="M261.625 11.0211C261.625 8.99233 263.27 7.34766 265.298 7.34766H556.421C558.45 7.34766 560.094 8.99232 560.094 11.0211V466.531C560.094 474.647 553.516 481.225 545.401 481.225H276.319C268.204 481.225 261.625 474.647 261.625 466.531V11.0211Z" fill="#9CA089"/>
<path fill-rule="evenodd" clip-rule="evenodd" d="M260.926 11.02C260.926 8.60456 262.884 6.64648 265.299 6.64648H556.422C558.837 6.64648 560.795 8.60455 560.795 11.02V466.53C560.795 475.032 553.903 481.924 545.401 481.924H276.32C267.818 481.924 260.926 475.032 260.926 466.53V11.02ZM265.299 8.04648C263.657 8.04648 262.326 9.37775 262.326 11.02V466.53C262.326 474.259 268.591 480.524 276.32 480.524H545.401C553.13 480.524 559.395 474.259 559.395 466.53V11.02C559.395 9.37775 558.064 8.04648 556.422 8.04648H265.299Z" fill="black"/>
<path d="M109.176 652.958C109.176 648.901 112.465 645.611 116.523 645.611H228.564C232.621 645.611 235.91 648.901 235.91 652.958V712.652H109.176V652.958Z" fill="#9CA089"/>
<path fill-rule="evenodd" clip-rule="evenodd" d="M108.477 652.959C108.477 648.515 112.079 644.912 116.524 644.912H228.564C233.009 644.912 236.611 648.515 236.611 652.959V713.353H108.477V652.959ZM116.524 646.312C112.852 646.312 109.877 649.288 109.877 652.959V711.953H235.211V652.959C235.211 649.288 232.235 646.312 228.564 646.312H116.524Z" fill="black"/>
<path d="M109.176 381.122C109.176 378.078 111.643 375.611 114.686 375.611H230.4C233.443 375.611 235.91 378.078 235.91 381.122V384.795C235.91 387.838 233.443 390.305 230.4 390.305H114.686C111.643 390.305 109.176 387.838 109.176 384.795V381.122Z" fill="#9CA089"/>
<path fill-rule="evenodd" clip-rule="evenodd" d="M108.477 381.122C108.477 377.693 111.257 374.912 114.687 374.912H230.401C233.831 374.912 236.611 377.693 236.611 381.122V384.796C236.611 388.226 233.831 391.006 230.401 391.006H114.687C111.257 391.006 108.477 388.226 108.477 384.796V381.122ZM114.687 376.312C112.03 376.312 109.877 378.466 109.877 381.122V384.796C109.877 387.452 112.03 389.606 114.687 389.606H230.401C233.058 389.606 235.211 387.452 235.211 384.796V381.122C235.211 378.466 233.058 376.312 230.401 376.312H114.687Z" fill="black"/>
<path d="M109.176 551.938C109.176 548.895 111.643 546.428 114.686 546.428H230.4C233.443 546.428 235.91 548.895 235.91 551.938V555.611C235.91 558.655 233.443 561.122 230.4 561.122H114.686C111.643 561.122 109.176 558.655 109.176 555.611V551.938Z" fill="#9CA089"/>
<path fill-rule="evenodd" clip-rule="evenodd" d="M108.477 551.939C108.477 548.509 111.257 545.729 114.687 545.729H230.401C233.831 545.729 236.611 548.509 236.611 551.939V555.612C236.611 559.042 233.831 561.822 230.401 561.822H114.687C111.257 561.822 108.477 559.042 108.477 555.612V551.939ZM114.687 547.129C112.03 547.129 109.877 549.282 109.877 551.939V555.612C109.877 558.269 112.03 560.422 114.687 560.422H230.401C233.058 560.422 235.211 558.269 235.211 555.612V551.939C235.211 549.282 233.058 547.129 230.401 547.129H114.687Z" fill="black"/>
<path d="M109.176 295.713C109.176 292.67 111.643 290.203 114.686 290.203H230.4C233.443 290.203 235.91 292.67 235.91 295.713V299.387C235.91 302.43 233.443 304.897 230.4 304.897H114.686C111.643 304.897 109.176 302.43 109.176 299.387V295.713Z" fill="#9CA089"/>
<path fill-rule="evenodd" clip-rule="evenodd" d="M108.477 295.714C108.477 292.284 111.257 289.504 114.687 289.504H230.401C233.831 289.504 236.611 292.284 236.611 295.714V299.388C236.611 302.817 233.831 305.598 230.401 305.598H114.687C111.257 305.598 108.477 302.817 108.477 299.388V295.714ZM114.687 290.904C112.03 290.904 109.877 293.058 109.877 295.714V299.388C109.877 302.044 112.03 304.198 114.687 304.198H230.401C233.058 304.198 235.211 302.044 235.211 299.388V295.714C235.211 293.058 233.058 290.904 230.401 290.904H114.687Z" fill="black"/>
<path d="M109.176 466.53C109.176 463.487 111.643 461.02 114.686 461.02H230.4C233.443 461.02 235.91 463.487 235.91 466.53V470.203C235.91 473.246 233.443 475.713 230.4 475.713H114.686C111.643 475.713 109.176 473.246 109.176 470.203V466.53Z" fill="#9CA089"/>
<path fill-rule="evenodd" clip-rule="evenodd" d="M108.477 466.531C108.477 463.101 111.257 460.32 114.687 460.32H230.401C233.831 460.32 236.611 463.101 236.611 466.531V470.204C236.611 473.634 233.831 476.414 230.401 476.414H114.687C111.257 476.414 108.477 473.634 108.477 470.204V466.531ZM114.687 461.72C112.03 461.72 109.877 463.874 109.877 466.531V470.204C109.877 472.861 112.03 475.014 114.687 475.014H230.401C233.058 475.014 235.211 472.861 235.211 470.204V466.531C235.211 463.874 233.058 461.72 230.401 461.72H114.687Z" fill="black"/>
<path d="M109.176 210.307C109.176 207.264 111.643 204.797 114.686 204.797H230.4C233.443 204.797 235.91 207.264 235.91 210.307V213.981C235.91 217.024 233.443 219.491 230.4 219.491H114.686C111.643 219.491 109.176 217.024 109.176 213.981V210.307Z" fill="#9CA089"/>
<path fill-rule="evenodd" clip-rule="evenodd" d="M108.477 210.306C108.477 206.876 111.257 204.096 114.687 204.096H230.401C233.831 204.096 236.611 206.876 236.611 210.306V213.979C236.611 217.409 233.831 220.19 230.401 220.19H114.687C111.257 220.19 108.477 217.409 108.477 213.979V210.306ZM114.687 205.496C112.03 205.496 109.877 207.649 109.877 210.306V213.979C109.877 216.636 112.03 218.79 114.687 218.79H230.401C233.058 218.79 235.211 216.636 235.211 213.979V210.306C235.211 207.649 233.058 205.496 230.401 205.496H114.687Z" fill="black"/>
<path d="M109.176 608.877C109.176 605.834 111.643 603.367 114.686 603.367H230.4C233.443 603.367 235.91 605.834 235.91 608.877V612.551C235.91 615.594 233.443 618.061 230.4 618.061H114.686C111.643 618.061 109.176 615.594 109.176 612.551V608.877Z" fill="#9CA089"/>
<path fill-rule="evenodd" clip-rule="evenodd" d="M108.477 608.878C108.477 605.448 111.257 602.668 114.687 602.668H230.401C233.831 602.668 236.611 605.448 236.611 608.878V612.552C236.611 615.981 233.831 618.762 230.401 618.762H114.687C111.257 618.762 108.477 615.981 108.477 612.552V608.878ZM114.687 604.068C112.03 604.068 109.877 606.222 109.877 608.878V612.552C109.877 615.208 112.03 617.362 114.687 617.362H230.401C233.058 617.362 235.211 615.208 235.211 612.552V608.878C235.211 606.222 233.058 604.068 230.401 604.068H114.687Z" fill="black"/>
<path d="M109.176 352.653C109.176 349.61 111.643 347.143 114.686 347.143H230.4C233.443 347.143 235.91 349.61 235.91 352.653V356.326C235.91 359.369 233.443 361.836 230.4 361.836H114.686C111.643 361.836 109.176 359.369 109.176 356.326V352.653Z" fill="#9CA089"/>
<path fill-rule="evenodd" clip-rule="evenodd" d="M108.477 352.654C108.477 349.224 111.257 346.443 114.687 346.443H230.401C233.831 346.443 236.611 349.224 236.611 352.654V356.327C236.611 359.757 233.831 362.537 230.401 362.537H114.687C111.257 362.537 108.477 359.757 108.477 356.327V352.654ZM114.687 347.843C112.03 347.843 109.877 349.997 109.877 352.654V356.327C109.877 358.984 112.03 361.137 114.687 361.137H230.401C233.058 361.137 235.211 358.984 235.211 356.327V352.654C235.211 349.997 233.058 347.843 230.401 347.843H114.687Z" fill="black"/>
<path d="M109.176 523.469C109.176 520.426 111.643 517.959 114.686 517.959H230.4C233.443 517.959 235.91 520.426 235.91 523.469V527.143C235.91 530.186 233.443 532.653 230.4 532.653H114.686C111.643 532.653 109.176 530.186 109.176 527.143V523.469Z" fill="#9CA089"/>
<path fill-rule="evenodd" clip-rule="evenodd" d="M108.477 523.47C108.477 520.04 111.257 517.26 114.687 517.26H230.401C233.831 517.26 236.611 520.04 236.611 523.47V527.143C236.611 530.573 233.831 533.354 230.401 533.354H114.687C111.257 533.354 108.477 530.573 108.477 527.143V523.47ZM114.687 518.66C112.03 518.66 109.877 520.813 109.877 523.47V527.143C109.877 529.8 112.03 531.954 114.687 531.954H230.401C233.058 531.954 235.211 529.8 235.211 527.143V523.47C235.211 520.813 233.058 518.66 230.401 518.66H114.687Z" fill="black"/>
<path d="M109.176 267.245C109.176 264.201 111.643 261.734 114.686 261.734H230.4C233.443 261.734 235.91 264.201 235.91 267.245V270.918C235.91 273.961 233.443 276.428 230.4 276.428H114.686C111.643 276.428 109.176 273.961 109.176 270.918V267.245Z" fill="#9CA089"/>
<path fill-rule="evenodd" clip-rule="evenodd" d="M108.477 267.245C108.477 263.816 111.257 261.035 114.687 261.035H230.401C233.831 261.035 236.611 263.816 236.611 267.245V270.919C236.611 274.349 233.831 277.129 230.401 277.129H114.687C111.257 277.129 108.477 274.349 108.477 270.919V267.245ZM114.687 262.435C112.03 262.435 109.877 264.589 109.877 267.245V270.919C109.877 273.575 112.03 275.729 114.687 275.729H230.401C233.058 275.729 235.211 273.575 235.211 270.919V267.245C235.211 264.589 233.058 262.435 230.401 262.435H114.687Z" fill="black"/>
<path d="M109.176 438.061C109.176 435.018 111.643 432.551 114.686 432.551H230.4C233.443 432.551 235.91 435.018 235.91 438.061V441.734C235.91 444.778 233.443 447.245 230.4 447.245H114.686C111.643 447.245 109.176 444.778 109.176 441.734V438.061Z" fill="#9CA089"/>
<path fill-rule="evenodd" clip-rule="evenodd" d="M108.477 438.062C108.477 434.632 111.257 431.852 114.687 431.852H230.401C233.831 431.852 236.611 434.632 236.611 438.062V441.735C236.611 445.165 233.831 447.945 230.401 447.945H114.687C111.257 447.945 108.477 445.165 108.477 441.735V438.062ZM114.687 433.252C112.03 433.252 109.877 435.405 109.877 438.062V441.735C109.877 444.392 112.03 446.545 114.687 446.545H230.401C233.058 446.545 235.211 444.392 235.211 441.735V438.062C235.211 435.405 233.058 433.252 230.401 433.252H114.687Z" fill="black"/>
<path d="M109.176 181.836C109.176 178.793 111.643 176.326 114.686 176.326H230.4C233.443 176.326 235.91 178.793 235.91 181.836V185.51C235.91 188.553 233.443 191.02 230.4 191.02H114.686C111.643 191.02 109.176 188.553 109.176 185.51V181.836Z" fill="#9CA089"/>
<path fill-rule="evenodd" clip-rule="evenodd" d="M108.477 181.837C108.477 178.407 111.257 175.627 114.687 175.627H230.401C233.831 175.627 236.611 178.407 236.611 181.837V185.511C236.611 188.94 233.831 191.721 230.401 191.721H114.687C111.257 191.721 108.477 188.94 108.477 185.511V181.837ZM114.687 177.027C112.03 177.027 109.877 179.181 109.877 181.837V185.511C109.877 188.167 112.03 190.321 114.687 190.321H230.401C233.058 190.321 235.211 188.167 235.211 185.511V181.837C235.211 179.181 233.058 177.027 230.401 177.027H114.687Z" fill="black"/>
<path d="M109.176 580.409C109.176 577.365 111.643 574.898 114.686 574.898H230.4C233.443 574.898 235.91 577.365 235.91 580.409V584.082C235.91 587.125 233.443 589.592 230.4 589.592H114.686C111.643 589.592 109.176 587.125 109.176 584.082V580.409Z" fill="#9CA089"/>
<path fill-rule="evenodd" clip-rule="evenodd" d="M108.477 580.407C108.477 576.978 111.257 574.197 114.687 574.197H230.401C233.831 574.197 236.611 576.978 236.611 580.407V584.081C236.611 587.511 233.831 590.291 230.401 590.291H114.687C111.257 590.291 108.477 587.511 108.477 584.081V580.407ZM114.687 575.597C112.03 575.597 109.877 577.751 109.877 580.407V584.081C109.877 586.738 112.03 588.891 114.687 588.891H230.401C233.058 588.891 235.211 586.738 235.211 584.081V580.407C235.211 577.751 233.058 575.597 230.401 575.597H114.687Z" fill="black"/>
<path d="M109.176 324.184C109.176 321.141 111.643 318.674 114.686 318.674H230.4C233.443 318.674 235.91 321.141 235.91 324.184V327.858C235.91 330.901 233.443 333.368 230.4 333.368H114.686C111.643 333.368 109.176 330.901 109.176 327.858V324.184Z" fill="#9CA089"/>
<path fill-rule="evenodd" clip-rule="evenodd" d="M108.477 324.183C108.477 320.753 111.257 317.973 114.687 317.973H230.401C233.831 317.973 236.611 320.753 236.611 324.183V327.856C236.611 331.286 233.831 334.067 230.401 334.067H114.687C111.257 334.067 108.477 331.286 108.477 327.856V324.183ZM114.687 319.373C112.03 319.373 109.877 321.526 109.877 324.183V327.856C109.877 330.513 112.03 332.667 114.687 332.667H230.401C233.058 332.667 235.211 330.513 235.211 327.856V324.183C235.211 321.526 233.058 319.373 230.401 319.373H114.687Z" fill="black"/>
<path d="M109.176 495C109.176 491.957 111.643 489.49 114.686 489.49H230.4C233.443 489.49 235.91 491.957 235.91 495V498.674C235.91 501.717 233.443 504.184 230.4 504.184H114.686C111.643 504.184 109.176 501.717 109.176 498.674V495Z" fill="#9CA089"/>
<path fill-rule="evenodd" clip-rule="evenodd" d="M108.477 494.999C108.477 491.569 111.257 488.789 114.687 488.789H230.401C233.831 488.789 236.611 491.569 236.611 494.999V498.673C236.611 502.103 233.831 504.883 230.401 504.883H114.687C111.257 504.883 108.477 502.103 108.477 498.673V494.999ZM114.687 490.189C112.03 490.189 109.877 492.343 109.877 494.999V498.673C109.877 501.329 112.03 503.483 114.687 503.483H230.401C233.058 503.483 235.211 501.329 235.211 498.673V494.999C235.211 492.343 233.058 490.189 230.401 490.189H114.687Z" fill="black"/>
<path d="M109.176 238.776C109.176 235.733 111.643 233.266 114.686 233.266H230.4C233.443 233.266 235.91 235.733 235.91 238.776V242.449C235.91 245.493 233.443 247.96 230.4 247.96H114.686C111.643 247.96 109.176 245.493 109.176 242.449V238.776Z" fill="#9CA089"/>
<path fill-rule="evenodd" clip-rule="evenodd" d="M108.477 238.775C108.477 235.345 111.257 232.564 114.687 232.564H230.401C233.831 232.564 236.611 235.345 236.611 238.775V242.448C236.611 245.878 233.831 248.658 230.401 248.658H114.687C111.257 248.658 108.477 245.878 108.477 242.448V238.775ZM114.687 233.964C112.03 233.964 109.877 236.118 109.877 238.775V242.448C109.877 245.105 112.03 247.258 114.687 247.258H230.401C233.058 247.258 235.211 245.105 235.211 242.448V238.775C235.211 236.118 233.058 233.964 230.401 233.964H114.687Z" fill="black"/>
<path d="M109.176 409.592C109.176 406.549 111.643 404.082 114.686 404.082H230.4C233.443 404.082 235.91 406.549 235.91 409.592V413.266C235.91 416.309 233.443 418.776 230.4 418.776H114.686C111.643 418.776 109.176 416.309 109.176 413.266V409.592Z" fill="#9CA089"/>
<path fill-rule="evenodd" clip-rule="evenodd" d="M108.477 409.591C108.477 406.161 111.257 403.381 114.687 403.381H230.401C233.831 403.381 236.611 406.161 236.611 409.591V413.265C236.611 416.694 233.831 419.475 230.401 419.475H114.687C111.257 419.475 108.477 416.694 108.477 413.265V409.591ZM114.687 404.781C112.03 404.781 109.877 406.934 109.877 409.591V413.265C109.877 415.921 112.03 418.075 114.687 418.075H230.401C233.058 418.075 235.211 415.921 235.211 413.265V409.591C235.211 406.934 233.058 404.781 230.401 404.781H114.687Z" fill="black"/>
<path d="M109.176 153.368C109.176 150.324 111.643 147.857 114.686 147.857H230.4C233.443 147.857 235.91 150.324 235.91 153.368V157.041C235.91 160.084 233.443 162.551 230.4 162.551H114.686C111.643 162.551 109.176 160.084 109.176 157.041V153.368Z" fill="#9CA089"/>
<path fill-rule="evenodd" clip-rule="evenodd" d="M108.477 153.366C108.477 149.937 111.257 147.156 114.687 147.156H230.401C233.831 147.156 236.611 149.937 236.611 153.366V157.04C236.611 160.47 233.831 163.25 230.401 163.25H114.687C111.257 163.25 108.477 160.47 108.477 157.04V153.366ZM114.687 148.556C112.03 148.556 109.877 150.71 109.877 153.366V157.04C109.877 159.697 112.03 161.85 114.687 161.85H230.401C233.058 161.85 235.211 159.697 235.211 157.04V153.366C235.211 150.71 233.058 148.556 230.401 148.556H114.687Z" fill="black"/>
<path d="M109.176 124.899C109.176 121.856 111.643 119.389 114.686 119.389H230.4C233.443 119.389 235.91 121.856 235.91 124.899V128.572C235.91 131.616 233.443 134.083 230.4 134.083H114.686C111.643 134.083 109.176 131.616 109.176 128.572V124.899Z" fill="#9CA089"/>
<path fill-rule="evenodd" clip-rule="evenodd" d="M108.477 124.898C108.477 121.468 111.257 118.688 114.687 118.688H230.401C233.831 118.688 236.611 121.468 236.611 124.898V128.571C236.611 132.001 233.831 134.781 230.401 134.781H114.687C111.257 134.781 108.477 132.001 108.477 128.571V124.898ZM114.687 120.087C112.03 120.087 109.877 122.241 109.877 124.898V128.571C109.877 131.228 112.03 133.381 114.687 133.381H230.401C233.058 133.381 235.211 131.228 235.211 128.571V124.898C235.211 122.241 233.058 120.087 230.401 120.087H114.687Z" fill="black"/>
<path d="M109.176 18.3676C109.176 15.3244 111.643 12.8574 114.686 12.8574H230.4C233.443 12.8574 235.91 15.3244 235.91 18.3676V22.0411C235.91 25.0843 233.443 27.5513 230.4 27.5513H114.686C111.643 27.5513 109.176 25.0843 109.176 22.0411V18.3676Z" fill="#9CA089"/>
<path fill-rule="evenodd" clip-rule="evenodd" d="M108.477 18.3665C108.477 14.9367 111.257 12.1562 114.687 12.1562H230.401C233.831 12.1562 236.611 14.9367 236.611 18.3665V22.0399C236.611 25.4697 233.831 28.2501 230.401 28.2501H114.687C111.257 28.2501 108.477 25.4697 108.477 22.0399V18.3665ZM114.687 13.5562C112.03 13.5562 109.877 15.7099 109.877 18.3665V22.0399C109.877 24.6965 112.03 26.8501 114.687 26.8501H230.401C233.058 26.8501 235.211 24.6965 235.211 22.0399V18.3665C235.211 15.7099 233.058 13.5562 230.401 13.5562H114.687Z" fill="black"/>
<path d="M109.176 46.8364C109.176 43.7932 111.643 41.3262 114.686 41.3262H230.4C233.443 41.3262 235.91 43.7932 235.91 46.8364V50.5098C235.91 53.553 233.443 56.0201 230.4 56.0201H114.686C111.643 56.0201 109.176 53.553 109.176 50.5098V46.8364Z" fill="#9CA089"/>
<path fill-rule="evenodd" clip-rule="evenodd" d="M108.477 46.8372C108.477 43.4074 111.257 40.627 114.687 40.627H230.401C233.831 40.627 236.611 43.4074 236.611 46.8372V50.5106C236.611 53.9404 233.831 56.7208 230.401 56.7208H114.687C111.257 56.7208 108.477 53.9404 108.477 50.5106V46.8372ZM114.687 42.027C112.03 42.027 109.877 44.1806 109.877 46.8372V50.5106C109.877 53.1672 112.03 55.3208 114.687 55.3208H230.401C233.058 55.3208 235.211 53.1672 235.211 50.5106V46.8372C235.211 44.1806 233.058 42.027 230.401 42.027H114.687Z" fill="black"/>
<path d="M109.176 75.3071C109.176 72.2639 111.643 69.7969 114.686 69.7969H230.4C233.443 69.7969 235.91 72.2639 235.91 75.3071V78.9806C235.91 82.0238 233.443 84.4908 230.4 84.4908H114.686C111.643 84.4908 109.176 82.0238 109.176 78.9806V75.3071Z" fill="#9CA089"/>
<path fill-rule="evenodd" clip-rule="evenodd" d="M108.477 75.3059C108.477 71.8761 111.257 69.0957 114.687 69.0957H230.401C233.831 69.0957 236.611 71.8761 236.611 75.3059V78.9794C236.611 82.4092 233.831 85.1896 230.401 85.1896H114.687C111.257 85.1896 108.477 82.4092 108.477 78.9794V75.3059ZM114.687 70.4957C112.03 70.4957 109.877 72.6493 109.877 75.3059V78.9794C109.877 81.636 112.03 83.7896 114.687 83.7896H230.401C233.058 83.7896 235.211 81.636 235.211 78.9794V75.3059C235.211 72.6493 233.058 70.4957 230.401 70.4957H114.687Z" fill="black"/>
<path d="M109.176 103.776C109.176 100.733 111.643 98.2656 114.686 98.2656H230.4C233.443 98.2656 235.91 100.733 235.91 103.776V105.613H109.176V103.776Z" fill="#9CA089"/>
<path fill-rule="evenodd" clip-rule="evenodd" d="M108.477 103.775C108.477 100.345 111.257 97.5645 114.687 97.5645H230.401C233.831 97.5645 236.611 100.345 236.611 103.775V106.311H108.477V103.775ZM114.687 98.9645C112.03 98.9645 109.877 101.118 109.877 103.775V104.911H235.211V103.775C235.211 101.118 233.058 98.9645 230.401 98.9645H114.687Z" fill="black"/>
<path d="M302.814 539.118C302.069 537.894 302.95 536.326 304.383 536.326H349.275C350.708 536.326 351.589 537.894 350.844 539.118L328.398 575.993C327.682 577.169 325.975 577.169 325.26 575.993L302.814 539.118Z" fill="#9CA089"/>
<path fill-rule="evenodd" clip-rule="evenodd" d="M349.275 537.726H304.383C304.042 537.726 303.832 538.099 304.01 538.39L326.456 575.266C326.626 575.545 327.032 575.545 327.202 575.266L349.648 538.39C349.825 538.099 349.615 537.726 349.275 537.726ZM304.383 536.326C302.95 536.326 302.069 537.894 302.814 539.118L325.26 575.993C325.975 577.169 327.682 577.169 328.398 575.993L350.844 539.118C351.589 537.894 350.708 536.326 349.275 536.326H304.383Z" fill="black"/>
<path fill-rule="evenodd" clip-rule="evenodd" d="M292.097 34.4187C294.557 33.8009 297.052 35.294 297.669 37.7535C299.763 46.0877 301.034 54.3844 301.984 62.7446C302.27 65.2644 300.459 67.5391 297.939 67.8253C295.42 68.1116 293.145 66.3009 292.859 63.7811C291.935 55.6463 290.721 47.787 288.762 39.9909C288.145 37.5313 289.638 35.0366 292.097 34.4187Z" fill="black"/>
<path fill-rule="evenodd" clip-rule="evenodd" d="M319.604 31.3336C320.051 33.8298 318.39 36.216 315.894 36.6633C312.791 37.2192 309.63 37.8586 306.421 38.508C297.085 40.3968 287.331 42.3702 277.352 42.6212C274.817 42.6849 272.71 40.6814 272.646 38.1462C272.582 35.611 274.586 33.5042 277.121 33.4404C286.23 33.2114 294.833 31.4721 303.929 29.6334C307.293 28.9532 310.725 28.2595 314.274 27.6235C316.77 27.1763 319.156 28.8373 319.604 31.3336Z" fill="black"/>
<path fill-rule="evenodd" clip-rule="evenodd" d="M329.997 30.0799C332.53 29.9554 334.685 31.9079 334.809 34.4408C334.944 37.1776 335.039 39.8829 335.134 42.559C335.436 51.1322 335.728 59.4052 337.257 67.4513C337.73 69.9427 336.095 72.3461 333.603 72.8195C331.112 73.2929 328.708 71.6569 328.235 69.1655C326.562 60.3604 326.239 51.1176 325.934 42.4061C325.844 39.8472 325.757 37.3342 325.636 34.8915C325.512 32.3586 327.464 30.2043 329.997 30.0799Z" fill="black"/>
<path fill-rule="evenodd" clip-rule="evenodd" d="M354.984 51.0986C355.199 53.6255 353.325 55.8485 350.798 56.0638C345.409 56.5232 340.065 57.0402 334.69 57.5601C331.119 57.9056 327.534 58.2524 323.914 58.5844C321.388 58.816 319.153 56.9565 318.922 54.4311C318.69 51.9057 320.55 49.6707 323.075 49.4391C326.591 49.1166 330.142 48.7733 333.706 48.4286C339.139 47.9033 344.602 47.3749 350.018 46.9133C352.545 46.698 354.768 48.5718 354.984 51.0986Z" fill="black"/>
<path fill-rule="evenodd" clip-rule="evenodd" d="M349.145 28.9038C351.399 27.7419 354.169 28.6274 355.331 30.8815C359.68 39.3206 360.495 48.5833 361.226 56.8859C361.378 58.6141 361.526 60.3007 361.702 61.9296C361.974 64.4509 360.151 66.7155 357.629 66.9876C355.108 67.2598 352.843 65.4364 352.571 62.9151C352.355 60.9085 352.178 58.9689 352.007 57.0877C351.26 48.8747 350.615 41.7771 347.168 35.0892C346.006 32.835 346.891 30.0658 349.145 28.9038Z" fill="black"/>
<path fill-rule="evenodd" clip-rule="evenodd" d="M368.914 32.6753C371.408 32.2133 373.804 33.8602 374.266 36.3537C374.443 37.3126 374.605 39.1984 374.774 41.1802C374.799 41.465 374.823 41.7517 374.848 42.0379C375.062 44.516 375.327 47.4418 375.691 50.2598C376.048 53.0246 376.475 55.4783 376.978 57.2287C377.462 56.9852 378.005 56.678 378.603 56.3109C379.501 55.7596 380.396 55.1546 381.315 54.5339C381.372 54.4957 381.428 54.4574 381.485 54.4191C382.39 53.8077 383.433 53.1041 384.347 52.5978C386.565 51.3688 389.359 52.1707 390.589 54.389C391.818 56.6073 391.016 59.4019 388.797 60.6309C388.309 60.9014 387.625 61.3542 386.625 62.0294C386.559 62.0741 386.492 62.1196 386.424 62.1657C385.537 62.765 384.484 63.4769 383.406 64.1381C382.255 64.845 380.927 65.5872 379.561 66.1321C378.264 66.6491 376.484 67.174 374.571 66.9677C371.947 66.6849 370.474 64.7952 369.833 63.7822C369.104 62.629 368.603 61.2795 368.236 60.0534C367.487 57.5518 366.967 54.4143 366.583 51.436C366.192 48.4089 365.913 45.3144 365.698 42.8292C365.681 42.6286 365.664 42.434 365.648 42.2454C365.446 39.9117 365.325 38.5084 365.236 38.0269C364.774 35.5333 366.421 33.1373 368.914 32.6753ZM377.596 58.8743C377.595 58.8729 377.594 58.8714 377.593 58.8698C377.632 58.9219 377.632 58.9317 377.596 58.8743Z" fill="black"/>
<path fill-rule="evenodd" clip-rule="evenodd" d="M389.467 46.0489C389.683 48.5756 387.811 50.7998 385.284 51.0167C380.311 51.4437 375.347 52.0231 370.348 52.6769C367.833 53.0057 365.528 51.2338 365.199 48.7192C364.871 46.2046 366.643 43.8996 369.157 43.5708C374.235 42.9067 379.343 42.3094 384.499 41.8667C387.025 41.6498 389.25 43.5222 389.467 46.0489Z" fill="black"/>
<path fill-rule="evenodd" clip-rule="evenodd" d="M385.14 39.0172C380.162 38.4091 376.839 38.0032 372.593 39.1102C370.139 39.75 367.631 38.2793 366.991 35.8254C366.352 33.3714 367.822 30.8634 370.276 30.2236C376.309 28.6507 381.363 29.2844 386.212 29.8924C386.795 29.9656 387.376 30.0384 387.955 30.1069C390.473 30.4051 392.273 32.6883 391.975 35.2068C391.677 37.7252 389.393 39.5251 386.875 39.2269C386.274 39.1557 385.696 39.0852 385.14 39.0172Z" fill="black"/>
<path fill-rule="evenodd" clip-rule="evenodd" d="M281.229 99.9457C283.73 100.368 285.415 102.738 284.992 105.238C283.663 113.109 284.6 119.82 285.688 127.617C286.09 130.495 286.513 133.52 286.849 136.807C287.108 139.329 285.272 141.584 282.749 141.843C280.227 142.101 277.972 140.265 277.713 137.743C277.451 135.183 277.087 132.588 276.716 129.946C275.565 121.744 274.351 113.097 275.937 103.709C276.359 101.208 278.729 99.5234 281.229 99.9457Z" fill="black"/>
<path fill-rule="evenodd" clip-rule="evenodd" d="M280.861 109.404C280.165 109.635 279.413 109.886 278.55 110.144C276.12 110.869 273.562 109.488 272.836 107.058C272.11 104.628 273.492 102.07 275.921 101.344C276.269 101.24 276.719 101.091 277.24 100.919C278.806 100.401 281.011 99.6717 282.985 99.3217C285.84 98.8154 289.657 98.7558 293.049 101.283C296.168 103.607 297.04 106.942 297.044 109.684C297.048 112.31 296.288 114.816 295.645 116.543C294.839 118.706 293.846 120.777 292.721 122.743C293.611 122.931 294.511 123.193 295.431 123.54C301.929 125.996 307.216 129.703 312.112 133.729C314.071 135.339 314.353 138.233 312.743 140.192C311.132 142.151 308.239 142.433 306.28 140.823C301.735 137.087 297.342 134.08 292.185 132.131C290.576 131.523 289.107 131.408 287.165 131.709C287.136 131.718 287.097 131.731 287.049 131.748C287.026 131.756 286.996 131.766 286.96 131.779C286.758 131.85 286.365 131.989 286.016 132.088C286.009 132.091 286 132.093 285.99 132.096C285.697 132.18 284.632 132.487 283.421 132.304C282.673 132.19 281.473 131.829 280.491 130.729C279.485 129.603 279.253 128.317 279.253 127.446C279.253 126.361 279.591 125.493 279.791 125.044C280.021 124.53 280.295 124.075 280.53 123.72C280.999 123.009 281.567 122.31 282.043 121.749C282.399 121.328 282.783 120.895 283.097 120.539C283.203 120.419 283.302 120.307 283.389 120.208C283.735 119.814 283.849 119.668 283.852 119.67C283.852 119.67 283.851 119.673 283.848 119.678C285.141 117.639 286.228 115.515 287.038 113.338C287.542 111.986 287.862 110.694 287.86 109.698C287.859 108.86 287.66 108.717 287.574 108.656C287.57 108.653 287.566 108.65 287.562 108.648C287.105 108.306 286.333 108.055 284.588 108.364C283.299 108.593 282.181 108.965 280.861 109.404ZM283.491 123.259C283.484 123.261 283.485 123.26 283.493 123.258C283.492 123.258 283.491 123.259 283.491 123.259Z" fill="black"/>
<path fill-rule="evenodd" clip-rule="evenodd" d="M316.142 99.924C318.655 99.5794 320.971 101.337 321.315 103.849C321.852 107.76 322.262 111.684 322.663 115.521C322.683 115.719 322.704 115.917 322.725 116.115C323.149 120.168 323.57 124.128 324.134 128.043C324.181 128.371 324.206 128.721 324.221 128.959C324.238 129.23 324.253 129.538 324.267 129.836C324.269 129.878 324.271 129.919 324.273 129.961C324.285 130.233 324.299 130.51 324.313 130.787C325.266 130.631 326.381 130.399 327.616 130.118C328.495 129.918 329.388 129.705 330.287 129.49L330.298 129.487C331.189 129.274 332.092 129.057 332.938 128.867C334.454 128.525 336.343 128.127 337.793 128.127C340.329 128.127 342.384 130.183 342.384 132.719C342.384 135.255 340.329 137.311 337.793 137.311C337.803 137.311 337.736 137.311 337.568 137.33C337.407 137.348 337.196 137.377 336.931 137.422C336.396 137.514 335.736 137.65 334.957 137.826C334.181 138.001 333.34 138.202 332.436 138.418L332.401 138.427C331.519 138.638 330.583 138.862 329.652 139.073C327.807 139.493 325.79 139.909 324.034 140.088C323.162 140.177 322.177 140.228 321.219 140.134C320.399 140.054 318.848 139.809 317.513 138.688C316.484 137.824 316.06 136.755 315.911 136.359C315.712 135.825 315.591 135.302 315.513 134.896C315.355 134.073 315.269 133.169 315.213 132.415C315.161 131.699 315.127 130.979 315.1 130.412C315.098 130.364 315.096 130.317 315.093 130.271C315.068 129.736 315.052 129.482 315.046 129.392C315.044 129.359 315.044 129.348 315.044 129.353C314.451 125.236 314.013 121.109 313.591 117.07C313.572 116.887 313.553 116.703 313.533 116.52C313.129 112.646 312.733 108.857 312.217 105.097C311.872 102.585 313.63 100.269 316.142 99.924ZM322.11 130.994C322.04 130.987 322.053 130.982 322.127 130.995C322.121 130.995 322.115 130.994 322.11 130.994Z" fill="black"/>
<path fill-rule="evenodd" clip-rule="evenodd" d="M340.138 109.842C341.355 112.067 340.537 114.857 338.311 116.073C333.021 118.965 326.802 120.361 321.477 121.556C320.211 121.84 318.996 122.113 317.855 122.392C315.392 122.994 312.907 121.485 312.304 119.022C311.702 116.559 313.211 114.073 315.674 113.471C317.194 113.099 318.666 112.765 320.093 112.442C325.282 111.264 329.862 110.225 333.907 108.015C336.132 106.798 338.922 107.616 340.138 109.842Z" fill="black"/>
<path fill-rule="evenodd" clip-rule="evenodd" d="M341.313 92.9473C342.105 95.3563 340.795 97.9516 338.386 98.744C337.675 98.9778 336.967 99.2103 336.261 99.4421C329.607 101.627 323.147 103.747 316.745 106.232C314.381 107.15 311.72 105.977 310.803 103.613C309.885 101.249 311.058 98.5886 313.422 97.671C320.065 95.0926 326.759 92.8951 333.378 90.7224C334.092 90.4882 334.804 90.2543 335.516 90.0202C337.925 89.2278 340.52 90.5383 341.313 92.9473Z" fill="black"/>
<path fill-rule="evenodd" clip-rule="evenodd" d="M360.592 94.8369C363.128 94.8882 365.142 96.9853 365.09 99.5208C364.983 104.819 364.386 110.328 363.812 115.627C363.666 116.976 363.521 118.312 363.386 119.627C363.3 120.47 363.217 121.307 363.14 122.137C363.336 122.619 363.452 123.142 363.474 123.691C363.575 126.338 363.536 131.433 363.413 135.21C363.354 137.044 363.269 138.806 363.143 139.825C363.116 140.043 363.057 140.496 362.925 140.957C362.924 140.96 362.923 140.964 362.922 140.969C362.887 141.095 362.664 141.908 362.032 142.685C361.684 143.112 360.668 144.195 358.898 144.368C356.973 144.557 355.674 143.543 355.131 142.982C354.606 142.44 354.341 141.898 354.241 141.68C354.115 141.408 354.038 141.174 353.994 141.028C353.906 140.737 353.855 140.477 353.826 140.315C353.765 139.975 353.721 139.601 353.687 139.248C353.022 132.416 353.565 125.38 354.25 118.691C354.398 117.249 354.552 115.828 354.703 114.426C355.271 109.177 355.81 104.189 355.909 99.3348C355.96 96.7993 358.057 94.7856 360.592 94.8369ZM354.019 138.767C354.019 138.767 354.02 138.757 354.023 138.739C354.021 138.758 354.019 138.767 354.019 138.767Z" fill="black"/>
<path fill-rule="evenodd" clip-rule="evenodd" d="M363.847 112.962C362.318 111.864 360.494 111.299 357.908 111.74C355.408 112.166 353.036 110.486 352.609 107.986C352.183 105.486 353.863 103.114 356.363 102.687C361.363 101.834 365.673 102.968 369.202 105.501C372.572 107.92 374.974 111.425 376.776 114.953C378.593 118.512 379.976 122.45 381.125 126.06C381.595 127.536 382.013 128.912 382.407 130.205C383.025 132.237 383.58 134.064 384.174 135.748C385.018 138.14 383.763 140.763 381.372 141.606C378.98 142.45 376.358 141.195 375.514 138.804C374.865 136.964 374.196 134.769 373.523 132.563C373.14 131.306 372.756 130.046 372.374 128.847C371.264 125.358 370.063 122 368.597 119.13C367.116 116.23 365.536 114.174 363.847 112.962Z" fill="black"/>
<path fill-rule="evenodd" clip-rule="evenodd" d="M384.262 120.88C384.956 123.319 383.541 125.859 381.101 126.553C380.454 126.737 379.809 126.92 379.167 127.102C371.572 129.258 364.31 131.32 357.05 134.011C354.673 134.892 352.03 133.679 351.149 131.302C350.267 128.924 351.481 126.281 353.858 125.4C361.473 122.577 369.073 120.42 376.606 118.283C377.267 118.095 377.928 117.907 378.589 117.719C381.028 117.025 383.568 118.44 384.262 120.88Z" fill="black"/>
<path fill-rule="evenodd" clip-rule="evenodd" d="M413.794 96.0066C414.754 98.3537 413.63 101.035 411.283 101.995C409.4 102.766 407.683 103.481 406.197 104.258C404.674 105.053 403.746 105.738 403.254 106.287C402.885 106.698 402.935 106.816 402.942 106.832C402.942 106.833 402.943 106.833 402.943 106.834C402.962 107.044 403.157 107.955 404.673 109.684C406.664 111.954 409.012 113.325 412.371 114.925C412.414 114.946 412.517 114.99 412.665 115.054C413.345 115.346 414.974 116.046 416.103 116.724C417.467 117.544 420.25 119.498 420.552 123.088C420.862 126.782 419.725 129.939 417.284 132.196C415.069 134.244 412.235 135.123 409.877 135.541C406.284 136.179 401.901 135.955 399.681 135.841C399.134 135.813 398.718 135.792 398.478 135.792C395.942 135.792 393.886 133.736 393.886 131.2C393.886 128.664 395.942 126.608 398.478 126.608C399.339 126.608 400.252 126.653 401.2 126.7C403.427 126.81 405.85 126.929 408.271 126.499C409.878 126.214 410.701 125.775 411.049 125.453C411.053 125.45 411.056 125.446 411.06 125.443C411.156 125.355 411.35 125.178 411.405 124.615C411.394 124.609 411.384 124.603 411.373 124.596C411.034 124.392 410.608 124.184 410.081 123.95C409.878 123.86 409.687 123.777 409.48 123.688C409.417 123.661 409.352 123.633 409.286 123.604C409.024 123.491 408.714 123.355 408.42 123.216C404.788 121.485 401.034 119.463 397.768 115.74C395.606 113.273 394.071 110.596 393.799 107.689C393.508 104.578 394.731 102.037 396.412 100.16C397.991 98.397 400.059 97.1032 401.944 96.1182C403.866 95.1141 405.969 94.247 407.805 93.4955C410.152 92.5352 412.834 93.6594 413.794 96.0066Z" fill="black"/>
<path fill-rule="evenodd" clip-rule="evenodd" d="M452.149 96.5474C455.17 100.026 456.144 104.854 455.885 109.293C455.663 113.086 454.411 117.521 452.409 121.442C450.439 125.302 447.421 129.289 443.241 131.422C441.47 132.326 439.515 132.808 437.484 132.544C435.44 132.278 433.783 131.317 432.522 130.141C430.183 127.958 428.87 124.729 428.06 122.043C426.596 117.187 426.061 111.455 425.825 108.935C425.792 108.577 425.764 108.284 425.741 108.067C425.559 106.363 426.334 104.777 427.635 103.845C427.946 102.628 428.357 101.409 428.922 100.261C430.631 96.785 433.582 94.1813 438.208 92.933C443.849 91.4106 448.844 92.7415 452.149 96.5474ZM435.4 112.056C435.578 111.657 435.701 111.227 435.76 110.772C436.163 107.668 436.457 105.748 437.162 104.315C437.667 103.29 438.439 102.383 440.601 101.8C443.404 101.043 444.574 101.831 445.215 102.569C446.14 103.634 446.891 105.775 446.717 108.757C446.578 111.13 445.727 114.334 444.23 117.267C442.701 120.262 440.827 122.344 439.067 123.242C438.931 123.311 438.824 123.356 438.745 123.385C438.258 122.899 437.536 121.657 436.853 119.392C436.139 117.025 435.696 114.371 435.4 112.056ZM438.563 123.433C438.563 123.433 438.568 123.432 438.578 123.432C438.568 123.433 438.563 123.433 438.563 123.433Z" fill="black"/>
<path fill-rule="evenodd" clip-rule="evenodd" d="M501.052 125.023C500.833 126.105 500.548 127.33 500.157 128.255C499.33 130.214 497.593 131.797 495.149 132.042C493.24 132.234 491.591 131.517 490.594 130.984C488.483 129.857 486.31 127.894 484.536 126.117C482.669 124.247 480.864 122.194 479.473 120.554C478.772 119.729 478.165 118.995 477.701 118.432C477.656 118.378 477.614 118.327 477.573 118.277C477.395 118.061 477.247 117.882 477.122 117.732C477.046 117.641 476.986 117.569 476.939 117.513C476.892 117.458 476.872 117.435 476.869 117.433L476.869 117.432C476.775 117.328 476.517 117.018 476.19 116.627C475.917 116.301 475.598 115.918 475.287 115.55C475.135 115.37 474.974 115.182 474.808 114.987C474.833 115.529 474.86 116.063 474.887 116.586C474.902 116.883 474.917 117.175 474.931 117.463C474.993 118.72 475.067 120.245 474.974 121.267C474.937 121.674 474.814 122.259 474.749 122.565C474.745 122.583 474.741 122.601 474.738 122.617C474.64 123.082 474.507 123.688 474.352 124.377C474.042 125.758 473.635 127.518 473.223 129.245C472.813 130.966 472.392 132.682 472.057 133.964C471.892 134.592 471.733 135.175 471.598 135.614C471.54 135.804 471.444 136.105 471.325 136.396C471.324 136.398 471.322 136.402 471.321 136.405C471.283 136.499 471.11 136.921 470.798 137.367C470.796 137.371 470.793 137.375 470.789 137.38C470.688 137.527 470.091 138.394 468.935 138.925C468.182 139.27 467.017 139.547 465.697 139.152C464.426 138.772 463.657 137.96 463.265 137.41C462.57 136.432 462.294 135.386 462.162 134.76C462.013 134.048 461.943 133.32 461.91 132.667C461.843 131.356 461.902 129.912 461.992 128.634C462.084 127.333 462.218 126.081 462.33 125.124C462.38 124.699 462.426 124.324 462.462 124.032C462.467 123.995 462.472 123.958 462.476 123.924C462.5 123.729 462.513 123.614 462.521 123.553C462.527 123.497 462.529 123.487 462.527 123.502C462.94 118.147 463.694 110.301 464.271 104.295C464.39 103.059 464.501 101.901 464.6 100.858C464.841 98.3335 467.082 96.4818 469.607 96.7222C472.004 96.9505 473.795 98.9837 473.763 101.35C474.605 101.758 475.346 102.342 475.857 102.775C476.963 103.711 478.198 104.99 479.281 106.173C480.395 107.39 481.477 108.648 482.3 109.621C482.713 110.11 483.065 110.532 483.325 110.843C483.455 111 483.546 111.109 483.606 111.18C483.688 111.279 483.713 111.308 483.704 111.299C483.988 111.615 484.407 112.122 484.936 112.763C486.347 114.473 488.542 117.132 491.034 119.627C491.535 120.129 492.007 120.58 492.443 120.977C492.515 120.524 492.587 120.043 492.658 119.538C493.067 116.634 493.44 113.066 493.654 109.614C493.87 106.12 493.911 102.932 493.713 100.711C493.666 100.194 493.612 99.7928 493.561 99.4932C492.618 98.6522 492.024 97.4277 492.024 96.0645C492.024 93.5285 494.079 91.4727 496.615 91.4727C498.412 91.4727 499.769 92.3435 500.605 93.2476C501.361 94.064 501.777 94.9763 502.018 95.6277C502.506 96.945 502.734 98.4891 502.86 99.8931C503.12 102.803 503.046 106.532 502.82 110.182C502.591 113.875 502.194 117.681 501.752 120.82C501.531 122.388 501.293 123.827 501.052 125.023ZM493.405 98.8148C493.406 98.8173 493.407 98.82 493.408 98.8228C493.397 98.7974 493.397 98.793 493.405 98.8148ZM495.134 122.982C495.134 122.984 495.117 122.979 495.083 122.964C495.116 122.974 495.133 122.981 495.134 122.982ZM474.988 107.778C474.989 107.779 474.984 107.793 474.974 107.819C474.983 107.79 474.988 107.777 474.988 107.778ZM471.15 132.875C471.15 132.874 471.15 132.872 471.149 132.87C471.164 132.922 471.162 132.929 471.15 132.875Z" fill="black"/>
<path fill-rule="evenodd" clip-rule="evenodd" d="M291.337 162.239C293.807 161.666 296.274 163.204 296.847 165.675C298.931 174.66 298.729 183.28 298.535 191.583C298.479 193.972 298.424 196.334 298.424 198.672C298.424 201.208 296.368 203.264 293.832 203.264C291.296 203.264 289.241 201.208 289.241 198.672C289.241 195.868 289.3 193.213 289.358 190.655C289.539 182.595 289.698 175.5 287.901 167.749C287.328 165.279 288.866 162.812 291.337 162.239Z" fill="black"/>
<path fill-rule="evenodd" clip-rule="evenodd" d="M340.622 162.151C343.141 161.856 345.422 163.658 345.717 166.177C346.881 176.099 346.88 185.925 345.717 195.842C345.422 198.361 343.141 200.163 340.622 199.868C338.103 199.573 336.301 197.291 336.596 194.773C337.676 185.566 337.676 176.458 336.596 167.246C336.301 164.727 338.103 162.446 340.622 162.151Z" fill="black"/>
<path fill-rule="evenodd" clip-rule="evenodd" d="M333.909 179.375C333.768 179.427 333.628 179.478 333.489 179.529C331.109 180.405 328.47 179.185 327.594 176.805C326.719 174.425 327.938 171.786 330.318 170.91C330.523 170.835 330.732 170.758 330.946 170.679C335.17 169.122 341.217 166.892 347.303 165.948C353.601 164.972 361.164 165.176 366.872 170.241C370.471 173.436 371.314 177.767 370.868 181.497C370.433 185.136 368.767 188.609 366.702 191.147C361.981 196.95 354.335 201.157 347.383 202.761C347.007 202.847 346.575 202.887 346.494 202.895C346.489 202.895 346.485 202.895 346.483 202.896C346.285 202.915 346.045 202.936 345.799 202.957C345.457 202.985 345.053 203.017 344.662 203.048C344.491 203.061 344.322 203.074 344.163 203.087C343.918 203.106 343.699 203.124 343.513 203.14C343.171 203.221 342.813 203.264 342.446 203.264C342.357 203.264 342.169 203.264 341.97 203.25C341.969 203.25 341.968 203.25 341.967 203.25C341.927 203.248 341.551 203.226 341.115 203.116C340.978 203.081 340.711 203.007 340.393 202.867C340.168 202.768 339.414 202.427 338.743 201.639C337.846 200.586 337.254 198.853 337.946 197.03C338.447 195.712 339.386 195.049 339.64 194.875C340.233 194.467 340.793 194.299 340.886 194.271C340.89 194.27 340.893 194.269 340.895 194.268C341.078 194.212 341.227 194.178 341.3 194.162C341.455 194.129 341.583 194.11 341.642 194.101C341.774 194.082 341.903 194.067 341.991 194.058C342.347 194.02 342.91 193.974 343.435 193.932C343.614 193.918 343.793 193.904 343.969 193.89C344.349 193.86 344.717 193.831 345.038 193.805C345.246 193.787 345.413 193.773 345.537 193.761C350.785 192.497 356.399 189.259 359.578 185.351C360.687 183.988 361.545 182.11 361.749 180.406C361.942 178.794 361.54 177.788 360.775 177.11C358.18 174.806 354.125 174.184 348.71 175.024C343.558 175.822 338.277 177.767 333.909 179.375ZM345.711 193.742C345.712 193.742 345.701 193.744 345.674 193.747C345.697 193.744 345.71 193.742 345.711 193.742ZM342.421 194.081C342.422 194.081 342.426 194.081 342.435 194.081C342.426 194.081 342.421 194.081 342.421 194.081Z" fill="black"/>
<path fill-rule="evenodd" clip-rule="evenodd" d="M379.017 163.037C381.511 162.58 383.904 164.231 384.361 166.726C386.119 176.317 386.96 185.571 386.96 195.308C386.96 197.844 384.904 199.9 382.368 199.9C379.832 199.9 377.776 197.844 377.776 195.308C377.776 186.126 376.986 177.426 375.328 168.381C374.871 165.887 376.522 163.494 379.017 163.037Z" fill="black"/>
<path fill-rule="evenodd" clip-rule="evenodd" d="M397.995 157.088C400.523 156.893 402.731 158.785 402.926 161.313C403.047 162.884 403.165 164.45 403.283 166.012C403.885 174 404.479 181.875 405.429 189.709C405.735 192.227 403.942 194.515 401.424 194.821C398.907 195.126 396.618 193.333 396.313 190.815C395.335 182.754 394.723 174.636 394.121 166.648C394.004 165.1 393.888 163.556 393.77 162.019C393.575 159.491 395.466 157.283 397.995 157.088Z" fill="black"/>
<path fill-rule="evenodd" clip-rule="evenodd" d="M410.15 170.463C406.162 170.484 401.766 171.649 398.136 172.876C395.734 173.689 393.128 172.4 392.315 169.997C391.503 167.595 392.792 164.989 395.194 164.176C399.096 162.857 404.616 161.308 410.103 161.28C415.629 161.251 421.918 162.797 426.005 168.558C428.763 172.445 428.498 176.668 427.341 179.996C426.224 183.205 424.168 186.001 422.496 187.948C421.933 188.602 421.166 189.21 420.609 189.633C419.955 190.128 419.175 190.673 418.345 191.224C416.684 192.326 414.682 193.547 412.803 194.584C411.037 195.559 409.016 196.577 407.451 197.044C407.04 197.167 406.454 197.316 405.799 197.362C405.348 197.394 403.789 197.477 402.332 196.389C400.349 194.909 400.259 192.714 400.482 191.542C400.674 190.534 401.135 189.754 401.392 189.352C402.537 187.561 404.716 186.833 406.65 187.448C407.146 187.201 407.722 186.899 408.365 186.544C410.019 185.631 411.808 184.541 413.266 183.572C413.996 183.088 414.609 182.657 415.062 182.313C415.435 182.031 415.581 181.896 415.594 181.889C416.936 180.315 418.111 178.576 418.667 176.978C419.191 175.473 419.029 174.597 418.515 173.872C416.842 171.515 414.099 170.443 410.15 170.463ZM404.789 188.254C404.789 188.253 404.796 188.252 404.808 188.249C404.795 188.252 404.789 188.254 404.789 188.254ZM409.13 194.298C409.129 194.299 409.129 194.299 409.129 194.299L409.129 194.299C409.129 194.299 409.129 194.299 409.13 194.298Z" fill="black"/>
<path fill-rule="evenodd" clip-rule="evenodd" d="M467.56 167.309C469.434 165.896 469.954 163.26 468.693 161.226C468.206 160.441 467.691 159.613 467.237 158.976C467.015 158.665 466.702 158.248 466.326 157.861C466.135 157.665 465.842 157.386 465.453 157.118C465.098 156.873 464.396 156.45 463.414 156.294C462.272 156.112 460.978 156.336 459.87 157.14C458.903 157.841 458.444 158.72 458.236 159.217C457.849 160.144 457.804 161.04 457.79 161.423C457.755 162.369 457.859 163.568 458.008 164.856C458.224 166.718 458.455 168.538 458.681 170.327C459.3 175.216 459.89 179.871 460.068 184.506C457.966 181.796 455.769 179.108 453.414 176.517C453.423 176.527 451.647 174.399 449.905 172.826C449.104 172.104 447.795 171.007 446.301 170.432C445.795 170.237 444.964 169.981 443.963 169.999C443.732 168.734 443.482 167.464 443.207 166.186C442.675 163.707 440.234 162.128 437.754 162.66C435.275 163.192 433.696 165.633 434.228 168.113C436.538 178.877 437.094 189.173 437.607 200.539C437.621 200.842 437.64 201.156 437.671 201.441C437.685 201.575 437.712 201.792 437.762 202.035C437.787 202.156 437.833 202.357 437.911 202.594C437.967 202.766 438.144 203.287 438.545 203.85C438.863 204.297 440.199 205.957 442.64 205.776C444.801 205.615 445.879 204.098 446.071 203.826C446.588 203.089 446.767 202.345 446.783 202.281C446.783 202.278 446.784 202.277 446.784 202.276C446.884 201.896 446.935 201.521 446.959 201.337C447.073 200.478 447.18 198.976 447.273 197.397C447.464 194.147 447.638 189.778 447.655 187.522C447.663 186.424 447.569 184.988 447.474 183.648C451.145 187.798 454.47 192.257 457.906 196.924C458.332 197.502 458.826 198.092 459.401 198.6C459.941 199.078 460.821 199.727 462.03 200.018C463.434 200.356 464.922 200.117 466.162 199.286C467.229 198.571 467.799 197.631 468.088 197.051C468.649 195.923 468.857 194.68 468.96 193.925C469.079 193.058 469.139 192.157 469.181 191.463C469.65 183.714 468.668 176.004 467.749 168.793C467.685 168.296 467.622 167.802 467.56 167.309ZM437.845 200.204C437.845 200.204 437.846 200.196 437.848 200.182C437.846 200.197 437.845 200.204 437.845 200.204ZM466.967 161.788C466.967 161.779 466.967 161.771 466.967 161.764C466.969 161.706 466.973 161.719 466.967 161.788Z" fill="black"/>
<path fill-rule="evenodd" clip-rule="evenodd" d="M473.563 154.828C475.481 153.169 478.381 153.379 480.04 155.297C483.535 159.338 484.533 163.414 485.29 167.572C485.743 170.067 484.088 172.458 481.593 172.911C479.098 173.365 476.708 171.71 476.254 169.215C475.579 165.5 474.938 163.437 473.093 161.305C471.434 159.387 471.645 156.487 473.563 154.828Z" fill="black"/>
<path fill-rule="evenodd" clip-rule="evenodd" d="M507.759 159.598C510.295 159.64 512.317 161.729 512.276 164.264C512.251 165.82 512.258 167.641 512.266 169.591C512.28 172.811 512.295 176.385 512.166 179.707C511.952 185.192 511.341 191.103 509.457 196.09C508.561 198.463 505.911 199.659 503.539 198.763C501.166 197.867 499.97 195.217 500.866 192.845C502.208 189.293 502.784 184.601 502.989 179.35C503.115 176.113 503.099 173.062 503.082 170.072C503.072 168.071 503.061 166.098 503.093 164.115C503.135 161.579 505.224 159.557 507.759 159.598Z" fill="black"/>
<path fill-rule="evenodd" clip-rule="evenodd" d="M484.659 162.559C485.095 160.061 487.474 158.389 489.972 158.825C497.975 160.222 505.437 160.818 513.47 160.489C513.53 160.487 513.593 160.484 513.658 160.481C514.434 160.448 515.514 160.402 516.575 160.565C517.953 160.776 519.101 161.281 520.219 161.982C522.367 163.33 523.016 166.164 521.668 168.312C520.32 170.46 517.486 171.109 515.338 169.761C515.236 169.697 515.167 169.659 515.126 169.637C515.081 169.635 515.009 169.632 514.897 169.632C514.647 169.633 514.349 169.645 513.846 169.665C505.076 170.024 496.954 169.366 488.393 167.872C485.895 167.436 484.223 165.057 484.659 162.559Z" fill="black"/>
<path fill-rule="evenodd" clip-rule="evenodd" d="M295.175 232.778C297.706 232.931 299.634 235.108 299.48 237.639C299.299 240.635 299.04 243.69 298.783 246.713C298.758 247.016 298.732 247.32 298.706 247.623C298.424 250.965 298.153 254.276 297.983 257.57C297.694 263.183 297.709 268.594 298.428 273.721C299.09 274.517 299.489 275.54 299.489 276.657C299.489 276.67 299.489 276.693 299.489 276.723C299.491 277.046 299.5 278.252 299.383 279.032C299.36 279.184 299.316 279.44 299.231 279.737L299.229 279.747C299.177 279.929 298.96 280.692 298.35 281.446C298.004 281.873 297.303 282.582 296.153 282.948C294.874 283.354 293.648 283.146 292.729 282.698C291.367 282.035 290.764 280.909 290.666 280.724C290.662 280.718 290.659 280.712 290.657 280.708C290.331 280.111 290.172 279.51 290.114 279.29L290.113 279.286C290.024 278.951 289.942 278.572 289.863 278.166C288.502 271.186 288.455 264.005 288.811 257.097C288.99 253.636 289.273 250.189 289.555 246.849C289.581 246.548 289.606 246.249 289.632 245.95C289.889 242.907 290.139 239.963 290.313 237.084C290.467 234.552 292.643 232.625 295.175 232.778ZM298.992 276.94C298.991 276.938 298.99 276.935 298.99 276.932C299.011 277 299.01 277.011 298.992 276.94Z" fill="black"/>
<path fill-rule="evenodd" clip-rule="evenodd" d="M331.743 236.349C332.036 239.07 331.742 241.543 331.472 243.81C331.407 244.354 331.344 244.886 331.29 245.406C331.076 247.489 331.11 249.731 331.149 252.335C331.172 253.884 331.197 255.56 331.173 257.407C331.116 261.826 330.749 267.13 328.469 271.453C327.856 272.616 326.956 273.741 325.663 274.54C324.341 275.356 322.907 275.646 321.557 275.587C319.093 275.481 316.902 274.226 315.294 273.069C311.936 270.653 308.35 266.594 305.209 262.602C301.99 258.51 298.942 254.101 296.67 250.672C295.53 248.952 294.577 247.465 293.885 246.373C293.539 245.826 293.259 245.378 293.054 245.048C292.956 244.89 292.875 244.76 292.813 244.661L292.73 244.527L292.707 244.49C292.702 244.481 292.699 244.477 292.699 244.477C291.344 242.333 291.984 239.497 294.128 238.142C296.272 236.787 299.108 237.427 300.463 239.571C300.489 239.613 300.539 239.694 300.611 239.81C301.606 241.411 306.791 249.76 312.426 256.923C315.507 260.839 318.423 264.007 320.657 265.614C320.753 265.682 320.843 265.745 320.928 265.803C321.657 263.674 321.945 260.822 321.99 257.289C322.006 256.06 321.989 254.689 321.97 253.267C321.931 250.27 321.889 247.049 322.155 244.468C322.227 243.759 322.299 243.114 322.364 242.522C322.748 239.056 322.936 237.363 322.06 234.945C321.819 234.28 321.594 233.304 321.779 232.167C321.98 230.928 322.607 229.887 323.449 229.144C324.841 227.918 326.492 227.785 326.985 227.748C327.707 227.693 328.401 227.74 328.791 227.77C328.899 227.778 329.003 227.786 329.089 227.793L329.097 227.794C329.185 227.801 329.251 227.806 329.312 227.811C329.377 227.816 329.412 227.818 329.425 227.819C331.941 227.842 333.974 229.889 333.974 232.41C333.974 234.083 333.079 235.547 331.743 236.349Z" fill="black"/>
<path fill-rule="evenodd" clip-rule="evenodd" d="M349.032 234.48C351.553 234.762 353.367 237.034 353.085 239.554C353.005 240.265 352.807 241.514 352.572 242.994C352.42 243.948 352.254 244.997 352.094 246.06C351.66 248.949 351.205 252.349 350.964 255.637C350.719 258.991 350.722 261.936 351.074 264.025C351.194 264.738 351.334 265.219 351.45 265.521C352.235 265.625 353.273 265.571 354.64 265.306C355.915 265.058 357.098 264.716 358.404 264.338C358.951 264.18 359.52 264.016 360.125 263.85C362.571 263.179 365.097 264.617 365.768 267.063C366.439 269.508 365.001 272.035 362.555 272.706C362.191 272.806 361.773 272.927 361.317 273.059C359.897 273.469 358.104 273.988 356.392 274.321C354.072 274.771 351.171 275.055 348.284 274.216C345.994 273.55 344.51 271.954 343.614 270.382C342.749 268.865 342.286 267.143 342.018 265.551C341.48 262.357 341.545 258.531 341.805 254.967C342.071 251.337 342.565 247.672 343.012 244.695C343.224 243.289 343.413 242.104 343.567 241.138C343.76 239.932 343.898 239.066 343.958 238.532C344.24 236.012 346.512 234.198 349.032 234.48Z" fill="black"/>
<path fill-rule="evenodd" clip-rule="evenodd" d="M370.972 252.255C371.107 254.787 369.164 256.95 366.632 257.085C359.004 257.494 351.639 257.914 344.188 258.746C341.667 259.027 339.396 257.212 339.115 254.692C338.833 252.171 340.648 249.9 343.169 249.619C350.915 248.754 358.525 248.322 366.141 247.915C368.674 247.779 370.837 249.722 370.972 252.255Z" fill="black"/>
<path fill-rule="evenodd" clip-rule="evenodd" d="M369.187 232.161C369.737 234.636 368.175 237.089 365.699 237.638C358.426 239.252 351.165 240.931 343.905 242.668C341.439 243.257 338.961 241.736 338.371 239.27C337.781 236.803 339.303 234.326 341.769 233.736C349.073 231.989 356.383 230.298 363.71 228.673C366.186 228.123 368.638 229.685 369.187 232.161Z" fill="black"/>
<path fill-rule="evenodd" clip-rule="evenodd" d="M378.908 226.137C381.391 225.619 383.823 227.213 384.34 229.695C386.385 239.512 387.292 249.398 388.177 259.051C388.324 260.654 388.47 262.251 388.621 263.84C388.861 266.364 387.009 268.605 384.484 268.845C381.96 269.085 379.719 267.233 379.479 264.708C379.323 263.065 379.173 261.433 379.024 259.811C378.134 250.134 377.279 240.83 375.349 231.568C374.832 229.086 376.425 226.654 378.908 226.137Z" fill="black"/>
<path fill-rule="evenodd" clip-rule="evenodd" d="M411.224 255.638C411.813 258.105 410.292 260.582 407.826 261.172C401.344 262.722 395.026 264.309 388.703 266.159C386.269 266.872 383.719 265.476 383.006 263.042C382.294 260.608 383.69 258.058 386.124 257.346C392.663 255.432 399.152 253.804 405.69 252.24C408.156 251.65 410.634 253.172 411.224 255.638Z" fill="black"/>
<path fill-rule="evenodd" clip-rule="evenodd" d="M407.097 242.583C407.464 245.092 405.728 247.424 403.219 247.792C397.331 248.655 391.43 249.509 385.515 250.321C383.003 250.666 380.687 248.909 380.342 246.396C379.997 243.884 381.755 241.567 384.267 241.223C390.139 240.417 396.006 239.567 401.888 238.705C404.397 238.338 406.729 240.074 407.097 242.583Z" fill="black"/>
<path fill-rule="evenodd" clip-rule="evenodd" d="M404.446 235.528C396.917 234.486 390.467 236.22 382.229 239.162C379.841 240.015 377.214 238.77 376.361 236.382C375.508 233.994 376.752 231.366 379.14 230.513C387.634 227.479 395.86 225.068 405.705 226.431C408.217 226.779 409.972 229.097 409.624 231.609C409.276 234.121 406.958 235.876 404.446 235.528Z" fill="black"/>
<path fill-rule="evenodd" clip-rule="evenodd" d="M426.765 233.725C429.238 233.162 431.699 234.711 432.262 237.183C432.736 239.269 433.104 241.729 433.464 244.129C433.471 244.179 433.479 244.229 433.486 244.28C433.864 246.801 434.247 249.351 434.761 251.823C435.841 257.015 437.297 260.715 439.318 262.591C441.177 264.317 441.286 267.222 439.56 269.081C437.835 270.94 434.93 271.048 433.071 269.323C428.744 265.307 426.87 258.98 425.77 253.693C425.196 250.934 424.778 248.138 424.407 245.66L424.404 245.639C424.021 243.081 423.698 240.942 423.307 239.221C422.744 236.748 424.293 234.287 426.765 233.725Z" fill="black"/>
<path fill-rule="evenodd" clip-rule="evenodd" d="M421.555 231.675C421.909 229.164 424.231 227.414 426.743 227.768C431.694 228.465 442.111 231.031 450.155 235.602C454.131 237.862 458.149 240.956 460.283 245.122C462.643 249.73 462.331 254.916 458.952 260.005C454.844 266.193 447.402 271.39 439.163 271.39C436.627 271.39 434.571 269.334 434.571 266.798C434.571 264.262 436.627 262.207 439.163 262.207C443.617 262.207 448.462 259.203 451.301 254.926C453.038 252.309 452.801 250.659 452.109 249.308C451.191 247.515 449.031 245.527 445.617 243.587C438.88 239.758 429.668 237.454 425.462 236.862C422.951 236.508 421.202 234.186 421.555 231.675Z" fill="black"/>
<path fill-rule="evenodd" clip-rule="evenodd" d="M289.197 317.762C291.707 317.4 294.035 319.142 294.397 321.652C294.531 322.578 294.663 323.502 294.795 324.423C296.583 336.889 298.304 348.889 301.817 360.508C302.551 362.935 301.178 365.498 298.751 366.232C296.323 366.966 293.76 365.593 293.026 363.166C289.303 350.85 287.489 338.186 285.724 325.862C285.585 324.894 285.446 323.927 285.307 322.963C284.945 320.453 286.687 318.124 289.197 317.762Z" fill="black"/>
<path fill-rule="evenodd" clip-rule="evenodd" d="M286.942 324.779C286.97 322.243 289.049 320.21 291.585 320.239C299.398 320.326 306.496 320.964 314.004 321.96C316.518 322.294 318.286 324.602 317.953 327.116C317.619 329.63 315.311 331.398 312.797 331.064C305.547 330.103 298.831 329.504 291.482 329.422C288.946 329.393 286.913 327.315 286.942 324.779Z" fill="black"/>
<path fill-rule="evenodd" clip-rule="evenodd" d="M317.124 344.512C317.402 347.033 315.584 349.302 313.064 349.58C306.627 350.291 300.29 351.089 293.919 352.077C291.413 352.466 289.067 350.749 288.678 348.243C288.289 345.737 290.006 343.39 292.512 343.002C299.053 341.987 305.529 341.172 312.056 340.452C314.577 340.174 316.846 341.992 317.124 344.512Z" fill="black"/>
<path fill-rule="evenodd" clip-rule="evenodd" d="M326.659 323.722C329.129 323.148 331.597 324.685 332.171 327.155C334.023 335.125 335.72 343.103 337.374 351.064C337.452 351.441 337.523 351.833 337.575 352.12C337.592 352.213 337.606 352.294 337.619 352.361C337.649 352.522 337.672 352.636 337.69 352.718C339.394 354.436 339.477 357.207 337.836 359.025C336.137 360.908 333.233 361.057 331.351 359.358C330.043 358.178 329.34 356.866 328.942 355.549C328.769 354.978 328.663 354.434 328.589 354.038C328.561 353.886 328.537 353.754 328.516 353.633C328.471 353.387 328.435 353.183 328.382 352.932C326.733 344.993 325.053 337.098 323.226 329.234C322.652 326.764 324.189 324.296 326.659 323.722Z" fill="black"/>
<path fill-rule="evenodd" clip-rule="evenodd" d="M340.515 331.139C340.704 329.704 339.65 328.545 338.239 328.583C337.106 328.613 335.984 329.062 334.61 330.09C333.493 330.926 332.529 331.877 331.368 333.024C330.956 333.431 330.519 333.862 330.041 334.322C328.214 336.08 325.307 336.024 323.549 334.197C321.79 332.37 321.846 329.463 323.674 327.704C323.954 327.435 324.263 327.128 324.597 326.798C325.846 325.562 327.435 323.989 329.108 322.737C331.368 321.046 334.299 319.502 337.993 319.403C345.278 319.208 350.517 325.534 349.619 332.34C349.208 335.461 347.825 337.956 346.161 339.943C346.568 339.959 346.908 339.975 347.122 339.994C350.122 340.25 353.077 340.64 355.934 341.033C356.38 341.095 356.823 341.156 357.263 341.217C359.677 341.552 362.015 341.876 364.365 342.135C366.886 342.412 368.705 344.68 368.428 347.2C368.151 349.721 365.883 351.54 363.362 351.263C360.871 350.989 358.385 350.645 355.974 350.31C355.541 350.25 355.109 350.19 354.681 350.131C351.838 349.74 349.085 349.379 346.34 349.144C346.342 349.144 346.341 349.144 346.338 349.144C346.325 349.143 346.263 349.139 346.13 349.133C345.984 349.126 345.796 349.119 345.564 349.111C345.314 349.103 345.048 349.095 344.754 349.085C344.476 349.076 344.173 349.067 343.833 349.056C342.492 349.011 340.811 348.948 339.224 348.842C337.724 348.742 336.006 348.588 334.732 348.302C334.393 348.226 333.975 348.117 333.547 347.955C333.211 347.828 332.427 347.511 331.698 346.83C330.817 346.007 329.664 344.211 330.366 341.917C330.875 340.255 332.1 339.42 332.456 339.186C332.713 339.016 332.966 338.85 333.214 338.687C335.137 337.426 336.798 336.336 338.17 335.046C339.637 333.667 340.343 332.437 340.515 331.139ZM336.68 339.326C336.68 339.326 336.681 339.326 336.683 339.327C336.681 339.326 336.68 339.326 336.68 339.326ZM337.556 346.823C337.54 346.834 337.528 346.842 337.519 346.847C337.516 346.85 337.513 346.852 337.511 346.853C337.526 346.843 337.541 346.833 337.556 346.823Z" fill="black"/>
<path fill-rule="evenodd" clip-rule="evenodd" d="M370.449 318.934C372.776 317.926 375.48 318.995 376.488 321.322C376.687 321.781 376.888 322.243 377.09 322.709C380.928 331.538 385.277 341.541 385.277 352.585C385.277 355.121 383.221 357.176 380.685 357.176C378.149 357.176 376.093 355.121 376.093 352.585C376.093 343.499 372.452 335.101 368.418 325.795C368.299 325.522 368.18 325.248 368.061 324.973C367.053 322.646 368.122 319.942 370.449 318.934Z" fill="black"/>
<path fill-rule="evenodd" clip-rule="evenodd" d="M399.006 315.197C401.54 315.096 403.676 317.068 403.778 319.602C403.84 321.152 403.893 322.427 403.939 323.533C404.133 328.162 404.202 329.823 404.265 336.308C404.277 337.555 404.221 338.875 404.164 340.115C404.158 340.261 404.151 340.406 404.144 340.551C404.092 341.672 404.042 342.747 404.025 343.818C404.003 345.113 404.035 346.257 404.137 347.253C404.41 347.115 404.638 346.991 404.88 346.861C405.064 346.761 405.255 346.657 405.48 346.54C410.976 343.661 416.026 341.205 422.472 339.602C424.933 338.99 427.424 340.488 428.036 342.949C428.648 345.41 427.15 347.902 424.689 348.514C419.35 349.842 415.096 351.87 409.741 354.675C409.674 354.71 409.582 354.761 409.466 354.824C408.664 355.262 406.758 356.304 404.914 356.81C403.848 357.103 402.149 357.42 400.351 356.903C398.192 356.284 396.615 354.681 395.9 352.548C394.912 349.596 394.798 346.361 394.842 343.668C394.862 342.448 394.919 341.228 394.97 340.122C394.977 339.977 394.984 339.834 394.99 339.693C395.048 338.436 395.091 337.355 395.082 336.397C395.02 330.061 394.956 328.515 394.764 323.933C394.718 322.826 394.664 321.541 394.601 319.969C394.5 317.435 396.472 315.298 399.006 315.197ZM402.267 348.001C402.268 348 402.279 347.998 402.3 347.997C402.278 348 402.267 348.001 402.267 348.001Z" fill="black"/>
<path fill-rule="evenodd" clip-rule="evenodd" d="M421.163 323.589C423.242 325.041 423.751 327.904 422.298 329.983C420.867 332.032 418.635 333.188 416.901 333.891C415.035 334.647 412.927 335.193 410.973 335.622C409.466 335.953 407.901 336.245 406.501 336.506C406.086 336.583 405.685 336.658 405.304 336.73C403.518 337.069 402.26 337.34 401.473 337.601C399.066 338.397 396.468 337.091 395.671 334.684C394.875 332.276 396.18 329.679 398.588 328.882C400.043 328.401 401.893 328.03 403.591 327.708C404.034 327.624 404.476 327.541 404.917 327.459C406.29 327.203 407.653 326.948 409.004 326.652C410.791 326.26 412.305 325.844 413.452 325.38C414.493 324.958 414.799 324.664 414.806 324.671C414.807 324.671 414.806 324.673 414.805 324.675C416.267 322.638 419.101 322.149 421.163 323.589Z" fill="black"/>
<path fill-rule="evenodd" clip-rule="evenodd" d="M423.24 317.743C415.233 317.152 408.462 319.363 400.258 323.119C397.953 324.175 395.228 323.161 394.172 320.856C393.116 318.55 394.129 315.825 396.435 314.769C405.108 310.798 413.589 307.822 423.917 308.585C426.446 308.771 428.345 310.973 428.158 313.502C427.971 316.031 425.77 317.93 423.24 317.743Z" fill="black"/>
<path fill-rule="evenodd" clip-rule="evenodd" d="M443.478 310.152C446.012 310.031 448.163 311.986 448.284 314.519C448.623 321.606 448.262 328.686 447.913 335.54C447.814 337.485 447.716 339.413 447.635 341.316C449.183 342.673 449.674 344.956 448.69 346.869C448.384 347.463 448.015 348.16 447.633 348.734C447.454 349.003 447.131 349.464 446.674 349.9L446.671 349.902C446.408 350.153 445.037 351.459 442.873 351.273C440.255 351.048 439.163 349.001 438.892 348.39C438.565 347.654 438.462 346.953 438.418 346.588C438.318 345.77 438.319 344.788 438.351 343.788C438.453 340.615 438.61 337.555 438.763 334.556C439.103 327.918 439.428 321.576 439.111 314.958C438.99 312.425 440.945 310.273 443.478 310.152ZM439.987 343.647C439.974 343.668 439.975 343.663 439.992 343.64C439.99 343.642 439.989 343.645 439.987 343.647Z" fill="black"/>
<path fill-rule="evenodd" clip-rule="evenodd" d="M464.202 299.385C464.389 298.02 463.962 296.586 462.919 295.53C461.136 293.726 458.229 293.709 456.425 295.492C454.991 296.909 454.75 298.651 454.821 299.804C454.886 300.851 455.212 301.74 455.415 302.241C455.615 302.734 455.855 303.222 456.009 303.535C456.023 303.564 456.036 303.592 456.049 303.618C456.137 303.797 456.198 303.924 456.249 304.034C456.293 304.131 456.31 304.174 456.312 304.18C456.313 304.181 456.313 304.181 456.312 304.18C458.598 310.454 460.275 316.817 460.825 323.216C460.895 324.034 461.182 327.591 460.956 330.745C460.785 330.542 460.609 330.329 460.431 330.105C459.709 329.198 459.014 328.232 458.337 327.279C458.273 327.189 458.207 327.097 458.142 327.004C457.566 326.193 456.94 325.312 456.399 324.645C453.058 320.531 451.95 319.162 450.829 317.804C449.663 316.394 448.483 314.995 444.768 310.543C443.143 308.596 440.247 308.335 438.3 309.96C436.353 311.585 436.092 314.481 437.717 316.428C441.435 320.883 442.603 322.266 443.756 323.662C444.862 325.001 445.954 326.351 449.27 330.434C449.612 330.856 450.058 331.483 450.707 332.396C450.754 332.463 450.803 332.531 450.852 332.601C451.531 333.555 452.354 334.705 453.249 335.828C454.135 336.941 455.178 338.136 456.329 339.162C457.436 340.148 458.94 341.247 460.776 341.773C462.493 342.264 464.361 342.097 465.991 341.063C467.434 340.147 468.25 338.828 468.716 337.83C469.629 335.873 469.958 333.476 470.103 331.574C470.409 327.58 470.049 323.287 469.975 322.429C469.334 314.983 467.406 307.801 464.941 301.036C464.738 300.48 464.471 299.933 464.313 299.612L464.296 299.578C464.262 299.508 464.231 299.443 464.202 299.385ZM460.374 333.984C460.373 333.984 460.378 333.975 460.387 333.96C460.378 333.977 460.374 333.985 460.374 333.984Z" fill="black"/>
<path fill-rule="evenodd" clip-rule="evenodd" d="M481.838 303.46C484.351 303.12 486.664 304.882 487.004 307.395C488.07 315.277 488.974 323.223 489.87 331.109C490.315 335.024 490.758 338.923 491.219 342.792C491.518 345.31 489.72 347.595 487.202 347.894C484.684 348.194 482.399 346.396 482.099 343.878C481.626 339.903 481.177 335.951 480.73 332.013C479.84 324.187 478.957 316.415 477.903 308.626C477.563 306.113 479.325 303.8 481.838 303.46Z" fill="black"/>
<path fill-rule="evenodd" clip-rule="evenodd" d="M495.891 321.111C490.096 319.011 482.795 318.428 479.172 318.493C476.636 318.538 474.544 316.519 474.499 313.984C474.454 311.448 476.473 309.356 479.008 309.311C483.314 309.234 491.823 309.869 499.019 312.476C502.602 313.774 506.343 315.731 508.956 318.774C511.769 322.048 513.02 326.307 511.827 331.235C510.94 334.897 508.551 338.881 505.647 341.939C502.832 344.902 498.634 347.925 493.779 347.925C491.243 347.925 489.187 345.869 489.187 343.333C489.187 340.797 491.243 338.742 493.779 338.742C494.893 338.742 496.831 337.885 498.988 335.614C501.056 333.438 502.475 330.832 502.901 329.073C503.381 327.092 502.926 325.848 501.99 324.757C500.854 323.435 498.804 322.166 495.891 321.111Z" fill="black"/>
<path fill-rule="evenodd" clip-rule="evenodd" d="M535.174 310.342C535.744 312.813 534.203 315.278 531.732 315.848C530.562 316.118 529.339 316.517 528.263 317.017C527.154 317.532 526.41 318.059 526 318.487C525.848 318.645 525.776 318.752 525.743 318.811C525.778 318.959 525.933 319.401 526.578 320.164C527.438 321.181 528.681 322.078 530.46 323.363C531.008 323.759 531.606 324.191 532.26 324.674C534.553 326.37 537.809 328.918 539.264 332.624C541.63 338.653 538.261 343.674 534.217 345.783C530.412 347.767 524.259 347.953 520.85 342.742C519.462 340.62 520.057 337.774 522.179 336.386C524.301 334.997 527.147 335.592 528.536 337.715C528.612 337.832 528.655 337.864 528.812 337.888C529.058 337.927 529.497 337.887 529.971 337.64C530.439 337.396 530.688 337.084 530.782 336.877C530.835 336.76 530.928 336.522 530.715 335.98C530.337 335.016 529.216 333.846 526.798 332.057C526.449 331.799 526.055 331.517 525.633 331.215C523.725 329.85 521.235 328.067 519.567 326.095C517.737 323.933 516.527 321.44 516.551 318.696C516.576 315.915 517.862 313.706 519.369 312.132C522.18 309.2 526.52 307.626 529.667 306.9C532.138 306.33 534.604 307.871 535.174 310.342ZM525.733 318.754C525.734 318.754 525.734 318.758 525.734 318.765C525.733 318.758 525.733 318.754 525.733 318.754ZM525.729 318.839C525.725 318.857 525.721 318.866 525.72 318.866C525.719 318.866 525.72 318.858 525.729 318.839Z" fill="black"/>
</svg>
