<svg width="654" height="720" viewBox="0 0 654 720" fill="none" xmlns="http://www.w3.org/2000/svg">
<path fill-rule="evenodd" clip-rule="evenodd" d="M59.7486 720C49.6046 720 41.3812 711.777 41.3812 701.633V582.245H18.422C8.27804 582.245 0.0546875 574.021 0.0546875 563.877V11.0204C0.0546875 4.93401 4.98869 0 11.0751 0H17.5037C22.5757 0 26.6873 4.11167 26.6873 9.18367V9.64271H53.7792V9.18367C53.7792 4.11167 57.8909 0 62.9628 0H99.2384C103.672 0 107.494 2.61793 109.243 6.39223C110.696 5.82283 112.277 5.5102 113.932 5.5102H229.647C231.301 5.5102 232.883 5.82283 234.336 6.39223C236.085 2.61792 239.907 0 244.34 0H257.198C258.486 0 259.722 0.220975 260.871 0.627085C262.02 0.220975 263.256 0 264.544 0H555.667C556.955 0 558.191 0.220973 559.34 0.627076C560.489 0.220973 561.726 0 563.014 0H591.024C596.096 0 600.208 4.11163 600.208 9.18367V9.64271H627.3V9.18367C627.3 4.11163 631.411 0 636.483 0H642.912C648.998 0 653.932 4.93404 653.932 11.0204V563.877C653.932 574.021 645.709 582.245 635.565 582.245H612.606V701.633C612.606 711.777 604.382 720 594.238 720H59.7486ZM591.024 7.34694C592.038 7.34694 592.861 8.16927 592.861 9.18367V15.1529C592.861 16.1673 593.683 16.9897 594.698 16.9897H632.81C633.824 16.9897 634.647 16.1673 634.647 15.1529V9.18367C634.647 8.16927 635.469 7.34694 636.483 7.34694H642.912C644.941 7.34694 646.585 8.99161 646.585 11.0204V563.877C646.585 569.964 641.651 574.898 635.565 574.898H608.932C606.903 574.898 605.259 576.543 605.259 578.571V701.633C605.259 707.719 600.325 712.653 594.238 712.653H59.7486C53.6622 712.653 48.7282 707.719 48.7282 701.633V578.571C48.7282 576.543 47.0835 574.898 45.0547 574.898H18.422C12.3356 574.898 7.40163 569.964 7.40163 563.877V11.0204C7.40163 8.99161 9.04629 7.34694 11.0751 7.34694H17.5037C18.5181 7.34694 19.3404 8.16927 19.3404 9.18367V15.1529C19.3404 16.1673 20.1627 16.9897 21.1771 16.9897H59.2894C60.3038 16.9897 61.1261 16.1673 61.1261 15.1529V9.18367C61.1261 8.16927 61.9484 7.34694 62.9628 7.34694H99.2384C101.267 7.34694 102.912 8.99161 102.912 11.0204V100.102C102.912 103.145 105.379 105.612 108.422 105.612V18.3673C108.422 16.7354 109.131 15.2692 110.259 14.2602C111.234 13.3877 112.521 12.8571 113.932 12.8571H229.647C231.058 12.8571 232.345 13.3877 233.32 14.2602C234.447 15.2692 235.157 16.7354 235.157 18.3673V105.612C238.2 105.612 240.667 103.145 240.667 100.102V11.0204C240.667 8.99161 242.312 7.34694 244.34 7.34694H257.198C259.226 7.34694 260.871 8.99161 260.871 11.0204C260.871 8.99161 262.516 7.34694 264.544 7.34694H555.667C557.696 7.34694 559.34 8.99161 559.34 11.0204C559.34 8.99161 560.985 7.34694 563.014 7.34694H591.024Z" fill="#362350"/>
<path fill-rule="evenodd" clip-rule="evenodd" d="M59.7493 712.654C53.6629 712.654 48.7289 707.72 48.7289 701.633V578.572C48.7289 576.543 47.0842 574.899 45.0554 574.899H18.4228C12.3363 574.899 7.40234 569.965 7.40234 563.878V11.0211C7.40234 8.99232 9.04701 7.34766 11.0758 7.34766H17.5044C18.5188 7.34766 19.3411 8.16999 19.3411 9.18439V15.1536C19.3411 16.168 20.1635 16.9904 21.1779 16.9904H59.2901C60.3045 16.9904 61.1268 16.168 61.1268 15.1536V9.18439C61.1268 8.16999 61.9492 7.34766 62.9636 7.34766H99.2391C101.268 7.34766 102.913 8.99233 102.913 11.0211V100.103C102.913 103.146 105.38 105.613 108.423 105.613H235.157C238.201 105.613 240.668 103.146 240.668 100.103V11.0211C240.668 8.99232 242.312 7.34766 244.341 7.34766L257.198 7.34766C259.227 7.34766 260.872 8.99233 260.872 11.0211V466.531C260.872 474.647 267.45 481.225 275.566 481.225H544.647C552.762 481.225 559.341 474.647 559.341 466.531V11.0211C559.341 8.99232 560.986 7.34766 563.015 7.34766H591.025C592.039 7.34766 592.862 8.16999 592.862 9.18439V15.1536C592.862 16.168 593.684 16.9904 594.698 16.9904H632.811C633.825 16.9904 634.647 16.168 634.647 15.1536V9.18439C634.647 8.16999 635.47 7.34766 636.484 7.34766H642.913C644.941 7.34766 646.586 8.99232 646.586 11.0211V563.878C646.586 569.965 641.652 574.899 635.566 574.899H608.933C606.904 574.899 605.26 576.543 605.26 578.572V701.633C605.26 707.72 600.326 712.654 594.239 712.654H59.7493Z" fill="#362350"/>
<path fill-rule="evenodd" clip-rule="evenodd" d="M11.075 7.9768C9.39409 7.9768 8.03148 9.3394 8.03148 11.0203V563.877C8.03148 569.616 12.6834 574.268 18.4219 574.268H45.0545C47.4313 574.268 49.358 576.195 49.358 578.571V701.633C49.358 707.371 54.01 712.023 59.7484 712.023H594.238C599.977 712.023 604.629 707.371 604.629 701.633V578.571C604.629 576.195 606.555 574.268 608.932 574.268H635.565C641.303 574.268 645.955 569.616 645.955 563.877V11.0203C645.955 9.3394 644.593 7.9768 642.912 7.9768H636.483C635.817 7.9768 635.276 8.51707 635.276 9.18353V15.1528C635.276 16.5151 634.172 17.6195 632.81 17.6195H594.697C593.335 17.6195 592.231 16.5151 592.231 15.1528V9.18353C592.231 8.51707 591.69 7.9768 591.024 7.9768H563.014C561.333 7.9768 559.97 9.3394 559.97 11.0203V466.53C559.97 474.994 553.11 481.854 544.646 481.854H275.565C267.102 481.854 260.241 474.994 260.241 466.53V11.0203C260.241 9.33941 258.878 7.9768 257.197 7.9768H244.34C242.659 7.9768 241.297 9.3394 241.297 11.0203V100.102C241.297 103.493 238.548 106.242 235.157 106.242H108.422C105.031 106.242 102.282 103.493 102.282 100.102V11.0203C102.282 9.33941 100.919 7.9768 99.2382 7.9768H62.9627C62.2963 7.9768 61.756 8.51707 61.756 9.18353V15.1528C61.756 16.5151 60.6516 17.6195 59.2892 17.6195H21.177C19.8147 17.6195 18.7103 16.5151 18.7103 15.1528V9.18353C18.7103 8.51707 18.17 7.9768 17.5035 7.9768H11.075ZM6.77148 11.0203C6.77148 8.64353 8.69821 6.7168 11.075 6.7168H17.5035C18.8659 6.7168 19.9703 7.82119 19.9703 9.18353V15.1528C19.9703 15.8192 20.5105 16.3595 21.177 16.3595H59.2892C59.9557 16.3595 60.496 15.8192 60.496 15.1528V9.18353C60.496 7.82119 61.6004 6.7168 62.9627 6.7168H99.2382C101.615 6.7168 103.542 8.64353 103.542 11.0203V100.102C103.542 102.797 105.727 104.982 108.422 104.982H235.157C237.852 104.982 240.037 102.797 240.037 100.102V11.0203C240.037 8.64353 241.964 6.7168 244.34 6.7168H257.197C259.574 6.7168 261.501 8.64353 261.501 11.0203V466.53C261.501 474.298 267.798 480.594 275.565 480.594H544.646C552.414 480.594 558.71 474.298 558.71 466.53V11.0203C558.71 8.64353 560.637 6.7168 563.014 6.7168H591.024C592.386 6.7168 593.491 7.82119 593.491 9.18353V15.1528C593.491 15.8192 594.031 16.3595 594.697 16.3595H632.81C633.476 16.3595 634.016 15.8192 634.016 15.1528V9.18353C634.016 7.82119 635.121 6.7168 636.483 6.7168H642.912C645.288 6.7168 647.215 8.64353 647.215 11.0203V563.877C647.215 570.312 641.999 575.528 635.565 575.528H608.932C607.251 575.528 605.889 576.89 605.889 578.571V701.633C605.889 708.067 600.673 713.283 594.238 713.283H59.7484C53.3141 713.283 48.098 708.067 48.098 701.633V578.571C48.098 576.89 46.7354 575.528 45.0545 575.528H18.4219C11.9876 575.528 6.77148 570.312 6.77148 563.877V11.0203Z" fill="#FFF3D9"/>
<path d="M102.912 105.611H240.667V712.652H102.912V105.611Z" fill="#362350"/>
<path fill-rule="evenodd" clip-rule="evenodd" d="M102.281 104.982H241.296V713.283H102.281V104.982ZM103.541 106.242V712.023H240.036V106.242H103.541Z" fill="#FFF3D9"/>
<path d="M108.422 18.3676C108.422 15.3244 110.889 12.8574 113.932 12.8574H229.646C232.69 12.8574 235.157 15.3244 235.157 18.3676V105.613H108.422V18.3676Z" fill="#362350"/>
<path fill-rule="evenodd" clip-rule="evenodd" d="M107.793 18.3668C107.793 14.9756 110.542 12.2266 113.933 12.2266H229.647C233.039 12.2266 235.788 14.9756 235.788 18.3668V106.242H107.793V18.3668ZM113.933 13.4866C111.238 13.4866 109.053 15.6715 109.053 18.3668V104.982H234.528V18.3668C234.528 15.6715 232.343 13.4866 229.647 13.4866H113.933Z" fill="#FFF3D9"/>
<path d="M260.871 11.0211C260.871 8.99233 262.516 7.34766 264.545 7.34766H555.667C557.696 7.34766 559.34 8.99232 559.34 11.0211V466.531C559.34 474.647 552.762 481.225 544.647 481.225H275.565C267.45 481.225 260.871 474.647 260.871 466.531V11.0211Z" fill="#362350"/>
<path fill-rule="evenodd" clip-rule="evenodd" d="M260.24 11.0203C260.24 8.64353 262.167 6.7168 264.544 6.7168H555.666C558.043 6.7168 559.97 8.64353 559.97 11.0203V466.53C559.97 474.994 553.109 481.854 544.646 481.854H275.564C267.101 481.854 260.24 474.994 260.24 466.53V11.0203ZM264.544 7.9768C262.863 7.9768 261.5 9.33941 261.5 11.0203V466.53C261.5 474.298 267.797 480.594 275.564 480.594H544.646C552.413 480.594 558.71 474.298 558.71 466.53V11.0203C558.71 9.3394 557.347 7.9768 555.666 7.9768H264.544Z" fill="#FFF3D9"/>
<path d="M108.422 652.958C108.422 648.901 111.711 645.611 115.769 645.611H227.81C231.867 645.611 235.157 648.901 235.157 652.958V712.652H108.422V652.958Z" fill="#362350"/>
<path fill-rule="evenodd" clip-rule="evenodd" d="M107.793 652.959C107.793 648.554 111.364 644.982 115.77 644.982H227.811C232.216 644.982 235.788 648.554 235.788 652.959V713.283H107.793V652.959ZM115.77 646.242C112.06 646.242 109.053 649.25 109.053 652.959V712.023H234.528V652.959C234.528 649.25 231.52 646.242 227.811 646.242H115.77Z" fill="#FFF3D9"/>
<path d="M108.422 381.122C108.422 378.078 110.889 375.611 113.932 375.611H229.646C232.69 375.611 235.157 378.078 235.157 381.122V384.795C235.157 387.838 232.69 390.305 229.646 390.305H113.932C110.889 390.305 108.422 387.838 108.422 384.795V381.122Z" fill="#362350"/>
<path fill-rule="evenodd" clip-rule="evenodd" d="M107.793 381.123C107.793 377.731 110.542 374.982 113.933 374.982H229.647C233.039 374.982 235.788 377.731 235.788 381.123V384.796C235.788 388.187 233.039 390.936 229.647 390.936H113.933C110.542 390.936 107.793 388.187 107.793 384.796V381.123ZM113.933 376.242C111.238 376.242 109.053 378.427 109.053 381.123V384.796C109.053 387.491 111.238 389.676 113.933 389.676H229.647C232.343 389.676 234.528 387.491 234.528 384.796V381.123C234.528 378.427 232.343 376.242 229.647 376.242H113.933Z" fill="#FFF3D9"/>
<path d="M108.422 551.938C108.422 548.895 110.889 546.428 113.932 546.428H229.646C232.69 546.428 235.157 548.895 235.157 551.938V555.611C235.157 558.655 232.69 561.122 229.646 561.122H113.932C110.889 561.122 108.422 558.655 108.422 555.611V551.938Z" fill="#362350"/>
<path fill-rule="evenodd" clip-rule="evenodd" d="M107.793 551.939C107.793 548.548 110.542 545.799 113.933 545.799H229.647C233.039 545.799 235.788 548.548 235.788 551.939V555.613C235.788 559.004 233.039 561.753 229.647 561.753H113.933C110.542 561.753 107.793 559.004 107.793 555.613V551.939ZM113.933 547.059C111.238 547.059 109.053 549.244 109.053 551.939V555.613C109.053 558.308 111.238 560.493 113.933 560.493H229.647C232.343 560.493 234.528 558.308 234.528 555.613V551.939C234.528 549.244 232.343 547.059 229.647 547.059H113.933Z" fill="#FFF3D9"/>
<path d="M108.422 295.713C108.422 292.67 110.889 290.203 113.932 290.203H229.646C232.69 290.203 235.157 292.67 235.157 295.713V299.387C235.157 302.43 232.69 304.897 229.646 304.897H113.932C110.889 304.897 108.422 302.43 108.422 299.387V295.713Z" fill="#362350"/>
<path fill-rule="evenodd" clip-rule="evenodd" d="M107.793 295.714C107.793 292.323 110.542 289.574 113.933 289.574H229.647C233.039 289.574 235.788 292.323 235.788 295.714V299.388C235.788 302.779 233.039 305.528 229.647 305.528H113.933C110.542 305.528 107.793 302.779 107.793 299.388V295.714ZM113.933 290.834C111.238 290.834 109.053 293.019 109.053 295.714V299.388C109.053 302.083 111.238 304.268 113.933 304.268H229.647C232.343 304.268 234.528 302.083 234.528 299.388V295.714C234.528 293.019 232.343 290.834 229.647 290.834H113.933Z" fill="#FFF3D9"/>
<path d="M108.422 466.53C108.422 463.487 110.889 461.02 113.932 461.02H229.646C232.69 461.02 235.157 463.487 235.157 466.53V470.203C235.157 473.246 232.69 475.713 229.646 475.713H113.932C110.889 475.713 108.422 473.246 108.422 470.203V466.53Z" fill="#362350"/>
<path fill-rule="evenodd" clip-rule="evenodd" d="M107.793 466.531C107.793 463.14 110.542 460.391 113.933 460.391H229.647C233.039 460.391 235.788 463.14 235.788 466.531V470.204C235.788 473.595 233.039 476.345 229.647 476.345H113.933C110.542 476.345 107.793 473.595 107.793 470.204V466.531ZM113.933 461.651C111.238 461.651 109.053 463.836 109.053 466.531V470.204C109.053 472.9 111.238 475.085 113.933 475.085H229.647C232.343 475.085 234.528 472.9 234.528 470.204V466.531C234.528 463.836 232.343 461.651 229.647 461.651H113.933Z" fill="#FFF3D9"/>
<path d="M108.422 210.307C108.422 207.264 110.889 204.797 113.932 204.797H229.646C232.69 204.797 235.157 207.264 235.157 210.307V213.981C235.157 217.024 232.69 219.491 229.646 219.491H113.932C110.889 219.491 108.422 217.024 108.422 213.981V210.307Z" fill="#362350"/>
<path fill-rule="evenodd" clip-rule="evenodd" d="M107.793 210.306C107.793 206.915 110.542 204.166 113.933 204.166H229.647C233.039 204.166 235.788 206.915 235.788 210.306V213.98C235.788 217.371 233.039 220.12 229.647 220.12H113.933C110.542 220.12 107.793 217.371 107.793 213.98V210.306ZM113.933 205.426C111.238 205.426 109.053 207.611 109.053 210.306V213.98C109.053 216.675 111.238 218.86 113.933 218.86H229.647C232.343 218.86 234.528 216.675 234.528 213.98V210.306C234.528 207.611 232.343 205.426 229.647 205.426H113.933Z" fill="#FFF3D9"/>
<path d="M108.422 608.877C108.422 605.834 110.889 603.367 113.932 603.367H229.646C232.69 603.367 235.157 605.834 235.157 608.877V612.551C235.157 615.594 232.69 618.061 229.646 618.061H113.932C110.889 618.061 108.422 615.594 108.422 612.551V608.877Z" fill="#362350"/>
<path fill-rule="evenodd" clip-rule="evenodd" d="M107.793 608.878C107.793 605.487 110.542 602.738 113.933 602.738H229.647C233.039 602.738 235.788 605.487 235.788 608.878V612.552C235.788 615.943 233.039 618.692 229.647 618.692H113.933C110.542 618.692 107.793 615.943 107.793 612.552V608.878ZM113.933 603.998C111.238 603.998 109.053 606.183 109.053 608.878V612.552C109.053 615.247 111.238 617.432 113.933 617.432H229.647C232.343 617.432 234.528 615.247 234.528 612.552V608.878C234.528 606.183 232.343 603.998 229.647 603.998H113.933Z" fill="#FFF3D9"/>
<path d="M108.422 352.653C108.422 349.61 110.889 347.143 113.932 347.143H229.646C232.69 347.143 235.157 349.61 235.157 352.653V356.326C235.157 359.369 232.69 361.836 229.646 361.836H113.932C110.889 361.836 108.422 359.369 108.422 356.326V352.653Z" fill="#362350"/>
<path fill-rule="evenodd" clip-rule="evenodd" d="M107.793 352.654C107.793 349.263 110.542 346.514 113.933 346.514H229.647C233.039 346.514 235.788 349.263 235.788 352.654V356.327C235.788 359.718 233.039 362.468 229.647 362.468H113.933C110.542 362.468 107.793 359.718 107.793 356.327V352.654ZM113.933 347.774C111.238 347.774 109.053 349.959 109.053 352.654V356.327C109.053 359.023 111.238 361.208 113.933 361.208H229.647C232.343 361.208 234.528 359.023 234.528 356.327V352.654C234.528 349.959 232.343 347.774 229.647 347.774H113.933Z" fill="#FFF3D9"/>
<path d="M108.422 523.469C108.422 520.426 110.889 517.959 113.932 517.959H229.646C232.69 517.959 235.157 520.426 235.157 523.469V527.143C235.157 530.186 232.69 532.653 229.646 532.653H113.932C110.889 532.653 108.422 530.186 108.422 527.143V523.469Z" fill="#362350"/>
<path fill-rule="evenodd" clip-rule="evenodd" d="M107.793 523.47C107.793 520.079 110.542 517.33 113.933 517.33H229.647C233.039 517.33 235.788 520.079 235.788 523.47V527.144C235.788 530.535 233.039 533.284 229.647 533.284H113.933C110.542 533.284 107.793 530.535 107.793 527.144V523.47ZM113.933 518.59C111.238 518.59 109.053 520.775 109.053 523.47V527.144C109.053 529.839 111.238 532.024 113.933 532.024H229.647C232.343 532.024 234.528 529.839 234.528 527.144V523.47C234.528 520.775 232.343 518.59 229.647 518.59H113.933Z" fill="#FFF3D9"/>
<path d="M108.422 267.245C108.422 264.201 110.889 261.734 113.932 261.734H229.646C232.69 261.734 235.157 264.201 235.157 267.245V270.918C235.157 273.961 232.69 276.428 229.646 276.428H113.932C110.889 276.428 108.422 273.961 108.422 270.918V267.245Z" fill="#362350"/>
<path fill-rule="evenodd" clip-rule="evenodd" d="M107.793 267.246C107.793 263.855 110.542 261.105 113.933 261.105H229.647C233.039 261.105 235.788 263.855 235.788 267.246V270.919C235.788 274.31 233.039 277.059 229.647 277.059H113.933C110.542 277.059 107.793 274.31 107.793 270.919V267.246ZM113.933 262.365C111.238 262.365 109.053 264.55 109.053 267.246V270.919C109.053 273.614 111.238 275.799 113.933 275.799H229.647C232.343 275.799 234.528 273.614 234.528 270.919V267.246C234.528 264.55 232.343 262.365 229.647 262.365H113.933Z" fill="#FFF3D9"/>
<path d="M108.422 438.061C108.422 435.018 110.889 432.551 113.932 432.551H229.646C232.69 432.551 235.157 435.018 235.157 438.061V441.734C235.157 444.778 232.69 447.245 229.646 447.245H113.932C110.889 447.245 108.422 444.778 108.422 441.734V438.061Z" fill="#362350"/>
<path fill-rule="evenodd" clip-rule="evenodd" d="M107.793 438.062C107.793 434.671 110.542 431.922 113.933 431.922H229.647C233.039 431.922 235.788 434.671 235.788 438.062V441.736C235.788 445.127 233.039 447.876 229.647 447.876H113.933C110.542 447.876 107.793 445.127 107.793 441.736V438.062ZM113.933 433.182C111.238 433.182 109.053 435.367 109.053 438.062V441.736C109.053 444.431 111.238 446.616 113.933 446.616H229.647C232.343 446.616 234.528 444.431 234.528 441.736V438.062C234.528 435.367 232.343 433.182 229.647 433.182H113.933Z" fill="#FFF3D9"/>
<path d="M108.422 181.836C108.422 178.793 110.889 176.326 113.932 176.326H229.646C232.69 176.326 235.157 178.793 235.157 181.836V185.51C235.157 188.553 232.69 191.02 229.646 191.02H113.932C110.889 191.02 108.422 188.553 108.422 185.51V181.836Z" fill="#362350"/>
<path fill-rule="evenodd" clip-rule="evenodd" d="M107.793 181.837C107.793 178.446 110.542 175.697 113.933 175.697H229.647C233.039 175.697 235.788 178.446 235.788 181.837V185.511C235.788 188.902 233.039 191.651 229.647 191.651H113.933C110.542 191.651 107.793 188.902 107.793 185.511V181.837ZM113.933 176.957C111.238 176.957 109.053 179.142 109.053 181.837V185.511C109.053 188.206 111.238 190.391 113.933 190.391H229.647C232.343 190.391 234.528 188.206 234.528 185.511V181.837C234.528 179.142 232.343 176.957 229.647 176.957H113.933Z" fill="#FFF3D9"/>
<path d="M108.422 580.409C108.422 577.365 110.889 574.898 113.932 574.898H229.646C232.69 574.898 235.157 577.365 235.157 580.409V584.082C235.157 587.125 232.69 589.592 229.646 589.592H113.932C110.889 589.592 108.422 587.125 108.422 584.082V580.409Z" fill="#362350"/>
<path fill-rule="evenodd" clip-rule="evenodd" d="M107.793 580.408C107.793 577.017 110.542 574.268 113.933 574.268H229.647C233.039 574.268 235.788 577.017 235.788 580.408V584.081C235.788 587.472 233.039 590.221 229.647 590.221H113.933C110.542 590.221 107.793 587.472 107.793 584.081V580.408ZM113.933 575.528C111.238 575.528 109.053 577.713 109.053 580.408V584.081C109.053 586.777 111.238 588.961 113.933 588.961H229.647C232.343 588.961 234.528 586.777 234.528 584.081V580.408C234.528 577.713 232.343 575.528 229.647 575.528H113.933Z" fill="#FFF3D9"/>
<path d="M108.422 324.184C108.422 321.141 110.889 318.674 113.932 318.674H229.646C232.69 318.674 235.157 321.141 235.157 324.184V327.858C235.157 330.901 232.69 333.368 229.646 333.368H113.932C110.889 333.368 108.422 330.901 108.422 327.858V324.184Z" fill="#362350"/>
<path fill-rule="evenodd" clip-rule="evenodd" d="M107.793 324.183C107.793 320.792 110.542 318.043 113.933 318.043H229.647C233.039 318.043 235.788 320.792 235.788 324.183V327.857C235.788 331.248 233.039 333.997 229.647 333.997H113.933C110.542 333.997 107.793 331.248 107.793 327.857V324.183ZM113.933 319.303C111.238 319.303 109.053 321.488 109.053 324.183V327.857C109.053 330.552 111.238 332.737 113.933 332.737H229.647C232.343 332.737 234.528 330.552 234.528 327.857V324.183C234.528 321.488 232.343 319.303 229.647 319.303H113.933Z" fill="#FFF3D9"/>
<path d="M108.422 495C108.422 491.957 110.889 489.49 113.932 489.49H229.646C232.69 489.49 235.157 491.957 235.157 495V498.674C235.157 501.717 232.69 504.184 229.646 504.184H113.932C110.889 504.184 108.422 501.717 108.422 498.674V495Z" fill="#362350"/>
<path fill-rule="evenodd" clip-rule="evenodd" d="M107.793 495C107.793 491.608 110.542 488.859 113.933 488.859H229.647C233.039 488.859 235.788 491.608 235.788 495V498.673C235.788 502.064 233.039 504.813 229.647 504.813H113.933C110.542 504.813 107.793 502.064 107.793 498.673V495ZM113.933 490.119C111.238 490.119 109.053 492.304 109.053 495V498.673C109.053 501.368 111.238 503.553 113.933 503.553H229.647C232.343 503.553 234.528 501.368 234.528 498.673V495C234.528 492.304 232.343 490.119 229.647 490.119H113.933Z" fill="#FFF3D9"/>
<path d="M108.422 238.776C108.422 235.733 110.889 233.266 113.932 233.266H229.646C232.69 233.266 235.157 235.733 235.157 238.776V242.449C235.157 245.493 232.69 247.96 229.646 247.96H113.932C110.889 247.96 108.422 245.493 108.422 242.449V238.776Z" fill="#362350"/>
<path fill-rule="evenodd" clip-rule="evenodd" d="M107.793 238.775C107.793 235.384 110.542 232.635 113.933 232.635H229.647C233.039 232.635 235.788 235.384 235.788 238.775V242.448C235.788 245.84 233.039 248.589 229.647 248.589H113.933C110.542 248.589 107.793 245.84 107.793 242.448V238.775ZM113.933 233.895C111.238 233.895 109.053 236.08 109.053 238.775V242.448C109.053 245.144 111.238 247.329 113.933 247.329H229.647C232.343 247.329 234.528 245.144 234.528 242.448V238.775C234.528 236.08 232.343 233.895 229.647 233.895H113.933Z" fill="#FFF3D9"/>
<path d="M108.422 409.592C108.422 406.549 110.889 404.082 113.932 404.082H229.646C232.69 404.082 235.157 406.549 235.157 409.592V413.266C235.157 416.309 232.69 418.776 229.646 418.776H113.932C110.889 418.776 108.422 416.309 108.422 413.266V409.592Z" fill="#362350"/>
<path fill-rule="evenodd" clip-rule="evenodd" d="M107.793 409.591C107.793 406.2 110.542 403.451 113.933 403.451H229.647C233.039 403.451 235.788 406.2 235.788 409.591V413.265C235.788 416.656 233.039 419.405 229.647 419.405H113.933C110.542 419.405 107.793 416.656 107.793 413.265V409.591ZM113.933 404.711C111.238 404.711 109.053 406.896 109.053 409.591V413.265C109.053 415.96 111.238 418.145 113.933 418.145H229.647C232.343 418.145 234.528 415.96 234.528 413.265V409.591C234.528 406.896 232.343 404.711 229.647 404.711H113.933Z" fill="#FFF3D9"/>
<path d="M108.422 153.368C108.422 150.324 110.889 147.857 113.932 147.857H229.646C232.69 147.857 235.157 150.324 235.157 153.368V157.041C235.157 160.084 232.69 162.551 229.646 162.551H113.932C110.889 162.551 108.422 160.084 108.422 157.041V153.368Z" fill="#362350"/>
<path fill-rule="evenodd" clip-rule="evenodd" d="M107.793 153.367C107.793 149.976 110.542 147.227 113.933 147.227H229.647C233.039 147.227 235.788 149.976 235.788 153.367V157.04C235.788 160.431 233.039 163.18 229.647 163.18H113.933C110.542 163.18 107.793 160.431 107.793 157.04V153.367ZM113.933 148.487C111.238 148.487 109.053 150.672 109.053 153.367V157.04C109.053 159.735 111.238 161.92 113.933 161.92H229.647C232.343 161.92 234.528 159.735 234.528 157.04V153.367C234.528 150.672 232.343 148.487 229.647 148.487H113.933Z" fill="#FFF3D9"/>
<path d="M108.422 124.899C108.422 121.856 110.889 119.389 113.932 119.389H229.646C232.69 119.389 235.157 121.856 235.157 124.899V128.572C235.157 131.616 232.69 134.083 229.646 134.083H113.932C110.889 134.083 108.422 131.616 108.422 128.572V124.899Z" fill="#362350"/>
<path fill-rule="evenodd" clip-rule="evenodd" d="M107.793 124.898C107.793 121.507 110.542 118.758 113.933 118.758H229.647C233.039 118.758 235.788 121.507 235.788 124.898V128.571C235.788 131.963 233.039 134.712 229.647 134.712H113.933C110.542 134.712 107.793 131.963 107.793 128.571V124.898ZM113.933 120.018C111.238 120.018 109.053 122.203 109.053 124.898V128.571C109.053 131.267 111.238 133.452 113.933 133.452H229.647C232.343 133.452 234.528 131.267 234.528 128.571V124.898C234.528 122.203 232.343 120.018 229.647 120.018H113.933Z" fill="#FFF3D9"/>
<path d="M108.422 18.3676C108.422 15.3244 110.889 12.8574 113.932 12.8574H229.646C232.69 12.8574 235.157 15.3244 235.157 18.3676V22.0411C235.157 25.0843 232.69 27.5513 229.646 27.5513H113.932C110.889 27.5513 108.422 25.0843 108.422 22.0411V18.3676Z" fill="#362350"/>
<path fill-rule="evenodd" clip-rule="evenodd" d="M107.793 18.3668C107.793 14.9756 110.542 12.2266 113.933 12.2266H229.647C233.039 12.2266 235.788 14.9756 235.788 18.3668V22.0402C235.788 25.4314 233.039 28.1804 229.647 28.1804H113.933C110.542 28.1804 107.793 25.4314 107.793 22.0402V18.3668ZM113.933 13.4866C111.238 13.4866 109.053 15.6715 109.053 18.3668V22.0402C109.053 24.7355 111.238 26.9204 113.933 26.9204H229.647C232.343 26.9204 234.528 24.7355 234.528 22.0402V18.3668C234.528 15.6715 232.343 13.4866 229.647 13.4866H113.933Z" fill="#FFF3D9"/>
<path d="M108.422 46.8364C108.422 43.7932 110.889 41.3262 113.932 41.3262H229.646C232.69 41.3262 235.157 43.7932 235.157 46.8364V50.5098C235.157 53.553 232.69 56.0201 229.646 56.0201H113.932C110.889 56.0201 108.422 53.553 108.422 50.5098V46.8364Z" fill="#362350"/>
<path fill-rule="evenodd" clip-rule="evenodd" d="M107.793 46.8375C107.793 43.4463 110.542 40.6973 113.933 40.6973H229.647C233.039 40.6973 235.788 43.4463 235.788 46.8375V50.5109C235.788 53.9021 233.039 56.6511 229.647 56.6511H113.933C110.542 56.6511 107.793 53.9021 107.793 50.5109V46.8375ZM113.933 41.9573C111.238 41.9573 109.053 44.1422 109.053 46.8375V50.5109C109.053 53.2062 111.238 55.3911 113.933 55.3911H229.647C232.343 55.3911 234.528 53.2062 234.528 50.5109V46.8375C234.528 44.1422 232.343 41.9573 229.647 41.9573H113.933Z" fill="#FFF3D9"/>
<path d="M108.422 75.3071C108.422 72.2639 110.889 69.7969 113.932 69.7969H229.646C232.69 69.7969 235.157 72.2639 235.157 75.3071V78.9806C235.157 82.0238 232.69 84.4908 229.646 84.4908H113.932C110.889 84.4908 108.422 82.0238 108.422 78.9806V75.3071Z" fill="#362350"/>
<path fill-rule="evenodd" clip-rule="evenodd" d="M107.793 75.3062C107.793 71.9151 110.542 69.166 113.933 69.166H229.647C233.039 69.166 235.788 71.9151 235.788 75.3062V78.9797C235.788 82.3708 233.039 85.1199 229.647 85.1199H113.933C110.542 85.1199 107.793 82.3708 107.793 78.9797V75.3062ZM113.933 70.426C111.238 70.426 109.053 72.611 109.053 75.3062V78.9797C109.053 81.675 111.238 83.8599 113.933 83.8599H229.647C232.343 83.8599 234.528 81.675 234.528 78.9797V75.3062C234.528 72.611 232.343 70.426 229.647 70.426H113.933Z" fill="#FFF3D9"/>
<path d="M108.422 103.776C108.422 100.733 110.889 98.2656 113.932 98.2656H229.646C232.69 98.2656 235.157 100.733 235.157 103.776V105.613H108.422V103.776Z" fill="#362350"/>
<path fill-rule="evenodd" clip-rule="evenodd" d="M107.793 103.775C107.793 100.384 110.542 97.6348 113.933 97.6348H229.647C233.039 97.6348 235.788 100.384 235.788 103.775V106.242H107.793V103.775ZM113.933 98.8948C111.238 98.8948 109.053 101.08 109.053 103.775V104.982H234.528V103.775C234.528 101.08 232.343 98.8948 229.647 98.8948H113.933Z" fill="#FFF3D9"/>
<path d="M302.06 539.118C301.315 537.894 302.196 536.326 303.629 536.326H348.521C349.954 536.326 350.835 537.894 350.09 539.118L327.644 575.993C326.928 577.169 325.221 577.169 324.506 575.993L302.06 539.118Z" fill="#362350"/>
<path fill-rule="evenodd" clip-rule="evenodd" d="M348.521 537.586H303.629C303.179 537.586 302.902 538.078 303.136 538.463L325.582 575.338C325.807 575.707 326.343 575.707 326.567 575.338L349.013 538.463C349.247 538.078 348.971 537.586 348.521 537.586ZM303.629 536.326C302.196 536.326 301.315 537.894 302.06 539.118L324.506 575.993C325.221 577.169 326.928 577.169 327.644 575.993L350.09 539.118C350.835 537.894 349.954 536.326 348.521 536.326H303.629Z" fill="#FFF3D9"/>
<path fill-rule="evenodd" clip-rule="evenodd" d="M531.789 202.67H288.422V201.41H531.789V202.67Z" fill="#FFF3D9"/>
<path fill-rule="evenodd" clip-rule="evenodd" d="M531.789 378.998H288.422V377.738H531.789V378.998Z" fill="#FFF3D9"/>
<path fill-rule="evenodd" clip-rule="evenodd" d="M531.789 158.59H288.422V157.33H531.789V158.59Z" fill="#FFF3D9"/>
<path fill-rule="evenodd" clip-rule="evenodd" d="M531.789 334.916H288.422V333.656H531.789V334.916Z" fill="#FFF3D9"/>
<path fill-rule="evenodd" clip-rule="evenodd" d="M531.789 114.508H288.422V113.248H531.789V114.508Z" fill="#FFF3D9"/>
<path fill-rule="evenodd" clip-rule="evenodd" d="M531.789 290.834H288.422V289.574H531.789V290.834Z" fill="#FFF3D9"/>
<path fill-rule="evenodd" clip-rule="evenodd" d="M531.789 70.426H288.422V69.166H531.789V70.426Z" fill="#FFF3D9"/>
<path fill-rule="evenodd" clip-rule="evenodd" d="M531.789 246.752H288.422V245.492H531.789V246.752Z" fill="#FFF3D9"/>
</svg>
