<svg width="800" height="449" viewBox="0 0 800 449" fill="none" xmlns="http://www.w3.org/2000/svg">
<path fill-rule="evenodd" clip-rule="evenodd" d="M17.5824 112.088V116.484C17.5824 117.09 17.0904 117.582 16.4835 117.582H10.989C10.5124 117.582 10.0713 117.734 9.7112 117.992C9.1542 118.391 8.79121 119.043 8.79121 119.78V421.978C8.79121 431.689 16.6631 439.56 26.3736 439.56H773.626C783.337 439.56 791.209 431.689 791.209 421.978V119.78C791.209 119.043 790.846 118.391 790.289 117.992C789.929 117.734 789.488 117.582 789.011 117.582H783.517C782.91 117.582 782.418 117.09 782.418 116.484V112.088C782.418 112.088 782.847 111.981 783.517 111.694C784.375 111.327 785.628 110.667 786.875 109.561C787.141 109.325 787.407 109.069 787.668 108.791C789.547 106.795 791.209 103.679 791.209 98.9011V12.0736C791.209 10.2529 789.733 8.79121 787.912 8.79121H12.0879C10.2672 8.79121 8.79121 10.2529 8.79121 12.0736V98.9011C8.79121 103.679 10.4532 106.795 12.3319 108.791C12.5934 109.069 12.8592 109.325 13.1252 109.561C14.3717 110.667 15.6249 111.327 16.4835 111.694C17.1528 111.981 17.5824 112.088 17.5824 112.088ZM3.52106 111.719C1.43407 108.447 0 104.208 0 98.9011V12.0736C0 5.34797 5.46178 0 12.0879 0H787.912C794.538 0 800 5.34797 800 12.0736V98.9011C800 104.208 798.566 108.447 796.479 111.719C798.645 113.726 800 116.595 800 119.78V421.978C800 436.544 788.192 448.352 773.626 448.352H26.3736C11.8079 448.352 0 436.544 0 421.978V119.78C0 116.595 1.35545 113.726 3.52106 111.719Z" fill="#E9DDD1"/>
<path d="M17.5822 42.8572C17.5822 41.0365 19.0582 39.5605 20.8789 39.5605H779.121C780.941 39.5605 782.417 41.0365 782.417 42.8573V116.484C782.417 117.091 782.909 117.583 783.516 117.583H789.011C790.225 117.583 791.209 118.567 791.209 119.78V421.978C791.209 431.689 783.337 439.561 773.626 439.561H26.3734C16.6629 439.561 8.79102 431.689 8.79102 421.978V119.78C8.79102 118.567 9.77501 117.583 10.9888 117.583H16.4833C17.0902 117.583 17.5822 117.091 17.5822 116.484V42.8572Z" fill="#E9DDD1"/>
<path fill-rule="evenodd" clip-rule="evenodd" d="M16.882 42.858C16.882 40.6507 18.6714 38.8613 20.8787 38.8613H779.121C781.328 38.8613 783.117 40.6507 783.117 42.858V116.484C783.117 116.705 783.296 116.883 783.516 116.883H789.011C790.611 116.883 791.908 118.181 791.908 119.781V421.979C791.908 432.076 783.723 440.261 773.626 440.261H26.3732C16.2761 440.261 8.09082 432.076 8.09082 421.979V119.781C8.09082 118.181 9.38821 116.883 10.9886 116.883H16.4831C16.7034 116.883 16.882 116.705 16.882 116.484V42.858ZM20.8787 40.2613C19.4446 40.2613 18.282 41.4239 18.282 42.858V116.484C18.282 117.478 17.4766 118.283 16.4831 118.283H10.9886C10.1614 118.283 9.49082 118.954 9.49082 119.781V421.979C9.49082 431.303 17.0493 438.861 26.3732 438.861H773.626C782.95 438.861 790.508 431.303 790.508 421.979V119.781C790.508 118.954 789.838 118.283 789.011 118.283H783.516C782.523 118.283 781.717 117.478 781.717 116.484V42.858C781.717 41.4239 780.555 40.2613 779.121 40.2613H20.8787Z" fill="black"/>
<path d="M24.176 47.2532C24.176 46.6463 24.668 46.1543 25.2749 46.1543H774.725C775.332 46.1543 775.824 46.6463 775.824 47.2532V123.077C775.824 123.684 776.316 124.176 776.923 124.176H783.517C784.124 124.176 784.615 124.668 784.615 125.275V419.781C784.615 427.064 778.712 432.967 771.429 432.967H28.5716C21.2887 432.967 15.3848 427.064 15.3848 419.781V125.275C15.3848 124.668 15.8768 124.176 16.4837 124.176H23.0771C23.684 124.176 24.176 123.684 24.176 123.077V47.2532Z" fill="#E9DDD1"/>
<path fill-rule="evenodd" clip-rule="evenodd" d="M23.4758 47.252C23.4758 46.2585 24.2812 45.4531 25.2747 45.4531H774.725C775.719 45.4531 776.524 46.2585 776.524 47.252V123.076C776.524 123.297 776.703 123.475 776.923 123.475H783.516C784.51 123.475 785.315 124.281 785.315 125.274V419.78C785.315 427.449 779.098 433.666 771.428 433.666H28.5714C20.9019 433.666 14.6846 427.449 14.6846 419.78V125.274C14.6846 124.28 15.49 123.475 16.4835 123.475H23.0769C23.2972 123.475 23.4758 123.297 23.4758 123.076V47.252ZM25.2747 46.8531C25.0544 46.8531 24.8758 47.0317 24.8758 47.252V123.076C24.8758 124.07 24.0704 124.875 23.0769 124.875H16.4835C16.2632 124.875 16.0846 125.054 16.0846 125.274V419.78C16.0846 426.676 21.6751 432.266 28.5714 432.266H771.428C778.325 432.266 783.915 426.676 783.915 419.78V125.274C783.915 125.054 783.737 124.875 783.516 124.875H776.923C775.93 124.875 775.124 124.07 775.124 123.076V47.252C775.124 47.0317 774.945 46.8531 774.725 46.8531H25.2747Z" fill="black"/>
<path d="M213.187 134.066H586.813V347.253H213.187V134.066Z" fill="#E9DDD1"/>
<path fill-rule="evenodd" clip-rule="evenodd" d="M212.486 133.365H587.513V347.952H212.486V133.365ZM213.886 134.765V346.552H586.113V134.765H213.886Z" fill="black"/>
<path d="M234.066 146.154C234.066 142.513 237.018 139.561 240.66 139.561H559.341C562.983 139.561 565.935 142.513 565.935 146.154V335.165C565.935 338.806 562.983 341.758 559.341 341.758H240.66C237.018 341.758 234.066 338.806 234.066 335.165V146.154Z" fill="#E9DDD1"/>
<path fill-rule="evenodd" clip-rule="evenodd" d="M233.366 146.155C233.366 142.127 236.632 138.861 240.66 138.861H559.341C563.369 138.861 566.634 142.127 566.634 146.155V335.166C566.634 339.194 563.369 342.459 559.341 342.459H240.66C236.632 342.459 233.366 339.194 233.366 335.166V146.155ZM240.66 140.261C237.405 140.261 234.766 142.9 234.766 146.155V335.166C234.766 338.421 237.405 341.059 240.66 341.059H559.341C562.596 341.059 565.234 338.421 565.234 335.166V146.155C565.234 142.9 562.596 140.261 559.341 140.261H240.66Z" fill="black"/>
<path d="M8.79102 12.0734C8.79102 10.2527 10.267 8.79102 12.0877 8.79102H787.912C789.733 8.79102 791.209 10.2527 791.209 12.0734C791.209 27.129 791.209 89.2562 791.209 98.9009C791.209 109.89 782.417 112.088 782.417 112.088V42.857C782.417 41.0362 780.941 39.5602 779.121 39.5602H20.8789C19.0582 39.5602 17.5822 41.0362 17.5822 42.857V112.088C17.5822 112.088 8.79102 109.89 8.79102 98.9009C8.79102 89.2562 8.79102 27.129 8.79102 12.0734Z" fill="#E9DDD1"/>
<path fill-rule="evenodd" clip-rule="evenodd" d="M8.09082 12.0742C8.09082 9.86294 9.88417 8.0918 12.0875 8.0918H787.912C790.115 8.0918 791.908 9.86294 791.908 12.0742V98.9017C791.908 104.612 789.613 108.096 787.274 110.143C786.114 111.158 784.954 111.81 784.083 112.21C783.646 112.41 783.28 112.547 783.02 112.635C782.954 112.658 782.894 112.677 782.842 112.694C782.792 112.709 782.748 112.723 782.712 112.733C782.675 112.744 782.646 112.752 782.625 112.758L782.6 112.764L782.589 112.767L782.588 112.767C782.587 112.767 782.587 112.768 782.417 112.089L782.588 112.767L781.717 112.985V42.8577C781.717 41.4236 780.555 40.261 779.121 40.261H20.8788C19.4446 40.261 18.282 41.4236 18.282 42.8577V112.985L17.4123 112.768L17.582 112.089C17.4123 112.768 17.4127 112.768 17.4123 112.768L17.4075 112.766L17.3996 112.764L17.3742 112.758C17.3532 112.752 17.3241 112.744 17.2873 112.733C17.2138 112.712 17.1097 112.68 16.9794 112.635C16.7189 112.547 16.353 112.41 15.9167 112.21C15.0453 111.81 13.8858 111.158 12.7255 110.143C10.3866 108.096 8.09082 104.612 8.09082 98.9017V12.0742ZM16.882 111.103V42.8577C16.882 40.6504 18.6714 38.861 20.8788 38.861H779.121C781.328 38.861 783.117 40.6504 783.117 42.8577V111.103C783.235 111.055 783.363 110.999 783.499 110.937C784.276 110.581 785.314 109.997 786.352 109.089C788.409 107.29 790.508 104.18 790.508 98.9017V12.0742C790.508 10.6441 789.35 9.4918 787.912 9.4918H12.0875C10.6494 9.4918 9.49082 10.6441 9.49082 12.0742V98.9017C9.49082 104.18 11.5906 107.29 13.6474 109.089C14.6849 109.997 15.7231 110.581 16.5001 110.937C16.6361 110.999 16.7639 111.055 16.882 111.103Z" fill="black"/>
<path d="M382.418 8.79102H417.583V14.2855C417.583 14.8924 417.091 15.3844 416.484 15.3844H383.517C382.91 15.3844 382.418 14.8924 382.418 14.2855V8.79102Z" fill="#E9DDD1"/>
<path fill-rule="evenodd" clip-rule="evenodd" d="M381.718 8.0918H418.283V14.2863C418.283 15.2798 417.477 16.0852 416.484 16.0852H383.517C382.523 16.0852 381.718 15.2798 381.718 14.2863V8.0918ZM383.118 9.4918V14.2863C383.118 14.5066 383.296 14.6852 383.517 14.6852H416.484C416.704 14.6852 416.883 14.5066 416.883 14.2863V9.4918H383.118Z" fill="black"/>
<path d="M42.2621 150.074C47.9852 139.529 59.384 134.066 71.382 134.066H213.187V347.253H71.382C59.384 347.253 47.9852 341.791 42.262 331.246C32.6853 313.601 19.7803 282.129 19.7803 240.66C19.7803 199.19 32.6853 167.719 42.2621 150.074Z" fill="#E9DDD1"/>
<path fill-rule="evenodd" clip-rule="evenodd" d="M41.6466 149.739C47.5168 138.923 59.1831 133.365 71.3819 133.365H213.887V347.952H71.3818C59.1831 347.952 47.5168 342.394 41.6466 331.579C32.0307 313.861 19.0801 282.275 19.0801 240.659C19.0801 199.042 32.0307 167.456 41.6466 149.739ZM71.3819 134.765C59.5845 134.765 48.4532 140.132 42.8771 150.407C33.3396 167.98 20.4801 199.336 20.4801 240.659C20.4801 281.981 33.3396 313.338 42.8771 330.911C48.4532 341.185 59.5845 346.552 71.3818 346.552H212.487V134.765H71.3819Z" fill="black"/>
<path d="M47.9187 153.601C52.6012 144.578 62.1243 139.561 72.2904 139.561H201.099C204.74 139.561 207.692 142.513 207.692 146.154V335.165C207.692 338.806 204.74 341.758 201.099 341.758H72.2904C62.1243 341.758 52.6012 336.741 47.9187 327.717C38.8026 310.151 25.2744 277.821 25.2744 240.659C25.2744 203.498 38.8026 171.168 47.9187 153.601Z" fill="#E9DDD1"/>
<path fill-rule="evenodd" clip-rule="evenodd" d="M47.2981 153.28C52.1176 143.992 61.9017 138.861 72.2912 138.861H201.099C205.127 138.861 208.393 142.127 208.393 146.155V335.166C208.393 339.194 205.127 342.459 201.099 342.459H72.2912C61.9017 342.459 52.1176 337.328 47.2981 328.041C38.1574 310.426 24.5752 277.98 24.5752 240.66C24.5752 203.34 38.1574 170.894 47.2981 153.28ZM72.2912 140.261C62.3485 140.261 53.0864 145.165 48.5408 153.925C39.4495 171.444 25.9752 203.658 25.9752 240.66C25.9752 277.663 39.4494 309.876 48.5408 327.396C53.0864 336.155 62.3485 341.059 72.2912 341.059H201.099C204.354 341.059 206.993 338.421 206.993 335.166V146.155C206.993 142.9 204.354 140.261 201.099 140.261H72.2912Z" fill="black"/>
<path d="M757.738 150.074C752.015 139.529 740.616 134.066 728.618 134.066H586.813V347.253H728.618C740.616 347.253 752.015 341.791 757.738 331.246C767.315 313.601 780.22 282.129 780.22 240.66C780.22 199.19 767.315 167.719 757.738 150.074Z" fill="#E9DDD1"/>
<path fill-rule="evenodd" clip-rule="evenodd" d="M758.353 149.739C752.483 138.923 740.817 133.365 728.618 133.365H586.113V347.952H728.618C740.817 347.952 752.483 342.394 758.353 331.579C767.969 313.861 780.92 282.275 780.92 240.659C780.92 199.042 767.969 167.456 758.353 149.739ZM728.618 134.765C740.415 134.765 751.547 140.132 757.123 150.407C766.66 167.98 779.52 199.336 779.52 240.659C779.52 281.981 766.66 313.338 757.123 330.911C751.547 341.185 740.415 346.552 728.618 346.552H587.513V134.765H728.618Z" fill="black"/>
<path d="M752.081 153.601C747.399 144.578 737.876 139.561 727.71 139.561H598.901C595.26 139.561 592.308 142.513 592.308 146.154V335.165C592.308 338.806 595.26 341.758 598.901 341.758H727.71C737.876 341.758 747.399 336.741 752.081 327.717C761.197 310.151 774.726 277.821 774.726 240.659C774.726 203.498 761.197 171.168 752.081 153.601Z" fill="#E9DDD1"/>
<path fill-rule="evenodd" clip-rule="evenodd" d="M752.703 153.28C747.883 143.992 738.099 138.861 727.71 138.861H598.902C594.874 138.861 591.608 142.127 591.608 146.155V335.166C591.608 339.194 594.874 342.459 598.902 342.459H727.71C738.099 342.459 747.883 337.328 752.703 328.041C761.844 310.426 775.426 277.98 775.426 240.66C775.426 203.34 761.844 170.894 752.703 153.28ZM727.71 140.261C737.653 140.261 746.915 145.165 751.46 153.925C760.552 171.444 774.026 203.658 774.026 240.66C774.026 277.663 760.552 309.876 751.46 327.396C746.915 336.155 737.653 341.059 727.71 341.059H598.902C595.647 341.059 593.008 338.421 593.008 335.166V146.155C593.008 142.9 595.647 140.261 598.902 140.261H727.71Z" fill="black"/>
<path fill-rule="evenodd" clip-rule="evenodd" d="M395.824 34.0655C395.702 34.0655 395.604 33.9671 395.604 33.8458L395.604 31.0117C395.604 30.8817 395.492 30.7801 395.362 30.793L391.284 31.2008C390.879 31.2413 390.641 30.7567 390.922 30.4611L399.84 21.0471C399.927 20.9556 400.072 20.9556 400.159 21.0471L409.078 30.4611C409.358 30.7567 409.12 31.2413 408.715 31.2008L404.637 30.793C404.507 30.7801 404.395 30.8817 404.395 31.0117L404.395 33.8458C404.395 33.9671 404.297 34.0655 404.175 34.0655H395.824Z" fill="#E9DDD1"/>
<path fill-rule="evenodd" clip-rule="evenodd" d="M399.999 21.8954L391.911 30.4335L395.292 30.0953C395.834 30.0412 396.304 30.4663 396.304 31.0105L396.304 33.3644H403.695L403.695 31.0105C403.695 30.4664 404.165 30.0412 404.706 30.0953L408.088 30.4335L399.999 21.8954ZM399.332 20.5645C399.695 20.1816 400.304 20.1816 400.667 20.5646L409.586 29.9785C410.312 30.7449 409.695 32.0012 408.645 31.8962L405.095 31.5412L405.095 33.8446C405.095 34.3526 404.683 34.7644 404.175 34.7644H395.824C395.316 34.7644 394.904 34.3526 394.904 33.8446L394.904 31.5412L391.354 31.8962C390.303 32.0012 389.687 30.7449 390.413 29.9785L399.332 20.5645Z" fill="black"/>
<path fill-rule="evenodd" clip-rule="evenodd" d="M181.563 341.758C136.552 330.159 103.297 289.293 103.297 240.659C103.297 192.026 136.552 151.16 181.563 139.561H201.099C204.741 139.561 207.692 142.513 207.692 146.154V335.165C207.692 338.806 204.741 341.758 201.099 341.758H181.563Z" fill="#E9DDD1"/>
<path fill-rule="evenodd" clip-rule="evenodd" d="M181.474 138.861H201.099C205.127 138.861 208.392 142.127 208.392 146.155V335.166C208.392 339.194 205.127 342.459 201.099 342.459H181.474L181.388 342.437C136.076 330.76 102.597 289.621 102.597 240.66C102.597 191.7 136.076 150.561 181.388 138.883L181.474 138.861ZM181.652 140.261C136.986 151.813 103.997 192.385 103.997 240.66C103.997 288.936 136.986 329.508 181.652 341.059H201.099C204.354 341.059 206.992 338.421 206.992 335.166V146.155C206.992 142.9 204.354 140.261 201.099 140.261H181.652Z" fill="black"/>
<path fill-rule="evenodd" clip-rule="evenodd" d="M73.2 139.38L107.529 267.498L106.177 267.861L71.8477 139.742L73.2 139.38Z" fill="black"/>
<path fill-rule="evenodd" clip-rule="evenodd" d="M683.783 139.741L652.426 256.768L651.073 256.405L682.431 139.379L683.783 139.741Z" fill="black"/>
<path fill-rule="evenodd" clip-rule="evenodd" d="M592.308 302.198C626.294 302.198 653.846 274.646 653.846 240.66C653.846 206.673 626.294 179.121 592.308 179.121V302.198Z" fill="#E9DDD1"/>
<path fill-rule="evenodd" clip-rule="evenodd" d="M591.607 178.42H592.307C626.681 178.42 654.546 206.285 654.546 240.658C654.546 275.032 626.681 302.897 592.307 302.897H591.607V178.42ZM593.007 179.824V301.493C626.285 301.118 653.146 274.025 653.146 240.658C653.146 207.292 626.285 180.199 593.007 179.824Z" fill="black"/>
<path fill-rule="evenodd" clip-rule="evenodd" d="M207.693 187.912C178.561 187.912 154.945 211.528 154.945 240.659C154.945 269.791 178.561 293.407 207.693 293.407V287.912C201.279 287.912 195.164 286.634 189.588 284.32L192.701 277.28C197.324 279.175 202.386 280.22 207.693 280.22V201.099C206.635 201.099 205.588 201.141 204.552 201.222L203.728 193.571C205.035 193.462 206.357 193.407 207.693 193.407V187.912ZM180.713 201.861C186.773 197.639 193.869 194.801 201.542 193.803L202.366 201.455C196.072 202.302 190.247 204.629 185.253 208.075L180.713 201.861ZM164.922 220.545C168.154 213.686 172.987 207.729 178.94 203.158L183.479 209.373C178.607 213.149 174.641 218.038 171.962 223.658L164.922 220.545ZM160.44 240.659C160.44 234.246 161.718 228.131 164.032 222.555L171.072 225.668C169.177 230.291 168.132 235.353 168.132 240.66C168.132 241.717 168.174 242.764 168.255 243.801L160.604 244.625C160.495 243.317 160.44 241.995 160.44 240.659ZM168.894 267.638C164.672 261.579 161.834 254.483 160.836 246.81L168.488 245.986C169.335 252.28 171.662 258.105 175.108 263.099L168.894 267.638ZM187.579 283.43C180.719 280.198 174.762 275.365 170.192 269.412L176.406 264.873C180.182 269.745 185.071 273.711 190.691 276.391L187.579 283.43Z" fill="#E9DDD1"/>
<path fill-rule="evenodd" clip-rule="evenodd" d="M206.992 188.618C178.57 188.992 155.645 212.149 155.645 240.66C155.645 269.171 178.57 292.328 206.992 292.703V288.608C200.74 288.518 194.776 287.232 189.32 284.967L188.658 284.692L192.336 276.375L192.966 276.634C197.303 278.411 202.034 279.427 206.992 279.515V201.806C206.191 201.82 205.395 201.859 204.606 201.921L203.928 201.974L202.955 192.933L203.67 192.874C204.767 192.783 205.875 192.728 206.992 192.712V188.618ZM154.245 240.66C154.245 211.142 178.174 187.213 207.692 187.213H208.392V194.107H207.692C206.62 194.107 205.555 194.144 204.501 194.215L205.175 200.477C206.008 200.426 206.847 200.4 207.692 200.4L208.392 200.4V280.921H207.692C202.535 280.921 197.602 279.95 193.068 278.182L190.52 283.943C195.833 286.053 201.626 287.213 207.692 287.213H208.392V294.107H207.692C178.174 294.107 154.245 270.178 154.245 240.66ZM202.161 193.018L203.135 202.058L202.459 202.149C196.277 202.981 190.556 205.267 185.65 208.652L185.089 209.039L179.726 201.696L180.313 201.287C186.463 197.003 193.664 194.122 201.452 193.11L202.161 193.018ZM181.704 202.031L185.419 207.117C190.193 203.941 195.684 201.756 201.598 200.858L200.923 194.596C193.883 195.621 187.353 198.223 181.704 202.031ZM179.082 202.167L184.445 209.51L183.907 209.927C179.121 213.637 175.225 218.439 172.593 223.96L172.301 224.574L163.983 220.896L164.289 220.248C167.568 213.286 172.473 207.242 178.513 202.604L179.082 202.167ZM165.866 220.198L171.628 222.746C174.244 217.487 177.977 212.883 182.515 209.242L178.8 204.155C173.38 208.452 168.939 213.929 165.866 220.198ZM163.66 221.626L171.977 225.304L171.719 225.934C169.858 230.475 168.832 235.447 168.832 240.66C168.832 241.699 168.873 242.729 168.953 243.747L169.006 244.425L159.965 245.398L159.906 244.683C159.796 243.357 159.74 242.015 159.74 240.66C159.74 234.153 161.036 227.947 163.386 222.287L163.66 221.626ZM164.409 223.488C162.3 228.8 161.14 234.594 161.14 240.66C161.14 241.733 161.176 242.797 161.247 243.852L167.51 243.178C167.458 242.345 167.432 241.506 167.432 240.66C167.432 235.502 168.402 230.57 170.171 226.036L164.409 223.488ZM169.09 245.218L169.181 245.894C170.013 252.076 172.299 257.797 175.684 262.703L176.071 263.264L168.728 268.627L168.319 268.039C164.035 261.89 161.154 254.689 160.142 246.901L160.05 246.191L169.09 245.218ZM161.628 247.43C162.654 254.47 165.255 260.999 169.063 266.648L174.149 262.933C170.973 258.16 168.789 252.669 167.891 246.755L161.628 247.43ZM176.542 263.907L176.959 264.445C180.669 269.232 185.471 273.128 190.992 275.759L191.606 276.052L187.929 284.369L187.28 284.064C180.318 280.784 174.274 275.88 169.636 269.839L169.199 269.271L176.542 263.907ZM171.188 269.552C175.484 274.973 180.961 279.414 187.23 282.487L189.778 276.725C184.52 274.108 179.915 270.375 176.274 265.837L171.188 269.552Z" fill="black"/>
<path fill-rule="evenodd" clip-rule="evenodd" d="M592.308 293.41C619.168 293.442 642.157 273.042 644.808 245.76C647.625 216.765 626.404 190.976 597.409 188.159C595.696 187.993 593.994 187.91 592.308 187.908V193.403C593.818 193.405 595.343 193.479 596.877 193.628C601.317 194.059 605.554 195.092 609.514 196.637L606.546 203.739C603.278 202.481 599.788 201.639 596.134 201.284C594.849 201.159 593.573 201.098 592.308 201.096V280.223C593.638 280.224 594.955 280.159 596.257 280.03L597.237 287.663C595.614 287.832 593.969 287.917 592.308 287.915V293.41ZM620.074 278.894C614.058 283.266 607.002 286.237 599.417 287.385L598.437 279.752C604.659 278.781 610.451 276.344 615.409 272.775L620.074 278.894ZM617.156 271.442L621.821 277.562C627.65 272.899 632.377 266.867 635.482 259.894L628.381 256.926C625.805 262.64 621.926 267.591 617.156 271.442ZM639.339 245.229C638.907 249.669 637.875 253.905 636.329 257.866L629.228 254.898C630.486 251.63 631.328 248.14 631.683 244.485C631.939 241.849 631.93 239.249 631.678 236.71L639.312 235.73C639.634 238.829 639.652 242.007 639.339 245.229ZM631.4 234.53L639.034 233.55C637.886 225.965 634.914 218.908 630.543 212.893L624.423 217.558C627.992 222.515 630.429 228.308 631.4 234.53ZM611.542 197.484C618.515 200.59 624.548 205.317 629.21 211.146L623.091 215.811C619.239 211.04 614.288 207.162 608.574 204.586L611.542 197.484Z" fill="#E9DDD1"/>
<path fill-rule="evenodd" clip-rule="evenodd" d="M591.607 187.207L592.308 187.208C594.017 187.21 595.741 187.294 597.476 187.462C626.856 190.317 648.359 216.448 645.504 245.828C642.818 273.472 619.525 294.142 592.307 294.11L591.607 294.109V287.214L592.308 287.215C593.702 287.217 595.084 287.156 596.45 287.035L595.648 280.787C594.544 280.878 593.43 280.924 592.307 280.922L591.607 280.921V200.395L592.308 200.396C593.595 200.397 594.894 200.46 596.201 200.587C599.683 200.926 603.019 201.698 606.16 202.846L608.589 197.034C604.882 195.653 600.935 194.725 596.809 194.324C595.297 194.177 593.795 194.105 592.307 194.103L591.607 194.102V187.207ZM593.007 188.613V192.709C594.311 192.729 595.624 192.803 596.945 192.931C601.449 193.369 605.749 194.416 609.768 195.985L610.436 196.246L606.929 204.637L606.294 204.392C603.085 203.157 599.657 202.33 596.066 201.981C595.04 201.881 594.02 201.822 593.007 201.803V279.517C594.077 279.499 595.137 279.437 596.187 279.333L596.864 279.266L598.022 288.285L597.309 288.359C595.89 288.507 594.455 288.591 593.007 288.611V292.706C619.21 292.386 641.518 272.375 644.111 245.692C646.891 217.082 625.951 191.635 597.341 188.856C595.887 188.714 594.442 188.634 593.007 188.613ZM611.172 196.553L611.827 196.844C618.904 199.996 625.026 204.794 629.756 210.708L630.204 211.268L622.973 216.78L622.546 216.25C618.762 211.563 613.898 207.754 608.286 205.224L607.665 204.944L611.172 196.553ZM611.909 198.42L609.48 204.233C614.825 206.753 619.491 210.402 623.203 214.844L628.211 211.026C623.831 205.719 618.282 201.377 611.909 198.42ZM630.688 211.902L631.109 212.481C635.545 218.585 638.56 225.746 639.726 233.444L639.833 234.152L630.813 235.311L630.708 234.638C629.755 228.527 627.361 222.837 623.855 217.967L623.457 217.414L630.688 211.902ZM625.385 217.705C628.676 222.443 630.966 227.902 631.981 233.749L638.229 232.947C637.065 225.987 634.339 219.495 630.393 213.887L625.385 217.705ZM639.934 234.944L640.008 235.657C640.335 238.803 640.353 242.028 640.035 245.296C639.598 249.801 638.55 254.1 636.981 258.12L636.721 258.788L628.33 255.281L628.574 254.646C629.81 251.437 630.637 248.008 630.986 244.417C631.238 241.827 631.229 239.272 630.981 236.779L630.914 236.102L639.934 234.944ZM632.436 237.318C632.63 239.687 632.617 242.105 632.379 244.553C632.041 248.035 631.268 251.371 630.12 254.512L635.932 256.941C637.313 253.233 638.241 249.287 638.642 245.161C638.926 242.233 638.933 239.342 638.684 236.516L632.436 237.318ZM628.022 256.017L636.413 259.524L636.122 260.178C632.97 267.256 628.172 273.377 622.258 278.108L621.699 278.555L616.187 271.325L616.716 270.897C621.403 267.114 625.213 262.249 627.743 256.638L628.022 256.017ZM628.734 257.832C626.214 263.177 622.565 267.843 618.122 271.554L621.94 276.563C627.247 272.182 631.589 266.633 634.546 260.261L628.734 257.832ZM615.552 271.809L621.064 279.039L620.485 279.46C614.381 283.896 607.22 286.912 599.522 288.077L598.814 288.184L597.655 279.165L598.329 279.06C604.439 278.106 610.129 275.713 614.999 272.207L615.552 271.809ZM599.217 280.332L600.019 286.58C606.979 285.416 613.471 282.69 619.079 278.744L615.261 273.736C610.523 277.028 605.065 279.317 599.217 280.332Z" fill="black"/>
<path fill-rule="evenodd" clip-rule="evenodd" d="M207.692 201.1V280.22C185.844 280.22 168.132 262.509 168.132 240.66C168.132 218.811 185.844 201.1 207.692 201.1Z" fill="#E9DDD1"/>
<path fill-rule="evenodd" clip-rule="evenodd" d="M206.992 201.805C185.853 202.178 168.832 219.431 168.832 240.659C168.832 261.887 185.853 279.14 206.992 279.513V201.805ZM167.432 240.659C167.432 218.424 185.457 200.398 207.692 200.398H208.392V280.919H207.692C185.457 280.919 167.432 262.894 167.432 240.659Z" fill="black"/>
<path fill-rule="evenodd" clip-rule="evenodd" d="M592.308 280.22C614.156 280.22 631.868 262.509 631.868 240.66C631.868 218.811 614.156 201.1 592.308 201.1V280.22Z" fill="#E9DDD1"/>
<path fill-rule="evenodd" clip-rule="evenodd" d="M591.607 200.398H592.307C614.543 200.398 632.568 218.424 632.568 240.659C632.568 262.894 614.543 280.919 592.307 280.919H591.607V200.398ZM593.007 201.805V279.513C614.146 279.14 631.168 261.887 631.168 240.659C631.168 219.431 614.146 202.178 593.007 201.805Z" fill="black"/>
<path fill-rule="evenodd" clip-rule="evenodd" d="M207.692 205.494V275.824C188.271 275.824 172.527 260.08 172.527 240.659C172.527 221.238 188.271 205.494 207.692 205.494Z" fill="#E9DDD1"/>
<path fill-rule="evenodd" clip-rule="evenodd" d="M206.992 206.202C188.281 206.575 173.227 221.859 173.227 240.66C173.227 259.46 188.281 274.745 206.992 275.118V206.202ZM171.827 240.66C171.827 220.852 187.884 204.795 207.692 204.795H208.392V276.525H207.692C187.884 276.525 171.827 260.467 171.827 240.66Z" fill="black"/>
<path fill-rule="evenodd" clip-rule="evenodd" d="M592.308 275.824C611.729 275.824 627.472 260.08 627.472 240.659C627.472 221.238 611.729 205.494 592.308 205.494V275.824Z" fill="#E9DDD1"/>
<path fill-rule="evenodd" clip-rule="evenodd" d="M591.607 204.795H592.307C612.115 204.795 628.172 220.852 628.172 240.66C628.172 260.467 612.115 276.525 592.307 276.525H591.607V204.795ZM593.007 206.202V275.118C611.719 274.745 626.772 259.46 626.772 240.66C626.772 221.859 611.719 206.575 593.007 206.202Z" fill="black"/>
<path fill-rule="evenodd" clip-rule="evenodd" d="M254.7 155.112C257.642 154.369 260.629 156.152 261.372 159.094C262.754 164.569 263.629 170.163 264.457 175.455C264.522 175.871 264.587 176.286 264.652 176.698C265.556 182.457 266.453 187.858 267.921 192.996C268.755 195.913 267.065 198.955 264.148 199.788C261.23 200.622 258.189 198.932 257.355 196.015C255.678 190.146 254.694 184.122 253.796 178.403C253.736 178.02 253.676 177.638 253.616 177.258C252.771 171.86 251.97 166.746 250.717 161.784C249.975 158.842 251.758 155.854 254.7 155.112Z" fill="black"/>
<path fill-rule="evenodd" clip-rule="evenodd" d="M302.17 175.264C302.48 178.282 300.284 180.981 297.265 181.291C295.434 181.479 293.608 181.661 291.789 181.843C279.974 183.024 268.43 184.178 257.245 186.681C254.283 187.344 251.346 185.481 250.683 182.52C250.02 179.558 251.883 176.621 254.844 175.958C266.73 173.297 279.001 172.074 290.767 170.901C292.572 170.721 294.365 170.542 296.143 170.359C299.161 170.049 301.86 172.245 302.17 175.264Z" fill="black"/>
<path fill-rule="evenodd" clip-rule="evenodd" d="M295.468 156.185C298.425 155.503 301.375 157.346 302.058 160.303C304.421 170.545 306.48 181.09 307.659 191.701C307.994 194.717 305.821 197.434 302.805 197.769C299.789 198.104 297.072 195.931 296.737 192.915C295.623 182.883 293.661 172.79 291.35 162.774C290.668 159.817 292.511 156.867 295.468 156.185Z" fill="black"/>
<path fill-rule="evenodd" clip-rule="evenodd" d="M339.53 162.157C342.725 163.966 344.917 167.013 346.076 170.858C347.151 174.421 347.582 178.921 346.978 183.208C346.386 187.408 344.653 192.32 340.479 195.505C336.844 198.279 332.78 199.577 328.64 198.557C324.772 197.604 322.026 194.9 320.176 192.379C316.515 187.389 314.416 180.402 313.383 176.636C312.896 174.863 313.337 173.055 314.41 171.726C314.58 171.034 314.889 170.363 315.342 169.756C318.608 165.375 324.255 161.607 330.023 160.665C333.008 160.178 336.418 160.395 339.53 162.157ZM324.575 175.796C325.625 179.264 327.109 183.252 329.036 185.878C330.179 187.436 330.977 187.815 331.268 187.887C331.269 187.887 331.27 187.887 331.271 187.888C331.321 187.903 332.04 188.122 333.813 186.769C334.756 186.049 335.707 184.435 336.096 181.674C336.473 179 336.181 176.106 335.555 174.031C335.05 172.357 334.401 171.881 334.115 171.719C333.747 171.511 333.035 171.308 331.794 171.511C329.315 171.916 326.377 173.694 324.575 175.796Z" fill="black"/>
<path fill-rule="evenodd" clip-rule="evenodd" d="M355.713 193.077C355.249 194.261 354.87 195.228 354.61 195.896C354.467 196.264 354.355 196.552 354.284 196.738C354.254 196.817 354.214 196.922 354.183 197.009C354.175 197.029 354.154 197.087 354.131 197.158C354.121 197.186 354.092 197.274 354.06 197.387C354.042 197.45 353.999 197.618 353.975 197.724C353.933 197.93 353.85 198.709 353.86 199.283C354.843 202.057 360.214 204.327 363.028 202.976C363.452 202.548 363.948 201.896 364.063 201.712C364.199 201.483 364.292 201.287 364.303 201.264L364.303 201.262C364.35 201.165 364.385 201.083 364.393 201.064L364.394 201.062C364.483 200.857 364.762 200.158 365.203 199.049C365.481 198.351 365.745 197.651 365.998 196.951C366.548 195.549 367.216 193.85 367.95 191.984C370.18 186.319 373.012 179.153 375.009 174.145C375.594 174.975 376.197 175.947 376.82 177.042C377.753 178.683 378.62 180.4 379.489 182.122C379.612 182.366 379.735 182.611 379.859 182.855C380.781 184.677 381.827 186.724 382.875 188.245C382.926 188.317 382.998 188.426 383.091 188.565C383.835 189.674 385.876 192.717 388.11 195C389.243 196.159 391.208 197.97 393.71 198.653C395.157 199.048 397.043 199.132 398.937 198.214C400.774 197.323 401.903 195.833 402.578 194.479C404.675 190.267 405.881 185.84 406.866 181.824C407.071 180.985 407.266 180.17 407.456 179.376C408.186 180.971 408.894 182.579 409.619 184.226C410.015 185.127 410.417 186.039 410.83 186.968C412.389 190.471 414.072 194.103 416.094 197.688C417.585 200.331 420.937 201.265 423.58 199.774C426.223 198.283 427.156 194.931 425.665 192.288C423.907 189.172 422.394 185.925 420.87 182.5C420.497 181.663 420.121 180.808 419.739 179.941C418.591 177.33 417.394 174.611 416.108 171.947C416.094 171.918 416.064 171.852 416.02 171.753C415.661 170.953 414.343 168.021 412.894 165.924C412.454 165.288 411.885 164.547 411.192 163.879C410.57 163.279 409.418 162.312 407.768 161.883C405.734 161.355 403.573 161.816 401.902 163.241C400.54 164.402 399.864 165.894 399.494 166.948C398.324 170.286 397.483 173.816 396.719 177.021C396.54 177.77 396.366 178.501 396.193 179.208C395.639 181.466 395.079 183.56 394.412 185.515C393.573 184.44 392.827 183.338 392.29 182.547C392.153 182.345 392.03 182.163 391.922 182.007C391.378 181.217 390.671 179.884 389.665 177.894C389.549 177.665 389.43 177.43 389.308 177.189C388.45 175.487 387.452 173.507 386.372 171.61C385.148 169.457 383.673 167.142 381.932 165.211C380.243 163.339 377.832 161.296 374.633 160.609C371.33 159.899 368.787 161.515 367.412 162.782C366.038 164.047 365.039 165.632 364.352 166.896C363.061 169.27 362.144 171.913 361.777 172.973C361.745 173.064 361.718 173.144 361.694 173.21C360.5 176.609 359.548 180.075 358.654 183.327C358.537 183.754 358.42 184.177 358.305 184.596C357.482 187.576 356.677 190.385 355.713 193.077ZM396.97 188.19C396.971 188.19 396.966 188.188 396.957 188.183C396.966 188.187 396.97 188.19 396.97 188.19ZM409.891 170.517C409.891 170.518 409.885 170.535 409.87 170.567C409.883 170.531 409.891 170.516 409.891 170.517Z" fill="black"/>
<path fill-rule="evenodd" clip-rule="evenodd" d="M438.461 164.836C441.496 164.836 443.956 167.296 443.956 170.33C443.956 175.448 444.005 181.333 444.784 186.911C445.555 192.428 446.959 196.963 449.169 199.994C449.606 199.962 450.387 199.792 451.61 199.305C452.913 198.786 454.257 198.103 455.77 197.334C455.864 197.286 455.958 197.238 456.054 197.189L456.125 197.153C457.528 196.44 459.403 195.487 461.104 194.993C464.018 194.146 467.066 195.821 467.913 198.735C468.76 201.649 467.085 204.698 464.171 205.545C463.637 205.7 462.718 206.129 461.032 206.986C460.912 207.047 460.79 207.109 460.665 207.173C459.249 207.894 457.47 208.8 455.676 209.514C453.772 210.273 451.292 211.054 448.688 210.986C445.796 210.91 442.81 209.768 440.641 206.938C436.592 201.656 434.785 194.76 433.901 188.432C433.003 182.006 432.967 175.415 432.967 170.33C432.967 167.296 435.427 164.836 438.461 164.836Z" fill="black"/>
<path fill-rule="evenodd" clip-rule="evenodd" d="M470.312 183.08C470.554 186.105 468.298 188.753 465.273 188.995C456.258 189.716 447.278 190.941 438.144 192.254C435.14 192.685 432.356 190.6 431.924 187.597C431.492 184.593 433.577 181.808 436.581 181.376C445.732 180.061 455.008 178.792 464.397 178.041C467.422 177.799 470.07 180.055 470.312 183.08Z" fill="black"/>
<path fill-rule="evenodd" clip-rule="evenodd" d="M481.206 157.138C481.817 160.111 479.902 163.015 476.93 163.626C472.245 164.588 469.325 165.017 467.475 164.982C466.962 164.973 466.306 164.927 465.609 164.756C465.319 164.684 464.955 164.575 464.555 164.401C463.27 164.736 461.284 165.294 458.249 166.197C452.232 167.985 447.372 170.405 441.574 173.292C440.294 173.928 438.969 174.588 437.577 175.268C434.85 176.6 431.56 175.47 430.228 172.743C428.896 170.017 430.026 166.727 432.753 165.395C433.982 164.794 435.199 164.187 436.417 163.58C442.264 160.662 448.105 157.748 455.117 155.663C459.954 154.225 462.731 153.471 464.323 153.186C464.747 153.11 465.255 153.035 465.786 153.014C466.206 152.997 467.246 152.978 468.4 153.438C468.687 153.552 468.965 153.69 469.231 153.85C470.323 153.7 472.054 153.409 474.718 152.862C477.691 152.251 480.596 154.166 481.206 157.138ZM471.993 158.958C471.987 159.152 471.973 159.3 471.97 159.331L471.97 159.336C471.952 159.545 472.002 159.365 471.993 158.958ZM461.022 158.384C461.031 158.28 461.016 158.354 461.009 158.545C461.011 158.524 461.012 158.505 461.013 158.489C461.016 158.457 461.018 158.43 461.02 158.414L461.022 158.384Z" fill="black"/>
<path fill-rule="evenodd" clip-rule="evenodd" d="M299.749 238.575C299.527 239.023 299.463 239.153 299.481 239.106C295.14 250.682 292.271 262.519 290.238 274.859C289.892 276.963 289.542 278.971 289.105 280.535C288.887 281.316 288.574 282.265 288.083 283.162C287.627 283.997 286.663 285.446 284.829 286.265C282.737 287.199 280.742 286.792 279.409 286.17C278.223 285.616 277.319 284.803 276.718 284.194C275.489 282.949 274.196 281.169 272.854 279.182C267.993 271.99 263.632 264.531 259.373 257.248C259.17 256.901 258.967 256.554 258.765 256.207C254.279 248.54 249.876 241.071 244.936 233.949C243.207 231.455 243.826 228.032 246.32 226.302C248.813 224.573 252.236 225.192 253.966 227.686C259.181 235.205 263.783 243.022 268.25 250.659C268.434 250.974 268.618 251.288 268.802 251.603C272.472 257.879 276.064 264.02 279.927 269.963C282.014 258.18 284.917 246.647 289.191 235.248C289.393 234.709 289.86 233.774 290.204 233.086C290.259 232.975 290.311 232.871 290.359 232.776C290.824 231.839 291.335 230.798 291.754 229.853C291.765 229.83 291.775 229.807 291.785 229.785C291.291 227.394 292.446 224.88 294.737 223.75C295.209 223.517 296.213 223.078 297.524 223.078C299.148 223.079 300.971 223.781 302.177 225.446C303.144 226.78 303.27 228.143 303.292 228.732C303.319 229.42 303.231 230.01 303.159 230.391C302.901 231.754 302.253 233.287 301.798 234.313C301.272 235.497 300.667 236.726 300.201 237.664C300.006 238.057 299.858 238.355 299.749 238.575Z" fill="black"/>
<path fill-rule="evenodd" clip-rule="evenodd" d="M312.683 234.305C315.585 233.42 318.656 235.055 319.541 237.957C322.81 248.672 325.585 259.4 327.082 270.717C328.222 271.932 328.797 273.649 328.491 275.416C328.338 276.3 328.179 277.169 328.008 277.825C328.006 277.831 328.005 277.838 328.003 277.846C327.944 278.07 327.748 278.826 327.319 279.577C327.316 279.582 327.313 279.588 327.309 279.595C327.158 279.86 326.351 281.282 324.548 282.012C323.4 282.477 322.055 282.57 320.749 282.144C319.567 281.757 318.798 281.072 318.383 280.621C317.634 279.807 317.315 278.965 317.23 278.739L317.229 278.737C317.097 278.387 317.015 278.076 316.969 277.883C316.874 277.489 316.808 277.087 316.762 276.773C316.665 276.126 316.565 275.268 316.459 274.345C315.16 263.088 312.436 252.327 309.031 241.163C308.145 238.261 309.78 235.19 312.683 234.305ZM317.375 275.051C317.356 275.125 317.357 275.105 317.383 275.02C317.38 275.031 317.377 275.042 317.375 275.051Z" fill="black"/>
<path fill-rule="evenodd" clip-rule="evenodd" d="M343.035 224.254C346.026 223.746 348.864 225.758 349.373 228.75C350.413 234.863 351.23 241.016 352.032 247.053C352.101 247.577 352.171 248.101 352.24 248.623C353.116 255.201 353.997 261.643 355.166 267.993C355.813 271.505 356.122 272.468 356.812 273.227C358.854 275.472 358.689 278.947 356.445 280.989C354.2 283.03 350.725 282.866 348.683 280.621C345.69 277.33 344.958 273.29 344.448 270.473C344.418 270.306 344.388 270.143 344.359 269.984C343.134 263.333 342.222 256.641 341.348 250.073C341.279 249.558 341.211 249.044 341.143 248.531C340.336 242.457 339.544 236.499 338.54 230.593C338.031 227.601 340.043 224.763 343.035 224.254Z" fill="black"/>
<path fill-rule="evenodd" clip-rule="evenodd" d="M339.601 238.891C339.972 235.879 342.714 233.738 345.725 234.108C346.991 234.264 348.36 234.417 349.807 234.579C355.859 235.256 363.277 236.086 370.188 237.885C378.75 240.113 387.824 244.119 393.235 252.372C398.654 260.637 393.949 269.707 388.679 274.028C381.918 279.572 373.642 281.712 366.72 283.388C366.139 283.529 365.512 283.668 364.966 283.789C364.721 283.843 364.493 283.894 364.293 283.939C363.567 284.104 363.001 284.245 362.509 284.401C361.558 284.701 361.143 284.976 360.878 285.236C358.715 287.364 355.236 287.336 353.108 285.173C350.979 283.01 351.007 279.532 353.17 277.403C355.108 275.497 357.297 274.523 359.2 273.922C360.388 273.546 361.85 273.222 362.994 272.967C363.431 272.87 363.822 272.783 364.133 272.708C371.219 270.992 377.131 269.286 381.711 265.531C383.038 264.442 384.014 262.983 384.413 261.61C384.783 260.338 384.64 259.303 384.045 258.397C380.877 253.565 375.057 250.507 367.42 248.52C361.354 246.941 354.956 246.221 348.952 245.545C347.399 245.37 345.872 245.198 344.384 245.015C341.372 244.644 339.231 241.903 339.601 238.891Z" fill="black"/>
<path fill-rule="evenodd" clip-rule="evenodd" d="M404.855 235.448C407.733 234.488 410.845 236.043 411.806 238.921C414.746 247.732 416.476 256.559 418.1 265.245C418.204 265.804 418.316 266.639 418.417 267.388C418.461 267.715 418.502 268.026 418.54 268.29C418.695 269.369 418.876 270.418 419.122 271.35C419.225 271.741 419.327 272.062 419.422 272.321C419.466 272.305 419.511 272.289 419.559 272.271C420.435 271.945 421.53 271.362 422.786 270.542C425.033 269.076 427.182 267.271 428.845 265.874C429.052 265.7 429.252 265.532 429.444 265.372C431.772 263.426 435.237 263.736 437.183 266.065C439.129 268.393 438.819 271.858 436.491 273.804C436.324 273.943 436.14 274.098 435.939 274.267C434.319 275.631 431.641 277.886 428.791 279.745C427.181 280.796 425.325 281.851 423.391 282.57C421.533 283.262 419.039 283.859 416.419 283.291C413.548 282.669 411.692 280.797 410.588 279.114C409.514 277.478 408.891 275.649 408.496 274.153C408.089 272.609 407.838 271.07 407.663 269.851C407.574 269.235 407.512 268.766 407.463 268.39C407.397 267.894 407.353 267.561 407.298 267.264C405.671 258.564 404.056 250.414 401.382 242.399C400.421 239.521 401.976 236.408 404.855 235.448Z" fill="black"/>
<path fill-rule="evenodd" clip-rule="evenodd" d="M440.441 249.017C441.287 251.931 439.611 254.979 436.697 255.825C427.467 258.505 418.535 261.269 409.557 264.508C406.702 265.538 403.554 264.059 402.524 261.204C401.494 258.35 402.973 255.201 405.828 254.171C415.112 250.822 424.29 247.984 433.633 245.272C436.547 244.426 439.595 246.103 440.441 249.017Z" fill="black"/>
<path fill-rule="evenodd" clip-rule="evenodd" d="M435.162 231.687C435.263 234.719 432.886 237.26 429.853 237.361C428.424 237.409 427.124 237.437 425.921 237.464C419.517 237.606 415.847 237.687 409.829 240.228C407.034 241.408 403.811 240.099 402.63 237.303C401.45 234.508 402.759 231.285 405.555 230.104C413.617 226.701 419.37 226.59 425.958 226.463C427.104 226.441 428.275 226.419 429.487 226.378C432.52 226.277 435.061 228.654 435.162 231.687Z" fill="black"/>
<path fill-rule="evenodd" clip-rule="evenodd" d="M499.415 238.522C503.516 242.149 506.804 247.271 506.584 253.51C506.373 259.486 503.791 265.802 499.867 270.708C495.943 275.615 490.097 279.796 482.959 280.188C472.586 280.757 466.132 274.146 462.528 267.164C459.364 261.032 457.882 253.814 457.298 248.19C455.338 246.825 454.431 244.282 455.239 241.909C457.371 235.651 462.364 232.125 467.787 230.625C473.072 229.162 479.043 229.49 484.465 230.884C489.906 232.284 495.304 234.886 499.415 238.522ZM470.718 241.215C469.261 241.619 468.138 242.197 467.298 242.941C467.738 243.663 468.017 244.499 468.082 245.4C468.449 250.483 469.693 257.085 472.294 262.124C474.845 267.068 478.026 269.453 482.357 269.215C485.415 269.048 488.623 267.173 491.285 263.844C493.948 260.515 495.486 256.418 495.602 253.123C495.668 251.249 494.722 249.042 492.135 246.753C489.559 244.475 485.816 242.578 481.728 241.527C477.62 240.471 473.673 240.398 470.718 241.215Z" fill="black"/>
<path fill-rule="evenodd" clip-rule="evenodd" d="M395.124 298.924C398.147 298.658 400.813 300.893 401.079 303.916C401.208 305.386 401.328 306.833 401.446 308.262C401.906 313.815 402.342 319.09 403.223 324.373C403.722 327.366 401.7 330.197 398.706 330.696C395.713 331.195 392.882 329.173 392.383 326.18C391.42 320.403 390.938 314.553 390.475 308.953C390.362 307.578 390.25 306.218 390.132 304.878C389.866 301.855 392.101 299.19 395.124 298.924Z" fill="black"/>
<path fill-rule="evenodd" clip-rule="evenodd" d="M414.051 296.249C417.519 294.473 421.379 294.308 424.878 294.651C427.495 294.907 429.502 296.959 429.8 299.467C430.141 299.559 430.423 299.664 430.627 299.751C431.677 300.2 432.47 300.858 432.903 301.243C433.407 301.692 433.867 302.178 434.25 302.611C435.019 303.481 435.738 304.431 436.244 305.128C436.505 305.487 436.726 305.803 436.89 306.039C436.971 306.157 437.039 306.256 437.09 306.331C437.128 306.386 437.19 306.48 437.177 306.46C437.56 307.025 437.993 307.6 438.538 308.325C438.692 308.529 438.855 308.745 439.028 308.976C439.755 309.948 440.613 311.119 441.382 312.388C442.868 314.839 444.537 318.476 443.759 322.744C442.71 328.505 437.462 330.552 435.303 331.271C434.582 331.511 433.669 331.762 433.042 331.929C432.806 332.098 432.555 332.251 432.287 332.385C429.574 333.745 426.273 332.647 424.913 329.934C424.093 328.298 424.072 326.284 425.063 324.559C425.81 323.258 426.864 322.609 427.251 322.384C428.067 321.91 428.942 321.658 429.274 321.563C429.282 321.561 429.29 321.558 429.298 321.556C429.779 321.417 430.131 321.327 430.444 321.246C430.894 321.129 431.266 321.033 431.831 320.845C432.4 320.656 432.75 320.496 432.955 320.384C432.908 319.96 432.691 319.249 431.984 318.083C431.511 317.303 430.928 316.493 430.232 315.563C430.111 315.401 429.983 315.231 429.85 315.055C429.811 315.003 429.771 314.951 429.731 314.898C428.693 316.349 427.477 317.652 426.168 318.739C422.406 321.865 416.603 324.17 410.592 321.576C408.098 320.5 406.781 318.466 406.157 316.724C405.565 315.076 405.469 313.404 405.499 312.122C405.561 309.534 406.193 306.995 406.608 305.66C407.926 301.423 410.36 298.139 414.051 296.249ZM425.597 309.451C425.598 309.452 425.599 309.453 425.6 309.454C425.551 309.416 425.549 309.409 425.597 309.451ZM433.212 320.212C433.213 320.213 433.204 320.224 433.178 320.244C433.198 320.222 433.21 320.212 433.212 320.212ZM432.166 332.17C432.165 332.17 432.181 332.164 432.215 332.153C432.184 332.165 432.167 332.17 432.166 332.17ZM422.125 305.495C420.592 305.488 419.644 305.731 419.059 306.03C418.507 306.313 417.727 306.912 417.102 308.924C416.992 309.275 416.838 309.847 416.71 310.509C416.635 310.898 416.576 311.281 416.537 311.64C417.276 311.51 418.153 311.112 419.146 310.287C420.949 308.789 421.952 306.781 422.125 305.495Z" fill="black"/>
<path fill-rule="evenodd" clip-rule="evenodd" d="M468.345 298.933C468.351 297.867 468.049 296.788 467.409 295.836C465.715 293.318 462.3 292.651 459.783 294.344C459.166 294.759 458.379 295.221 457.319 295.844C457.178 295.926 457.033 296.012 456.882 296.1C455.682 296.806 454.254 297.656 452.867 298.612C450.388 300.319 446.707 303.219 445.49 307.549C444.714 310.308 444.809 313.809 447.303 316.484C449.732 319.088 453.121 319.483 455.785 319.058C457.103 318.849 458.261 318.321 459.064 317.901C459.936 317.445 460.804 316.894 461.603 316.347C463.077 315.339 464.67 314.101 466.066 313.016C466.168 312.937 466.27 312.858 466.37 312.78C467.479 311.919 468.433 311.186 469.237 310.612C469.449 310.806 469.675 311.026 469.916 311.274C471.009 312.398 472.113 313.809 473 315.278C473.908 316.782 474.446 318.11 474.644 319.083C474.702 319.367 474.722 319.569 474.726 319.705C474.713 319.716 474.7 319.729 474.686 319.741C474.337 320.058 473.836 320.473 473.209 320.951C471.953 321.909 470.386 322.973 468.89 323.841C468.288 324.19 467.764 324.469 467.322 324.686C466.612 324.351 465.818 324.163 464.98 324.163C461.945 324.163 459.485 326.623 459.485 329.658C459.485 330.603 459.666 331.828 460.365 333.042C461.102 334.321 462.195 335.201 463.362 335.704C465.376 336.574 467.334 336.226 468.245 336.02C470.34 335.544 472.608 334.389 474.405 333.346C476.335 332.226 478.285 330.9 479.874 329.688C480.669 329.082 481.423 328.466 482.064 327.886C482.599 327.4 483.407 326.631 483.996 325.742C485.959 322.782 485.934 319.453 485.412 316.891C484.882 314.288 483.715 311.764 482.408 309.599C481.08 307.4 479.461 305.326 477.793 303.612C476.199 301.972 474.248 300.338 472.185 299.39C470.746 298.729 469.365 298.753 468.345 298.933ZM465.813 325.303C465.713 325.326 465.731 325.311 465.841 325.297C465.831 325.299 465.822 325.301 465.813 325.303ZM474.715 319.926C474.715 319.926 474.716 319.92 474.719 319.909C474.717 319.921 474.716 319.927 474.715 319.926ZM453.706 308.289C453.706 308.289 453.707 308.289 453.708 308.288Z" fill="black"/>
<path fill-rule="evenodd" clip-rule="evenodd" d="M489.203 293.271C491.706 291.556 495.126 292.195 496.841 294.698C498.533 297.168 500.572 299.007 502.033 299.601C502.385 299.745 502.574 299.764 502.645 299.764C502.75 299.706 503.109 299.459 503.623 298.636C503.762 298.412 503.945 298.136 504.166 297.855C504.337 297.637 504.763 297.109 505.429 296.629C505.862 296.317 508.131 294.781 510.965 296.036C513.518 297.167 514.063 299.546 514.147 299.914L514.148 299.92C514.397 301.005 514.271 302.005 514.243 302.225C514.241 302.235 514.24 302.244 514.239 302.251C514.19 302.66 514.116 303.063 514.051 303.385C513.918 304.039 513.743 304.751 513.623 305.238C513.613 305.277 513.604 305.314 513.595 305.35C513.552 305.522 513.519 305.658 513.492 305.769C513.039 310.67 513.904 315.046 515.028 320.728C515.111 321.151 515.196 321.581 515.282 322.019C515.867 324.997 513.928 327.885 510.95 328.47C507.972 329.055 505.084 327.115 504.499 324.137C504.401 323.635 504.3 323.129 504.198 322.619C503.457 318.908 502.672 314.977 502.448 310.752C500.799 310.722 499.25 310.333 497.888 309.779C493.537 308.007 489.987 304.136 487.776 300.909C486.061 298.406 486.7 294.986 489.203 293.271ZM512.946 304.453C512.946 304.453 512.945 304.455 512.942 304.459C512.945 304.455 512.946 304.453 512.946 304.453ZM513.445 305.976C513.444 305.977 513.447 305.962 513.454 305.929C513.449 305.958 513.445 305.974 513.445 305.976ZM502.612 299.778C502.612 299.778 502.619 299.775 502.632 299.77C502.619 299.777 502.612 299.779 502.612 299.778ZM502.655 299.763C502.67 299.76 502.678 299.76 502.678 299.76C502.679 299.761 502.671 299.763 502.655 299.763Z" fill="black"/>
</svg>
