<svg width="615" height="640" viewBox="0 0 615 640" fill="none" xmlns="http://www.w3.org/2000/svg">
<path fill-rule="evenodd" clip-rule="evenodd" d="M614.351 38.7008V615.573C614.351 629.063 603.415 640 589.924 640H24.4275C10.9366 640 0 629.063 0 615.573V24.4275C0 10.9366 10.9366 0 24.4275 0H76.9466V6.10687H90.6092L93.052 3.66412H145.344V0H480V11.8306L486.945 4.8855H535.573V0H575.65L614.351 38.7008ZM94.6565 15.8779H67.1756V9.77099H24.4275C16.3329 9.77099 9.77099 16.3329 9.77099 24.4275V615.573C9.77099 623.667 16.3329 630.229 24.4275 630.229H589.924C598.018 630.229 604.58 623.667 604.58 615.573V42.7481L571.603 9.77099H545.344V14.6565H490.992L480.611 25.0382H470.229V9.77099H155.115V13.4351H97.0992L94.6565 15.8779Z" fill="#CDC8B4"/>
<path d="M9.77051 615.573V24.428C9.77051 16.3334 16.3324 9.77148 24.427 9.77148H67.1751V15.8784H94.656L97.0988 13.4356H155.114V9.77148H470.229V25.0387H480.61L490.992 14.657H545.343V9.77148H571.603L604.58 42.7486V615.573C604.58 623.668 598.018 630.229 589.923 630.229H24.427C16.3324 630.229 9.77051 623.668 9.77051 615.573Z" fill="#CDC8B4"/>
<path fill-rule="evenodd" clip-rule="evenodd" d="M24.4278 10.4703C16.7198 10.4703 10.4713 16.7188 10.4713 24.4268V615.572C10.4713 623.28 16.7198 629.528 24.4278 629.528H589.924C597.632 629.528 603.88 623.28 603.88 615.572V43.0373L571.313 10.4703H546.044V15.3558H491.283L480.901 25.7375H470.929V197.862C470.929 208.367 462.413 216.883 451.909 216.883H85.4965C74.9917 216.883 66.4759 208.367 66.4759 197.862V10.4703H24.4278ZM470.929 24.3375H480.321L490.703 13.9558H544.644V9.07031H571.893L605.28 42.4575V615.572C605.28 624.053 598.405 630.928 589.924 630.928H24.4278C15.9466 630.928 9.07129 624.053 9.07129 615.572V24.4268C9.07129 15.9456 15.9466 9.07031 24.4278 9.07031H67.8759V15.1772H94.3668L96.8096 12.7344H154.415V9.07031H470.929V24.3375ZM92.9668 16.5772H67.8759V20.6734H88.8707L92.9668 16.5772ZM67.8759 22.0734V197.862C67.8759 207.594 75.7649 215.483 85.4965 215.483H451.909C461.64 215.483 469.529 207.594 469.529 197.862V10.4703H155.815V14.1344H97.3895L89.4505 22.0734H67.8759Z" fill="black"/>
<path d="M155.114 9.77148H470.229V197.863C470.229 207.981 462.026 216.184 451.908 216.184H173.435C163.317 216.184 155.114 207.981 155.114 197.863V9.77148Z" fill="#CDC8B4"/>
<path fill-rule="evenodd" clip-rule="evenodd" d="M154.414 9.07031H470.929V197.862C470.929 208.367 462.413 216.883 451.908 216.883H173.435C162.93 216.883 154.414 208.367 154.414 197.862V9.07031ZM155.814 10.4703V197.862C155.814 207.593 163.703 215.482 173.435 215.482H451.908C461.64 215.482 469.529 207.593 469.529 197.862V10.4703H155.814Z" fill="black"/>
<path d="M340.764 45.1909C340.764 41.8181 343.498 39.084 346.871 39.084H415.267C418.64 39.084 421.374 41.8181 421.374 45.1909V197.863C421.374 201.235 418.64 203.969 415.267 203.969H346.871C343.498 203.969 340.764 201.235 340.764 197.863V45.1909Z" fill="#CDC8B4"/>
<path fill-rule="evenodd" clip-rule="evenodd" d="M340.063 45.1916C340.063 41.4323 343.111 38.3848 346.87 38.3848H415.267C419.027 38.3848 422.074 41.4323 422.074 45.1916V197.863C422.074 201.623 419.027 204.67 415.267 204.67H346.87C343.111 204.67 340.063 201.623 340.063 197.863V45.1916ZM346.87 39.7848C343.884 39.7848 341.463 42.2055 341.463 45.1916V197.863C341.463 200.85 343.884 203.27 346.87 203.27H415.267C418.253 203.27 420.674 200.85 420.674 197.863V45.1916C420.674 42.2055 418.253 39.7848 415.267 39.7848H346.87Z" fill="black"/>
<path d="M67.1758 282.137C67.1758 272.019 75.3782 263.816 85.4964 263.816H528.855C538.973 263.816 547.176 272.019 547.176 282.137V630.229H67.1758V282.137Z" fill="#CDC8B4"/>
<path fill-rule="evenodd" clip-rule="evenodd" d="M66.4756 282.138C66.4756 271.633 74.9914 263.117 85.4962 263.117H528.855C539.36 263.117 547.876 271.633 547.876 282.138V630.929H66.4756V282.138ZM85.4962 264.517C75.7646 264.517 67.8756 272.406 67.8756 282.138V629.529H546.476V282.138C546.476 272.406 538.587 264.517 528.855 264.517H85.4962Z" fill="black"/>
<path d="M67.1758 282.137C67.1758 272.019 75.3782 263.816 85.4964 263.816H528.855C538.973 263.816 547.176 272.019 547.176 282.137V589.923C547.176 600.041 538.973 608.244 528.855 608.244H85.4964C75.3782 608.244 67.1758 600.041 67.1758 589.923V282.137Z" fill="#CDC8B4"/>
<path fill-rule="evenodd" clip-rule="evenodd" d="M66.4756 282.138C66.4756 271.633 74.9914 263.117 85.4962 263.117H528.855C539.36 263.117 547.876 271.633 547.876 282.138V589.924C547.876 600.429 539.36 608.945 528.855 608.945H85.4962C74.9914 608.945 66.4756 600.429 66.4756 589.924V282.138ZM85.4962 264.517C75.7646 264.517 67.8756 272.406 67.8756 282.138V589.924C67.8756 599.656 75.7646 607.545 85.4962 607.545H528.855C538.587 607.545 546.476 599.656 546.476 589.924V282.138C546.476 272.406 538.587 264.517 528.855 264.517H85.4962Z" fill="black"/>
<path d="M67.1758 532.52H547.176V589.924C547.176 600.042 538.973 608.245 528.855 608.245H85.4964C75.3782 608.245 67.1758 600.042 67.1758 589.924V532.52Z" fill="#CDC8B4"/>
<path fill-rule="evenodd" clip-rule="evenodd" d="M66.4756 531.818H547.876V589.923C547.876 600.428 539.36 608.944 528.855 608.944H85.4962C74.9914 608.944 66.4756 600.428 66.4756 589.923V531.818ZM67.8756 533.218V589.923C67.8756 599.655 75.7646 607.544 85.4962 607.544H528.855C538.587 607.544 546.476 599.655 546.476 589.923V533.218H67.8756Z" fill="black"/>
<path d="M28.0918 556.947H57.4048V586.26H28.0918V556.947Z" fill="#CDC8B4"/>
<path fill-rule="evenodd" clip-rule="evenodd" d="M27.3916 556.246H58.1046V586.959H27.3916V556.246ZM28.7916 557.646V585.559H56.7046V557.646H28.7916Z" fill="black"/>
<path d="M28.0918 556.947H57.4048V576.489H28.0918V556.947Z" fill="#CDC8B4"/>
<path fill-rule="evenodd" clip-rule="evenodd" d="M27.3916 556.246H58.1046V577.188H27.3916V556.246ZM28.7916 557.646V575.788H56.7046V557.646H28.7916Z" fill="black"/>
<path d="M556.946 556.947H586.259V586.26H556.946V556.947Z" fill="#CDC8B4"/>
<path fill-rule="evenodd" clip-rule="evenodd" d="M556.246 556.246H586.959V586.959H556.246V556.246ZM557.646 557.646V585.559H585.559V557.646H557.646Z" fill="black"/>
<path fill-rule="evenodd" clip-rule="evenodd" d="M29.3133 96.4891V79.3898H20.7637L35.4202 48.8555L50.0766 79.3898H41.527V96.4891H35.4202H29.3133Z" fill="#CDC8B4"/>
<path fill-rule="evenodd" clip-rule="evenodd" d="M35.4203 47.2383L51.1893 80.0903H42.2272V97.1895H28.6134V80.0903H19.6514L35.4203 47.2383ZM21.8763 78.6903H30.0134V95.7895H40.8272V78.6903H48.9643L35.4203 50.4735L21.8763 78.6903Z" fill="black"/>
<path fill-rule="evenodd" clip-rule="evenodd" d="M516.641 472.15H97.71V470.75H516.641V472.15Z" fill="black"/>
<path fill-rule="evenodd" clip-rule="evenodd" d="M516.641 423.295H97.71V421.895H516.641V423.295Z" fill="black"/>
<path fill-rule="evenodd" clip-rule="evenodd" d="M516.641 374.441H97.71V373.041H516.641V374.441Z" fill="black"/>
<path fill-rule="evenodd" clip-rule="evenodd" d="M516.641 325.586H97.71V324.186H516.641V325.586Z" fill="black"/>
</svg>
