<svg width="616" height="640" viewBox="0 0 616 640" fill="none" xmlns="http://www.w3.org/2000/svg">
<path fill-rule="evenodd" clip-rule="evenodd" d="M615.054 38.7008V615.573C615.054 629.063 604.118 640 590.627 640H25.1306C11.6397 640 0.703125 629.063 0.703125 615.573V24.4275C0.703125 10.9366 11.6397 0 25.1306 0H77.6497V6.10687H91.3123L93.7551 3.66412H146.047V0H480.703V11.8306L487.648 4.8855H536.276V0H576.353L615.054 38.7008ZM95.3596 15.8779H67.8787V9.77099H25.1306C17.036 9.77099 10.4741 16.3329 10.4741 24.4275V615.573C10.4741 623.667 17.0361 630.229 25.1306 630.229H590.627C598.721 630.229 605.283 623.667 605.283 615.573V42.7481L572.306 9.77099H546.047V14.6565H491.695L481.314 25.0382H470.932V9.77099H155.818V13.4351H97.8024L95.3596 15.8779Z" fill="#FDCF77"/>
<path d="M10.4736 615.573V24.428C10.4736 16.3334 17.0356 9.77148 25.1301 9.77148H67.8782V15.8784H95.3591L97.8019 13.4356H155.817V9.77148H470.932V25.0387H481.313L491.695 14.657H546.046V9.77148H572.306L605.283 42.7486V615.573C605.283 623.668 598.721 630.229 590.626 630.229H25.1301C17.0356 630.229 10.4736 623.668 10.4736 615.573Z" fill="#FDCF77"/>
<path fill-rule="evenodd" clip-rule="evenodd" d="M25.1309 10.4703C17.4229 10.4703 11.1744 16.7188 11.1744 24.4268V615.572C11.1744 623.28 17.4229 629.528 25.1309 629.528H590.627C598.335 629.528 604.584 623.28 604.584 615.572V43.0373L572.017 10.4703H546.747V15.3558H491.986L481.604 25.7375H471.632V197.862C471.632 208.367 463.117 216.883 452.612 216.883H86.1996C75.6948 216.883 67.179 208.367 67.179 197.862V10.4703H25.1309ZM471.632 24.3375H481.024L491.406 13.9558H545.347V9.07031H572.596L605.984 42.4575V615.572C605.984 624.053 599.108 630.928 590.627 630.928H25.1309C16.6497 630.928 9.77441 624.053 9.77441 615.572V24.4268C9.77441 15.9456 16.6497 9.07031 25.1309 9.07031H68.579V15.1772H95.07L97.5127 12.7344H155.118V9.07031H471.632V24.3375ZM93.67 16.5772H68.579V20.6734H89.5738L93.67 16.5772ZM68.579 22.0734V197.862C68.579 207.594 76.468 215.483 86.1996 215.483H452.612C462.343 215.483 470.232 207.594 470.232 197.862V10.4703H156.518V14.1344H98.0926L90.1537 22.0734H68.579Z" fill="black"/>
<path d="M155.817 9.77148H470.932V197.863C470.932 207.981 462.729 216.184 452.611 216.184H174.138C164.02 216.184 155.817 207.981 155.817 197.863V9.77148Z" fill="#FDCF77"/>
<path fill-rule="evenodd" clip-rule="evenodd" d="M155.117 9.07031H471.632V197.862C471.632 208.367 463.116 216.883 452.611 216.883H174.138C163.633 216.883 155.117 208.367 155.117 197.862V9.07031ZM156.517 10.4703V197.862C156.517 207.593 164.406 215.482 174.138 215.482H452.611C462.343 215.482 470.232 207.593 470.232 197.862V10.4703H156.517Z" fill="black"/>
<path d="M341.467 45.1909C341.467 41.8181 344.201 39.084 347.574 39.084H415.971C419.343 39.084 422.077 41.8181 422.077 45.1909V197.863C422.077 201.235 419.343 203.969 415.971 203.969H347.574C344.201 203.969 341.467 201.235 341.467 197.863V45.1909Z" fill="#FDCF77"/>
<path fill-rule="evenodd" clip-rule="evenodd" d="M340.767 45.1916C340.767 41.4323 343.814 38.3848 347.573 38.3848H415.97C419.73 38.3848 422.777 41.4323 422.777 45.1916V197.863C422.777 201.623 419.73 204.67 415.97 204.67H347.573C343.814 204.67 340.767 201.623 340.767 197.863V45.1916ZM347.573 39.7848C344.587 39.7848 342.167 42.2055 342.167 45.1916V197.863C342.167 200.85 344.587 203.27 347.573 203.27H415.97C418.957 203.27 421.377 200.85 421.377 197.863V45.1916C421.377 42.2055 418.957 39.7848 415.97 39.7848H347.573Z" fill="black"/>
<path d="M67.8789 282.137C67.8789 272.019 76.0813 263.816 86.1995 263.816H529.558C539.677 263.816 547.879 272.019 547.879 282.137V630.229H67.8789V282.137Z" fill="#FDCF77"/>
<path fill-rule="evenodd" clip-rule="evenodd" d="M67.1787 282.138C67.1787 271.633 75.6945 263.117 86.1993 263.117H529.558C540.063 263.117 548.579 271.633 548.579 282.138V630.929H67.1787V282.138ZM86.1993 264.517C76.4677 264.517 68.5787 272.406 68.5787 282.138V629.529H547.179V282.138C547.179 272.406 539.29 264.517 529.558 264.517H86.1993Z" fill="black"/>
<path d="M67.8789 282.137C67.8789 272.019 76.0813 263.816 86.1995 263.816H529.558C539.677 263.816 547.879 272.019 547.879 282.137V589.923C547.879 600.041 539.677 608.244 529.558 608.244H86.1995C76.0813 608.244 67.8789 600.041 67.8789 589.923V282.137Z" fill="#FDCF77"/>
<path fill-rule="evenodd" clip-rule="evenodd" d="M67.1787 282.138C67.1787 271.633 75.6945 263.117 86.1993 263.117H529.558C540.063 263.117 548.579 271.633 548.579 282.138V589.924C548.579 600.429 540.063 608.945 529.558 608.945H86.1993C75.6945 608.945 67.1787 600.429 67.1787 589.924V282.138ZM86.1993 264.517C76.4677 264.517 68.5787 272.406 68.5787 282.138V589.924C68.5787 599.656 76.4677 607.545 86.1993 607.545H529.558C539.29 607.545 547.179 599.656 547.179 589.924V282.138C547.179 272.406 539.29 264.517 529.558 264.517H86.1993Z" fill="black"/>
<path d="M28.7949 556.947H58.1079V586.26H28.7949V556.947Z" fill="#FDCF77"/>
<path fill-rule="evenodd" clip-rule="evenodd" d="M28.0947 556.246H58.8077V586.959H28.0947V556.246ZM29.4947 557.646V585.559H57.4077V557.646H29.4947Z" fill="black"/>
<path d="M28.7949 556.947H58.1079V576.489H28.7949V556.947Z" fill="#FDCF77"/>
<path fill-rule="evenodd" clip-rule="evenodd" d="M28.0947 556.246H58.8077V577.188H28.0947V556.246ZM29.4947 557.646V575.788H57.4077V557.646H29.4947Z" fill="black"/>
<path d="M557.649 556.947H586.962V586.26H557.649V556.947Z" fill="#FDCF77"/>
<path fill-rule="evenodd" clip-rule="evenodd" d="M556.949 556.246H587.662V586.959H556.949V556.246ZM558.349 557.646V585.559H586.262V557.646H558.349Z" fill="black"/>
<path fill-rule="evenodd" clip-rule="evenodd" d="M30.0164 96.4891V79.3898H21.4668L36.1233 48.8555L50.7798 79.3898H42.2302V96.4891H36.1233H30.0164Z" fill="#FDCF77"/>
<path fill-rule="evenodd" clip-rule="evenodd" d="M36.1234 47.2383L51.8924 80.0903H42.9303V97.1895H29.3166V80.0903H20.3545L36.1234 47.2383ZM22.5794 78.6903H30.7166V95.7895H41.5303V78.6903H49.6675L36.1234 50.4735L22.5794 78.6903Z" fill="black"/>
<path fill-rule="evenodd" clip-rule="evenodd" d="M513.792 359.755C496.04 326.669 452.296 303.152 413.201 312.175C395.967 316.152 379.617 324.432 366.301 335.347C351.337 347.612 338.617 361.712 337.755 378.314C337.714 379.106 337.524 379.854 337.213 380.534C340.579 382.456 343.65 384.692 346.678 387.073C350.671 390.213 355.296 392.652 360.364 395.326C362.016 396.198 363.715 397.094 365.455 398.048C378.445 405.168 392.407 410.945 406.74 415.72C408.405 416.275 410.31 416.985 412.083 417.647C413.221 418.071 414.303 418.474 415.234 418.804C417.805 419.714 420.141 420.42 422.401 420.791C422.454 420.792 422.509 420.794 422.561 420.795C422.887 420.805 423.415 420.826 423.963 420.882L423.994 420.885C424.334 420.919 425.51 421.036 426.655 421.546L426.672 421.554C427.054 421.724 429.356 422.746 430.186 425.518C431.233 429.015 429.004 431.381 428.409 431.935C426.436 433.773 423.931 435.013 422.091 435.846C420.977 436.351 420.159 436.693 419.455 436.986C418.653 437.322 418 437.594 417.229 437.975C409.575 441.751 402.031 445.675 394.418 449.635C392.122 450.829 389.82 452.026 387.507 453.223C375.794 459.287 364.367 465.676 352.846 472.118C348.157 474.74 343.452 477.371 338.706 479.992C339.038 480.349 339.392 480.717 339.761 481.094C339.901 481.237 340.057 481.395 340.223 481.563C340.924 482.272 341.799 483.156 342.35 483.824C356.706 501.215 374.629 512.874 398.015 515.82C412.993 517.707 429.237 516.132 444.508 513.199C459.089 510.398 472.91 505.347 482.944 496.23C494.663 485.581 501.964 470.023 508.518 454.668C512.162 446.131 514.831 437.303 516.701 428.208C519.181 416.147 520.037 403.907 519.727 391.482C519.43 379.562 518.794 369.077 513.792 359.755ZM422.052 420.78C422.055 420.78 422.09 420.781 422.146 420.784C422.077 420.782 422.049 420.78 422.052 420.78ZM325.692 375.809C327.659 354.392 343.911 337.907 358.558 325.901C373.266 313.845 391.312 304.692 410.455 300.274C455.551 289.866 504.516 316.635 524.555 353.981C531.101 366.181 531.644 379.452 531.937 391.177C532.266 404.363 531.362 417.547 528.665 430.668C526.646 440.486 523.746 450.104 519.751 459.462C513.27 474.649 505.097 492.604 491.158 505.269C478.745 516.548 462.395 522.2 446.812 525.193C430.898 528.25 413.245 530.049 396.488 527.938C369.472 524.534 348.891 510.934 332.931 491.599C332.759 491.391 332.456 491.083 331.891 490.51C331.654 490.27 331.371 489.983 331.033 489.638C330.075 488.659 328.83 487.357 327.752 485.971C326.802 484.749 325.372 482.715 324.881 480.29C324.607 478.94 324.561 477.158 325.359 475.321C326.176 473.44 327.587 472.167 329.036 471.372C334.881 468.168 340.748 464.888 346.643 461.593C358.276 455.088 370.015 448.525 381.892 442.377C384.157 441.204 386.429 440.023 388.706 438.838C394.999 435.565 401.337 432.268 407.729 429.06C407.612 429.017 407.496 428.973 407.381 428.93C405.875 428.365 404.478 427.841 402.879 427.308C388.017 422.356 373.353 416.306 359.584 408.758C358.258 408.031 356.833 407.281 355.349 406.5C350.085 403.729 344.083 400.57 339.129 396.675C333.545 392.284 328.861 389.286 322.797 387.672C319.538 386.804 317.599 383.459 318.467 380.199C319.313 377.023 322.513 375.1 325.692 375.809ZM422.733 433.033C422.892 433.049 422.871 433.058 422.73 433.033C422.731 433.033 422.732 433.033 422.733 433.033Z" fill="black"/>
<path fill-rule="evenodd" clip-rule="evenodd" d="M420.474 359.637C420.853 356.286 423.877 353.875 427.228 354.254C432.058 354.799 436.09 357.054 438.308 361.035C440.386 364.765 440.264 368.938 439.314 372.309C438.35 375.731 436.369 379.011 433.693 381.495C431.007 383.988 427.281 385.968 422.887 385.968C422.745 385.968 422.58 385.97 422.394 385.972C420.896 385.99 418.061 386.024 415.628 385.172C414.008 384.606 412.289 383.594 410.929 381.847C409.593 380.131 408.937 378.135 408.692 376.139C408.67 375.959 408.643 375.756 408.614 375.535C408.373 373.698 407.96 370.554 408.455 367.847C408.769 366.127 409.533 363.946 411.411 362.171C413.346 360.343 415.763 359.602 418.099 359.484C418.926 359.442 419.722 359.566 420.456 359.827C420.461 359.764 420.467 359.701 420.474 359.637ZM424.497 366.078C424.303 368.498 422.687 370.548 420.451 371.34C420.456 371.422 420.462 371.509 420.469 371.6C420.519 372.272 420.601 372.945 420.701 373.744C420.94 373.752 421.207 373.756 421.515 373.757C421.78 373.758 421.994 373.757 422.228 373.756C422.42 373.755 422.627 373.754 422.887 373.754C423.488 373.754 424.375 373.479 425.384 372.543C426.403 371.597 427.198 370.274 427.558 368.998C427.931 367.672 427.679 367.053 427.638 366.979C427.638 366.979 427.637 366.978 427.637 366.977C427.63 366.964 427.605 366.914 427.461 366.828C427.282 366.72 426.812 366.498 425.857 366.391C425.383 366.337 424.928 366.231 424.497 366.078ZM420.475 370.017C420.475 370.017 420.475 370.018 420.474 370.02C420.475 370.018 420.475 370.017 420.475 370.017Z" fill="black"/>
<path fill-rule="evenodd" clip-rule="evenodd" d="M243.959 310.282C235.851 306.04 229.089 303.972 220.546 304.13C208.868 304.347 197.723 308.498 185.652 312.994C184.648 313.368 183.638 313.744 182.621 314.12C166.542 320.072 153.909 325.695 144.624 338.361C139.436 345.438 134.389 353.72 132.091 361.362C128.156 374.451 126.647 390.416 125.605 404.306C123.71 429.568 122.578 464.591 121.665 492.839C121.51 497.658 121.36 502.279 121.215 506.621C121.879 508.034 122.888 509.522 124.281 511.574C124.623 512.079 124.989 512.617 125.378 513.197C125.516 513.404 125.65 513.603 125.778 513.795C128.098 517.255 128.818 518.33 130.185 518.858C131.101 519.212 132.567 519.457 134.054 519.339C135.604 519.216 136.359 518.775 136.551 518.601C136.809 518.368 137.064 518.138 137.316 517.91C141.701 513.95 145.155 510.83 147.138 506.864C148.823 503.494 149.75 499.451 150.694 494.836C150.853 494.057 151.03 493.086 151.227 491.998C151.704 489.381 152.303 486.084 153.084 483.145C154.186 478.99 156.038 473.78 159.821 470.234C161.51 468.65 163.534 468.082 164.81 467.835C166.203 467.565 167.608 467.516 168.767 467.53C170.471 467.552 172.439 467.752 173.537 467.863C173.838 467.893 174.074 467.917 174.221 467.929C177.451 468.188 180.186 469.77 182.02 471.066C183.96 472.435 185.645 474.033 186.788 475.15C187.292 475.642 187.805 476.11 188.404 476.656C188.479 476.725 188.556 476.795 188.635 476.867C189.298 477.472 190.067 478.178 190.817 478.947C192.349 480.516 193.989 482.524 195.122 485.242C195.998 487.346 196.938 489.41 197.924 491.578C198.101 491.968 198.28 492.361 198.46 492.759C199.623 495.321 200.828 498.021 201.911 500.829C203.198 504.17 206.005 507.922 209.692 510.965C213.402 514.026 217.378 515.858 220.64 516.182C220.99 516.217 221.32 516.25 221.635 516.283C222.712 516.393 223.606 516.484 224.491 516.532C225.6 516.593 226.341 516.559 226.861 516.469C227.333 516.386 227.501 516.278 227.56 516.236C227.607 516.202 227.839 516.033 228.149 515.412C229.233 513.243 229.897 510.845 230.599 507.87C230.693 507.47 230.789 507.055 230.888 506.626C231.48 504.063 232.179 501.035 233.275 498.111C233.44 497.671 233.731 496.536 234.263 494.382C234.737 492.462 235.334 490.049 236.046 487.689C236.742 485.38 237.639 482.806 238.799 480.64C239.38 479.553 240.143 478.348 241.147 477.291C242.139 476.247 243.678 475.022 245.821 474.545C248.089 474.042 249.979 474.849 250.55 475.099C251.411 475.476 252.171 475.953 252.722 476.331C253.795 477.066 254.869 477.978 255.497 478.642C258.881 482.213 261.137 486.579 262.936 490.3C263.304 491.062 263.653 491.795 263.988 492.5C265.421 495.509 266.618 498.023 268.115 500.24C268.569 500.91 268.961 501.506 269.314 502.044C270.299 503.542 270.985 504.585 271.863 505.52C272.774 506.491 273.458 506.831 274.37 506.92C276.243 507.102 278.203 507.241 280.053 507.175C281.675 507.117 282.909 506.909 283.773 506.616C283.832 506.547 283.903 506.461 283.983 506.354C284.16 506.119 284.333 505.854 284.481 505.598C284.634 505.332 284.715 505.153 284.738 505.096C289.4 493.527 290.014 478.851 290.472 465.106C291.52 433.68 288.144 401.979 279.843 371.748C276.573 359.837 272.903 347.176 267.257 335.996C261.634 324.862 254.291 315.689 243.959 310.282ZM108.929 508.548C108.919 508.828 108.91 509.108 108.9 509.385C108.823 511.638 109.975 513.647 111.754 514.767C112.622 516.221 113.525 517.523 114.324 518.674C114.648 519.142 114.955 519.585 115.236 520.003C115.414 520.268 115.609 520.572 115.824 520.906C117.551 523.595 120.522 528.218 125.783 530.251C128.552 531.32 131.868 531.764 135.018 531.515C138.105 531.27 141.839 530.288 144.746 527.658C145.096 527.341 145.458 527.016 145.83 526.682C149.837 523.088 154.994 518.463 158.062 512.326C160.565 507.321 161.744 501.761 162.66 497.284C162.921 496.004 163.148 494.748 163.374 493.496C163.804 491.118 164.231 488.756 164.888 486.278C165.728 483.114 166.674 480.994 167.617 479.768C167.872 479.749 168.201 479.738 168.612 479.743C169.724 479.757 170.697 479.856 171.709 479.959C172.205 480.01 172.71 480.061 173.247 480.104C173.243 480.104 173.246 480.104 173.254 480.106C173.327 480.126 173.886 480.273 174.976 481.043C176.078 481.822 177.188 482.846 178.251 483.885C178.918 484.537 179.597 485.155 180.178 485.685C180.255 485.755 180.33 485.823 180.403 485.89C181.066 486.494 181.6 486.989 182.078 487.479C183.004 488.427 183.524 489.164 183.847 489.94C184.807 492.241 185.839 494.509 186.823 496.672C186.996 497.053 187.168 497.431 187.338 497.806C188.492 500.348 189.569 502.77 190.514 505.222C192.713 510.927 196.982 516.312 201.918 520.385C206.83 524.439 213.023 527.7 219.434 528.336C219.703 528.363 219.988 528.393 220.289 528.425C222.66 528.675 225.962 529.023 228.96 528.501C233.05 527.788 236.755 525.511 239.073 520.874C240.84 517.34 241.762 513.743 242.486 510.674C242.602 510.183 242.712 509.708 242.819 509.247C243.422 506.656 243.921 504.508 244.712 502.399C245.161 501.199 245.623 499.325 246.027 497.687C246.058 497.56 246.089 497.435 246.12 497.312C246.602 495.358 247.13 493.235 247.74 491.215C247.955 490.499 248.171 489.833 248.384 489.223C249.602 490.978 250.723 493.1 251.94 495.617C252.219 496.194 252.507 496.801 252.805 497.43C254.249 500.476 255.93 504.021 257.995 507.077C258.211 507.397 258.452 507.765 258.714 508.166C259.807 509.839 261.28 512.092 262.959 513.88C265.322 516.397 268.584 518.629 273.19 519.077C275.21 519.273 277.814 519.476 280.487 519.381C283.105 519.288 286.218 518.9 289.09 517.643C291.347 516.656 292.922 514.788 293.742 513.698C294.697 512.43 295.541 510.965 296.066 509.661C301.671 495.752 302.235 478.836 302.677 465.589L302.679 465.513C303.764 432.956 300.272 400.021 291.621 368.514C288.366 356.659 284.424 342.896 278.159 330.49C271.871 318.038 263.006 306.464 249.621 299.46C240.242 294.553 231.448 291.713 220.32 291.919C206.442 292.176 193.353 297.071 181.662 301.443C180.556 301.857 179.462 302.266 178.381 302.666C162.195 308.657 146.394 315.288 134.773 331.14C129.317 338.583 123.294 348.202 120.395 357.846C116.027 372.373 114.461 389.587 113.425 403.392C111.508 428.945 110.366 464.324 109.454 492.561C109.357 495.554 109.263 498.467 109.171 501.28C108.393 502.476 108.028 503.948 108.246 505.472C108.398 506.541 108.633 507.566 108.929 508.548ZM167.027 479.851C167.026 479.851 167.046 479.844 167.09 479.834C167.05 479.847 167.028 479.852 167.027 479.851Z" fill="black"/>
<path fill-rule="evenodd" clip-rule="evenodd" d="M169.918 366.557C171.372 365.91 173.076 365.828 174.67 366.466C174.987 366.592 175.363 366.679 176.053 366.715C176.424 366.735 176.838 366.738 177.397 366.736C177.49 366.736 177.59 366.736 177.695 366.735C178.164 366.733 178.732 366.73 179.304 366.74C181.8 366.787 183.812 367.531 185.347 368.276C186.085 368.633 186.767 369.019 187.297 369.322C187.36 369.358 187.422 369.393 187.481 369.427C187.966 369.703 188.332 369.912 188.712 370.11C191.676 371.649 194.224 373.622 196.202 376.273C198.175 378.917 199.341 381.912 200.008 385.15C201.587 392.817 199.623 400.725 195.386 406.733C191.12 412.783 184.224 417.31 175.796 417.31C174.663 417.31 173.44 417.359 172.024 417.416L172.02 417.416C170.648 417.471 169.111 417.533 167.558 417.535C164.514 417.538 160.867 417.322 157.405 416.086C152.584 414.364 149.783 410.347 148.235 406.947C146.648 403.457 145.913 399.644 145.745 396.625C145.718 396.134 145.678 395.558 145.634 394.921C145.491 392.862 145.304 390.165 145.357 387.63C145.426 384.342 145.878 380.047 148.086 376.419C150.285 372.806 152.993 370.015 156.544 368.241C160.013 366.508 163.728 366.029 167.43 366.029C168.316 366.029 169.158 366.218 169.918 366.557ZM169.918 377.715C169.158 378.054 168.316 378.243 167.43 378.243C164.71 378.243 163.115 378.612 162.002 379.167C160.973 379.682 159.827 380.62 158.519 382.769C158.039 383.557 157.625 385.158 157.568 387.886C157.527 389.819 157.655 391.67 157.789 393.602C157.842 394.368 157.895 395.146 157.94 395.947C158.04 397.744 158.504 400.023 159.352 401.888C160.241 403.842 161.114 404.441 161.512 404.583C162.972 405.105 164.932 405.323 167.546 405.321C168.822 405.32 170.125 405.269 171.528 405.212L171.658 405.207C172.978 405.154 174.413 405.096 175.796 405.096C179.565 405.096 182.998 403.107 185.405 399.694C187.841 396.239 188.894 391.737 188.045 387.613C187.649 385.689 187.077 384.466 186.414 383.578C185.757 382.697 184.771 381.826 183.084 380.949C182.472 380.632 181.883 380.295 181.422 380.032C181.362 379.997 181.303 379.964 181.247 379.932C180.718 379.63 180.351 379.427 180.018 379.265C179.41 378.971 179.188 378.954 179.074 378.952C178.846 378.948 178.563 378.952 178.232 378.957C176.419 378.984 173.199 379.032 170.134 377.806C170.061 377.777 169.989 377.746 169.918 377.715Z" fill="black"/>
<path fill-rule="evenodd" clip-rule="evenodd" d="M168.426 391.314C168.426 387.941 171.16 385.207 174.533 385.207C178.441 385.207 183.818 386.041 186.281 391.086C187.357 393.291 187.441 395.57 187.27 397.395C187.096 399.241 186.609 401.138 186.037 402.944C185.483 404.694 184.471 407.045 182.327 408.791C179.929 410.743 177.063 411.199 174.38 410.816C171.085 410.345 169.26 408.056 168.426 406.426C167.637 404.885 167.34 403.265 167.199 402.16C166.965 400.332 166.997 397.985 167.006 397.316C167.007 397.22 167.008 397.159 167.007 397.138C166.969 395.49 167.587 393.98 168.623 392.857C168.494 392.364 168.426 391.847 168.426 391.314Z" fill="black"/>
<path fill-rule="evenodd" clip-rule="evenodd" d="M235.382 368.253C234.218 367.232 232.667 366.651 230.999 366.749C226.396 367.02 222.648 368.889 219.839 371.788C217.16 374.552 215.561 378.008 214.562 381.27C212.588 387.709 212.465 395.091 212.465 399.719C212.465 404.308 214.113 408.135 216.899 411.047C219.543 413.809 222.928 415.464 226.1 416.5C232.365 418.546 239.581 418.729 243.985 418.729C247.63 418.729 251.143 418.207 254.3 416.037C257.245 414.013 259.131 411.031 260.748 408.165C265.586 399.588 266.001 389.751 265.876 381.747C265.796 376.652 262.498 373.384 259.428 371.584C256.414 369.817 252.759 368.875 249.457 368.369C246.065 367.85 242.548 367.719 239.492 367.861C238.14 367.924 236.732 368.046 235.382 368.253ZM229.476 379.582C229.153 379.78 228.871 380.018 228.61 380.287C227.751 381.174 226.914 382.646 226.239 384.849C224.862 389.341 224.679 395.038 224.679 399.719C224.679 401.162 225.113 401.964 225.724 402.603C226.478 403.391 227.805 404.208 229.892 404.89C234.146 406.279 239.637 406.516 243.985 406.516C246.54 406.516 247.161 406.124 247.382 405.972C247.815 405.674 248.551 404.927 250.11 402.164C253.159 396.758 253.762 389.989 253.67 382.393C253.575 382.323 253.44 382.232 253.251 382.121C252.139 381.469 250.21 380.841 247.609 380.442C245.1 380.058 242.397 379.953 240.058 380.062C238.895 380.116 237.884 380.22 237.081 380.349C236.682 380.414 236.363 380.48 236.12 380.54C236.001 380.57 235.91 380.596 235.845 380.617C235.779 380.637 235.751 380.648 235.756 380.646C233.557 381.526 231.148 381.036 229.476 379.582ZM253.861 382.563C253.859 382.564 253.844 382.549 253.823 382.519C253.853 382.548 253.863 382.563 253.861 382.563Z" fill="black"/>
<path fill-rule="evenodd" clip-rule="evenodd" d="M235.967 390.444C233.464 391.207 231.644 393.534 231.644 396.286C231.644 399.659 234.378 402.393 237.75 402.393C238.15 402.393 238.613 402.38 239.017 402.369L239.102 402.367C239.297 402.362 239.494 402.356 239.693 402.351C240.174 402.951 240.693 403.524 241.246 404.077C241.974 404.805 243.186 405.835 244.883 406.336C246.943 406.943 249.473 406.647 251.434 404.852C253.021 403.4 253.509 401.61 253.679 400.626C253.871 399.515 253.829 398.45 253.701 397.553C253.168 393.825 250.348 392.03 248.706 391.319C248.51 391.234 248.313 391.155 248.115 391.083C247.99 387.752 245.21 385.129 241.867 385.209C238.84 385.281 236.381 387.543 235.967 390.444Z" fill="black"/>
<path fill-rule="evenodd" clip-rule="evenodd" d="M289.68 568.195C288.703 573.42 287.926 578.903 287.926 584.348C287.926 587.721 290.66 590.455 294.033 590.455C297.406 590.455 300.14 587.721 300.14 584.348C300.14 577.577 301.574 570.753 303.129 563.355C303.398 562.073 303.671 560.774 303.941 559.455C304.635 556.061 305.671 552.423 306.851 549.558L306.855 549.549C306.926 549.376 307.183 548.752 307.3 547.946C307.349 547.606 307.496 546.494 307.069 545.164C306.496 543.381 304.926 541.499 302.375 541.016C300.537 540.667 299.13 541.264 298.749 541.431C298.2 541.672 297.802 541.943 297.612 542.079C297.214 542.363 296.918 542.643 296.789 542.768C296.285 543.255 295.747 543.906 295.436 544.287C295.051 544.758 294.653 545.264 294.356 545.643C294.28 545.741 294.217 545.822 294.165 545.888C293.93 546.188 293.925 546.194 294 546.109C287.38 553.642 280.59 560.546 272.891 566.406C270.207 568.449 269.688 572.281 271.73 574.964C273.773 577.648 277.605 578.168 280.288 576.125C283.583 573.617 286.701 570.96 289.68 568.195ZM295.556 544.91C295.553 544.918 295.544 544.939 295.531 544.971C295.54 544.95 295.549 544.929 295.557 544.907C295.557 544.908 295.557 544.909 295.556 544.91Z" fill="black"/>
<path fill-rule="evenodd" clip-rule="evenodd" d="M348.742 534.244C351.848 535.559 353.3 539.143 351.986 542.249C349.825 547.352 347.37 552.438 344.987 557.374C344.408 558.573 343.833 559.763 343.268 560.943C340.335 567.066 337.608 572.997 335.501 578.968C334.86 580.784 333.882 582.337 333.28 583.293C333.244 583.351 333.208 583.407 333.175 583.461C332.456 584.605 332.215 585.05 332.095 585.408C331.029 588.607 327.57 590.337 324.371 589.27C321.171 588.204 319.442 584.745 320.508 581.545C321.137 579.66 322.139 578.066 322.75 577.094C322.778 577.051 322.804 577.009 322.829 576.968C323.562 575.801 323.834 575.325 323.983 574.903C326.324 568.271 329.295 561.839 332.253 555.665C332.855 554.41 333.454 553.169 334.048 551.938C336.418 547.028 338.707 542.285 340.738 537.488C342.053 534.382 345.636 532.93 348.742 534.244Z" fill="black"/>
<path fill-rule="evenodd" clip-rule="evenodd" d="M375.939 541.843C379.183 542.764 381.067 546.14 380.146 549.385C379.906 550.231 379.222 551.89 378.61 553.378C378.54 553.546 378.471 553.713 378.404 553.876C377.626 555.769 376.703 558.022 375.878 560.198C375.792 560.426 375.708 560.65 375.626 560.87C376.649 560.863 377.68 560.85 378.725 560.838C380.079 560.822 381.455 560.806 382.864 560.799C386.696 560.779 390.49 560.7 394.266 560.52C394.299 558.2 394.329 555.929 394.329 553.726C394.329 552.991 394.344 552.326 394.384 551.758C394.384 551.747 394.385 551.733 394.386 551.718C394.408 551.386 394.482 550.27 394.927 549.177C395.07 548.826 395.388 548.125 396.014 547.405C396.67 546.652 397.981 545.543 399.994 545.323C402.002 545.103 403.515 545.899 404.309 546.481C405.071 547.039 405.531 547.645 405.744 547.95C406.404 548.89 406.708 549.912 406.772 550.126C406.776 550.138 406.778 550.147 406.78 550.154C407.06 551.067 407.431 552.846 407.627 553.789C407.682 554.054 407.724 554.253 407.746 554.349C407.72 554.235 407.735 554.281 407.839 554.583C407.913 554.796 408.029 555.135 408.205 555.634C408.299 555.899 408.402 556.19 408.511 556.497C408.787 557.277 409.103 558.167 409.403 559.034C409.819 560.233 410.252 561.519 410.559 562.564C410.705 563.061 410.871 563.666 410.981 564.241C411.03 564.497 411.119 564.999 411.132 565.587C411.138 565.87 411.136 566.432 410.99 567.11C410.875 567.648 410.475 569.231 408.965 570.525C408.03 571.327 407.038 571.729 406.426 571.93C406.492 576.432 406.726 580.837 407.354 585.23C407.831 588.568 405.511 591.662 402.172 592.139C398.833 592.616 395.74 590.296 395.263 586.957C394.592 582.26 394.319 577.476 394.228 572.748C390.443 572.918 386.677 572.993 382.928 573.012C381.696 573.019 380.426 573.034 379.133 573.049C375.564 573.091 371.813 573.135 368.149 573.009C365.838 572.929 363.888 571.673 362.793 569.873C361.938 568.467 361.807 567.083 361.776 566.433C361.709 565.047 361.991 563.663 362.212 562.737C362.702 560.684 363.587 558.167 364.456 555.871C365.35 553.514 366.335 551.112 367.108 549.232C367.132 549.173 367.156 549.115 367.18 549.057C367.542 548.177 367.846 547.437 368.081 546.85C368.246 546.436 368.335 546.2 368.376 546.091C368.409 546.003 368.411 545.999 368.396 546.051C369.317 542.806 372.694 540.922 375.939 541.843ZM406.582 552.462C406.584 552.465 406.58 552.512 406.569 552.594C406.575 552.5 406.581 552.459 406.582 552.462ZM395.118 553.782C395.113 553.765 395.108 553.749 395.103 553.732C395.102 553.73 395.101 553.728 395.101 553.726C395.069 553.624 395.067 553.636 395.098 553.726C395.103 553.742 395.11 553.761 395.118 553.782Z" fill="black"/>
</svg>
